<svg xmlns="http://www.w3.org/2000/svg" xmlns:xlink="http://www.w3.org/1999/xlink" width="72.594" height="71.292" viewBox="0 0 72.594 71.292">
  <defs>
    <linearGradient id="linear-gradient" x1="0.5" y1="1.272" x2="0.5" y2="0.294" gradientUnits="objectBoundingBox">
      <stop offset="0" stop-color="#bf0487"/>
      <stop offset="1" stop-color="#04adbf"/>
    </linearGradient>
  </defs>
  <path id="Path_1917" data-name="Path 1917" d="M-109.44,745.411a35.792,35.792,0,0,0-26.478-10.068,36.814,36.814,0,0,0-34.878,34.9,36.548,36.548,0,0,0,23.969,35.7,10.065,10.065,0,0,0,3.588.665,10.426,10.426,0,0,0,5.93-1.894,11.041,11.041,0,0,0,4.8-9.08V790.2a21.587,21.587,0,0,0,18.4-13.243c0-.007.009-.012.012-.019a1.972,1.972,0,0,0,.138-.39,21.416,21.416,0,0,0,1.494-7.831,21.584,21.584,0,0,0-21.559-21.559,21.562,21.562,0,0,0-18.753,10.962,2,2,0,0,0-.152.227c-.011.022-.016.045-.027.066a21.426,21.426,0,0,0-2.628,10.3,21.583,21.583,0,0,0,19.071,21.4v5.506a7.043,7.043,0,0,1-3.068,5.787,6.249,6.249,0,0,1-5.85.774A32.558,32.558,0,0,1-166.8,770.4a32.778,32.778,0,0,1,31.051-31.058,31.838,31.838,0,0,1,23.537,8.956,32.528,32.528,0,0,1,9.987,23.332A32.363,32.363,0,0,1-123.1,801.94a2,2,0,0,0-1.141,2.588,2,2,0,0,0,2.588,1.141,36.337,36.337,0,0,0,23.431-34.041A36.548,36.548,0,0,0-109.44,745.411Zm-24.582,5.749a17.579,17.579,0,0,1,17.559,17.559,17.45,17.45,0,0,1-.628,4.581l-5.667-2.7a11.479,11.479,0,0,0,.169-1.885,11.446,11.446,0,0,0-11.433-11.433,11.415,11.415,0,0,0-8.809,4.153l-5.47-2.9A17.534,17.534,0,0,1-134.022,751.16Zm0,10.126a7.442,7.442,0,0,1,7.433,7.433,7.441,7.441,0,0,1-7.433,7.433,7.442,7.442,0,0,1-7.434-7.433A7.442,7.442,0,0,1-134.022,761.286Zm-17.56,7.433a17.46,17.46,0,0,1,1.331-6.687l5.456,2.893a11.368,11.368,0,0,0-.661,3.794,11.446,11.446,0,0,0,11.434,11.433,11.431,11.431,0,0,0,9.913-5.761l5.548,2.64a17.573,17.573,0,0,1-15.461,9.247A17.579,17.579,0,0,1-151.582,768.719Z" transform="translate(170.818 -735.312)" fill="url(#linear-gradient)"/>
</svg>
