<svg width="13" height="14" fill="none" xmlns="http://www.w3.org/2000/svg"><path d="M4.829 0c1.28 0 2.508.548 3.414 1.523.905.975 1.414 2.298 1.414 3.677a5.455 5.455 0 01-1.159 3.384l.2.216h.588l3.714 4-1.114 1.2-3.715-4v-.632l-.2-.216c-.847.776-1.946 1.248-3.142 1.248-1.281 0-2.51-.548-3.415-1.523C.51 7.902 0 6.579 0 5.2c0-1.38.509-2.702 1.414-3.677C2.32.548 3.548 0 4.83 0zm0 1.6c-1.858 0-3.343 1.6-3.343 3.6S2.97 8.8 4.829 8.8c1.857 0 3.342-1.6 3.342-3.6S6.686 1.6 4.83 1.6z" fill="#030303"/></svg>