<svg xmlns="http://www.w3.org/2000/svg" width="21" height="25"><path fill-rule="evenodd" d="M20.773 6.813c-.203.241-.408.48-.597.733-.7.937-1.259 1.966-1.636 3.109a8.865 8.865 0 00-.428 3.315c.032.578.082 1.152.193 1.719.111.566.272 1.115.51 1.634.396.866.966 1.558 1.724 2.06.043.029.086.055.127.087a.88.88 0 01.263 1.037c-.026.064-.059.125-.09.187l-1.421 2.804c-.035.069-.068.138-.11.201-.185.283-.504.407-.811.315a1.215 1.215 0 01-.162-.06 11.336 11.336 0 00-2.295-.72 7.51 7.51 0 00-1.806-.157 5.004 5.004 0 00-1.692.354 3.963 3.963 0 00-1.669 1.302c-.036.048-.069.099-.111.142-.158.163-.357.165-.518.006-.032-.03-.058-.068-.085-.105-.626-.851-1.443-1.349-2.41-1.569a5.91 5.91 0 00-1.828-.109c-1.11.096-2.173.401-3.209.835-.066.028-.133.057-.2.079-.327.099-.652-.035-.84-.344-.028-.045-.052-.093-.076-.141L.143 20.661a1.061 1.061 0 01-.14-.461c-.007-.315.106-.559.34-.74.023-.017.048-.032.073-.048.951-.617 1.596-1.513 1.988-2.638a8.584 8.584 0 00.381-1.63c.074-.526.102-1.056.114-1.587a8.705 8.705 0 00-.598-3.353A11.192 11.192 0 00.322 6.918c-.039-.045-.08-.088-.118-.135a.889.889 0 01-.045-1.075c.016-.026.035-.05.053-.074.487-.64.976-1.28 1.462-1.924.137-.182.301-.311.518-.339a.866.866 0 01.233.002 6.98 6.98 0 001.3.059c.45-.025.891-.106 1.319-.265C6.167 2.748 6.93 1.922 7.358.714c.026-.073.045-.149.075-.219.125-.291.332-.462.628-.49.071-.006.143-.005.214-.005h4.445c.072 0 .143-.001.214.005.296.026.504.194.632.484.021.049.035.102.052.154.485 1.43 1.412 2.31 2.764 2.655.61.155 1.227.174 1.848.109.127-.013.254-.029.382-.043a.718.718 0 01.625.236c.036.038.067.08.099.122l1.436 1.89c.027.036.055.072.08.11a.812.812 0 01.147.472c0 .262-.084.45-.226.619zM18.702 4.2l-.524.048c-.054.006-.109-.002-.163.002v1.324h-1.88V4.09l-.014-.003a4.367 4.367 0 01-2.127-1.277 5.116 5.116 0 01-1.049-1.749c-.027-.078-.036-.169-.102-.224-.267-.025-4.532-.01-4.712.018l-.085.228c-.535 1.413-1.448 2.39-2.777 2.882-.126.047-.257.054-.385.09v1.519H3.005v-1.32c-.054-.003-.107.006-.161.002l-.277-.026a22.077 22.077 0 01-.262-.025C1.943 4.638.874 6.058.784 6.229l.142.169c.968 1.148 1.731 2.436 2.229 3.906.152.447.269.901.355 1.362h1.364v2.061H3.639c-.006.319-.005.638-.033.957a11.71 11.71 0 01-.142 1.059h1.579v2.06H3.164v-.895c-.429 1.334-1.155 2.422-2.282 3.177-.035.023-.066.053-.094.076.002.028 0 .046.006.058l1.496 2.946c.003.006.011.01.017.014l.029.014c.019-.008.046-.015.071-.027a11.242 11.242 0 013.268-.866c.698-.075 1.392-.077 2.085.06 1.015.201 1.909.662 2.645 1.465.028.032.062.06.091.086.015-.007.023-.008.028-.013l.141-.143a4.637 4.637 0 011.341-.986 5.311 5.311 0 011.773-.49 7.869 7.869 0 012.214.103c.867.155 1.708.414 2.529.758.051.023.103.043.152.063.116-.162 1.47-2.838 1.537-3.032-.003-.007-.005-.016-.01-.02-.059-.044-.117-.088-.177-.131a5.574 5.574 0 01-1.821-2.16c-.011-.022-.018-.047-.029-.07v.013h-1.879v-2.06h1.249a12.732 12.732 0 01-.194-2.016h-1.224v-2.061h1.38a9.79 9.79 0 01.387-1.499 12.042 12.042 0 012.172-3.756l.171-.2c-.517-.677-1.024-1.348-1.534-2.011zm-2.567 3.389h1.88v2.062h-1.88V7.589zm-2.913 12.23h1.879v2.06h-1.879v-2.06zm-.209-4.076h1.879v2.06h-1.879v-2.06zm-.16-8.154h1.879v2.062h-1.879V7.589zm0-4.076h1.879v2.061h-1.879V3.513zm1.869 10.214h-1.879v-2.061h1.879v2.061zm-4.783 6.092h1.88v2.06h-1.88v-2.06zm-.209-4.076h1.879v2.06H9.73v-2.06zm-.16-8.154h1.879v2.062H9.57V7.589zm0-4.076h1.879v2.061H9.57V3.513zm1.869 10.214H9.56v-2.061h1.879v2.061zm-4.782 6.092h1.879v2.06H6.657v-2.06zm-.21-4.076h1.879v2.06H6.447v-2.06zm-.16-8.154h1.88v2.062h-1.88V7.589zm0-4.076h1.88v2.061h-1.88V3.513zm1.87 10.214H6.278v-2.061h1.879v2.061zm-4.783 6.092h1.879v2.06H3.374v-2.06zm-.369-12.23h1.879v2.062H3.005V7.589zm15.379 14.29h-1.879v-2.06h1.879v2.06z"/></svg>