<svg xmlns="http://www.w3.org/2000/svg" width="19" height="27"><path fill-rule="evenodd" d="M15.798 7.639h2.104c.605 0 1.098-.497 1.098-1.108V1.107c0-.611-.493-1.108-1.098-1.108h-2.103c-.606 0-1.098.497-1.098 1.108v2.191h-3.382A1.896 1.896 0 009.5 1.909c-.865 0-1.595.588-1.82 1.389H4.298V1.107c0-.611-.492-1.108-1.097-1.108H1.097c-.605 0-1.098.497-1.098 1.108v5.424c0 .611.493 1.108 1.098 1.108h2.104c.605 0 1.097-.497 1.097-1.108V4.34H7.68a1.908 1.908 0 001.304 1.316v8.674c-.802.294-1.376 1.262-1.376 2.445 0 1.181.574 2.15 1.376 2.444v2.122a1.911 1.911 0 00-1.304 1.317H4.298v-2.191c0-.61-.492-1.108-1.097-1.108H1.097c-.605 0-1.098.498-1.098 1.108v5.424c0 .611.493 1.108 1.098 1.108h2.104c.605 0 1.097-.497 1.097-1.108V23.7H7.68a1.897 1.897 0 001.82 1.389c.864 0 1.594-.588 1.819-1.389h3.382v2.191c0 .611.492 1.108 1.097 1.108h2.104c.605 0 1.097-.497 1.097-1.108v-5.424c0-.61-.492-1.108-1.097-1.108h-2.104c-.605 0-1.097.498-1.097 1.108v2.191h-3.382a1.908 1.908 0 00-1.304-1.316v-2.123c.803-.294 1.376-1.263 1.376-2.444 0-1.183-.573-2.151-1.376-2.445V5.656a1.908 1.908 0 001.304-1.316h3.382v2.191c0 .611.492 1.108 1.097 1.108zm-5.439 15.54a.865.865 0 01-.859.868.866.866 0 01-.86-.868c0-.479.386-.868.86-.868.473 0 .859.389.859.868zm-.859-4.91c-.407 0-.86-.614-.86-1.495 0-.881.453-1.495.86-1.495.406 0 .859.614.859 1.495 0 .881-.453 1.495-.859 1.495zm0-13.582a.865.865 0 01-.86-.868c0-.479.386-.868.86-.868.473 0 .859.389.859.868a.865.865 0 01-.859.868z"/></svg>