<svg xmlns="http://www.w3.org/2000/svg" width="14" height="15" viewBox="0 0 14 15"><g><g><path fill="#b4b4b4" d="M14 5.418v7.197a2.386 2.386 0 0 1-2.384 2.383H2.383A2.386 2.386 0 0 1 0 12.615V3.15C0 1.994 1.009 1.05 2.27.995v1.336c0 .76.618 1.378 1.378 1.378.76 0 1.377-.618 1.377-1.378V.991H8.93v1.34c0 .76.617 1.378 1.377 1.378.759 0 1.377-.618 1.377-1.378V.993c1.283.033 2.315.987 2.315 2.159v2.266zm-1.038 0H1.037v7.197c0 .742.604 1.346 1.346 1.346h9.233c.743 0 1.346-.604 1.346-1.346zM3.648-.002a.6.6 0 0 1 .6.6v1.733a.599.599 0 0 1-1.2 0V.598a.6.6 0 0 1 .6-.6zm7.259.6v1.733a.6.6 0 0 1-1.2 0V.598a.6.6 0 0 1 1.2 0zm-7.379 11.17c-.137-.234-.226-.528-.265-.88a.234.234 0 0 1 .24-.258h.62c.143 0 .256.117.277.259.018.123.05.232.095.326.14.285.396.427.766.427a.844.844 0 0 0 .594-.234c.169-.155.253-.38.253-.672 0-.387-.156-.646-.47-.777-.135-.055-.33-.089-.582-.103a.27.27 0 0 1-.26-.266v-.31c0-.142.116-.26.259-.269.24-.016.415-.05.526-.1.256-.114.384-.344.384-.691a.777.777 0 0 0-.196-.55c-.13-.14-.315-.21-.553-.21-.272 0-.473.086-.602.26a.954.954 0 0 0-.168.436c-.021.142-.132.259-.275.259h-.562c-.143 0-.256-.116-.239-.259.024-.198.068-.39.13-.574a1.89 1.89 0 0 1 .446-.639c.152-.137.332-.243.54-.317a2.34 2.34 0 0 1 .767-.109c.562 0 1.016.145 1.361.437.345.291.517.682.517 1.172a1.3 1.3 0 0 1-.493 1.056c-.112.086-.103.144.015.223.065.044.138.103.218.176.295.274.443.648.443 1.122 0 .499-.173.937-.517 1.315-.346.378-.856.567-1.532.567-.833 0-1.412-.273-1.737-.817zm4.7-3.653v-.27c0-.143.115-.264.258-.272.23-.017.399-.035.507-.06.232-.053.421-.155.567-.31.1-.105.176-.245.227-.422l.03-.117c.013-.065.131-.118.274-.118h.448a.26.26 0 0 1 .26.258v5.375a.26.26 0 0 1-.26.26h-.667a.26.26 0 0 1-.26-.26V8.634a.26.26 0 0 0-.259-.26h-.866a.26.26 0 0 1-.26-.26z"/></g></g></svg>