<svg xmlns="http://www.w3.org/2000/svg" width="92" height="92"><path fill="#005ccb" d="M92 25.862c0 .738-.594 1.35-1.348 1.35a4.412 4.412 0 00-4.403 4.406 1.36 1.36 0 01-1.348 1.349 1.347 1.347 0 01-1.349-1.349 4.412 4.412 0 00-4.403-4.407 1.358 1.358 0 01-1.348-1.349c0-.737.594-1.349 1.348-1.349a4.412 4.412 0 004.403-4.406c0-.737.612-1.35 1.349-1.35.736 0 1.348.595 1.348 1.35a4.412 4.412 0 004.403 4.406c.737 0 1.348.612 1.348 1.35zm-5.518 0a7.507 7.507 0 01-1.6-1.6 7.511 7.511 0 01-1.599 1.6c.611.45 1.15.99 1.6 1.601a7.492 7.492 0 011.6-1.6zm-72.284 0c0 .738-.593 1.35-1.348 1.35a4.412 4.412 0 00-4.403 4.406c0 .737-.611 1.349-1.348 1.349a1.347 1.347 0 01-1.348-1.349 4.412 4.412 0 00-4.403-4.407A1.358 1.358 0 010 25.862c0-.737.593-1.349 1.348-1.349a4.412 4.412 0 004.403-4.406c0-.737.61-1.35 1.348-1.35.737 0 1.348.595 1.348 1.35a4.412 4.412 0 004.403 4.406c.755 0 1.348.612 1.348 1.35zm-5.5 0a7.507 7.507 0 01-1.6-1.6 7.511 7.511 0 01-1.599 1.6c.611.45 1.15.99 1.6 1.601a7.11 7.11 0 011.6-1.6zM54.546 8.56c0 .738-.594 1.35-1.348 1.35a5.862 5.862 0 00-5.86 5.862 1.346 1.346 0 11-2.696 0 5.862 5.862 0 00-5.858-5.863 1.358 1.358 0 01-1.348-1.349c0-.737.61-1.349 1.348-1.349a5.862 5.862 0 005.859-5.863c0-.737.611-1.35 1.348-1.35a1.36 1.36 0 011.348 1.35 5.862 5.862 0 005.859 5.863 1.36 1.36 0 011.348 1.35zm-5.967 0a8.479 8.479 0 01-2.588-2.59 8.677 8.677 0 01-2.588 2.59 8.46 8.46 0 012.588 2.59 8.661 8.661 0 012.588-2.59zM2.946 72.127c0-.869-.095-1.75.02-2.603.204-1.51-.02-3.029.172-4.521.123-.948.049-1.887.134-2.826.007-.072.062-.138.086-.209.023-.066.048-.137.05-.206.01-.627.013-1.253.029-1.88.002-.089.065-.175.096-.264.017-.05.036-.1.038-.15.01-.182.002-.366.024-.545.013-.104.073-.202.111-.303.014-.036.033-.07.039-.108.017-.109-.036-.252.143-.279.007-.001.017-.022.017-.032-.004-.312.311-.44.402-.711.055-.165.285-.267.422-.41.14-.146.254-.317.394-.464.135-.14.296-.256.431-.397.086-.09.14-.206.216-.307.083-.11.17-.216.261-.32.08-.089.166-.17.25-.253l.28-.273c.053-.056.114-.107.15-.172.082-.145.27-.216.256-.436-.014-.22-.012-.437.117-.653.08-.133.031-.342.05-.515.01-.097-.037-.216.11-.27.034-.01.034-.12.045-.185.021-.12-.051-.28.143-.329.014-.003.015-.06.021-.093.019-.095-.034-.226.128-.247.009-.002.016-.02.021-.032.065-.17.116-.346.197-.507.053-.106.15-.19.225-.286.042-.056.078-.116.118-.173.07-.102.132-.21.212-.301.087-.1.188-.189.286-.278.091-.084.201-.152.277-.248.142-.178.384-.202.527-.344.242-.24.533-.42.808-.596.217-.138.376-.403.683-.412.064-.002.123-.104.187-.155.19-.155.381-.309.573-.461a.153.153 0 01.07-.034c.2-.023.322-.155.431-.305.01-.014.032-.028.048-.028.226 0 .315-.19.463-.308a.919.919 0 01.53-.195c5.762-.01 11.525-.008 17.287-.008h48.244c.133 0 .445.22.563.283.126.069.18.228.366.235.104.004.203.145.304.224.033.026.067.075.099.074.2-.007.259.186.394.27.02.012.028.053.046.056a.642.642 0 01.486.344c.008.016.048.018.075.019.195.011.306.139.407.286.015.023.054.028.08.045.143.096.285.197.43.291.116.078.237.147.354.222.108.069.215.14.321.213.138.095.283.183.408.294.148.133.28.284.415.43.066.073.111.2.189.223.218.062.15.305.307.419.142.103.223.294.324.45.023.035.011.091.03.131.032.065.076.123.112.186.019.03.04.065.045.099.014.107-.024.235.136.272.016.003.023.057.028.088.025.156-.037.342.157.437.007.004.007.025.008.038.058.432.138.863.163 1.296.014.238.151.35.297.481.064.057.131.112.187.175.13.15.25.309.383.456.125.14.262.269.39.405.04.04.07.088.103.134.076.106.14.223.227.32.146.167.301.326.46.48.083.082.188.143.27.225.082.08.15.173.22.263.09.12.178.241.262.366.091.136.252.226.261.418.002.04.05.078.08.113.017.018.058.023.063.039.065.223.134.447.18.674.027.123-.003.257.017.382.017.11.072.214.103.323.018.063.032.13.033.195.01.626.014 1.253.03 1.88.002.082.063.162.09.245.02.068.043.139.044.208.012.741-.066 1.496.048 2.22.24 1.533.025 3.077.19 4.6.173 1.592.062 3.18.109 4.769.007.249.027.505-.02.747-.216 1.13 0 2.289-.186 3.404-.157.947-.054 1.886-.145 2.823-.007.073-.054.142-.078.215-.022.067-.054.134-.055.203-.01.478-.01.956-.018 1.435-.001.091.02.187-.104.256-.053.029-.036.182-.052.279-.014.09.042.215-.118.231-.01 0-.027.02-.025.028.046.222-.185.33-.217.526-.015.093-.103.18-.173.256-.158.17-.303.37-.497.488-.2.122-.325.375-.602.37-.09.213-.335.099-.446.194-.243.21-.517.092-.77.147-.07.015-.131.067-.2.095a.595.595 0 01-.187.047c-.43.01-.861.01-1.292.024-.076.002-.149.06-.225.087-.061.021-.125.046-.189.049-.268.01-.539.005-.807.024-.306.022-.606-.011-.92.113-.277.108-.624.033-.94.048-.256.013-.518-.043-.759.123-.082.057-.222.035-.336.039-.256.008-.512 0-.767.017-.241.014-.494-.043-.715.122-.051.039-.143.03-.216.033-.263.007-.525.005-.788.016-.243.011-.49-.029-.722.105-.09.053-.222.042-.336.044-.404.012-.808.013-1.211.023-.186.005-.299-.066-.36-.249-.032-.096-.1-.222-.181-.252-.146-.054-.117-.163-.156-.26a.502.502 0 00-.18-.237c-.185-.11-.273-.266-.333-.464-.025-.085-.11-.2-.185-.214-.15-.028-.104-.143-.15-.216-.07-.11-.164-.203-.25-.303-.07-.083-.152-.159-.21-.25-.075-.12-.099-.298-.202-.371-.22-.154-.219-.455-.464-.595-.108-.061-.135-.26-.21-.39a.81.81 0 00-.175-.221 1.093 1.093 0 01-.35-.493c-.034-.09-.17-.14-.248-.219-.08-.082-.145-.179-.219-.267-.051-.061-.107-.12-.161-.179-.163-.181-.32-.37-.492-.542-.226-.229-.46-.45-.7-.665-.147-.132-.311-.243-.463-.37-.086-.072-.161-.156-.244-.231-.038-.035-.082-.062-.122-.093-.122-.093-.244-.19-.367-.282a.302.302 0 00-.099-.052c-.175-.043-.292-.164-.404-.294-.012-.015-.028-.035-.044-.035-.22-.02-.36-.162-.497-.314-.018-.022-.062-.02-.094-.03-.08-.023-.203.02-.204-.13 0-.004-.008-.011-.014-.013-.17-.07-.342-.136-.511-.21-.053-.022-.098-.063-.144-.099-.015-.011-.018-.042-.032-.047-.17-.064-.352-.107-.512-.19-.184-.094-.408-.116-.558-.205-.135-.08-.263-.091-.392-.14-.237-.09-.466-.202-.701-.296-.06-.024-.132-.02-.198-.027-.12-.014-.247.02-.336-.121-.031-.049-.161-.039-.247-.051-.198-.026-.399.027-.588-.132-.094-.079-.299-.021-.452-.035-.143-.014-.305.047-.412-.125-.024-.04-.139-.03-.211-.03-1.65-.006-3.299-.013-4.948-.013l-26.293.003c-.182 0-.365-.006-.545.014-.087.009-.168.071-.253.106a.433.433 0 01-.128.036c-.155.008-.311-.002-.464.018-.103.014-.2.074-.303.1-.11.027-.222.039-.335.053-.164.021-.354-.046-.471.145-.016.026-.088.016-.134.024-.142.025-.314-.037-.403.14-.004.009-.024.01-.037.012l-.792.198c-.026.007-.073-.001-.077.01-.078.213-.334.083-.403.174-.136.183-.414.057-.504.283-.008.02-.074.016-.113.024-.083.018-.198-.025-.215.123-.002.02-.08.028-.119.05-.073.04-.143.085-.214.13-.011.007-.02.03-.026.029-.208-.044-.314.16-.491.202-.118.028-.22.123-.327.19-.065.04-.125.088-.19.13-.1.064-.253.102-.296.193-.057.12-.152.107-.231.152-.087.05-.17.11-.25.173-.121.094-.238.197-.36.293-.161.125-.33.242-.487.373-.132.111-.249.24-.377.355-.12.11-.25.209-.367.323-.157.153-.316.307-.453.477-.151.187-.283.387-.484.53-.082.058-.13.163-.196.247-.154.197-.315.39-.463.593-.087.121-.154.258-.233.385-.052.086-.094.187-.168.248-.163.134-.293.278-.334.497-.01.06-.1.11-.16.156-.21.154-.208.466-.47.6-.102.051-.123.25-.2.37-.061.097-.151.177-.23.263-.031.036-.08.068-.092.11-.052.177-.166.296-.304.416-.103.089-.144.245-.222.366-.066.101-.145.196-.22.293-.032.041-.08.074-.098.12-.054.141-.147.228-.299.225-.444-.005-.902.047-1.328-.044a5.408 5.408 0 00-1.056-.13c-.175-.002-.352.012-.525-.01-.174-.024-.343-.083-.515-.122a1.13 1.13 0 00-.219-.027c-.303-.01-.606-.009-.909-.022-.215-.01-.436.026-.637-.119-.076-.053-.208-.038-.315-.041-.303-.009-.606-.002-.909-.015-.2-.008-.412.04-.593-.114-.052-.043-.156-.03-.236-.03-.39-.01-.781-.012-1.17-.029-.081-.004-.158-.07-.239-.098a.655.655 0 00-.19-.042c-.471-.01-.943-.01-1.413-.026-.081-.003-.16-.065-.24-.097-.048-.018-.098-.038-.149-.042-.14-.009-.282-.007-.424-.017-.112-.007-.244.041-.309-.117-.011-.029-.097-.03-.149-.04-.12-.02-.277.045-.323-.147-.003-.016-.058-.023-.091-.028-.183-.03-.293-.16-.412-.286-.126-.135-.276-.246-.409-.376a2.752 2.752 0 01-.236-.273c-.105-.134-.205-.271-.306-.408a.203.203 0 01-.04-.086c-.015-.108.005-.223-.136-.281-.034-.015-.019-.138-.03-.21-.018-.11.035-.244-.126-.308-.035-.014-.035-.135-.036-.206-.007-.464-.005-.93-.018-1.394-.003-.09-.062-.176-.09-.267-.02-.062-.042-.127-.043-.191-.011-.478-.002-.957-.027-1.435-.04-.778-.113-1.555-.15-2.334-.029-.578.06-1.176-.052-1.733-.212-1.045-.05-2.089-.1-3.13zm66.203-10.656v-.001zm-.083-.039c-.099-.17-.208-.313-.429-.316-.026 0-.05-.034-.077-.05-.062-.034-.121-.085-.187-.097-.092-.018-.188-.008-.282-.008-14.735 0-29.47 0-44.204.004-.176 0-.393-.087-.516.142-.01.019-.068.005-.095.021-.114.07-.23.142-.336.223a.516.516 0 00-.164.18c-.075.171-.13.352-.194.53-.006.017-.022.031-.033.048-.094.145-.208.28-.278.435-.081.18-.123.375-.185.564-.007.023-.036.036-.048.058-.035.06-.092.12-.095.182a6.74 6.74 0 000 .626c.002.056.037.112.062.165.028.06.067.114.091.175.07.174.119.356.203.52.078.152.21.275.283.428.083.17.128.357.19.536.006.02.015.037.025.053.095.157.202.306.284.468.08.162.131.339.204.504.057.129.098.293.2.367.18.13.135.356.273.507.11.12.136.318.2.48.005.011.02.018.027.028l.288.433c.05.077.099.155.15.231.067.104.114.24.21.3.136.087.114.243.19.33.183.208.404.38.608.568.07.065.134.137.207.198.123.104.25.202.379.3.03.022.074.026.1.051.129.12.224.285.425.305.025.002.059.009.073.027.121.15.244.294.463.29.023-.001.064.02.065.035.017.151.134.115.227.13a.36.36 0 01.119.048c.066.036.127.082.195.115.096.046.196.085.296.124a.355.355 0 00.13.035c.299.007.538.266.854.203.01-.001.021.015.033.02.12.043.238.114.36.124.302.025.633-.053.902.047.418.156.833.094 1.248.12.322.02.646.013.969.023a.72.72 0 01.192.043c.088.028.173.09.26.093.572.016 1.144.018 1.716.029a.795.795 0 01.196.032c.109.031.213.081.323.104.09.018.188.007.282.01 1.295.064 2.591.125 3.887.19.054 0 .115-.006.16.017.39.206.813.108 1.22.128.498.027.997.01 1.494.038.281.017.559.124.839.129 1.117.02 2.235.04 3.351.01 1.115-.03 2.227.079 3.346-.124.994-.18 2.025.02 3.04-.186.602-.123 1.247-.04 1.873-.05.067-.002.135-.005.2-.017.213-.04.423-.11.636-.12.51-.023 1.023-.017 1.534-.027a.84.84 0 00.213-.038c.096-.028.189-.093.284-.096.565-.016 1.13-.018 1.696-.029a.736.736 0 00.21-.043c.082-.027.16-.09.242-.093.477-.016.955-.017 1.433-.028.14-.004.302.016.417-.045.256-.135.521-.087.784-.106.14-.01.283-.004.424-.011.059-.003.142-.003.172-.04.121-.146.289-.1.44-.133.223-.05.44-.126.659-.194.01-.003.015-.025.026-.03.089-.036.178-.075.27-.105.05-.017.146-.006.152-.028.06-.201.235-.123.354-.17a.635.635 0 01.155-.137c.135-.078.279-.143.41-.226.14-.088.27-.19.402-.29.061-.045.112-.134.177-.144.257-.042.369-.275.554-.407.178-.127.323-.304.474-.465.081-.087.149-.188.216-.287.081-.119.152-.243.233-.362.092-.134.193-.261.286-.395.021-.03.025-.102.041-.104.15-.015.12-.134.143-.224a.387.387 0 01.04-.106c.09-.15.192-.293.273-.448.09-.174.156-.362.245-.537.077-.152.183-.29.256-.443.082-.174.142-.357.213-.534.007-.018.025-.03.034-.048.089-.147.186-.289.261-.441.087-.177.148-.366.231-.544.094-.2.188-.4.305-.587.087-.14.183-.266.16-.443-.003-.013.025-.028.032-.046.037-.086.107-.177.102-.263-.014-.26.111-.553-.136-.774.075-.236-.163-.367-.197-.573-.024-.143-.127-.274-.198-.407-.112-.209-.227-.416-.364-.666-.005 0-.065-.007-.083-.039zm-64.47.265c.06.211-.116.48.15.672.107.078.172.212.267.309.13.13.275.245.403.376.133.137.248.29.38.427.16.163.33.316.497.473.072.069.137.149.22.2.12.075.26.118.379.194.09.057.156.148.238.218.101.086.204.172.313.246.068.048.15.033.208.143.056.106.233.148.355.221.049.029.092.067.14.097a.935.935 0 00.109.06c.168.084.34.162.506.25.082.043.152.106.234.15.183.098.362.23.559.272.201.043.333.266.566.197.004-.001.014.007.015.012.033.178.176.115.284.135.2.038.35.224.572.194.004 0 .008.012.014.014.097.045.192.094.292.13.055.02.148-.009.174.024.129.167.312.123.478.147.06.008.155.006.172.039.083.17.234.116.366.134a.55.55 0 01.168.046c.045.025.073.097.117.108.167.038.374-.057.487.156.007.013.051.008.078.01.156.02.298.067.446.123.228.085.481.137.722.217.258.086.56.082.781.216.167.103.318.119.487.141.03.003.08.018.084.035.032.161.162.107.258.12.086.013.236-.005.249.028.068.19.219.115.339.136.058.01.153-.005.171.026.106.18.28.123.431.147.082.015.16.048.238.079.055.024.102.07.158.084.309.073.619.138.928.208.03.008.055.042.085.046.152.019.315.073.455.04.242-.058.47-.17.704-.263a20.5 20.5 0 00.512-.213c.014-.006.019-.033.032-.047.076-.087.15-.177.231-.258.122-.12.281-.206.276-.415-.002-.069.041-.138.064-.208.03-.084.07-.167.086-.254.028-.15-.063-.266-.115-.4-.063-.161-.033-.357-.048-.539-.005-.066-.007-.178-.037-.187-.16-.052-.113-.18-.121-.284-.012-.147-.007-.296-.014-.444-.002-.045-.011-.12-.033-.126-.153-.045-.107-.169-.115-.266-.01-.134-.004-.27-.01-.404-.004-.059-.006-.156-.036-.168-.159-.063-.109-.197-.122-.308-.015-.127.028-.299-.04-.371-.22-.235-.101-.569-.289-.814-.111-.145-.14-.356-.207-.536-.003-.01-.023-.014-.03-.024-.04-.064-.083-.127-.116-.193-.017-.035-.007-.11-.022-.113-.23-.05-.092-.338-.298-.436-.159-.076-.14-.35-.33-.456-.077-.043-.133-.132-.183-.21-.077-.12-.11-.289-.215-.368-.245-.185-.379-.497-.702-.597-.102-.031-.181-.141-.264-.22-.08-.079-.143-.226-.228-.237-.298-.04-.413-.417-.74-.38-.04-.173-.186-.145-.307-.166a.072.072 0 01-.046-.031c-.105-.185-.33-.161-.483-.28-.14-.107-.346-.13-.521-.192-.017-.006-.025-.032-.04-.042-.07-.04-.14-.08-.213-.115-.04-.019-.117-.016-.125-.04-.05-.153-.181-.103-.284-.134-.175-.052-.346-.123-.517-.186-.005-.002-.01-.01-.01-.017-.013-.158-.142-.1-.228-.128-.054-.017-.1-.06-.149-.091-.037-.022-.07-.051-.11-.065-.205-.072-.43-.108-.608-.22-.12-.077-.224-.142-.365-.146-.017-.001-.045-.014-.05-.028-.079-.215-.377-.068-.463-.278-.006-.017-.076-.006-.116-.01-.039-.006-.106-.008-.111-.026-.047-.16-.18-.123-.293-.148-.068-.013-.13-.058-.195-.09-.166-.08-.326-.196-.502-.23-.19-.037-.297-.26-.515-.205-.004 0-.012-.037-.026-.048-.039-.033-.076-.076-.123-.091-.21-.069-.461-.082-.625-.208a.725.725 0 00-.359-.148c-.023-.004-.038-.047-.062-.067-.036-.03-.072-.066-.116-.083-.177-.066-.357-.124-.535-.188-.016-.006-.025-.03-.038-.044-.088-.095-.53-.176-.618-.096-.143.135-.267.289-.4.434-.068.074-.132.154-.207.22-.081.074-.185.126-.26.206-.138.147-.252.319-.395.462-.184.183-.388.343-.507.587-.05.1-.16.17-.241.257-.13.135-.259.27-.384.408-.077.086-.132.197-.22.263-.143.106-.267.212-.29.4-.004.03-.018.083-.035.087-.151.029-.124.15-.137.252-.006.039-.006.1-.028.112-.165.081-.127.234-.139.37-.047.554.083 1.119-.13 1.666-.063.16-.027.36-.037.556zm82.797-.047h-.012c0-.168.002-.337 0-.505-.001-.046.002-.118-.023-.134-.155-.094-.115-.246-.12-.38-.01-.301-.045-.61-.003-.906.048-.339-.135-.605-.216-.899-.027-.095-.103-.22-.163-.329-.054-.097-.173-.157-.26-.237a2.334 2.334 0 01-.207-.21c-.078-.095-.143-.2-.223-.293-.083-.096-.186-.179-.266-.278-.138-.174-.256-.364-.4-.532-.15-.176-.322-.332-.484-.498-.066-.069-.128-.143-.2-.205-.088-.075-.231-.121-.269-.213-.117-.284-.389-.408-.593-.593-.075-.068-.331-.053-.407.023-.148.15-.346.149-.507.249-.185.116-.42.152-.632.224-.012.003-.032.011-.033.019-.016.163-.143.118-.24.133-.037.005-.102.015-.105.032-.03.163-.157.11-.254.127-.037.006-.102.018-.104.034-.021.152-.144.11-.233.132a.63.63 0 00-.109.035c-.21.099-.41.235-.63.286-.193.045-.306.265-.529.213-.004-.003-.013.038-.027.048-.05.033-.101.071-.157.089-.206.066-.414.124-.62.187-.007 0-.016.005-.017.008-.05.253-.336.099-.474.286-.106.146-.404.149-.615.22-.04.013-.07.05-.107.074-.04.027-.084.07-.125.07-.206-.005-.315.259-.54.188-.006 0-.025.018-.025.028-.008.15-.129.1-.21.12-.044.01-.093.011-.133.03-.2.1-.395.216-.6.305-.175.077-.362.127-.543.19-.012.003-.02.018-.03.025-.08.044-.158.09-.238.13-.034.018-.1.024-.102.04-.018.142-.129.11-.214.129-.038.008-.107.016-.108.028-.01.174-.148.112-.24.137a.312.312 0 00-.1.045 18.07 18.07 0 00-.399.3c-.094.07-.189.14-.28.213-.117.094-.228.192-.345.285-.039.03-.094.043-.128.077-.083.083-.16.171-.237.26-.159.185-.316.372-.473.559-.06.07-.105.158-.177.21-.12.09-.145.228-.218.34-.11.165-.31.274-.295.513.002.016-.018.047-.028.047-.152 0-.108.12-.128.202-.009.037-.014.108-.028.109-.157.022-.121.147-.142.245-.009.041-.039.077-.06.115-.034.063-.076.124-.102.19-.02.048-.003.134-.032.15-.157.09-.115.242-.135.374-.011.073 0 .176-.044.212-.17.14-.112.327-.133.5-.01.083-.005.217-.05.24-.126.064-.103.162-.108.256-.01.155-.008.31-.014.465-.002.045-.01.123-.03.129-.155.04-.11.166-.118.264-.01.147-.008.296-.013.443-.001.041.006.106-.014.117-.232.132-.111.356-.147.537-.02.105.002.237-.054.313-.162.22-.144.419-.005.636a.344.344 0 01.054.208c-.023.191.168.24.234.375.043.086.217.114.25.2.08.204.295.207.428.278.2.108.424.258.687.217.023-.002.05.018.074.026.115.035.25.125.342.094.258-.088.532-.107.78-.188.156-.052.31-.11.476-.13.026-.004.066-.005.074-.02.092-.173.258-.133.405-.15.066-.008.17.002.192-.036.11-.178.282-.112.431-.135.04-.006.107-.002.114-.02.077-.207.256-.111.391-.14.046-.01.126-.002.133-.022.068-.2.239-.12.37-.146.05-.01.137-.009.147-.036.057-.143.182-.11.288-.134.27-.063.54-.13.81-.198.02-.003.047-.013.053-.026.057-.143.183-.103.292-.118.083-.01.23-.016.238-.052.04-.156.153-.097.24-.113.09-.016.242 0 .26-.045.062-.143.171-.104.27-.116.086-.01.237.002.247-.031.061-.196.216-.112.333-.138.064-.014.165-.002.187-.04.082-.138.212-.111.333-.137.252-.055.501-.126.751-.19.019-.005.048-.014.052-.027.042-.146.165-.108.266-.12.04-.005.106-.001.114-.02.076-.189.243-.13.38-.15.04-.006.106-.01.11-.025.038-.162.166-.12.272-.136.035-.005.07-.025.102-.043.07-.038.134-.089.207-.119.067-.026.15-.017.212-.053.15-.083.286-.246.44-.263.311-.035.437-.399.76-.38.013.002.025-.041.045-.055.046-.034.093-.069.145-.094.042-.019.104-.01.133-.038.15-.143.282-.299.503-.352.086-.02.156-.116.228-.183.116-.112.196-.27.384-.286.032-.003.072-.007.093-.026.178-.162.357-.324.524-.496.244-.25.473-.513.719-.76.187-.187.412-.342.583-.542.114-.136.288-.265.232-.5-.026-.109-.004-.227-.004-.342zM24.76 76.447c.032-.053.05-.119.092-.143.19-.11.288-.249.294-.485.006-.22-.053-.402-.203-.522-.115-.092-.227-.244-.427-.194-.068.017-.154-.022-.228-.047-.09-.03-.172-.093-.262-.104-.193-.022-.39-.017-.584-.03-.057-.004-.115-.026-.17-.045-.096-.035-.187-.094-.285-.105-.186-.02-.376-.013-.564-.021a.603.603 0 01-.155-.03c-.109-.036-.213-.097-.324-.111-.18-.023-.363-.014-.544-.022-.046-.002-.119-.002-.132-.027-.081-.158-.226-.12-.354-.125-.174-.008-.35-.006-.524-.014a.5.5 0 01-.15-.036c-.093-.035-.18-.1-.275-.11-.186-.023-.376-.014-.564-.023a.559.559 0 01-.156-.03c-.114-.037-.224-.097-.341-.112-.166-.022-.336-.01-.504-.019a.61.61 0 01-.17-.044c-.094-.034-.185-.095-.28-.107-.194-.023-.39-.018-.585-.031-.056-.005-.111-.032-.166-.051-.09-.032-.179-.087-.272-.097-.186-.019-.376-.012-.564-.021a.568.568 0 01-.152-.036c-.104-.033-.204-.091-.31-.104-.172-.022-.349-.012-.524-.02-.051-.002-.137-.007-.148-.033-.063-.158-.197-.115-.31-.121-.187-.009-.376-.006-.564-.014a.439.439 0 01-.149-.039c-.084-.034-.163-.1-.25-.109-.193-.02-.39-.011-.584-.02a.731.731 0 01-.175-.033c-.115-.035-.226-.096-.343-.111-.173-.023-.35-.01-.524-.021-.056-.004-.111-.031-.165-.053-.084-.03-.166-.094-.25-.094-.665-.01-1.331-.01-1.997-.005-.075 0-.15.04-.223.068-.076.027-.146.068-.223.091-.21.064-.42.121-.63.183-.016.004-.022.032-.037.042-.057.038-.113.08-.174.107-.041.018-.13.015-.13.024-.008.168-.163.118-.243.176-.16.113-.322.228-.464.362-.14.133-.25.297-.385.435-.137.138-.37.237-.416.396-.081.283-.405.425-.385.746.002.017-.033.035-.046.055-.039.058-.087.113-.11.176-.07.209-.13.42-.197.631-.003.01-.023.013-.029.025-.036.058-.08.115-.103.18-.074.21-.14.425-.212.638-.003.01-.024.013-.03.023-.038.06-.087.116-.108.18-.068.209-.125.42-.189.628-.004.015-.033.022-.042.038-.035.06-.075.119-.1.184-.018.048-.003.141-.025.15-.182.059-.114.217-.151.336-.053.171-.12.34-.183.509-.004.008-.023.012-.033.02-.103.098-.175.687-.096.801.01.015.031.023.046.035.085.068.216.122.243.21.059.187.192.106.294.115.126.012.323.043.368-.02.13-.182.422-.26.39-.556-.004-.03.032-.063.05-.095.035-.06.077-.117.102-.18.02-.048.005-.142.027-.15.182-.06.122-.217.149-.337.01-.05.014-.138.04-.146.137-.043.104-.153.12-.247a.54.54 0 01.042-.126c.041-.091.092-.178.127-.27.024-.061.01-.177.041-.188.159-.054.092-.207.148-.289a.996.996 0 00.17-.551c0-.01.015-.028.024-.028.157-.013.11-.137.127-.228a.64.64 0 01.045-.144c.037-.084.088-.163.119-.25.065-.178.121-.36.182-.54.002-.006.008-.013.014-.013.162-.026.124-.162.152-.264a.23.23 0 01.059-.093c.135-.138.352-.256.39-.416.063-.26.34-.225.43-.418.033-.075.122-.14.2-.174.173-.074.355-.128.533-.19.012-.005.03-.013.032-.021.03-.19.182-.106.286-.127.082-.018.169-.022.247-.05.08-.027.151-.104.228-.108.316-.011.632-.005.948-.001.053 0 .143-.002.153.023.07.178.222.12.346.129.18.014.363.005.544.018.054.005.105.054.158.08.046.021.091.051.14.06.324.057.648-.001.983.139.32.136.721-.004 1.071.184.144.078.357.028.538.036.074.004.174-.017.217.023.246.227.546.114.821.15.08.011.161.009.237.03.129.035.251.103.38.121.166.024.336.013.504.02.04 0 .107-.002.115.018.081.19.25.122.385.134.168.013.336.006.505.013a.426.426 0 01.144.043c.08.032.153.096.234.104.2.02.403.013.604.02a.605.605 0 01.156.028c.113.037.222.1.337.116.173.023.35.011.524.02a.515.515 0 01.153.034c.1.037.194.102.296.116.186.025.376.02.564.03a.628.628 0 01.153.034c.108.038.211.101.322.116.18.022.363.012.544.02a.56.56 0 01.152.033c.109.035.214.095.326.109.18.023.362.015.544.024a.397.397 0 01.13.034c.091.036.18.106.27.11.29.014.58.006.883.006zm62.298 3.351c-.006-.1.004-.205-.023-.3-.026-.088-.128-.163-.134-.248-.016-.25-.23-.421-.235-.686-.002-.088-.135-.223-.131-.37 0-.011-.01-.032-.018-.033-.175-.023-.106-.166-.135-.264-.057-.194-.125-.383-.191-.573-.005-.015-.038-.016-.048-.031-.034-.05-.074-.1-.092-.157-.067-.21-.127-.422-.19-.632-.004-.012-.011-.03-.02-.033-.18-.029-.118-.176-.14-.282-.01-.06-.01-.157-.043-.17-.215-.083-.042-.38-.272-.474-.056-.022-.041-.211-.159-.325-.191-.185-.23-.503-.503-.649-.08-.043-.128-.147-.192-.222-.073-.084-.142-.173-.222-.248-.09-.086-.19-.16-.288-.236-.117-.092-.223-.213-.355-.264-.155-.061-.252-.256-.455-.204-.004.001-.011-.039-.025-.049-.047-.033-.094-.071-.147-.09-.055-.021-.155-.004-.17-.034-.08-.175-.234-.116-.364-.136-.052-.008-.137-.003-.149-.03-.07-.155-.21-.133-.33-.133-.645-.004-1.291 0-1.937.003-.072.002-.18 0-.21.043-.097.142-.234.109-.362.116-.168.008-.337.007-.505.015a.583.583 0 00-.155.033c-.107.036-.21.096-.32.11-.165.02-.335.01-.503.019-.059.003-.15.006-.169.04-.076.143-.202.108-.317.113-.181.008-.363.004-.545.013a.536.536 0 00-.168.048c-.08.03-.155.091-.235.1-.18.02-.363.01-.545.021a1.02 1.02 0 00-.215.045c-.11.031-.214.086-.326.1-.159.02-.322.006-.483.017-.072.005-.143.03-.212.054-.096.032-.187.09-.285.101-.173.022-.35.014-.524.025a.799.799 0 00-.193.046c-.102.033-.198.095-.301.106-.18.02-.363.01-.545.018a.671.671 0 00-.174.038c-.101.033-.198.095-.3.105-.18.021-.363.013-.545.02-.052.001-.136.003-.15.033-.081.163-.227.113-.352.12-.168.01-.336.006-.505.012-.052.001-.135-.001-.152.029-.096.166-.253.116-.392.128-.18.015-.392-.03-.535.049-.243.136-.488.097-.734.119-.113.01-.256-.005-.33.056-.136.115-.28.105-.43.113-.149.008-.297.007-.444.021-.064.006-.125.038-.186.06-.077.03-.15.073-.23.09-.13.027-.24.022-.374.128-.21.163-.25.331-.286.568-.05.328.224.426.36.617.04.056.198.035.303.035.215.003.43-.002.646-.009.058-.001.153-.008.168-.04.064-.145.187-.107.293-.114.168-.01.337-.006.505-.015.066-.003.158 0 .192-.039.128-.147.293-.099.446-.112.187-.017.409.028.552-.058.165-.1.32-.103.486-.116.128-.01.256-.009.384-.018.052-.004.133-.004.152-.035.1-.162.256-.112.395-.122.162-.01.323-.007.485-.013.052-.003.135-.004.15-.035.074-.144.205-.104.317-.111.175-.01.35-.008.525-.016.053-.002.138-.004.152-.033.078-.164.222-.114.346-.12.181-.01.363-.006.545-.014a.447.447 0 00.15-.04c.084-.034.162-.099.247-.11.173-.02.35-.007.524-.02.078-.005.154-.035.23-.06.07-.025.135-.074.206-.08.187-.016.376-.01.564-.02.073-.004.175-.004.21-.05.102-.128.235-.103.363-.11.161-.01.323-.01.484-.02.06-.004.15-.006.17-.042.09-.152.231-.107.358-.114.168-.01.336-.007.504-.016a.662.662 0 00.173-.042c.096-.032.188-.09.285-.1.174-.02.35-.01.525-.019.06-.003.154 0 .171-.033.087-.166.236-.114.367-.121.174-.01.35-.006.524-.015a.43.43 0 00.15-.042c.077-.033.15-.101.226-.105.303-.013.606-.01.909-.001.073.001.147.039.219.067.062.025.118.067.181.086.136.038.327-.075.396.15.004.014.064.006.095.016.165.06.33.123.494.187.01.004.013.023.023.032l.394.326c.034.028.07.053.099.088.11.128.221.257.326.392.07.09.17.183.186.286.03.193.265.295.207.517-.001.004.017.023.027.023.15.005.1.125.122.206.057.206.12.41.181.615a.028.028 0 00.013.015c.175.02.115.162.138.263.015.064.02.139.056.19.14.203.21.434.282.666.058.187.08.425.209.54.133.12.112.233.136.36.01.052.024.105.049.15.085.153.241.3.248.455.008.187.132.268.209.387.058.089.182.197.271.192.207-.012.418.1.63-.123.168-.176.3-.311.272-.56zM73.414 37.921c-.03.235.14.357.276.498.017.018.044.038.046.058.021.213.234.32.286.492.06.195.279.293.265.528-.005.08.119.168.181.255.045.063.085.129.129.192.032.048.067.093.103.14.019.023.055.043.058.068.03.206.15.352.298.486.03.027.029.088.05.13a.57.57 0 00.135.187c.002.224.16.36.294.511.028.033.036.083.06.12.04.064.085.125.129.187.01.015.03.025.038.042.07.16.124.327.21.478.071.125.183.226.27.342.025.034.029.085.039.129.018.075-.023.188.12.184.013 0 .039.026.038.038-.025.325.362.45.366.76.221.04.059.373.303.398.007.001.015.049.015.075.002.194.178.287.253.439.025.051.048.104.078.153.035.058.075.113.115.167.007.01.03.018.029.023-.052.217.186.3.221.487.023.125.14.23.21.346.048.086.085.176.141.29H13.835c.027-.066.042-.116.067-.16.012-.022.055-.024.064-.044.082-.176.123-.39.25-.521.128-.132.085-.352.268-.436.016-.006.038-.025.038-.038-.002-.236.163-.37.303-.522.024-.026.021-.076.028-.116.015-.08-.01-.186.126-.183.01.001.025-.013.03-.023.07-.156.129-.319.211-.468.07-.127.169-.238.252-.358a.393.393 0 00.058-.113c.024-.086-.029-.217.137-.212.01 0 .029-.03.03-.047.006-.228.22-.35.282-.53.065-.186.245-.295.263-.517.012-.137.183-.257.266-.394.08-.134.138-.28.205-.42.002-.006-.002-.018.001-.02.144-.089.144-.265.235-.38.107-.137.243-.247.275-.433.006-.04.054-.076.086-.11.021-.022.068-.038.069-.057.013-.22.141-.359.309-.474.005-.004.013-.011.012-.014-.056-.208.145-.304.208-.46.053-.132.172-.238.26-.358a.215.215 0 00.045-.083c.03-.2.173-.313.305-.444.056-.055.05-.172.098-.246l.115-.2c.065-.113.103-.266.2-.331.182-.122.15-.393.314-.466.2-.089.11-.327.302-.42.106-.052.125-.266.202-.395.06-.1.15-.18.227-.267.027-.032.079-.055.085-.088.037-.198.16-.33.315-.444a.075.075 0 00.03-.049c.023-.203.137-.342.31-.44a.045.045 0 00.02-.034c.013-.226.168-.35.323-.489.1-.09.135-.25.208-.373.05-.086.1-.187.177-.238.186-.121.265-.289.345-.489.064-.156.251-.263.383-.393.026-.024.06-.052.069-.084.051-.183.183-.299.324-.413.08-.066.135-.162.202-.243.072-.086.14-.176.217-.257.153-.16.306-.323.47-.47.153-.137.332-.248.48-.388.307-.289.672-.337 1.071-.328.45.011.92.06 1.347-.048.475-.12.94-.087 1.41-.104.652-.026 1.319.057 1.955-.052 1.409-.24 2.83-.005 4.23-.17 2.258-.27 4.525-.012 6.779-.176a33.252 33.252 0 012.38-.102c2.538-.007 5.08-.08 7.611.052 2.25.118 4.504-.064 6.74.144 1.443.134 2.88.055 4.317.146.213.013.422.11.635.119.598.026 1.198.013 1.796.038.476.02.947 0 1.43.102.53.113 1.098.04 1.65.06.153.005.316-.053.445.135.052.075.244.056.339.186.065.089.208.115.287.198.193.2.36.423.554.623.134.137.31.235.437.378.149.169.263.367.393.552.058.083.107.176.177.248.078.08.175.14.263.212.018.015.036.04.038.063.015.21.17.313.306.444.1.096.147.246.228.365.072.105.162.197.24.296.081.104.163.207.235.316.077.117.14.243.214.362.04.066.087.127.13.19l.216.319c.038.053.076.106.116.158l.27.348c.016.019.06.035.058.044-.051.19.123.282.191.412.112.21.284.388.43.58a.17.17 0 01.036.067c.037.203.186.326.315.466.033.035.031.1.055.148.03.057.069.11.104.165l.052-.007zM45.979 86.555h-19.89l-6.907-.002c-.054 0-.109.005-.16-.005-.04-.008-.075-.037-.112-.056.024-.033.045-.068.072-.099.073-.084.185-.154.215-.252.065-.2.186-.33.349-.457.098-.077.126-.24.196-.357.046-.078.097-.166.169-.216.215-.153.205-.469.468-.601.106-.053.138-.246.213-.37.06-.099.132-.192.2-.288.042-.056.092-.107.13-.165.067-.101.11-.228.197-.306.153-.135.287-.265.328-.48.015-.073.1-.144.17-.194.294-.217.466-.533.688-.809.12-.15.327-.238.427-.397.186-.292.512-.404.744-.64.208-.212.417-.473.747-.559.1-.026.17-.162.255-.247.013-.014.027-.035.042-.036.225-.02.332-.252.513-.306.19-.057.295-.28.521-.24.02.004.054-.042.075-.07.015-.019.014-.06.03-.068.159-.064.32-.12.48-.184.055-.023.104-.06.153-.095.015-.01.016-.044.03-.049.185-.07.371-.134.555-.205.088-.034.172-.076.257-.114.012-.007.019-.024.03-.027.236-.064.473-.124.707-.193.093-.028.181-.076.27-.118.017-.006.03-.03.047-.034.269-.058.537-.121.808-.17.19-.032.395.03.565-.136.057-.056.194-.033.294-.038.208-.008.425.022.624-.025 1.327-.3 2.67-.11 4.005-.14 1.346-.032 2.692-.01 4.038-.01H60.05c.222 0 .445-.01.666.01.166.017.327.082.492.111.146.024.294.031.441.04.182.01.365 0 .545.022.11.015.213.081.323.106.123.03.25.037.376.056.163.025.351-.05.477.13.022.03.101.022.154.03.172.02.366-.049.492.149.022.035.127.014.193.023.11.014.253-.04.294.133.002.008.02.018.032.021.22.062.442.119.661.185.055.017.102.06.15.095.015.01.022.044.035.044.156.015.275.08.405.18.14.106.425.08.5.201.111.184.35.078.435.284.04.095.238.113.339.196.152.126.345.171.492.32.16.16.397.243.594.369a.783.783 0 01.219.198c.206.285.516.44.78.655.144.117.264.266.392.403.062.067.12.14.174.215.125.167.234.349.374.503.13.146.308.25.437.397.095.108.137.261.22.383.068.102.162.189.243.284.024.029.055.059.063.091.04.185.158.309.305.412.018.013.038.04.04.06.016.21.168.319.31.443a.524.524 0 01.17.236c.056.206.188.33.346.462.1.083.122.254.198.373.063.099.154.177.23.268.035.04.064.084.096.128.095.128.191.256.285.386.02.03.05.071.04.096-.007.026-.057.051-.09.053-.174.006-.35.007-.524.007l-18.518-.002H45.98v.002zm-28.932 1.356v1.504c0 .41.002.822-.002 1.232-.001.12-.004.221-.11.336-.125.136-.165.353-.242.534a.258.258 0 00-.004.01c-.24.14-.442.266-.653.376-.066.035-.156.032-.234.032-1.628.002-3.257.001-4.885.001l-5.974.001a1.015 1.015 0 01-.73-.291c-.027-.024-.075-.027-.113-.038-.038-.01-.099-.008-.112-.031-.087-.159-.164-.322-.245-.483-.028-.054-.069-.103-.088-.16-.028-.083-.06-.171-.06-.257-.004-1.387-.003-2.774-.003-4.162 0-.215-.003-.43.004-.646.001-.05.04-.098.062-.147.032.032.063.067.097.095.083.073.16.156.254.208.238.133.517.211.716.386.152.134.353.079.45.168.213.195.48.067.67.17.48.258.983.07 1.467.148.132.022.259.077.39.11.077.02.156.04.235.042.417.013.835.013 1.25.034.11.007.214.078.324.107a.97.97 0 00.256.041c.33.009.66.009.989.016.176.003.353-.022.513.104.065.048.18.04.274.041.41.01.82.009 1.23.023.082.004.16.07.24.098a.58.58 0 00.187.046c.417.01.835.005 1.251.02.093.004.181.075.275.104.068.023.141.04.213.043.404.008.808.002 1.21.023.143.007.28.088.424.115.144.028.292.03.474.047zm-.358 3.616h.001c-.008.022-.006.014 0 0zm71.712-5.814v.22c0 1.57 0 3.138-.003 4.708 0 .12.06.277-.129.33-.008.002-.017.024-.015.035.047.231-.213.329-.229.533-.001.012-.009.029-.018.034-.145.07-.293.134-.434.21-.59.316-1.223.138-1.832.143-3.156.023-6.313.005-9.47.021-.253.002-.41-.182-.644-.195-.097-.005-.186-.137-.287-.218-.062-.078-.14-.168-.208-.266-.023-.036-.01-.093-.028-.134-.03-.069-.072-.133-.107-.2-.02-.038-.051-.078-.051-.12-.003-.961-.003-1.924-.003-2.877.023-.017.032-.031.044-.033.343-.055.686-.128 1.031-.156.355-.03.713-.01 1.07-.025.078-.003.152-.074.233-.103a.571.571 0 01.19-.041c.424-.008.849-.006 1.272-.02.082-.003.16-.064.242-.092.068-.024.14-.05.21-.052.417-.01.835-.006 1.251-.026.13-.007.257-.077.386-.112a.88.88 0 01.198-.03c.316-.005.633-.002.95-.014.198-.008.403.046.586-.118.068-.061.22-.037.333-.04.317-.01.633-.007.95-.02.185-.01.383.041.545-.122.046-.045.154-.035.234-.036.31-.008.62-.004.929-.015.166-.006.33.022.487-.118.083-.073.272-.019.41-.044.079-.014.15-.069.223-.108.016-.009.03-.04.04-.039.232.045.41-.093.595-.189.138-.07.258-.177.387-.268.02-.014.04-.04.062-.043.209-.03.339-.163.453-.325.018-.026.08-.02.147-.035zM9.747 47.477c-.202 0-.405.013-.605-.005-.14-.012-.273-.07-.41-.104a1.172 1.172 0 00-.238-.04c-.289-.01-.579-.009-.868-.023-.124-.005-.265.039-.35-.127-.023-.045-.177-.012-.267-.033-.14-.032-.332.091-.414-.137-.01-.025-.113-.013-.172-.024-.118-.02-.279.06-.325-.137-.004-.015-.06-.019-.092-.025-.103-.018-.24.037-.266-.136-.002-.011-.033-.025-.05-.025-.218-.005-.332-.17-.47-.299-.087-.08-.228-.053-.291-.206-.06-.145-.278-.244-.297-.38-.032-.223-.283-.353-.212-.607.015-.053-.07-.133-.103-.202-.02-.045-.044-.094-.045-.142a13.024 13.024 0 01-.002-.667c.002-.084-.028-.19.113-.223.03-.007.034-.129.046-.198.02-.113-.036-.238.136-.312.088-.037.117-.205.18-.308.066-.11.13-.226.217-.317.076-.08.232-.108.267-.195.08-.194.368-.089.405-.316.002-.014.076-.01.11-.027.07-.035.133-.08.202-.115.045-.021.099-.025.144-.048.067-.032.128-.08.196-.112a.88.88 0 01.177-.052c.118-.026.283.058.323-.145.001-.007.022-.013.035-.016.299-.058.597-.118.897-.172.106-.019.225.028.295-.113.02-.042.134-.047.205-.052.161-.01.325.003.484-.019.118-.014.229-.074.345-.106.09-.024.182-.049.274-.052.491-.012.994.044 1.47-.045a6.38 6.38 0 011.247-.114c.116 0 .266-.054.323.122.002.007.025.017.036.013.23-.062.327.192.52.217.026.003.054.033.07.058.101.16.204.32.297.486a.478.478 0 01.058.209c.007.196 0 .391-.002.586 0 .033.005.086-.013.097-.23.142-.107.37-.14.559-.022.126.02.266-.13.355-.04.024-.03.136-.04.208-.032.217.055.458-.156.64-.043.036-.01.155-.024.234-.016.093.04.228-.126.25-.012 0-.028.03-.029.046-.013.224-.156.369-.304.513-.028.028-.018.092-.038.133-.028.057-.067.108-.102.16-.01.014-.042.028-.04.037.053.22-.2.299-.223.486-.005.035-.049.084-.084.095a.75.75 0 00-.412.336.067.067 0 01-.049.028c-.22.005-.35.143-.468.305-.021.028-.089.019-.129.038-.06.03-.111.075-.17.106-.054.028-.112.062-.169.064-.249.008-.498.003-.747.003v-.008zm70.81-.546c-.13-.098-.259-.196-.387-.295-.058-.047-.125-.088-.169-.146-.126-.167-.138-.407-.335-.534-.016-.01-.018-.05-.018-.075-.002-.202-.174-.303-.268-.45a.485.485 0 01-.054-.122c-.023-.08.025-.201-.13-.204-.013 0-.032-.064-.037-.102-.026-.171-.002-.34-.138-.5-.075-.087-.035-.271-.05-.41-.015-.126.014-.25-.11-.364-.07-.065-.03-.243-.05-.37-.027-.158.069-.354-.143-.46-.02-.01-.02-.074-.021-.114-.005-.134.007-.27-.012-.403-.04-.278.176-.445.252-.667.084-.244.345-.251.448-.444.013-.023.091-.007.133-.023.067-.028.126-.071.192-.1a.438.438 0 01.166-.047c.323.002.665-.055.965.032.642.185 1.291.072 1.934.131.092.01.18.066.27.099.054.02.11.048.166.051.201.013.404.004.604.028.088.01.168.077.254.11.066.025.138.035.208.048.176.035.383-.071.526.137.029.043.153.017.233.028.095.014.213-.042.26.12.01.037.169.031.259.048.082.015.2-.04.212.115.002.017.05.04.08.044.113.015.249-.02.288.144.211-.043.309.159.47.227.124.051.225.157.333.243.095.076.189.157.277.242.068.067.146.136.185.22.08.172.142.353.203.534.032.095-.049.238.127.274.02.004.033.095.033.146.004.235.007.472-.002.707-.002.05-.065.096-.084.15-.03.082-.05.169-.07.255-.022.101.05.24-.121.278-.01.002-.024.022-.022.03.046.216-.167.307-.233.474-.047.118-.194.198-.3.291a7.68 7.68 0 01-.34.281c-.033.025-.082.03-.119.051-.071.042-.138.093-.21.132a.344.344 0 01-.126.043c-.096.012-.197-.013-.24.127-.01.033-.143.027-.219.044-.097.022-.24-.058-.272.123-.002.015-.069.028-.106.03-.135.007-.27 0-.403.015-.063.008-.12.055-.18.08-.073.027-.146.066-.22.07-.31.013-.62.005-.928.025-.113.007-.221.07-.332.104-.056.018-.114.038-.172.038-.511.007-1.023.014-1.534.01-.052 0-.105-.063-.156-.1-.02-.013-.036-.045-.055-.047-.218-.017-.343-.157-.473-.313-.047-.055-.174-.042-.265-.061l.025-.028zM28.836 66.44v-.176c.07-.071.113-.132.17-.168a.43.43 0 01.206-.071c.673-.007 1.346-.003 2.02-.008.78-.007 1.57.056 2.34-.042 1.968-.254 3.942-.048 5.91-.158.524-.029 1.048-.08 1.571-.13.07-.006.195-.07.193-.102-.012-.246.125-.444.215-.646.072-.16.106-.362.283-.466.015-.008.032-.028.033-.044.013-.318.3-.442.46-.657.062-.082.106-.177.166-.26.13-.185.348-.247.518-.375.09-.07.15-.18.224-.27.012-.015.028-.033.045-.037.245-.053.436-.201.635-.342.058-.04.203.005.229-.036.122-.2.364-.077.474-.174.239-.21.505-.094.752-.147.066-.014.125-.058.188-.085.052-.022.106-.055.159-.057.242-.005.484-.002.727-.002.033 0 .083-.008.098.01.194.229.46.106.692.151.081.016.156.066.233.102.017.007.034.035.046.032.268-.06.457.158.698.201.138.026.261.129.39.198.082.045.163.09.241.14.084.056.189.102.24.18.116.178.289.256.463.353.111.063.168.22.256.33.087.108.187.206.275.312.057.069.105.145.15.222.12.201.241.398.357.6.026.043.022.104.045.149.038.074.098.136.127.212.03.077.046.165.043.246-.007.192.09.264.266.269.107.002.216-.006.322.007 2.194.261 4.408-.007 6.596.2 1.625.154 3.242.049 4.861.12.098.004.226-.039.244.133.002.025.087.04.144.064v.222c-.063.065-.107.127-.165.165a.455.455 0 01-.207.076c-.41.015-.84-.058-1.227.041-.704.182-1.433.002-2.108.175-.67.173-1.33.068-1.989.146-.07.01-.136.063-.206.087-.068.024-.138.05-.208.05-.518.012-1.037.013-1.555.028-.087.003-.171.068-.26.096a.779.779 0 01-.211.042c-.525.01-1.05.01-1.575.024-.076.002-.149.06-.225.086-.067.023-.137.052-.206.054-.316.01-.633.009-.949.017-.396.009-.806-.056-1.18.278 0 .066.006.192 0 .32-.006.105.043.236-.117.28-.012.003-.025.037-.021.053.066.269-.157.45-.211.686-.037.155-.178.286-.272.428-.011.016-.031.031-.033.049-.032.297-.285.433-.455.63-.094.109-.162.241-.26.345-.106.111-.23.204-.352.299-.093.073-.246.118-.278.208-.05.14-.147.105-.23.14-.104.046-.201.107-.3.163l-.497.289c-.011.005-.02.018-.031.022-.257.062-.512.131-.77.184-.198.041-.394.067-.591.121-.323.089-.686.134-1.03-.052-.147-.08-.356-.04-.533-.072-.103-.018-.201-.07-.3-.108-.026-.01-.048-.025-.074-.033-.215-.065-.437-.111-.643-.197-.155-.065-.289-.18-.432-.271-.027-.017-.053-.04-.082-.044-.195-.022-.301-.153-.412-.298a.794.794 0 00-.27-.2.905.905 0 01-.41-.407c-.055-.108-.175-.182-.252-.28-.083-.107-.149-.226-.224-.338a4.434 4.434 0 00-.12-.17c-.01-.015-.033-.025-.04-.04-.069-.177-.1-.383-.213-.524-.13-.162-.11-.34-.16-.51-.034-.114-.183-.17-.15-.333.027-.128.006-.266.006-.355-.374-.309-.782-.258-1.178-.265-.296-.005-.593 0-.888-.02-.101-.006-.197-.076-.298-.11a.602.602 0 00-.175-.028c-.478-.008-.956-.005-1.433-.02-.092-.003-.181-.073-.274-.104a.694.694 0 00-.195-.035c-.524-.009-1.05-.011-1.574-.025-.08-.003-.16-.062-.24-.092-.048-.018-.098-.038-.15-.043a1.69 1.69 0 00-.281-.012c-.749.045-1.482-.091-2.222-.173-.36-.04-.742.045-1.085-.04-.654-.165-1.312-.107-1.969-.147-.05-.003-.102-.04-.145-.073-.051-.038-.093-.09-.17-.163zm17.163-3.123v-.003c-.169 0-.342.025-.504-.006-.343-.065-.598.22-.923.208-.022-.001-.044.043-.07.061-.04.03-.082.055-.125.079-.08.045-.16.088-.24.131l-.404.22c-.023.013-.052.018-.069.036-.133.146-.25.31-.4.435-.151.125-.306.23-.315.448a.074.074 0 01-.027.049c-.153.123-.301.248-.295.471 0 .022-.026.043-.037.066-.045.088-.098.174-.131.267-.024.067.004.182-.036.21-.153.107-.124.259-.126.398a50.3 50.3 0 00.003 1.333.94.94 0 00.042.257c.03.108.075.211.116.317.07.18.113.38.22.532.11.157.283.269.299.484.001.02.028.04.046.055.085.071.185.132.256.216.228.272.284.318.631.496.017.009.034.02.046.033.121.14.237.286.449.283.025-.002.068.008.072.021.06.195.226.123.354.147.05.01.101.018.148.038.084.035.163.11.245.111.519.01 1.037.018 1.555-.001.223-.009.409-.207.652-.179.005.002.011-.006.017-.01.144-.099.294-.188.43-.297.154-.123.343-.17.494-.317.441-.429.445-.354.665-.799.008-.015.025-.027.038-.04.131-.122.27-.237.28-.438 0-.03.012-.082.03-.087.167-.056.122-.202.145-.32.011-.063.022-.128.044-.189.037-.108.116-.21.12-.316.014-.451.03-.904-.002-1.353-.02-.263-.131-.52-.203-.78-.005-.017-.03-.027-.04-.043-.034-.057-.064-.116-.098-.172a17.93 17.93 0 00-.324-.509c-.079-.12-.152-.246-.242-.357a2.025 2.025 0 00-.28-.283c-.105-.086-.224-.155-.337-.234-.05-.034-.098-.072-.148-.106-.107-.07-.206-.17-.325-.204-.218-.064-.393-.274-.653-.205-.009.002-.031-.01-.033-.018-.027-.188-.178-.13-.283-.133-.242-.01-.485-.003-.727-.003z"/></svg>