<svg xmlns="http://www.w3.org/2000/svg" width="37" height="40"><path fill="#005ccb" d="M8.082 25.342v3.863c0 .977.792 1.777 1.76 1.777h22.049c2.464 0 4.445 1.998 4.445 4.485 0 2.486-1.98 4.485-4.445 4.485-2.465 0-4.445-2.042-4.445-4.485 0-.978.308-1.91.88-2.664H17.192c.528.71.88 1.643.88 2.664 0 2.486-2.024 4.53-4.489 4.53s-4.445-2.044-4.445-4.486a4.4 4.4 0 01.88-2.665h-.22a3.557 3.557 0 01-3.565-3.552V4.159L.556 1.717C.072 1.54-.104 1.006.072.563.292.074.82-.103 1.261.074L7.51 2.738a.876.876 0 01.528.8v3.73l28.21 4.352c.44.09.748.444.748.888v9.814a3.556 3.556 0 01-3.565 3.553H9.842c-.66 0-1.276-.178-1.76-.533zm5.501 7.46a2.669 2.669 0 00-2.685 2.665c0 1.466 1.233 2.665 2.685 2.665a2.67 2.67 0 002.684-2.665 2.67 2.67 0 00-2.684-2.664zm18.264 0a2.669 2.669 0 00-2.685 2.665 2.67 2.67 0 002.685 2.665 2.67 2.67 0 002.684-2.665 2.67 2.67 0 00-2.684-2.664zM8.037 9.045l.045.007v-.007zm.045.007v13.271c0 .977.792 1.777 1.76 1.777h23.633c.968 0 1.76-.8 1.76-1.777v-9.06z"/></svg>