<svg xmlns="http://www.w3.org/2000/svg" width="25" height="25"><path fill-rule="evenodd" d="M5.537 1.106L6.263.38l18.356 18.355-.726.726L5.537 1.106zm5.198.041l.725-.726 13.117 13.117-.726.726L10.735 1.147zm10.326.014l.726-.726 2.777 2.777-.726.726-2.777-2.777zm2.749 7.905l-7.878-7.877.726-.726 7.878 7.877-.726.726zm.463 15.933L0 .725l.726-.726L25 24.273l-.727.726zM4.068 23.966l-.727.726L.1 21.451l.726-.726 3.242 3.241zM.925 15.668l8.406 8.405-.726.726-8.406-8.405.726-.726zm.069-5.088l13.425 13.425-.726.726L.268 11.306l.726-.726zm.069-5.087l18.443 18.443-.726.726L.336 6.219l.727-.726z"/></svg>