<svg xmlns="http://www.w3.org/2000/svg" width="30" height="30" viewBox="0 0 30 30"><g><g><path fill="#9c9c9c" d="M0 25.605V4.394A4.4 4.4 0 0 1 4.394-.001h21.211A4.4 4.4 0 0 1 30 4.394v21.211A4.399 4.399 0 0 1 25.605 30h-7.91V19.335h4.529l.586-3.516h-5.115v-3.515c0-.97.788-1.758 1.758-1.758h3.515V7.03h-4.394a4.4 4.4 0 0 0-4.395 4.395v4.394h-3.515v3.516h3.515v10.664H4.394A4.399 4.399 0 0 1 0 25.605zm1.757 0a2.64 2.64 0 0 0 2.637 2.637h8.028v-7.149H8.906v-7.031h3.516v-2.637a6.16 6.16 0 0 1 6.152-6.152h6.152v7.031h-5.273v1.758h5.432l-1.172 7.031h-4.26v7.149h6.152a2.64 2.64 0 0 0 2.637-2.637V4.394a2.64 2.64 0 0 0-2.637-2.638H4.395a2.64 2.64 0 0 0-2.638 2.638z"/></g></g></svg>