<svg xmlns="http://www.w3.org/2000/svg" width="20" height="27"><path fill-rule="evenodd" d="M16.63 7.639h2.214c.637 0 1.155-.497 1.155-1.108V1.107C20 .496 19.481-.001 18.844-.001H16.63c-.637 0-1.155.497-1.155 1.108v2.192h-3.56c-.237-.802-1.006-1.39-1.915-1.39-.91 0-1.679.588-1.916 1.39h-3.56V1.107c0-.611-.518-1.108-1.155-1.108H1.155c-.637 0-1.156.497-1.156 1.108v5.424c0 .611.519 1.108 1.156 1.108h2.214c.637 0 1.155-.497 1.155-1.108V4.34h3.56a1.96 1.96 0 001.373 1.316v8.673c-.845.295-1.449 1.263-1.449 2.445s.604 2.151 1.449 2.445v2.123a1.96 1.96 0 00-1.373 1.316h-3.56v-2.19c0-.612-.518-1.109-1.155-1.109H1.155c-.637 0-1.156.497-1.156 1.109v5.423c0 .611.519 1.108 1.156 1.108h2.214c.637 0 1.155-.497 1.155-1.108V23.7h3.56c.237.801 1.006 1.389 1.915 1.389.91 0 1.678-.588 1.916-1.389h3.56v2.191c0 .611.518 1.108 1.155 1.108h2.214c.637 0 1.155-.497 1.155-1.108v-5.423c0-.612-.518-1.109-1.155-1.109H16.63c-.637 0-1.155.497-1.155 1.109v2.19h-3.56a1.961 1.961 0 00-1.373-1.316v-2.123c.845-.294 1.449-1.263 1.449-2.445s-.604-2.15-1.449-2.444V5.656a1.961 1.961 0 001.373-1.316h3.56v2.191c0 .611.518 1.108 1.155 1.108zM3.438 25.891a.068.068 0 01-.069.066H1.155c-.038 0-.07-.03-.07-.066v-5.423c0-.037.032-.067.07-.067h2.214c.038 0 .069.03.069.067v5.423zm13.122-5.423c0-.038.032-.067.07-.067h2.214c.038 0 .069.029.069.067v5.423a.068.068 0 01-.069.066H16.63c-.038 0-.07-.03-.07-.066v-5.423zm-5.656 2.711c0 .479-.405.868-.905.868-.499 0-.904-.389-.904-.868 0-.478.405-.868.904-.868.5 0 .905.39.905.868zm-.905-4.909c-.428 0-.904-.615-.904-1.496s.476-1.496.904-1.496c.429 0 .905.615.905 1.496s-.477 1.496-.905 1.496zm0-13.583c-.499 0-.904-.389-.904-.868s.405-.868.904-.868c.5 0 .905.389.905.868s-.405.868-.905.868z"/></svg>