<svg xmlns="http://www.w3.org/2000/svg" width="14" height="25"><path fill-rule="evenodd" d="M14 22.255c0 .125.001.253-.06.365a.528.528 0 01-.493.294l-.969-.001c-.165 0-.33 0-.496.002-.039 0-.079.003-.13.006-.004.052-.009.097-.009.143-.001.468.001.936-.003 1.405-.001.235-.116.402-.345.491-.016.007-.028.025-.042.038h-4.6c-.011-.01-.019-.028-.032-.033-.267-.09-.356-.294-.368-.543-.008-.16-.001-.32-.001-.48V18.32a.6.6 0 01.132-.413.483.483 0 01.357-.186c.17-.004.339-.006.508-.006h1.029c.039 0 .079-.004.129-.008.004-.049.009-.091.009-.132V8.884c0-.234.103-.402.322-.498A.454.454 0 019.1 8.35c.238-.006.476-.007.714-.008.274-.001.549.002.823.001.117-.001.135-.018.135-.13V6.269c0-.027-.004-.054-.007-.089-.072-.035-.146-.072-.221-.107a2.527 2.527 0 01-.811-.638 4.57 4.57 0 01-.703-1.124 3.287 3.287 0 01-.221-.599c-.037-.159-.096-.312-.128-.47-.061-.308-.096-.62-.053-.931.097-.694.42-1.273.981-1.719.209-.167.441-.298.697-.394.185-.068.369-.126.565-.153.042-.006.081-.031.122-.046h.654c.034.016.066.043.102.048a2.638 2.638 0 011.547.815c.264.277.452.602.571.966.08.241.12.486.126.735.008.301-.035.599-.122.889-.042.141-.07.287-.122.425a7.264 7.264 0 01-.259.618c-.133.277-.294.54-.487.782-.283.357-.605.669-1.046.841-.037.015-.07.038-.106.058v2.158c.055.004.102.009.149.009.464.001.928-.002 1.392.002.09.001.188.007.27.039.235.093.333.279.336.517.002.269.002.538.002.808l-.001 6.431.001 6.115zM12.188 4.601c.227-.305.396-.639.526-.993.114-.313.201-.63.195-1.004-.008-.104-.004-.245-.044-.389a1.586 1.586 0 00-.452-.737c-.301-.283-.674-.407-1.084-.437-.048-.004-.097.005-.145.011a2.382 2.382 0 00-.166.026c-.09.018-.185.027-.268.061-.303.123-.564.3-.757.564a1.51 1.51 0 00-.302.984c.017.363.111.713.247 1.05.116.288.26.564.446.816.156.211.325.41.559.548a.649.649 0 00.71.007 1.85 1.85 0 00.535-.507zm.701 4.784h-1.047v.144l.001 2.402a.587.587 0 01-.045.249.538.538 0 01-.904.138c-.104-.113-.123-.248-.123-.392.002-.801.001-1.601.001-2.402v-.12c-.113-.035-.969-.035-1.086-.001v7.043c0 .581.002 1.164-.001 1.745a.625.625 0 01-.043.239c-.094.221-.276.321-.521.321H7.548v.138l-.001 1.16.001 3.771c0 .045.009.09.014.143h.543l2.517.001c.139 0 .15-.011.15-.149v-.457c.001-.309-.001-.617.002-.925 0-.073.003-.151.028-.218a.543.543 0 01.511-.338c.484.006.968.001 1.452.001h.126c.03-.127.026-12.403-.002-12.493zM2.891 3.57a1.56 1.56 0 01-.603.461 1.435 1.435 0 01-.52.132l-.545.007c-.13.001-.134.004-.134.134l-.001 1.382a.551.551 0 01-.195.444c-.317.264-.782.08-.855-.246a1.252 1.252 0 01-.036-.264c-.004-.328 0-.657 0-.984v-.985H.001V1.625c.001-.227.085-.413.302-.517a.7.7 0 01.278-.066c.342-.007.686-.012 1.028 0 .475.016.89.175 1.212.527.173.189.289.404.359.648.066.226.061.451.029.672-.036.251-.15.482-.318.681zm-.78-1.162c-.085-.176-.217-.296-.428-.304-.173-.007-.346-.004-.519-.004-.02 0-.039.007-.066.012v1.019h.604c.008 0 .017 0 .025-.002.322-.089.534-.41.384-.721zM.146 19.965a.507.507 0 01.402-.177c.183.008.354.078.448.249.106.191.205.384.306.577l.541 1.039c.091.175.179.352.268.528.005.008.014.015.039.042.004-.064.008-.108.008-.152l.001-1.757a.483.483 0 01.199-.404.545.545 0 01.817.168c.05.092.053.185.053.282l-.001 2.038v1.921l-.001.176c-.003.227-.123.375-.332.464-.015.006-.024.026-.036.039h-.29c-.016-.01-.031-.027-.05-.033a.525.525 0 01-.32-.29c-.115-.232-.236-.461-.355-.692l-.592-1.145c-.04-.076-.085-.149-.127-.224a.147.147 0 00-.035.094c-.001.18 0 .359 0 .539 0 .394.005.788-.002 1.182-.005.245-.099.443-.357.534-.011.005-.018.024-.026.035H.389c-.013-.013-.023-.033-.039-.038-.243-.089-.339-.276-.346-.509-.009-.32-.004-.64-.004-.96l.002-3.104c0-.157.036-.3.144-.422zm.15-6.358a.64.64 0 01.266-.062c.367-.007.734-.013 1.1-.001.644.021 1.229.403 1.465 1.009.076.193.101.388.101.591l-.001 1.803c0 .121.003.243-.004.363-.027.46-.249.821-.611 1.109a1.573 1.573 0 01-.868.325c-.407.009-.814.013-1.221.003-.297-.007-.499-.215-.519-.521-.009-.136-.002-.274-.002-.41v-3.712c.001-.217.086-.397.294-.497zm.792 1.141l.001 1.874v.973c.001.11.011.118.126.12.117.001.235.008.351-.002a.917.917 0 00.292-.062.491.491 0 00.3-.476c.001-.691.002-1.382-.002-2.074a.52.52 0 00-.051-.211c-.067-.151-.189-.266-.354-.284-.21-.024-.425-.006-.663-.006v.148zM.295 7.362a.646.646 0 01.262-.069c.362-.008.726-.018 1.088 0 .625.03 1.103.311 1.407.844.132.231.185.485.177.752-.021.628-.337 1.073-.896 1.37-.041.021-.088.034-.131.054-.027.013-.049.035-.08.057.088.116.169.225.252.332.242.312.484.624.73.933a.548.548 0 01.113.472c-.034.16-.145.273-.295.347a.513.513 0 01-.621-.127c-.146-.172-.282-.352-.422-.529l-.57-.729-.158-.204c-.008-.011-.022-.018-.052-.042-.004.06-.009.1-.009.141-.001.331.005.663-.004.995a.535.535 0 01-.262.467c-.325.205-.733-.016-.787-.297-.014-.072-.034-.145-.034-.217C.001 10.569.002 9.226.002 7.884c0-.225.074-.416.293-.522zm.8 2.011c.213 0 .414.013.614-.004.207-.016.408-.218.444-.415a.52.52 0 00-.478-.605c-.169-.005-.338-.004-.507-.004-.023.001-.046.011-.073.019v1.009z"/></svg>