<svg xmlns="http://www.w3.org/2000/svg" width="25" height="25"><path fill-rule="evenodd" d="M22.986 6.398l-.526.245.019 2.848c.009 2-.019 2.901-.095 3.038-.253.463-.309.473-5.263.473h-4.597v5.439l.497.273c.685.373 1.417 1.173 1.661 1.819.619 1.592-.226 3.403-1.961 4.194-.432.191-.657.237-1.277.237-.666 0-.834-.037-1.379-.301-1.407-.673-2.299-2.183-2.045-3.502.207-1.037 1.022-2.074 2.007-2.537l.432-.201v-5.421H4.455v5.421l.431.201c.61.29 1.37 1.018 1.689 1.628.215.427.281.673.309 1.273.028.682 0 .81-.253 1.347a3.9 3.9 0 01-1.792 1.801c-.535.254-.713.291-1.37.291-.666 0-.835-.037-1.379-.301a3.528 3.528 0 01-1.088-.791c-1.033-1.101-1.267-2.284-.686-3.557.253-.555 1.126-1.41 1.698-1.674l.469-.209V12.51l-.009-5.922-.469-.218C1.085 5.951.269 4.924.054 3.904-.266 2.394.879.684 2.568.165c.657-.2.947-.209 1.653-.036 1.004.255 1.877.964 2.402 1.956.319.609.357 1.692.085 2.392-.254.646-1.06 1.519-1.755 1.902l-.497.273.018 2.201.029 2.192 2.984.028 2.974.018V6.56l-.225-.054c-.357-.083-1.173-.728-1.558-1.228-.46-.601-.694-1.266-.675-2.002 0-.472.065-.71.337-1.246C8.885.975 9.776.301 10.967.065c.46-.1.629-.091 1.164.046 1.126.291 1.97.973 2.477 2.028.488 1.019.347 2.183-.394 3.139-.357.463-1.155 1.109-1.502 1.218-.178.056-.187.146-.187 2.329v2.266h7.974V6.589l-.441-.228c-.628-.327-1.276-.992-1.632-1.683-.694-1.364-.225-2.938 1.182-3.975.272-.2.741-.428 1.126-.546.572-.173.722-.182 1.238-.1.788.137 1.389.436 1.961.991.713.673.995 1.274 1.051 2.175.027.591 0 .827-.169 1.255-.272.692-1.107 1.574-1.829 1.92zM2.342 20.643c-.235.245-.281.363-.309.891-.029.528 0 .655.188.928.281.41.656.582 1.247.582.92 0 1.379-.428 1.435-1.338.029-.618-.14-1.018-.571-1.291-.282-.173-1.052-.255-1.427-.136-.159.045-.412.209-.563.364zM4.923 3.432c0-.592-.206-1.028-.582-1.256-.216-.128-.469-.182-.873-.181-.966 0-1.454.455-1.454 1.364 0 .664.226 1.073.694 1.282 1.099.482 2.215-.127 2.215-1.209zm5.066 18.239c0 .873.535 1.373 1.455 1.373.928 0 1.454-.5 1.454-1.392 0-.564-.207-.991-.591-1.237-.282-.173-1.052-.255-1.417-.136-.581.181-.901.663-.901 1.392zm2.758-17.53c.329-.673.113-1.637-.431-1.965-.216-.128-.469-.182-.873-.182-.976 0-1.455.473-1.455 1.419 0 .61.235 1.029.695 1.228.779.337 1.773.1 2.064-.5zm9.701-1.965c-.215-.128-.469-.182-.872-.181-.966 0-1.454.455-1.454 1.364 0 .664.225 1.073.694 1.282 1.098.482 2.214-.127 2.214-1.209 0-.592-.206-1.028-.582-1.256zm-3.349 14.755c.169-.083.676-.109 1.96-.091 1.68.027 1.755.036 2.271.282.976.464 1.614 1.374 1.614 2.293 0 .718-.272 1.282-.891 1.874l-.489.454.31.428C24.868 23.526 25 23.753 25 24.053c0 .71-.957 1.21-1.51.783-.141-.101-.657-.746-1.154-1.419l-.91-1.229h-.929v1.092c0 1.055-.01 1.101-.253 1.364a.996.996 0 01-.658.337c-.366.046-.431.018-.731-.273l-.329-.318-.009-1.537c-.018-4.357.01-5.34.188-5.577.094-.127.272-.282.394-.345zm1.398 2.583v.692l1.089-.037c.947-.027 1.097-.054 1.219-.2.159-.219.169-.91.019-1.037-.169-.127-.741-.172-1.595-.137l-.732.037v.682z"/></svg>