<svg xmlns="http://www.w3.org/2000/svg" width="45" height="40"><path fill="#005ccb" d="M44.934 37.393c-.292 1.368-1.303 2.343-2.652 2.56-.047.008-.093.03-.139.046H31.17c-.179-.04-.36-.071-.536-.123-1.172-.349-1.915-1.141-2.255-2.346l-.06-.225c-.431.199-.843.403-1.265.58a7.034 7.034 0 01-2.782.542c-5.52-.019-11.039-.016-16.558-.002-.885.002-1.618-.305-2.227-.94-1.134-1.185-1.72-2.628-1.842-4.282-.008-.109-.045-.253-.12-.312-.958-.762-1.49-1.794-1.68-2.996-.125-.787-.124-1.596-.186-2.395-.008-.111-.027-.248-.093-.326C.635 26.08.32 24.79.444 23.374c.04-.46.176-.91.26-1.367.016-.085.027-.197-.013-.262-.422-.685-.566-1.456-.635-2.24-.049-.548-.081-1.108-.029-1.653.088-.91.544-1.661 1.15-2.304C2.3 14.36 3.632 13.566 5.23 13.293a3.28 3.28 0 01.524-.031h8.085c-.099-.479-.2-.921-.28-1.37-.38-2.155-.455-4.307.127-6.44.46-1.683 1.256-3.157 2.601-4.266C17.047.56 17.905.16 18.878.042c.039-.004.076-.028.113-.043h.752c.228.05.457.091.683.15.67.176 1.246.525 1.753 1.009.244.23.354.5.352.846-.01 1.432.008 2.864-.01 4.297a5.826 5.826 0 00.232 1.73c.582 1.993 1.182 3.977 2.173 5.804.741 1.367 1.697 2.538 2.937 3.45.12.09.245.171.418.291 0-.377-.002-.699 0-1.022.006-.905.308-1.689.925-2.332.592-.618 1.316-.952 2.154-.953 3.523-.01 7.045-.015 10.568 0 1.472.006 2.702 1.103 3.014 2.621.016.075.038.15.058.223V37.15c-.022.08-.048.162-.066.243zm-20.73-1.443a5.763 5.763 0 001.453-.212 8.472 8.472 0 002.321-1.016c.221-.138.31-.307.31-.585-.01-4.655-.009-9.308-.002-13.962 0-.236-.066-.362-.273-.478-2.334-1.293-4-3.244-5.181-5.665-.862-1.765-1.448-3.635-1.95-5.536a1.502 1.502 0 01-.032-.385c.008-1.502.015-3.005.033-4.507a.557.557 0 00-.186-.45c-.795-.758-1.666-.881-2.553-.234-1.537 1.123-2.533 2.63-2.81 4.591-.26 1.823.05 3.594.471 5.353.084.352.203.696.274 1.05a.897.897 0 01-.038.493 3.728 3.728 0 01-.388.662c-.171.248-.43.303-.71.302-1.152-.003-2.305 0-3.458 0-1.586 0-3.173-.016-4.759.009a3.975 3.975 0 00-1.22.222c-.816.286-1.53.768-2.142 1.4-.527.542-.85 1.176-.752 1.97a38.1 38.1 0 00.263 1.788.481.481 0 00.213.283c.4.243.515.647.298 1.084-.459.922-.508 1.884-.207 2.864.13.426.361.8.695 1.089.262.23.338.506.314.851-.068.997-.04 1.986.31 2.937.225.608.587 1.1 1.14 1.428.31.184.412.454.4.823-.045 1.398.444 2.578 1.433 3.532.234.224.522.314.85.312 2.706-.006 5.411-.003 8.117-.003 2.589 0 5.178.01 7.766-.01zm18.95-18.764c0-1.156-.618-1.792-1.739-1.792h-9.568c-1.091 0-1.721.654-1.721 1.79v18.88c0 1.145.632 1.796 1.741 1.796h9.545c1.115 0 1.741-.644 1.742-1.792V17.186z"/></svg>