<svg xmlns="http://www.w3.org/2000/svg" width="30" height="30" viewBox="0 0 30 30"><g><g><path fill="#9c9c9c" d="M0 25.605V4.394A4.4 4.4 0 0 1 4.394-.001h21.211A4.4 4.4 0 0 1 30 4.394v21.211A4.399 4.399 0 0 1 25.605 30H4.395A4.399 4.399 0 0 1 0 25.605zm1.757 0a2.64 2.64 0 0 0 2.637 2.637h21.211a2.64 2.64 0 0 0 2.637-2.637V4.394a2.64 2.64 0 0 0-2.637-2.638H4.395a2.64 2.64 0 0 0-2.638 2.638zM7.09 15c0-4.361 3.55-7.91 7.91-7.91 4.362 0 7.91 3.549 7.91 7.91 0 4.362-3.548 7.91-7.91 7.91-4.36 0-7.91-3.548-7.91-7.91zm1.758 0A6.159 6.159 0 0 0 15 21.151 6.159 6.159 0 0 0 21.152 15 6.158 6.158 0 0 0 15 8.847 6.158 6.158 0 0 0 8.847 15zm12.305-8.79a2.64 2.64 0 0 1 2.637-2.636 2.64 2.64 0 0 1 2.637 2.637 2.64 2.64 0 0 1-2.637 2.637 2.64 2.64 0 0 1-2.637-2.637zm1.758 0a.88.88 0 1 0 1.759 0 .88.88 0 0 0-1.76 0z"/></g></g></svg>