<svg height="512" viewBox="0 0 56 60" width="512" xmlns="http://www.w3.org/2000/svg"><path d="M8 32c0 7.281-2.172 12.08-6.642 14.672a2.006 2.006 0 00-.742 2.7L4.688 56.7a2 2 0 002.493.887c3.3-1.329 14.478-5.108 20.029 2.03a1 1 0 001.58 0c5.552-7.137 16.734-3.359 20.03-2.03a2 2 0 002.492-.887l4.072-7.33a2.006 2.006 0 00-.742-2.7C50.172 44.08 48 39.281 48 32c0-7.94 5.4-14 7.058-15.671a1.99 1.99 0 00.113-2.685l-4.049-4.86a2 2 0 00-1.8-.7C39.835 9.329 36.942 3.8 36.139 1.361A1.987 1.987 0 0034.244 0H21.756a1.987 1.987 0 00-1.895 1.361c-.8 2.436-3.7 7.969-13.179 6.726a2 2 0 00-1.8.7l-4.05 4.861a1.989 1.989 0 00.113 2.685C2.6 18 8 24.06 8 32zM6.422 10.07C17.7 11.549 21.012 4.256 21.756 2l12.484-.013c.747 2.269 4.062 9.558 15.344 8.076l4.054 4.858C51.846 16.727 46 23.3 46 32c0 8.056 2.5 13.421 7.636 16.4l-4.069 7.333c-3.479-1.4-14.981-5.266-21.567 1.734-2.912-3.098-6.784-4.067-10.5-4.067a31.4 31.4 0 00-11.064 2.326L2.361 48.4C7.5 45.421 10 40.056 10 32c0-8.7-5.846-15.273-7.635-17.076z"/><path d="M29.228 51.562c-.419.224-.83.467-1.228.727-.4-.26-.809-.5-1.228-.727a1 1 0 10-.941 1.765c.55.293 1.08.623 1.586.986a1 1 0 001.166 0 14.186 14.186 0 011.586-.986 1 1 0 00-.941-1.765zm-5.79-1.35a20.25 20.25 0 00-3.5-.68 1 1 0 00-.21 1.989c1.067.11 2.123.315 3.154.611a1 1 0 10.558-1.92zm-7.038-.783c-1.17.051-2.337.17-3.493.357a1 1 0 00.317 1.975 28.061 28.061 0 013.258-.334 1 1 0 10-.082-2zm-6.918 1.085c-.409.108-.802.219-1.181.332l-.737-1.325c.318-.292.624-.594.917-.906a1 1 0 00-1.458-1.369 15.54 15.54 0 01-1.365 1.287 1 1 0 00-.234 1.254l1.523 2.74a1 1 0 001.18.466c.575-.185 1.2-.37 1.865-.546a1 1 0 10-.51-1.933zm2.418-9.969a1 1 0 00-1.273.616 18.379 18.379 0 01-1.486 3.246 1 1 0 00.857 1.506 1 1 0 00.864-.495 20.362 20.362 0 001.65-3.6 1 1 0 00-.612-1.273zm-.5-13.71c.276 1.173.46 2.365.547 3.567a1 1 0 001 .928h.074a1 1 0 00.925-1.07 24.92 24.92 0 00-.595-3.88 1 1 0 10-1.947.458zm1.115 12.007a1 1 0 00.983-.823c.226-1.279.374-2.57.443-3.866A1 1 0 0013 33.1a1.011 1.011 0 00-1.055.943 29.957 29.957 0 01-.415 3.624 1 1 0 00.985 1.175zm-1.279-14.829a1 1 0 00.93-1.369 29.594 29.594 0 00-1.681-3.522 1 1 0 00-1.745.977 27.558 27.558 0 011.566 3.282 1 1 0 00.93.632zm-3.607-9.158l.516-.618c.383.018.762.027 1.134.027h.438a1 1 0 00-.035-2h-.4c-.494 0-1-.017-1.515-.052a1 1 0 00-.834.358l-1.366 1.636a1 1 0 000 1.277c.382.461.782.971 1.188 1.527a1 1 0 101.616-1.18 40.32 40.32 0 00-.742-.975zm7.061-1.324a.989.989 0 00.283-.041 15.866 15.866 0 004.827-2.348 1 1 0 10-1.172-1.621 13.836 13.836 0 01-4.22 2.05 1 1 0 00.282 1.96zm8.026-5.816a1 1 0 00.826-.435c.282-.411.547-.84.793-1.28h1.4a1 1 0 000-2h-2a1 1 0 00-.89.544 14.716 14.716 0 01-.954 1.607 1 1 0 00.824 1.564zM30.264 6h1.4c.246.44.511.869.793 1.28a1 1 0 101.65-1.129 14.716 14.716 0 01-.954-1.607A1 1 0 0032.264 4h-2a1 1 0 000 2zm10.759 7.489a1 1 0 10.565-1.918A13.863 13.863 0 0137.37 9.52a1 1 0 10-1.17 1.62 15.829 15.829 0 004.823 2.349zm5.26.771h.438c.372 0 .751-.009 1.135-.027l.515.618c-.243.308-.49.633-.74.975a1 1 0 001.616 1.179c.406-.556.806-1.065 1.188-1.526a1 1 0 000-1.278L49.07 12.57a1.008 1.008 0 00-.835-.358c-.515.035-1.021.052-1.514.052H46.3a1 1 0 00-.017 2zm-2.802 24.559a1 1 0 00.986-1.175 30.171 30.171 0 01-.412-3.624 1.002 1.002 0 00-2 .11 32.1 32.1 0 00.44 3.865 1 1 0 00.986.824zm.619 1.703a1 1 0 00-.617 1.272c.43 1.25.98 2.457 1.645 3.6a1 1 0 101.726-1.01 18.367 18.367 0 01-1.482-3.247 1 1 0 00-1.272-.615zm.3-16.603a1 1 0 001.299-.56c.45-1.127.974-2.222 1.568-3.28a1 1 0 00-1.744-.978 29.424 29.424 0 00-1.683 3.52 1 1 0 00.56 1.298zM42.989 31.3h.074a1 1 0 001-.928c.089-1.201.273-2.394.55-3.566a1 1 0 10-1.946-.459 24.751 24.751 0 00-.6 3.88 1 1 0 00.922 1.073zm5.447 18.221l-.736 1.325a40.674 40.674 0 00-1.181-.332 1 1 0 10-.51 1.933c.665.176 1.29.361 1.865.546a1 1 0 001.18-.466l1.523-2.741a1 1 0 00-.234-1.253c-.48-.401-.936-.831-1.365-1.287a1 1 0 10-1.458 1.369c.293.311.598.613.916.906zm-5.336.266a29.993 29.993 0 00-3.492-.358 1.029 1.029 0 00-1.04.958 1 1 0 00.958 1.04c1.092.048 2.18.16 3.258.334a1 1 0 00.316-1.974zm-7.028-.255c-1.184.123-2.356.35-3.5.678a1 1 0 10.559 1.921c1.032-.296 2.087-.5 3.155-.61a1 1 0 10-.21-1.989zM25 11a3 3 0 106 0 3 3 0 00-6 0zm3-1a1 1 0 110 2 1 1 0 010-2z"/></svg>