<svg xmlns="http://www.w3.org/2000/svg" width="19" height="22"><path fill-rule="evenodd" fill="#FFF" d="M18.089 5.718a.386.386 0 01-.564.095.456.456 0 01-.089-.607c.101-.148.201-.29.299-.424l-.208-.268a8.905 8.905 0 01-.459.012h-.177v.002c-.223-.002-.403-.198-.401-.438.002-.24.185-.433.408-.431h.17c.199 0 .404-.007.612-.022a.396.396 0 01.338.155l.552.708a.462.462 0 010 .556c-.155.199-.316.42-.481.662zm-.959.752a.452.452 0 01.159.583c-.24.459-.452.934-.634 1.424a.406.406 0 01-.376.274.365.365 0 01-.149-.031.446.446 0 01-.227-.564c.196-.525.423-1.036.681-1.528a.389.389 0 01.546-.158zm-1.026 3.079a.458.458 0 01.112.424 10.73 10.73 0 00-.223 1.548c-.015.228-.191.404-.404.403h-.03a.394.394 0 01-.276-.15.455.455 0 01-.097-.316c.04-.567.121-1.13.243-1.685a.426.426 0 01.276-.325.383.383 0 01.399.101zm-1.225-5.34a.374.374 0 01-.115-.018 6.232 6.232 0 01-1.95-1.019.446.446 0 01-.179-.401.432.432 0 01.242-.36.383.383 0 01.41.057c.518.399 1.094.7 1.706.89a.437.437 0 01.287.479.414.414 0 01-.401.372zm-3.211-2.516a.396.396 0 01-.367-.197A7.584 7.584 0 0110.98.94h-.566c-.223 0-.404-.195-.404-.434 0-.24.181-.434.404-.434h.809c.151 0 .29.091.359.236.115.241.244.474.386.698a.461.461 0 01.039.438.407.407 0 01-.339.249zM10.542 20.9a.45.45 0 01-.166.587c-.223.127-.437.27-.641.429a.384.384 0 01-.472 0 5.508 5.508 0 00-.641-.429.437.437 0 01-.214-.368.447.447 0 01.19-.384.382.382 0 01.404-.014c.17.099.335.202.497.315a6.47 6.47 0 01.496-.315.39.39 0 01.547.179zM8.583.94h-.566c-.1.191-.207.377-.32.556a.4.4 0 01-.335.189.404.404 0 01-.357-.232.459.459 0 01.024-.447c.142-.224.271-.457.385-.698a.402.402 0 01.36-.236h.809c.223 0 .404.194.404.434 0 .239-.181.434-.404.434zM4.232 4.191a.346.346 0 01-.115.018.414.414 0 01-.401-.372.437.437 0 01.287-.479 5.386 5.386 0 001.706-.89.388.388 0 01.565.098.455.455 0 01-.091.606 6.216 6.216 0 01-1.951 1.019zm-.513 7.597a.397.397 0 01-.277.149h-.03c-.212.001-.388-.175-.404-.403a10.57 10.57 0 00-.221-1.548h.001a.456.456 0 01.117-.415.385.385 0 01.394-.099.423.423 0 01.277.316c.121.554.201 1.117.24 1.685a.454.454 0 01-.097.315zm-.998-3.027a.406.406 0 01-.376-.275 12.451 12.451 0 00-.634-1.425.451.451 0 01.158-.587.39.39 0 01.548.163c.258.493.485 1.003.68 1.529a.46.46 0 01-.042.404.397.397 0 01-.334.191zm-.615-4.233h-.177c-.15 0-.303-.004-.458-.012l-.209.268c.099.135.198.276.3.424a.453.453 0 01-.088.606.386.386 0 01-.565-.094 12.855 12.855 0 00-.481-.663.462.462 0 010-.554l.553-.711a.394.394 0 01.337-.155c.208.015.413.022.612.022h.162c.224-.004.408.187.412.427.004.24-.174.437-.398.442zM1.017 18.847a.385.385 0 01.571-.018c.162.164.17.437.019.612a7.676 7.676 0 01-.371.394l.298.575c.153-.049.312-.097.477-.144a.387.387 0 01.399.107.457.457 0 01.105.427.418.418 0 01-.297.305c-.269.077-.522.157-.754.237a.376.376 0 01-.124.021.399.399 0 01-.353-.223L.37 19.95a.458.458 0 01.095-.544c.195-.174.379-.361.552-.559zm1.001-.639a.452.452 0 01-.145-.593 8.21 8.21 0 00.601-1.41c.074-.226.304-.346.515-.267.21.08.321.326.247.552a9.083 9.083 0 01-.667 1.563.397.397 0 01-.349.215.367.367 0 01-.202-.06zm1.22-3.009a.4.4 0 01-.332-.186.46.46 0 01-.066-.324c.085-.521.141-1.046.167-1.574.015-.238.205-.421.427-.409.223.013.393.218.38.457a14.732 14.732 0 01-.179 1.678.413.413 0 01-.397.358zm.158 4.751c.468-.082.939-.133 1.413-.155v-.001a.398.398 0 01.358.202.46.46 0 01.016.434.402.402 0 01-.341.232c-.442.021-.881.07-1.318.146a.46.46 0 01-.064.005c-.211-.001-.385-.175-.402-.4-.017-.226.131-.427.338-.463zm2.843-.11c.479.054.952.152 1.415.295h.001c.194.06.317.263.288.478a.414.414 0 01-.4.373.398.398 0 01-.114-.017 6.865 6.865 0 00-1.275-.266.41.41 0 01-.327-.255.46.46 0 01.043-.432.392.392 0 01.369-.176zm5.108.294a7.647 7.647 0 011.416-.294h.001c.222-.026.421.147.445.386.023.238-.138.452-.36.477a6.962 6.962 0 00-1.275.265.388.388 0 01-.394-.103.458.458 0 01-.113-.417.424.424 0 01.28-.314zm2.845-.339c.473.022.945.074 1.412.155.208.036.355.238.338.463-.016.225-.191.399-.401.4a.462.462 0 01-.065-.005 10.61 10.61 0 00-1.317-.146c-.223-.01-.396-.211-.387-.451.015-.237.2-.419.42-.416zm1.566-4.606a.415.415 0 01-.399-.358c-.09-.555-.15-1.116-.178-1.678-.012-.24.159-.445.383-.459.223-.012.414.171.426.411.026.528.082 1.053.167 1.574a.46.46 0 01-.066.324.404.404 0 01-.333.186zm.25.739c.211-.079.441.041.515.267.156.49.357.962.599 1.41a.46.46 0 01.006.437.398.398 0 01-.352.221.4.4 0 01-.352-.22 9.03 9.03 0 01-.665-1.563.443.443 0 01.249-.552zm.979 4.338c.165.047.324.095.477.144l.298-.575a7.26 7.26 0 01-.371-.394.457.457 0 01-.093-.423.417.417 0 01.295-.298.388.388 0 01.388.127c.173.198.357.385.552.559a.456.456 0 01.094.544l-.616 1.19a.399.399 0 01-.353.223.376.376 0 01-.124-.021c-.232-.08-.485-.16-.754-.237a.418.418 0 01-.297-.305.459.459 0 01.104-.427.389.389 0 01.4-.107z"/><path fill-rule="evenodd" d="M20.779 6.802c-.63.697-2.681 3.221-2.681 6.53 0 3.033.825 5.032 2.523 6.112.357.229.481.728.282 1.125l-1.547 3.053a.751.751 0 01-.675.43.715.715 0 01-.273-.06c-.704-.311-2.356-.946-4.042-.912-1.312.026-2.644.457-3.566 1.757a.369.369 0 01-.301.162h-.001a.367.367 0 01-.3-.162c-.922-1.3-2.254-1.731-3.565-1.757-1.686-.034-3.338.601-4.043.912a.719.719 0 01-.273.06.75.75 0 01-.675-.43L.095 20.569c-.2-.396-.075-.896.282-1.125 1.698-1.08 2.523-3.079 2.523-6.112C2.9 10.023.849 7.499.22 6.804a.889.889 0 01-.043-1.119L1.715 3.66a.73.73 0 01.684-.292H2.4c.45.065.861.086 1.236.07C6.264 3.33 7.14 1.454 7.406.566c.103-.34.394-.569.72-.567h4.745c.327-.002.618.227.72.567.267.889 1.142 2.764 3.771 2.871.376.016.787-.005 1.237-.07h.001a.726.726 0 01.684.292l1.538 2.025a.887.887 0 01-.043 1.118z"/></svg>