<svg id="Logo_AutoGermania" data-name="Logo AutoGermania" xmlns="http://www.w3.org/2000/svg" width="198" height="47"><defs><style>.cls-3{fill:#ff0b00}</style></defs><g id="flag_lines" data-name="flag lines"><path id="yellow" d="M396 48.989h114v6H396v-6z" transform="translate(-394 -34)" fill-rule="evenodd" fill="#ffd337"/><path id="yellow_copy" data-name="yellow copy" fill="#ffd337" d="M2 17h119v3H2z"/><path id="red" class="cls-3" d="M13 9h63v6H13z"/><path id="red_copy" data-name="red copy" class="cls-3" d="M6 12h100v3H6z"/><path id="black" d="M31 3h41v6H31z"/><path id="black_copy" data-name="black copy" d="M21 6h52v3H21z"/></g><text id="AutoGermania" transform="matrix(.848 0 0 .857 102.499 38.286)" fill="#005ccb" font-size="37.333" text-anchor="middle" font-family="Script MT Bold">Auto<tspan fill="#060759">Germania</tspan></text><path id="halfcar_icon" data-name="halfcar icon" d="M395.938 54c-.627-1.419-1.183-2.659-1.724-3.907a3.405 3.405 0 01.244-2.829c1.085 1.114 2.208.673 3.291.145 2.291-1.117 4.529-2.346 6.848-3.4 2.191-.995 4.446-1.853 6.695-2.714q3.216-1.233 6.48-2.34c1.376-.464 2.792-.816 4.195-1.2 1.184-.324 2.367-.662 3.566-.921 1.393-.3 2.8-.525 4.2-.783.662-.122 1.32-.262 1.984-.366 2.082-.327 4.166-.641 6.248-.96.112-.017.223-.041.334-.049 1.877-.142 3.753-.3 5.63-.42 1.628-.106 3.258-.2 4.889-.25 1.094-.032 2.192.016 3.287.055.9.032 1.8.1 2.695.159 2.159.139 4.33.181 6.472.45a8.911 8.911 0 015.2 2.351c2.409 2.312 4.847 4.6 7.248 6.916a2.045 2.045 0 001.49.613c3.853.094 7.712.123 11.554.386 1.906.131 3.815.18 5.718.327 1.252.1 2.493.344 3.739.524.111.016.222.034.335.047 1.337.141 2.678.251 4.01.431.914.124 1.815.341 2.72.521.824.163 1.653.309 2.469.5.9.217 1.8.456 2.682.731a20.95 20.95 0 015.341 2.407 5.443 5.443 0 012.047 2.506 4.989 4.989 0 01.168.953 4.764 4.764 0 01-.685-.421 14.719 14.719 0 00-4.592-2.9 20.969 20.969 0 00-2.909-.8 62.338 62.338 0 00-2.872-.609 38.032 38.032 0 00-2.245-.369c-1.394-.184-2.8-.3-4.184-.52-2.453-.387-4.938-.282-7.4-.535-.643-.066-1.29-.1-1.937-.124-5.905-.23-11.81-.412-17.72-.45-1.938-.013-3.875-.2-5.811-.338a46.402 46.402 0 01-3.266-.326c-.884-.125-1.756-.34-2.631-.531a26.962 26.962 0 01-1.708-.426c-.4-.113-.778-.275-1.266-.452a1.131 1.131 0 01.942-.218c2.364-.021 4.729 0 7.092-.059.969-.026 1.933-.227 3.051-.368-.285-.507-.5-.884-.708-1.26-.591-1.05-1.163-2.11-1.777-3.146a7.257 7.257 0 00-3.54-2.857 2.326 2.326 0 00-.66-.119 86.641 86.641 0 00-11.633-.344c-2.669.05-5.338.219-8 .425-1.786.138-3.564.413-5.34.667-1.328.19-2.653.41-3.967.68q-2.915.6-5.811 1.289c-2.1.5-4.2.994-6.279 1.58s-4.119 1.233-6.149 1.935c-2.7.934-5.4 1.885-8.049 2.945-2.572 1.027-5.086 2.2-7.624 3.31-.384.168-.76.356-1.137.542-.82.4-.876.565-.679 1.455a3.481 3.481 0 01-.561 2.461zm118.321.984a7.692 7.692 0 01-.887-.046c-.574-.1-1.139-.264-1.715-.35q-2.361-.354-4.729-.66a2.546 2.546 0 01-1.789-.93 16.138 16.138 0 00-1.641-1.546l-.509-.472c3.628-.014 9.711 2.092 11.27 4.007zm-90.245-10.173c-.706-.1-1.285-.16-1.853-.274a.576.576 0 01-.4-.338.6.6 0 01.27-.453 11.116 11.116 0 013.437-1.586 4.878 4.878 0 01-.381.436c-.286.264-.616.485-.877.771-.485.533-.474.568-.196 1.444z" transform="translate(-394 -34)" fill="#005ccb" fill-rule="evenodd"/></svg>