<svg xmlns="http://www.w3.org/2000/svg" width="16" height="15"><path fill="#6b6b6b" d="M7.903 0c.035-.003.287.01.561.025a7.83 7.83 0 011.578.256c1.355.364 2.75 1.197 3.713 2.22a8.193 8.193 0 012.184 4.51c.08.537.08 1.653.003 2.195a8.239 8.239 0 01-1.622 3.892c-.102.135-.22.262-.265.281-.15.071-.267.049-.385-.07-.179-.182-.156-.269.156-.692.143-.196.287-.4.316-.448l.054-.094-.765-.445c-.797-.465-.858-.517-.858-.72 0-.18.21-.355.383-.323.044.01.42.217.832.455l.745.436.134-.28c.341-.72.644-1.94.647-2.598v-.184h-.844c-.689 0-.864-.01-.94-.048-.185-.097-.24-.278-.14-.472.088-.174.178-.19 1.096-.19h.828v-.123c0-.065-.022-.265-.048-.442-.29-2.079-1.434-3.986-3.072-5.128-.194-.139-.233-.155-.271-.112-.022.025-.21.342-.414.706-.204.365-.415.7-.469.749a.315.315 0 01-.538-.23c0-.106.07-.25.414-.855.23-.4.414-.739.414-.754 0-.049-.545-.29-.997-.443-.568-.193-1.495-.37-1.92-.37h-.079v.893c0 .8-.006.904-.057.965-.14.178-.348.19-.504.033l-.108-.11V.702h-.09c-.146 0-.8.087-1.074.146-.73.151-1.861.574-1.82.68.01.026.204.372.434.77.344.605.414.754.414.86 0 .249-.252.394-.487.284-.087-.04-.058.006-.558-.868-.217-.38-.402-.7-.408-.707-.022-.022-.153.058-.411.254a7.505 7.505 0 00-1.553 1.582c-.293.403-.35.31.52.82.42.246.784.477.81.512.063.094.06.314-.01.398a.353.353 0 01-.277.142c-.048 0-.399-.185-.855-.452-.423-.245-.78-.439-.793-.427A7.817 7.817 0 00.733 7.23c-.026.21-.048.404-.048.43 0 .038.133.045.876.045.994 0 1.061.013 1.154.206a.33.33 0 01-.115.43c-.105.074-.125.074-1.01.074H.684v.08c0 .187.074.736.147 1.114.096.484.312 1.158.504 1.572l.143.3.803-.469c.536-.313.835-.467.896-.467.067 0 .13.036.204.11.137.138.15.323.035.45-.038.046-.399.273-.804.507-.401.233-.745.436-.761.453-.035.032.118.277.389.622.175.226.197.271.197.396 0 .198-.127.334-.312.334-.16 0-.242-.068-.481-.384a8.141 8.141 0 01-.753-8.61C1.554 3.128 2.437 2.148 3.72 1.29 4.786.574 6.144.119 7.489.025 7.684.012 7.869 0 7.903 0zm5.826 5.024c-.05.051-.898.627-1.89 1.271L9.763 7.651c-.275.178-.28.184-.246.271.191.507.026 1.146-.414 1.588-.64.648-1.52.652-2.174.013-.564-.552-.666-1.327-.258-1.965a1.768 1.768 0 011.119-.76c.38-.067.864.072 1.176.343l.134.12.2-.129c.109-.068 1.059-.69 2.11-1.379 1.052-.687 1.948-1.262 1.993-1.274.312-.088.548.306.327.545zM8.015 7.483c-.35.004-.523.071-.698.27-.156.182-.204.324-.207.615-.003.335.063.512.264.702.189.178.335.233.64.233.199 0 .275-.016.425-.09.338-.171.488-.455.462-.894-.013-.21-.032-.274-.121-.423-.121-.203-.153-.232-.366-.335-.128-.066-.208-.081-.399-.078zm.032 4.073l2.566.006.159.08c.191.094.43.327.53.52.073.135.076.181.092.982.019.955.003 1.093-.182 1.36-.137.208-.427.41-.647.459-.109.023-.96.035-2.578.035-2.614 0-2.592 0-2.87-.174a1.375 1.375 0 01-.43-.5c-.063-.142-.067-.197-.067-1.068v-.92l.087-.16c.143-.278.417-.513.695-.601.044-.013 1.233-.023 2.645-.02zm-.038.67c-1.339.004-2.464.014-2.5.02a.315.315 0 00-.142.094l-.077.084v1.71l.089.077.09.078h2.54c2.687-.003 2.597.003 2.677-.152.048-.087.054-1.613.007-1.736a.266.266 0 00-.144-.128c-.093-.043-.481-.05-2.54-.046z"/></svg>