<svg xmlns="http://www.w3.org/2000/svg" width="20" height="25"><path fill-rule="evenodd" d="M19.784 6.813c-.193.24-.388.48-.568.734-.668.937-1.2 1.965-1.559 3.108a9.306 9.306 0 00-.408 3.316c.031.577.079 1.151.184 1.718.106.567.26 1.115.486 1.635.377.866.92 1.557 1.642 2.059.041.028.082.056.121.086.294.236.397.662.251 1.038-.026.064-.057.125-.086.186-.417.864-.833 1.728-1.251 2.591l.022.043-.062.041-.063.13c-.033.068-.065.138-.104.201-.176.284-.48.407-.773.316a1.53 1.53 0 01-.154-.06 10.402 10.402 0 00-2.185-.721 6.878 6.878 0 00-1.721-.157 4.566 4.566 0 00-1.611.354 3.81 3.81 0 00-1.589 1.301c-.035.048-.067.1-.106.143-.151.163-.341.165-.494.007-.03-.031-.056-.069-.081-.105-.596-.852-1.374-1.351-2.295-1.57a5.367 5.367 0 00-1.741-.109c-1.057.096-2.07.402-3.056.835-.063.028-.126.058-.191.078-.311.1-.621-.033-.8-.342a2.36 2.36 0 01-.072-.142L.136 20.662a1.104 1.104 0 01-.133-.462c-.007-.314.101-.559.324-.739a.79.79 0 01.069-.049c.906-.618 1.52-1.513 1.893-2.638a8.965 8.965 0 00.363-1.63 13.99 13.99 0 00.109-1.587 9.087 9.087 0 00-.57-3.352A11.256 11.256 0 00.307 6.919C.27 6.873.23 6.83.195 6.783a.927.927 0 01-.044-1.076c.016-.025.033-.048.051-.073.464-.64.929-1.281 1.392-1.925.131-.181.287-.31.493-.339a.868.868 0 01.222.003c.412.057.825.083 1.239.059a4.08 4.08 0 001.256-.265c1.07-.42 1.797-1.246 2.204-2.453.024-.073.042-.149.071-.219.12-.292.316-.461.599-.489.067-.007.135-.006.203-.006h4.233c.068 0 .137-.001.204.005.282.026.48.194.602.484.02.049.033.102.05.153.462 1.431 1.345 2.311 2.632 2.655.58.156 1.169.174 1.76.111l.364-.044a.668.668 0 01.595.236c.034.037.064.08.094.122l1.368 1.89c.026.036.052.072.076.11a.849.849 0 01.14.472c0 .261-.08.451-.215.619zM.84 20.085c-.033.023-.063.053-.09.075.002.03 0 .047.006.059.474.983.95 1.965 1.425 2.946.003.007.01.01.016.014s.013.006.027.013a.588.588 0 00.068-.025c.454-.206.917-.368 1.385-.506L1.876 19.09a5.263 5.263 0 01-1.036.995zm1.532-1.699l.031-.021 2.075 4.115c.308-.064.612-.145.926-.18a6.744 6.744 0 011.523.009l-3.561-7.064c-.061.477-.14.949-.265 1.411a7.037 7.037 0 01-.729 1.73zm-.77-13.387C1.214 5.533.8 6.123.746 6.229l.136.169a12.15 12.15 0 012.123 3.905 9.65 9.65 0 01.48 2.836c.003.195-.015.388-.019.582l.018-.012 4.439 8.803a4.4 4.4 0 011.986 1.313c.028.033.06.06.087.087.015-.008.022-.009.027-.014.045-.048.09-.094.134-.143.192-.212.398-.4.616-.567L1.602 4.999zm2.986-.929a5.324 5.324 0 01-1.879.185c-.088-.007-.176-.016-.264-.025l-.25-.024 9.34 18.525a4.872 4.872 0 011.587-.452c.214-.024.426-.015.639-.016L4.588 4.07zm2.501-1.84a4.273 4.273 0 01-1.742 1.575l9.332 18.509c.184.022.369.034.552.068a10.97 10.97 0 012.399.755L7.089 2.23zM7.743.856l-.08.227c-.035.097-.086.176-.124.269l10.633 21.09c.421-.856 1.033-2.138 1.076-2.271-.002-.007-.004-.016-.009-.02-.056-.044-.112-.089-.169-.131-.741-.546-1.319-1.266-1.734-2.16a8.291 8.291 0 01-.599-1.91 12.464 12.464 0 01-.194-1.799l-.012.008L9.81.827C8.793.832 7.825.842 7.743.856zm7.005 2.966c-.521-.237-1.009-.545-1.42-1.012a5.172 5.172 0 01-.999-1.749c-.027-.077-.035-.168-.097-.224a45.202 45.202 0 00-1.531-.012l5.857 11.616c.071-.782.235-1.54.482-2.274.118-.349.251-.687.396-1.016l-.001.001-2.687-5.33zm3.064.378l-.499.048a5.328 5.328 0 01-1.497-.078l2.062 4.091c.358-.656.768-1.272 1.231-1.849l.163-.201c-.492-.677-.975-1.349-1.46-2.011z"/></svg>