<svg xmlns="http://www.w3.org/2000/svg" width="19" height="27"><path fill-rule="evenodd" d="M15.798 7.639h2.104c.605 0 1.098-.497 1.098-1.109V1.107c0-.611-.493-1.108-1.098-1.108h-2.103c-.606 0-1.098.497-1.098 1.108v2.191h-3.382A1.896 1.896 0 009.5 1.909c-.865 0-1.595.588-1.82 1.389H4.298V1.107c0-.611-.492-1.108-1.097-1.108H1.097c-.605 0-1.098.497-1.098 1.108V6.53c0 .612.493 1.109 1.098 1.109h2.104c.605 0 1.097-.497 1.097-1.109V4.34H7.68a1.908 1.908 0 001.304 1.316v8.674c-.802.293-1.376 1.262-1.376 2.444s.574 2.15 1.376 2.445v2.123a1.908 1.908 0 00-1.304 1.316H4.298v-2.191c0-.611-.492-1.108-1.097-1.108H1.097c-.605 0-1.098.497-1.098 1.108v5.424c0 .611.493 1.108 1.098 1.108h2.104c.605 0 1.097-.497 1.097-1.108V23.7H7.68c.225.8.955 1.389 1.82 1.389.864 0 1.594-.589 1.819-1.389h3.382v2.191c0 .611.492 1.108 1.097 1.108h2.104c.605 0 1.097-.497 1.097-1.108v-5.424c0-.611-.492-1.108-1.097-1.108h-2.104c-.605 0-1.097.497-1.097 1.108v2.191h-3.382a1.91 1.91 0 00-1.304-1.316v-2.123c.803-.295 1.376-1.263 1.376-2.445 0-1.181-.573-2.15-1.376-2.444V5.656a1.91 1.91 0 001.304-1.316h3.382v2.19c0 .612.492 1.109 1.097 1.109zM3.266 6.53a.066.066 0 01-.065.067H1.097a.067.067 0 01-.066-.067V1.107c0-.036.03-.066.066-.066h2.104c.036 0 .065.03.065.066V6.53zm7.093 16.649a.865.865 0 01-.859.868.865.865 0 01-.86-.868c0-.479.386-.868.86-.868.473 0 .859.389.859.868zM9.5 18.27c-.407 0-.86-.615-.86-1.496s.453-1.495.86-1.495c.406 0 .859.614.859 1.495 0 .881-.453 1.496-.859 1.496zm0-13.583a.866.866 0 01-.86-.868c0-.479.386-.868.86-.868.473 0 .859.389.859.868a.865.865 0 01-.859.868zm6.233-3.58c0-.036.029-.066.065-.066h2.104c.037 0 .066.03.066.066V6.53c0 .037-.03.067-.066.067h-2.104a.066.066 0 01-.065-.067V1.107z"/></svg>