<svg xmlns="http://www.w3.org/2000/svg" width="92" height="92"><path fill="#005ccb" d="M29.841 92c-.35-.06-.699-.125-1.049-.18-2.218-.359-4.106-1.355-5.69-2.933-5.79-5.773-11.577-11.548-17.366-17.321L3.084 68.92C1.36 67.202.314 65.136.065 62.72c-.322-3.15.544-5.958 2.759-8.256 2.175-2.258 4.43-4.44 6.651-6.654.042-.043.09-.078.133-.114.303.174 10.264 10.05 10.98 10.891-.11.12-.222.25-.343.371-1.789 1.786-3.575 3.573-5.37 5.352-.357.354-.569.757-.544 1.265.018.368.15.696.414.96a3801.36 3801.36 0 004.925 4.912c.05.049.117.081.215.146.061-.145.119-.257.16-.377.192-.561.355-1.133.573-1.683 1.452-3.659 4.121-5.883 7.99-6.626 3.152-.605 6.317-1.147 9.475-1.72.166-.03.39-.028.397-.273.007-.256.114-.545-.174-.733-.062-.04-.127-.078-.19-.116-3.497-2.212-5.744-5.319-6.703-9.339-.075-.313-.196-.46-.517-.558-2.25-.692-3.662-2.189-4.194-4.482a5.355 5.355 0 01-.127-1.19c-.009-3.549-.085-7.1.012-10.645.185-6.747 3.137-12.042 8.722-15.845 2.474-1.686 5.24-2.67 8.213-3.016a19.297 19.297 0 0121.23 15.071c.285 1.34.431 2.693.43 4.063-.002 5.924 0 11.847-.001 17.77-.001 2.065-1.341 3.791-3.35 4.296-.356.09-.733.13-1.101.138-.878.02-1.757.013-2.635.002a.642.642 0 00-.568.267c-1.093 1.394-2.389 2.569-3.914 3.473-.44.26-.307.61-.306 1.029.316.063.63.132.945.19 3.1.565 6.215 1.055 9.295 1.711 3.712.79 6.299 3.03 7.596 6.586 1.215 3.328 2.27 6.716 3.392 10.079.037.109.051.225.091.407h-31.82c.194.403.486.59.71.831.221.24.46.465.692.696l.76.762c-.128.133-.23.253-.344.359l-6.451 5.896c-.176.161-.35.324-.523.487-1.723 1.628-3.76 2.572-6.126 2.801-.146.014-.289.063-.433.096h-1.25zm4.178-20.55c.15.145.28.263.404.388 1.653 1.648 3.311 3.288 4.95 4.95.305.308.613.44 1.052.439 9.82-.011 19.642-.01 29.463-.01.134 0 .268.008.401-.004.097-.009.192-.043.31-.071-.026-.128-.036-.229-.067-.324-.698-2.095-1.347-4.207-2.112-6.278-.931-2.524-2.78-4.088-5.394-4.724-.85-.206-1.723-.322-2.586-.478-2.543-.462-5.088-.918-7.629-1.392-.34-.063-.576-.01-.83.248-1.892 1.91-3.802 3.804-5.707 5.703-.123.124-.252.24-.398.38-.156-.15-.286-.269-.41-.393l-5.367-5.353c-.68-.678-.678-.671-1.615-.5-3.069.56-6.14 1.11-9.208 1.673-2.973.544-5.001 2.22-6.034 5.06-.334.92-.611 1.86-.937 2.784-.103.29-.072.487.155.707a128.71 128.71 0 012.84 2.835c.708.734 1.7.707 2.415.046 1.955-1.804 3.944-3.571 5.92-5.352.119-.108.241-.21.383-.333zm11.86-40.847c.227.22.442.42.649.627.986.99 1.967 1.984 3.113 2.797 2.274 1.615 4.784 2.634 7.56 2.945.987.11 1.988.108 2.982.16.17.009.341.024.549.04v1.602c.284.106.535.195.782.293.24.095.475.2.749.317.013-.187.029-.304.029-.421 0-1.722.02-3.443-.01-5.165a15.805 15.805 0 00-.211-2.39c-.637-3.692-2.32-6.847-5.109-9.356-3.97-3.573-8.644-4.934-13.914-4.072-3.496.572-6.49 2.191-8.947 4.741-3.008 3.12-4.556 6.864-4.635 11.196-.03 1.661-.007 3.324-.007 4.987 0 .143.016.285.027.48.539-.22 1.026-.417 1.566-.635v-1.618c.296 0 .533.012.769-.001 1.023-.056 2.058-.045 3.069-.193 3.585-.522 6.668-2.082 9.248-4.623.466-.458.925-.923 1.39-1.385.104-.103.214-.2.351-.326zm.084 22.85h.552c3.08 0 6.16-.002 9.241.003.268 0 .474-.028.621-.307.876-1.651 1.415-3.399 1.437-5.272.03-2.509.012-5.017.012-7.526 0-.116-.02-.23-.035-.402-2.23-.19-4.37-.704-6.41-1.61-2.039-.905-3.859-2.143-5.503-3.675-3.39 3.153-7.357 4.897-11.931 5.292-.01.196-.023.342-.023.487l.003 7.17c0 .88.121 1.745.324 2.599 1.5 6.303 7.88 10.4 14.391 8.85a11.79 11.79 0 004.718-2.328c.115-.093.285-.161.267-.4h-5.142c-.417 0-.833.005-1.25-.002-.423-.008-.852.036-1.272-.03v-2.85zM5.894 55.508c-.031.018-.076.033-.106.062-.287.28-.583.553-.854.848-1.684 1.838-2.344 3.988-1.93 6.449.269 1.588 1.027 2.92 2.165 4.055 6.634 6.611 13.263 13.227 19.894 19.84.158.157.315.318.485.46 2.124 1.772 4.516 2.286 7.179 1.514 1.551-.45 2.727-1.454 3.82-2.579L29.66 79.29c-.027.022-.11.082-.188.148-1.828 1.57-4.39 1.493-6.099-.206-3.542-3.52-7.065-7.06-10.614-10.576-1.681-1.663-1.753-4.417-.182-6.129.066-.071.115-.16.147-.205l-6.83-6.813zm30.652 30.65l.01.008a.529.529 0 01.002-.02 12.55 12.55 0 01-.012.011zm.015-.016c.012-.016.01-.039 0 0zm-4.573-8.978l6.895 6.882c.597-.559 1.284-1.113 1.879-1.757-.593-.73-6.57-6.633-6.904-6.811l-1.87 1.686zm-15.592-18.54l-6.781-6.767-1.537 1.573c.235.342 6.514 6.58 6.774 6.727l1.544-1.534zm25.028 3.03c.666.832 1.436 1.538 2.17 2.278.748.754 1.496 1.51 2.29 2.275 1.493-1.491 2.94-2.939 4.386-4.388.034-.035.04-.099.088-.23-3.006.897-5.96.887-8.934.065zm18.062-8.201c.374 0 .654 0 .933-.002.178 0 .358.009.534-.014a1.524 1.524 0 001.334-1.485c.017-.68.006-1.36.004-2.041 0-.083-.026-.167-.047-.3-.165.07-.295.13-.427.182-.33.133-.652.294-.994.382-.288.075-.396.225-.47.5-.207.754-.455 1.497-.688 2.244-.047.152-.1.301-.179.534zM60.772 41.9c-.03.152-.052.208-.052.263-.002 1.54-.002 3.08-.001 4.621 0 .057.017.115.03.173.002.01.016.023.026.03.012.009.027.014.04.02.872-.375 1.507-1.462 1.472-2.584-.033-1.081-.534-1.9-1.515-2.523zm-29.769 5.14v-5.046c-.735.198-1.449 1.252-1.535 2.234-.1 1.147.533 2.35 1.535 2.812zM92 16.636c-.037.111-.094.22-.108.334-.226 1.81-1.72 3.363-3.531 3.647-.336.053-.68.077-1.021.08-1.13.01-2.262.013-3.394-.002a1.478 1.478 0 00-.833.245c-4.45 2.78-8.905 5.555-13.359 8.33-.136.085-.276.164-.477.282 0-.15-.014-.245.001-.335.46-2.659.922-5.317 1.38-7.977.027-.156.028-.317.044-.516-.198-.01-.357-.022-.516-.022-1.176-.002-2.352.008-3.528-.004-1.871-.02-3.544-1.226-4.116-3.002a4.853 4.853 0 01-.238-1.44 1857.37 1857.37 0 01-.009-11.803c.004-2.512 1.96-4.451 4.484-4.451 6.936-.003 13.872-.003 20.808 0a4.409 4.409 0 014.191 3.094c.056.182.066.377.11.565.025.11.074.217.112.325v12.65zm-18.812 7.061c.244-.137.396-.216.54-.306 2.865-1.784 5.728-3.568 8.589-5.358.235-.146.468-.22.749-.218 1.414.01 2.827.006 4.24.003.193 0 .391 0 .577-.043.75-.172 1.215-.841 1.211-1.648-.019-3.83-.028-7.658.005-11.488.009-1.062-.728-1.847-1.768-1.756-.06.005-.12.002-.179.002H67.108c-.149 0-.298-.004-.446.003a1.535 1.535 0 00-1.475 1.452c-.009.133-.006.267-.006.4v11.222c0 .147-.004.297.01.445a1.499 1.499 0 001.086 1.328c.224.063.468.08.703.08 2.188.007 4.375.005 6.562.005h.578c-.014.206-.01.365-.037.519-.25 1.46-.508 2.92-.759 4.381-.05.286-.08.577-.136.977zM5.196 42.021L.01 33.398l2.475-1.482 2.76 4.574.097-.016c.329-1.126.625-2.262.996-3.374.38-1.138.798-2.267 1.267-3.372.464-1.09.976-2.165 1.533-3.212a40.66 40.66 0 013.895-6.007 42.695 42.695 0 012.34-2.748 40.619 40.619 0 012.535-2.507 41.877 41.877 0 018.834-6.14 40.438 40.438 0 013.233-1.5 42.29 42.29 0 016.833-2.158 41.515 41.515 0 013.554-.63 42.484 42.484 0 013.553-.309 42.571 42.571 0 013.614-.028c1.187.045 2.375.153 3.554.301 1.193.151 2.38.359 3.561.59a28.3 28.3 0 013.494.916c-.22.933-.538 1.815-.82 2.726-9.03-2.621-17.879-2.257-26.526 1.376-6.804 2.857-12.32 7.353-16.588 13.36-2.634 3.707-5.695 10.496-5.835 12.9.18.047.301-.084.43-.16 1.035-.615 2.067-1.236 3.1-1.852.138-.083.28-.158.463-.26l1.479 2.46-8.645 5.175zm86.041-9.18l-1.47 2.452c-.142-.072-.27-.13-.391-.202-1.175-.7-2.348-1.402-3.523-2.103-.123-.074-.253-.138-.413-.223.432 1.73.878 3.396 1.26 5.078.383 1.694.587 3.42.707 5.152a40.97 40.97 0 01.04 5.206 43.666 43.666 0 01-.603 5.166 41.66 41.66 0 01-3.095 9.866 40.837 40.837 0 01-2.458 4.588c-.915 1.473-1.902 2.894-3.044 4.268l-2.222-1.8c5.443-6.912 8.354-14.71 8.585-23.472.12-4.534-.573-8.947-2.074-13.354-.142.194-.23.3-.3.416-.69 1.143-1.378 2.289-2.067 3.433-.084.138-.175.272-.293.454l-2.467-1.47 5.186-8.625 8.642 5.17zM85.979 5.985v2.777c-.171.014-.328.042-.485.042-5.576.002-11.153.002-16.729 0-.145 0-.29-.018-.478-.03-.052-.938-.02-1.847-.024-2.789H85.98zm-5.987 8.74H68.29c-.056-.94-.03-1.865-.014-2.827.177-.012.321-.031.465-.031 3.614-.002 7.227-.002 10.84-.001.09 0 .179 0 .268.005.14.007.227.08.226.222-.004.843-.013 1.688-.023 2.532 0 .026-.029.05-.059.1zm5.989-2.844v2.838c-.928.06-1.839.02-2.735.027-.122-.404-.13-2.41-.01-2.876.894-.005 1.806-.015 2.745.01z"/></svg>