<svg xmlns="http://www.w3.org/2000/svg" width="191" height="92"><path fill="#005ccb" d="M115.504 58.244c.216-.074.41-.285.62-.292.941-.03 1.884-.014 2.827-.003.123.001.336.044.354.11.119.431.473.297.752.349.216.04.47.04.634.157.285.203.509.49.766.732.565.534 1.21 1.003 1.676 1.61.317.413.687.914.535 1.544-.018.075.035.232.086.248.447.131.333.508.357.807.028.344-.058.707.023 1.032.256 1.018-.623 1.796-.547 2.766.004.043-.049.096-.085.135-.246.26-.62.478-.717.784-.216.678-.61 1.078-1.274 1.302-.272.092-.639.28-.707.504-.104.334-.283.32-.526.374-.185.04-.35.176-.523.27.179.062.357.178.536.179 5.003.012 10.006.013 15.009.015l1.885.001c0-1.262-.004-2.445.004-3.63a2.07 2.07 0 01.096-.557c.08-.273.267-.538.27-.808.049-3.528.072-7.055.107-10.582.002-.188.034-.38.082-.562.086-.334.277-.66.281-.992.046-3.317.061-6.634.09-9.951.001-.188-.025-.46.082-.549.378-.316.3-.721.304-1.11.034-3.145.028-6.29.109-9.432.03-1.168.295-2.326.383-3.495.072-.953.01-1.916.059-2.873.05-.978-.293-2.04.613-2.87h6.425l.674.663c0 1.547-.01 3.234.012 4.92.003.23.174.458.25.692.053.157.098.323.11.488.314 3.994-.129 7.997.422 12.007.57 4.156-.03 8.388.51 12.588.49 3.813-.241 7.708.51 11.534.139.706.079 1.452.091 2.18.013.76.003 1.522.003 2.284h3.832V34.087c.172-.081.372-.11.425-.212.275-.538.64-.917 1.291-.922.067-.001.135-.056.202-.086.237-.107.473-.31.71-.31 5.87-.013 11.739-.005 17.608.003.147 0 .381-.007.428.074.24.41.628.31.977.33.499.03 1 .032 1.5.052.13.007.347.007.373.071.203.493.636.313.987.372.18.03.495.047.512.124.095.413.424.302.678.375.23.068.464.15.671.266.477.27.938.565 1.406.85.141.012.153.2.252.275.465.351.957.666 1.432 1.004.235.167.485.331.674.544.266.302.487.646.72.977.195.278.338.608.58.836.357.335.724.64.825 1.153.023.116.103.22.164.327.09.156.195.303.28.461.114.209.214.424.32.637.17.248.21.552.3.839.111.364.267.713.394 1.073.038.106.007.294.067.324.451.218.258.679.413.988.294.585.54 1.162.514 1.826-.001.022.064.04.082.068.114.182.27.353.326.551.197.71.358 1.427.537 2.14.013.051.058.123.098.13.43.073.315.42.338.68.066.728.717 1.292.587 2.075-.005.03.088.066.116.112.09.144.208.285.251.445.198.727.372 1.462.56 2.193.012.051.067.091.09.141.113.234.232.467.327.708.047.12.01.345.075.373.452.19.376.583.376.928.003 6.596.001 13.192-.003 19.788 0 .268.074.621-.064.788-.532.639-.312 1.385-.403 2.084-.02.15-.024.405-.09.424-.493.143-.326.54-.368.855-.025.188.003.533-.052.545-.57.126-.33.653-.508.989h-13.907c0-.792.004-1.554-.003-2.315-.002-.169.01-.443-.077-.488-.478-.246-.303-.686-.389-1.055-.142-.607-.33-1.203-.504-1.804-.009-.03-.056-.048-.076-.079-.276-.422-.556-.842-.823-1.27-.216-.346-.363-.75-.635-1.042-.38-.407-.909-.681-1.264-1.105-.37-.441-.698-.864-1.324-.903-.05-.004-.138-.05-.139-.08-.014-.446-.382-.323-.627-.395-.091-.026-.254-.036-.264-.08-.152-.7-1.134-.155-1.275-.852-.583.006-1.119-.281-1.649-.358-1.224-.178-2.488-.083-3.736-.095-.036-.001-.09.008-.107.032-.37.514-.928.34-1.424.399-.167.02-.465.048-.474.108-.072.46-.437.334-.707.398-.107.027-.228.04-.316.099-.406.272-.803.56-1.205.84-.21.148-.42.298-.635.44-.342.226-.794.375-1.006.687-.363.535-.994.855-1.158 1.57-.07.306-.479.535-.776.843-.04.194-.045.67-.164.7-.47.12-.307.46-.37.726-.03.123-.073.243-.124.359-.114.256-.289.498-.346.765-.093.427-.091.873-.164 1.305-.073.435-.209.862-.279 1.298a2.654 2.654 0 00-.002.802c.073.471-.113.588-.567.588-18.473-.008-36.946-.008-55.42-.01-.26 0-.52-.033-.835-.054 0-1.099.06-2.136-.022-3.164-.052-.662-.31-1.31-.48-1.964-.008-.031-.057-.051-.077-.082-.128-.205-.251-.415-.382-.619-.08-.126-.175-.245-.26-.369-.075-.11-.174-.214-.213-.336-.08-.247.03-.548-.39-.65-.217-.053-.376-.363-.551-.566-.267-.307-.517-.631-.789-.935-.323-.359-.734-.63-1.083-.939-.44-.388-.752-.867-1.412-.876-.04 0-.073-.079-.118-.109-.181-.122-.358-.255-.552-.352-.13-.065-.293-.061-.433-.113-.334-.125-.655-.286-.995-.39-.234-.072-.58.013-.719-.127-.383-.387-.841-.32-1.287-.328-.807-.015-1.622-.057-2.422.024-.728.074-1.442.296-2.16.46-.047.01-.073.091-.12.115-.242.123-.48.25-.732.35-.175.067-.44.029-.541.145-.38.437-.797.773-1.392.849-.055.007-.105.087-.148.141-.197.246-.343.575-.596.72-.404.23-.742.475-.963.895-.116.221-.284.458-.492.579-.502.29-.869.637-.88 1.256 0 .064-.054.177-.094.184-.432.057-.317.4-.361.661-.015.092-.017.248-.063.263-.547.188-.376.67-.45 1.05-.026.13-.006.345-.074.377-.543.25-.384.74-.397 1.146-.028.894-.009 1.791-.009 2.713H70.73c0-.35-.048-.663.008-.956.238-1.245-.49-2.347-.504-3.551 0-.052-.03-.143-.061-.15-.448-.101-.337-.484-.413-.777a1.15 1.15 0 00-.166-.328c-.253-.381-.563-.734-.751-1.142-.124-.27-.031-.594-.45-.741-.229-.08-.366-.42-.545-.643-.2-.248-.375-.521-.602-.74a7.753 7.753 0 00-.971-.8 6.913 6.913 0 00-1.108-.639c-.504-.225-1.034-.395-1.552-.588-.017-.007-.042-.018-.046-.031-.137-.543-.591-.34-.936-.398-.202-.033-.406-.066-.601-.126-.297-.091-.58-.27-.88-.299-.554-.052-1.127.047-1.67-.044-1.191-.2-2.206.522-3.356.582-.302.014-.887.251-1.118.493-.303.318-.582.385-.942.43-.047.005-.097.048-.13.089-.329.38-.62.81-1.197.846a.297.297 0 00-.19.097c-.224.262-.404.573-.664.791-.42.353-.887.649-.91 1.276 0 .034-.02.08-.045.099-.504.328-.887.727-.882 1.38 0 .05-.106.094-.145.153-.111.168-.243.332-.31.518-.076.213-.011.552-.146.652-.498.369-.335.878-.391 1.345-.022.189.014.434-.09.557-.44.513-.297 1.118-.33 1.695-.016.317-.002.636-.002.927H.496c0-1.901-.003-3.733.003-5.566 0-.388.22-.55.61-.6.696-.09 1.49.27 2.065-.433.052-.061.222-.033.337-.036.365-.01.73-.01 1.096-.024.21-.008.558.03.606-.068.28-.573.787-.344 1.208-.399.398-.053.939.068 1.166-.15.324-.308.636-.277.976-.3.441-.029.886-.009 1.327-.035.206-.013.525-.022.59-.141.207-.384.543-.301.845-.326.42-.033.845-.023 1.268-.043.131-.005.36-.02.376-.076.143-.522.574-.335.9-.386.373-.06.754-.072 1.122-.148.36-.076.702-.236 1.062-.307.356-.068.88.07 1.057-.127.434-.485.94-.308 1.424-.361.343-.038.87.088 1.002-.09.432-.585 1-.302 1.505-.394.336-.063.677-.101 1.006-.185.198-.05.37-.215.567-.249.691-.12 1.476.19 2.05-.465.037-.04.148-.015.224-.025.861-.102 1.806.133 2.545-.754 0-.13-.003-.397 0-.664.02-1.956.04-3.91.069-5.867.002-.182.063-.367.114-.545.08-.28.25-.554.254-.83.044-3.49.062-6.98.095-10.47a2.74 2.74 0 01.115-.662c.075-.281.25-.554.255-.832.041-2.799.044-5.598.085-8.397.014-.964.08-1.908.326-2.874.25-.976.086-2.056.102-3.092.043-2.624-.046-5.262.184-7.87.108-1.22.244-2.443.306-3.67.01-.192.01-.384.022-.576.018-.294.567-.841.861-.842 1.193-.006 2.386.002 3.58-.005.496-.003.777.432.804.717.121 1.299.254 2.595.404 3.892.44 3.808-.227 7.67.494 11.48.173.912.082 1.873.128 2.81.15 3.046-.268 6.11.344 9.145.15.742.103 1.528.111 2.294.03 2.78.044 5.56.071 8.34.002.204.045.411.1.607.079.278.264.546.269.82.039 2.205.045 4.41.062 6.616v.71h.953c4.098 0 8.197 0 12.296-.002.654 0 1.31.023 1.961-.023.218-.015.411-.26.636-.31.466-.106.608-.78 1.215-.653.092.02.245-.245.394-.405.212-.03.64.015.71-.122.257-.496.684-.314 1.048-.381.15-.027.387.01.439-.074.32-.513.828-.397 1.287-.415.788-.031 1.578-.025 2.366-.052.223-.008.445-.073.687-.115-.677-.988-1.019-1.978-1.004-3.08-1.009-1.084.543-2.073.117-3.135.553-.867 1.122-1.694 1.84-2.468.75-.808 1.708-1.127 2.576-1.505.846-.37 1.95-.188 2.94-.18.956.006 1.747.6 2.534 1.009.754.391 1.312 1.194 1.896 1.866.61.705.571 1.694.98 2.498.583 1.143-.09 2.2-.324 3.264-.214.976-.88 1.746-1.605 2.446-.75.724-1.46 1.49-2.622 1.619.226.14.422.208.618.208 3.155.004 6.311.001 9.467-.005.126 0 .357-.034.364-.08.07-.44.422-.353.701-.416.086-.019.165-.075.24-.123.42-.262.806-.635 1.262-.766.647-.186 1.208-.697 1.948-.56.048.01.143-.023.154-.058.164-.483.586-.356.917-.36 1.577-.017 3.158-.062 4.731.017.72.036 1.425.333 2.136.515.03.008.047.06.079.076.245.114.492.225.739.334l1.439.645c.014.006.017.034.03.046.466.4.897.868 1.607.747.074-.012.153 0 .23 0 6.716 0 13.431 0 20.147-.003.237 0 .474-.04.711-.063a5.02 5.02 0 00.043-.176c-.134-.068-.261-.158-.403-.198-.163-.046-.474-.018-.488-.076-.134-.571-.618-.367-.79-.416l-1.705-1.67c-.146-.44-.331-1.001-.524-1.56-.014-.04-.104-.05-.135-.09-.098-.13-.261-.268-.263-.406-.017-1.206-.008-2.414.003-3.622.001-.12.055-.335.11-.344.4-.061.314-.367.351-.614.017-.112.028-.316.059-.318.627-.067.281-.613.501-.84a7.964 7.964 0 012.415-1.99c.301-.075.609-.133.902-.234zm38.992 12.582c.85 0 1.675.057 2.485-.028.302-.033.572-.394.847-.617.048-.039.066-.194.073-.193.614.144.883-.572 1.447-.57.158 0 .32-.141.475-.225.047-.025.074-.101.122-.114.727-.203 1.448-.53 2.185-.57 1.63-.086 3.269-.043 4.903-.012.286.005.565.224.854.324.191.066.394.1.592.147.333.079.797-.165.944.39.013.047.21.052.322.063.27.028.557-.055.655.369.026.11.474.122.714.176.27.26.518.7.821.743.505.07.74.444 1.099.662.265.162.445.458.675.681.263.256.568.476.804.754.238.281.406.619.616.924.239.344.488.68.739 1.016.029.038.125.04.138.078.121.357.254.682.458 1.023.388.646.442 1.492.637 2.255.032.126.052.341.118.358.423.107.297.446.313.704.025.398.007.801.007 1.256h10.31c.773-1.235.52-2.628.88-3.855.497-1.695.262-3.363.286-5.036.067-4.58.038-9.162.023-13.743 0-.28-.212-.555-.31-.839-.061-.176-.09-.362-.138-.544-.087-.332.13-.788-.422-.941-.073-.02-.057-.353-.085-.54-.048-.316.095-.705-.368-.862-.064-.022-.053-.243-.087-.367-.102-.374.213-.911-.437-1.083-.052-.013-.029-.285-.052-.436-.052-.345.146-.8-.403-.94-.033-.009-.065-.1-.062-.153.027-.426-.181-.748-.36-1.125-.323-.681-.433-1.463-.647-2.198-.042-.143-.149-.268-.237-.393-.04-.058-.16-.099-.157-.14.055-.688-.33-1.249-.53-1.863-.104-.321.162-.796-.418-.923-.05-.01-.035-.285-.066-.433-.073-.345.194-.84-.414-.956-.014-.002-.033-.032-.032-.045.042-.501-.21-.888-.452-1.3-.306-.518-.52-1.07-.95-1.536-.44-.48-.703-1.12-1.09-1.657-.188-.26-.46-.475-.732-.653-.33-.216-.724-.34-1.046-.567-.244-.172-.42-.443-.622-.674-.036-.041-.039-.128-.078-.144-.488-.204-.982-.392-1.468-.597-.154-.065-.282-.187-.435-.254a2.85 2.85 0 00-.61-.21c-.44-.083-.959.148-1.28-.41-.064-.113-.433-.07-.662-.07-4.636-.015-9.272-.03-13.908-.036-1.865-.002-3.73.02-5.596.033-.112.002-.224.025-.388.043v35.853zm-40.75-7.977c-.099.15-.177.343-.182.52-.02.708-.033 1.418.008 2.124.01.198.213.386.323.581.052.092.132.187.136.285.03.78.807.998 1.163 1.533.051.077.252.058.385.08.112.018.272-.015.333.049.764.807 1.721.336 2.595.406.297-.513.94-.42 1.378-.787.444-.37.689-.95 1.248-1.179.015-.006.037-.029.035-.04-.144-.87.75-1.533.49-2.422-.152-.526-.276-1.068-.495-1.567-.113-.259-.395-.451-.618-.655-.239-.218-.494-.419-.748-.62a4.14 4.14 0 00-.476-.336 5.928 5.928 0 00-.606-.304c-.134-.058-.278-.123-.422-.133a10.51 10.51 0 00-1.094-.018c-.32.013-.692-.112-.89.324-.041.093-.323.06-.477.127-.146.062-.26.195-.405.266-.255.126-.523.227-.785.339l.085.04c-.329.46-.668.915-.98 1.387zm-50.224 4.81c.14.115.29.247.457.296.241.073.554-.018.613.369.006.042.165.088.254.089.728.006 1.551.21 2.152-.067.43-.197 1.072-.187 1.376-.758.138-.26.528-.385.79-.588.06-.046.054-.171.097-.25.119-.215.254-.423.37-.639.058-.11.123-.236.124-.355.01-.896.014-1.795-.009-2.691-.003-.132-.15-.263-.236-.39-.059-.088-.17-.162-.185-.254-.092-.566-.449-.863-.923-1.164-1-.633-1.707-.939-2.76-.886-.293.015-.578.187-.87.28-.179.06-.36.144-.544.152-.578.026-.773.634-1.187.793-.625.238-.254 1.073-.895 1.225-.046.01-.055.246-.055.378-.005.84-.016 1.682.007 2.522.004.142.176.273.243.42.118.257.216.525.323.789.271.232.56.487.858.73zm80.898-32.764c.258-.001.806-.595.807-.89.007-1.473.006-2.945-.007-4.418-.004-.354-.536-.845-.895-.847-.96-.008-1.92-.008-2.88-.003-.331.001-.902.54-.903.86-.007 1.415-.013 2.83.007 4.245.002.172.16.344.25.514.084.159.174.314.3.542 1.097 0 2.21.004 3.321-.003zm.806 5.798c.02-.784-.004-1.571.004-2.355.013-1.128-.309-1.455-1.447-1.447-.845.007-1.69.014-2.537.024-.055 0-.11.022-.162.033-1.01 1.659-.364 3.481-.535 5.22-.01.095.055.214.118.296.133.175.287.334.511.587h3.463c.822-.663.564-1.545.585-2.358zm-.766 10.516c.287-.003.773-.58.773-.908.003-1.377-.018-2.755.006-4.13.01-.555-.283-.716-.754-.786-.442-.065-.876-.184-1.316-.266a1.26 1.26 0 00-.457-.022c-.517.09-1.082.106-1.527.34-.303.16-.598.628-.617.974-.073 1.277-.038 2.56-.02 3.842.002.144.15.288.232.43l.305.529c1.111 0 2.243.005 3.375-.003zm-3.918 5.885c-.024.227.034.466-.01.688-.125.612.144 1.082.566 1.564 1.102 0 2.275.047 3.44-.037.248-.017.648-.496.661-.777.066-1.434.026-2.871.026-4.307 0-.43-.24-.642-.639-.647-1.189-.014-2.378-.005-3.516-.005-.905 1.106-.402 2.357-.528 3.521zm.02 9.4c-.025.323.28.67.442 1.03 1.187 0 2.356.017 3.524-.008.477-.01.673-.445.685-.797.045-1.375.025-2.753.005-4.13-.008-.496-.373-.822-.86-.824-1.111-.006-2.223-.002-3.336-.002-.888 1.556-.346 3.175-.46 4.73zM1.967 80.313c-.07.474.187.626.569.644.362.018.806.094 1.071-.077a1.79 1.79 0 00.71-.99c.126-.508-.003-1.073.072-1.6.085-.598-.27-.922-.683-1.131-.483-.243-1.389.041-1.645.423-.067.1-.08.25-.083.376-.01.421-.004.842-.004 1.264h.004c0 .364.042.733-.01 1.09zm78.823-54.29c.006-2.51.011-5.017.01-7.527 0-.124-.016-.3-.096-.365-.528-.425-.209-1.224-.806-1.66-.31-.227-.382-.753-.628-1.095a1.764 1.764 0 00-.673-.532c-.242-.114-.487-.091-.683-.4-.181-.283-.605-.474-.96-.577-.808-.238-1.64-.397-2.464-.588-.055-.013-.137-.012-.162-.048-.368-.526-.925-.304-1.41-.362-.246-.03-.665.02-.711-.088-.23-.542-.678-.344-1.042-.375-.497-.044-1-.018-1.5-.043-.137-.006-.275-.076-.405-.132-.19-.084-.369-.253-.558-.263-.865-.043-1.73-.041-2.597-.064-.17-.004-.439.015-.494-.077-.298-.497-.773-.33-1.182-.35-.807-.04-1.616-.028-2.424-.053a4.184 4.184 0 01-.739-.107c-.49-.102-.974-.269-1.469-.319a10.435 10.435 0 00-1.902-.033c-.747.065-1.276-.228-1.763-.75-.263-.28-.623-.469-.937-.704-.276-.206-.567-.397-.816-.633-.229-.215-.366-.613-.62-.698-.609-.2-1.078-.513-1.457-1.025-.159-.216-.432-.365-.68-.492-.224-.114-.535.022-.647-.401-.058-.222-.448-.48-.708-.506-.634-.06-.945-.636-1.51-.795-.508-.142-.796-.75-1.41-.727-.064.002-.176-.048-.19-.094-.12-.442-.485-.346-.796-.38-.151-.017-.396-.01-.434-.09-.203-.431-.573-.356-.925-.375-.088-.003-.238-.03-.253-.08-.156-.494-.574-.34-.912-.39-.243-.035-.566-.004-.71-.147-.378-.375-.823-.33-1.273-.356-.268-.015-.62.048-.787-.095-.553-.474-1.195-.309-1.804-.353-.69-.05-1.387-.02-2.073-.095-.63-.067-1.25-.33-1.874-.33-1.63.007-3.255-.21-4.892.273-.946.277-2.025.111-3.043.15-.538.02-1.168-.116-1.593.116-.79.429-1.593.269-2.39.353-.326.034-.768-.064-.955.11-.61.572-1.33.279-1.991.395-.184.031-.365.09-.54.155-.247.091-.48.25-.732.287-.416.06-1.045-.125-1.226.092-.447.53-.967.307-1.457.388-.184.03-.507.033-.526.107-.113.449-.474.3-.743.362-.842.193-1.756.243-2.5.625-.443.228-.854.282-1.293.377-.11.023-.219.054-.322.097-.273.117-.535.262-.815.36-.176.06-.518.01-.542.086-.177.562-.643.33-.993.407-.503.11-.858.648-1.45.506-.01-.002-.037.023-.038.035-.027.489-.434.3-.687.393-.237.087-.461.208-.69.314-.13.06-.257.13-.39.18-.496.188-.994.37-1.49.557-.03.011-.044.06-.074.08-.182.115-.368.225-.55.34-.32.203-.642.403-.956.616-.13.087-.26.188-.355.31-.212.272-.57.559-.576.845-.038 2.108-.006 4.218.008 6.327 0 .13-.009.34.062.38.485.269.334.73.35 1.12.039.9.029 1.802.05 2.702.004.167.052.336.108.494.095.263.294.516.308.781.056 1.128.08 2.261.076 3.391-.001.563.28.735.781.732.828-.007 1.655-.002 2.483 0H7.25c0-.652-.061-1.197.015-1.722.1-.691.308-1.368.472-2.05.008-.033.043-.081.07-.084.419-.048.338-.38.391-.649.023-.111.11-.213.177-.313.093-.137.216-.259.285-.406.063-.134.021-.347.113-.433.412-.389.862-.74 1.287-1.116a3.34 3.34 0 00.518-.552c.289-.403.591-.77 1.128-.835.093-.011.254-.016.265-.057.187-.666.915-.451 1.346-.764.479-.347 1.291-.262 1.966-.503 1.465-.524 2.887.316 4.345.421.046.003.12.059.126.097.055.392.366.316.62.352.111.015.31.022.32.066.123.55.62.308.899.428.08.161.111.325.21.41.304.257.667.45.943.73.348.352.578.835.96 1.134.47.367.91.693.898 1.356 0 .031.032.092.054.094.509.05.344.45.397.742.018.102.063.205.114.298.106.189.288.358.327.558.179.913.32 1.833.486 2.823h2.373v1.414H24.24c-.501 1.47-1.136 2.782-2.165 3.807-1.024 1.021-2.191 1.91-3.756 2.085l.072.278c3.164.104 6.336-.004 9.494.06v3.442h-.784c-6.582-.002-13.163-.007-19.744.005-.441 0-.883.147-1.325.217-.13.02-.27.032-.4.01-.59-.097-1.18-.204-1.768-.313a3.14 3.14 0 01-.487-.122c-.289-.103-.561-.267-.857-.329-.354-.075-.748.001-1.082-.114-.43-.15-.842-.38-.908-.945-.022-.194-.225-.366-.345-.549-.144-.104-.16-.275-.166-.446-.03-.873-.03-.873.84-.873 3.56 0 7.12.002 10.68 0 .808 0 1.616.002 2.423-.028.17-.007.334-.147.5-.227-.16-.067-.316-.148-.48-.2-.158-.05-.461-.06-.466-.11-.044-.453-.393-.324-.648-.379-.107-.021-.3-.048-.303-.085-.037-.421-.37-.356-.633-.417a.574.574 0 01-.277-.146c-.232-.241-.407-.567-.68-.735-.471-.291-.795-.637-.877-1.193-.012-.078-.103-.142-.15-.217-.264-.412-.651-.796-.762-1.246-.237-.967-.462-1.228-1.449-1.228l-2.424-.003c-1.155 0-2.31.011-3.464-.004-.37-.004-.742.025-.803-.56-.202-1.914.159-3.837-.436-5.768C.171 19.97.36 18.377.147 16.85-.15 14.704.088 12.488 0 10.306-.043 9.25.78 8.4 1.656 8.026c.092-.039.171-.112.256-.17.345-.243.664-.547 1.044-.711.44-.19.75-.71 1.334-.557.014.005.063-.051.063-.078-.002-.406.325-.282.54-.336.142-.036.388-.032.412-.103.145-.435.512-.316.81-.385.196-.045.382-.136.566-.22.171-.08.327-.2.503-.264.14-.052.395.002.439-.078.386-.704 1.32-.138 1.79-.824.2-.293 1.038.151 1.308-.515.007-.018.073-.008.111-.013.477-.06.912-.003 1.39-.38.407-.323 1.15-.088 1.724-.499.444-.316 1.116-.046 1.714-.452.55-.372 1.42-.163 2.134-.512.572-.279 1.3-.04 1.949-.445.413-.259 1.083-.105 1.637-.146.209-.015.543.008.6-.1.255-.477.674-.327 1.043-.347.518-.027 1.039-.017 1.558-.038.143-.005.29-.05.424-.104.225-.09.438-.285.661-.292C26.877.41 28.09.417 29.302.386c.194-.005.388-.091.577-.155.204-.07.402-.221.603-.222 2.04-.02 4.079-.015 6.118-.013.133 0 .34-.025.388.044.345.505.861.334 1.318.354.788.033 1.578.023 2.366.046.188.005.48.007.54.113.242.424.623.295.967.321.344.027.902-.08.996.084.33.578.84.291 1.255.411.58.167 1.165.339 1.719.572.59.25 1.137.597 1.72.864.479.22.983.385 1.475.578.033.013.057.049.086.073.459.357.825.88 1.484.867.133.178.292.312.471.413.333.188.854.274.982.548.344.74 1.212.74 1.641 1.332.193.266.557.407.832.618.36.28.716.567 1.063.863.304.26.555.61.9.785.372.19.536.659 1.08.635 1.056-.045 2.116.006 3.174.023.152.001.397-.025.44.051.317.552.846.343 1.287.37.786.05 1.577.027 2.365.053.246.008.495.056.734.12.355.092.697.275 1.055.311.668.067 1.345.05 2.018.08.19.01.38.052.565.099.377.096.745.242 1.126.299.64.094 1.336-.121 1.895.407.104.097.33.079.5.09.404.024.809.02 1.21.055.135.01.264.099.392.16.192.09.371.218.572.273.483.134.988-.121 1.488.39.292.298 1.07.083 1.54.547.287.283.756.372 1.106.605.216.142.364.389.54.59.215.249.431.5.641.754.255.309.565.592.742.94.282.555.738 1.068.613 1.768-.006.03.025.091.047.096.518.113.317.532.347.835.04.4.02.805.045 1.206.023.383.011.731.287 1.11.198.271.035.827-.02 1.25-.035.265-.235.514-.244.775-.044 1.245-.05 2.491-.067 3.737-.005.38 0 .757 0 1.195h-5.19c-.152.316-.49.484-.511.686-.06.549-.168 1.037-.513 1.49-.254.336-.346.803-.623 1.11-.377.418-1.052.656-1.252 1.12-.256.593-.901.326-1.211.839-.216.354-.986.374-1.504.554-.09.032-.16.124-.24.189.089.071.172.196.268.206.362.037.728.048 1.093.048l34.638-.002c3.156 0 6.312.007 9.468 0 .375-.001.75-.067 1.168-.107-.073-.16-.08-.212-.105-.222-.536-.209-1.075-.412-1.613-.62a.48.48 0 01-.188-.106c-.218-.255-.404-.541-.645-.772-.4-.386-.932-.673-1.227-1.12-.413-.626-.832-1.338-.937-2.057-.152-1.048-.065-2.138-.001-3.205.025-.42.26-.827.402-1.24.012-.033.036-.088.058-.09.588-.07.345-.575.476-.897.127-.048.313-.06.39-.159.202-.257.332-.573.54-.824.171-.204.393-.394.632-.508.486-.228.999-.4 1.498-.603.066-.025.11-.101.173-.138.158-.092.32-.246.482-.25a139.98 139.98 0 013.635-.004c.185 0 .392.037.55.124.475.263.933.559 1.393.848.097.061.177.149.26.228.243.235.483.471.723.708.237.233.546.43.694.712.247.464.39.983.578 1.48.013.035.03.091.054.095.524.095.359.512.365.82.017.9.072 1.809-.018 2.7-.06.595-.341 1.167-.528 1.745-.01.03-.062.043-.085.07-.249.286-.534.55-.734.867-.321.509-.592 1.041-1.282 1.135-.078.01-.14.134-.213.2-.095.086-.183.19-.295.244-.489.236-.985.456-1.48.682l.014.198c.412 0 .978.169 1.202-.036.439-.398.892-.36 1.376-.396.187-.012.487.005.538-.093.225-.434.609-.316.952-.354.303-.035.794.03.875-.121.282-.527.728-.28 1.098-.362.273-.06.552-.1.817-.183.231-.072.439-.228.672-.282.275-.066.734.036.822-.11.282-.467.694-.308 1.063-.36.266-.04.666.05.78-.094.432-.554 1.025-.344 1.551-.442.131-.025.34-.03.375-.107.217-.473.635-.324.994-.358.191-.017.483.038.556-.063.361-.504.882-.351 1.356-.405.205-.024.552-.022.585-.118.197-.567.622-.26.987-.343v1.87c-.307.165-.604.397-.938.483-.365.093-.764.052-1.148.07-.058.003-.15-.004-.166.026-.35.688-1.002.322-1.515.434-.163.036-.44.018-.475.102-.193.47-.595.324-.93.363-.323.038-.817-.061-.938.11-.304.428-.699.3-1.068.379-.163.036-.313.139-.469.212.15.074.295.195.453.214.322.041.652.034.98.034 1.75 0 3.502-.01 5.253.003.319.002.638.096.81.123-.098.5-.208.869-.235 1.244-.04.552-.006 1.111-.031 1.666-.01.224-.095.446-.129.594-.419-.072-.726-.17-1.034-.17-32.925-.008-65.85-.01-98.775-.01-.135 0-.32-.054-.396.012-.465.405-.79-.03-1.154-.113v-3.354H51.75c2.617 0 5.234.01 7.851-.004 2.57-.015 5.144.067 7.717-.145-.5-.323-.992-.702-1.514-.747-.85-.073-1.19-.792-1.798-1.154-.321-.19-.647-.49-.798-.82-.185-.404-.797-.518-.695-1.11.02-.124-.234-.294-.451-.55-.046-.182.16-.639-.372-.788-.041-.012-.061-.176-.054-.267.045-.55-.246-.637-.734-.636-8.082.013-16.164.01-24.246.01h-.967V26.28h24.065c.157-1.016.301-1.965.452-2.914.018-.11.044-.252.12-.31.456-.359.215-1.057.738-1.416.181-.125.142-.482.458-.713.555-.407.91-1.074 1.42-1.557.53-.5.91-1.238 1.78-1.278.034-.002.092-.028.097-.052.094-.46.478-.336.775-.39.091-.015.248-.04.256-.08.084-.499.486-.315.773-.373.257-.05.522-.073.771-.149.239-.073.456-.273.692-.289.67-.045 1.345-.032 2.018-.03.171 0 .425-.021.5.075.386.499.93.334 1.42.405.195.028.386.113.569.192.17.075.318.207.492.26.23.07.57-.083.588.354.002.043.18.087.282.114.252.066.517-.012.657.387.092.262.54.383.787.612.25.231.439.527.677.774.265.274.555.526.892.841.022.146.004.572.104.602.416.121.322.491.482.722.265.382.457.75.419 1.221-.004.045.061.09.083.14.128.292.336.576.363.877.056.623.017 1.256.017 1.935h2.306c.025-.106.049-.162.05-.216zm-67.287 3.895c0 .001 0 .002.001 0zm.001 0c.386.238.657.418.942.572.11.06.255.051.38.089.372.112.737.263 1.116.34.481.096.999.332 1.41-.193.057-.074.2-.116.302-.116.72.004 1.28-.175 1.696-.871.263-.442.81-.713 1.217-1.074.073-.064.096-.195.123-.3.071-.277-.002-.62.409-.731.064-.018.087-.274.089-.42.01-.73.018-1.458.002-2.187-.006-.263.08-.604-.349-.677-.05-.009-.105-.153-.108-.236-.018-.598-.43-.888-.86-1.205-.26-.193-.426-.51-.634-.772-.011-.015-.014-.041-.028-.048-.417-.195-.824-.517-1.255-.555-.973-.084-1.958-.043-2.937-.015-.177.006-.35.195-.524.3-.09.054-.177.156-.27.161-.595.042-.836.61-1.24.824-.543.287-.257 1.046-.88 1.14-.012.003-.023.03-.027.047-.212.97-.745 1.916-.421 2.935.238.749.59 1.471.972 2.161.141.256.528.369.772.582.09.078.106.24.103.25zm54.259-8.374c-.48.177-1.016.344-1.39.783-.214.253-.564.392-.781.643-.254.294-.432.655-.64.99a4.77 4.77 0 00-.253.442c-.07.143-.164.293-.168.442a51.371 51.371 0 00-.004 2.469c.004.146.155.289.243.432.047.076.14.143.149.221.09.846.722 1.263 1.321 1.721.264.201.478.47.713.71.038.038.062.11.104.12.772.172 1.543.348 2.32.49.137.025.304-.1.452-.165.137-.063.283-.216.397-.193.693.138 1.117-.495 1.738-.574.207-.026.412-.269.565-.456.246-.3.39-.71.682-.942.527-.42.166-1.256.823-1.59.066-.033.049-.251.05-.384.002-.441.02-.882-.02-1.32-.015-.169-.167-.327-.264-.486-.028-.046-.124-.084-.118-.11.153-.616-.4-.973-.566-1.473-.106-.32-.451-.574-.721-.822-.302-.278-.601-.598-1.082-.528-.493-.951-1.412-.204-1.837-.454-.728 0-1.274-.128-1.713.034zm55.775 7.047c.054-.013.075-.238.077-.366.01-.518.018-1.035.005-1.553-.007-.31.077-.673-.353-.816-.046-.015-.082-.126-.084-.192-.02-.637-.567-.893-.89-1.32-.274-.359-.678-.3-.897-.49-.974-.852-2.08-.236-3.107-.386-.12-.017-.27.158-.4.252-.067.048-.12.159-.184.163-.759.044-.965.667-1.383 1.139-.38.427-.183 1.085-.777 1.382-.273.138-.027 1.972.217 2.225.084.088.181.208.187.317.03.595.4.912.86 1.213.257.17.43.465.64.706.035.039.061.106.104.12.637.19 1.267.429 1.918.536.275.044.595-.193.896-.297.125-.043.254-.098.383-.101.667-.022 1.132-.316 1.495-.89.183-.289.555-.46.902-.732.12-.282-.183-.768.391-.91zM51.452 62.338c-.002-.18-.063-.362-.125-.534-.082-.225-.27-.438-.277-.66-.046-1.284-.033-2.569-.086-3.852-.012-.307-.224-.6-.297-.911-.055-.233-.14-.614-.027-.705.473-.382.256-.88.337-1.326.088-.487-.139-1.003.436-1.436.595-.447.939-1.23 1.85-1.222.162.002.416-.053.473-.161.2-.384.536-.284.843-.324.376-.045.756-.084 1.123-.173.271-.065.516-.258.786-.299.377-.058.768-.017 1.153-.035.305-.015.733.056.888-.111.354-.381.757-.304 1.162-.325.46-.024.924-.01 1.384-.04a.932.932 0 00.445-.177c.31-.214.578-.502.909-.67.458-.233.958-.38 1.44-.568.048-.02.08-.076.127-.104.206-.126.41-.256.624-.37.112-.059.246-.075.36-.13.24-.116.46-.273.708-.363.52-.19 1.053-.347 1.58-.52.016-.004.038-.02.041-.035.095-.544.533-.339.854-.39.169-.028.462-.017.486-.09.168-.53.624-.284.939-.408.64-.256 1.263-.535 1.975-.497.04.002.08-.076.13-.099.24-.114.473-.275.727-.32.376-.066.767-.037 1.15-.07.163-.014.327-.07.48-.132.223-.091.428-.265.656-.296.397-.053.807-.017 1.21-.033.325-.013.658-.012.972-.081.31-.069.603-.319.904-.321 4.29-.026 8.58-.025 12.87-.024.209 0 .508-.013.608.108.312.38.716.284 1.097.31.345.026.693.014 1.038.036.147.008.296.044.434.096.302.114.59.276.898.364.755.216 1.572.296 2.255.644.327.167.61.335.977.363.05.004.14.04.142.068.032.473.398.354.68.392.108.015.302.044.308.086.06.46.423.347.703.395.09.015.248.05.25.082.02.446.377.331.629.397.103.025.22.049.3.113.312.252.582.572.924.77.432.25.92.406 1.383.604.034.015.076.035.092.063.259.47.662.752 1.162.92.085.029.157.098.232.154.325.24.64.495.977.716.33.22.75.339 1.013.613.475.494 1.088.724 1.688.774 1.32.107 2.653.062 3.98.085.19.004.484-.025.548.076.295.462.743.331 1.14.35.808.037 1.616.027 2.424.05.228.007.534-.016.666.113.4.394.88.283 1.337.312.48.03.963.002 1.442.037.24.017.478.104.709.183.2.068.383.218.585.243.4.051.808.026 1.21.063.22.02.442.084.65.164.211.081.398.274.61.298.92.103 1.605.346 2.39.923.473.348 1.06.489 1.49.946.34.363.798.604.887 1.156.013.082.08.162.138.23.38.446.792.864.77 1.525-.01.313.047.638.128.943.066.248.3.472.31.711.032.9.007 1.802-.007 2.702-.002.146-.01.384-.09.422-.4.19-.314.536-.322.846-.014.527-.004 1.055-.004 1.59-1.387 0-2.655.005-3.923-.008-.13-.001-.258-.104-.387-.16.064-.122.137-.24.19-.366.086-.204.209-.408.226-.618a11.4 11.4 0 00.015-1.322c-.012-.382.086-.891-.118-1.115-.375-.41-.32-.858-.402-1.306-.02-.109-.043-.304-.087-.31-.398-.057-.279-.388-.364-.614-.05-.136-.154-.256-.248-.372-.223-.274-.547-.507-.662-.818-.219-.59-.481-1.068-1.161-1.176-.073-.012-.174-.025-.208-.074-.335-.479-.713-.875-1.362-.853-.052.002-.149-.033-.152-.06-.066-.568-.525-.348-.84-.425a4.004 4.004 0 01-.582-.195c-.195-.08-.38-.252-.574-.259-.826-.03-1.654-.02-2.48-.007a1.59 1.59 0 00-.618.112c-.555.25-1.09.542-1.641.8-.424.197-.878.336-1.286.56-.255.14-.467.373-.665.594-.22.244-.389.532-.601.782-.244.288-.611.517-.746.844-.23.56-.722 1.028-.657 1.701.006.069-.029.189-.073.205-.456.165-.318.555-.34.874-.022.305-.011.613-.012.92v2.633H73.572c.075-.415.12-.769.206-1.114.074-.296.222-.578.283-.877.088-.425-.208-.747-.332-1.115-.227-.671-.032-1.442-.515-2.1-.293-.396-.343-.972-.64-1.364-.329-.432-.817-.742-1.23-1.112-.207-.184-.42-.367-.596-.58-.316-.383-.604-.786-1.171-.799-.091-.002-.253-.027-.262-.068-.123-.556-.588-.352-.925-.435a4.462 4.462 0 01-.56-.198c-.2-.083-.403-.275-.587-.255-1.138.121-2.33-.397-3.427.389-.372.265-.92.162-1.406.487-.456.306-.975.48-1.361.958-.334.412-.858.666-1.266 1.027-.223.197-.437.443-.555.712-.218.49-.362 1.013-.538 1.522-.012.035-.03.09-.056.095-.527.12-.338.555-.399.882-.106.567-.226 1.132-.326 1.7-.018.1.035.212.054.318l.349 1.944h-6.855c0-1.453.005-2.83-.005-4.208zm49.715-11.143c-.405-.523-1.06-.616-1.537-.998-.087-.07-.091-.241-.13-.352-.352-.125-.867.14-.98-.467-.008-.044-.257-.02-.373-.075-.179-.081-.34-.202-.506-.31-.028-.019-.05-.085-.064-.08-.66.165-.983-.595-1.605-.576-.292.008-.685.079-.781-.384-.007-.032-.092-.06-.144-.07-.97-.169-1.94-.342-2.914-.495-.323-.05-.692.053-.869-.361-.022-.054-.173-.074-.264-.074-1.11-.005-2.222-.003-3.385-.003.051.55-.113 1.063.275 1.617.248.354.152.959.178 1.452.046.862.386 1.191 1.255 1.203.846.013 1.73-.105 2.53.096 2.821.708 5.685.218 8.517.44.231.019.45.17.68.226.266.065.54.092.81.135l.115-.238c-.273-.226-.597-.413-.808-.686zm-25.09-.476c1.69.045 3.422-.13 5.06.185 1.669.318 3.314.173 4.964.293.281.022.568-.029.89-.049.024-.383.187-.712-.216-1.003-.14-.103-.144-.417-.176-.64-.089-.61.172-1.28-.406-1.81-.136-.125-.062-.476-.088-.765-.167-.013-.334-.038-.502-.036-1.961.01-3.922.013-5.882.052-.26.005-.508.24-.777.306-.326.08-.667.116-1.003.13-.494.021-.698.386-.951.715-.215.279-.454.54-.687.805-.048.054-.158.091-.162.142-.053.685-.627.995-1.021 1.436-.016.017.009.072.026.18.299.02.614.051.93.059zm-20.783 2.036c-2.997-.61-3.789.633-3.674 2.715.332-.021.765.307.9-.316.006-.025.057-.053.09-.058.37-.06.69-.258 1.008-.387.581-.236.983-.517 1.282-1.037.057-.1.262-.113.394-.164v-.753zM75 49.065c.179-.23.302-.507.422-.775.037-.083-.016-.206-.027-.311-.099.026-.201.042-.295.08-.226.09-.44.22-.674.282-.306.081-.714-.07-.823.407-.007.028-.055.054-.09.066-.521.168-1.046.329-1.564.507-.104.035-.186.14-.274.217-.075.067-.157.213-.214.202-.707-.128-.92.725-1.58.669l.02.185c.24.04.481.11.723.114.825.015 1.65.008 2.475.008.91 0 .925-.013 1.033-.727.35-.367.636-.625.868-.924zm52.448 8.5c-.269-.138-.369-.405-.543-.52-.57-.374-.94-1.111-1.765-1.058-.467-.818-1.27-.262-1.953-.555.05.456-.218.79.347 1.118.283.165.769.304.848.483.264.592 1.06.23 1.266.815.019.054.208.056.319.066.272.026.472.07.718.299.245.23.769.164 1.17.228l.083-.151c-.159-.251-.262-.607-.49-.725zm-.79-33.814c-.226-.415-.388-.883-.692-1.228-.365-.413-.915-.666-1.266-1.087-.389-.467-.722-.927-1.405-.902-.032.001-.093-.035-.093-.055-.012-.543-.442-.332-.717-.404-.121-.032-.237-.09-.351-.144-.224-.105-.444-.306-.668-.312-1.269-.029-2.541-.066-3.805.014-.537.034-1.058.342-1.583.535-.037.012-.034.113-.073.143-.117.09-.236.198-.373.241-.25.078-.55-.032-.666.383-.063.225-.39.375-.597.56-.274.243-.585.457-.811.738-.265.33-.407.763-.692 1.07-.47.504-.88 1-.788 1.747.01.086-.016.247-.062.263-.53.174-.353.62-.364.965-.026.785-.01 1.572-.003 2.357.001.15-.01.387.072.435.656.386.255.975.395 1.47-.628.058-1.267-.046-1.706.203-.53.299-1.038.308-1.576.34-.633.039-1.27.024-1.901.08-.21.02-.399.204-.607.286-.125.048-.368.099-.39.06-.199-.374-.424-.752-.519-1.157-.094-.403-.038-.839-.07-1.26-.01-.141-.08-.28-.131-.416-.109-.29-.267-.568-.327-.867-.205-1.017-.377-2.041-.562-3.063-.004-.019-.003-.045-.014-.055-.612-.485-.325-1.183-.433-1.789-.028-.154-.103-.3-.17-.443-.082-.174-.253-.337-.256-.505-.02-1.398-.011-2.795-.011-4.124.336-.291.647-.526.916-.8.512-.524.872-1.226 1.705-1.355.08-.013.134-.156.215-.222.265-.218.52-.459.812-.636.382-.232.808-.392 1.195-.618.403-.236.761-.554 1.177-.76.49-.243 1.134-.288 1.502-.638.336-.321.642-.409 1.038-.443.03-.002.078-.042.08-.065.025-.455.397-.304.644-.368.126-.032.341-.024.366-.09.163-.436.54-.354.868-.406.15-.023.34-.037.434-.131.48-.484 1.129-.593 1.724-.816.534-.2 1.081-.362 1.622-.542.017-.006.042-.02.045-.033.093-.581.561-.339.89-.402.132-.025.354-.005.383-.072.288-.664 1.088-.242 1.53-.763.253-.3.963-.127 1.442-.5.354-.278.94-.172 1.423-.456.456-.268 1.087-.177 1.617-.524.446-.293 1.091-.006 1.635-.49.342-.303 1.06-.123 1.63-.437.56-.308 1.319-.128 2.008-.468.728-.362 1.643-.194 2.5-.475 1.212-.397 2.618.002 3.86-.565 2.77-.005 5.54-.013 8.309-.011.19 0 .446-.017.558.091.437.423.978.324 1.492.37.574.052.944.691 1.585.544.154.578.656.36 1.026.444.125.028.35.048.357.096.061.447.405.308.665.35.126.02.353.048.358.095.052.432.386.34.652.383.108.018.275.02.31.087.302.562.948.568 1.419.792.459.22.808.788 1.437.63.011 0 .056.06.054.088-.03.37.262.273.462.346.45.166.885.372 1.325.563.013.006.013.04.027.048.187.107.375.304.564.304 2.058.004 4.116-.02 6.175-.052.19-.002.378-.124.567-.19.172-.059.344-.168.516-.168 2.982-.012 5.964-.01 8.946-.008.15 0 .375-.011.439.075.31.423.751.308 1.156.327.538.025 1.078.008 1.615.041.222.014.451.08.655.173.522.235 1.04.479 1.54.754.373.205.75.428 1.062.71.39.354.699.796 1.077 1.166.38.372.833.68.815 1.296-.002.055.005.143.038.161.576.334.353.901.422 1.385.045.318.091.638.175.948.06.222.255.427.263.644a61.42 61.42 0 01.045 3.506c-.005.23-.244.647-.387.653-1.295.05-2.592.03-3.905.03 0-.143.021-.316-.003-.483-.151-1.049.335-2.183-.438-3.15-.083-.105-.05-.296-.079-.446-.03-.15-.02-.37-.114-.433-.639-.43-.723-1.255-1.326-1.74-.392-.314-.602-.846-1.207-.882a.263.263 0 01-.182-.105c-.306-.53-.761-.786-1.37-.838-.186-.016-.356-.18-.537-.268-.142-.071-.287-.178-.435-.188-.73-.045-1.474-.164-2.187-.067-.956.13-2.041-.354-2.86.525-.03.032-.117 0-.168.02-.488.201-.975.406-1.46.613-.031.013-.043.063-.071.087-.297.254-.603.498-.892.76-.222.203-.47.401-.623.652-.215.353-.4.825-.607 1.07-.285.34-.34.631-.393.996-.008.054-.104.089-.144.143-.104.144-.253.283-.285.444-.076.37.032.84-.159 1.113-.353.51-.33 1.033-.315 1.574.01.34.046.685.125 1.015.065.27.237.513.314.78.105.363.165.738.26 1.184-.13.02-.385.078-.642.09-.519.026-1.039.018-1.558.043-.139.006-.28.071-.41.13-.186.086-.357.256-.546.278-1.142.121-2.272.043-3.432.41-1.27.403-2.703.066-4.04.53-.643.223-1.412.076-2.123.104-.152.006-.348-.013-.447.07-.742.626-1.593.284-2.467.378 0-.324.013-.57-.003-.816-.02-.324.05-.838-.116-.933-.45-.26-.343-.664-.44-.997-.28-.111-.542-.211-.8-.321-.202-.086-.398-.265-.599-.267-1.808-.023-3.617-.018-5.425-.014-.854.002-1.632.666-1.806 1.514-.022.105-.054.281-.113.295-.387.096-.3.394-.301.647-.007.758-.003 1.517-.003 2.33-.635 0-1.173-.006-1.71.003-.19.004-.452-.027-.558.08-.458.46-1.03.314-1.563.348-.556.037-1.116.019-1.673.04-.209.008-.508-.008-.606.113-.308.385-.716.306-1.099.332-.575.038-1.156.01-1.729.067-.305.029-.613.142-.894.273-.448.206-.707.104-.734-.392-.038-.727-.02-1.456-.038-2.184-.004-.189.014-.48-.09-.545-.449-.283-.338-.727-.427-1.12-.038-.17-.194-.315-.296-.472a2.68 2.68 0 00-.017-.065zm25.356-13.461c-.326-.223-.428-.707-.898-.762-.248-.029-.573.067-.596-.352-.002-.033-.08-.081-.127-.089-.36-.054-.714.023-.965-.44-.112-.208-.63-.147-.977-.434-.447-.37-1.173-.402-1.774-.597-.175-.058-.324-.188-.496-.26-.207-.085-.421-.184-.64-.207-.42-.043-.846-.021-1.267-.053-.345-.027-.74.082-.963-.347-.041-.078-.282-.073-.43-.075-.75-.007-1.502-.021-2.25.01-.214.01-.418.177-.631.258-.154.058-.315.13-.475.133-.611.016-1.224.007-1.878.007.011.458-.22.848.335 1.084.118.05.057.495.099.756.037.233-.095.572.342.592.045.003.116.14.12.219.02.49-.042 1 .483 1.314.068.041.057.212.101.403.82-.165 1.702.283 2.462-.377.083-.072.26-.047.394-.054.614-.025 1.231-.022 1.844-.073 1.243-.102 2.48.05 3.74-.301 1.061-.297 2.253-.13 3.387-.16.342-.01.685-.003.994-.003.044-.126.074-.186.066-.192zm-26.788 2.41c.378.229.807.176 1.241.031.308-.103.61-.29.92-.306 1.114-.053 2.231-.034 3.346-.078.234-.009.458-.183.694-.26.194-.063.398-.127.6-.132 1.172-.027 2.347-.021 3.519-.066.25-.01.487-.21.742-.271.404-.097.818-.151 1.276-.231.016-.313.198-.683-.307-.853-.044-.015-.107-.088-.1-.12.12-.576-.442-.953-.47-1.414-.042-.696-.43-1.168-.726-1.748-.166.113-.323.312-.461.3-1.137-.1-2.17.376-3.255.554-.308.05-.586.26-.887.375-.155.058-.328.068-.495.093-.357.049-.79-.1-.972.402-.02.056-.204.06-.314.074-.41.054-.899-.134-1.143.418-.03.068-.298.008-.438.058-.186.065-.349.198-.534.271-.27.108-.55.188-.905.307l-1.33 2.596zm-19.242 7.348c.29-.188.552-.428.796-.674.303-.306.574-.644.859-.968-.122-.601-.483-.818-1.091-.734-.378.052-.797-.065-1.143.053-.366.126-.702.403-.989.678-.933.895-.041 1.692.133 2.47.507-.287.986-.533 1.435-.825zm69.189-8.168c.004.027.177.025.27.042.27.048.633-.098.715.362.01.054.272.073.419.092.538.073 1.092-.107 1.593.387.223.218.802.076 1.303.101l-.128-.91c-.72.305-.98-.712-1.686-.528-.49-.743-1.272-.352-1.917-.497-.376-.085-.742-.217-1.11-.335-.238-.077-.424-.08-.431.241-.005.168-.001.338-.001.522.398.151.886-.025.973.523zm-50.633-.05c.057-.01.046-.488.035-.747 0-.019-.372-.05-.374-.037-.095.483-.486.375-.804.428-.084.014-.152.123-.228.187-.099.083-.187.206-.3.239-.283.08-.687-.077-.738.417-.002.018-.06.043-.095.048-.366.042-.772-.068-.947.466-.045.136-.492.144-.837.23.637.386 1.882.283 2.377.029.4-.205.9-.221 1.419-.335.141-.298-.121-.823.492-.924zM93.955 77.819c.412.382.32.752.376 1.154.018.13.008.347.076.377.535.233.35.702.379 1.087.03.402-.065.822.022 1.206.244 1.07-.648 1.926-.515 2.964.005.034-.013.103-.028.105-.704.11-.312.912-.839 1.26-.506.332-.685 1.12-1.118 1.61-.537.608-1.309.957-1.945 1.47-.41.329-1.058.363-1.594.546-.1.035-.175.145-.262.22.089.074.17.2.265.21.266.033.538.022.807.022h56.689c5.003 0 10.006-.002 15.009-.004.23 0 .464.006.69-.028.078-.012.166-.131.193-.22.013-.04-.102-.177-.162-.179a1.86 1.86 0 01-1.155-.413c-.399-.31-.956-.415-1.443-.614a.35.35 0 01-.122-.108c-.217-.26-.407-.548-.651-.78-.402-.382-.986-.651-1.227-1.108-.408-.771-1.082-1.45-1.082-2.41 0-.092-.02-.25-.068-.265-.524-.17-.368-.611-.373-.96-.018-1.167-.009-2.338-.002-3.507.001-.146.026-.302.082-.436.284-.667.574-1.33.878-1.989.074-.158.207-.292.315-.434.213-.28.497-.53.628-.845.202-.482.491-.828.974-1.019.123-.05.277-.079.359-.17.38-.424.747-.777 1.357-.964.303-.091.639-.314 1.009-.377.055-.01.09-.108.145-.149.132-.094.263-.237.409-.258.322-.046.654-.012.98-.04.4-.035.823.07 1.164-.329.095-.112.517.031.781.092.154.036.286.17.44.206.762.184 1.549-.137 2.34.426.513.364 1.193.577 1.777.95.507.323 1.014.589 1.423 1.055.324.37.754.64.867 1.169.02.094.163.157.239.244.075.086.203.187.197.275-.041.596.733.923.515 1.57-.005.018.045.077.072.079.504.033.352.436.356.694.02 1.417.017 2.836.003 4.253-.003.238-.08.484-.161.713-.079.221-.208.424-.312.637-.096.194-.189.39-.283.584l-.135-.052c-.107.341-.051.657-.437.99-.499.428-.863 1.043-1.441 1.438-.208.141-.386.33-.569.507-.253.246-.454.596-.755.729-.598.263-1.252.402-1.877.608-.1.032-.175.141-.262.215.093.068.18.183.278.193.325.031.654.03.98.03l21.821.001h.901v1.936h-25.31c-27.709-.002-55.418-.005-83.128-.005l-66.443.003c-4.676.001-9.352-.009-14.028.014-.547.002-.845-.322-.988-.683-.142-.357-.03-.815-.03-1.281H57.3c-.06-.186-.105-.398-.132-.396-.544.041-.962-.234-1.389-.504-.264-.166-.531-.38-.825-.44-.536-.11-.763-.532-1.081-.874-.205-.22-.435-.415-.643-.632-.297-.308-.74-.492-.827-.98-.02-.11-.053-.241-.128-.312-.487-.468-.834-.995-.815-1.702.002-.093-.01-.255-.053-.268-.612-.203-.376-.72-.387-1.104-.031-1.11-.009-2.223-.005-3.335 0-.134-.027-.357.033-.386.565-.271.381-.796.463-1.233.018-.095.105-.178.16-.265.089-.141.219-.27.258-.424.066-.26-.021-.526.4-.635.24-.062.4-.445.587-.693.16-.212.363-.416.446-.66.151-.445.61-.388.87-.616.415-.36.701-.8 1.33-.957.33-.081.655-.405 1.08-.405.044 0 .08-.114.134-.156.115-.09.233-.221.363-.237.342-.043.691-.022 1.037-.048.404-.03.801.032 1.174-.313.164-.15.638.002.963.062.248.046.478.205.726.235.399.048.806.026 1.21.045.104.005.291.049.295.088.041.445.398.315.65.376.185.043.384.062.55.145.533.265.885.833 1.537.911.049.005.082.109.13.158.235.243.47.484.709.72.226.224.523.405.675.67.269.466.442.985.672 1.474.112.238.291.445.386.686.082.21-.044.524.356.539.042 0 .107.218.108.334.01 1.573.017 3.143.006 4.715-.001.197-.093.398-.17.587-.082.202-.209.385-.29.588-.042.101-.005.319-.039.327-.663.15-.265.984-.882 1.269-.454.21-.683.86-1.079 1.247-.473.464-.987.9-1.538 1.266-.431.288-.94.465-1.426.667-.255.106-.532.157-.8.234.277.082.553.233.83.234 6.542.015 13.085.013 19.627.013.231 0 .466.013.69-.026.14-.027.264-.14.395-.214-.137-.071-.267-.173-.413-.204-.205-.042-.422-.022-.631-.048a.853.853 0 01-.3-.113c-.191-.106-.368-.238-.562-.335-.097-.048-.293-.014-.32-.074-.326-.718-1.169-.797-1.653-1.354-.32-.37-.755-.626-.873-1.15a.504.504 0 00-.139-.235c-.374-.365-.822-.678-.829-1.281-.001-.087-.055-.173-.086-.259-.124-.338-.27-.669-.365-1.014-.07-.253.013-.682-.124-.758-.443-.241-.321-.61-.334-.947-.02-.554-.004-1.111.002-1.666.001-.112-.013-.292.047-.328.559-.327.332-.877.408-1.34.03-.187.004-.51.09-.542.614-.23.153-1.123.829-1.282.016-.775.747-1.092 1.11-1.644.353-.539.99-.899 1.517-1.318.303-.24.768-.189 1.008-.6.069-.117.564.024.642-.097.42-.648 1.058-.364 1.606-.44.38-.052.742.014 1.107-.305.211-.184.862-.18 1.066.007.31.285.602.266.93.287.402.025.806.023 1.21.05.122.01.336.06.346.118.07.405.383.295.629.334.128.02.279.017.378.083.405.276.8.565 1.186.866.18.142.326.324.489.487.261.26.519.525.79.777.281.261.576.509.893.786.207.53.283 1.2.66 1.549zm69.693-.72c-.685-.136-1.037.449-1.558.66a1.402 1.402 0 00-.441.318 3.87 3.87 0 00-.499.597c-.266.41-.509.836-.752 1.26-.07.122-.147.262-.15.396-.018.651-.036 1.303.002 1.952.011.19.204.37.317.554.036.061.131.133.118.17-.2.56.289.996.538 1.158.568.37.88 1.207 1.747 1.086.626.788 1.497.392 2.268.449.28.02.639.068.755-.348.014-.048.122-.099.186-.098.638.013.892-.55 1.324-.816.683-.424.757-1.203 1.311-1.65.065-.053.051-.216.052-.329.006-.746.034-1.494-.01-2.237-.015-.242-.229-.469-.345-.706-.055-.113-.097-.233-.14-.351-.28-.774-.806-1.298-1.592-1.555-.053-.018-.15.01-.167-.018-.51-.866-1.376-.294-2.044-.482-.307 0-.624.048-.92-.01zm-81.736 2.386c-.074.142-.049.332-.093.493-.094.34-.232.669-.299 1.012a2.192 2.192 0 00-.014.816c.054.276.234.527.308.803.08.298-.124.72.405.797.03.004.053.133.061.208.079.664.486.99 1.099 1.209.481.172.905.503 1.361.75a.977.977 0 00.42.123c.519.013 1.053.082 1.552-.019.485-.097.937-.367 1.395-.579.183-.085.334-.235.513-.329.419-.22.756-.494.882-.984.04-.15.19-.275.297-.406.033-.041.126-.064.127-.096.017-.836.95-1.59.472-2.377-.377-.622-.149-1.441-.847-1.938-.437-.312-.707-.853-1.065-1.28-.047-.059-.172-.052-.261-.075-.13-.033-.29-.027-.385-.103-1.054-.847-2.259-.266-3.39-.37-.228.539-.966.283-1.246.825-.151.294-.547.461-.833.686l.059.023c-.176.27-.37.529-.518.811zm-23.294-2.376c-.636-.065-.979.402-1.386.72-.46.358-.86.794-1.27 1.212-.078.081-.07.241-.122.356-.088.194-.163.407-.3.563-.226.259-.317 2.679-.026 2.8.35.146.261.405.353.634.119.294.274.595.489.824.219.232.668.323.771.575.274.665 1.13.226 1.408.827.04.088.322.083.493.087.441.013.889.049 1.323-.007.263-.033.505-.22.756-.34.066-.032.128-.105.191-.102.636.012.997-.342 1.316-.852.164-.263.585-.364.76-.624.262-.387.53-.838.58-1.284.092-.813.043-1.644.01-2.465-.008-.18-.197-.35-.302-.526-.054-.089-.147-.177-.153-.27-.04-.581-.432-.877-.872-1.173-1.453-.975-1.447-.983-3.08-.988-.211.01-.58.07-.94.033zM148.29 27.23c6.311-.002 12.622-.002 18.934-.002.442 0 .885.01 1.326-.017.114-.007.22-.136.329-.21-.091-.069-.173-.16-.275-.205-.505-.224-1.021-.422-1.52-.659a1.921 1.921 0 01-.585-.424c-.407-.446-.75-.955-1.184-1.37-.338-.324-.366-.788-.698-1.148-.31-.335-.319-1.045-.448-1.564-.196-.796-.484-1.8.3-2.572.043-.043.025-.146.037-.221.07-.44-.014-.856.45-1.251.477-.408.678-1.125 1.056-1.668.18-.26.469-.467.748-.631.383-.224.805-.38 1.207-.574.25-.12.482-.328.743-.374.588-.104 1.218.06 1.75-.39.131-.112.522-.106.66.008.519.427 1.12.316 1.7.372.137.014.275.075.4.139.196.1.376.23.573.327.097.048.287.013.317.074.259.533.927.511 1.254.948.21.282.558.513.646.824.136.483.752.747.59 1.345-.007.027.068.109.106.11.397.01.304.313.334.541.077.569-.084 1.18.362 1.683.085.096.08.395-.005.494-.44.508-.269 1.121-.356 1.688-.025.16-.057.332-.137.469-.255.436-.604.83-.786 1.294-.184.464-.544.728-.84 1.077-.28.333-.611.453-.977.616-.451.204-.841.543-1.257.825-.119.08-.235.166-.353.25.137.063.269.152.413.185.147.033.307.015.46.015a126190 126190 0 0116.51-.006h.86v1.945c-.245 0-.453-.002-.661 0-2.078.018-4.156.033-6.234.057a2.536 2.536 0 00-.617.088c-.295.079-.58.273-.87.276-4.291.045-8.582.064-12.872.097a3.007 3.007 0 00-.723.116c-.246.063-.478.235-.721.246-5.17.237-10.357-.193-15.52.463-1.422.18-2.882.063-4.325.063-.256 0-.633.091-.637-.367-.007-.97-.002-1.942-.002-2.95.201-.012.37-.032.538-.032zm18.62-7.629c-.085.337-.356.655-.353.98.003.334.26.66.364 1.002.055.177 0 .385.036.571.02.105.116.2.191.288.076.09.226.154.245.249.136.7.746.879 1.204 1.277.762.665 1.758.113 2.34.715.296-.113.532-.284.761-.275.71.03 1.07-.446 1.569-.82.494-.37.743-.899 1.18-1.284.132-.117.178-.378.189-.577.029-.535-.07-1.092.041-1.606.166-.767-.482-1.223-.602-1.878-.041-.227-.48-.373-.725-.573-.233-.188-.432-.425-.68-.59-.232-.155-.502-.334-.765-.35-.747-.048-1.505.043-2.246-.038-.62-.068-.847.476-1.297.664-.338.142-.591.506-.852.8-.156.172-.252.4-.375.602l-.171-.015c-.015.287.014.585-.055.858zM36.093 8.256c-.011-.326.095-.786-.078-.95-.557-.528-.297-1.168-.396-1.754a4.236 4.236 0 00-.166-.712c-.116-.329-.267-.643-.43-1.027H39.1c.038 0 .093-.003.112.02.554.645 1.312.296 1.975.407.319.053.649.075.953.175.717.234 1.42.51 2.13.76.585.205 1.175.394 1.76.597.043.015.058.096.101.127.132.096.262.2.409.268.136.064.321.045.433.13.45.342.8.84 1.444.87.055.002.108.087.157.14.224.236.409.613.677.687.95.26 1.39 1.177 2.207 1.59.058.03.028.234.039.361-1.386 0-2.728.002-4.07-.004-.086 0-.173-.059-.259-.092-.248-.096-.492-.263-.745-.28-3.408-.237-6.859.359-10.327-.598 0-.223.007-.47-.002-.715zM33.7 4.523c.016.324-.077.814.094.94.546.397.311.923.389 1.396.058.355-.008.813.192 1.041.342.39.248.739.216 1.103-3.062 0-6.079 0-9.096-.005-.126 0-.254-.06-.377-.103-.255-.086-.504-.248-.76-.257-.879-.033-1.76-.013-2.728-.013.054-.25.046-.432.13-.552.266-.378.587-.718.85-1.1.242-.352.409-.758.66-1.103.174-.237.405-.505.667-.592.602-.2 1.236-.157 1.868-.452.654-.304 1.466-.231 2.22-.506.873-.32 1.88-.116 2.848-.464.815-.292 1.818-.06 2.825-.06 0 .273-.01.5.002.727zM6.286 10.668c-.358.24-.68.53-1.026.787-.176.132-.371.237-.558.353-.315.148-.64.11-.95.507-.178.226-.843.076-1.246.094-.411-1.58.422-2.572 1.555-3.17.804-.426 1.843-.398 2.71.47.085.365-.09.695-.485.958zm71.607 5.064c.193.158.375.334.537.523.26.302.5.62.744.934.08.102.148.214.222.322-.114.066-.241.202-.34.185-.454-.078-1.045.23-1.311-.422-.656.083-1.14-.327-1.667-.593-.36-.183-.721-.39-1.027-.648-.324-.274-.584-.621-.94-1.013l.04-.685c.517 0 1.025-.075 1.496.023.414.085.789.366 1.234.586.329.254.678.512 1.012.788zM17.74 7.525c.444-.33.87-.402 1.353-.453.036-.003.095-.025.098-.046.103-.587.584-.307.904-.398.184-.053.366-.119.539-.202.175-.082.337-.192.505-.291l.16.156c-.084.27-.115.575-.264.802-.229.35-.525.66-.818.962-.197.201-.431.501-.66.511-1.111.05-2.226.024-3.34-.003-.126-.002-.248-.174-.469-.339.825-.27 1.514-.343 1.992-.699zm164.64 38.807c.005.017.017.041.031.046.499.164.347.607.415.955.029.15.002.393.082.435.488.25.37.701.422 1.1.017.13.02.352.08.372.469.152.32.544.367.857.027.17-.018.454.064.495.598.295.349.844.438 1.289.017.088.05.243.09.248.482.058.301.446.372.709.181.673.224 1.44.594 1.99.28.415.307.798.408 1.216.037.15.213.263.269.413.057.154.045.333.063.501-.436-.066-.875-.114-1.305-.206-.174-.037-.317-.21-.492-.254-.751-.19-1.51-.355-2.264-.533-.049-.013-.124-.059-.127-.096-.042-.416-.37-.296-.612-.33-.264-.034-.728.01-.762-.093-.183-.555-.625-.316-.959-.39-.166-.038-.45-.016-.484-.1-.186-.473-.586-.31-.915-.363-.185-.03-.494-.033-.528-.128-.158-.434-.518-.315-.816-.364-.207-.036-.555.008-.603-.094-.266-.567-.773-.342-1.182-.428-.11-.024-.302-.026-.315-.075-.135-.497-.547-.307-.857-.365-.203-.038-.563-.033-.586-.118-.14-.517-.545-.298-.844-.36-.2-.043-.557-.035-.58-.119-.119-.447-.479-.275-.74-.366-.425-.152-.851-.321-1.238-.55-.172-.1-.247-.361-.366-.55-.152-.215-.227-.477-.332-.728-.077-.183-.222-.34-.286-.525-.137-.398-.33-.804-.343-1.212a65.068 65.068 0 01-.002-4.345c.013-.357.312-.704.52-1.14l.506-.527c2.853 0 5.832-.003 8.81.005.184.001.375.06.547.13.244.097.468.315.71.33.604.042.943.402 1.296.822.24.284.579.486.903.747l.55 1.7zm3.084 28.386c-.088-.002-.19-.09-.257-.165-.134-.147-.25-.313-.372-.47-.24-.425.138-1.079-.537-1.396-.027-.013-.02-.108-.02-.165-.002-.86-.001-1.719-.001-2.489 1.004-1.062 2.168-.47 3.287-.569v5.261c-.731 0-1.416.006-2.1-.007z"/></svg>