<svg xmlns="http://www.w3.org/2000/svg" width="21" height="25"><path fill-rule="evenodd" d="M20.773 6.813c-.203.24-.407.481-.597.734a10.845 10.845 0 00-1.637 3.108 8.903 8.903 0 00-.427 3.315c.032.578.082 1.152.193 1.719.111.567.272 1.115.51 1.635.396.866.966 1.557 1.724 2.059.042.028.087.056.127.086a.881.881 0 01.263 1.038c-.026.064-.059.125-.09.186-.473.936-.947 1.871-1.421 2.805-.035.068-.068.138-.109.201-.186.284-.504.407-.812.316a1.575 1.575 0 01-.162-.06 11.287 11.287 0 00-2.294-.721 7.476 7.476 0 00-1.807-.157 4.993 4.993 0 00-1.691.354 3.968 3.968 0 00-1.669 1.301c-.037.048-.071.1-.111.143-.159.163-.358.165-.519.007-.032-.031-.058-.069-.085-.105-.625-.852-1.442-1.351-2.41-1.57a5.91 5.91 0 00-1.828-.109c-1.109.096-2.173.402-3.209.835-.066.027-.133.057-.201.078-.325.1-.651-.033-.839-.342-.028-.046-.052-.094-.076-.141L.143 20.662a1.056 1.056 0 01-.14-.462c-.007-.314.106-.559.34-.739.023-.018.048-.033.073-.049.951-.618 1.596-1.513 1.988-2.638a8.584 8.584 0 00.381-1.63c.074-.526.102-1.056.114-1.587a8.698 8.698 0 00-.599-3.352A11.116 11.116 0 00.322 6.919c-.039-.046-.08-.089-.118-.136a.89.89 0 01-.045-1.076l.053-.073c.487-.64.976-1.281 1.462-1.925.137-.181.301-.31.518-.339a.957.957 0 01.233.003c.432.057.866.083 1.3.059a4.471 4.471 0 001.319-.265c1.123-.42 1.887-1.246 2.314-2.453.026-.073.045-.149.075-.219.125-.291.332-.461.628-.489.071-.007.143-.005.214-.005h4.445c.071 0 .143-.002.214.004.296.027.504.194.632.484.021.049.035.103.052.153.485 1.431 1.413 2.311 2.764 2.655.609.156 1.227.174 1.848.111l.382-.044a.72.72 0 01.625.236c.036.037.067.08.099.122l1.436 1.89c.027.036.055.072.08.11a.811.811 0 01.147.471.906.906 0 01-.226.62zM18.703 4.2l-.525.048a5.78 5.78 0 01-2.057-.16 4.376 4.376 0 01-2.127-1.278 5.092 5.092 0 01-1.048-1.749c-.029-.077-.037-.168-.102-.224-.268-.024-4.533-.01-4.714.019l-.084.227c-.535 1.413-1.448 2.39-2.777 2.882-.788.292-1.601.356-2.425.291l-.277-.026-.262-.024C1.943 4.638.874 6.058.783 6.229l.143.169c.968 1.148 1.732 2.435 2.229 3.905.31.915.49 1.859.505 2.837.008.515-.008 1.03-.054 1.544-.059.67-.166 1.329-.35 1.972-.416 1.455-1.175 2.625-2.374 3.429-.035.023-.066.053-.095.075.003.03 0 .047.007.059.498.983.997 1.965 1.496 2.946.003.007.011.01.017.014.006.004.013.006.029.013.019-.006.045-.014.071-.025a11.18 11.18 0 013.268-.867c.698-.075 1.392-.077 2.085.06 1.015.201 1.909.661 2.645 1.465.029.032.062.06.091.087.015-.007.023-.009.028-.014.047-.048.094-.094.14-.143a4.651 4.651 0 011.342-.985 5.265 5.265 0 011.773-.49 7.831 7.831 0 012.214.103c.867.154 1.708.412 2.528.758l.152.062c.117-.162 1.471-2.838 1.538-3.032-.003-.007-.005-.016-.01-.02-.059-.044-.118-.089-.177-.131a5.57 5.57 0 01-1.822-2.16 8.028 8.028 0 01-.628-1.91 12.716 12.716 0 01-.234-2.441c-.003-.335.007-.672.036-1.006.071-.804.25-1.582.517-2.336a12.031 12.031 0 012.171-3.755l.172-.201c-.517-.676-1.024-1.349-1.533-2.011zm-6.037 9.087c-.517.472-.838.85-.963 1.137-.125.287-.181.798-.169 1.538h-2.22a57.134 57.134 0 01-.009-.642c0-.789.119-1.437.357-1.945.238-.512.716-1.083 1.429-1.721.713-.635 1.141-1.053 1.278-1.251.216-.31.324-.655.324-1.03 0-.522-.19-.968-.571-1.343-.38-.372-.891-.557-1.536-.557-.621 0-1.141.195-1.56.583-.416.388-.704.981-.861 1.776l-2.244-.306a4.232 4.232 0 011.325-2.904c.823-.795 1.899-1.192 3.236-1.192 1.403 0 2.519.404 3.352 1.208.828.806 1.244 1.741 1.244 2.813 0 .59-.154 1.15-.457 1.678-.306.528-.957 1.249-1.955 2.158zm-.906 6.282H9.314v-2.682h2.446v2.682z"/></svg>