<svg xmlns="http://www.w3.org/2000/svg" width="39" height="30"><path fill="#9c9c9c" d="M25.818 14.02c.334.211.537.581.537.98 0 .397-.203.767-.537.978l-9.14 5.77a1.134 1.134 0 01-1.16.03 1.156 1.156 0 01-.589-1.01V9.23c0-.42.226-.807.589-1.01a1.135 1.135 0 011.16.031zm-2.761.98l-5.842-3.688v7.375zM39 5.767V24.23c0 3.181-2.563 5.77-5.713 5.77H5.713C2.563 29.999 0 27.411 0 24.23V5.768C0 2.587 2.563 0 5.713 0h27.574C36.437 0 39 2.588 39 5.77zm-2.285 0c0-1.908-1.538-3.46-3.428-3.46H5.713c-1.89 0-3.428 1.552-3.428 3.46V24.23c0 1.908 1.538 3.46 3.428 3.46h27.574c1.89 0 3.428-1.552 3.428-3.46z"/></svg>