<?xml version="1.0" encoding="utf-8"?><svg viewBox="0 0 512 512" xmlns="http://www.w3.org/2000/svg" xmlns:xlink="http://www.w3.org/1999/xlink"><style>:root>svg{display:none}:root>svg:target{display:block}</style><svg viewBox="0 0 14 14" id="2rows" xmlns="http://www.w3.org/2000/svg"><circle cx="3" cy="3" r="3"/><circle cx="3" cy="11" r="3"/><circle cx="11" cy="3" r="3"/><circle cx="11" cy="11" r="3"/></svg><svg viewBox="0 0 19 14" id="4rows" xmlns="http://www.w3.org/2000/svg"><circle cx="2" cy="2" r="2"/><circle cx="7" cy="2" r="2"/><circle cx="12" cy="2" r="2"/><circle cx="17" cy="2" r="2"/><circle cx="2" cy="7" r="2"/><circle cx="7" cy="7" r="2"/><circle cx="12" cy="7" r="2"/><circle cx="17" cy="7" r="2"/><circle cx="2" cy="12" r="2"/><circle cx="7" cy="12" r="2"/><circle cx="12" cy="12" r="2"/><circle cx="17" cy="12" r="2"/></svg><svg viewBox="0 0 22 22" id="accessory" xmlns="http://www.w3.org/2000/svg"><path d="M21.563 3.909a.65.65 0 00-1.064-.22L17.148 7.04l-1.802-.387-.387-1.802 3.35-3.351A.65.65 0 0018.09.436a6.195 6.195 0 00-8.34 4.438 6.211 6.211 0 00.085 2.989L.89 16.806A3.022 3.022 0 000 18.957c0 .813.316 1.576.891 2.151a3.021 3.021 0 002.15.891c.813 0 1.577-.316 2.152-.891l8.943-8.944a6.21 6.21 0 002.989.086 6.194 6.194 0 004.438-8.34zm-2.298 5.75a4.925 4.925 0 01-5.094 1.155.65.65 0 00-.675.153l-9.222 9.222a1.73 1.73 0 01-1.232.51 1.73 1.73 0 01-1.232-.51 1.727 1.727 0 01-.51-1.232c0-.465.18-.903.51-1.232l9.222-9.222a.65.65 0 00.153-.675 4.925 4.925 0 011.156-5.094 4.894 4.894 0 014.266-1.369l-2.818 2.817a.65.65 0 00-.175.596l.55 2.559a.65.65 0 00.498.498l2.558.55a.65.65 0 00.596-.176l2.818-2.817a4.895 4.895 0 01-1.369 4.266z"/></svg><svg viewBox="0 0 284.929 284.929" id="arrow-down-2" xmlns="http://www.w3.org/2000/svg"><path d="M282.082 76.511l-14.274-14.273c-1.902-1.906-4.093-2.856-6.57-2.856-2.471 0-4.661.95-6.563 2.856L142.466 174.441 30.262 62.241c-1.903-1.906-4.093-2.856-6.567-2.856-2.475 0-4.665.95-6.567 2.856L2.856 76.515C.95 78.417 0 80.607 0 83.082c0 2.473.953 4.663 2.856 6.565l133.043 133.046c1.902 1.903 4.093 2.854 6.567 2.854s4.661-.951 6.562-2.854L282.082 89.647c1.902-1.903 2.847-4.093 2.847-6.565 0-2.475-.945-4.665-2.847-6.571z"/></svg><svg viewBox="0 0 7 11" id="arrow-more" xmlns="http://www.w3.org/2000/svg"><path d="M3.804 10.874L6.04 8.628a.43.43 0 00-.61-.606L3.93 9.53V.43a.43.43 0 10-.859 0v9.1l-1.5-1.508a.43.43 0 10-.609.606l2.234 2.246a.43.43 0 00.61 0z"/></svg><svg viewBox="0 0 30 18" id="begovel" xmlns="http://www.w3.org/2000/svg"><g clip-path="url(#afclip0)"><path d="M23.055 6.477l-1.582-4.613h1.33c.534 0 .967-.417.967-.932 0-.515-.433-.932-.967-.932h-2.67c-.658 0-1.125.622-.918 1.224l.948 2.766-7.194 3.65-1.36-2.176h.244c.534 0 .967-.418.967-.932 0-.515-.433-.932-.967-.932H8.829c-.535 0-.968.417-.968.932 0 .514.433.932.968.932h.521l1.904 3.046-.457.232c-2.05-2.589-6.241-3.293-9.03-.607-2.355 2.268-2.356 5.895 0 8.164 3.422 3.296 9.187 1.52 10.12-2.922.081-.391.145-1.727.008-2.273-.061-.245-.117-.488-.197-.72l9.088-4.579.107.312.009.026.037.107.276.808c-1.93.966-3.25 2.91-3.25 5.146 0 3.196 2.699 5.796 6.017 5.796C27.3 18 30 15.4 30 12.204c0-3.532-3.28-6.276-6.945-5.727zM5.33 11.547a.914.914 0 00-.313.686c0 .515.433.932.968.932.294-.002.451-.128.71-.258l3.255-1.642c.143.633.017 1.906-.106 2.246-.556 1.526-2.067 2.624-3.84 2.624-2.243 0-4.067-1.758-4.067-3.918S3.76 8.299 6.004 8.299c1.213 0 2.303.514 3.049 1.328L5.65 11.353c-.14.07-.205.09-.321.194zm18.652 4.589c-2.251 0-4.082-1.764-4.082-3.932 0-1.41.774-2.648 1.934-3.342l1.244 3.626c.134.392.512.64.919.64.656 0 1.126-.62.919-1.225l-1.242-3.619c2.389-.172 4.39 1.654 4.39 3.92 0 2.168-1.83 3.932-4.082 3.932z"/></g><defs><clipPath id="afclip0"><path d="M0 0h30v18H0z"/></clipPath></defs></svg><svg viewBox="0 0 30 18" id="bycicle" xmlns="http://www.w3.org/2000/svg"><path d="M23.054 6.477L21.052.64a.965.965 0 00-.918-.64h-2.23c-.535 0-.968.417-.968.932 0 .515.433.932.968.932h1.53l.52 1.515h-9.648l-.146-.233h.244c.534 0 .968-.418.968-.932 0-.515-.434-.932-.968-.932H7.38c-.535 0-.968.417-.968.932 0 .514.433.932.968.932h.52l.754 1.206-1.082 2.284a6.123 6.123 0 00-5.807 1.5c-2.354 2.267-2.355 5.894 0 8.163 3.472 3.343 9.369 1.469 10.16-3.134H14.7a.982.982 0 00.763-.358l5.429-6.69.322.94c-1.93.967-3.25 2.911-3.25 5.147 0 3.196 2.699 5.796 6.017 5.796C27.3 18 30 15.4 30 12.204c0-3.531-3.279-6.276-6.946-5.727zM9.865 6.288l3.133 5.013h-1.066c-.273-1.636-1.26-3.02-2.6-3.889l.533-1.124zm-1.35 2.85A3.914 3.914 0 019.959 11.3h-2.47l1.026-2.163zm-2.51 6.997c-2.244 0-4.069-1.758-4.069-3.918 0-2.435 2.302-4.303 4.817-3.85l-1.649 3.479c-.292.617.177 1.319.88 1.319h3.967c-.441 1.704-2.043 2.97-3.947 2.97zm8.805-5.55l-3.34-5.342h7.676l-4.336 5.343zm9.172 5.55c-2.251 0-4.082-1.763-4.082-3.931 0-1.41.774-2.648 1.934-3.342l1.244 3.626c.134.392.512.64.919.64.658 0 1.125-.622.919-1.225l-1.242-3.619c2.386-.172 4.39 1.65 4.39 3.92 0 2.168-1.83 3.932-4.082 3.932z"/></svg><svg viewBox="0 0 19 24" id="car-seat" xmlns="http://www.w3.org/2000/svg"><path d="M6.617 8.904c-.053.557-.152 1.244-.252 1.941-.164 1.145-.332 2.319-.336 3.297-.003.582.14 1.495.44 2.245.265.66.664 1.232 1.225 1.486 1.052.475 3.434.063 5.158-.236.607-.105 1.125-.195 1.423-.218a2.933 2.933 0 011.9.482c.668.447 1.078 1.082 1.201 1.544l.007.023c-.185.022-.44.015-.687.008h-.04c-1.832-.051-3.626-.032-5.419-.012-1.728.019-3.454.038-5.215-.008-.068-.002-.147-.001-.228-.001-.202 0-.41.158-.428.08L1.757 3.004a6.652 6.652 0 00-.08-.332c-.062-.24-.103-.4.379-.666l.01-.003.217-.123c.29-.155.532-.247.766-.262.24-.016.514.043.871.188 1.016.412 1.683 1.3 2.104 2.347.626 1.554.718 3.433.593 4.75zm2.301-.626c.393-2.49-.264-4.844-1.387-6.117 1.775-.153 3.342.897 3.585 2.833.175 1.393-.898 2.97-2.198 3.284zM6.023 23.945c-.132-.007-.38-.187-.398-.4-.059-.166-.024-1.665-.024-1.91h11.34c.602 0 .689-.013.685.294-.004.313.014 1.305-.033 1.506a4.144 4.144 0 01-.145.287c-.15.194-.453.248-.793.255-3.5.067-7.115-.032-10.632-.032zM16.314 9.378c-.117.442-1.917 2.448-2.222 2.756-.552.557-1.17.223-1.374.202l-1.568-.313.44 1.73c.072.203.084.408.163.58.745-.18 2.694-.537 3.436-.436.53.181 2.875.892 3.218 1.165.603.432.663 1.31.222 1.767-.098.117-.06.137-.241.188-.398-.343-.984-1.266-2.363-1.708-.935-.299-1.598-.326-2.673-.15-1.348.222-3.32.578-4.01.483-.52-.072-.893-.495-.909-1.057-.198-1.567.589-3.714.424-5.435-.007-.072.063-.117.181-.128.372-.034 2.896.679 3.616.767.19.024.255-.003.373-.13a.288.288 0 00.027-.034c.218-.257 1.191-1.45 1.451-1.62.437-.286 1.015-.228 1.411.084.362.368.553.71.398 1.29zm-8.4 1.701c.1-.686.196-1.361.258-2.017.145-1.519.033-3.7-.702-5.528C6.9 2.115 5.96.898 4.49.3 3.912.067 3.428-.025 2.951.006c-.482.031-.914.184-1.39.44l-.015.009-.234.132V.59C-.257 1.458-.09 2.108.166 3.09c.027.104.055.214.067.27l3.61 16.529c.257 1.183 1.184 1.18 1.952 1.179l.191.001c1.776.046 3.52.027 5.264.008 1.775-.02 3.552-.039 5.37.011l.04.001c.444.013.913.026 1.327-.107.79-.252 1.247-.797.892-1.986-.21-.763-.846-1.776-1.852-2.449a4.433 4.433 0 00-2.868-.742c-.355.029-.911.125-1.563.238-1.533.266-3.651.632-4.276.35-.139-.063-.28-.31-.404-.62a4.779 4.779 0 01-.325-1.624c.004-.832.166-1.965.325-3.07zm9.53 8.38c.06-.014.136-.037.083-.02a.656.656 0 01-.083.02z"/></svg><svg viewBox="0 0 33 32" id="cart" xmlns="http://www.w3.org/2000/svg"><path d="M10.083 25.5c-1.741 0-3.15 1.425-3.15 3.167 0 1.741 1.409 3.166 3.15 3.166a3.176 3.176 0 003.167-3.166 3.176 3.176 0 00-3.167-3.167zM2.167 3.333H3.75l5.7 12.018-2.138 3.863c-1.155 2.122.365 4.703 2.771 4.703H27.5c.87 0 1.583-.713 1.583-1.584 0-.87-.712-1.583-1.583-1.583H10.083l1.742-3.167h11.796a3.151 3.151 0 002.77-1.63L32.06 5.677c.586-1.045-.174-2.344-1.378-2.344H7.25L6.19 1.07A1.572 1.572 0 004.762.167H2.167C1.296.167.583.879.583 1.75c0 .87.713 1.583 1.584 1.583zM25.917 25.5c-1.742 0-3.151 1.425-3.151 3.167 0 1.741 1.409 3.166 3.15 3.166a3.176 3.176 0 003.167-3.166 3.176 3.176 0 00-3.166-3.167z"/></svg><svg viewBox="0 0 20 20" id="check" xmlns="http://www.w3.org/2000/svg"><circle cx="10" cy="10" r="10"/><path d="M9.467 14.255c-.51.51-1.337.51-1.847 0l-2.862-2.863a1.306 1.306 0 011.847-1.847l1.705 1.706a.33.33 0 00.467 0l4.618-4.618a1.307 1.307 0 011.848 1.847l-5.776 5.775z"/></svg><svg viewBox="0 0 14 14" id="close" xmlns="http://www.w3.org/2000/svg"><path d="M9.132 7l3.998-3.997a1.13 1.13 0 000-1.6l-.533-.532a1.13 1.13 0 00-1.599 0L7 4.868 3.002.87a1.13 1.13 0 00-1.598 0l-.534.533a1.13 1.13 0 000 1.599L4.868 7 .871 10.998a1.13 1.13 0 000 1.6l.533.532a1.13 1.13 0 001.598 0L7 9.132l3.998 3.998a1.13 1.13 0 001.6 0l.532-.533a1.13 1.13 0 000-1.599L9.132 7.001z"/></svg><svg viewBox="0 0 14 14" id="comment" xmlns="http://www.w3.org/2000/svg"><path d="M2.038 13.163h-.992l.702-.701c.378-.378.614-.87.678-1.404C.806 9.995 0 8.455 0 6.841 0 3.863 2.737.837 7.024.837 11.564.837 14 3.622 14 6.58c0 2.978-2.46 5.761-6.976 5.761a9.46 9.46 0 01-2.354-.299 3.676 3.676 0 01-2.632 1.121z"/></svg><svg viewBox="0 0 12 14" id="delete" xmlns="http://www.w3.org/2000/svg"><path d="M1.333 12.444c0 .856.7 1.556 1.556 1.556H9.11c.856 0 1.556-.7 1.556-1.556V3.111H1.333v9.333zM11.444.778H8.722L7.944 0H4.056l-.778.778H.556v1.555h10.888V.778z"/></svg><svg viewBox="0 0 18 18" id="delivery" xmlns="http://www.w3.org/2000/svg"><path d="M0 12.387c0 .184.13.33.314.33h.501c.337-.744 1.103-1.306 1.993-1.306.89 0 1.657.563 1.994 1.305h6.513v-2.665H0v2.336z"/><path d="M2.808 12.116a1.477 1.477 0 100 2.954 1.477 1.477 0 000-2.954zm14.999-3.15L16.4 8.347h-4.386v4.37h.851c.337-.744 1.103-1.306 1.993-1.306.89 0 1.657.563 1.994 1.305h.833c.185 0 .314-.145.314-.33V9.284a.34.34 0 00-.192-.317zm-2.853-3.138a1.003 1.003 0 00-.906-.539h-2.034v2.36h3.884l-.944-1.82zM10.312 2.93H.998C.436 2.93 0 3.392 0 3.954v5.398h11.315V3.95a1.011 1.011 0 00-1.003-1.02z"/><path d="M14.86 12.116a1.477 1.477 0 101.477 1.477c0-.816-.661-1.477-1.477-1.477z"/></svg><svg viewBox="0 0 20 12" id="down-arrow" xmlns="http://www.w3.org/2000/svg"><path d="M19.68 1.08l-.655-.659a1.086 1.086 0 00-.773-.32c-.293 0-.568.114-.774.32l-7.474 7.474L2.524.413a1.085 1.085 0 00-.774-.32c-.293 0-.568.114-.774.32l-.655.655a1.095 1.095 0 000 1.548l8.908 8.94c.206.206.48.35.776.35h.003c.293 0 .568-.145.774-.35l8.9-8.916c.206-.206.319-.489.319-.782 0-.293-.113-.572-.32-.777z"/></svg><svg viewBox="0 0 14 14" id="edit" xmlns="http://www.w3.org/2000/svg"><path d="M0 11.083V14h2.917l8.607-8.607-2.917-2.917L0 11.083zm13.772-9.039L11.956.228a.78.78 0 00-1.1 0L9.431 1.65l2.917 2.917 1.423-1.423a.78.78 0 000-1.101z"/></svg><svg viewBox="0 0 30 16" id="electro-car" xmlns="http://www.w3.org/2000/svg"><path d="M7.82 9.987a1.118 1.118 0 101.117 1.117 1.12 1.12 0 00-1.118-1.117zm13.096 0a1.118 1.118 0 101.117 1.117c0-.616-.5-1.117-1.117-1.117zm5.062-4.992l-3.419-.548-3.388-3.4a.966.966 0 00-1.368 1.362l1.957 1.965h-3.763v-.845a.966.966 0 10-1.93 0v.845H10.03l-1.408-2.44c-.284-.492-.912-.592-1.32-.412L2.498 3.638A4.066 4.066 0 00.081 6.961c-.105.245-.078.184-.078 2.729 0 1.089.955 2.283 2.324 2.348.037.002 1.429.001 1.466.001a4.14 4.14 0 004.026 3.199 4.14 4.14 0 004.027-3.199h5.044a4.14 4.14 0 004.027 3.199 4.14 4.14 0 004.026-3.199h2.752A2.31 2.31 0 0030 9.714a4.781 4.781 0 00-4.022-4.719zM7.819 13.306a2.206 2.206 0 01-2.203-2.202c0-1.215.989-2.204 2.203-2.204 1.215 0 2.203.989 2.203 2.204a2.206 2.206 0 01-2.203 2.203zm13.097 0a2.205 2.205 0 01-2.203-2.202c0-1.215.989-2.204 2.203-2.204 1.215 0 2.203.989 2.203 2.204a2.205 2.205 0 01-2.203 2.203zm6.78-3.198h-2.767a4.141 4.141 0 00-4.013-3.139 4.141 4.141 0 00-4.012 3.139h-5.072a4.141 4.141 0 00-4.013-3.139 4.141 4.141 0 00-4.012 3.139H2.402a.535.535 0 01-.467-.467v-1.99a.98.98 0 00.06-.328 2.124 2.124 0 011.28-1.917l4.083-1.798 1.277 2.214a.966.966 0 00.837.483h12.477l3.723.597a2.85 2.85 0 011.36.61h-.352a.966.966 0 000 1.932h1.376c.008.089.013.18.013.27 0 .24-.179.394-.374.394z"/></svg><svg viewBox="0 0 24 24" id="facebook" xmlns="http://www.w3.org/2000/svg"><path d="M21 0H3C1.345 0 0 1.345 0 3v18c0 1.654 1.345 3 3 3h18c1.654 0 3-1.346 3-3V3c0-1.655-1.346-3-3-3z"/><path d="M16.5 12V9c0-.828.672-.75 1.5-.75h1.5V4.5h-3A4.5 4.5 0 0012 9v3H9v3.75h3V24h4.5v-8.25h2.25l1.5-3.75z"/></svg><svg viewBox="0 0 18 18" id="form-error" xmlns="http://www.w3.org/2000/svg"><circle cx="9" cy="9" r="9"/><g clip-path="url(#asclip0)"><path d="M10.421 9l2.666-2.665a.753.753 0 000-1.066l-.356-.355a.753.753 0 00-1.066 0L9 7.579 6.335 4.913a.753.753 0 00-1.066 0l-.356.355a.754.754 0 000 1.066L7.579 9l-2.665 2.665a.753.753 0 000 1.066l.355.356a.754.754 0 001.066 0L9 10.422l2.665 2.665a.754.754 0 001.066 0l.356-.356a.754.754 0 000-1.066L10.42 9z"/></g><defs><clipPath id="asclip0"><path transform="translate(4.692 4.692)" d="M0 0h8.615v8.615H0z"/></clipPath></defs></svg><svg viewBox="0 0 20 20" id="form-true" xmlns="http://www.w3.org/2000/svg"><circle cx="10" cy="10" r="10"/><path d="M9.467 14.255c-.51.51-1.337.51-1.847 0l-2.862-2.863a1.306 1.306 0 011.847-1.847l1.705 1.706a.33.33 0 00.467 0l4.618-4.618a1.307 1.307 0 011.848 1.847l-5.776 5.775z"/></svg><svg viewBox="0 0 32 30" id="heart" xmlns="http://www.w3.org/2000/svg"><path d="M29.461 3.536C27.805 1.74 25.532.75 23.061.75c-1.847 0-3.539.584-5.028 1.736A10.285 10.285 0 0016 4.608a10.28 10.28 0 00-2.033-2.122C12.478 1.334 10.787.75 8.939.75c-2.471 0-4.744.99-6.4 2.786C.901 5.312 0 7.738 0 10.366c0 2.707 1.009 5.184 3.174 7.797 1.937 2.337 4.72 4.71 7.945 7.457 1.1.939 2.348 2.002 3.644 3.135a1.877 1.877 0 002.474 0c1.295-1.133 2.544-2.197 3.645-3.135 3.223-2.747 6.007-5.12 7.944-7.457C30.992 15.55 32 13.073 32 10.367c0-2.63-.902-5.055-2.539-6.83z"/></svg><svg viewBox="0 0 16 16" id="home" xmlns="http://www.w3.org/2000/svg"><g clip-path="url(#avclip0)"><path d="M15.601 6.928l-.001-.001L9.073.4a1.463 1.463 0 00-1.041-.43c-.394 0-.764.153-1.042.431L.467 6.923a1.475 1.475 0 001.019 2.518h.26v4.804c0 .95.773 1.724 1.724 1.724h2.553c.259 0 .469-.21.469-.469v-3.766c0-.433.353-.786.786-.786h1.507c.433 0 .786.353.786.786V15.5c0 .259.21.469.469.469h2.553c.951 0 1.724-.774 1.724-1.724V9.442h.242a1.475 1.475 0 001.043-2.514zm-.664 1.42a.532.532 0 01-.378.156h-.71a.469.469 0 00-.47.47v5.27a.787.787 0 01-.786.787H10.51v-3.297c0-.95-.774-1.724-1.724-1.724H7.278c-.95 0-1.724.774-1.724 1.724v3.297H3.47a.787.787 0 01-.787-.786V8.973a.469.469 0 00-.469-.469h-.719a.536.536 0 01-.369-.913V7.59l6.527-6.527a.531.531 0 01.757 0l6.525 6.525.003.003a.537.537 0 010 .756z"/></g><defs><clipPath id="avclip0"><path d="M0 0h16v16H0z"/></clipPath></defs></svg><svg viewBox="0 0 102 102" id="instagram" xmlns="http://www.w3.org/2000/svg"><path d="M25.865 101.639A34.341 34.341 0 0114.312 99.5a19.329 19.329 0 01-7.154-4.653A19.181 19.181 0 012.5 87.694 34.341 34.341 0 01.364 76.142C.061 69.584 0 67.617 0 51s.067-18.577.361-25.14A34.534 34.534 0 012.5 14.312a19.4 19.4 0 014.654-7.158A19.206 19.206 0 0114.309 2.5 34.341 34.341 0 0125.862.361C32.422.061 34.392 0 51 0s18.577.067 25.14.361A34.534 34.534 0 0187.691 2.5a19.254 19.254 0 017.154 4.653 19.267 19.267 0 014.655 7.156 34.341 34.341 0 012.14 11.553c.3 6.563.361 8.528.361 25.14s-.061 18.577-.361 25.14a34.5 34.5 0 01-2.14 11.552A20.6 20.6 0 0187.691 99.5a34.342 34.342 0 01-11.553 2.14c-6.557.3-8.528.361-25.14.361s-18.577-.058-25.134-.361" data-name="Path 16"/><path d="M25.865 101.639A34.341 34.341 0 0114.312 99.5a19.329 19.329 0 01-7.154-4.653A19.181 19.181 0 012.5 87.694 34.341 34.341 0 01.364 76.142C.061 69.584 0 67.617 0 51s.067-18.577.361-25.14A34.534 34.534 0 012.5 14.312a19.4 19.4 0 014.654-7.158A19.206 19.206 0 0114.309 2.5 34.341 34.341 0 0125.862.361C32.422.061 34.392 0 51 0s18.577.067 25.14.361A34.534 34.534 0 0187.691 2.5a19.254 19.254 0 017.154 4.653 19.267 19.267 0 014.655 7.156 34.341 34.341 0 012.14 11.553c.3 6.563.361 8.528.361 25.14s-.061 18.577-.361 25.14a34.5 34.5 0 01-2.14 11.552A20.6 20.6 0 0187.691 99.5a34.342 34.342 0 01-11.553 2.14c-6.557.3-8.528.361-25.14.361s-18.577-.058-25.134-.361" data-name="Path 17"/><path d="M38.477 51.217a12.631 12.631 0 1112.629 12.632 12.631 12.631 0 01-12.629-12.632m-6.829 0a19.458 19.458 0 1019.458-19.458 19.457 19.457 0 00-19.458 19.458m35.139-20.229a4.547 4.547 0 104.549-4.545 4.549 4.549 0 00-4.547 4.545m-30.99 51.074a20.943 20.943 0 01-7.037-1.3 12.547 12.547 0 01-7.193-7.19 20.923 20.923 0 01-1.3-7.037c-.184-3.994-.22-5.194-.22-15.313s.04-11.316.22-15.314a21.082 21.082 0 011.3-7.037 12.54 12.54 0 017.193-7.193 20.924 20.924 0 017.037-1.3c3.994-.184 5.194-.22 15.309-.22s11.316.039 15.314.221a21.082 21.082 0 017.037 1.3 12.541 12.541 0 017.193 7.193 20.926 20.926 0 011.3 7.037c.184 4 .22 5.194.22 15.314s-.037 11.316-.22 15.314a21.023 21.023 0 01-1.3 7.037 12.547 12.547 0 01-7.193 7.19 20.925 20.925 0 01-7.037 1.3c-3.994.184-5.194.22-15.314.22s-11.316-.037-15.309-.22m-.314-68.509a27.786 27.786 0 00-9.2 1.76 19.373 19.373 0 00-11.083 11.083 27.794 27.794 0 00-1.76 9.2c-.187 4.04-.229 5.332-.229 15.623s.043 11.582.229 15.623a27.793 27.793 0 001.76 9.2 19.374 19.374 0 0011.083 11.083 27.813 27.813 0 009.2 1.76c4.042.184 5.332.229 15.623.229s11.582-.043 15.623-.229a27.8 27.8 0 009.2-1.76 19.374 19.374 0 0011.083-11.083 27.716 27.716 0 001.76-9.2c.184-4.043.226-5.332.226-15.623s-.043-11.582-.226-15.623a27.786 27.786 0 00-1.76-9.2 19.379 19.379 0 00-11.08-11.083 27.748 27.748 0 00-9.2-1.76c-4.041-.185-5.332-.229-15.621-.229s-11.583.043-15.626.229" data-name="Path 18"/></svg><svg viewBox="0 0 38 32" id="justice" xmlns="http://www.w3.org/2000/svg"><path d="M15.586 16.88c0-.61-.505-1.107-1.113-1.107h-1.388c-.008 0-.015-.007-.015-.014L9.307 3.549c0-.014.007-.022.015-.022h8.543c.007 0 .022.008.022.023v24.455c0 .007-.008.022-.023.022h-4.43c-.616 0-1.114.497-1.114 1.113v1.626c0 .616.498 1.113 1.114 1.113h11.132c.616 0 1.114-.497 1.114-1.113v-1.633c0-.616-.498-1.113-1.114-1.113h-4.43c-.008 0-.023-.008-.023-.023V3.55c0-.008.008-.023.023-.023h8.542c.015 0 .022.015.015.023l-3.756 12.209a.016.016 0 01-.014.014h-1.5c-.556 0-1.001.453-1.001 1.002 0 4.46 3.688 8.09 8.141 7.897 4.127-.185 7.444-3.614 7.437-7.793 0-.608-.505-1.106-1.113-1.106h-1.388c-.008 0-.015-.007-.022-.014L31.72 3.549c0-.014.008-.022.015-.022h2.894c.602 0 1.114-.46 1.143-1.061a1.115 1.115 0 00-1.113-1.165H3.37c-.602 0-1.114.46-1.143 1.061A1.115 1.115 0 003.34 3.527h2.917c.014 0 .022.015.014.023L2.523 15.759a.015.015 0 01-.014.014H1.002A1 1 0 000 16.761c-.007 4.468 3.681 8.104 8.142 7.911 4.134-.185 7.451-3.614 7.444-7.793zm15.245-7.423l1.707 5.537a.648.648 0 01-.624.839H28.5a.643.643 0 01-.616-.839l1.707-5.537c.186-.608 1.054-.608 1.24 0zM5.47 14.92l1.707-5.537c.186-.608 1.054-.608 1.247 0l1.707 5.537a.648.648 0 01-.624.839H6.086a.643.643 0 01-.616-.84z"/><path d="M21.137 3.193h-4.274v25.39h4.274V3.194z"/><path d="M35.773 1.457v.957c0 .616-.497 1.113-1.113 1.113H3.325a1.112 1.112 0 01-1.113-1.113v-.957c0-.616.497-1.114 1.113-1.114H34.66c.616 0 1.113.498 1.113 1.114z"/></svg><svg viewBox="0 0 14 14" id="like" xmlns="http://www.w3.org/2000/svg"><g clip-path="url(#ayclip0)"><path d="M1.458 6.125A1.46 1.46 0 000 7.583v4.667a1.46 1.46 0 001.458 1.458h1.75c.329 0 .63-.11.875-.295V6.125H1.458zM14 8.313c0-.351-.139-.678-.38-.919.273-.298.412-.697.374-1.113-.068-.742-.736-1.323-1.521-1.323H8.869c.179-.542.465-1.535.465-2.333 0-1.265-1.075-2.333-1.75-2.333-.606 0-1.04.34-1.058.355a.293.293 0 00-.109.228v1.978l-1.68 3.64-.07.035v6.252c.475.224 1.076.345 1.458.345h5.355c.635 0 1.19-.428 1.322-1.02.067-.303.028-.61-.106-.875a1.307 1.307 0 00.584-1.75c.431-.218.72-.662.72-1.167z"/></g><defs><clipPath id="ayclip0"><path d="M0 0h14v14H0z"/></clipPath></defs></svg><svg viewBox="0 0 504 504" id="mastercard" xmlns="http://www.w3.org/2000/svg"><path d="M504 252c0 83.2-67.2 151.2-151.2 151.2-83.2 0-151.2-68-151.2-151.2 0-83.2 67.2-151.2 150.4-151.2 84.8 0 152 68 152 151.2z"/><path d="M352.8 100.8c83.2 0 151.2 68 151.2 151.2 0 83.2-67.2 151.2-151.2 151.2-83.2 0-151.2-68-151.2-151.2"/><path d="M352.8 100.8c83.2 0 151.2 68 151.2 151.2 0 83.2-67.2 151.2-151.2 151.2M149.6 100.8C67.2 101.6 0 168.8 0 252s67.2 151.2 151.2 151.2c39.2 0 74.4-15.2 101.6-39.2 5.6-4.8 10.4-10.4 15.2-16h-31.2c-4-4.8-8-10.4-11.2-15.2h53.6c3.2-4.8 6.4-10.4 8.8-16h-71.2c-2.4-4.8-4.8-10.4-6.4-16h83.2c4.8-15.2 8-31.2 8-48 0-11.2-1.6-21.6-3.2-32h-92.8c.8-5.6 2.4-10.4 4-16h83.2c-1.6-5.6-4-11.2-6.4-16H216c2.4-5.6 5.6-10.4 8.8-16h53.6c-3.2-5.6-7.2-11.2-12-16h-29.6c4.8-5.6 9.6-10.4 15.2-15.2-26.4-24.8-62.4-39.2-101.6-39.2 0-1.6 0-1.6-.8-1.6z"/><path d="M0 252c0 83.2 67.2 151.2 151.2 151.2 39.2 0 74.4-15.2 101.6-39.2 5.6-4.8 10.4-10.4 15.2-16h-31.2c-4-4.8-8-10.4-11.2-15.2h53.6c3.2-4.8 6.4-10.4 8.8-16h-71.2c-2.4-4.8-4.8-10.4-6.4-16h83.2c4.8-15.2 8-31.2 8-48 0-11.2-1.6-21.6-3.2-32h-92.8c.8-5.6 2.4-10.4 4-16h83.2c-1.6-5.6-4-11.2-6.4-16H216c2.4-5.6 5.6-10.4 8.8-16h53.6c-3.2-5.6-7.2-11.2-12-16h-29.6c4.8-5.6 9.6-10.4 15.2-15.2-26.4-24.8-62.4-39.2-101.6-39.2h-.8"/><path d="M151.2 403.2c39.2 0 74.4-15.2 101.6-39.2 5.6-4.8 10.4-10.4 15.2-16h-31.2c-4-4.8-8-10.4-11.2-15.2h53.6c3.2-4.8 6.4-10.4 8.8-16h-71.2c-2.4-4.8-4.8-10.4-6.4-16h83.2c4.8-15.2 8-31.2 8-48 0-11.2-1.6-21.6-3.2-32h-92.8c.8-5.6 2.4-10.4 4-16h83.2c-1.6-5.6-4-11.2-6.4-16H216c2.4-5.6 5.6-10.4 8.8-16h53.6c-3.2-5.6-7.2-11.2-12-16h-29.6c4.8-5.6 9.6-10.4 15.2-15.2-26.4-24.8-62.4-39.2-101.6-39.2h-.8"/><path d="M204.8 290.4l2.4-13.6c-.8 0-2.4.8-4 .8-5.6 0-6.4-3.2-5.6-4.8l4.8-28h8.8l2.4-15.2h-8l1.6-9.6h-16s-9.6 52.8-9.6 59.2c0 9.6 5.6 13.6 12.8 13.6 4.8 0 8.8-1.6 10.4-2.4zm5.6-25.6c0 22.4 15.2 28 28 28 12 0 16.8-2.4 16.8-2.4l3.2-15.2s-8.8 4-16.8 4c-17.6 0-14.4-12.8-14.4-12.8H260s2.4-10.4 2.4-14.4c0-10.4-5.6-23.2-23.2-23.2-16.8-1.6-28.8 16-28.8 36zm28-23.2c8.8 0 7.2 10.4 7.2 11.2H228c0-.8 1.6-11.2 10.4-11.2zM340 290.4l3.2-17.6s-8 4-13.6 4c-11.2 0-16-8.8-16-18.4 0-19.2 9.6-29.6 20.8-29.6 8 0 14.4 4.8 14.4 4.8l2.4-16.8s-9.6-4-18.4-4c-18.4 0-36.8 16-36.8 46.4 0 20 9.6 33.6 28.8 33.6 6.4 0 15.2-2.4 15.2-2.4zm-223.2-63.2c-11.2 0-19.2 3.2-19.2 3.2L95.2 244s7.2-3.2 17.6-3.2c5.6 0 10.4.8 10.4 5.6 0 3.2-.8 4-.8 4h-7.2c-13.6 0-28.8 5.6-28.8 24 0 14.4 9.6 17.6 15.2 17.6 11.2 0 16-7.2 16.8-7.2l-.8 6.4H132l6.4-44c0-19.2-16-20-21.6-20zm3.2 36c0 2.4-1.6 15.2-11.2 15.2-4.8 0-6.4-4-6.4-6.4 0-4 2.4-9.6 14.4-9.6 2.4.8 3.2.8 3.2.8zm33.6 28.8c4 0 24 .8 24-20.8 0-20-19.2-16-19.2-24 0-4 3.2-5.6 8.8-5.6 2.4 0 11.2.8 11.2.8l2.4-14.4s-5.6-1.6-15.2-1.6c-12 0-24 4.8-24 20.8 0 18.4 20 16.8 20 24 0 4.8-5.6 5.6-9.6 5.6-7.2 0-14.4-2.4-14.4-2.4l-2.4 14.4c.8 1.6 4.8 3.2 18.4 3.2zm319.2-77.6l-3.2 21.6s-6.4-8-15.2-8c-14.4 0-27.2 17.6-27.2 38.4 0 12.8 6.4 26.4 20 26.4 9.6 0 15.2-6.4 15.2-6.4l-.8 5.6h16l12-76.8-16.8-.8zm-7.2 42.4c0 8.8-4 20-12.8 20-5.6 0-8.8-4.8-8.8-12.8 0-12.8 5.6-20.8 12.8-20.8 5.6 0 8.8 4 8.8 13.6zm-436 34.4l9.6-57.6 1.6 57.6H52l20.8-57.6-8.8 57.6h16.8l12.8-76.8H67.2l-16 47.2-.8-47.2H27.2l-12.8 76.8h15.2zm248 0c4.8-26.4 5.6-48 16.8-44 1.6-10.4 4-14.4 5.6-18.4h-3.2c-7.2 0-12.8 9.6-12.8 9.6l1.6-8.8h-15.2L260 292h17.6v-.8zm99.2-64c-11.2 0-19.2 3.2-19.2 3.2l-2.4 13.6s7.2-3.2 17.6-3.2c5.6 0 10.4.8 10.4 5.6 0 3.2-.8 4-.8 4h-7.2c-13.6 0-28.8 5.6-28.8 24 0 14.4 9.6 17.6 15.2 17.6 11.2 0 16-7.2 16.8-7.2l-.8 6.4H392l6.4-44c.8-19.2-16-20-21.6-20zm4 36c0 2.4-1.6 15.2-11.2 15.2-4.8 0-6.4-4-6.4-6.4 0-4 2.4-9.6 14.4-9.6 2.4.8 2.4.8 3.2.8zm31.2 28c4.8-26.4 5.6-48 16.8-44 1.6-10.4 4-14.4 5.6-18.4h-3.2c-7.2 0-12.8 9.6-12.8 9.6l1.6-8.8h-15.2L394.4 292H412v-.8z"/><path d="M180 279.2c0 9.6 5.6 13.6 12.8 13.6 5.6 0 10.4-1.6 12-2.4l2.4-13.6c-.8 0-2.4.8-4 .8-5.6 0-6.4-3.2-5.6-4.8l4.8-28h8.8l2.4-15.2h-8l1.6-9.6m11.2 44.8c0 22.4 7.2 28 20 28 12 0 16.8-2.4 16.8-2.4l3.2-15.2s-8.8 4-16.8 4c-17.6 0-14.4-12.8-14.4-12.8H260s2.4-10.4 2.4-14.4c0-10.4-5.6-23.2-23.2-23.2-16.8-1.6-20.8 16-20.8 36zm20-23.2c8.8 0 10.4 10.4 10.4 11.2H228c0-.8 1.6-11.2 10.4-11.2zM340 290.4l3.2-17.6s-8 4-13.6 4c-11.2 0-16-8.8-16-18.4 0-19.2 9.6-29.6 20.8-29.6 8 0 14.4 4.8 14.4 4.8l2.4-16.8s-9.6-4-18.4-4c-18.4 0-28.8 16-28.8 46.4 0 20 1.6 33.6 20.8 33.6 6.4 0 15.2-2.4 15.2-2.4zM95.2 244.8s7.2-3.2 17.6-3.2c5.6 0 10.4.8 10.4 5.6 0 3.2-.8 4-.8 4h-7.2c-13.6 0-28.8 5.6-28.8 24 0 14.4 9.6 17.6 15.2 17.6 11.2 0 16-7.2 16.8-7.2l-.8 6.4H132l6.4-44c0-18.4-16-19.2-22.4-19.2m12 34.4c0 2.4-9.6 15.2-19.2 15.2-4.8 0-6.4-4-6.4-6.4 0-4 2.4-9.6 14.4-9.6 2.4.8 11.2.8 11.2.8zm8 27.2s4.8 1.6 18.4 1.6c4 0 24 .8 24-20.8 0-20-19.2-16-19.2-24 0-4 3.2-5.6 8.8-5.6 2.4 0 11.2.8 11.2.8l2.4-14.4s-5.6-1.6-15.2-1.6c-12 0-16 4.8-16 20.8 0 18.4 12 16.8 12 24 0 4.8-5.6 5.6-9.6 5.6M469.6 236s-6.4-8-15.2-8c-14.4 0-19.2 17.6-19.2 38.4 0 12.8-1.6 26.4 12 26.4 9.6 0 15.2-6.4 15.2-6.4l-.8 5.6h16l12-76.8m-20.8 41.6c0 8.8-7.2 20-16 20-5.6 0-8.8-4.8-8.8-12.8 0-12.8 5.6-20.8 12.8-20.8 5.6 0 12 4 12 13.6zM29.6 291.2l9.6-57.6 1.6 57.6H52l20.8-57.6-8.8 57.6h16.8l12.8-76.8h-20l-22.4 47.2-.8-47.2h-8.8l-27.2 76.8h15.2zm231.2 0h16.8c4.8-26.4 5.6-48 16.8-44 1.6-10.4 4-14.4 5.6-18.4h-3.2c-7.2 0-12.8 9.6-12.8 9.6l1.6-8.8m69.6 15.2s7.2-3.2 17.6-3.2c5.6 0 10.4.8 10.4 5.6 0 3.2-.8 4-.8 4h-7.2c-13.6 0-28.8 5.6-28.8 24 0 14.4 9.6 17.6 15.2 17.6 11.2 0 16-7.2 16.8-7.2l-.8 6.4H392l6.4-44c0-18.4-16-19.2-22.4-19.2m12 34.4c0 2.4-9.6 15.2-19.2 15.2-4.8 0-6.4-4-6.4-6.4 0-4 2.4-9.6 14.4-9.6 3.2.8 11.2.8 11.2.8zm7.2 28H412c4.8-26.4 5.6-48 16.8-44 1.6-10.4 4-14.4 5.6-18.4h-3.2c-7.2 0-12.8 9.6-12.8 9.6l1.6-8.8"/></svg><svg viewBox="0 0 21 14" id="menu" xmlns="http://www.w3.org/2000/svg"><path d="M19.813.2H1.187C.532.2 0 .61 0 1.113v1.324c0 .503.532.913 1.187.913h18.626c.655 0 1.187-.41 1.187-.913V1.113C21 .61 20.468.2 19.813.2zm0 5.25H1.187C.532 5.45 0 5.86 0 6.363v1.324c0 .503.532.913 1.187.913h18.626c.655 0 1.187-.41 1.187-.913V6.363c0-.503-.532-.913-1.187-.913zm0 5.25H1.187c-.655 0-1.187.41-1.187.913v1.324c0 .503.532.913 1.187.913h18.626c.655 0 1.187-.41 1.187-.913v-1.324c0-.503-.532-.913-1.187-.913z"/></svg><svg viewBox="0 0 24.75 24.75" id="menu1" xmlns="http://www.w3.org/2000/svg"><path d="M0 3.875a2 2 0 012-2h20.75a2 2 0 010 4H2a2 2 0 01-2-2zm22.75 6.5H2a2 2 0 000 4h20.75a2 2 0 000-4zm0 8.5H2a2 2 0 000 4h20.75a2 2 0 000-4z"/></svg><svg viewBox="0 0 18 18" id="percent" xmlns="http://www.w3.org/2000/svg"><path d="M7.815 6.989c.695-.753 1.077-1.764 1.077-2.845C8.892 2.084 7.422 0 4.61 0 3.3 0 2.197.45 1.417 1.3.727 2.053.346 3.063.346 4.144c0 2.06 1.464 4.144 4.264 4.144 1.313 0 2.422-.45 3.205-1.3zM4.61 1.927c1.54 0 2.242 1.15 2.242 2.218 0 .581-.196 1.12-.551 1.515-.397.442-.973.676-1.666.676-1.58 0-2.3-1.15-2.3-2.219 0-1.09.704-2.19 2.275-2.19zm10.225-.328a1.223 1.223 0 00-.773.352L1.414 16.014c-.17.19-.05.456.205.456h1.655c.255 0 .603-.156.773-.345l12.57-14.06c.17-.19.159-.5-.262-.5l-1.52.034zM13.453 9.87c-1.283 0-2.366.441-3.132 1.275-.677.739-1.05 1.73-1.05 2.79 0 2.02 1.436 4.065 4.182 4.065 1.289 0 2.376-.44 3.145-1.274.68-.74 1.056-1.73 1.056-2.79 0-2.021-1.443-4.066-4.201-4.066zm.025 6.265c-1.537 0-2.237-1.154-2.237-2.226 0-.584.195-1.124.55-1.521.396-.443.97-.677 1.662-.677 1.537 0 2.237 1.153 2.237 2.226 0 .583-.196 1.123-.55 1.52-.397.443-.971.678-1.662.678z"/></svg><svg viewBox="0 0 20 20" id="phone" xmlns="http://www.w3.org/2000/svg"><path d="M18.395 13.128a11.37 11.37 0 01-3.566-.568c-.558-.19-1.245-.016-1.585.334l-2.249 1.697C8.387 13.2 6.781 11.593 5.407 9.005l1.648-2.19a1.617 1.617 0 00.398-1.638 11.373 11.373 0 01-.57-3.572C6.883.72 6.163 0 5.278 0H1.605C.72 0 0 .72 0 1.605 0 11.748 8.252 20 18.395 20 19.28 20 20 19.28 20 18.395v-3.662c0-.885-.72-1.605-1.605-1.605z"/></svg><svg viewBox="0 0 24 24" id="pram" xmlns="http://www.w3.org/2000/svg"><path clip-rule="evenodd" d="M1.615 10.694c-.046-.227-.116-.566-.127-.768h14.416c.124 0 .227.002.354.004.418.008 1.039.018 1.449-.003a8.38 8.38 0 01-.076.48 7.164 7.164 0 01-.2.852l-.062.18a5.178 5.178 0 01-.287.703 4.48 4.48 0 01-.302.558 10.59 10.59 0 00-.14.233c-.085.143-.195.28-.306.418l-.12.153c-.197.255-.456.506-.702.744l-.15.146a.377.377 0 01-.061.05 1.633 1.633 0 00-.06.045.776.776 0 00-.098.089c-.015.014-.03.03-.04.037a2.668 2.668 0 01-.136.097l-.02.014-.033.031-.595.404c-.337.214-.662.358-1.02.517l-.027.012-.056.027a.141.141 0 01-.042.013l-.073.017-.039.038-.84.276c-.15.044-.3.081-.453.115-.173.04-.329.07-.488.102a6.32 6.32 0 01-.574.072c-.165.016-.33.032-.486.056-.269.041-.698.034-1.153 0a12.37 12.37 0 01-1.521-.203 8.835 8.835 0 01-1.41-.424 7.595 7.595 0 01-1.247-.63 8.004 8.004 0 01-2.154-1.976c-.536-.723-.929-1.538-1.106-2.408l-.015-.071zm10.264 6.903a3.624 3.624 0 00-1.228 2.715c0 1.018.425 1.94 1.112 2.608A3.843 3.843 0 0014.448 24a3.842 3.842 0 002.684-1.08 3.623 3.623 0 001.113-2.608 3.62 3.62 0 00-1.113-2.607 3.84 3.84 0 00-2.6-1.08c.741-.369 1.407-.798 1.855-1.236a3.81 3.81 0 00.04-.039 1.06 1.06 0 01.065-.063l.014-.011.351-.343.016-.015a.976.976 0 01.087-.084c.041-.038.083-.075.131-.13l.01-.01.609-.784a8.78 8.78 0 00.534-.858 4.31 4.31 0 00.296-.622l.035-.034.017-.07c.021-.09.061-.192.1-.29.021-.057.043-.113.065-.176.073-.21.181-.6.26-.961.052-.234.092-.461.105-.632l.034-.033v-.103c0-.107.008-.19.016-.282l.012-.158a.24.24 0 01.008-.049.677.677 0 00.023-.192c.003-.312.046-.496.083-.659.02-.087.04-.168.052-.256l.032-.031.008-.091a.896.896 0 01.102-.264c.083-.16.193-.327.267-.42a2.747 2.747 0 01.436-.413c.032.025.053.046.085.078.025.026.055.056.101.1l.015.015.356.246.054.052.146.057.022.021.043.02c.172.08.49.12.804.12.31-.001.633-.041.817-.12a2.7 2.7 0 00.58-.353h.001c.153-.121.29-.26.377-.404l.022-.021.014-.02c.046-.067.1-.151.146-.243a1.19 1.19 0 00.095-.23l.002-.006L24 6.14v-.443l-.04-.062c-.008-.012.004-.008 0-.034-.01-.064-.022-.144-.056-.252a3.122 3.122 0 00-.134-.34c-.151-.322-.43-.612-.763-.818a2.11 2.11 0 00-1.074-.326c-.162-.048-.384-.021-.61.045a3.03 3.03 0 00-.754.342l-.013.01-.314.275-.047.046-.015.02c-.02.03-.052.072-.085.115-.12.155-.238.31-.331.643-.09.318-.097.492-.1.6-.001.007-.001.009-.069.045l-.034.018-.024.024-.005.004c-.31.167-.593.418-.834.705a4.082 4.082 0 00-.814 1.578c-.013.05-.025.1-.035.148-.937 0-2.045.008-3.154.015-1.002.006-2.007.013-3.235.013-.025-.06-.048-.122-.072-.186a3.517 3.517 0 00-.07-.184v-.002l-.438-1.057V7.08a3.312 3.312 0 01-.042-.103 2.37 2.37 0 00-.07-.168l-.755-1.848a4.876 4.876 0 01-.045-.121 3.836 3.836 0 00-.059-.15v-.002l-.546-1.322-.005-.01a4.392 4.392 0 01-.118-.29 7.13 7.13 0 00-.092-.234L8.178.445 8.177.444 8.14.358C8.117.304 8.093.25 8.083.211L8.033 0 7.81.017a1.954 1.954 0 00-.418.105l-.036.011-.004.002-1.468.513-.01.003a7.927 7.927 0 00-.537.233c-.164.079-.32.16-.517.266-.164.088-.362.21-.563.34-.25.163-.495.335-.679.47-.176.13-.432.342-.67.554-.22.197-.43.398-.55.536l-.071.083c-.267.308-.477.55-.718.902l-.2.29-.003.007c-.1.158-.207.338-.304.516a6.34 6.34 0 00-.24.491l-.12.275c-.194.443-.243.555-.424 1.208a8.96 8.96 0 00-.18.847 4.46 4.46 0 00-.068.694l-.001.105-.03.036V9.58l.03.03c.002.194.01.365.024.532.017.196.044.384.086.592a8.617 8.617 0 001.462 3.358 8.27 8.27 0 002.98 2.54 3.842 3.842 0 00-2.92 1.073 3.624 3.624 0 00-1.11 2.608c0 1.018.424 1.94 1.111 2.607A3.842 3.842 0 004.347 24a3.843 3.843 0 002.685-1.08 3.623 3.623 0 001.112-2.607c0-1.018-.425-1.94-1.112-2.607a3.78 3.78 0 00-.299-.261c.355.096.717.18 1.083.252l.01.002c.406.067 1.005.101 1.608.107.641.007 1.29-.02 1.715-.074.228-.029.474-.075.73-.134zm.982 1.174a2.27 2.27 0 011.587-.638c.62 0 1.18.244 1.587.638.406.394.657.94.657 1.541a2.14 2.14 0 01-.657 1.541 2.271 2.271 0 01-1.587.638c-.62 0-1.181-.244-1.587-.638a2.142 2.142 0 01-.657-1.54c0-.603.25-1.148.657-1.542zm1.587.699a.855.855 0 00-.868.842c0 .465.389.842.868.842a.855.855 0 00.867-.842.855.855 0 00-.867-.842zm-11.688-.7a2.27 2.27 0 011.586-.638c.62 0 1.181.244 1.587.638.406.394.658.94.658 1.541 0 .602-.252 1.147-.658 1.541a2.271 2.271 0 01-1.587.638 2.27 2.27 0 01-1.586-.638 2.142 2.142 0 01-.658-1.54c0-.603.252-1.148.658-1.542zm1.586.699a.855.855 0 00-.867.842c0 .465.388.842.867.842.48 0 .868-.377.868-.842a.855.855 0 00-.868-.842zm5.24-11.7l.02.05.02.018c.041.13.12.315.195.492l.066.157c-.057 0-.115 0-.173-.002a3.388 3.388 0 00-.58.024c-.151.024-5.446.01-7.31.005-.219 0-.31-.001-.36-.002a7.53 7.53 0 01.183-1.15c.116-.5.273-.986.442-1.328l.105-.213c.154-.316.26-.536.503-.887l.079-.114.06-.088.028-.028.015-.02c.387-.562.81-.935 1.293-1.361l.122-.108.335-.251c.11-.08.228-.162.35-.24.12-.077.24-.15.36-.21l.034-.018.032-.03.491-.266a.764.764 0 01.07-.028c.042-.015.084-.03.136-.057l.034-.018.017-.016a6 6 0 00.218-.093c.203-.089.493-.216.737-.299.057.145.13.322.201.49.08.192.156.372.186.456l.003.009.816 2.011.03.029.291.731a26.41 26.41 0 01.155.393l.796 1.963zm12.78-1.391l-.03.029-.014.02a.416.416 0 01-.114.092.633.633 0 01-.18.078.896.896 0 01-.255.018.712.712 0 01-.221-.05.674.674 0 01-.242-.172.543.543 0 01-.125-.234.96.96 0 01-.014-.386.479.479 0 01.11-.242.853.853 0 01.412-.243.659.659 0 01.418.025.835.835 0 01.144.094l.033.025a.389.389 0 01.122.134l.014.02.017.017a.95.95 0 01.045.109.54.54 0 01.027.111c.01.095-.002.176-.013.253l-.005.034-.018.017-.016.07a.326.326 0 01-.068.142 1.98 1.98 0 00-.027.039z"/></svg><svg viewBox="0 0 30 16" id="push-car" xmlns="http://www.w3.org/2000/svg"><g clip-path="url(#bfclip0)"><path d="M7.778 10.66c-.617 0-1.118.51-1.118 1.135 0 .627.501 1.136 1.118 1.136a1.13 1.13 0 001.119-1.136c0-.626-.502-1.135-1.119-1.135zm13.122 0c-.617 0-1.119.51-1.119 1.135 0 .627.502 1.136 1.119 1.136.616 0 1.118-.51 1.118-1.136 0-.626-.502-1.135-1.118-1.135zm5.066-5.075l-3.415-.554-3.4-3.464a.957.957 0 00-1.369-.003.993.993 0 00-.002 1.39l1.961 1.998c-1.418 0-2.561.002-3.77.003l-1.934.001c-1.5 0-2.71-.002-3.75-.01l-1.934-.028A91.45 91.45 0 014.12 4.73V1.342a.975.975 0 00-.967-.983.975.975 0 00-.968.983v3.314a2.322 2.322 0 00-1.78 1.375C-.09 7.183.009 7.851.009 10.333c0 1.287 1.035 2.342 2.306 2.352l1.42.011C4.14 14.584 5.798 16 7.777 16c1.962 0 3.608-1.392 4.034-3.253h5.054C17.292 14.608 18.938 16 20.9 16c1.961 0 3.607-1.392 4.033-3.253h2.752c1.263 0 2.315-1.04 2.315-2.363 0-2.39-1.713-4.423-4.034-4.8zm-18.188 8.45c-1.217 0-2.207-1.004-2.207-2.24 0-1.235.99-2.24 2.207-2.24 1.217 0 2.207 1.005 2.207 2.24 0 1.236-.99 2.24-2.207 2.24zm13.122 0c-1.217 0-2.207-1.004-2.207-2.24 0-1.235.99-2.24 2.207-2.24 1.216 0 2.207 1.005 2.207 2.24 0 1.236-.99 2.24-2.207 2.24zm6.785-3.252h-2.766c-.448-1.831-2.08-3.192-4.02-3.192-1.94 0-3.571 1.36-4.02 3.192H11.8c-.449-1.831-2.08-3.192-4.02-3.192-1.923 0-3.543 1.336-4.008 3.142l-1.442-.012a.39.39 0 01-.386-.388c0-2.462-.073-2.8.235-3.514a.381.381 0 01.377-.224c5.901.386 5.628.32 19.348.32l3.758.61c.518.083.983.302 1.363.618h-.285a.975.975 0 00-.967.982c0 .543.433.982.967.982h1.313c.009.092.013.184.013.278a.386.386 0 01-.38.398z"/><path d="M16.791 2.224l2.24-1.7.432-.328a.958.958 0 011.354.198.992.992 0 01-.195 1.375l-.433.328-2.24 1.7-.432.329a.958.958 0 01-1.355-.199.992.992 0 01.196-1.374l.433-.33z"/></g><defs><clipPath id="bfclip0"><path d="M0 0h30v16H0z"/></clipPath></defs></svg><svg viewBox="0 0 26 22" id="rc-model" xmlns="http://www.w3.org/2000/svg"><path d="M24.1 17.444c.027-.063.051-.118.074-.185.08-.24.19-.701.27-1.155.063-.357.105-.702.095-.915a5.587 5.587 0 00-.258-1.498 5.157 5.157 0 00-.683-1.352 7.117 7.117 0 00-1.14-1.165 4.718 4.718 0 00-1.444-.783 6.645 6.645 0 00-.653-.184 2.833 2.833 0 00-.487-.072 4.807 4.807 0 00-.208 0l-.125.002c-1.205 0-2.692-.007-4.181-.015a779.715 779.715 0 00-4.207-.013v-.001c-.51.003-1.03 0-1.554-.004-1.23-.007-2.48-.015-3.675.06-.322.02-.658.136-.975.245l-.114.039a4.477 4.477 0 00-.532.226 4.75 4.75 0 00-.6.354l-.084.061c-.21.159-.377.328-.564.517-.086.087-.025.027-.102.104l-.005.005c-.61.666-.65.71-1.097 1.584-.152.387-.25.697-.311 1.015a6.28 6.28 0 00-.096 1.105c-.003.191.025.455.07.72.05.3.117.595.181.786.225.677.385.919.725 1.432l.073.11c.075.087.112.132.145.173.066.081.117.144.258.286.158.158.338.329.524.483.183.152.37.29.548.387l.607.315c.307.124.648.236.99.312.296.066.594.106.872.104.698-.005 1.414-.107 2.074-.347a4.12 4.12 0 001.532-.955l.468-.47h.002c.073-.074.258-.3.412-.51a1.87 1.87 0 00.198-.3l.047-.177h3.65l.046.18a4.882 4.882 0 00.368.536l.363.42c.222.224.408.404.608.56.198.157.415.295.703.44l.737.333c.334.131.642.206.958.247.326.042.665.05 1.05.045.242-.003.534-.052.826-.124.356-.088.707-.209.972-.323a4.92 4.92 0 001.289-.819 5.678 5.678 0 001.046-1.22 5.194 5.194 0 00.28-.52v.001l.034-.08zm-4.774-5.253a.94.94 0 01.938.941.94.94 0 01-.938.942.94.94 0 01-.939-.941c0-.52.42-.942.939-.942zm-.002 4.378a.94.94 0 01.939.942.94.94 0 01-.939.942.94.94 0 01-.938-.942c0-.52.42-.942.938-.942zm2.196-2.188a.94.94 0 01.939.942.94.94 0 01-.939.942.94.94 0 01-.938-.942c0-.52.42-.942.938-.942zm-4.348 0a.94.94 0 01.938.942.94.94 0 01-.938.942.94.94 0 01-.939-.942c0-.52.42-.942.939-.942zM6.627 12.155c.4 0 .726.328.726.73v1.707h1.702a.73.73 0 010 1.459H7.353v1.707a.73.73 0 01-.726.73.73.73 0 01-.727-.73v-1.707H4.198a.73.73 0 010-1.459H5.9v-1.708a.73.73 0 01.727-.729zm4.583-4.034a.602.602 0 01.095-.241c.17-.236.6-.284 1.112-.293v-4.86a1.454 1.454 0 01-.722-1.257A1.45 1.45 0 0113.143.017a1.454 1.454 0 01.727 2.711v4.84c.375-.01.687-.004.865.095.431.24.428.553.423.94v.005l.028.028v.06l4.598.002.008.001c.112.013.188.02.263.028.506.053.945.099 1.483.32.916.376 1.72.861 2.387 1.483a6.282 6.282 0 011.57 2.314c.11.277.236.675.327 1.072.076.327.128.66.13.932v.024l.031.04v.869l-.03.04.002.08v.02l-.007.043c-.146.921-.274 1.722-.781 2.55l-.001.001c-.38.604-.765 1.127-1.215 1.581a6.028 6.028 0 01-1.613 1.165 6.7 6.7 0 01-2.986.722 6.556 6.556 0 01-4.333-1.627 7.1 7.1 0 01-1.01-1.118h-2.034c-.336.423-.55.677-.793.908-.26.247-.541.457-1.024.81l-.008.005c-.52.35-1.099.596-1.702.757-.66.175-1.35.248-2.027.24a6.396 6.396 0 01-1.347-.165c-.43-.1-.851-.244-1.216-.429a7.696 7.696 0 01-1.673-1.117 6.49 6.49 0 01-1.697-2.422 6.85 6.85 0 01-.317-1.017 5.489 5.489 0 01-.134-.985l-.004-.096c-.02-.478-.038-.921.05-1.415.009-.043.016-.086.022-.128l.024-.141c.025-.133.054-.27.086-.398.03-.12.066-.243.105-.361.055-.167.137-.374.224-.575a6.5 6.5 0 01.258-.535c.245-.444.37-.609.58-.887l.156-.209c.193-.26.443-.51.71-.738a8.94 8.94 0 01.793-.597 6.11 6.11 0 013.2-1.048c1.253-.047 2.63-.039 3.943-.03l1.027.004.06.002c.093.004-.107-.006-.1-.23.002-.06.015-.203.039-.32z"/></svg><svg viewBox="0 0 22 20" id="refresh" xmlns="http://www.w3.org/2000/svg"><path d="M21.938 8.948c-.494-4.413-4.022-7.95-8.435-8.453C7.733-.165 2.82 4.319 2.758 9.94H.169c-.144 0-.22.18-.13.301l3.914 5.33c.067.09.198.09.265 0l3.915-5.33c.09-.12.009-.3-.13-.3H5.417c.063-3.95 3.425-7.115 7.442-6.845 3.456.23 6.26 3.047 6.48 6.503.234 3.662-2.381 6.777-5.842 7.334a1.328 1.328 0 00-1.11 1.313c0 .804.715 1.433 1.51 1.307 4.93-.782 8.629-5.334 8.04-10.606z"/></svg><svg viewBox="0 0 26 20" id="scooter" xmlns="http://www.w3.org/2000/svg"><path d="M25.161.436h-7.758a.839.839 0 000 1.677h3.04V9.55l-5.226 3.392a.839.839 0 00-.373.577l-.282 1.856H8.864a3.623 3.623 0 00-3.517-2.778 3.623 3.623 0 00-3.518 2.778H.84a.839.839 0 000 1.678h.99a3.623 3.623 0 003.518 2.778 3.623 3.623 0 003.517-2.778h8.9a3.622 3.622 0 003.518 2.778 3.621 3.621 0 003.617-3.617 3.623 3.623 0 00-2.778-3.518V2.113h3.04a.839.839 0 000-1.677zm-8.715 13.708l3.997-2.595v1.147a3.628 3.628 0 00-2.678 2.68h-1.506l.187-1.232zm-11.1 4.01a1.942 1.942 0 01-1.939-1.94c0-1.07.87-1.94 1.94-1.94 1.07 0 1.94.87 1.94 1.94 0 1.07-.87 1.94-1.94 1.94zm17.876-1.94c0 1.07-.87 1.94-1.94 1.94-1.07 0-1.94-.87-1.94-1.94 0-1.07.87-1.94 1.94-1.94 1.07 0 1.94.87 1.94 1.94zM5.347 15.166a1.05 1.05 0 000 2.096 1.05 1.05 0 000-2.096zm14.887 1.048a1.05 1.05 0 002.097 0 1.05 1.05 0 00-2.097 0z"/></svg><svg viewBox="0 0 22 22" id="search" xmlns="http://www.w3.org/2000/svg"><path d="M21.866 20.57l-6.391-6.391a8.664 8.664 0 001.942-5.47C17.417 3.906 13.51 0 8.708 0 3.907 0 0 3.907 0 8.708c0 4.802 3.907 8.709 8.708 8.709 2.072 0 3.974-.73 5.47-1.942l6.392 6.39c.178.18.469.18.648 0l.648-.647a.458.458 0 000-.648zM8.708 15.583a6.883 6.883 0 01-6.875-6.875 6.883 6.883 0 016.875-6.875 6.883 6.883 0 016.875 6.875 6.882 6.882 0 01-6.875 6.875z"/></svg><svg viewBox="0 0 18 16" id="slider-arrow" xmlns="http://www.w3.org/2000/svg"><path d="M.477 6.84a1.667 1.667 0 000 2.334l6.019 6.095c.96.975 2.52.975 3.48 0a2.58 2.58 0 000-3.528L9 10.75h6.287C16.785 10.75 18 9.519 18 8c0-1.52-1.215-2.75-2.713-2.75H9l.976-.99c.93-.988.93-2.542 0-3.53a2.438 2.438 0 00-3.48 0L.476 6.84z"/></svg><svg viewBox="0 0 18 16" id="slider-next-arrow" xmlns="http://www.w3.org/2000/svg"><path d="M17.523 9.16a1.667 1.667 0 000-2.334L11.504.731a2.438 2.438 0 00-3.48 0 2.58 2.58 0 000 3.528L9 5.25H2.713C1.215 5.25 0 6.481 0 8c0 1.52 1.215 2.75 2.713 2.75H9l-.976.99a2.58 2.58 0 000 3.53c.96.974 2.52.974 3.48 0l6.02-6.11z"/></svg><svg viewBox="0 0 18 16" id="slider-prev-arrow" xmlns="http://www.w3.org/2000/svg"><path d="M.477 6.84a1.667 1.667 0 000 2.334l6.019 6.095c.96.975 2.52.975 3.48 0a2.58 2.58 0 000-3.528L9 10.75h6.287C16.785 10.75 18 9.519 18 8c0-1.52-1.215-2.75-2.713-2.75H9l.976-.99c.93-.988.93-2.542 0-3.53a2.438 2.438 0 00-3.48 0L.476 6.84z"/></svg><svg viewBox="0 0 14 14" id="speech-bubble" xmlns="http://www.w3.org/2000/svg"><path d="M2.038 13.163h-.992l.702-.701c.378-.378.614-.87.678-1.404C.806 9.995 0 8.455 0 6.841 0 3.863 2.737.837 7.024.837 11.564.837 14 3.622 14 6.58c0 2.979-2.46 5.761-6.976 5.761a9.46 9.46 0 01-2.354-.299 3.676 3.676 0 01-2.632 1.121z"/></svg><svg viewBox="0 0 14 14" id="star" xmlns="http://www.w3.org/2000/svg"><path d="M13.964 5.37a.743.743 0 00-.641-.511l-4.04-.367-1.6-3.74a.744.744 0 00-1.368 0l-1.598 3.74-4.041.367A.744.744 0 00.254 6.16L3.31 8.839l-.901 3.968a.744.744 0 001.107.804L7 11.528l3.484 2.083a.745.745 0 001.107-.804l-.9-3.968 3.054-2.678a.744.744 0 00.219-.79z"/></svg><svg viewBox="0 0 14 14" id="star-half-filled" xmlns="http://www.w3.org/2000/svg"><path d="M13.964 5.37a.743.743 0 00-.641-.511l-4.04-.367-1.6-3.74a.744.744 0 00-1.368 0l-1.598 3.74-4.041.367A.744.744 0 00.254 6.16L3.31 8.839l-.901 3.968a.744.744 0 001.107.804L7 11.528l3.484 2.083a.745.745 0 001.107-.804l-.9-3.968 3.054-2.678a.744.744 0 00.219-.79z"/><defs><linearGradient id="bppaint0_linear" x1="18.5" y1="13.5" x2="-1.5" y2="13.5" gradientUnits="userSpaceOnUse"><stop offset=".575" stop-color="#C4C4C4"/><stop offset=".575" stop-color="#FFC107"/></linearGradient></defs></svg><svg viewBox="0 0 15 15" id="user" xmlns="http://www.w3.org/2000/svg"><g clip-path="url(#bqclip0)"><path d="M7.393 7.226c.993 0 1.852-.356 2.555-1.059a3.496 3.496 0 001.058-2.554c0-.993-.356-1.852-1.058-2.555A3.497 3.497 0 007.393 0 3.49 3.49 0 004.84 1.058a3.496 3.496 0 00-1.06 2.555c0 .992.356 1.852 1.059 2.554a3.497 3.497 0 002.554 1.059zm6.322 4.308a8.911 8.911 0 00-.122-.948c-.06-.339-.14-.66-.233-.953a4.71 4.71 0 00-.392-.888 3.354 3.354 0 00-.59-.77 2.604 2.604 0 00-.849-.533 2.933 2.933 0 00-1.083-.196c-.153 0-.301.062-.587.249l-.612.394a3.505 3.505 0 01-.792.349 3.13 3.13 0 01-.968.156 3.14 3.14 0 01-.968-.156 3.497 3.497 0 01-.79-.349 84.321 84.321 0 01-.613-.394c-.286-.187-.434-.25-.587-.25-.39 0-.754.067-1.083.197-.33.13-.615.31-.849.533a3.354 3.354 0 00-.59.77 4.717 4.717 0 00-.392.889 7.485 7.485 0 00-.233.952c-.06.337-.101.656-.122.948-.02.288-.03.585-.03.886 0 .783.25 1.417.74 1.885.485.461 1.126.695 1.906.695H11.1c.78 0 1.421-.234 1.906-.695.491-.467.74-1.101.74-1.885 0-.302-.01-.6-.03-.886z"/></g><defs><clipPath id="bqclip0"><path d="M0 0h15v15H0z"/></clipPath></defs></svg><svg viewBox="0 0 504 504" id="visa" xmlns="http://www.w3.org/2000/svg"><path d="M184.8 324.4l25.6-144h40l-24.8 144z"/><path d="M184.8 324.4l32.8-144h32.8l-24.8 144zM370.4 182c-8-3.2-20.8-6.4-36.8-6.4-40 0-68.8 20-68.8 48.8 0 21.6 20 32.8 36 40s20.8 12 20.8 18.4c0 9.6-12.8 14.4-24 14.4-16 0-24.8-2.4-38.4-8l-5.6-2.4-5.6 32.8c9.6 4 27.2 8 45.6 8 42.4 0 70.4-20 70.4-50.4 0-16.8-10.4-29.6-34.4-40-14.4-7.2-23.2-11.2-23.2-18.4 0-6.4 7.2-12.8 23.2-12.8 13.6 0 23.2 2.4 30.4 5.6l4 1.6 6.4-31.2z"/><path d="M370.4 182c-8-3.2-20.8-6.4-36.8-6.4-40 0-61.6 20-61.6 48.8 0 21.6 12.8 32.8 28.8 40s20.8 12 20.8 18.4c0 9.6-12.8 14.4-24 14.4-16 0-24.8-2.4-38.4-8l-5.6-2.4-5.6 32.8c9.6 4 27.2 8 45.6 8 42.4 0 70.4-20 70.4-50.4 0-16.8-10.4-29.6-34.4-40-14.4-7.2-23.2-11.2-23.2-18.4 0-6.4 7.2-12.8 23.2-12.8 13.6 0 23.2 2.4 30.4 5.6l4 1.6 6.4-31.2zM439.2 180.4c-9.6 0-16.8.8-20.8 10.4l-60 133.6h43.2l8-24h51.2l4.8 24H504l-33.6-144h-31.2zm-18.4 96c2.4-7.2 16-42.4 16-42.4s3.2-8.8 5.6-14.4l2.4 13.6s8 36 9.6 44h-33.6v-.8z"/><path d="M448.8 180.4c-9.6 0-16.8.8-20.8 10.4l-69.6 133.6h43.2l8-24h51.2l4.8 24H504l-33.6-144h-21.6zm-28 96c3.2-8 16-42.4 16-42.4s3.2-8.8 5.6-14.4l2.4 13.6s8 36 9.6 44h-33.6v-.8zM111.2 281.2l-4-20.8c-7.2-24-30.4-50.4-56-63.2l36 128h43.2l64.8-144H152l-40.8 100z"/><path d="M111.2 281.2l-4-20.8c-7.2-24-30.4-50.4-56-63.2l36 128h43.2l64.8-144H160l-48.8 100z"/><path d="M0 180.4l7.2 1.6c51.2 12 86.4 42.4 100 78.4l-14.4-68c-2.4-9.6-9.6-12-18.4-12H0z"/><path d="M0 180.4c51.2 12 93.6 43.2 107.2 79.2l-13.6-56.8c-2.4-9.6-10.4-15.2-19.2-15.2L0 180.4z"/><path d="M0 180.4c51.2 12 93.6 43.2 107.2 79.2l-9.6-31.2c-2.4-9.6-5.6-19.2-16.8-23.2L0 180.4z"/><path d="M151.2 276.4L124 249.2l-12.8 30.4-3.2-20c-7.2-24-30.4-50.4-56-63.2l36 128h43.2l20-48zm74.4 48l-34.4-35.2-6.4 35.2zm92-49.6c3.2 3.2 4.8 5.6 4 8.8 0 9.6-12.8 14.4-24 14.4-16 0-24.8-2.4-38.4-8l-5.6-2.4-5.6 32.8c9.6 4 27.2 8 45.6 8 25.6 0 46.4-7.2 58.4-20l-34.4-33.6zm46.4 49.6h37.6l8-24h51.2l4.8 24H504L490.4 266l-48-46.4 2.4 12.8s8 36 9.6 44h-33.6c3.2-8 16-42.4 16-42.4s3.2-8.8 5.6-14.4"/></svg></svg>