<?xml version="1.0" encoding="utf-8"?>
<!-- Generator: Adobe Illustrator 24.0.0, SVG Export Plug-In . SVG Version: 6.00 Build 0)  -->
<svg version="1.1" id="Layer_1" xmlns="http://www.w3.org/2000/svg" xmlns:xlink="http://www.w3.org/1999/xlink" x="0px" y="0px"
	 viewBox="0 0 492 492" style="enable-background:new 0 0 492 492;" xml:space="preserve">
<style type="text/css">
	.st0{fill:#FFFFFF;}
</style>
<g>
	<g>
		<path class="st0" d="M442.7,268.6l-16.1-16.1c-5.1-5.1-11.7-7.8-18.9-7.8s-13.8,2.8-18.8,7.8L284.4,357.2V26.9
			c0-14.8-12.8-26.9-27.6-26.9H234c-14.8,0-26.4,12.1-26.4,26.9V356L103.7,252.4c-5.1-5.1-12-7.8-19.3-7.8c-7.2,0-14,2.8-19,7.8
			l-16.1,16.1c-10.5,10.5-10.5,27.6,0,38.1l177.5,177.5c5.1,5.1,11.8,7.8,19,7.8c7.3,0,14.1-2.8,19.2-7.8l177.5-177.5
			C453.1,296.1,453.2,279,442.7,268.6z"/>
	</g>
</g>
</svg>
