<?xml version="1.0" encoding="utf-8"?>
<svg viewBox="0 0 512 512" xmlns="http://www.w3.org/2000/svg" xmlns:xlink="http://www.w3.org/1999/xlink"><style>:root>svg{display:none}:root>svg:target{display:block}</style>
  <svg viewBox="0 0 18 18" fill="none" xmlns="http://www.w3.org/2000/svg" id="plans">
    <path d="M17.023 0H1.383A.782.782 0 0 0 .6.782v16.162c0 .432.35.782.782.782h15.64c.432 0 .783-.35.783-.782V.782A.782.782 0 0 0 17.023 0zm-.782 6.256h-2.347a.782.782 0 0 0 0 1.564h2.347v8.342H6.335v-2.346a.782.782 0 1 0-1.564 0v2.346H2.164V1.564h2.607v8.602a.782.782 0 0 0 1.564 0V7.82h3.91a.782.782 0 0 0 0-1.564h-3.91V1.564h9.905v4.692z"
      fill="#124570"></path>
  </svg>
  <svg viewBox="0 0 28 26" fill="none" xmlns="http://www.w3.org/2000/svg" id="single-bed">
    <path d="M27.442 15.336a4.36 4.36 0 0 0-2.77-4.054V.033H3.436v11.249a4.36 4.36 0 0 0-2.77 4.054v6.222h.742v4.184h25.344v-4.184h.689v-6.222zm-8.897-4.502H9.55V6.146h8.995v4.688zM5.006 1.602h18.096v9.232h-2.988V4.577H7.98v6.257H5.006V1.602zm-2.77 13.734a2.787 2.787 0 0 1 2.784-2.784h18.069a2.787 2.787 0 0 1 2.784 2.784v4.653H2.236v-4.653zm22.948 8.837H2.978v-2.615h22.206v2.615z"
      fill="#124570"></path>
  </svg>
  <svg viewBox="0 0 41 41" fill="none" xmlns="http://www.w3.org/2000/svg" id="sofa">
    <path d="M41 14.35h-1.367V6.833H1.367v7.517H0v15.717h1.367v2.05h1.366v.683a.684.684 0 0 0 0 1.367H4.1a.684.684 0 0 0 0-1.367v-.683h1.367v-2.05h30.066v2.05H36.9v.683a.684.684 0 0 0 0 1.367h1.367a.684.684 0 0 0 0-1.367v-.683h1.366v-2.05H41V14.35zM27.333 8.2h10.934v6.15h-2.734v4.783h-8.2V8.2zM5.467 20.5h14.35v4.1H5.467v-4.1zm15.716 0h14.35v4.1h-14.35v-4.1zm-6.15-12.3h10.934v10.933H15.033V8.2zm-12.3 0h10.934v10.933h-8.2V14.35H2.733V8.2zM4.1 30.75H2.733v-.683H4.1v.683zm34.167 0H36.9v-.683h1.367v.683zm1.366-2.05H1.367V15.717H4.1v10.25h32.8v-10.25h2.733V28.7z"
      fill="#124570"></path>
  </svg>
  <svg viewBox="0 0 21 21" fill="none" xmlns="http://www.w3.org/2000/svg" id="stairs">
    <path d="M18.881 3.895h-4.19a.82.82 0 0 0-.82.819V7.76H10.5a.82.82 0 0 0-.82.82v3.047H6.31a.82.82 0 0 0-.82.82v3.046H2.12a.82.82 0 0 0-.82.82v3.866c0 .453.367.82.82.82h16.76a.82.82 0 0 0 .82-.82V4.714a.82.82 0 0 0-.82-.82zm-.82 15.466H2.939v-2.228H6.31a.82.82 0 0 0 .82-.82v-3.047h3.37a.82.82 0 0 0 .82-.819V9.4h3.372a.82.82 0 0 0 .819-.82V5.533h2.552v13.828z"
      fill="#124570"></path>
  </svg>
  <svg viewBox="0 0 22 22" fill="none" xmlns="http://www.w3.org/2000/svg" id="bathroom">
    <g clip-path="url(#clip0)" fill="#124570">
      <path d="M12.32 16.007a.647.647 0 1 0-1.29.09l.043.623a.647.647 0 1 0 1.29-.09l-.043-.623zm3.065-1.592a.647.647 0 0 0-1.183.522l.237.537a.647.647 0 1 0 1.184-.522l-.238-.537zm2.995-1.562a.647.647 0 0 0-.936.893l.431.452a.647.647 0 1 0 .936-.893l-.43-.452zm-6.834 6.497a.647.647 0 0 0-.614.677l.031.645a.647.647 0 1 0 1.293-.063l-.032-.645a.647.647 0 0 0-.678-.614zm3.76-.909a.647.647 0 1 0-1.24.368l.172.583a.647.647 0 0 0 1.24-.368l-.172-.583zm3.04-1.521a.647.647 0 1 0-1.108.669l.314.52a.647.647 0 1 0 1.108-.668l-.314-.52zm3.467-1.034l-.456-.458a.647.647 0 1 0-.917.912l.455.458a.647.647 0 1 0 .918-.912z"></path>
      <path d="M18.56 8.597l-.195-.44a1.728 1.728 0 0 0-1.843-1.002l-.121-.271a3.748 3.748 0 0 0-4.018-2.186l-.425-.966A6.245 6.245 0 0 0 6.242.004 6.25 6.25 0 0 0 0 6.248V21.35c0 .357.29.647.647.647h2.587c.358 0 .647-.29.647-.647V6.248a2.363 2.363 0 1 1 4.524-.952l.457 1.037a3.751 3.751 0 0 0-.903 4.309l.12.271a1.725 1.725 0 0 0-.486 2.04l.195.44a1.911 1.911 0 0 0 2.525.97l7.279-3.24a1.914 1.914 0 0 0 .969-2.526zM15.22 7.41l.097.217-6.079 2.706-.096-.217a2.46 2.46 0 0 1 1.25-3.256l1.571-.7a2.459 2.459 0 0 1 3.257 1.25zM6.243 2.592a3.66 3.66 0 0 0-3.656 3.656v14.456H1.294V6.248c0-2.73 2.22-4.95 4.95-4.95 1.96 0 3.74 1.16 4.53 2.956l.375.852-1.182.527-.378-.858a3.657 3.657 0 0 0-3.346-2.183zM17.065 9.94l-7.278 3.24a.618.618 0 0 1-.817-.313l-.196-.44a.431.431 0 0 1 .22-.57l7.62-3.392a.432.432 0 0 1 .57.219l.195.44a.62.62 0 0 1-.314.816z"></path>
    </g>
    <defs>
      <clipPath id="clip0">
        <path fill="#fff" d="M0 0h22v22H0z"></path>
      </clipPath>
    </defs>
  </svg>
  <svg viewBox="0 0 21 19" fill="none" xmlns="http://www.w3.org/2000/svg" id="building">
    <path d="M16.179 7.206v9.472H4.724V7.206H3.402V17.34c0 .365.296.661.661.661H16.84a.66.66 0 0 0 .66-.66V7.205h-1.32z" fill="#124570" stroke="#124570" stroke-width=".2"></path>
    <path d="M.933 8.952l-.074.066.066.075.88.986.067.075.075-.067 8.503-7.588 8.503 7.588.075.067.066-.075.88-.986.067-.075-.075-.066-9.01-8.04a.76.76 0 0 0-1.013 0l-9.01 8.04z" fill="#124570" stroke="#124570" stroke-width=".2"></path>
  </svg>
  <svg viewBox="0 0 36 28" fill="none" xmlns="http://www.w3.org/2000/svg" id="double-bed">
    <path d="M35.25 14.433a4.315 4.315 0 0 0-2.814-4.04V.459H3.355v9.936a4.313 4.313 0 0 0-2.813 4.039v8.291h.965v4.593h32.778v-4.593h.965v-8.291zM5.389 2.493h25.014v7.634h-2.034V4.526H7.422v5.601H5.39V2.492zm11.49 7.634H9.456V6.56h7.423v3.567zm2.034-3.567h7.422v3.567h-7.422V6.56zM2.575 14.433a2.275 2.275 0 0 1 2.272-2.272h26.097a2.275 2.275 0 0 1 2.272 2.272v6.258H2.576v-6.258zm29.676 10.85H3.541v-2.559h28.71v2.56z"
      fill="#124570"></path>
  </svg>
  <svg viewBox="0 0 22 22" fill="none" xmlns="http://www.w3.org/2000/svg" id="night">
    <path d="M20.994 10.666a.586.586 0 0 0-1.118-.226 6.284 6.284 0 0 1-2.274 2.638 6.244 6.244 0 0 1-3.428 1.019 6.278 6.278 0 0 1-6.27-6.271c0-1.224.351-2.409 1.018-3.427a6.284 6.284 0 0 1 2.637-2.275.586.586 0 0 0-.225-1.118A9.935 9.935 0 0 0 3.93 3.93 9.935 9.935 0 0 0 1 11a9.935 9.935 0 0 0 2.929 7.071A9.935 9.935 0 0 0 11 21a9.935 9.935 0 0 0 7.071-2.929 9.935 9.935 0 0 0 2.923-7.405zm-3.752 6.576A8.77 8.77 0 0 1 11 19.828a8.77 8.77 0 0 1-6.242-2.586A8.77 8.77 0 0 1 2.172 11a8.77 8.77 0 0 1 2.586-6.242 8.768 8.768 0 0 1 4.348-2.384c-.44.41-.832.874-1.165 1.383a7.413 7.413 0 0 0-1.21 4.069c0 4.104 3.34 7.443 7.443 7.443a7.413 7.413 0 0 0 4.069-1.21 7.48 7.48 0 0 0 1.383-1.165 8.768 8.768 0 0 1-2.384 4.348z"
      fill="#124570" stroke="#124570" stroke-width=".3"></path>
    <path d="M11.365 5.767a.586.586 0 0 0 .171.594l1.183 1.067-.28 1.757a.586.586 0 0 0 .854.61l1.487-.791 1.487.79a.586.586 0 0 0 .854-.609l-.28-1.757 1.183-1.067a.586.586 0 0 0-.285-1.011l-1.573-.294-.88-1.499a.586.586 0 0 0-1.01 0l-.882 1.499-1.573.294a.586.586 0 0 0-.456.417zm2.507.391a.586.586 0 0 0 .397-.279l.511-.869.511.87a.59.59 0 0 0 .398.279l.67.125-.54.487a.586.586 0 0 0-.185.527l.145.91-.724-.385a.586.586 0 0 0-.55 0l-.723.385.145-.91a.586.586 0 0 0-.186-.527l-.54-.487.67-.125z"
      fill="#124570" stroke="#124570" stroke-width=".3"></path>
  </svg>
  <svg viewBox="0 0 30 30" fill="none" xmlns="http://www.w3.org/2000/svg" id="balcon">
    <path d="M25.7571 27.508V20.1081H27.4984V18.4263H24.0721V0.430908H5.5364V18.4263H2.11011V20.1081H3.85134V27.508H0.425049V29.1898H29.1834V27.508H25.7571ZM24.0721 27.508H22.387V20.1081H24.0721V27.508ZM19.0169 18.4263H15.6468V5.47633H19.0169V18.4263ZM13.9617 18.4263H10.5916V5.47633H13.9617V18.4263ZM10.5916 20.1081V27.508H8.90652V20.1081H10.5916ZM12.2766 20.1081H13.9617V27.508H12.2766V20.1081ZM15.6468 20.1081H17.3318V27.508H15.6468V20.1081ZM19.0169 20.1081H20.7019V27.508H19.0169V20.1081ZM7.22146 2.11272H22.387V18.4263H20.7019V3.79452H8.90652V18.4263H7.22146V2.11272ZM5.5364 20.1081H7.22146V27.508H5.5364V20.1081Z" fill="#124570"/>
  </svg>
  <svg id="calendar" viewBox="0 0 14 15" fill="none" xmlns="http://www.w3.org/2000/svg">
<path d="M11.9218 3.11989H11.3847V1.18606C11.3847 0.889608 11.144 0.648926 10.8475 0.648926H10.3103C10.0138 0.648926 9.77323 0.889608 9.77323 1.18606V3.11989H4.40164V1.18606C4.40164 0.889608 4.16106 0.648926 3.86452 0.648926H3.3274C3.03086 0.648926 2.79018 0.889608 2.79018 1.18606V3.11989H2.25306C1.36461 3.11989 0.641602 3.84292 0.641602 4.73139V12.7889C0.641602 13.6774 1.36461 14.4004 2.25306 14.4004H11.9218C12.8103 14.4004 13.5333 13.6774 13.5333 12.7889V4.73139C13.5333 3.84292 12.8103 3.11989 11.9218 3.11989ZM11.5995 11.9294C11.5995 12.2254 11.3583 12.4666 11.0624 12.4666C10.7664 12.4666 3.40846 12.4666 3.1125 12.4666C2.81655 12.4666 2.57538 12.2254 2.57538 11.9294C2.57538 11.6335 2.57538 6.90157 2.57538 6.90157H11.5995C11.5995 6.90157 11.5995 11.6335 11.5995 11.9294Z" fill="#124570"/>
</svg>
<svg id="kitchen" viewBox="0 0 28 28" fill="none" xmlns="http://www.w3.org/2000/svg">
  <g clip-path="url(#clip0)">
  <path d="M24.5816 0.544922H3.57665C1.98575 0.544922 0.69165 1.83124 0.69165 3.41238V24.2913C0.69165 25.8726 1.98575 27.1589 3.57665 27.1589H24.5816C26.1726 27.1589 27.4666 25.8726 27.4666 24.2913V3.41238C27.4666 1.83124 26.1726 0.544922 24.5816 0.544922ZM3.57665 2.10434H24.5816C25.3074 2.10434 25.8978 2.69115 25.8978 3.41238V7.22604H2.2605V3.41238C2.2605 2.69115 2.85086 2.10434 3.57665 2.10434ZM24.5816 25.5995H3.57665C2.85086 25.5995 2.2605 25.0127 2.2605 24.2913V8.78545H25.8978V24.2913C25.8978 25.0127 25.3074 25.5995 24.5816 25.5995Z" fill="#124570"/>
  <path d="M6.51758 5.44516C6.72431 5.44516 6.92613 5.36211 7.0726 5.21652C7.21845 5.07134 7.302 4.87033 7.302 4.66545C7.302 4.46017 7.21845 4.25895 7.0726 4.11397C6.92613 3.96899 6.72431 3.88574 6.51758 3.88574C6.31105 3.88574 6.10862 3.96899 5.96276 4.11397C5.81691 4.25895 5.73315 4.46017 5.73315 4.66545C5.73315 4.87073 5.81691 5.07134 5.96276 5.21652C6.10923 5.36211 6.31105 5.44516 6.51758 5.44516Z" fill="#124570"/>
  <path d="M11.5593 5.44516C11.7658 5.44516 11.9677 5.36211 12.1141 5.21652C12.26 5.07134 12.3437 4.87033 12.3437 4.66545C12.3437 4.46017 12.26 4.25895 12.1141 4.11397C11.9677 3.96899 11.7658 3.88574 11.5593 3.88574C11.3528 3.88574 11.1504 3.96899 11.0045 4.11397C10.8585 4.25895 10.7749 4.46017 10.7749 4.66545C10.7749 4.87073 10.8585 5.07134 11.0045 5.21652C11.1508 5.36211 11.3528 5.44516 11.5593 5.44516Z" fill="#124570"/>
  <path d="M16.5991 5.44516C16.8056 5.44516 17.0077 5.36211 17.1539 5.21652C17.2998 5.07134 17.3835 4.87033 17.3835 4.66545C17.3835 4.46017 17.2998 4.25895 17.1539 4.11397C17.0081 3.96899 16.8056 3.88574 16.5991 3.88574C16.3926 3.88574 16.1902 3.96899 16.0443 4.11397C15.8985 4.25895 15.8147 4.46017 15.8147 4.66545C15.8147 4.87073 15.8985 5.07134 16.0443 5.21652C16.1908 5.36211 16.3926 5.44516 16.5991 5.44516Z" fill="#124570"/>
  <path d="M21.6409 5.44516C21.8474 5.44516 22.0492 5.3615 22.1957 5.21652C22.3415 5.07134 22.4253 4.87033 22.4253 4.66545C22.4253 4.46017 22.3415 4.25895 22.1957 4.11397C22.0492 3.96899 21.8474 3.88574 21.6409 3.88574C21.4341 3.88574 21.2319 3.96899 21.0861 4.11397C20.94 4.25895 20.8564 4.46017 20.8564 4.66545C20.8564 4.87073 20.94 5.07134 21.0861 5.21652C21.2323 5.3615 21.4341 5.44516 21.6409 5.44516Z" fill="#124570"/>
  <path d="M23.3213 10.5667H4.83667C4.4036 10.5667 4.05225 10.9157 4.05225 11.3464V23.0385C4.05225 23.469 4.4036 23.8182 4.83667 23.8182H23.3213C23.7546 23.8182 24.1057 23.469 24.1057 23.0385V11.3464C24.1057 10.9157 23.7546 10.5667 23.3213 10.5667ZM22.5369 22.2586H5.62109V12.1261H22.5369V22.2586Z" fill="#124570"/>
  <path d="M8.19702 15.4666H19.9601C20.3932 15.4666 20.7445 15.1176 20.7445 14.6869C20.7445 14.2563 20.3932 13.9072 19.9601 13.9072H8.19702C7.76395 13.9072 7.4126 14.2563 7.4126 14.6869C7.4126 15.1176 7.76395 15.4666 8.19702 15.4666Z" fill="#124570"/>
  </g>
  <defs>
  <clipPath id="clip0">
  <rect width="26.775" height="26.614" fill="white" transform="translate(0.69165 0.544922)"/>
  </clipPath>
  </defs>
</svg>
<svg id="tv" viewBox="0 0 28 28" fill="none" xmlns="http://www.w3.org/2000/svg">
  <g clip-path="url(#clip0)">
  <path d="M25.3529 1.99731H2.23853C1.22929 1.99731 0.408203 2.81346 0.408203 3.81663V18.3712C0.408203 19.3743 1.22929 20.1905 2.23853 20.1905H9.96511V22.2747L3.6016 24.478C3.19249 24.6196 2.97636 25.0641 3.11891 25.4708C3.26147 25.8775 3.70864 26.0922 4.11775 25.9506L12.6776 22.9869C13.3986 22.7372 14.1929 22.7372 14.9139 22.9869L23.4738 25.9506C23.5592 25.9802 23.6463 25.9942 23.7319 25.9942C24.0564 25.9942 24.3599 25.7925 24.4726 25.4708C24.6152 25.0641 24.399 24.6196 23.9899 24.478L17.6263 22.2747V20.1905H25.3529C26.3621 20.1905 27.1832 19.3743 27.1832 18.3712V3.81663C27.1832 2.81346 26.3621 1.99731 25.3529 1.99731ZM16.0575 21.7316L15.4299 21.5143C14.3761 21.1494 13.2153 21.1494 12.1615 21.5143L11.534 21.7316V20.1905H16.0575V21.7316ZM25.6144 18.3712C25.6144 18.5145 25.4971 18.6311 25.3529 18.6311H2.23853C2.09435 18.6311 1.97705 18.5145 1.97705 18.3712V3.81663C1.97705 3.67332 2.09435 3.55673 2.23853 3.55673H25.3529C25.4971 3.55673 25.6144 3.67332 25.6144 3.81663V18.3712Z" fill="#124570"/>
  <path d="M4.67527 8.00624L6.51412 6.17845C6.82046 5.87395 6.82046 5.38029 6.51412 5.07579C6.20783 4.77129 5.71113 4.77129 5.40479 5.07579L3.56594 6.90358C3.2596 7.20808 3.2596 7.70174 3.56594 8.00624C3.71911 8.15849 3.91987 8.23464 4.12058 8.23464C4.32129 8.23464 4.52215 8.15849 4.67527 8.00624Z" fill="#124570"/>
  <path d="M8.97842 5.68199L4.1758 10.4557C3.86946 10.7602 3.86946 11.2539 4.1758 11.5584C4.32898 11.7106 4.52974 11.7868 4.73044 11.7868C4.93115 11.7868 5.13197 11.7107 5.28509 11.5584L10.0877 6.78465C10.394 6.48015 10.394 5.98649 10.0877 5.68199C9.78141 5.37749 9.28471 5.37749 8.97842 5.68199Z" fill="#124570"/>
  </g>
  <defs>
  <clipPath id="clip0">
  <rect width="26.775" height="26.614" fill="white" transform="translate(0.408203 0.688477)"/>
  </clipPath>
  </defs>
</svg>
<svg id="washing_machine" viewBox="0 0 27 27" fill="none" xmlns="http://www.w3.org/2000/svg">
  <path d="M2.63672 0V27H24.3633V0H2.63672ZM4.21875 1.58203H12.709V5.74805H4.21875V1.58203ZM22.7812 25.418H4.21875V7.33008H22.7812V25.418ZM22.7812 5.74805H14.291V1.58203H22.7812V5.74805Z" fill="#124570"/>
  <path d="M19.2861 12.6605C18.0632 10.7562 15.9264 9.49219 13.5006 9.49219C9.7127 9.49219 6.63037 12.574 6.63037 16.3624C6.63037 20.1503 9.7127 23.2321 13.5006 23.2321C15.9264 23.2321 18.0627 21.9681 19.2856 20.0644C19.9722 18.9955 20.3708 17.7246 20.3708 16.3624C20.3708 15.0003 19.9722 13.7294 19.2861 12.6605ZM13.5006 21.6501C10.5849 21.6501 8.2124 19.2781 8.2124 16.3624C8.2124 13.4462 10.5849 11.0742 13.5006 11.0742C15.1238 11.0742 16.5782 11.8093 17.5485 12.9637C18.3221 13.8834 18.7888 15.0694 18.7888 16.3624C18.7888 17.6549 18.3221 18.8409 17.548 19.7606C16.5782 20.915 15.1238 21.6501 13.5006 21.6501Z" fill="#124570"/>
  <path d="M16.3709 13.7842L16.074 13.5153C15.3679 12.8762 14.4535 12.5244 13.5006 12.5244C11.3844 12.5244 9.6626 14.2462 9.6626 16.3624C9.6626 18.4787 11.3844 20.1999 13.5006 20.1999C14.4535 20.1999 15.3679 19.8482 16.074 19.209L16.3709 18.9406C15.7255 18.2735 15.3284 17.3644 15.3284 16.3624C15.3284 15.3605 15.7255 14.4513 16.3709 13.7842ZM14.3649 18.4465C14.0933 18.5588 13.8001 18.6179 13.5006 18.6179C12.2566 18.6179 11.2446 17.6059 11.2446 16.3624C11.2446 15.1184 12.2566 14.1064 13.5006 14.1064C13.8001 14.1064 14.0933 14.1655 14.3649 14.2784C13.9673 14.8938 13.749 15.6173 13.749 16.3624C13.749 17.107 13.9673 17.8305 14.3649 18.4465Z" fill="#124570"/>
  <path d="M17.3843 2.82129H21.3745V4.40332H17.3843V2.82129Z" fill="#124570"/>
  <path d="M8.22607 2.82129H9.81987V4.40332H8.22607V2.82129Z" fill="#124570"/>
  <path d="M5.6543 2.82129H7.24809V4.40332H5.6543V2.82129Z" fill="#124570"/>
</svg>
<svg id="wifi" viewBox="0 0 28 28" fill="none" xmlns="http://www.w3.org/2000/svg">
  <g clip-path="url(#clip0)">
  <path d="M23.3761 15.8076C23.0706 15.8076 22.7736 15.6472 22.6128 15.3624C20.8591 12.2521 17.5591 10.3201 14.0001 10.3201C10.4412 10.3201 7.14111 12.2521 5.38727 15.3624C5.15014 15.7839 4.61609 15.9315 4.19525 15.6948C3.77441 15.4573 3.62573 14.9237 3.86285 14.5028C5.92645 10.8434 9.81098 8.57007 14.0001 8.57007C18.1893 8.57007 22.0738 10.8434 24.1374 14.5028C24.3745 14.9237 24.2258 15.4573 23.805 15.6948C23.6689 15.7713 23.5217 15.8076 23.3761 15.8076Z" fill="#124570"/>
  <path d="M19.6267 17.9171C19.3212 17.9171 19.0242 17.7569 18.8636 17.4721C17.8737 15.7155 16.01 14.6245 14.0007 14.6245C11.9913 14.6245 10.1277 15.7157 9.13775 17.4721C8.90063 17.8929 8.36743 18.0421 7.94574 17.8045C7.5249 17.5674 7.37622 17.0338 7.61334 16.6125C8.91302 14.3071 11.3607 12.8745 14.0007 12.8745C16.6404 12.8745 19.0883 14.3071 20.3878 16.6125C20.6249 17.0338 20.4765 17.5674 20.0554 17.8045C19.9195 17.8808 19.7719 17.9171 19.6267 17.9171Z" fill="#124570"/>
  <path d="M27.1264 13.6984C26.8209 13.6984 26.5238 13.5382 26.3631 13.2532C23.846 8.78888 19.1091 6.01563 14.0006 6.01563C8.89197 6.01563 4.15509 8.78888 1.63775 13.2532C1.40106 13.674 0.867 13.8227 0.445735 13.5856C0.0248976 13.348 -0.123784 12.8144 0.113338 12.3936C2.94043 7.38025 8.26135 4.26562 14.0006 4.26562C19.7398 4.26562 25.0605 7.38025 27.8878 12.3936C28.1249 12.8144 27.9762 13.348 27.5554 13.5854C27.4195 13.6621 27.2721 13.6984 27.1264 13.6984Z" fill="#124570"/>
  <path d="M16.625 21.1277C16.625 22.5773 15.4497 23.7527 14 23.7527C12.5501 23.7527 11.375 22.5773 11.375 21.1277C11.375 19.6778 12.5501 18.5027 14 18.5027C15.4497 18.5027 16.625 19.6778 16.625 21.1277Z" fill="#124570"/>
  </g>
  <defs>
  <clipPath id="clip0">
  <rect width="28" height="28" fill="white"/>
  </clipPath>
  </defs>
</svg>
<svg id="clock-cilcular" viewBox="0 0 20 20" fill="none" xmlns="http://www.w3.org/2000/svg">
  <path d="M10 0C4.486 0 0 4.486 0 10C0 15.514 4.486 20 10 20C15.514 20 20 15.514 20 10C20 4.486 15.514 0 10 0ZM10 17.8722C5.65933 17.8722 2.12762 14.3409 2.12762 10C2.12762 5.65912 5.65933 2.12783 10 2.12783C14.3407 2.12783 17.8724 5.65912 17.8724 10C17.8724 14.3409 14.3407 17.8722 10 17.8722Z" fill="#124570"/>
  <path d="M15.2116 9.6912H10.7176V4.28774C10.7176 3.83303 10.3489 3.46436 9.89418 3.46436C9.43947 3.46436 9.0708 3.83303 9.0708 4.28774V10.5146C9.0708 10.9693 9.43947 11.338 9.89418 11.338H15.2116C15.6663 11.338 16.035 10.9693 16.035 10.5146C16.035 10.0599 15.6663 9.6912 15.2116 9.6912Z" fill="#124570"/>
</svg>
<svg id="star1" viewBox="0 0 14 14" fill="none" xmlns="http://www.w3.org/2000/svg">
<path d="M3.25159 8.93873L2.5125 13.4695C2.45359 13.8294 2.838 14.0995 3.15592 13.9227L7.00009 11.7982L10.8443 13.9233C11.1593 14.0983 11.5472 13.8335 11.4877 13.4701L10.7486 8.93931L13.8753 5.73447C14.1232 5.48072 13.9808 5.05022 13.6285 4.99655L9.32467 4.33914L7.39559 0.230126C7.2515 -0.0767085 6.74809 -0.0767085 6.604 0.230126L4.6755 4.33855L0.37167 4.99597C0.0181704 5.05022 -0.122996 5.48014 0.12492 5.73389L3.25159 8.93873Z" fill="#124570"/>
</svg>
</svg>