<svg width="51" height="50" viewBox="0 0 51 50" fill="none" xmlns="http://www.w3.org/2000/svg">
<path d="M4.20824 38.7553C1.41485 34.7086 -0.0552606 29.901 -0.000991238 24.9902C-0.00293483 21.7055 0.648975 18.4531 1.91702 15.4211C3.18507 12.389 5.04409 9.63756 7.38653 7.32583C12.1477 2.63676 18.5714 0.00465867 25.2666 -0.000480741C31.9619 -0.00562015 38.3897 2.61662 43.1581 7.29837C45.4678 9.56447 47.3123 12.2571 48.5885 15.2258C49.9093 18.2944 50.5874 21.5992 50.5814 24.938C50.6308 29.8595 49.152 34.6759 46.3474 38.7279L45.7713 38.3105C48.4908 34.3812 49.9244 29.7104 49.8758 24.938C49.8758 11.5875 38.8303 0.724699 25.2544 0.724699C11.6785 0.724699 0.704682 11.6094 0.704682 24.9902C0.651549 29.751 2.07642 34.4119 4.78435 38.3352L4.20824 38.7553Z" fill="#1FA4B5"/>
<path d="M45.231 37.992L44.6383 37.5279C47.337 32.9533 48.0868 31.2563 48.4975 25.3746C48.8558 20.1135 46.6534 14.3004 42.6068 9.82734C38.0998 4.84354 32.0244 2.07568 25.5163 2.029C22.4494 1.97198 19.4022 2.528 16.5548 3.66419C13.7074 4.80038 11.1175 6.49369 8.93832 8.64401C6.7591 10.7943 5.03477 13.358 3.86723 16.1836C2.6997 19.0091 2.11267 22.0391 2.14084 25.0945C2.14084 30.3447 3.48603 33.5354 5.92005 37.5444L5.32188 37.9755C2.87407 33.9418 1.43516 30.4875 1.43516 25.0945C1.3886 18.8698 3.8061 12.8775 8.16387 8.41595C10.3727 6.16644 13.0148 4.38442 15.9318 3.17678C18.9681 1.91632 22.2297 1.28296 25.519 1.31506C28.955 1.33251 32.3442 2.10903 35.4425 3.58866C41.1441 6.33184 45.5875 11.1291 47.8745 17.0106C48.9214 19.6899 49.3801 22.5616 49.2197 25.4323C48.7897 31.4266 47.9627 33.3651 45.231 37.992Z" fill="#1FA4B5"/>
<path d="M24.998 50.0135C24.0264 50.0196 23.0552 49.9673 22.0899 49.857C18.7986 49.4533 15.3474 48.1491 11.8383 45.9853L12.2022 45.3455C15.6258 47.4571 18.9805 48.7257 22.1753 49.1183C24.4356 49.3509 26.7157 49.315 28.9674 49.0113C33.0471 48.1875 34.894 47.5422 38.1991 45.4086L38.5905 46.0951C35.0208 48.3989 32.9865 48.9426 29.1025 49.7224C27.7438 49.9235 26.3716 50.0208 24.998 50.0135Z" fill="#1FA4B5"/>
<path d="M25.2103 47.9623C19.7909 47.9623 16.7973 46.0127 14.9201 44.7963C14.0932 44.2636 13.7486 43.8517 12.9051 43.7995C12.1278 43.7529 10.4931 45.6393 10.4049 45.7464L9.87568 45.2988C9.96664 45.1945 11.5075 43.0801 12.8555 43.0774C14.0243 43.0774 14.333 43.5359 15.2978 44.1757C17.2632 45.4498 20.1024 47.3225 25.497 47.2511C30.8915 47.1797 33.5157 45.4196 35.2579 44.2554C36.2089 43.6211 36.9614 43.1186 37.7773 43.157C39.004 43.2202 40.079 44.3158 40.68 45.318L40.0763 45.6942C39.4423 44.6316 38.5244 43.9204 37.7415 43.8792C37.1544 43.8462 36.5204 44.2691 35.6438 44.854C33.8327 46.0649 31.0927 47.8909 25.508 47.9678L25.2103 47.9623Z" fill="#1FA4B5"/>
<path d="M24.9071 45.8425C20.221 45.8425 17.2411 43.9204 15.2261 42.6106C14.2034 41.9488 13.393 41.4271 12.7783 41.4134C11.4662 41.3832 10.7853 42.1191 8.96602 44.0824L8.62697 44.4476L8.11425 43.9506L8.4533 43.5854C10.3195 41.5699 11.1685 40.6555 12.7948 40.6884C13.6053 40.7077 14.4874 41.2788 15.6038 41.9982C17.7704 43.3987 20.7392 45.3125 25.6293 45.1039C30.6214 44.8869 33.4771 43.0334 35.3681 41.8088C36.3991 41.1388 37.1461 40.6555 37.8655 40.6555C39.3541 40.6555 40.4401 41.8115 41.6971 43.1488C41.9204 43.3849 42.152 43.6293 42.389 43.8737L41.8984 44.3817C41.6558 44.1345 41.4242 43.8874 41.1982 43.6485C40.0515 42.4294 39.0619 41.3777 37.8738 41.3777C37.3583 41.3777 36.6499 41.8362 35.754 42.4184C33.8024 43.687 30.8474 45.6009 25.6679 45.826C25.4069 45.837 25.1533 45.8425 24.9071 45.8425Z" fill="#1FA4B5"/>
<path d="M25.2737 43.6513C20.7888 43.6513 17.7428 41.7154 15.4825 40.2793C14.2999 39.5297 13.3682 38.9366 12.6625 38.9228H12.6184C11.072 38.9228 9.14795 40.7516 6.98131 42.9621L6.48789 42.4321C8.79236 40.0844 10.846 38.143 12.6763 38.1842C13.5722 38.2034 14.5756 38.8432 15.8491 39.6505C18.1673 41.1251 21.3456 43.1433 26.0731 42.8934C29.7531 42.7012 32.3221 41.0509 34.384 39.7247C35.8257 38.7965 36.9669 38.0771 38.0364 38.1622C39.9054 38.3297 41.6723 40.1063 43.2353 41.6715C43.5109 41.9461 43.748 42.1877 43.9933 42.4239L43.5137 42.973C43.2628 42.7314 43.012 42.4788 42.7446 42.2124C41.2699 40.7297 39.5966 39.0492 37.9758 38.9174C37.1488 38.8432 36.0848 39.5187 34.7534 40.3754C32.7356 41.6715 29.9681 43.4481 26.1089 43.6513C25.825 43.6458 25.5466 43.6513 25.2737 43.6513Z" fill="#1FA4B5"/>
<path d="M25.6017 41.18C20.9156 41.18 18.4761 39.4198 16.5051 37.9947C15.2509 37.0886 14.1676 36.306 12.8114 36.2429C11.5048 36.1824 9.17827 36.943 5.49278 40.9109L4.96077 40.4358C8.02328 37.1408 10.7495 35.4575 12.8334 35.5536C14.4019 35.625 15.5652 36.4653 16.9131 37.4373C18.8868 38.8597 21.3429 40.6308 26.1861 40.4798C29.9322 40.3617 31.8425 38.9256 33.5295 37.6597C34.8637 36.6575 36.1262 35.7101 38.042 35.5536C40.3767 35.3642 43.1719 38.1842 45.4157 40.4523L45.4956 40.5319L44.9884 41.0125L44.9085 40.9328C42.7667 38.7691 40.1011 36.0781 38.0998 36.2429C36.3908 36.3829 35.2634 37.2286 33.965 38.2089C32.1953 39.5379 30.1886 41.0454 26.2164 41.1717L25.6017 41.18Z" fill="#1FA4B5"/>
<path d="M28.0846 16.2873H24.0526H23.9526V16.3873V17.211V17.311H24.0526H25.8823L22.9984 28.5756L19.6448 16.5005L19.6244 16.4273H19.5484H18.4458H18.3697L18.3494 16.5006L15.0093 28.5753L12.1222 17.3275H14.3468H14.4468V17.2275V16.4037V16.3037H14.3468H8.38721H8.28721V16.4037V17.2275V17.3275H8.38721H10.9311L14.3217 30.389L14.3412 30.4639H14.4185H15.5459H15.6219L15.6423 30.3907L19.0187 18.2612L22.3629 30.3959L22.3832 30.4694H22.4593H23.5895H23.6669L23.6863 30.3944L27.0734 17.311H29.279H29.379V17.3083H29.8626V29.5966H27.184H27.084V29.6966V30.5204V30.6204H27.184H33.1437H33.2437V30.5204V29.6966V29.5966H33.1437H30.9971V23.86H37.9641V29.5966H35.7789H35.6789V29.6966V30.5204V30.6204H35.7789H41.7385H41.8385V30.5204V29.6966V29.5966H41.7385H39.0985V17.3083H41.711H41.811V17.2083V16.3845V16.2845H41.711H35.7513H35.6513V16.3845V17.2083V17.3083H35.7513H37.9641V22.6715H30.9971V17.3083H33.411H33.511V17.2083V16.3845V16.2845H33.411H28.1846H28.0846V16.2873Z" fill="#1FA4B5" stroke="#1FA4B5" stroke-width="0.2"/>
</svg>
