<svg width="248" height="50" viewBox="0 0 248 50" fill="none" xmlns="http://www.w3.org/2000/svg">
<g clip-path="url(#clip0)">
<path d="M4.20824 38.7553C1.41485 34.7086 -0.0552606 29.901 -0.000991238 24.9902C-0.00293483 21.7055 0.648975 18.4531 1.91702 15.4211C3.18507 12.389 5.04409 9.63756 7.38653 7.32583C12.1477 2.63676 18.5714 0.00465867 25.2666 -0.000480741C31.9619 -0.00562015 38.3897 2.61662 43.1581 7.29837C45.4678 9.56447 47.3123 12.2571 48.5885 15.2258C49.9093 18.2944 50.5874 21.5992 50.5814 24.938C50.6308 29.8595 49.152 34.6759 46.3474 38.7279L45.7713 38.3105C48.4908 34.3812 49.9244 29.7104 49.8758 24.938C49.8758 11.5875 38.8303 0.724699 25.2544 0.724699C11.6785 0.724699 0.704682 11.6094 0.704682 24.9902C0.651549 29.751 2.07642 34.4119 4.78435 38.3352L4.20824 38.7553Z" fill="#1FA4B5"/>
<path d="M45.231 37.992L44.6383 37.5279C47.337 32.9533 48.0868 31.2563 48.4975 25.3746C48.8558 20.1135 46.6534 14.3004 42.6068 9.82734C38.0998 4.84354 32.0244 2.07568 25.5163 2.029C22.4494 1.97198 19.4022 2.528 16.5548 3.66419C13.7074 4.80038 11.1175 6.49369 8.93832 8.64401C6.7591 10.7943 5.03477 13.358 3.86723 16.1836C2.6997 19.0091 2.11267 22.0391 2.14084 25.0945C2.14084 30.3447 3.48603 33.5354 5.92005 37.5444L5.32188 37.9755C2.87407 33.9418 1.43516 30.4875 1.43516 25.0945C1.3886 18.8698 3.8061 12.8775 8.16387 8.41595C10.3727 6.16644 13.0148 4.38442 15.9318 3.17678C18.9681 1.91632 22.2297 1.28296 25.519 1.31506C28.955 1.33251 32.3442 2.10903 35.4425 3.58866C41.1441 6.33184 45.5875 11.1291 47.8745 17.0106C48.9214 19.6899 49.3801 22.5616 49.2197 25.4323C48.7897 31.4266 47.9627 33.3651 45.231 37.992Z" fill="#1FA4B5"/>
<path d="M24.998 50.0135C24.0264 50.0196 23.0552 49.9673 22.0899 49.857C18.7986 49.4533 15.3474 48.1491 11.8383 45.9853L12.2022 45.3455C15.6258 47.4571 18.9805 48.7257 22.1753 49.1183C24.4356 49.3509 26.7157 49.315 28.9674 49.0113C33.0471 48.1875 34.894 47.5422 38.1991 45.4086L38.5905 46.0951C35.0208 48.3989 32.9865 48.9426 29.1025 49.7224C27.7438 49.9235 26.3716 50.0208 24.998 50.0135Z" fill="#1FA4B5"/>
<path d="M25.2103 47.9623C19.7909 47.9623 16.7973 46.0127 14.9201 44.7963C14.0932 44.2636 13.7486 43.8517 12.9051 43.7995C12.1278 43.7529 10.4931 45.6393 10.4049 45.7464L9.87568 45.2988C9.96664 45.1945 11.5075 43.0801 12.8555 43.0774C14.0243 43.0774 14.333 43.5359 15.2978 44.1757C17.2632 45.4498 20.1024 47.3225 25.497 47.2511C30.8915 47.1797 33.5157 45.4196 35.2579 44.2554C36.2089 43.6211 36.9614 43.1186 37.7773 43.157C39.004 43.2202 40.079 44.3158 40.68 45.318L40.0763 45.6942C39.4423 44.6316 38.5244 43.9204 37.7415 43.8792C37.1544 43.8462 36.5204 44.2691 35.6438 44.854C33.8327 46.0649 31.0927 47.8909 25.508 47.9678L25.2103 47.9623Z" fill="#1FA4B5"/>
<path d="M24.9071 45.8425C20.221 45.8425 17.2411 43.9204 15.2261 42.6106C14.2034 41.9488 13.393 41.4271 12.7783 41.4134C11.4662 41.3832 10.7853 42.1191 8.96602 44.0824L8.62697 44.4476L8.11425 43.9506L8.4533 43.5854C10.3195 41.5699 11.1685 40.6555 12.7948 40.6884C13.6053 40.7077 14.4874 41.2788 15.6038 41.9982C17.7704 43.3987 20.7392 45.3125 25.6293 45.1039C30.6214 44.8869 33.4771 43.0334 35.3681 41.8088C36.3991 41.1388 37.1461 40.6555 37.8655 40.6555C39.3541 40.6555 40.4401 41.8115 41.6971 43.1488C41.9204 43.3849 42.152 43.6293 42.389 43.8737L41.8984 44.3817C41.6558 44.1345 41.4242 43.8874 41.1982 43.6485C40.0515 42.4294 39.0619 41.3777 37.8738 41.3777C37.3583 41.3777 36.6499 41.8362 35.754 42.4184C33.8024 43.687 30.8474 45.6009 25.6679 45.826C25.4069 45.837 25.1533 45.8425 24.9071 45.8425Z" fill="#1FA4B5"/>
<path d="M25.2737 43.6513C20.7888 43.6513 17.7428 41.7154 15.4825 40.2793C14.2999 39.5297 13.3682 38.9366 12.6625 38.9228H12.6184C11.072 38.9228 9.14795 40.7516 6.98131 42.9621L6.48789 42.4321C8.79236 40.0844 10.846 38.143 12.6763 38.1842C13.5722 38.2034 14.5756 38.8432 15.8491 39.6505C18.1673 41.1251 21.3456 43.1433 26.0731 42.8934C29.7531 42.7012 32.3221 41.0509 34.384 39.7247C35.8257 38.7965 36.9669 38.0771 38.0364 38.1622C39.9054 38.3297 41.6723 40.1063 43.2353 41.6715C43.5109 41.9461 43.748 42.1877 43.9933 42.4239L43.5137 42.973C43.2628 42.7314 43.012 42.4788 42.7446 42.2124C41.2699 40.7297 39.5966 39.0492 37.9758 38.9174C37.1488 38.8432 36.0848 39.5187 34.7534 40.3754C32.7356 41.6715 29.9681 43.4481 26.1089 43.6513C25.825 43.6458 25.5466 43.6513 25.2737 43.6513Z" fill="#1FA4B5"/>
<path d="M25.6017 41.18C20.9156 41.18 18.4761 39.4198 16.5051 37.9947C15.2509 37.0886 14.1676 36.306 12.8114 36.2429C11.5048 36.1824 9.17827 36.943 5.49278 40.9109L4.96077 40.4358C8.02328 37.1408 10.7495 35.4575 12.8334 35.5536C14.4019 35.625 15.5652 36.4653 16.9131 37.4373C18.8868 38.8597 21.3429 40.6308 26.1861 40.4798C29.9322 40.3617 31.8425 38.9256 33.5295 37.6597C34.8637 36.6575 36.1262 35.7101 38.042 35.5536C40.3767 35.3642 43.1719 38.1842 45.4157 40.4523L45.4956 40.5319L44.9884 41.0125L44.9085 40.9328C42.7667 38.7691 40.1011 36.0781 38.0998 36.2429C36.3908 36.3829 35.2634 37.2286 33.965 38.2089C32.1953 39.5379 30.1886 41.0454 26.2164 41.1717L25.6017 41.18Z" fill="#1FA4B5"/>
<path d="M28.0846 16.2873H24.0526H23.9526V16.3873V17.211V17.311H24.0526H25.8823L22.9984 28.5756L19.6448 16.5005L19.6244 16.4273H19.5484H18.4458H18.3697L18.3494 16.5006L15.0093 28.5753L12.1222 17.3275H14.3468H14.4468V17.2275V16.4037V16.3037H14.3468H8.38721H8.28721V16.4037V17.2275V17.3275H8.38721H10.9311L14.3217 30.389L14.3412 30.4639H14.4185H15.5459H15.6219L15.6423 30.3907L19.0187 18.2612L22.3629 30.3959L22.3832 30.4694H22.4593H23.5895H23.6669L23.6863 30.3944L27.0734 17.311H29.279H29.379V17.3083H29.8626V29.5966H27.184H27.084V29.6966V30.5204V30.6204H27.184H33.1437H33.2437V30.5204V29.6966V29.5966H33.1437H30.9971V23.86H37.9641V29.5966H35.7789H35.6789V29.6966V30.5204V30.6204H35.7789H41.7385H41.8385V30.5204V29.6966V29.5966H41.7385H39.0985V17.3083H41.711H41.811V17.2083V16.3845V16.2845H41.711H35.7513H35.6513V16.3845V17.2083V17.3083H35.7513H37.9641V22.6715H30.9971V17.3083H33.411H33.511V17.2083V16.3845V16.2845H33.411H28.1846H28.0846V16.2873Z" fill="#1FA4B5" stroke="#1FA4B5" stroke-width="0.2"/>
<mask id="path-3-outside-1" maskUnits="userSpaceOnUse" x="60.9082" y="17" width="188" height="16" fill="black">
<rect fill="white" x="60.9082" y="17" width="188" height="16"/>
<path d="M121.888 31.0155V32.0041H113.894V18.162H121.794V19.1533H114.947V24.5297H121.287V25.5183H114.947V31.01L121.888 31.0155Z"/>
<path d="M201.331 25.0679C201.331 21.2237 204.487 18.1483 208.498 18.1483C212.509 18.1483 215.665 21.2347 215.665 25.0679C215.665 28.9012 212.509 31.9903 208.498 31.9903C204.487 31.9903 201.331 28.9039 201.331 25.0679ZM214.609 25.0679C214.609 21.7729 211.93 19.1258 208.495 19.1258C205.061 19.1258 202.381 21.7701 202.381 25.0679C202.381 28.3657 205.061 31.0128 208.495 31.0128C211.93 31.0128 214.609 28.3657 214.609 25.0679Z"/>
<path d="M144.61 18.4943V31.9299H143.557V25.499H135.477V31.9299H134.427V18.4943H135.477V24.5352H143.557V18.4943H144.61Z"/>
<path d="M138.046 18H132.164V18.8238H138.046V18Z"/>
<path d="M147.049 18H141.167V18.8238H147.049V18Z"/>
<path d="M137.771 31.3176H131.888V32.1414H137.771V31.3176Z"/>
<path d="M147.049 31.3176H141.167V32.1414H147.049V31.3176Z"/>
<path d="M87.5137 31.3176H83.525V32.1414H87.5137V31.3176Z"/>
<path d="M94.0852 28.4838H87.1057L85.7577 32.0041H84.6551L90.0524 18.162H91.155L96.5358 32.0041H95.4332L94.0852 28.4838ZM93.7076 27.4953L90.612 19.4498L87.5137 27.4953H93.7076Z"/>
<path d="M97.6301 31.3176H93.6414V32.1414H97.6301V31.3176Z"/>
<path d="M98.1318 18.162H99.2841L103.868 30.6394L108.474 18.162H109.605L104.419 32.0041H103.317L98.1318 18.162Z"/>
<path d="M100.8 18H96.8115V18.8238H100.8V18Z"/>
<path d="M110.862 18.0082H106.873V18.832H110.862V18.0082Z"/>
<path d="M160.306 28.4701H153.34L151.989 31.9903H150.886L156.284 18.151H157.386L162.767 31.9903H161.664L160.306 28.4701ZM159.928 27.4733L156.846 19.4361L153.737 27.4733H159.928Z"/>
<path d="M153.403 31.3176H149.414V32.1414H153.403V31.3176Z"/>
<path d="M164.063 31.3176H160.074V32.1414H164.063V31.3176Z"/>
<path d="M173.937 26.3173H169.526V31.9903H168.473V18.151H173.95C174.946 18.1486 175.909 18.5079 176.659 19.1617C177.408 19.8154 177.893 20.7187 178.022 21.7027C178.151 22.6866 177.916 23.6836 177.36 24.5072C176.804 25.3309 175.967 25.9246 175.003 26.1773L178.457 31.9903H177.244L173.937 26.3173ZM169.526 25.3288H173.95C174.774 25.3288 175.564 25.0028 176.147 24.4224C176.73 23.842 177.057 23.0549 177.057 22.2342C177.057 21.4134 176.73 20.6263 176.147 20.0459C175.564 19.4656 174.774 19.1395 173.95 19.1395H169.526V25.3288Z"/>
<path d="M171.064 31.3176H167.076V32.1414H171.064V31.3176Z"/>
<path d="M179.637 31.3176H175.648V32.1414H179.637V31.3176Z"/>
<path d="M197.182 31.9903H196.132V19.6915L190.991 28.2037H190.812L185.671 19.6915V31.9903H184.618V18.151H185.93L190.892 26.3365L195.854 18.151H197.182V31.9903Z"/>
<path d="M187.06 31.3176H183.072V32.1414H187.06V31.3176Z"/>
<path d="M198.704 31.3176H194.715V32.1414H198.704V31.3176Z"/>
<path d="M230.038 18.1373V31.9903H229.067L220.905 20.0869V31.9931H219.855V18.1373H220.767L228.985 30.0545V18.1373H230.038Z"/>
<path d="M222.501 31.3176H218.513V32.1414H222.501V31.3176Z"/>
<path d="M231.46 18H227.471V18.8238H231.46V18Z"/>
<path d="M63.9039 18.162H65.0065L68.59 30.6009L72.4492 18.162H73.7007L77.5901 30.6009L81.1736 18.162H82.2762L78.2848 32.0041H77.014L73.1245 19.5267L69.202 32.0041H67.9312L63.9039 18.162Z"/>
<path d="M67.7906 18.0165H61.9082V18.8402H67.7906V18.0165Z"/>
<path d="M84.3905 18.0165H78.5081V18.8402H84.3905V18.0165Z"/>
<path d="M241.723 26.375V31.9794H240.67V26.375L235.609 18.3625H236.799L241.21 25.3837L245.607 18.3652H246.797L241.723 26.375Z"/>
<path d="M238.351 18H234.363V18.8238H238.351V18Z"/>
<path d="M247.999 18H244.01V18.8238H247.999V18Z"/>
<path d="M243.189 31.3176H239.2V32.1414H243.189V31.3176Z"/>
</mask>
<path d="M121.888 31.0155V32.0041H113.894V18.162H121.794V19.1533H114.947V24.5297H121.287V25.5183H114.947V31.01L121.888 31.0155Z" fill="#1FA4B5"/>
<path d="M201.331 25.0679C201.331 21.2237 204.487 18.1483 208.498 18.1483C212.509 18.1483 215.665 21.2347 215.665 25.0679C215.665 28.9012 212.509 31.9903 208.498 31.9903C204.487 31.9903 201.331 28.9039 201.331 25.0679ZM214.609 25.0679C214.609 21.7729 211.93 19.1258 208.495 19.1258C205.061 19.1258 202.381 21.7701 202.381 25.0679C202.381 28.3657 205.061 31.0128 208.495 31.0128C211.93 31.0128 214.609 28.3657 214.609 25.0679Z" fill="#1FA4B5"/>
<path d="M144.61 18.4943V31.9299H143.557V25.499H135.477V31.9299H134.427V18.4943H135.477V24.5352H143.557V18.4943H144.61Z" fill="#1FA4B5"/>
<path d="M138.046 18H132.164V18.8238H138.046V18Z" fill="#1FA4B5"/>
<path d="M147.049 18H141.167V18.8238H147.049V18Z" fill="#1FA4B5"/>
<path d="M137.771 31.3176H131.888V32.1414H137.771V31.3176Z" fill="#1FA4B5"/>
<path d="M147.049 31.3176H141.167V32.1414H147.049V31.3176Z" fill="#1FA4B5"/>
<path d="M87.5137 31.3176H83.525V32.1414H87.5137V31.3176Z" fill="#1FA4B5"/>
<path d="M94.0852 28.4838H87.1057L85.7577 32.0041H84.6551L90.0524 18.162H91.155L96.5358 32.0041H95.4332L94.0852 28.4838ZM93.7076 27.4953L90.612 19.4498L87.5137 27.4953H93.7076Z" fill="#1FA4B5"/>
<path d="M97.6301 31.3176H93.6414V32.1414H97.6301V31.3176Z" fill="#1FA4B5"/>
<path d="M98.1318 18.162H99.2841L103.868 30.6394L108.474 18.162H109.605L104.419 32.0041H103.317L98.1318 18.162Z" fill="#1FA4B5"/>
<path d="M100.8 18H96.8115V18.8238H100.8V18Z" fill="#1FA4B5"/>
<path d="M110.862 18.0082H106.873V18.832H110.862V18.0082Z" fill="#1FA4B5"/>
<path d="M160.306 28.4701H153.34L151.989 31.9903H150.886L156.284 18.151H157.386L162.767 31.9903H161.664L160.306 28.4701ZM159.928 27.4733L156.846 19.4361L153.737 27.4733H159.928Z" fill="#1FA4B5"/>
<path d="M153.403 31.3176H149.414V32.1414H153.403V31.3176Z" fill="#1FA4B5"/>
<path d="M164.063 31.3176H160.074V32.1414H164.063V31.3176Z" fill="#1FA4B5"/>
<path d="M173.937 26.3173H169.526V31.9903H168.473V18.151H173.95C174.946 18.1486 175.909 18.5079 176.659 19.1617C177.408 19.8154 177.893 20.7187 178.022 21.7027C178.151 22.6866 177.916 23.6836 177.36 24.5072C176.804 25.3309 175.967 25.9246 175.003 26.1773L178.457 31.9903H177.244L173.937 26.3173ZM169.526 25.3288H173.95C174.774 25.3288 175.564 25.0028 176.147 24.4224C176.73 23.842 177.057 23.0549 177.057 22.2342C177.057 21.4134 176.73 20.6263 176.147 20.0459C175.564 19.4656 174.774 19.1395 173.95 19.1395H169.526V25.3288Z" fill="#1FA4B5"/>
<path d="M171.064 31.3176H167.076V32.1414H171.064V31.3176Z" fill="#1FA4B5"/>
<path d="M179.637 31.3176H175.648V32.1414H179.637V31.3176Z" fill="#1FA4B5"/>
<path d="M197.182 31.9903H196.132V19.6915L190.991 28.2037H190.812L185.671 19.6915V31.9903H184.618V18.151H185.93L190.892 26.3365L195.854 18.151H197.182V31.9903Z" fill="#1FA4B5"/>
<path d="M187.06 31.3176H183.072V32.1414H187.06V31.3176Z" fill="#1FA4B5"/>
<path d="M198.704 31.3176H194.715V32.1414H198.704V31.3176Z" fill="#1FA4B5"/>
<path d="M230.038 18.1373V31.9903H229.067L220.905 20.0869V31.9931H219.855V18.1373H220.767L228.985 30.0545V18.1373H230.038Z" fill="#1FA4B5"/>
<path d="M222.501 31.3176H218.513V32.1414H222.501V31.3176Z" fill="#1FA4B5"/>
<path d="M231.46 18H227.471V18.8238H231.46V18Z" fill="#1FA4B5"/>
<path d="M63.9039 18.162H65.0065L68.59 30.6009L72.4492 18.162H73.7007L77.5901 30.6009L81.1736 18.162H82.2762L78.2848 32.0041H77.014L73.1245 19.5267L69.202 32.0041H67.9312L63.9039 18.162Z" fill="#1FA4B5"/>
<path d="M67.7906 18.0165H61.9082V18.8402H67.7906V18.0165Z" fill="#1FA4B5"/>
<path d="M84.3905 18.0165H78.5081V18.8402H84.3905V18.0165Z" fill="#1FA4B5"/>
<path d="M241.723 26.375V31.9794H240.67V26.375L235.609 18.3625H236.799L241.21 25.3837L245.607 18.3652H246.797L241.723 26.375Z" fill="#1FA4B5"/>
<path d="M238.351 18H234.363V18.8238H238.351V18Z" fill="#1FA4B5"/>
<path d="M247.999 18H244.01V18.8238H247.999V18Z" fill="#1FA4B5"/>
<path d="M243.189 31.3176H239.2V32.1414H243.189V31.3176Z" fill="#1FA4B5"/>
<path d="M132.164 18.5119H138.046V18.3119H132.164V18.5119ZM141.167 18.5119H147.052V18.3119H141.167V18.5119ZM131.888 31.8652H137.771V31.6652H131.888V31.8652ZM141.167 31.8652H147.049V31.6652H141.167V31.8652ZM61.9082 18.5284H67.7906V18.3284H61.9082V18.5284ZM78.5081 18.5284H84.3905V18.3284H78.5081V18.5284ZM121.888 31.0155H122.088V30.8157L121.888 30.8155L121.888 31.0155ZM121.888 32.0041V32.2041H122.088V32.0041H121.888ZM113.894 32.0041H113.694V32.2041H113.894V32.0041ZM113.894 18.162V17.962H113.694V18.162H113.894ZM121.794 18.162H121.994V17.962H121.794V18.162ZM121.794 19.1533V19.3533H121.994V19.1533H121.794ZM114.947 19.1533V18.9533H114.747V19.1533H114.947ZM114.947 24.5297H114.747V24.7297H114.947V24.5297ZM121.287 24.5297H121.487V24.3297H121.287V24.5297ZM121.287 25.5183V25.7183H121.487V25.5183H121.287ZM114.947 25.5183V25.3183H114.747V25.5183H114.947ZM114.947 31.01H114.747V31.2099L114.947 31.21L114.947 31.01ZM144.61 18.4943H144.81V18.2943H144.61V18.4943ZM144.61 31.9299V32.1299H144.81V31.9299H144.61ZM143.557 31.9299H143.357V32.1299H143.557V31.9299ZM143.557 25.499H143.757V25.299H143.557V25.499ZM135.477 25.499V25.299H135.277V25.499H135.477ZM135.477 31.9299V32.1299H135.677V31.9299H135.477ZM134.427 31.9299H134.227V32.1299H134.427V31.9299ZM134.427 18.4943V18.2943H134.227V18.4943H134.427ZM135.477 18.4943H135.677V18.2943H135.477V18.4943ZM135.477 24.5352H135.277V24.7352H135.477V24.5352ZM143.557 24.5352V24.7352H143.757V24.5352H143.557ZM143.557 18.4943V18.2943H143.357V18.4943H143.557ZM132.164 18V17.8H131.964V18H132.164ZM138.046 18H138.246V17.8H138.046V18ZM138.046 18.8238V19.0238H138.246V18.8238H138.046ZM132.164 18.8238H131.964V19.0238H132.164V18.8238ZM141.167 18V17.8H140.967V18H141.167ZM147.049 18H147.249V17.8H147.049V18ZM147.049 18.8238V19.0238H147.249V18.8238H147.049ZM141.167 18.8238H140.967V19.0238H141.167V18.8238ZM131.888 31.3176V31.1176H131.688V31.3176H131.888ZM137.771 31.3176H137.971V31.1176H137.771V31.3176ZM137.771 32.1414V32.3414H137.971V32.1414H137.771ZM131.888 32.1414H131.688V32.3414H131.888V32.1414ZM141.167 31.3176V31.1176H140.967V31.3176H141.167ZM147.049 31.3176H147.249V31.1176H147.049V31.3176ZM147.049 32.1414V32.3414H147.249V32.1414H147.049ZM141.167 32.1414H140.967V32.3414H141.167V32.1414ZM83.525 31.3176V31.1176H83.325V31.3176H83.525ZM87.5137 31.3176H87.7137V31.1176H87.5137V31.3176ZM87.5137 32.1414V32.3414H87.7137V32.1414H87.5137ZM83.525 32.1414H83.325V32.3414H83.525V32.1414ZM94.0852 28.4838L94.272 28.4123L94.2228 28.2838H94.0852V28.4838ZM87.1057 28.4838V28.2838H86.9681L86.9189 28.4123L87.1057 28.4838ZM85.7577 32.0041V32.2041H85.8953L85.9445 32.0756L85.7577 32.0041ZM84.6551 32.0041L84.4688 31.9314L84.3625 32.2041H84.6551V32.0041ZM90.0524 18.162V17.962H89.9157L89.8661 18.0894L90.0524 18.162ZM91.155 18.162L91.3415 18.0895L91.2919 17.962H91.155V18.162ZM96.5358 32.0041V32.2041H96.8281L96.7222 31.9316L96.5358 32.0041ZM95.4332 32.0041L95.2464 32.0756L95.2956 32.2041H95.4332V32.0041ZM93.7076 27.4953V27.6953H93.9988L93.8943 27.4235L93.7076 27.4953ZM90.612 19.4498L90.7987 19.378L90.6121 18.8931L90.4254 19.378L90.612 19.4498ZM87.5137 27.4953L87.327 27.4234L87.2223 27.6953H87.5137V27.4953ZM93.6414 31.3176V31.1176H93.4414V31.3176H93.6414ZM97.6301 31.3176H97.8301V31.1176H97.6301V31.3176ZM97.6301 32.1414V32.3414H97.8301V32.1414H97.6301ZM93.6414 32.1414H93.4414V32.3414H93.6414V32.1414ZM98.1318 18.162V17.962H97.8433L97.9445 18.2322L98.1318 18.162ZM99.2841 18.162L99.4718 18.093L99.4237 17.962H99.2841V18.162ZM103.868 30.6394L103.68 30.7083L103.868 31.2181L104.056 30.7086L103.868 30.6394ZM108.474 18.162V17.962H108.335L108.287 18.0927L108.474 18.162ZM109.605 18.162L109.792 18.2322L109.893 17.962H109.605V18.162ZM104.419 32.0041V32.2041H104.558L104.607 32.0742L104.419 32.0041ZM103.317 32.0041L103.13 32.0742L103.178 32.2041H103.317V32.0041ZM96.8115 18V17.8H96.6115V18H96.8115ZM100.8 18H101V17.8H100.8V18ZM100.8 18.8238V19.0238H101V18.8238H100.8ZM96.8115 18.8238H96.6115V19.0238H96.8115V18.8238ZM106.873 18.0082V17.8082H106.673V18.0082H106.873ZM110.862 18.0082H111.062V17.8082H110.862V18.0082ZM110.862 18.832V19.032H111.062V18.832H110.862ZM106.873 18.832H106.673V19.032H106.873V18.832ZM160.306 28.4701L160.492 28.3981L160.443 28.2701H160.306V28.4701ZM153.34 28.4701V28.2701H153.202L153.153 28.3985L153.34 28.4701ZM151.989 31.9903V32.1903H152.127L152.176 32.062L151.989 31.9903ZM150.886 31.9903L150.7 31.9177L150.594 32.1903H150.886V31.9903ZM156.284 18.151V17.951H156.147L156.097 18.0784L156.284 18.151ZM157.386 18.151L157.573 18.0785L157.523 17.951H157.386V18.151ZM162.767 31.9903V32.1903H163.059L162.953 31.9179L162.767 31.9903ZM161.664 31.9903L161.478 32.0624L161.527 32.1903H161.664V31.9903ZM159.928 27.4733V27.6733H160.219L160.115 27.4017L159.928 27.4733ZM156.846 19.4361L157.033 19.3645L156.847 18.8797L156.66 19.3639L156.846 19.4361ZM153.737 27.4733L153.55 27.4012L153.445 27.6733H153.737V27.4733ZM149.414 31.3176V31.1176H149.214V31.3176H149.414ZM153.403 31.3176H153.603V31.1176H153.403V31.3176ZM153.403 32.1414V32.3414H153.603V32.1414H153.403ZM149.414 32.1414H149.214V32.3414H149.414V32.1414ZM160.074 31.3176V31.1176H159.874V31.3176H160.074ZM164.063 31.3176H164.263V31.1176H164.063V31.3176ZM164.063 32.1414V32.3414H164.263V32.1414H164.063ZM160.074 32.1414H159.874V32.3414H160.074V32.1414ZM173.937 26.3173L174.109 26.2166L174.051 26.1173H173.937V26.3173ZM169.526 26.3173V26.1173H169.326V26.3173H169.526ZM169.526 31.9903V32.1903H169.726V31.9903H169.526ZM168.473 31.9903H168.273V32.1903H168.473V31.9903ZM168.473 18.151V17.951H168.273V18.151H168.473ZM173.95 18.151V18.351L173.951 18.351L173.95 18.151ZM175.003 26.1773L174.953 25.9838L174.696 26.0512L174.831 26.2794L175.003 26.1773ZM178.457 31.9903V32.1903H178.809L178.629 31.8882L178.457 31.9903ZM177.244 31.9903L177.072 32.0911L177.13 32.1903H177.244V31.9903ZM169.526 25.3288H169.326V25.5288H169.526V25.3288ZM169.526 19.1395V18.9395H169.326V19.1395H169.526ZM167.076 31.3176V31.1176H166.876V31.3176H167.076ZM171.064 31.3176H171.264V31.1176H171.064V31.3176ZM171.064 32.1414V32.3414H171.264V32.1414H171.064ZM167.076 32.1414H166.876V32.3414H167.076V32.1414ZM175.648 31.3176V31.1176H175.448V31.3176H175.648ZM179.637 31.3176H179.837V31.1176H179.637V31.3176ZM179.637 32.1414V32.3414H179.837V32.1414H179.637ZM175.648 32.1414H175.448V32.3414H175.648V32.1414ZM197.182 31.9903V32.1903H197.382V31.9903H197.182ZM196.132 31.9903H195.932V32.1903H196.132V31.9903ZM196.132 19.6915H196.332V18.9735L195.961 19.5881L196.132 19.6915ZM190.991 28.2037V28.4037H191.104L191.162 28.3071L190.991 28.2037ZM190.812 28.2037L190.641 28.3071L190.699 28.4037H190.812V28.2037ZM185.671 19.6915L185.842 19.5881L185.471 18.9734V19.6915H185.671ZM185.671 31.9903V32.1903H185.871V31.9903H185.671ZM184.618 31.9903H184.418V32.1903H184.618V31.9903ZM184.618 18.151V17.951H184.418V18.151H184.618ZM185.93 18.151L186.101 18.0473L186.043 17.951H185.93V18.151ZM190.892 26.3365L190.721 26.4402L190.892 26.7224L191.063 26.4402L190.892 26.3365ZM195.854 18.151V17.951H195.741L195.683 18.0473L195.854 18.151ZM197.182 18.151H197.382V17.951H197.182V18.151ZM183.072 31.3176V31.1176H182.872V31.3176H183.072ZM187.06 31.3176H187.26V31.1176H187.06V31.3176ZM187.06 32.1414V32.3414H187.26V32.1414H187.06ZM183.072 32.1414H182.872V32.3414H183.072V32.1414ZM194.715 31.3176V31.1176H194.515V31.3176H194.715ZM198.704 31.3176H198.904V31.1176H198.704V31.3176ZM198.704 32.1414V32.3414H198.904V32.1414H198.704ZM194.715 32.1414H194.515V32.3414H194.715V32.1414ZM230.038 18.1373H230.238V17.9373H230.038V18.1373ZM230.038 31.9903V32.1903H230.238V31.9903H230.038ZM229.067 31.9903L228.902 32.1034L228.962 32.1903H229.067V31.9903ZM220.905 20.0869L221.07 19.9738L220.705 19.4415V20.0869H220.905ZM220.905 31.9931V32.1931H221.105V31.9931H220.905ZM219.855 31.9931H219.655V32.1931H219.855V31.9931ZM219.855 18.1373V17.9373H219.655V18.1373H219.855ZM220.767 18.1373L220.932 18.0238L220.872 17.9373H220.767V18.1373ZM228.985 30.0545L228.82 30.168L229.185 30.6969V30.0545H228.985ZM228.985 18.1373V17.9373H228.785V18.1373H228.985ZM218.513 31.3176V31.1176H218.313V31.3176H218.513ZM222.501 31.3176H222.701V31.1176H222.501V31.3176ZM222.501 32.1414V32.3414H222.701V32.1414H222.501ZM218.513 32.1414H218.313V32.3414H218.513V32.1414ZM227.471 18V17.8H227.271V18H227.471ZM231.46 18H231.66V17.8H231.46V18ZM231.46 18.8238V19.0238H231.66V18.8238H231.46ZM227.471 18.8238H227.271V19.0238H227.471V18.8238ZM63.9039 18.162V17.962H63.6375L63.7119 18.2179L63.9039 18.162ZM65.0065 18.162L65.1987 18.1066L65.1571 17.962H65.0065V18.162ZM68.59 30.6009L68.3979 30.6563L68.5829 31.2987L68.7811 30.6602L68.59 30.6009ZM72.4492 18.162V17.962H72.3018L72.2582 18.1027L72.4492 18.162ZM73.7007 18.162L73.8915 18.1023L73.8477 17.962H73.7007V18.162ZM77.5901 30.6009L77.3992 30.6606L77.598 31.2962L77.7823 30.6563L77.5901 30.6009ZM81.1736 18.162V17.962H81.0231L80.9814 18.1066L81.1736 18.162ZM82.2762 18.162L82.4684 18.2174L82.5421 17.962H82.2762V18.162ZM78.2848 32.0041V32.2041H78.4353L78.477 32.0595L78.2848 32.0041ZM77.014 32.0041L76.8231 32.0636L76.8669 32.2041H77.014V32.0041ZM73.1245 19.5267L73.3155 19.4672L73.1253 18.8573L72.9337 19.4667L73.1245 19.5267ZM69.202 32.0041V32.2041H69.3488L69.3928 32.064L69.202 32.0041ZM67.9312 32.0041L67.7392 32.0599L67.7811 32.2041H67.9312V32.0041ZM61.9082 18.0165V17.8165H61.7082V18.0165H61.9082ZM67.7906 18.0165H67.9906V17.8165H67.7906V18.0165ZM67.7906 18.8402V19.0402H67.9906V18.8402H67.7906ZM61.9082 18.8402H61.7082V19.0402H61.9082V18.8402ZM78.5081 18.0165V17.8165H78.3081V18.0165H78.5081ZM84.3905 18.0165H84.5905V17.8165H84.3905V18.0165ZM84.3905 18.8402V19.0402H84.5905V18.8402H84.3905ZM78.5081 18.8402H78.3081V19.0402H78.5081V18.8402ZM241.723 26.375L241.554 26.2679L241.523 26.317V26.375H241.723ZM241.723 31.9794V32.1794H241.923V31.9794H241.723ZM240.67 31.9794H240.47V32.1794H240.67V31.9794ZM240.67 26.375H240.87V26.3171L240.839 26.2682L240.67 26.375ZM235.609 18.3625V18.1625H235.246L235.439 18.4693L235.609 18.3625ZM236.799 18.3625L236.969 18.2561L236.91 18.1625H236.799V18.3625ZM241.21 25.3837L241.04 25.4901L241.21 25.7601L241.379 25.4899L241.21 25.3837ZM245.607 18.3652V18.1652H245.496L245.437 18.259L245.607 18.3652ZM246.797 18.3652L246.966 18.4722L247.161 18.1652H246.797V18.3652ZM234.363 18V17.8H234.163V18H234.363ZM238.351 18H238.551V17.8H238.351V18ZM238.351 18.8238V19.0238H238.551V18.8238H238.351ZM234.363 18.8238H234.163V19.0238H234.363V18.8238ZM244.01 18V17.8H243.81V18H244.01ZM247.999 18H248.199V17.8H247.999V18ZM247.999 18.8238V19.0238H248.199V18.8238H247.999ZM244.01 18.8238H243.81V19.0238H244.01V18.8238ZM239.2 31.3176V31.1176H239V31.3176H239.2ZM243.189 31.3176H243.389V31.1176H243.189V31.3176ZM243.189 32.1414V32.3414H243.389V32.1414H243.189ZM239.2 32.1414H239V32.3414H239.2V32.1414ZM121.688 31.0155V32.0041H122.088V31.0155H121.688ZM121.888 31.8041H113.894V32.2041H121.888V31.8041ZM114.094 32.0041V18.162H113.694V32.0041H114.094ZM113.894 18.362H121.794V17.962H113.894V18.362ZM121.594 18.162V19.1533H121.994V18.162H121.594ZM121.794 18.9533H114.947V19.3533H121.794V18.9533ZM114.747 19.1533V24.5297H115.147V19.1533H114.747ZM114.947 24.7297H121.287V24.3297H114.947V24.7297ZM121.087 24.5297V25.5183H121.487V24.5297H121.087ZM121.287 25.3183H114.947V25.7183H121.287V25.3183ZM114.747 25.5183V31.01H115.147V25.5183H114.747ZM114.947 31.21L121.888 31.2155L121.888 30.8155L114.947 30.8101L114.947 31.21ZM201.531 25.0679C201.531 21.3402 204.592 18.3483 208.498 18.3483V17.9483C204.383 17.9483 201.131 21.1072 201.131 25.0679H201.531ZM208.498 18.3483C212.404 18.3483 215.465 21.351 215.465 25.0679H215.865C215.865 21.1184 212.613 17.9483 208.498 17.9483V18.3483ZM215.465 25.0679C215.465 28.785 212.404 31.7903 208.498 31.7903V32.1903C212.613 32.1903 215.865 29.0174 215.865 25.0679H215.465ZM208.498 31.7903C204.592 31.7903 201.531 28.7877 201.531 25.0679H201.131C201.131 29.0202 204.383 32.1903 208.498 32.1903V31.7903ZM214.809 25.0679C214.809 21.658 212.036 18.9258 208.495 18.9258V19.3258C211.824 19.3258 214.409 21.8877 214.409 25.0679H214.809ZM208.495 18.9258C204.955 18.9258 202.181 21.6552 202.181 25.0679H202.581C202.581 21.885 205.167 19.3258 208.495 19.3258V18.9258ZM202.181 25.0679C202.181 28.4806 204.955 31.2128 208.495 31.2128V30.8128C205.167 30.8128 202.581 28.2509 202.581 25.0679H202.181ZM208.495 31.2128C212.036 31.2128 214.809 28.4805 214.809 25.0679H214.409C214.409 28.2509 211.824 30.8128 208.495 30.8128V31.2128ZM144.41 18.4943V31.9299H144.81V18.4943H144.41ZM144.61 31.7299H143.557V32.1299H144.61V31.7299ZM143.757 31.9299V25.499H143.357V31.9299H143.757ZM143.557 25.299H135.477V25.699H143.557V25.299ZM135.277 25.499V31.9299H135.677V25.499H135.277ZM135.477 31.7299H134.427V32.1299H135.477V31.7299ZM134.627 31.9299V18.4943H134.227V31.9299H134.627ZM134.427 18.6943H135.477V18.2943H134.427V18.6943ZM135.277 18.4943V24.5352H135.677V18.4943H135.277ZM135.477 24.7352H143.557V24.3352H135.477V24.7352ZM143.757 24.5352V18.4943H143.357V24.5352H143.757ZM143.557 18.6943H144.61V18.2943H143.557V18.6943ZM132.164 18.2H138.046V17.8H132.164V18.2ZM137.846 18V18.8238H138.246V18H137.846ZM138.046 18.6238H132.164V19.0238H138.046V18.6238ZM132.364 18.8238V18H131.964V18.8238H132.364ZM141.167 18.2H147.049V17.8H141.167V18.2ZM146.849 18V18.8238H147.249V18H146.849ZM147.049 18.6238H141.167V19.0238H147.049V18.6238ZM141.367 18.8238V18H140.967V18.8238H141.367ZM131.888 31.5176H137.771V31.1176H131.888V31.5176ZM137.571 31.3176V32.1414H137.971V31.3176H137.571ZM137.771 31.9414H131.888V32.3414H137.771V31.9414ZM132.088 32.1414V31.3176H131.688V32.1414H132.088ZM141.167 31.5176H147.049V31.1176H141.167V31.5176ZM146.849 31.3176V32.1414H147.249V31.3176H146.849ZM147.049 31.9414H141.167V32.3414H147.049V31.9414ZM141.367 32.1414V31.3176H140.967V32.1414H141.367ZM83.525 31.5176H87.5137V31.1176H83.525V31.5176ZM87.3137 31.3176V32.1414H87.7137V31.3176H87.3137ZM87.5137 31.9414H83.525V32.3414H87.5137V31.9414ZM83.725 32.1414V31.3176H83.325V32.1414H83.725ZM94.0852 28.2838H87.1057V28.6838H94.0852V28.2838ZM86.9189 28.4123L85.571 31.9325L85.9445 32.0756L87.2925 28.5553L86.9189 28.4123ZM85.7577 31.8041H84.6551V32.2041H85.7577V31.8041ZM84.8415 32.0767L90.2388 18.2347L89.8661 18.0894L84.4688 31.9314L84.8415 32.0767ZM90.0524 18.362H91.155V17.962H90.0524V18.362ZM90.9686 18.2345L96.3494 32.0765L96.7222 31.9316L91.3415 18.0895L90.9686 18.2345ZM96.5358 31.8041H95.4332V32.2041H96.5358V31.8041ZM95.62 31.9325L94.272 28.4123L93.8985 28.5553L95.2464 32.0756L95.62 31.9325ZM93.8943 27.4235L90.7987 19.378L90.4253 19.5217L93.5209 27.5671L93.8943 27.4235ZM90.4254 19.378L87.327 27.4234L87.7003 27.5672L90.7986 19.5217L90.4254 19.378ZM87.5137 27.6953H93.7076V27.2953H87.5137V27.6953ZM93.6414 31.5176H97.6301V31.1176H93.6414V31.5176ZM97.4301 31.3176V32.1414H97.8301V31.3176H97.4301ZM97.6301 31.9414H93.6414V32.3414H97.6301V31.9414ZM93.8414 32.1414V31.3176H93.4414V32.1414H93.8414ZM98.1318 18.362H99.2841V17.962H98.1318V18.362ZM99.0963 18.231L103.68 30.7083L104.056 30.5704L99.4718 18.093L99.0963 18.231ZM104.056 30.7086L108.662 18.2313L108.287 18.0927L103.681 30.5701L104.056 30.7086ZM108.474 18.362H109.605V17.962H108.474V18.362ZM109.417 18.0918L104.232 31.9339L104.607 32.0742L109.792 18.2322L109.417 18.0918ZM104.419 31.8041H103.317V32.2041H104.419V31.8041ZM103.504 31.9339L98.3191 18.0918L97.9445 18.2322L103.13 32.0742L103.504 31.9339ZM96.8115 18.2H100.8V17.8H96.8115V18.2ZM100.6 18V18.8238H101V18H100.6ZM100.8 18.6238H96.8115V19.0238H100.8V18.6238ZM97.0115 18.8238V18H96.6115V18.8238H97.0115ZM106.873 18.2082H110.862V17.8082H106.873V18.2082ZM110.662 18.0082V18.832H111.062V18.0082H110.662ZM110.862 18.632H106.873V19.032H110.862V18.632ZM107.073 18.832V18.0082H106.673V18.832H107.073ZM160.306 28.2701H153.34V28.6701H160.306V28.2701ZM153.153 28.3985L151.802 31.9187L152.176 32.062L153.526 28.5417L153.153 28.3985ZM151.989 31.7903H150.886V32.1903H151.989V31.7903ZM151.073 32.063L156.47 18.2237L156.097 18.0784L150.7 31.9177L151.073 32.063ZM156.284 18.351H157.386V17.951H156.284V18.351ZM157.2 18.2235L162.581 32.0628L162.953 31.9179L157.573 18.0785L157.2 18.2235ZM162.767 31.7903H161.664V32.1903H162.767V31.7903ZM161.851 31.9183L160.492 28.3981L160.119 28.5421L161.478 32.0624L161.851 31.9183ZM160.115 27.4017L157.033 19.3645L156.659 19.5077L159.741 27.5449L160.115 27.4017ZM156.66 19.3639L153.55 27.4012L153.923 27.5455L157.033 19.5083L156.66 19.3639ZM153.737 27.6733H159.928V27.2733H153.737V27.6733ZM149.414 31.5176H153.403V31.1176H149.414V31.5176ZM153.203 31.3176V32.1414H153.603V31.3176H153.203ZM153.403 31.9414H149.414V32.3414H153.403V31.9414ZM149.614 32.1414V31.3176H149.214V32.1414H149.614ZM160.074 31.5176H164.063V31.1176H160.074V31.5176ZM163.863 31.3176V32.1414H164.263V31.3176H163.863ZM164.063 31.9414H160.074V32.3414H164.063V31.9414ZM160.274 32.1414V31.3176H159.874V32.1414H160.274ZM173.937 26.1173H169.526V26.5173H173.937V26.1173ZM169.326 26.3173V31.9903H169.726V26.3173H169.326ZM169.526 31.7903H168.473V32.1903H169.526V31.7903ZM168.673 31.9903V18.151H168.273V31.9903H168.673ZM168.473 18.351H173.95V17.951H168.473V18.351ZM173.951 18.351C174.899 18.3488 175.814 18.6906 176.527 19.3124L176.79 19.0109C176.004 18.3253 174.994 17.9485 173.95 17.951L173.951 18.351ZM176.527 19.3124C177.24 19.9341 177.701 20.7932 177.824 21.7287L178.22 21.6766C178.085 20.6443 177.576 19.6966 176.79 19.0109L176.527 19.3124ZM177.824 21.7287C177.946 22.6642 177.723 23.6122 177.194 24.3954L177.526 24.6191C178.109 23.7551 178.356 22.709 178.22 21.6766L177.824 21.7287ZM177.194 24.3954C176.666 25.1786 175.869 25.7434 174.953 25.9838L175.054 26.3707C176.064 26.1057 176.943 25.4831 177.526 24.6191L177.194 24.3954ZM174.831 26.2794L178.285 32.0925L178.629 31.8882L175.175 26.0751L174.831 26.2794ZM178.457 31.7903H177.244V32.1903H178.457V31.7903ZM177.417 31.8896L174.109 26.2166L173.764 26.4181L177.072 32.0911L177.417 31.8896ZM169.526 25.5288H173.95V25.1288H169.526V25.5288ZM173.95 25.5288C174.827 25.5288 175.668 25.1819 176.288 24.5641L176.006 24.2807C175.461 24.8236 174.721 25.1288 173.95 25.1288V25.5288ZM176.288 24.5641C176.908 23.9463 177.257 23.1082 177.257 22.2342H176.857C176.857 23.0016 176.551 23.7378 176.006 24.2807L176.288 24.5641ZM177.257 22.2342C177.257 21.3601 176.908 20.522 176.288 19.9042L176.006 20.1876C176.551 20.7305 176.857 21.4667 176.857 22.2342H177.257ZM176.288 19.9042C175.668 19.2865 174.827 18.9395 173.95 18.9395V19.3395C174.721 19.3395 175.461 19.6447 176.006 20.1876L176.288 19.9042ZM173.95 18.9395H169.526V19.3395H173.95V18.9395ZM169.326 19.1395V25.3288H169.726V19.1395H169.326ZM167.076 31.5176H171.064V31.1176H167.076V31.5176ZM170.864 31.3176V32.1414H171.264V31.3176H170.864ZM171.064 31.9414H167.076V32.3414H171.064V31.9414ZM167.276 32.1414V31.3176H166.876V32.1414H167.276ZM175.648 31.5176H179.637V31.1176H175.648V31.5176ZM179.437 31.3176V32.1414H179.837V31.3176H179.437ZM179.637 31.9414H175.648V32.3414H179.637V31.9414ZM175.848 32.1414V31.3176H175.448V32.1414H175.848ZM197.182 31.7903H196.132V32.1903H197.182V31.7903ZM196.332 31.9903V19.6915H195.932V31.9903H196.332ZM195.961 19.5881L190.82 28.1003L191.162 28.3071L196.303 19.7949L195.961 19.5881ZM190.991 28.0037H190.812V28.4037H190.991V28.0037ZM190.983 28.1003L185.842 19.5881L185.5 19.7949L190.641 28.3071L190.983 28.1003ZM185.471 19.6915V31.9903H185.871V19.6915H185.471ZM185.671 31.7903H184.618V32.1903H185.671V31.7903ZM184.818 31.9903V18.151H184.418V31.9903H184.818ZM184.618 18.351H185.93V17.951H184.618V18.351ZM185.759 18.2547L190.721 26.4402L191.063 26.2329L186.101 18.0473L185.759 18.2547ZM191.063 26.4402L196.025 18.2547L195.683 18.0473L190.721 26.2329L191.063 26.4402ZM195.854 18.351H197.182V17.951H195.854V18.351ZM196.982 18.151V31.9903H197.382V18.151H196.982ZM183.072 31.5176H187.06V31.1176H183.072V31.5176ZM186.86 31.3176V32.1414H187.26V31.3176H186.86ZM187.06 31.9414H183.072V32.3414H187.06V31.9414ZM183.272 32.1414V31.3176H182.872V32.1414H183.272ZM194.715 31.5176H198.704V31.1176H194.715V31.5176ZM198.504 31.3176V32.1414H198.904V31.3176H198.504ZM198.704 31.9414H194.715V32.3414H198.704V31.9414ZM194.915 32.1414V31.3176H194.515V32.1414H194.915ZM229.838 18.1373V31.9903H230.238V18.1373H229.838ZM230.038 31.7903H229.067V32.1903H230.038V31.7903ZM229.232 31.8772L221.07 19.9738L220.74 20.2L228.902 32.1034L229.232 31.8772ZM220.705 20.0869V31.9931H221.105V20.0869H220.705ZM220.905 31.7931H219.855V32.1931H220.905V31.7931ZM220.055 31.9931V18.1373H219.655V31.9931H220.055ZM219.855 18.3373H220.767V17.9373H219.855V18.3373ZM220.603 18.2508L228.82 30.168L229.149 29.9409L220.932 18.0238L220.603 18.2508ZM229.185 30.0545V18.1373H228.785V30.0545H229.185ZM228.985 18.3373H230.038V17.9373H228.985V18.3373ZM218.513 31.5176H222.501V31.1176H218.513V31.5176ZM222.301 31.3176V32.1414H222.701V31.3176H222.301ZM222.501 31.9414H218.513V32.3414H222.501V31.9414ZM218.713 32.1414V31.3176H218.313V32.1414H218.713ZM227.471 18.2H231.46V17.8H227.471V18.2ZM231.26 18V18.8238H231.66V18H231.26ZM231.46 18.6238H227.471V19.0238H231.46V18.6238ZM227.671 18.8238V18H227.271V18.8238H227.671ZM63.9039 18.362H65.0065V17.962H63.9039V18.362ZM64.8144 18.2174L68.3979 30.6563L68.7822 30.5455L65.1987 18.1066L64.8144 18.2174ZM68.7811 30.6602L72.6402 18.2213L72.2582 18.1027L68.399 30.5417L68.7811 30.6602ZM72.4492 18.362H73.7007V17.962H72.4492V18.362ZM73.5098 18.2217L77.3992 30.6606L77.781 30.5412L73.8915 18.1023L73.5098 18.2217ZM77.7823 30.6563L81.3658 18.2174L80.9814 18.1066L77.398 30.5455L77.7823 30.6563ZM81.1736 18.362H82.2762V17.962H81.1736V18.362ZM82.0841 18.1066L78.0926 31.9486L78.477 32.0595L82.4684 18.2174L82.0841 18.1066ZM78.2848 31.8041H77.014V32.2041H78.2848V31.8041ZM77.205 31.9445L73.3155 19.4672L72.9336 19.5862L76.8231 32.0636L77.205 31.9445ZM72.9337 19.4667L69.0112 31.9441L69.3928 32.064L73.3153 19.5867L72.9337 19.4667ZM69.202 31.8041H67.9312V32.2041H69.202V31.8041ZM68.1233 31.9482L64.096 18.1061L63.7119 18.2179L67.7392 32.0599L68.1233 31.9482ZM61.9082 18.2165H67.7906V17.8165H61.9082V18.2165ZM67.5906 18.0165V18.8402H67.9906V18.0165H67.5906ZM67.7906 18.6402H61.9082V19.0402H67.7906V18.6402ZM62.1082 18.8402V18.0165H61.7082V18.8402H62.1082ZM78.5081 18.2165H84.3905V17.8165H78.5081V18.2165ZM84.1905 18.0165V18.8402H84.5905V18.0165H84.1905ZM84.3905 18.6402H78.5081V19.0402H84.3905V18.6402ZM78.7081 18.8402V18.0165H78.3081V18.8402H78.7081ZM241.523 26.375V31.9794H241.923V26.375H241.523ZM241.723 31.7794H240.67V32.1794H241.723V31.7794ZM240.87 31.9794V26.375H240.47V31.9794H240.87ZM240.839 26.2682L235.778 18.2557L235.439 18.4693L240.5 26.4818L240.839 26.2682ZM235.609 18.5625H236.799V18.1625H235.609V18.5625ZM236.63 18.4688L241.04 25.4901L241.379 25.2773L236.969 18.2561L236.63 18.4688ZM241.379 25.4899L245.776 18.4714L245.437 18.259L241.04 25.2775L241.379 25.4899ZM245.607 18.5652H246.797V18.1652H245.607V18.5652ZM246.628 18.2582L241.554 26.2679L241.891 26.482L246.966 18.4722L246.628 18.2582ZM234.363 18.2H238.351V17.8H234.363V18.2ZM238.151 18V18.8238H238.551V18H238.151ZM238.351 18.6238H234.363V19.0238H238.351V18.6238ZM234.563 18.8238V18H234.163V18.8238H234.563ZM244.01 18.2H247.999V17.8H244.01V18.2ZM247.799 18V18.8238H248.199V18H247.799ZM247.999 18.6238H244.01V19.0238H247.999V18.6238ZM244.21 18.8238V18H243.81V18.8238H244.21ZM239.2 31.5176H243.189V31.1176H239.2V31.5176ZM242.989 31.3176V32.1414H243.389V31.3176H242.989ZM243.189 31.9414H239.2V32.3414H243.189V31.9414ZM239.4 32.1414V31.3176H239V32.1414H239.4Z" fill="#1FA4B5" mask="url(#path-3-outside-1)"/>
</g>
<defs>
<clipPath id="clip0">
<rect width="248" height="50" fill="white"/>
</clipPath>
</defs>
</svg>
