<svg viewBox="0 0 512 512" xmlns="http://www.w3.org/2000/svg" xmlns:xlink="http://www.w3.org/1999/xlink"><style>:root&gt;svg{display:none}:root&gt;svg:target{display:block}</style><svg viewBox="0 0 18 18" fill="none" xmlns="http://www.w3.org/2000/svg" id="plans"><path d="M17.023 0H1.383A.782.782 0 00.6.782v16.162c0 .432.35.782.782.782h15.64c.432 0 .783-.35.783-.782V.782A.782.782 0 0017.023 0zm-.782 6.256h-2.347a.782.782 0 000 1.564h2.347v8.342H6.335v-2.346a.782.782 0 10-1.564 0v2.346H2.164V1.564h2.607v8.602a.782.782 0 001.564 0V7.82h3.91a.782.782 0 000-1.564h-3.91V1.564h9.905v4.692z" fill="#124570"/></svg><svg viewBox="0 0 28 26" fill="none" xmlns="http://www.w3.org/2000/svg" id="single-bed"><path d="M27.442 15.336a4.36 4.36 0 00-2.77-4.054V.033H3.436v11.249a4.36 4.36 0 00-2.77 4.054v6.222h.742v4.184h25.344v-4.184h.689v-6.222zm-8.897-4.502H9.55V6.146h8.995v4.688zM5.006 1.602h18.096v9.232h-2.988V4.577H7.98v6.257H5.006V1.602zm-2.77 13.734a2.787 2.787 0 012.784-2.784h18.069a2.787 2.787 0 012.784 2.784v4.653H2.236v-4.653zm22.948 8.837H2.978v-2.615h22.206v2.615z" fill="#124570"/></svg><svg viewBox="0 0 41 41" fill="none" xmlns="http://www.w3.org/2000/svg" id="sofa"><path d="M41 14.35h-1.367V6.833H1.367v7.517H0v15.717h1.367v2.05h1.366v.683a.684.684 0 000 1.367H4.1a.684.684 0 000-1.367v-.683h1.367v-2.05h30.066v2.05H36.9v.683a.684.684 0 000 1.367h1.367a.684.684 0 000-1.367v-.683h1.366v-2.05H41V14.35zM27.333 8.2h10.934v6.15h-2.734v4.783h-8.2V8.2zM5.467 20.5h14.35v4.1H5.467v-4.1zm15.716 0h14.35v4.1h-14.35v-4.1zm-6.15-12.3h10.934v10.933H15.033V8.2zm-12.3 0h10.934v10.933h-8.2V14.35H2.733V8.2zM4.1 30.75H2.733v-.683H4.1v.683zm34.167 0H36.9v-.683h1.367v.683zm1.366-2.05H1.367V15.717H4.1v10.25h32.8v-10.25h2.733V28.7z" fill="#124570"/></svg><svg viewBox="0 0 21 21" fill="none" xmlns="http://www.w3.org/2000/svg" id="stairs"><path d="M18.881 3.895h-4.19a.82.82 0 00-.82.819V7.76H10.5a.82.82 0 00-.82.82v3.047H6.31a.82.82 0 00-.82.82v3.046H2.12a.82.82 0 00-.82.82v3.866c0 .453.367.82.82.82h16.76a.82.82 0 00.82-.82V4.714a.82.82 0 00-.82-.82zm-.82 15.466H2.939v-2.228H6.31a.82.82 0 00.82-.82v-3.047h3.37a.82.82 0 00.82-.819V9.4h3.372a.82.82 0 00.819-.82V5.533h2.552v13.828z" fill="#124570"/></svg><svg viewBox="0 0 22 22" fill="none" xmlns="http://www.w3.org/2000/svg" id="bathroom"><g clip-path="url(#clip0)" fill="#124570"><path d="M12.32 16.007a.647.647 0 10-1.29.09l.043.623a.647.647 0 101.29-.09l-.043-.623zm3.065-1.592a.647.647 0 00-1.183.522l.237.537a.647.647 0 101.184-.522l-.238-.537zm2.995-1.562a.647.647 0 00-.936.893l.431.452a.647.647 0 10.936-.893l-.43-.452zm-6.834 6.497a.647.647 0 00-.614.677l.031.645a.647.647 0 101.293-.063l-.032-.645a.647.647 0 00-.678-.614zm3.76-.909a.647.647 0 10-1.24.368l.172.583a.647.647 0 001.24-.368l-.172-.583zm3.04-1.521a.647.647 0 10-1.108.669l.314.52a.647.647 0 101.108-.668l-.314-.52zm3.467-1.034l-.456-.458a.647.647 0 10-.917.912l.455.458a.647.647 0 10.918-.912z"/><path d="M18.56 8.597l-.195-.44a1.728 1.728 0 00-1.843-1.002l-.121-.271a3.748 3.748 0 00-4.018-2.186l-.425-.966A6.245 6.245 0 006.242.004 6.25 6.25 0 000 6.248V21.35c0 .357.29.647.647.647h2.587c.358 0 .647-.29.647-.647V6.248a2.363 2.363 0 114.524-.952l.457 1.037a3.751 3.751 0 00-.903 4.309l.12.271a1.725 1.725 0 00-.486 2.04l.195.44a1.911 1.911 0 002.525.97l7.279-3.24a1.914 1.914 0 00.969-2.526zM15.22 7.41l.097.217-6.079 2.706-.096-.217a2.46 2.46 0 011.25-3.256l1.571-.7a2.459 2.459 0 013.257 1.25zM6.243 2.592a3.66 3.66 0 00-3.656 3.656v14.456H1.294V6.248c0-2.73 2.22-4.95 4.95-4.95 1.96 0 3.74 1.16 4.53 2.956l.375.852-1.182.527-.378-.858a3.657 3.657 0 00-3.346-2.183zM17.065 9.94l-7.278 3.24a.618.618 0 01-.817-.313l-.196-.44a.431.431 0 01.22-.57l7.62-3.392a.432.432 0 01.57.219l.195.44a.62.62 0 01-.314.816z"/></g><defs><clipPath id="clip0"><path fill="#fff" d="M0 0h22v22H0z"/></clipPath></defs></svg><svg viewBox="0 0 21 19" fill="none" xmlns="http://www.w3.org/2000/svg" id="building"><path d="M16.179 7.206v9.472H4.724V7.206H3.402V17.34c0 .365.296.661.661.661H16.84a.66.66 0 00.66-.66V7.205h-1.32z" fill="#124570" stroke="#124570" stroke-width=".2"/><path d="M.933 8.952l-.074.066.066.075.88.986.067.075.075-.067 8.503-7.588 8.503 7.588.075.067.066-.075.88-.986.067-.075-.075-.066-9.01-8.04a.76.76 0 00-1.013 0l-9.01 8.04z" fill="#124570" stroke="#124570" stroke-width=".2"/></svg><svg viewBox="0 0 36 28" fill="none" xmlns="http://www.w3.org/2000/svg" id="double-bed"><path d="M35.25 14.433a4.315 4.315 0 00-2.814-4.04V.459H3.355v9.936a4.313 4.313 0 00-2.813 4.039v8.291h.965v4.593h32.778v-4.593h.965v-8.291zM5.389 2.493h25.014v7.634h-2.034V4.526H7.422v5.601H5.39V2.492zm11.49 7.634H9.456V6.56h7.423v3.567zm2.034-3.567h7.422v3.567h-7.422V6.56zM2.575 14.433a2.275 2.275 0 012.272-2.272h26.097a2.275 2.275 0 012.272 2.272v6.258H2.576v-6.258zm29.676 10.85H3.541v-2.559h28.71v2.56z" fill="#124570"/></svg><svg viewBox="0 0 22 22" fill="none" xmlns="http://www.w3.org/2000/svg" id="night"><path d="M20.994 10.666a.586.586 0 00-1.118-.226 6.284 6.284 0 01-2.274 2.638 6.244 6.244 0 01-3.428 1.019 6.278 6.278 0 01-6.27-6.271c0-1.224.351-2.409 1.018-3.427a6.284 6.284 0 012.637-2.275.586.586 0 00-.225-1.118A9.935 9.935 0 003.93 3.93 9.935 9.935 0 001 11a9.935 9.935 0 002.929 7.071A9.935 9.935 0 0011 21a9.935 9.935 0 007.071-2.929 9.935 9.935 0 002.923-7.405zm-3.752 6.576A8.77 8.77 0 0111 19.828a8.77 8.77 0 01-6.242-2.586A8.77 8.77 0 012.172 11a8.77 8.77 0 012.586-6.242 8.768 8.768 0 014.348-2.384c-.44.41-.832.874-1.165 1.383a7.413 7.413 0 00-1.21 4.069c0 4.104 3.34 7.443 7.443 7.443a7.413 7.413 0 004.069-1.21 7.48 7.48 0 001.383-1.165 8.768 8.768 0 01-2.384 4.348z" fill="#124570" stroke="#124570" stroke-width=".3"/><path d="M11.365 5.767a.586.586 0 00.171.594l1.183 1.067-.28 1.757a.586.586 0 00.854.61l1.487-.791 1.487.79a.586.586 0 00.854-.609l-.28-1.757 1.183-1.067a.586.586 0 00-.285-1.011l-1.573-.294-.88-1.499a.586.586 0 00-1.01 0l-.882 1.499-1.573.294a.586.586 0 00-.456.417zm2.507.391a.586.586 0 00.397-.279l.511-.869.511.87a.59.59 0 00.398.279l.67.125-.54.487a.586.586 0 00-.185.527l.145.91-.724-.385a.586.586 0 00-.55 0l-.723.385.145-.91a.586.586 0 00-.186-.527l-.54-.487.67-.125z" fill="#124570" stroke="#124570" stroke-width=".3"/></svg></svg>