<svg width="18" height="18" viewBox="0 0 18 18" fill="none" xmlns="http://www.w3.org/2000/svg">
<path d="M11.7825 14.4675C11.8528 14.5372 11.9085 14.6202 11.9466 14.7116C11.9847 14.803 12.0043 14.901 12.0043 15C12.0043 15.099 11.9847 15.1971 11.9466 15.2884C11.9085 15.3798 11.8528 15.4628 11.7825 15.5325C11.7127 15.6028 11.6298 15.6586 11.5384 15.6967C11.447 15.7348 11.349 15.7544 11.25 15.7544C11.1509 15.7544 11.0529 15.7348 10.9615 15.6967C10.8701 15.6586 10.7872 15.6028 10.7175 15.5325L4.71745 9.53252C4.64716 9.4628 4.59136 9.37984 4.55329 9.28845C4.51521 9.19705 4.49561 9.09903 4.49561 9.00002C4.49561 8.90101 4.51521 8.80298 4.55329 8.71158C4.59136 8.62019 4.64716 8.53724 4.71745 8.46752L10.7175 2.46752C10.8587 2.32629 11.0502 2.24695 11.25 2.24695C11.3488 2.24695 11.4468 2.26643 11.5381 2.30427C11.6295 2.34212 11.7125 2.39759 11.7825 2.46752C11.8524 2.53745 11.9079 2.62046 11.9457 2.71183C11.9835 2.8032 12.003 2.90112 12.003 3.00002C12.003 3.09891 11.9835 3.19684 11.9457 3.2882C11.9079 3.37957 11.8524 3.46259 11.7825 3.53252L6.30745 9.00002L11.7825 14.4675Z" fill="#CBCBCB"/>
</svg>
