<svg width="17" height="18" viewBox="0 0 17 18" fill="none" xmlns="http://www.w3.org/2000/svg">
<path d="M12.5446 8.46752C12.611 8.53724 12.6637 8.62019 12.6997 8.71158C12.7356 8.80298 12.7541 8.90101 12.7541 9.00002C12.7541 9.09903 12.7356 9.19705 12.6997 9.28845C12.6637 9.37984 12.611 9.46279 12.5446 9.53252L6.87795 15.5325C6.81211 15.6028 6.73376 15.6586 6.64745 15.6967C6.56113 15.7348 6.46855 15.7544 6.37504 15.7544C6.28153 15.7544 6.18895 15.7348 6.10263 15.6967C6.01631 15.6586 5.93797 15.6028 5.87212 15.5325C5.80573 15.4628 5.75303 15.3798 5.71707 15.2884C5.68111 15.1971 5.6626 15.099 5.6626 15C5.6626 14.901 5.68111 14.803 5.71707 14.7116C5.75303 14.6202 5.80573 14.5372 5.87212 14.4675L11.043 9.00002L5.87212 3.53252C5.73874 3.39129 5.66381 3.19974 5.66381 3.00002C5.66381 2.80029 5.73874 2.60874 5.87212 2.46752C6.0055 2.32629 6.18641 2.24695 6.37504 2.24695C6.56367 2.24695 6.74457 2.32629 6.87795 2.46752L12.5446 8.46752Z" fill="#CBCBCB"/>
</svg>
