<svg width="19" height="19" viewBox="0 0 19 19" fill="none" xmlns="http://www.w3.org/2000/svg">
<path d="M13.2289 8.47875L10.0622 11.6454C9.98863 11.7196 9.90108 11.7785 9.8046 11.8187C9.70813 11.8589 9.60466 11.8796 9.50015 11.8796C9.39564 11.8796 9.29216 11.8589 9.19569 11.8187C9.09922 11.7785 9.01166 11.7196 8.93806 11.6454L5.7714 8.47875C5.69758 8.40494 5.63903 8.31731 5.59908 8.22087C5.55914 8.12443 5.53857 8.02106 5.53857 7.91667C5.53857 7.81228 5.55914 7.70892 5.59908 7.61247C5.63903 7.51603 5.69758 7.4284 5.7714 7.35459C5.84521 7.28077 5.93284 7.22222 6.02928 7.18227C6.12573 7.14233 6.22909 7.12177 6.33348 7.12177C6.43787 7.12177 6.54124 7.14233 6.63768 7.18227C6.73412 7.22222 6.82175 7.28077 6.89556 7.35459L9.50015 9.96709L12.1047 7.35459C12.2538 7.20551 12.456 7.12177 12.6668 7.12177C12.8776 7.12177 13.0798 7.20551 13.2289 7.35459C13.378 7.50366 13.4617 7.70585 13.4617 7.91667C13.4617 8.12749 13.378 8.32968 13.2289 8.47875Z" fill="#222221"/>
</svg>
