<svg width="24" height="24" viewBox="0 0 24 24" fill="none" xmlns="http://www.w3.org/2000/svg">
<path d="M19.71 12.7099L13.71 18.7099C13.6168 18.8032 13.5061 18.8771 13.3842 18.9276C13.2624 18.9781 13.1319 19.004 13 19.004C12.8681 19.004 12.7376 18.9781 12.6158 18.9276C12.4939 18.8771 12.3832 18.8032 12.29 18.7099C12.1968 18.6167 12.1228 18.506 12.0723 18.3842C12.0219 18.2624 11.9959 18.1318 11.9959 17.9999C11.9959 17.8681 12.0219 17.7375 12.0723 17.6157C12.1228 17.4939 12.1968 17.3832 12.29 17.2899L16.59 12.9999H5C4.73478 12.9999 4.48043 12.8946 4.29289 12.707C4.10536 12.5195 4 12.2652 4 11.9999C4 11.7347 4.10536 11.4804 4.29289 11.2928C4.48043 11.1053 4.73478 10.9999 5 10.9999H16.59L12.29 6.70994C12.1017 6.52164 11.9959 6.26624 11.9959 5.99994C11.9959 5.73364 12.1017 5.47825 12.29 5.28994C12.4783 5.10164 12.7337 4.99585 13 4.99585C13.2663 4.99585 13.5217 5.10164 13.71 5.28994L19.71 11.2899C19.8037 11.3829 19.8781 11.4935 19.9289 11.6154C19.9797 11.7372 20.0058 11.8679 20.0058 11.9999C20.0058 12.132 19.9797 12.2627 19.9289 12.3845C19.8781 12.5064 19.8037 12.617 19.71 12.7099Z" fill="#DF3616"/>
</svg>
