<svg width="24" height="24" viewBox="0 0 24 24" fill="none" xmlns="http://www.w3.org/2000/svg">
<path d="M17.7141 16.2899C17.9024 16.4782 18.0082 16.7336 18.0082 16.9999C18.0082 17.2662 17.9024 17.5216 17.7141 17.7099C17.5258 17.8982 17.2704 18.004 17.0041 18.004C16.7378 18.004 16.4824 17.8982 16.2941 17.7099L12.0041 13.4099L7.71409 17.7099C7.52579 17.8982 7.27039 18.004 7.00409 18.004C6.73779 18.004 6.4824 17.8982 6.29409 17.7099C6.10579 17.5216 6 17.2662 6 16.9999C6 16.7336 6.10579 16.4782 6.29409 16.2899L10.5941 11.9999L6.29409 7.70994C6.10579 7.52164 6 7.26624 6 6.99994C6 6.73364 6.10579 6.47825 6.29409 6.28994C6.4824 6.10164 6.73779 5.99585 7.00409 5.99585C7.27039 5.99585 7.52579 6.10164 7.71409 6.28994L12.0041 10.5899L16.2941 6.28994C16.4824 6.10164 16.7378 5.99585 17.0041 5.99585C17.2704 5.99585 17.5258 6.10164 17.7141 6.28994C17.9024 6.47825 18.0082 6.73364 18.0082 6.99994C18.0082 7.26624 17.9024 7.52164 17.7141 7.70994L13.4141 11.9999L17.7141 16.2899Z" fill="#222221"/>
</svg>
