<svg width="18" height="18" viewBox="0 0 18 18" fill="none" xmlns="http://www.w3.org/2000/svg">
<path d="M9 12.75C9.99456 12.75 10.9484 12.3549 11.6517 11.6517C12.3549 10.9484 12.75 9.99458 12.75 9.00002C12.7509 8.2742 12.537 7.56437 12.135 6.96002L14.82 4.28252C14.8899 4.21259 14.9454 4.12957 14.9832 4.0382C15.0211 3.94684 15.0406 3.84891 15.0406 3.75002C15.0406 3.65112 15.0211 3.5532 14.9832 3.46183C14.9454 3.37046 14.8899 3.28745 14.82 3.21752C14.7501 3.14759 14.6671 3.09212 14.5757 3.05427C14.4843 3.01643 14.3864 2.99695 14.2875 2.99695C14.1886 2.99695 14.0907 3.01643 13.9993 3.05427C13.9079 3.09212 13.8249 3.14759 13.755 3.21752L11.04 5.90252C10.4357 5.50056 9.72581 5.28657 9 5.28752C8.01195 5.2974 7.06773 5.69684 6.37256 6.39904C5.67739 7.10123 5.28745 8.04942 5.2875 9.03752C5.28655 9.76333 5.50055 10.4732 5.9025 11.0775L3.2175 13.7175C3.07627 13.8587 2.99693 14.0503 2.99693 14.25C2.99693 14.4497 3.07627 14.6413 3.2175 14.7825C3.35873 14.9237 3.55027 15.0031 3.75 15.0031C3.94973 15.0031 4.14127 14.9237 4.2825 14.7825L6.96 12.0975C7.56013 12.5127 8.2703 12.7399 9 12.75ZM11.2875 9.00002C11.2968 9.39006 11.2045 9.77582 11.0197 10.1194C10.8349 10.463 10.5639 10.7527 10.2334 10.9599C9.90283 11.1672 9.52407 11.2849 9.13427 11.3016C8.74447 11.3183 8.35704 11.2333 8.01 11.055L11.01 8.05502C11.17 8.34613 11.2647 8.6686 11.2875 9.00002ZM6.75 9.00002C6.7407 8.60997 6.83298 8.22422 7.01778 7.88061C7.20259 7.537 7.47357 7.24735 7.80412 7.0401C8.13467 6.83284 8.51343 6.7151 8.90323 6.69843C9.29303 6.68176 9.68046 6.76674 10.0275 6.94502L7.0275 9.94502C6.86748 9.6539 6.77279 9.33143 6.75 9.00002ZM2.475 12C2.0137 11.5503 1.60828 11.0467 1.2675 10.5C0.958307 10.0582 0.779038 9.53853 0.75 9.00002C0.758538 8.66715 0.837792 8.33991 0.9825 8.04002C1.13816 7.71106 1.32396 7.39722 1.5375 7.10252C2.06848 6.40917 2.68599 5.78662 3.375 5.25002C4.95021 3.89963 6.92803 3.1085 9 3.00002C9.56643 3.00191 10.1305 3.07242 10.68 3.21002C10.7788 3.23045 10.8726 3.27062 10.9555 3.32813C11.0385 3.38564 11.1089 3.4593 11.1628 3.5447C11.2166 3.6301 11.2526 3.72548 11.2686 3.82513C11.2847 3.92478 11.2805 4.02665 11.2562 4.12463C11.232 4.22261 11.1882 4.31469 11.1276 4.39535C11.0669 4.47602 10.9905 4.5436 10.9031 4.59406C10.8157 4.64452 10.719 4.67681 10.6188 4.689C10.5186 4.70119 10.417 4.69304 10.32 4.66502C9.8879 4.55896 9.44491 4.50358 9 4.50002C7.8742 4.53512 6.77435 4.84679 5.7975 5.40752C4.84244 5.93279 3.9767 6.60614 3.2325 7.40252C2.88045 7.77217 2.58477 8.19168 2.355 8.64752C2.30152 8.7587 2.26607 8.87769 2.25 9.00002C2.29339 9.25398 2.39336 9.49493 2.5425 9.70502C2.82221 10.1419 3.15194 10.5446 3.525 10.905C3.67021 11.0443 3.75415 11.2355 3.75837 11.4366C3.76259 11.6377 3.68674 11.8323 3.5475 11.9775C3.40826 12.1227 3.21704 12.2067 3.01591 12.2109C2.81478 12.2151 2.62021 12.1393 2.475 12ZM17.25 9.00002C17.2415 9.33288 17.1622 9.66013 17.0175 9.96002C16.8738 10.2876 16.7006 10.6014 16.5 10.8975C15.9574 11.5932 15.3272 12.2159 14.625 12.75C13.0498 14.1004 11.072 14.8915 9 15C8.43357 14.9981 7.86946 14.9276 7.32 14.79C7.13374 14.7362 6.97555 14.6123 6.87863 14.4444C6.78171 14.2765 6.75358 14.0776 6.80015 13.8894C6.84672 13.7011 6.96436 13.5383 7.1284 13.4349C7.29244 13.3316 7.49013 13.2958 7.68 13.335C8.1121 13.4411 8.55509 13.4965 9 13.5C10.1258 13.4649 11.2257 13.1532 12.2025 12.5925C13.1576 12.0672 14.0233 11.3939 14.7675 10.5975C15.1196 10.2279 15.4152 9.80836 15.645 9.35252C15.6985 9.24133 15.7339 9.12234 15.75 9.00002C15.7245 8.76153 15.6422 8.53263 15.51 8.33252C15.27 7.92631 14.9718 7.5574 14.625 7.23752C14.4802 7.10201 14.395 6.91468 14.388 6.71651C14.3809 6.51833 14.4527 6.32544 14.5875 6.18002C14.723 6.03523 14.9103 5.95001 15.1085 5.94298C15.3067 5.93595 15.4996 6.00769 15.645 6.14252C16.104 6.56496 16.4982 7.05269 16.815 7.59002C17.0723 8.01775 17.2216 8.50168 17.25 9.00002Z" fill="#CBCBCB"/>
</svg>
