<svg width="18" height="18" viewBox="0 0 18 18" fill="none" xmlns="http://www.w3.org/2000/svg">
<path d="M9 5.325C8.27315 5.325 7.56263 5.54053 6.95828 5.94435C6.35393 6.34816 5.88289 6.92212 5.60474 7.59364C5.32659 8.26516 5.25381 9.00408 5.39561 9.71696C5.53742 10.4298 5.88742 11.0847 6.40138 11.5986C6.91534 12.1126 7.57016 12.4626 8.28304 12.6044C8.99592 12.7462 9.73484 12.6734 10.4064 12.3953C11.0779 12.1171 11.6518 11.6461 12.0557 11.0417C12.4595 10.4374 12.675 9.72685 12.675 9C12.675 8.02533 12.2878 7.09058 11.5986 6.40138C10.9094 5.71219 9.97467 5.325 9 5.325ZM9 11.325C8.54016 11.325 8.09064 11.1886 7.7083 10.9332C7.32595 10.6777 7.02795 10.3146 6.85198 9.88974C6.67601 9.4649 6.62996 8.99742 6.71967 8.54641C6.80938 8.09541 7.03082 7.68113 7.35598 7.35598C7.68113 7.03082 8.09541 6.80938 8.54641 6.71967C8.99742 6.62996 9.4649 6.67601 9.88974 6.85198C10.3146 7.02795 10.6777 7.32595 10.9332 7.7083C11.1886 8.09064 11.325 8.54016 11.325 9C11.325 9.61663 11.08 10.208 10.644 10.644C10.208 11.08 9.61663 11.325 9 11.325ZM17.0175 8.04C16.7237 7.4352 16.3392 6.87879 15.8775 6.39C15.0079 5.46608 13.9949 4.68858 12.8775 4.0875C11.6937 3.41257 10.3621 3.0391 9 3C6.92803 3.10848 4.95021 3.89961 3.375 5.25C2.68457 5.79355 2.06699 6.42373 1.5375 7.125C1.32396 7.4197 1.13816 7.73354 0.9825 8.0625C0.840852 8.3555 0.761677 8.67476 0.75 9C0.758538 9.33287 0.837792 9.66011 0.9825 9.96C1.27633 10.5648 1.66076 11.1212 2.1225 11.61C2.99209 12.5339 4.00512 13.3114 5.1225 13.9125C6.30629 14.5874 7.63789 14.9609 9 15C11.072 14.8915 13.0498 14.1004 14.625 12.75C15.3272 12.2159 15.9574 11.5932 16.5 10.8975C16.7135 10.6028 16.8993 10.289 17.055 9.96C17.1868 9.65727 17.2532 9.33015 17.25 9C17.2415 8.66713 17.1622 8.33989 17.0175 8.04ZM15.645 9.3525C15.4152 9.80834 15.1196 10.2278 14.7675 10.5975C14.0233 11.3939 13.1576 12.0672 12.2025 12.5925C11.2257 13.1532 10.1258 13.4649 9 13.5C7.27237 13.3956 5.62625 12.7293 4.3125 11.6025C3.72718 11.1408 3.20297 10.6065 2.7525 10.0125C2.59921 9.80571 2.4661 9.5847 2.355 9.3525C2.30152 9.24132 2.26607 9.12233 2.25 9C2.26607 8.87767 2.30152 8.75868 2.355 8.6475C2.58477 8.19166 2.88045 7.77216 3.2325 7.4025C3.9767 6.60613 4.84244 5.93277 5.7975 5.4075C6.77435 4.84677 7.8742 4.5351 9 4.5C10.7276 4.60436 12.3738 5.27071 13.6875 6.3975C14.2728 6.8592 14.797 7.39349 15.2475 7.9875C15.4008 8.19429 15.5339 8.4153 15.645 8.6475C15.6985 8.75868 15.7339 8.87767 15.75 9C15.7339 9.12233 15.6985 9.24132 15.645 9.3525Z" fill="#CBCBCB"/>
</svg>
