<svg width="20" height="20" viewBox="0 0 20 20" fill="none" xmlns="http://www.w3.org/2000/svg">
<path d="M13.6998 2.68335C12.5691 2.68284 11.4776 3.09807 10.6332 3.85001C10.459 4.0058 10.2335 4.09193 9.99984 4.09193C9.76616 4.09193 9.54068 4.0058 9.36651 3.85001C8.70008 3.25684 7.87631 2.86907 6.9945 2.73346C6.11268 2.59785 5.21047 2.72018 4.39661 3.08572C3.58274 3.45125 2.89198 4.04438 2.40757 4.7936C1.92317 5.54283 1.66581 6.41617 1.66651 7.30835C1.66651 11.2667 7.74984 15.9 9.51651 17.1667C9.65764 17.2672 9.82659 17.3212 9.99984 17.3212C10.1731 17.3212 10.342 17.2672 10.4832 17.1667C12.2498 15.9 18.3332 11.2667 18.3332 7.30835C18.331 6.08096 17.8418 4.90459 16.9732 4.03747C16.1045 3.17036 14.9272 2.68335 13.6998 2.68335ZM9.99984 15.45C6.60817 12.95 3.33317 9.54168 3.33317 7.30835C3.33543 6.73887 3.50155 6.18208 3.8117 5.70445C4.12184 5.22683 4.5629 4.84857 5.08221 4.61484C5.60152 4.38111 6.17712 4.30178 6.74029 4.38634C7.30347 4.47089 7.8304 4.71575 8.25817 5.09168C8.73673 5.52095 9.35696 5.75837 9.99984 5.75837C10.6427 5.75837 11.2629 5.52095 11.7415 5.09168C12.1693 4.71575 12.6962 4.47089 13.2594 4.38634C13.8226 4.30178 14.3982 4.38111 14.9175 4.61484C15.4368 4.84857 15.8778 5.22683 16.188 5.70445C16.4981 6.18208 16.6642 6.73887 16.6665 7.30835C16.6665 9.54168 13.3915 12.9333 9.99984 15.45Z" fill="black"/>
</svg>
