<svg width="217" height="59" viewBox="0 0 217 59" fill="none" xmlns="http://www.w3.org/2000/svg">
<g clip-path="url(#clip0_53_2017)">
<path d="M18.3012 49.2589H10.5668L0 26.788V21.2533H5.88253L14.3795 39.7392L22.8765 21.2533H28.759V26.788L18.3012 49.2589Z" fill="#461647"/>
<path d="M139.982 49.2589L152.728 21.364H158.61V26.8987L148.044 49.3696H139.982V49.2589Z" fill="#DF3616"/>
<path d="M30.0664 35.09C30.0664 33.0976 30.3932 31.2158 31.1558 29.4446C31.9183 27.6735 32.8987 26.1238 34.206 24.7955C35.5132 23.4672 37.0383 22.4709 38.7813 21.6961C40.5242 20.9212 42.3761 20.5891 44.337 20.5891C45.5353 20.5891 46.8425 20.8105 48.1497 21.2533C49.457 21.6961 50.4374 22.4709 51.091 23.4672V21.364H58.7165V49.2589H51.091V46.6022C50.7642 47.2664 50.4374 47.8199 49.8927 48.2627C49.348 48.7054 48.8034 49.0375 48.2587 49.2589C47.714 49.4803 46.9514 49.7017 46.2978 49.8124C45.6442 49.9231 44.9906 49.9231 44.337 49.9231C42.3761 49.9231 40.5242 49.4803 38.7813 48.7054C37.0383 47.9306 35.5132 46.8236 34.206 45.4953C32.8987 44.167 31.8094 42.6173 31.1558 40.8461C30.5021 39.075 30.0664 37.1932 30.0664 35.09ZM44.5549 28.3377C43.6834 28.3377 42.8119 28.5591 42.0493 28.8912C41.2868 29.2233 40.5242 29.666 39.9796 30.3302C39.3259 30.8837 38.8902 31.5478 38.5634 32.3227C38.2366 33.0976 38.0187 34.0938 38.0187 35.2007C38.0187 36.3077 38.2366 37.3039 38.5634 38.0788C38.8902 38.8537 39.4349 39.5178 39.9796 40.0713C40.6332 40.6248 41.2868 41.0675 42.0493 41.3996C42.8119 41.7317 43.6834 41.8424 44.5549 41.8424C45.4263 41.8424 46.2978 41.621 47.0604 41.2889C47.8229 40.9568 48.5855 40.5141 49.1302 39.8499C49.7838 39.2964 50.2195 38.5216 50.5463 37.7467C50.8731 36.9718 51.091 36.0863 51.1999 35.2007V34.6473C51.091 33.7617 50.8731 32.8762 50.5463 32.1013C50.2195 31.3264 49.6748 30.6623 49.1302 29.9981C48.4765 29.4446 47.8229 28.8912 47.0604 28.5591C46.2978 28.5591 45.4263 28.3377 44.5549 28.3377Z" fill="#461647"/>
<path d="M93.2488 35.2007C93.2488 37.1932 92.922 39.1857 92.1594 40.9568C91.3969 42.7279 90.4165 44.2777 89.1092 45.606C87.802 46.9343 86.2769 48.0413 84.5339 48.8161C82.791 49.591 80.939 50.0338 78.9782 50.0338C78.3246 50.0338 77.7799 50.0338 77.0174 49.9231C76.3637 49.8124 75.7101 49.7017 75.0565 49.3696C74.4029 49.1482 73.8582 48.8161 73.3135 48.3734C72.7689 47.9306 72.4421 47.3771 72.1152 46.7129V59.1107H64.4897V21.364H72.1152V23.4672C72.8778 22.4709 73.8582 21.8067 75.0565 21.2533C76.3637 20.8105 77.562 20.5891 78.8693 20.5891C80.8301 20.5891 82.682 20.9212 84.425 21.6961C86.168 22.4709 87.6931 23.4672 89.0003 24.7955C90.3075 26.1238 91.3969 27.6735 92.0505 29.4446C92.922 31.2158 93.2488 33.0976 93.2488 35.2007ZM78.8693 28.3377C77.9978 28.3377 77.1263 28.5591 76.3637 28.8912C75.6012 29.2233 74.8386 29.666 74.294 30.3302C73.6403 30.8837 73.2046 31.6585 72.8778 32.4334C72.551 33.2082 72.3331 34.0938 72.2242 34.9794V35.5328C72.2242 36.4184 72.4421 37.3039 72.8778 38.0788C73.2046 38.8537 73.7493 39.5178 74.294 40.182C74.9476 40.7355 75.6012 41.2889 76.3637 41.621C77.1263 41.9531 77.9978 42.1745 78.8693 42.1745C79.7408 42.1745 80.6122 42.0638 81.3748 41.7317C82.1373 41.3996 82.8999 40.9568 83.4446 40.4034C84.0982 39.8499 84.5339 39.1857 84.8607 38.4109C85.1875 37.636 85.4054 36.8612 85.5143 35.9756V35.5328V35.0901C85.4054 34.2045 85.1875 33.4296 84.8607 32.6548C84.5339 31.8799 83.9892 31.2158 83.4446 30.6623C82.791 30.1088 82.1373 29.666 81.3748 29.2233C80.6122 28.5591 79.7408 28.3377 78.8693 28.3377Z" fill="#461647"/>
<path d="M109.807 20.4784C111.768 20.4784 113.729 20.8105 115.472 21.5854C117.215 22.3602 118.74 23.3565 120.047 24.6848C121.354 26.0131 122.335 27.5629 123.097 29.334C123.86 31.1051 124.296 32.9869 124.296 34.9794C124.296 36.9719 123.969 38.9644 123.206 40.7355C122.444 42.5066 121.463 44.0563 120.156 45.3846C118.849 46.7129 117.324 47.7092 115.581 48.5947C113.838 49.3696 111.986 49.8124 110.025 49.8124C108.064 49.8124 106.103 49.4803 104.36 48.7054C102.617 47.9306 101.092 46.9343 99.7852 45.606C98.4779 44.2777 97.3886 42.728 96.626 40.9568C95.8635 39.1857 95.4277 37.3039 95.4277 35.3114C95.4277 33.3189 95.7545 31.3265 96.5171 29.5553C97.2796 27.7842 98.2601 26.2345 99.5673 24.9062C100.875 23.5779 102.4 22.5816 104.143 21.6961C105.994 20.9212 107.846 20.4784 109.807 20.4784ZM114.709 40.0713C116.017 38.743 116.67 37.0826 116.67 35.2007C116.67 34.3152 116.452 33.4296 116.126 32.5441C115.799 31.6585 115.254 30.9944 114.6 30.3302C113.293 29.0019 111.659 28.3377 109.807 28.3377C107.955 28.3377 106.321 29.0019 105.014 30.3302C103.707 31.7692 103.053 33.3189 103.053 35.2007C103.053 37.0826 103.707 38.743 105.123 40.0713C106.43 41.3996 108.064 42.0638 109.916 42.0638C110.788 42.0638 111.659 41.8424 112.531 41.5103C113.402 41.2889 114.056 40.7355 114.709 40.0713Z" fill="#461647"/>
<path d="M144.122 28.3377C141.725 28.3377 139.764 29.0019 138.239 30.2195C136.714 31.4371 135.952 32.9869 135.843 34.758V49.0375H128.217V21.2533H135.843V23.3565C136.605 22.3602 137.586 21.6961 138.893 21.1426C140.2 20.6998 141.943 20.4784 144.122 20.4784V28.3377Z" fill="#DF3616"/>
<path d="M161.225 49.2589V41.5103L174.515 29.1126H162.423V21.364H184.428V29.1126L170.811 41.5103H185.518V49.2589H161.225Z" fill="#DF3616"/>
<path d="M211.553 38.3002H196.52C196.847 38.9644 197.282 39.5178 197.827 40.182C199.134 41.5103 200.768 42.1745 202.62 42.1745C204.036 42.1745 205.344 41.7317 206.542 40.8462L213.187 45.1632C211.88 46.6023 210.355 47.8199 208.612 48.7055C206.76 49.591 204.799 50.0338 202.729 50.0338C200.768 50.0338 198.808 49.7017 197.065 48.9268C195.322 48.152 193.796 47.1557 192.489 45.8274C191.182 44.4991 190.093 42.9494 189.33 41.1783C188.568 39.4071 188.132 37.5253 188.132 35.5328C188.132 33.5404 188.459 31.5479 189.221 29.7768C189.984 28.0056 190.964 26.4559 192.271 25.1276C193.579 23.7993 195.104 22.6923 196.847 21.9175C198.59 21.1426 200.442 20.6998 202.511 20.6998C204.472 20.6998 206.433 21.0319 208.176 21.8068C209.919 22.5816 211.444 23.5779 212.751 24.9062C214.059 26.2345 215.039 27.7843 215.802 29.5554C216.564 31.3265 217 33.2083 217 35.2008C217 36.3077 216.891 37.304 216.673 38.3002H211.553ZM202.511 28.3377C200.659 28.3377 199.025 29.0019 197.718 30.3302C196.956 31.2158 196.411 32.1013 196.084 33.0976H209.048C208.721 32.1013 208.176 31.1051 207.305 30.3302C205.997 29.0019 204.363 28.3377 202.511 28.3377Z" fill="#DF3616"/>
<path d="M157.848 0C159.591 0.664165 161.225 1.54972 162.423 2.87805C163.839 4.53846 163.839 6.42026 162.314 7.96998C161.66 8.63415 160.898 9.07692 160.135 9.74109C159.482 10.2946 158.828 10.7373 158.174 11.1801C156.649 12.5084 155.669 13.9475 155.887 16.1614C153.272 13.7261 153.381 9.96248 156.105 7.74859C156.649 7.30582 157.194 6.97373 157.63 6.53096C159.264 5.09193 159.482 3.54221 158.61 1.54972C158.501 1.10694 158.174 0.553471 157.848 0Z" fill="#DF3616"/>
<path d="M158.61 19.0394C157.63 17.1576 157.848 15.1651 159.155 13.8368C159.918 13.0619 160.898 12.2871 161.878 11.6229C163.621 10.2946 164.82 8.63415 164.602 6.30957C165.691 7.41651 166.563 8.63415 166.563 10.1839C166.563 10.7373 166.236 11.4015 165.8 11.955C165.255 12.6191 164.493 13.1726 163.839 13.6154C161.66 14.9437 159.7 16.3827 158.61 19.0394Z" fill="#DF3616"/>
</g>
<defs>
<clipPath id="clip0_53_2017">
<rect width="217" height="59" fill="white"/>
</clipPath>
</defs>
</svg>
