<svg width="24" height="24" viewBox="0 0 24 24" fill="none" xmlns="http://www.w3.org/2000/svg">
<path d="M19.9999 17.31C19.9939 16.5216 19.6778 15.7672 19.1199 15.21L18.8599 14.94C18.0086 14.0886 16.8539 13.6101 15.6499 13.61C14.9565 13.6149 14.273 13.7755 13.6499 14.08L12.8199 14.5C12.1114 14.1479 11.4633 13.6855 10.8999 13.13C10.3443 12.5728 9.88473 11.9274 9.5399 11.22L9.9499 10.39C10.3767 9.53972 10.5242 8.57645 10.3716 7.6374C10.219 6.69835 9.77396 5.83139 9.0999 5.16001L8.8399 4.90001C8.5597 4.61414 8.22512 4.38724 7.85588 4.23268C7.48663 4.07811 7.09019 3.999 6.6899 4.00001H5.8999C5.10425 4.00001 4.34119 4.31608 3.77858 4.87869C3.21597 5.4413 2.8999 6.20436 2.8999 7.00001V7.07001C2.93297 8.68409 3.18872 10.2859 3.6599 11.83C4.2668 13.8309 5.34736 15.6558 6.8099 17.15C8.29553 18.6209 10.1186 19.7057 12.1199 20.31C13.6658 20.7896 15.2716 21.0488 16.8899 21.08H16.9999C17.7956 21.08 18.5586 20.7639 19.1212 20.2013C19.6838 19.6387 19.9999 18.8757 19.9999 18.08V17.27V17.31ZM16.9999 19.11C15.5688 19.086 14.1481 18.8604 12.7799 18.44C11.087 17.9249 9.54331 17.009 8.2799 15.77C7.04401 14.5076 6.13443 12.9631 5.6299 11.27C5.18915 9.90472 4.94339 8.48403 4.8999 7.05001V7.00001C4.8999 6.73479 5.00526 6.48044 5.1928 6.2929C5.38033 6.10537 5.63469 6.00001 5.8999 6.00001H6.6899C6.82221 6.00056 6.95309 6.02736 7.07497 6.07885C7.19684 6.13035 7.30729 6.20552 7.3999 6.30001L7.6599 6.56001C8.03598 6.93509 8.28392 7.41941 8.36832 7.94381C8.45273 8.46821 8.36929 9.00586 8.1299 9.48001L7.4999 10.74C7.44048 10.8703 7.40972 11.0118 7.40972 11.155C7.40972 11.2982 7.44048 11.4397 7.4999 11.57C7.96287 12.6918 8.6425 13.7112 9.4999 14.57C10.3548 15.4322 11.3752 16.1125 12.4999 16.57C12.6288 16.628 12.7686 16.6579 12.9099 16.6579C13.0512 16.6579 13.191 16.628 13.3199 16.57L14.5799 15.94C14.9294 15.7715 15.3119 15.6827 15.6999 15.68C16.3709 15.6806 17.0144 15.9466 17.4899 16.42L17.7599 16.69C17.9446 16.8763 18.0488 17.1277 18.0499 17.39V18.18C18.0319 18.4418 17.9117 18.686 17.7153 18.86C17.5189 19.0339 17.2619 19.1237 16.9999 19.11Z" fill="#222221"/>
</svg>
