<svg width="28" height="28" viewBox="0 0 28 28" fill="none" xmlns="http://www.w3.org/2000/svg">
<g clip-path="url(#clip0)">
<path d="M24.5816 0.544922H3.57665C1.98575 0.544922 0.69165 1.83124 0.69165 3.41238V24.2913C0.69165 25.8726 1.98575 27.1589 3.57665 27.1589H24.5816C26.1726 27.1589 27.4666 25.8726 27.4666 24.2913V3.41238C27.4666 1.83124 26.1726 0.544922 24.5816 0.544922ZM3.57665 2.10434H24.5816C25.3074 2.10434 25.8978 2.69115 25.8978 3.41238V7.22604H2.2605V3.41238C2.2605 2.69115 2.85086 2.10434 3.57665 2.10434ZM24.5816 25.5995H3.57665C2.85086 25.5995 2.2605 25.0127 2.2605 24.2913V8.78545H25.8978V24.2913C25.8978 25.0127 25.3074 25.5995 24.5816 25.5995Z" fill="#124570"/>
<path d="M6.51758 5.44516C6.72431 5.44516 6.92613 5.36211 7.0726 5.21652C7.21845 5.07134 7.302 4.87033 7.302 4.66545C7.302 4.46017 7.21845 4.25895 7.0726 4.11397C6.92613 3.96899 6.72431 3.88574 6.51758 3.88574C6.31105 3.88574 6.10862 3.96899 5.96276 4.11397C5.81691 4.25895 5.73315 4.46017 5.73315 4.66545C5.73315 4.87073 5.81691 5.07134 5.96276 5.21652C6.10923 5.36211 6.31105 5.44516 6.51758 5.44516Z" fill="#124570"/>
<path d="M11.5593 5.44516C11.7658 5.44516 11.9677 5.36211 12.1141 5.21652C12.26 5.07134 12.3437 4.87033 12.3437 4.66545C12.3437 4.46017 12.26 4.25895 12.1141 4.11397C11.9677 3.96899 11.7658 3.88574 11.5593 3.88574C11.3528 3.88574 11.1504 3.96899 11.0045 4.11397C10.8585 4.25895 10.7749 4.46017 10.7749 4.66545C10.7749 4.87073 10.8585 5.07134 11.0045 5.21652C11.1508 5.36211 11.3528 5.44516 11.5593 5.44516Z" fill="#124570"/>
<path d="M16.5991 5.44516C16.8056 5.44516 17.0077 5.36211 17.1539 5.21652C17.2998 5.07134 17.3835 4.87033 17.3835 4.66545C17.3835 4.46017 17.2998 4.25895 17.1539 4.11397C17.0081 3.96899 16.8056 3.88574 16.5991 3.88574C16.3926 3.88574 16.1902 3.96899 16.0443 4.11397C15.8985 4.25895 15.8147 4.46017 15.8147 4.66545C15.8147 4.87073 15.8985 5.07134 16.0443 5.21652C16.1908 5.36211 16.3926 5.44516 16.5991 5.44516Z" fill="#124570"/>
<path d="M21.6409 5.44516C21.8474 5.44516 22.0492 5.3615 22.1957 5.21652C22.3415 5.07134 22.4253 4.87033 22.4253 4.66545C22.4253 4.46017 22.3415 4.25895 22.1957 4.11397C22.0492 3.96899 21.8474 3.88574 21.6409 3.88574C21.4341 3.88574 21.2319 3.96899 21.0861 4.11397C20.94 4.25895 20.8564 4.46017 20.8564 4.66545C20.8564 4.87073 20.94 5.07134 21.0861 5.21652C21.2323 5.3615 21.4341 5.44516 21.6409 5.44516Z" fill="#124570"/>
<path d="M23.3213 10.5667H4.83667C4.4036 10.5667 4.05225 10.9157 4.05225 11.3464V23.0385C4.05225 23.469 4.4036 23.8182 4.83667 23.8182H23.3213C23.7546 23.8182 24.1057 23.469 24.1057 23.0385V11.3464C24.1057 10.9157 23.7546 10.5667 23.3213 10.5667ZM22.5369 22.2586H5.62109V12.1261H22.5369V22.2586Z" fill="#124570"/>
<path d="M8.19702 15.4666H19.9601C20.3932 15.4666 20.7445 15.1176 20.7445 14.6869C20.7445 14.2563 20.3932 13.9072 19.9601 13.9072H8.19702C7.76395 13.9072 7.4126 14.2563 7.4126 14.6869C7.4126 15.1176 7.76395 15.4666 8.19702 15.4666Z" fill="#124570"/>
</g>
<defs>
<clipPath id="clip0">
<rect width="26.775" height="26.614" fill="white" transform="translate(0.69165 0.544922)"/>
</clipPath>
</defs>
</svg>
