<svg width="9" height="17" viewBox="0 0 9 17" fill="none" xmlns="http://www.w3.org/2000/svg">
<path d="M8.49003 1.03447C8.40672 0.8875 8.25106 0.796875 8.08215 0.796875H2.45715C2.242 0.796875 2.05478 0.943375 2.00259 1.15209L0.127591 8.68334C0.0923407 8.82341 0.123934 8.97175 0.212747 9.08525C0.301559 9.19922 0.437966 9.26559 0.582153 9.26559H2.71809L0.143184 16.1633C0.0607782 16.383 0.153716 16.6298 0.360153 16.741C0.567528 16.8521 0.824091 16.7927 0.961185 16.6037L8.46118 6.25991C8.56509 6.11753 8.57975 5.92894 8.50009 5.77147C8.42 5.61447 8.2584 5.51559 8.08215 5.51559H6.09775L8.48406 1.50684C8.57106 1.36175 8.57334 1.18141 8.49003 1.03447Z" fill="#FFA800"/>
</svg>
