<svg width="13" height="18" viewBox="0 0 13 18" fill="none" xmlns="http://www.w3.org/2000/svg">
<path d="M6.19965 0.796875C2.96535 0.796875 0.333984 3.42824 0.333984 6.66254C0.333984 10.7277 6.20542 17.6719 6.20542 17.6719C6.20542 17.6719 12.0653 10.5278 12.0653 6.66254C12.0653 3.42824 9.43406 0.796875 6.19965 0.796875ZM7.96945 8.38002C7.48145 8.86791 6.8406 9.11191 6.19965 9.11191C5.55881 9.11191 4.91776 8.86791 4.42996 8.38002C3.45407 7.40422 3.45407 5.81642 4.42996 4.84053C4.90251 4.36777 5.5311 4.1074 6.19965 4.1074C6.86821 4.1074 7.49669 4.36788 7.96945 4.84053C8.94534 5.81642 8.94534 7.40422 7.96945 8.38002Z" fill="#124570"/>
</svg>
