<svg width="29" height="29" fill="none" xmlns="http://www.w3.org/2000/svg"><g clip-path="url(#clip0)" fill="#fff"><path d="M25.096 21.471a2.51 2.51 0 01-2.068-1.088L21.8 18.597a8.327 8.327 0 01-7.3 4.268c-4.33 0-7.903-3.307-8.324-7.528h.795a.836.836 0 00.69-1.31l-1.22-1.775-1.848-2.687a.836.836 0 00-1.378 0l-3.068 4.46a.837.837 0 00.69 1.31H1.7a12.734 12.734 0 003.73 8.234 12.743 12.743 0 009.07 3.757c3.426 0 6.647-1.334 9.07-3.757a12.92 12.92 0 001.704-2.106 2.565 2.565 0 01-.178.007z"/><path d="M15.137 13.663h-1.274a.439.439 0 01-.438-.438v-.637c0-.242.196-.438.438-.438h1.274c.242 0 .439.196.439.438a.837.837 0 001.673 0 2.114 2.114 0 00-1.912-2.102v-.448a.836.836 0 10-1.673 0v.448a2.114 2.114 0 00-1.913 2.102v.637c0 1.164.947 2.111 2.112 2.111h1.274c.242 0 .438.197.438.439v.637a.439.439 0 01-.438.438h-1.274a.439.439 0 01-.439-.438.837.837 0 10-1.673 0c0 1.097.841 2 1.913 2.102v.447a.837.837 0 001.673 0v-.447a2.114 2.114 0 001.912-2.102v-.637a2.114 2.114 0 00-2.112-2.112z"/><path d="M28.904 14.11a.837.837 0 00-.74-.447H27.3a12.734 12.734 0 00-3.73-8.233 12.743 12.743 0 00-9.07-3.757A12.743 12.743 0 005.43 5.43a12.914 12.914 0 00-1.704 2.106 2.509 2.509 0 012.246 1.08L7.2 10.404a8.327 8.327 0 017.3-4.268c4.33 0 7.903 3.307 8.324 7.529h-.795a.836.836 0 00-.69 1.31l1.22 1.774 1.848 2.688a.84.84 0 00.69.362.837.837 0 00.689-.362l1.107-1.611 1.96-2.851a.836.836 0 00.05-.863z"/></g><defs><clipPath id="clip0"><path fill="#fff" d="M0 0h29v29H0z"/></clipPath></defs></svg>