<svg width="24" height="24" fill="none" xmlns="http://www.w3.org/2000/svg"><path d="M15.062 12c0-.388.315-.703.704-.703h5.19a8.985 8.985 0 00-8.253-8.253v5.19a.703.703 0 01-1.406 0v-5.19a8.985 8.985 0 00-8.253 8.253h5.19a.703.703 0 010 1.406h-5.19a8.985 8.985 0 008.253 8.253v-5.19a.703.703 0 111.406 0v5.19a8.985 8.985 0 008.253-8.253h-5.19a.703.703 0 01-.704-.703zM12 12.703a.704.704 0 010-1.406.704.704 0 010 1.406zm.703-9.659V.704a.703.703 0 10-1.406 0v2.34a9.114 9.114 0 011.406 0z" fill="#fff"/><path d="M11.297 20.956v2.34a.703.703 0 101.406 0v-2.34a9.139 9.139 0 01-1.406 0zm12-9.659h-2.341a9.139 9.139 0 010 1.406h2.34a.703.703 0 100-1.406zm-20.253 0H.704a.703.703 0 100 1.406h2.34a9.114 9.114 0 010-1.406z" fill="#fff"/></svg>