<svg width="24" height="24" fill="none" xmlns="http://www.w3.org/2000/svg"><path d="M6.263 10.544a1.38 1.38 0 01.125-.181l.003-.005.022-.026 4.337-5.06H8.235a.704.704 0 00-.498.206l-5.066 5.066h3.592zm9.653 0L12 5.975l-3.916 4.569h7.832zm1.701-.174c.046.056.086.115.12.174h3.592l-5.066-5.066a.704.704 0 00-.498-.206H13.25l4.34 5.065.027.032zM2.654 11.95l7.205 7.805-3.602-7.805H2.654zm5.152 0L12 21.038l4.194-9.088H7.806zm9.937 0l-3.602 7.805 7.205-7.805h-3.603zm-.679-7.563a4.08 4.08 0 012.548 2.545.703.703 0 001.344.004 4.08 4.08 0 012.546-2.548.703.703 0 00.003-1.344A4.08 4.08 0 0120.958.499a.703.703 0 00-1.345-.004 4.08 4.08 0 01-2.545 2.547.703.703 0 00-.004 1.345zM23.52 20.37a2.882 2.882 0 01-1.815-1.814.703.703 0 00-1.334 0 2.883 2.883 0 01-1.815 1.814.703.703 0 000 1.335c.852.284 1.53.962 1.814 1.814a.703.703 0 001.335 0 2.882 2.882 0 011.814-1.814.703.703 0 000-1.334zM.48 3.63a2.88 2.88 0 011.815 1.814.703.703 0 001.335 0A2.883 2.883 0 015.444 3.63a.703.703 0 000-1.335A2.883 2.883 0 013.63.481a.703.703 0 00-1.335 0A2.882 2.882 0 01.481 2.295a.703.703 0 000 1.335zm6.456 15.983a4.079 4.079 0 01-2.548-2.545.704.704 0 00-1.344-.004 4.08 4.08 0 01-2.545 2.548.703.703 0 00-.004 1.344 4.08 4.08 0 012.547 2.545.703.703 0 001.345.004 4.08 4.08 0 012.545-2.547.703.703 0 00.004-1.345z" fill="#fff"/></svg>