<svg width="18" height="18" fill="none" xmlns="http://www.w3.org/2000/svg"><g clip-path="url(#clip0)" fill="#fff"><path d="M6.75 8.625A3.754 3.754 0 013 4.875a3.754 3.754 0 013.75-3.75 3.754 3.754 0 013.75 3.75 3.754 3.754 0 01-3.75 3.75zm0-6.375a2.628 2.628 0 00-2.625 2.625A2.628 2.628 0 006.75 7.5a2.628 2.628 0 002.625-2.625A2.628 2.628 0 006.75 2.25zm6.187 14.625H.562A.563.563 0 010 16.313v-2.625a3.567 3.567 0 013.562-3.563h6.375a3.567 3.567 0 013.563 3.563v2.625c0 .31-.252.562-.563.562zM1.125 15.75h11.25v-2.062a2.44 2.44 0 00-2.438-2.438H3.562a2.44 2.44 0 00-2.437 2.438v2.062zm16.312-6.937h-6.375a.563.563 0 010-1.125h6.375a.563.563 0 010 1.125z"/><path d="M14.437 11.813a.563.563 0 01-.398-.96l2.603-2.603-2.602-2.603a.563.563 0 11.795-.796l3 3c.22.22.22.576 0 .796l-3 3a.559.559 0 01-.398.166z"/></g><defs><clipPath id="clip0"><path fill="#fff" d="M0 0h18v18H0z"/></clipPath></defs></svg>