<svg width="49" height="45" fill="none" xmlns="http://www.w3.org/2000/svg"><path d="M43.466 44.091c1.095 0 2.142-.286 3.047-.952 2.666-1.857 3.238-4.905 1.476-8C42.942 26.237 37.847 17.38 32.8 8.524c-.286-.524-.619-1-.952-1.476-.476-1.333-1.333-2.476-1.953-3.714C28.8 1.238 27.134 0 24.753 0c-2.38 0-4.095 1.238-5.238 3.285l-4.57 8C10.277 19.236 5.66 27.235.85 35.14c-2.381 3.856.523 9.332 5.142 8.999 2.714-.19 5.428 0 8.142 0h29.33v-.048zm-17.094-8.666c1.714.096 10.047.19 11.76 0-1.142-2.666-2.19-3.38-4.332-3.047-2.524-.476-11.76-.143-14.332-.19-4.095-.096-8.19-.048-12.332-.096-.143 0-.334-.047-.667-.095 1.667-2.904 3.333-5.714 4.952-8.475 3.619-6.19 7.285-12.38 10.904-18.57.619-1.048 1.38-1.667 2.571-1.619 1.238.048 1.905 1.048 2.238 1.952.333.905-.095 2-.667 2.905-3.142 5.285-6.237 10.618-9.332 15.903-1.048 1.762-4.476 7.38-5.524 9.19 3 .428 3.81 0 5.238-2.429 3.238-5.475 8.809-14.808 12.047-20.284.238-.38.333-1.047 1.047-.57.286-.382.62-.715.857-1.096-.238.38-.571.714-.857 1.095 5 8.809 9.952 17.617 14.951 26.426.381.667.81 1.333.81 2.143-.048 1.857-2.19 2.904-3.952 1.904-.715-.428-1.19-1.047-1.62-1.809-3.332-6-6.713-11.904-10.141-17.808-.238-1-3.333-6.095-3.762-7.047-.38-.714-.714-.619-1.142 0-1.334 1.952-1.19 3.286.761 6 2.667 4.761 7.761 13.808 10.428 18.57.095.142.19.285.333.428.476.476 1.143 1.143.905 1.666-.286.572-1.286.429-1.857.381-3.666-.285-7.38-.095-11.047-.095-4.618-.143-9.237-.19-13.903-.143-1.81 0-3.571 0-5.38-.143a2.205 2.205 0 01-2.048-2.285c0-1.38 1.238-2.714 2.81-2.762 2.57-.095 5.142 0 7.713 0h12.57z" fill="url(#paint0_linear)"/><path d="M27.087 29.521c.809 0 .952-.333.285-1.238-.857-1.19-1.523-2.476-2.142-3.81-.524-1.142-.858-.904-1.286-.19-.857 1.524-1.762 3-2.762 4.714-.095.19.048.476.238.476 2.048 0 3.857.048 5.666.048z" fill="url(#paint1_linear)"/><defs><linearGradient id="paint0_linear" x1="-26.06" y1="-19.283" x2="257.774" y2="264.551" gradientUnits="userSpaceOnUse"><stop offset=".112" stop-color="#E4C355"/><stop offset=".242" stop-color="#D76250"/></linearGradient><linearGradient id="paint1_linear" x1="9.114" y1="85.166" x2="115.411" y2="-301.9" gradientUnits="userSpaceOnUse"><stop offset=".112" stop-color="#E4C355"/><stop offset=".242" stop-color="#D76250"/></linearGradient></defs></svg>