<svg width="24" height="24" fill="none" xmlns="http://www.w3.org/2000/svg"><g clip-path="url(#clip0)"><path d="M24 12c0 3.205-1.248 6.219-3.515 8.485A11.921 11.921 0 0112 24a11.922 11.922 0 01-8.485-3.515A11.922 11.922 0 010 12c0-3.205 1.248-6.219 3.515-8.485A11.922 11.922 0 0112 0c3.205 0 6.219 1.248 8.485 3.515A11.922 11.922 0 0124 12zM1.875 12c0 5.583 4.542 10.125 10.125 10.125S22.125 17.583 22.125 12 17.583 1.875 12 1.875 1.875 6.417 1.875 12zM12 7.112l-6.482 6.482 1.326 1.326L12 9.763l5.156 5.157 1.326-1.326L12 7.112z" fill="#fff"/></g><defs><clipPath id="clip0"><path fill="#fff" transform="rotate(-90 12 12)" d="M0 0h24v24H0z"/></clipPath></defs></svg>