<svg width="24" height="24" viewBox="0 0 24 24" fill="none" xmlns="http://www.w3.org/2000/svg">
<g clip-path="url(#clip0)">
<path d="M24 12C24 15.2053 22.7518 18.2188 20.4853 20.4853C18.2188 22.7518 15.2053 24 12 24C8.79474 24 5.78119 22.7518 3.51471 20.4853C1.24823 18.2188 -3.8443e-07 15.2053 -5.24537e-07 12C-6.64643e-07 8.79474 1.24823 5.78119 3.51471 3.51471C5.78119 1.24823 8.79474 1.52292e-06 12 1.38281e-06C15.2053 1.24271e-06 18.2188 1.24823 20.4853 3.51471C22.7518 5.78119 24 8.79474 24 12ZM1.875 12C1.875 17.5829 6.41711 22.125 12 22.125C17.5829 22.125 22.125 17.5829 22.125 12C22.125 6.41712 17.5829 1.875 12 1.875C6.41711 1.875 1.875 6.41712 1.875 12ZM12 7.11163L5.51788 13.5938L6.84375 14.9196L12 9.76337L17.1563 14.9196L18.4821 13.5938L12 7.11163Z" fill="white"/>
</g>
<defs>
<clipPath id="clip0">
<rect width="24" height="24" fill="white" transform="translate(0 24) rotate(-90)"/>
</clipPath>
</defs>
</svg>
