<svg width="24" height="24" fill="none" xmlns="http://www.w3.org/2000/svg"><path d="M21.547 3.886L12.359.072a.938.938 0 00-.719 0L2.454 3.886a.938.938 0 00-.578.866v4.637a15.7 15.7 0 009.77 14.541.938.938 0 00.71 0 15.7 15.7 0 009.77-14.54V4.751a.937.937 0 00-.578-.866zM20.25 9.39A13.828 13.828 0 0112 22.044 13.829 13.829 0 013.75 9.39V5.378L12 1.953l8.25 3.425v4.011zm-9.286 3.16l4.03-4.03a.938.938 0 011.325 1.326l-4.692 4.693a.937.937 0 01-1.326 0l-2.62-2.62a.937.937 0 111.326-1.326l1.957 1.957z" fill="#fff"/></svg>