<svg width="73" height="73" fill="none" xmlns="http://www.w3.org/2000/svg"><path d="M69.57 5.45H40.09V3.59a3.59 3.59 0 00-7.18 0v1.86H3.43a2.274 2.274 0 00-2.274 2.273v46.672a2.274 2.274 0 002.274 2.274h29.48v4.958l-9.658 4.532a3.59 3.59 0 003.05 6.5l6.761-3.172a3.59 3.59 0 006.874 0l6.761 3.172a3.591 3.591 0 003.05-6.5l-9.658-4.532V56.67h29.48a2.274 2.274 0 002.273-2.274V7.723a2.274 2.274 0 00-2.274-2.273zm-4.907 44.038H8.337V12.63h56.325v36.858z" fill="#E5A132"/><path d="M31.501 40.247l-8.815-5.252-1-.995-.5-1c-1-3 2.35-5.856 2.741-5.623l8.963 5.34 14.067-12.809a3.59 3.59 0 014.834 5.31l-16.035 14.6a3.59 3.59 0 01-4.255.429z" fill="#E5A132"/></svg>