<svg width="74" height="74" fill="none" xmlns="http://www.w3.org/2000/svg"><g clip-path="url(#clip0)" fill="#E5A132"><path d="M55.183 18.183C55.183 8.142 47.05 0 37 0 26.958 0 18.817 8.142 18.817 18.183c0 10.042 8.141 18.183 18.183 18.183 10.05 0 18.183-8.141 18.183-18.183zm-31.82.393s-.525-5.157 3.19-9.091c2.615 2.621 10.447 9.091 24.084 9.091 0 7.52-6.117 13.638-13.637 13.638-7.52 0-13.638-6.117-13.638-13.637zM5.791 50.354v18.445A5.201 5.201 0 0010.993 74h52.014a5.198 5.198 0 005.203-5.2V50.354c0-5.745-4.653-10.403-10.403-10.403h-9.223c-.651 0-1.473.44-1.834.982l-9.094 12.853c-.361.543-.948.543-1.31 0l-9.093-12.854c-.362-.542-1.183-.982-1.835-.982h-9.223c-5.74 0-10.403 4.658-10.403 10.404z"/></g><defs><clipPath id="clip0"><path fill="#fff" d="M0 0h74v74H0z"/></clipPath></defs></svg>