<svg width="70" height="70" fill="none" xmlns="http://www.w3.org/2000/svg"><g clip-path="url(#clip0)" fill="#E5A132"><path d="M62.634 18.419a2.916 2.916 0 00-1.355 3.895c1.916 3.958 2.888 8.225 2.888 12.686 0 16.082-13.085 29.167-29.167 29.167S5.833 51.082 5.833 35 18.918 5.833 35 5.833c6.664 0 12.925 2.176 18.107 6.293a2.916 2.916 0 103.63-4.566C50.601 2.685 42.881 0 35 0 15.702 0 0 15.702 0 35c0 19.298 15.702 35 35 35 19.298 0 35-15.702 35-35 0-5.348-1.168-10.473-3.47-15.226a2.913 2.913 0 00-3.896-1.355z"/><path d="M35 11.667a2.918 2.918 0 00-2.917 2.916V35A2.918 2.918 0 0035 37.917h14.583a2.918 2.918 0 000-5.834H37.917v-17.5A2.918 2.918 0 0035 11.667z"/></g><defs><clipPath id="clip0"><path fill="#fff" d="M0 0h70v70H0z"/></clipPath></defs></svg>