<svg width="79" height="79" fill="none" xmlns="http://www.w3.org/2000/svg"><path d="M0 69.668V31.014C0 19.059 9.728 9.332 21.682 9.332h35.631C69.27 9.332 79 19.059 79 31.014v6.667c0 11.954-9.728 21.682-21.682 21.682H22.185L0 69.668zm21.682-55.502c-9.29 0-16.848 7.558-16.848 16.848v31.078l16.285-7.566h36.2c9.29 0 16.847-7.558 16.847-16.848v-6.667c0-9.29-7.56-16.848-16.853-16.848H21.682v.003zm1.594 16.48a4.596 4.596 0 014.596 4.597 4.596 4.596 0 11-4.597-4.597zm32.446 0a4.596 4.596 0 110 9.194 4.596 4.596 0 110-9.194zm-16.226 0a4.596 4.596 0 110 9.194 4.596 4.596 0 110-9.194z" fill="#E5A132"/></svg>