<svg width="24" height="24" fill="none" xmlns="http://www.w3.org/2000/svg"><path d="M23.921 22.36l-1.32-2.576 1.285-1.993a.703.703 0 00-.453-1.07l-1.793-.36v3.308a2.112 2.112 0 01-2.813 1.988v.271c0 .335.236.623.565.69l3.766.752a.704.704 0 00.763-1.01zM2.36 19.669v-3.307l-1.793.358a.703.703 0 00-.454 1.07L1.4 19.785.079 22.36a.704.704 0 00.763 1.01l3.766-.753a.704.704 0 00.565-.689v-.27a2.11 2.11 0 01-2.814-1.988z" fill="#fff"/><path d="M20.233 19.669V15.15c0-.308-.2-.574-.482-.668a23.44 23.44 0 00-7.752-1.315c-2.645 0-5.253.443-7.75 1.316a.704.704 0 00-.483.667v4.519c0 .492.491.828.947.66A22.036 22.036 0 0112 19.091c2.488 0 4.94.416 7.287 1.236a.703.703 0 00.947-.66zM16.907 8.328a.675.675 0 00.144.664l1.118 1.22-.188 1.644a.674.674 0 00.95.69l1.506-.687 1.505.687c.007.003.345.172.676-.068a.674.674 0 00.274-.622l-.188-1.645 1.119-1.22a.674.674 0 00-.363-1.116l-1.622-.33-.814-1.44a.674.674 0 00-1.174 0l-.815 1.44-1.622.33a.674.674 0 00-.506.453zM8.695 7.43l-.33 2.887a.703.703 0 00.99.72L12 9.83l2.645 1.206c.007.003.36.18.705-.071a.703.703 0 00.285-.649l-.33-2.888 1.965-2.142a.703.703 0 00-.378-1.165l-2.849-.578-1.43-2.53a.703.703 0 00-1.225 0l-1.43 2.53-2.85.578a.703.703 0 00-.378 1.165l1.965 2.142zm-7.399 2.781l-.188 1.645a.675.675 0 00.95.69l1.505-.687 1.506.687c.007.003.345.172.676-.068a.674.674 0 00.274-.622L5.83 10.21l1.118-1.22a.674.674 0 00-.362-1.116l-1.622-.33-.815-1.44a.674.674 0 00-1.174 0l-.814 1.44-1.622.33A.675.675 0 00.176 8.99l1.119 1.22z" fill="#fff"/></svg>