<svg width="72" height="72" fill="none" xmlns="http://www.w3.org/2000/svg"><path d="M68.909 0H2.953a2.11 2.11 0 00-2.11 2.11v32.305A31.312 31.312 0 0016.968 61.79l17.941 9.946a2.108 2.108 0 002.046 0l17.94-9.946a31.312 31.312 0 0016.124-27.374V2.11A2.111 2.111 0 0068.909 0zm-2.11 34.415A27.091 27.091 0 0152.85 58.1l-16.918 9.38-16.919-9.38a27.092 27.092 0 01-13.95-23.684V4.22H66.8v30.196z" fill="#E5A132"/><path d="M17.423 37.145a2.11 2.11 0 003.9 0l5.38-13.06a2.11 2.11 0 00-3.901-1.606l-3.429 8.324-3.428-8.324a2.11 2.11 0 00-3.9 1.606l5.378 13.06zm13.129 1.307a2.11 2.11 0 002.11-2.11v-4.42h5.383a5.38 5.38 0 005.374-5.375 5.38 5.38 0 00-5.374-5.375h-7.493a2.11 2.11 0 00-2.109 2.11v13.06a2.11 2.11 0 002.11 2.11zm2.11-13.06h5.383a1.156 1.156 0 01-.001 2.311h-5.382V25.39zm14.448 13.06a2.11 2.11 0 002.11-2.11v-7.181l7.019 8.522a2.11 2.11 0 003.738-1.34V23.281a2.11 2.11 0 00-4.219 0v7.181l-7.02-8.522a2.11 2.11 0 00-3.737 1.34v13.061a2.11 2.11 0 002.109 2.11z" fill="#E5A132"/></svg>