<svg width="67" height="67" fill="none" xmlns="http://www.w3.org/2000/svg"><path d="M29.313 16.75v12.563h8.375v-4.188H33.5V16.75h-4.188z" fill="#E5A132"/><path d="M20.938 16.75c0-6.938 5.624-12.563 12.562-12.563S46.063 9.813 46.063 16.75v12.563h4.187V16.75C50.25 7.5 42.75 0 33.5 0S16.75 7.5 16.75 16.75v13.26l6.281 8.375v4.118L0 50.878V67h16.75v-4.188H4.187V53.81l23.032-8.375V36.99l-6.282-8.375V16.75zm4.187 46.063h-4.188V67h4.188v-4.188zm8.375 0h-4.188V67H33.5v-4.188z" fill="#E5A132"/><path d="M50.25 33.5C41 33.5 33.5 41 33.5 50.25S41 67 50.25 67 67 59.5 67 50.25c-.01-9.246-7.504-16.74-16.75-16.75zM37.687 50.25c-.011-6.926 5.594-12.551 12.52-12.563a12.536 12.536 0 017.31 2.335L40.022 57.517a12.482 12.482 0 01-2.334-7.267zM57.56 60.477a12.542 12.542 0 01-7.31 2.336c-2.607 0-5.148-.817-7.267-2.335l17.495-17.495c4.025 5.636 2.719 13.47-2.918 17.494z" fill="#E5A132"/></svg>