<svg width="72" height="78" fill="none" xmlns="http://www.w3.org/2000/svg"><path d="M5.137 57.022c0-11.99 9.756-21.746 21.748-21.746 5.12 0 9.88 1.717 13.763 4.967l3.296-3.94c-4.82-4.033-10.718-6.164-17.06-6.164C12.06 30.14 0 42.2 0 57.023v12.758a2.569 2.569 0 002.569 2.568h40.926v-5.138H5.137V57.022z" fill="#E5A132"/><path d="M26.884 0C17.16 0 9.247 7.912 9.247 17.638c0 9.725 7.912 17.638 17.638 17.638 9.725 0 17.637-7.913 17.637-17.638C44.522 7.912 36.61 0 26.884 0zm0 30.14c-6.892 0-12.5-5.61-12.5-12.502 0-6.893 5.608-12.5 12.5-12.5 6.893 0 12.5 5.607 12.5 12.5 0 6.892-5.607 12.501-12.5 12.501zm43.34 9.037l-16.268-8.733a2.57 2.57 0 00-2.455.014l-15.84 8.733a2.567 2.567 0 00-1.328 2.25v12.328c0 9.99 5.949 19.047 15.148 23.072l2.14.942a2.572 2.572 0 002.016.022l2.483-1.027.01-.004c9.384-3.927 15.447-13.024 15.447-23.176V41.441a2.57 2.57 0 00-1.353-2.264zM66.44 53.598c0 8.073-4.823 15.31-12.287 18.435l-1.466.605-1.142-.501C44.21 68.927 39.47 61.717 39.47 53.77V42.957l13.288-7.326 13.682 7.345v10.622z" fill="#E5A132"/><path d="M62.35 49.06a2.57 2.57 0 00-3.615-.36l-7.977 6.533-2.648-3.124a2.57 2.57 0 00-3.92 3.32l4.28 5.052c.508.6 1.232.909 1.962.909.573 0 1.149-.19 1.626-.581l9.932-8.134a2.569 2.569 0 00.36-3.615z" fill="#E5A132"/></svg>