<svg width="60" height="70" fill="none" xmlns="http://www.w3.org/2000/svg"><path d="M57.377 11.335L30.58.209a2.734 2.734 0 00-2.097 0L1.686 11.335A2.734 2.734 0 000 13.86v13.525a45.792 45.792 0 0028.498 42.412c.662.27 1.404.27 2.067 0a45.792 45.792 0 0028.497-42.412V13.86a2.734 2.734 0 00-1.685-2.525zm-3.783 16.05c0 15.831-9.297 30.405-24.063 36.91-14.37-6.331-24.062-20.65-24.062-36.91v-11.7l24.062-9.99 24.063 9.99v11.7zm-27.085 9.217l11.753-11.753a2.734 2.734 0 013.867 3.867L28.442 42.402a2.734 2.734 0 01-3.866 0l-7.642-7.642a2.734 2.734 0 113.867-3.866l5.708 5.708z" fill="#E5A132"/></svg>