<svg width="111" height="111" fill="none" xmlns="http://www.w3.org/2000/svg"><path d="M85.977 0H24.073C10.778 0 0 10.778 0 24.073v41.27c0 13.295 10.778 24.073 24.073 24.073H41.27v17.195a3.44 3.44 0 005.88 2.442l19.603-19.637h19.225c13.295 0 24.073-10.778 24.073-24.074V24.073C110.05 10.778 99.272 0 85.977 0zm17.195 65.342c0 9.497-7.698 17.196-17.195 17.196H65.342a3.439 3.439 0 00-2.441.997L48.147 98.323V85.977c0-1.9-1.54-3.44-3.44-3.44H24.074c-9.496 0-17.195-7.698-17.195-17.195V24.073c0-9.496 7.699-17.195 17.195-17.195h61.904c9.497 0 17.195 7.699 17.195 17.195v41.27z" fill="#E5A132"/><path d="M59.22 50.028l5.076 9.036c.36.624.168.936-.576.936h-2.34c-.72 0-1.26-.312-1.62-.936l-5.04-9.036h-3.06v8.892c0 .72-.36 1.08-1.08 1.08h-2.16c-.72 0-1.08-.36-1.08-1.08V35.088c0-.72.36-1.08 1.08-1.08h12.528c1.44 0 2.46.252 3.06.756.6.504.9 1.524.9 3.06v8.388c0 1.536-.3 2.556-.9 3.06-.6.504-1.62.756-3.06.756H59.22zm.288-4.14c.504 0 .816-.048.936-.144.12-.096.18-.396.18-.9v-5.616c0-.504-.072-.804-.216-.9-.12-.12-.42-.18-.9-.18h-7.812v7.74h7.812z" fill="#E5A132"/></svg>