<svg width="111" height="90" fill="none" xmlns="http://www.w3.org/2000/svg"><path d="M103.191 27.518h-6.88v6.88h6.88v48.155H6.879V34.397h48.156v-6.88H6.88A6.88 6.88 0 000 34.398v48.156c0 3.8 3.08 6.88 6.88 6.88h96.311a6.88 6.88 0 006.879-6.88V34.397c0-3.8-3.08-6.88-6.879-6.88z" fill="#E5A132"/><path d="M73.231 67.796a3.44 3.44 0 004.85 0l6.88-6.879a3.439 3.439 0 001.032-2.442V3.44c0-1.9-1.54-3.44-3.44-3.44H68.794a3.44 3.44 0 00-3.44 3.44v55.035a3.439 3.439 0 00.998 2.442l6.88 6.88zm-.997-43.718h6.88v32.987l-3.44 3.44-3.44-3.44V24.078zM27.517 68.794h30.958v-6.88H20.638c0 3.8 3.08 6.88 6.88 6.88zm27.518-13.759v-6.88H34.397c0 3.8 3.08 6.88 6.88 6.88h13.758z" fill="#E5A132"/></svg>