<svg width="110" height="104" fill="none" xmlns="http://www.w3.org/2000/svg"><path d="M102.55 0H6.837C3.061 0 .001 3.087.001 6.896v62.06c0 3.808 3.06 6.895 6.836 6.895h95.713c3.776 0 6.837-3.087 6.837-6.895V6.896c0-3.809-3.061-6.896-6.837-6.896zm0 68.956H6.837V6.896h95.713v62.06z" fill="#E5A132"/><path d="M58.111 62.06c9.44 0 17.092-7.718 17.092-17.239h-6.837c-.044 5.713-4.67 10.308-10.334 10.263-4.285-.033-8.099-2.751-9.56-6.815h6.221v-6.895h-6.837v-6.896h6.837v-6.896h-6.221c1.931-5.37 7.813-8.143 13.137-6.195 4.03 1.475 6.724 5.32 6.757 9.643h6.837c.01-9.52-7.635-17.246-17.075-17.256-8.134-.008-15.148 5.768-16.766 13.809h-7.179v6.895h6.837v6.896h-6.837v6.895h7.179c1.624 8.028 8.626 13.793 16.75 13.791zM3.418 82.747H0c0 3.808 3.06 6.896 6.837 6.896h95.712c3.776 0 6.837-3.088 6.837-6.896H3.418zm0 13.791H0c0 3.808 3.06 6.895 6.837 6.895h95.712c3.776 0 6.837-3.087 6.837-6.895H3.418z" fill="#E5A132"/></svg>