<svg width="111" height="111" fill="none" xmlns="http://www.w3.org/2000/svg"><path d="M110.07 22.931a6.88 6.88 0 00-6.879-6.879h-9.173v4.586h9.173a2.293 2.293 0 012.293 2.293v61.202l-11.429-11.43c5.493-9.8 4.073-22.432-4.263-30.768a19.92 19.92 0 00-.36-.352V2.293A2.293 2.293 0 0087.14 0H38.983c-.122 0-.243.012-.363.032-.026.004-.053.006-.079.011-.034.007-.068.017-.103.026-.038.009-.077.017-.116.029-.024.007-.049.017-.073.025-.047.016-.093.031-.14.05L38.056.2c-.05.022-.1.044-.148.07-.018.009-.034.02-.05.03a2.196 2.196 0 00-.143.085l-.073.053c-.036.027-.073.052-.108.08-.06.05-.117.1-.171.155L21.31 16.724a2.292 2.292 0 00-.672 1.621v45.862h-4.586v4.587h31.307c3.557 9.95 13.065 17.07 24.238 17.07a25.73 25.73 0 0012.583-3.288l6.849 6.856H6.879a2.293 2.293 0 01-2.293-2.293V22.93a2.293 2.293 0 012.293-2.293h9.173v-4.586H6.879A6.88 6.88 0 000 22.932v64.207c0 3.8 3.08 6.88 6.88 6.88h33.138c-1.116 11.023-10.262 11.454-11.354 11.465a2.293 2.293 0 000 4.587h52.742a2.294 2.294 0 000-4.587c-.431 0-10.188-.139-11.352-11.465H95.61l2.543 2.545a6.952 6.952 0 004.937 2.04 6.951 6.951 0 004.93-2.063 6.965 6.965 0 002.038-4.816h.012V22.931zm-39.696 82.553H39.697a18.156 18.156 0 005.023-11.465h20.63a18.154 18.154 0 005.024 11.465zm-45.15-41.276V19.294L36.69 7.83v8.223h-4.586v4.586h6.88a2.293 2.293 0 002.292-2.293V4.586h43.57v33.485a25.732 25.732 0 00-13.251-3.674c-3.792 0-7.391.82-10.632 2.293h-28.86v4.586h21.981a25.83 25.83 0 00-5.27 6.88h-16.71v4.586H46.94c-.7 2.34-1.078 4.82-1.078 7.39 0 1.386.111 2.748.323 4.075h-20.96zm25.228-4.075c-.002-11.68 9.465-21.148 21.144-21.15a21.005 21.005 0 0114.954 6.192 21.148 21.148 0 016.196 14.953 21.08 21.08 0 01-6.1 14.86l-.194.194a21.08 21.08 0 01-14.85 6.096c-11.68.001-21.15-9.466-21.15-21.145zm41.033 16.51l3.38 3.38-3.387 3.388-3.38-3.38 3.387-3.388zm9.913 16.687l-6.677-6.676 3.387-3.387 6.677 6.676a2.39 2.39 0 01.699 1.683v.022a2.39 2.39 0 01-.699 1.682 2.399 2.399 0 01-3.387 0z" fill="#E5A132"/><path d="M43 48.564l3.243 3.243c4.6-4.59 12.047-4.59 16.648 0l3.242-3.243c-6.392-6.377-16.74-6.377-23.133 0zm6 24.816v9.172a2.293 2.293 0 002.293 2.294h9.173v-4.587h-6.88V73.38H49z" fill="#E5A132"/><path d="M57.586 80.26H53v4.586h4.586V80.26zm10.38-55.036H22.104v4.587h45.862v-4.587z" fill="#E5A132"/></svg>