<svg width="111" height="109" fill="none" xmlns="http://www.w3.org/2000/svg"><path d="M6.887 26.517a6.466 6.466 0 016.878-6.878H98.34l-7.91 7.876 4.849 4.85 13.757-13.758a3.438 3.438 0 000-4.85L95.278 0l-4.85 4.884 7.911 7.876H13.765C6.38 12.548.22 18.364.008 25.75a13.44 13.44 0 000 .767v24.076h6.879V26.517zm96.297 30.954v24.076a6.467 6.467 0 01-6.88 6.879H11.732l7.876-7.877-4.85-4.883L1 89.423a3.44 3.44 0 000 4.85l13.758 13.757 4.85-4.85-7.877-7.876h84.574c7.386.212 13.545-5.603 13.757-12.99.008-.255.008-.511 0-.767V57.47h-6.878z" fill="#E5A132"/><path d="M50.945 55.028v8.892c0 .72-.36 1.08-1.08 1.08h-2.16c-.72 0-1.08-.36-1.08-1.08V40.088c0-.72.36-1.08 1.08-1.08h12.528c1.44 0 2.46.252 3.06.756.6.504.9 1.524.9 3.06v8.388c0 1.536-.3 2.556-.9 3.06-.6.504-1.62.756-3.06.756h-9.288zm7.812-4.14c.504 0 .816-.048.936-.144.12-.096.18-.396.18-.9v-5.616c0-.504-.072-.804-.216-.9-.12-.12-.42-.18-.9-.18h-7.812v7.74h7.812z" fill="#E5A132"/></svg>