<svg width="111" height="90" viewBox="0 0 111 90" fill="none" xmlns="http://www.w3.org/2000/svg">
<path d="M103.191 27.5177H96.3115V34.3971H103.191V82.5529H6.8794V34.3971H55.0352V27.5177H6.8794C3.08003 27.5177 0 30.5977 0 34.3971V82.5529C0 86.3522 3.08003 89.4323 6.8794 89.4323H103.191C106.99 89.4323 110.07 86.3522 110.07 82.5529V34.3971C110.07 30.5977 106.99 27.5177 103.191 27.5177Z" fill="#E5A132"/>
<path d="M73.2313 67.7964C74.573 69.1302 76.7396 69.1302 78.0812 67.7964L84.9606 60.917C85.6172 60.2736 85.9887 59.3941 85.9925 58.4749V3.4397C85.9925 1.53991 84.4526 0 82.5529 0H68.7941C66.8943 0 65.3544 1.53991 65.3544 3.4397V58.4749C65.349 59.3892 65.708 60.2678 66.3519 60.917L73.2313 67.7964ZM72.2338 24.0779H79.1132V57.0646L75.6735 60.5043L72.2338 57.0646V24.0779Z" fill="#E5A132"/>
<path d="M27.5175 68.7941H58.4748V61.9147H20.6382C20.6382 65.714 23.7182 68.7941 27.5175 68.7941Z" fill="#E5A132"/>
<path d="M55.0352 55.035V48.1556H34.397C34.397 51.955 37.477 55.035 41.2764 55.035H55.0352Z" fill="#E5A132"/>
</svg>
