<svg width="36" height="37" viewBox="0 0 36 37" fill="none" xmlns="http://www.w3.org/2000/svg">
<g clip-path="url(#clip0)">
<path d="M14.6957 15.4287V8.41331C14.6957 6.54076 16.178 5.01726 18 5.01726C19.822 5.01726 21.3043 6.54076 21.3043 8.41331V11.3596H26.1859V8.41331C26.1859 3.77422 22.5137 0 18 0C13.4863 0 9.81409 3.77422 9.81409 8.41331V15.4287H14.6957Z" fill="#2E2E2E"/>
<path fill-rule="evenodd" clip-rule="evenodd" d="M4.67035 37V17.5967H31.3296V37H4.67035ZM19.8515 25.4203L18 21.6585L16.1485 25.4203L12.0083 26.0235L15.0042 28.9517L14.297 33.0862L18 31.1341L21.7031 33.0862L20.9958 28.9517L23.9917 26.0235L19.8515 25.4203Z" fill="#2E2E2E"/>
</g>
<defs>
<clipPath id="clip0">
<rect width="36" height="37" fill="white"/>
</clipPath>
</defs>
</svg>
