<svg width="33" height="39" fill="none" xmlns="http://www.w3.org/2000/svg"><path d="M26.88 2.992V0H6.118v2.992H0v8.442c0 4.312 3.244 7.862 7.363 8.228 1.19 2.251 3.15 4.016 5.516 4.92v7.859H8.93V39h15.138v-6.56H20.12v-7.858c2.366-.904 4.326-2.668 5.516-4.92 4.12-.365 7.365-3.915 7.365-8.228V2.992h-6.12zM2.231 11.434V5.277h3.887v9.342c0 .878.105 1.73.302 2.546-2.419-.73-4.19-3.022-4.19-5.731zm18.06 5.64l-3.793-2.037-3.792 2.036.719-4.323-3.063-3.064L14.6 9.05l1.9-3.93 1.899 3.93 4.237.636-3.063 3.064.719 4.323zm10.476-5.64c0 2.71-1.77 5.002-4.19 5.731.196-.816.301-1.668.301-2.545V5.277h3.89v6.157z" fill="#323232"/></svg>