<svg width="49" height="49" fill="none" xmlns="http://www.w3.org/2000/svg"><path d="M16.812 43.26l-.067-.04-.075-.02a9.752 9.752 0 00-3.222-.25h-.197c-2.163.001-4.28.003-5.778-1.486-1.518-1.51-1.477-3.666-1.435-5.862l.002-.096a9.643 9.643 0 00-.25-3.228l-.02-.075-.04-.066a9.32 9.32 0 00-1.993-2.287C2.227 28.423.5 26.766.5 24.5c0-1.127.429-2.11 1.058-3.004.599-.851 1.357-1.592 2.068-2.288l.115-.112a9.323 9.323 0 001.989-2.284l.04-.066.02-.075a9.647 9.647 0 00.25-3.223v-.195c-.002-2.156-.003-4.28 1.485-5.769 1.534-1.534 3.753-1.527 5.97-1.485a9.617 9.617 0 003.227-.251l.075-.019.066-.04a9.34 9.34 0 002.285-1.99l.084-.087c.68-.7 1.416-1.459 2.27-2.059C22.39.929 23.373.5 24.5.5c1.127 0 2.11.428 3.004 1.059.859.606 1.607 1.375 2.308 2.097l.091.094a9.321 9.321 0 002.285 1.99l.066.04.076.02a9.647 9.647 0 003.222.25h.197c2.163-.001 4.28-.003 5.778 1.486 1.543 1.534 1.526 3.75 1.484 5.958a9.641 9.641 0 00.251 3.228l.019.075.04.066a9.32 9.32 0 001.99 2.284l.107.106c.69.673 1.437 1.403 2.03 2.248.623.889 1.052 1.872 1.052 2.999s-.428 2.11-1.058 3.004c-.599.851-1.356 1.592-2.068 2.288l-.115.112a9.32 9.32 0 00-1.989 2.284l-.04.066-.02.076a9.649 9.649 0 00-.25 3.222v.195c.002 2.156.003 4.28-1.485 5.769-1.534 1.534-3.753 1.527-5.97 1.485a9.593 9.593 0 00-3.227.251l-.075.019-.066.04a9.341 9.341 0 00-2.285 1.99l-.085.087c-.678.7-1.415 1.459-2.269 2.059-.888.624-1.871 1.053-2.998 1.053-2.268 0-3.925-1.699-5.402-3.248a9.325 9.325 0 00-2.286-1.992zm-2.34-3.558h.017a9.08 9.08 0 013.482.524 10.788 10.788 0 013.425 2.742l.011.014.013.013c.445.466.975 1.01 1.481 1.438.253.214.513.41.764.555.24.139.528.264.825.264.297 0 .585-.126.825-.264.25-.145.51-.341.763-.555.507-.429 1.036-.972 1.482-1.438l.012-.013.012-.014a10.793 10.793 0 013.418-2.739 11.22 11.22 0 014.493-.519l.022.002h.032c.59 0 1.313 0 1.947-.05.319-.025.63-.064.9-.127.252-.06.54-.155.747-.338.228-.201.34-.504.403-.755.07-.27.11-.587.133-.908.046-.632.034-1.36.023-1.959v-.052l-.002-.017a11.218 11.218 0 01.519-4.493 10.787 10.787 0 012.739-3.42l.014-.01.012-.013c.466-.446 1.01-.975 1.438-1.481.214-.253.41-.513.556-.764.138-.24.264-.528.264-.825 0-.297-.126-.585-.264-.825a5.448 5.448 0 00-.556-.764c-.428-.506-.971-1.036-1.438-1.481l-.013-.012-.013-.012a10.787 10.787 0 01-2.74-3.419 11.2 11.2 0 01-.518-4.492l.002-.022v-.033c0-.588 0-1.312-.05-1.946a6.23 6.23 0 00-.128-.9c-.059-.252-.154-.54-.337-.748-.2-.227-.502-.339-.753-.404a5.29 5.29 0 00-.91-.135c-.645-.048-1.389-.034-1.997-.02l-.016.001-.016.002a11.238 11.238 0 01-4.493-.52 10.79 10.79 0 01-3.418-2.738l-.012-.014-.012-.013c-.446-.466-.975-1.01-1.482-1.438a5.442 5.442 0 00-.763-.555c-.24-.139-.529-.265-.825-.265-.297 0-.586.126-.825.265a5.443 5.443 0 00-.764.555c-.506.428-1.036.972-1.481 1.438l-.013.013-.011.014a10.79 10.79 0 01-3.419 2.739 11.239 11.239 0 01-4.493.519l-.022-.002h-.032c-.589 0-1.313 0-1.947.05-.318.025-.63.064-.9.127-.251.06-.54.155-.747.338-.228.201-.339.504-.403.755-.07.27-.109.587-.132.908-.046.632-.034 1.36-.024 1.959v.052l.002.017a11.218 11.218 0 01-.518 4.493 10.788 10.788 0 01-2.74 3.42l-.013.01-.013.013c-.466.445-1.01.975-1.438 1.481-.214.253-.41.513-.555.764-.139.24-.265.528-.265.825 0 .297.126.585.265.825.145.251.341.51.555.764.428.506.972 1.035 1.438 1.48l.013.013.014.012a10.782 10.782 0 012.739 3.419c.476 1.446.653 2.975.518 4.492l-.002.022v.033c0 .588 0 1.312.05 1.946.026.32.065.63.128.9.059.252.154.54.338.748.201.227.503.338.754.403.271.07.587.109.909.132.631.046 1.36.034 1.958.024h.035l1.022-.011z" fill="#323232" stroke="#000"/><path d="M22.448 31.743a2.114 2.114 0 01-1.323-.461l-5.13-4.104a2.117 2.117 0 012.647-3.304l3.652 2.924 7.89-7.89a2.119 2.119 0 012.996 2.996l-9.234 9.234c-.4.392-.938.61-1.498.605z" fill="#323232"/></svg>