<svg width="36" height="37" fill="none" xmlns="http://www.w3.org/2000/svg"><g clip-path="url(#clip0)" fill="#2E2E2E"><path d="M14.696 15.429V8.413c0-1.872 1.482-3.396 3.304-3.396 1.822 0 3.304 1.524 3.304 3.396v2.947h4.882V8.413C26.186 3.774 22.514 0 18 0c-4.514 0-8.186 3.774-8.186 8.413v7.016h4.882z"/><path fill-rule="evenodd" clip-rule="evenodd" d="M4.67 37V17.597h26.66V37H4.67zm15.182-11.58L18 21.658l-1.852 3.762-4.14.603 2.996 2.929-.707 4.134L18 31.134l3.703 1.952-.707-4.134 2.996-2.929-4.14-.603z"/></g><defs><clipPath id="clip0"><path fill="#fff" d="M0 0h36v37H0z"/></clipPath></defs></svg>