<svg width="24" height="24" fill="none" xmlns="http://www.w3.org/2000/svg"><path d="M23.81 2.979l-.627-.626v-.886a.65.65 0 00-.65-.65h-.886L21.021.19a.65.65 0 00-.92 0l-.626.626h-.886a.65.65 0 00-.65.65v.886l-.627.626a.65.65 0 000 .92l.627.626v.886c0 .36.291.65.65.65h.886l.626.627a.651.651 0 00.92 0l.626-.626h.886a.65.65 0 00.65-.651v-.886l.626-.626a.65.65 0 000-.92zM12.703 7.226v-1.25A.703.703 0 0012 5.271H4.469a.703.703 0 00-.703.703v1.25a9.578 9.578 0 014.468-1.1c1.612 0 3.133.398 4.47 1.1zm-7.481 5.477a.804.804 0 000 1.606.804.804 0 000-1.606z" fill="#fff"/><path d="M8.234 7.531C3.694 7.531 0 11.225 0 15.766 0 20.306 3.694 24 8.234 24s8.235-3.694 8.235-8.234S12.775 7.53 8.234 7.53zm-3.012 8.185a2.212 2.212 0 01-2.21-2.21c0-1.218.992-2.21 2.21-2.21s2.21.992 2.21 2.21-.992 2.21-2.21 2.21z" fill="#fff"/><path d="M19.49 7.984a2.071 2.071 0 01-3.775-1.178V4.093A4.09 4.09 0 0011.625 0a4.097 4.097 0 00-4.086 3.866h1.41a2.684 2.684 0 015.361.227v2.714a3.477 3.477 0 006.643 1.44 2.044 2.044 0 01-1.461-.263z" fill="#fff"/></svg>