<svg width="20" height="20" viewBox="0 0 20 20" fill="none" xmlns="http://www.w3.org/2000/svg">
<path d="M8.71667 16.325C8.71832 16.589 8.64152 16.8476 8.49602 17.068C8.35052 17.2884 8.14286 17.4606 7.89938 17.5627C7.65589 17.6649 7.38755 17.6925 7.12836 17.642C6.86917 17.5915 6.63082 17.4652 6.44351 17.2791C6.25621 17.0929 6.12839 16.8554 6.07626 16.5965C6.02414 16.3377 6.05005 16.0691 6.15072 15.825C6.25138 15.5809 6.42227 15.3722 6.64171 15.2253C6.86116 15.0784 7.11927 15 7.38333 15C7.73552 15 8.0734 15.1393 8.32321 15.3876C8.57302 15.6358 8.71447 15.9728 8.71667 16.325ZM14.2083 15C13.9446 15 13.6868 15.0782 13.4676 15.2247C13.2483 15.3712 13.0774 15.5794 12.9765 15.8231C12.8756 16.0667 12.8492 16.3348 12.9006 16.5934C12.9521 16.8521 13.0791 17.0897 13.2655 17.2761C13.452 17.4626 13.6896 17.5896 13.9482 17.641C14.2069 17.6925 14.4749 17.6661 14.7186 17.5652C14.9622 17.4642 15.1705 17.2933 15.317 17.0741C15.4635 16.8548 15.5417 16.597 15.5417 16.3333C15.5417 15.9797 15.4012 15.6406 15.1511 15.3905C14.9011 15.1405 14.562 15 14.2083 15ZM17.0333 6.87499L15.6833 12.2833C15.5462 12.8222 15.2332 13.3 14.794 13.6411C14.3548 13.9822 13.8144 14.1672 13.2583 14.1667H8.33333C7.77612 14.1667 7.23487 13.9806 6.79553 13.6378C6.35618 13.2951 6.04392 12.8154 5.90833 12.275L3.90833 4.16665H2.58333C2.36232 4.16665 2.15036 4.07886 1.99408 3.92258C1.8378 3.7663 1.75 3.55433 1.75 3.33332C1.75 3.11231 1.8378 2.90035 1.99408 2.74407C2.15036 2.58778 2.36232 2.49999 2.58333 2.49999H4.55833C4.7487 2.49444 4.93521 2.55427 5.08684 2.6695C5.23846 2.78473 5.34604 2.94842 5.39167 3.13332L6.04167 5.83332H16.125H16.2C16.2773 5.82101 16.356 5.82101 16.4333 5.83332C16.5414 5.86038 16.6429 5.90882 16.732 5.9758C16.821 6.04278 16.8957 6.12692 16.9516 6.22325C17.0075 6.31959 17.0436 6.42617 17.0576 6.53668C17.0717 6.64719 17.0634 6.75939 17.0333 6.86665V6.87499ZM15.1583 7.49999H6.45833L7.55 11.8667C7.59356 12.0432 7.6937 12.2007 7.83514 12.3151C7.97658 12.4294 8.15154 12.4944 8.33333 12.5H13.2333C13.4237 12.5055 13.6102 12.4457 13.7618 12.3305C13.9135 12.2152 14.021 12.0515 14.0667 11.8667L15.1583 7.49999Z" fill="black"/>
</svg>
