<svg width="24" height="24" viewBox="0 0 24 24" fill="none" xmlns="http://www.w3.org/2000/svg">
<path d="M10.4601 19.59C10.4621 19.9069 10.3699 20.2172 10.1953 20.4816C10.0207 20.746 9.77153 20.9527 9.47935 21.0753C9.18717 21.198 8.86515 21.2311 8.55413 21.1705C8.2431 21.1099 7.95708 20.9583 7.73231 20.7349C7.50754 20.5115 7.35416 20.2265 7.29161 19.9158C7.22906 19.6052 7.26016 19.283 7.38096 18.99C7.50176 18.6971 7.70682 18.4466 7.97015 18.2704C8.23349 18.0941 8.54322 18 8.8601 18C9.28272 18 9.68818 18.1672 9.98795 18.4651C10.2877 18.763 10.4575 19.1674 10.4601 19.59ZM17.0501 18C16.7336 18 16.4243 18.0938 16.1612 18.2696C15.8981 18.4455 15.693 18.6953 15.5719 18.9877C15.4508 19.2801 15.4191 19.6018 15.4808 19.9121C15.5426 20.2225 15.695 20.5076 15.9187 20.7314C16.1425 20.9551 16.4276 21.1075 16.738 21.1693C17.0483 21.231 17.37 21.1993 17.6624 21.0782C17.9548 20.9571 18.2046 20.752 18.3804 20.4889C18.5563 20.2258 18.6501 19.9164 18.6501 19.6C18.6501 19.1757 18.4815 18.7687 18.1815 18.4686C17.8814 18.1686 17.4744 18 17.0501 18ZM19.7201 7C19.592 6.96709 19.4587 6.95991 19.3279 6.97886C19.197 6.99782 19.0712 7.04253 18.9578 7.11042C18.8443 7.17831 18.7454 7.26803 18.6669 7.37437C18.5883 7.48072 18.5316 7.6016 18.5001 7.73L16.8801 14.21C16.8253 14.4319 16.6963 14.6283 16.5143 14.7666C16.3324 14.9049 16.1085 14.9767 15.8801 14.97H10.0001C9.77166 14.9767 9.54784 14.9049 9.36589 14.7666C9.18394 14.6283 9.05485 14.4319 9.0001 14.21L6.4401 3.76C6.38535 3.53812 6.25625 3.34169 6.0743 3.20341C5.89235 3.06513 5.66853 2.99334 5.4401 3H3.1001C2.83488 3 2.58053 3.10535 2.39299 3.29289C2.20545 3.48043 2.1001 3.73478 2.1001 4C2.1001 4.26521 2.20545 4.51957 2.39299 4.7071C2.58053 4.89464 2.83488 5 3.1001 5H4.6901L7.1201 14.73C7.28152 15.3736 7.65177 15.9455 8.17289 16.3563C8.69401 16.767 9.3366 16.9934 10.0001 17H15.8801C16.5487 17 17.1982 16.7767 17.7255 16.3654C18.2527 15.9542 18.6274 15.3786 18.7901 14.73L20.4101 8.24C20.4467 8.11327 20.4578 7.98056 20.4429 7.84951C20.428 7.71846 20.3873 7.59166 20.3232 7.4764C20.259 7.36115 20.1727 7.25972 20.0692 7.17795C19.9657 7.09619 19.8471 7.03571 19.7201 7ZM10.7201 10H12.0001V11.25C12.0001 11.5152 12.1055 11.7696 12.293 11.9571C12.4805 12.1446 12.7349 12.25 13.0001 12.25C13.2653 12.25 13.5197 12.1446 13.7072 11.9571C13.8947 11.7696 14.0001 11.5152 14.0001 11.25V10H15.2601C15.5253 10 15.7797 9.89464 15.9672 9.7071C16.1547 9.51957 16.2601 9.26521 16.2601 9C16.2601 8.73478 16.1547 8.48043 15.9672 8.29289C15.7797 8.10535 15.5253 8 15.2601 8H14.0001V6.75C14.0001 6.48478 13.8947 6.23043 13.7072 6.04289C13.5197 5.85535 13.2653 5.75 13.0001 5.75C12.7349 5.75 12.4805 5.85535 12.293 6.04289C12.1055 6.23043 12.0001 6.48478 12.0001 6.75V8H10.7601C10.4949 8 10.2405 8.10535 10.053 8.29289C9.86546 8.48043 9.7601 8.73478 9.7601 9C9.7601 9.26521 9.86546 9.51957 10.053 9.7071C10.2405 9.89464 10.4949 10 10.7601 10H10.7201Z" fill="white"/>
</svg>
