<svg width="13" height="19" viewBox="0 0 13 19" fill="none" xmlns="http://www.w3.org/2000/svg">
<path d="M4.06709 -0.000976562C5.90574 0.656558 7.62948 1.53327 8.89355 2.84834C10.3874 4.49217 10.3874 6.35519 8.77862 7.88943C8.08913 8.54697 7.28472 8.98532 6.48032 9.64286C5.79083 10.1908 5.10133 10.6292 4.41184 11.0675C2.80303 12.3826 1.7688 13.8072 1.99863 15.999C-0.759333 13.5881 -0.644421 9.86204 2.22846 7.67026C2.80304 7.2319 3.3776 6.90313 3.83726 6.46478C5.56099 5.04012 5.79083 3.50587 4.87151 1.53327C4.7566 1.09491 4.41184 0.546969 4.06709 -0.000976562Z" fill="#DF3616"/>
<path d="M4.6405 18.999C3.60987 17.0773 3.8389 15.0425 5.21307 13.686C6.01466 12.8947 7.04529 12.1034 8.07591 11.4251C9.90814 10.0686 11.1678 8.37294 10.9388 5.99902C12.0839 7.12946 13 8.37294 13 9.95554C13 10.5208 12.6565 11.199 12.1984 11.7642C11.6258 12.4425 10.8242 13.0077 10.1372 13.4599C7.84687 14.8164 5.78564 16.286 4.6405 18.999Z" fill="#DF3616"/>
</svg>
