<svg width="160" height="44" viewBox="0 0 160 44" fill="none" xmlns="http://www.w3.org/2000/svg">
<path d="M13.494 35.9006H7.79116L0 19.5235V15.4897H4.33735L10.6024 28.9625L16.8675 15.4897H21.2048V19.5235L13.494 35.9006Z" fill="white"/>
<path d="M103.213 35.9005L112.61 15.5703H116.948V19.6041L109.157 35.9812H103.213V35.9005Z" fill="#DF3616"/>
<path d="M22.1685 25.5743C22.1685 24.1222 22.4094 22.7507 22.9717 21.4599C23.5339 20.1691 24.2568 19.0396 25.2207 18.0715C26.1845 17.1034 27.309 16.3773 28.5942 15.8126C29.8793 15.2479 31.2448 15.0059 32.6905 15.0059C33.5741 15.0059 34.5379 15.1672 35.5018 15.4899C36.4656 15.8126 37.1885 16.3773 37.6705 17.1034V15.5706H43.293V35.9008H37.6705V33.9646C37.4295 34.4486 37.1885 34.852 36.7869 35.1747C36.3853 35.4974 35.9837 35.7394 35.5821 35.9008C35.1805 36.0621 34.6183 36.2235 34.1363 36.3042C33.6544 36.3848 33.1725 36.3848 32.6905 36.3848C31.2448 36.3848 29.8793 36.0621 28.5942 35.4974C27.309 34.9327 26.1845 34.1259 25.2207 33.1578C24.2568 32.1897 23.4536 31.0603 22.9717 29.7695C22.4897 28.4787 22.1685 27.1072 22.1685 25.5743ZM32.8512 20.6531C32.2086 20.6531 31.566 20.8145 31.0038 21.0565C30.4415 21.2985 29.8793 21.6212 29.4777 22.1053C28.9958 22.5087 28.6745 22.9927 28.4335 23.5575C28.1926 24.1222 28.0319 24.8483 28.0319 25.655C28.0319 26.4618 28.1926 27.1878 28.4335 27.7526C28.6745 28.3173 29.0761 28.8014 29.4777 29.2047C29.9596 29.6081 30.4415 29.9308 31.0038 30.1728C31.566 30.4149 32.2086 30.4955 32.8512 30.4955C33.4938 30.4955 34.1363 30.3342 34.6986 30.0922C35.2608 29.8501 35.8231 29.5274 36.2247 29.0434C36.7066 28.64 37.0279 28.0753 37.2689 27.5105C37.5098 26.9458 37.6705 26.3004 37.7508 25.655V25.2516C37.6705 24.6062 37.5098 23.9608 37.2689 23.3961C37.0279 22.8314 36.6263 22.3473 36.2247 21.8633C35.7428 21.4599 35.2608 21.0565 34.6986 20.8145C34.1363 20.8145 33.4938 20.6531 32.8512 20.6531Z" fill="white"/>
<path d="M68.7551 25.655C68.7551 27.1072 68.5141 28.5593 67.9519 29.8501C67.3896 31.1409 66.6668 32.2704 65.7029 33.2385C64.739 34.2066 63.6145 35.0134 62.3294 35.5781C61.0443 36.1428 59.6788 36.4655 58.233 36.4655C57.7511 36.4655 57.3495 36.4655 56.7872 36.3848C56.3053 36.3042 55.8234 36.2235 55.3415 35.9815C54.8595 35.8201 54.4579 35.5781 54.0563 35.2554C53.6547 34.9327 53.4137 34.5293 53.1728 34.0453V43.0809H47.5503V15.5706H53.1728V17.1034C53.735 16.3773 54.4579 15.8933 55.3415 15.4899C56.3053 15.1672 57.1888 15.0059 58.1527 15.0059C59.5985 15.0059 60.9639 15.2479 62.2491 15.8126C63.5342 16.3773 64.6587 17.1034 65.6226 18.0715C66.5864 19.0396 67.3897 20.1691 67.8716 21.4599C68.5141 22.7507 68.7551 24.1222 68.7551 25.655ZM58.1527 20.6531C57.5101 20.6531 56.8676 20.8145 56.3053 21.0565C55.7431 21.2985 55.1808 21.6212 54.7792 22.1053C54.2973 22.5087 53.976 23.0734 53.735 23.6381C53.4941 24.2029 53.3334 24.8483 53.2531 25.4937V25.897C53.2531 26.5424 53.4137 27.1878 53.735 27.7526C53.976 28.3173 54.3776 28.8014 54.7792 29.2854C55.2611 29.6888 55.7431 30.0922 56.3053 30.3342C56.8676 30.5762 57.5101 30.7376 58.1527 30.7376C58.7953 30.7376 59.4378 30.6569 60.0001 30.4149C60.5623 30.1728 61.1246 29.8501 61.5262 29.4468C62.0081 29.0434 62.3294 28.5593 62.5704 27.9946C62.8113 27.4299 62.972 26.8651 63.0523 26.2197V25.897V25.5743C62.972 24.9289 62.8113 24.3642 62.5704 23.7995C62.3294 23.2348 61.9278 22.7507 61.5262 22.3473C61.0443 21.9439 60.5623 21.6212 60.0001 21.2985C59.4378 20.8145 58.7953 20.6531 58.1527 20.6531Z" fill="white"/>
<path d="M80.9637 14.9248C82.4095 14.9248 83.8553 15.1668 85.1404 15.7316C86.4256 16.2963 87.5501 17.0224 88.5139 17.9905C89.4778 18.9586 90.2007 20.088 90.7629 21.3788C91.3252 22.6696 91.6465 24.0411 91.6465 25.4933C91.6465 26.9454 91.4055 28.3976 90.8432 29.6884C90.281 30.9792 89.5581 32.1087 88.5943 33.0768C87.6304 34.0449 86.5059 34.771 85.2208 35.4164C83.9356 35.9811 82.5702 36.3038 81.1244 36.3038C79.6786 36.3038 78.2328 36.0618 76.9477 35.497C75.6625 34.9323 74.538 34.2062 73.5742 33.2381C72.6103 32.27 71.8071 31.1406 71.2449 29.8498C70.6826 28.559 70.3613 27.1875 70.3613 25.7353C70.3613 24.2832 70.6023 22.831 71.1645 21.5402C71.7268 20.2494 72.4497 19.1199 73.4135 18.1518C74.3774 17.1837 75.5019 16.4576 76.787 15.8122C78.1525 15.2475 79.518 14.9248 80.9637 14.9248ZM84.5782 29.2044C85.542 28.2362 86.024 27.0261 86.024 25.6546C86.024 25.0092 85.8633 24.3638 85.6224 23.7184C85.3814 23.073 84.9798 22.589 84.4979 22.1049C83.534 21.1368 82.3292 20.6528 80.9637 20.6528C79.5983 20.6528 78.3935 21.1368 77.4296 22.1049C76.4657 23.1537 75.9838 24.2832 75.9838 25.6546C75.9838 27.0261 76.4657 28.2362 77.5099 29.2044C78.4738 30.1725 79.6786 30.6565 81.0441 30.6565C81.6866 30.6565 82.3292 30.4952 82.9718 30.2531C83.6143 30.0918 84.0963 29.6884 84.5782 29.2044Z" fill="white"/>
<path d="M106.265 20.6528C104.498 20.6528 103.052 21.1368 101.928 22.0242C100.803 22.9117 100.241 24.0411 100.161 25.3319V35.7391H94.5381V15.4895H100.161V17.0224C100.723 16.2963 101.446 15.8122 102.41 15.4089C103.373 15.0862 104.659 14.9248 106.265 14.9248V20.6528Z" fill="#DF3616"/>
<path d="M118.875 35.9005V30.2532L128.675 21.2176H119.759V15.5703H135.984V21.2176L125.944 30.2532H136.787V35.9005H118.875Z" fill="#DF3616"/>
<path d="M155.984 27.9138H144.9C145.141 28.3979 145.462 28.8012 145.863 29.2853C146.827 30.2534 148.032 30.7375 149.398 30.7375C150.442 30.7375 151.406 30.4148 152.289 29.7694L157.189 32.9157C156.225 33.9645 155.1 34.8519 153.815 35.4973C152.45 36.1427 151.004 36.4654 149.478 36.4654C148.032 36.4654 146.586 36.2234 145.301 35.6587C144.016 35.0939 142.892 34.3679 141.928 33.3997C140.964 32.4316 140.161 31.3022 139.598 30.0114C139.036 28.7206 138.715 27.3491 138.715 25.8969C138.715 24.4448 138.956 22.9926 139.518 21.7018C140.08 20.411 140.803 19.2815 141.767 18.3134C142.731 17.3453 143.855 16.5386 145.141 15.9739C146.426 15.4091 147.791 15.0864 149.317 15.0864C150.763 15.0864 152.209 15.3285 153.494 15.8932C154.779 16.4579 155.904 17.184 156.867 18.1521C157.831 19.1202 158.554 20.2497 159.116 21.5405C159.679 22.8313 160 24.2027 160 25.6549C160 26.4617 159.92 27.1877 159.759 27.9138H155.984ZM149.317 20.653C147.952 20.653 146.747 21.1371 145.783 22.1052C145.221 22.7506 144.819 23.396 144.578 24.1221H154.137C153.896 23.396 153.494 22.6699 152.851 22.1052C151.888 21.1371 150.683 20.653 149.317 20.653Z" fill="#DF3616"/>
<path d="M116.386 0C117.671 0.484053 118.876 1.12946 119.759 2.09756C120.803 3.30769 120.803 4.67917 119.679 5.80863C119.197 6.29268 118.635 6.61538 118.072 7.09944C117.591 7.50281 117.109 7.82552 116.627 8.14822C115.502 9.11632 114.779 10.1651 114.94 11.7786C113.012 10.0038 113.093 7.26079 115.101 5.64728C115.502 5.32458 115.904 5.08255 116.225 4.75985C117.43 3.71107 117.591 2.58161 116.948 1.12946C116.868 0.806754 116.627 0.403377 116.386 0Z" fill="#DF3616"/>
<path d="M116.948 13.8763C116.225 12.5048 116.386 11.0527 117.349 10.0846C117.912 9.51983 118.635 8.95511 119.357 8.47105C120.643 7.50295 121.526 6.29282 121.365 4.59863C122.169 5.40539 122.811 6.29282 122.811 7.42227C122.811 7.82565 122.57 8.3097 122.249 8.71308C121.847 9.19713 121.285 9.60051 120.803 9.92321C119.197 10.8913 117.751 11.9401 116.948 13.8763Z" fill="#DF3616"/>
</svg>
