<svg width="24" height="24" viewBox="0 0 24 24" fill="none" xmlns="http://www.w3.org/2000/svg">
<path d="M21.71 20.29L17.31 15.9C18.4084 14.5032 19.0038 12.7769 19 11C19 9.41775 18.5308 7.87103 17.6518 6.55544C16.7727 5.23985 15.5233 4.21447 14.0615 3.60897C12.5997 3.00347 10.9911 2.84504 9.43928 3.15372C7.88743 3.4624 6.46197 4.22433 5.34315 5.34315C4.22433 6.46197 3.4624 7.88743 3.15372 9.43928C2.84504 10.9911 3.00347 12.5997 3.60897 14.0615C4.21447 15.5233 5.23985 16.7727 6.55544 17.6518C7.87103 18.5308 9.41775 19 11 19C12.7769 19.0038 14.5032 18.4084 15.9 17.31L20.29 21.71C20.4783 21.8983 20.7337 22.0041 21 22.0041C21.2663 22.0041 21.5217 21.8983 21.71 21.71C21.8983 21.5217 22.0041 21.2663 22.0041 21C22.0041 20.7337 21.8983 20.4783 21.71 20.29V20.29ZM6.76 15.29C5.76685 14.3188 5.14144 13.0331 4.99047 11.6523C4.83949 10.2714 5.17231 8.88099 5.93214 7.71815C6.69197 6.55531 7.83174 5.69214 9.15698 5.27589C10.4822 4.85964 11.9108 4.91612 13.1991 5.43567C14.4874 5.95523 15.5554 6.90567 16.2211 8.12486C16.8868 9.34405 17.1088 10.7564 16.8493 12.1211C16.5898 13.4857 15.8649 14.718 14.7981 15.6077C13.7314 16.4975 12.389 16.9896 11 17C9.40924 16.9986 7.88414 16.3655 6.76 15.24V15.29Z" fill="#989898"/>
</svg>
