<svg width="20" height="20" viewBox="0 0 20 20" fill="none" xmlns="http://www.w3.org/2000/svg">
<path d="M4.99977 10.9833V3.33333C4.99977 3.11232 4.91197 2.90036 4.75569 2.74408C4.59941 2.5878 4.38745 2.5 4.16643 2.5C3.94542 2.5 3.73346 2.5878 3.57718 2.74408C3.4209 2.90036 3.3331 3.11232 3.3331 3.33333V10.9833C2.85047 11.1585 2.43348 11.478 2.1388 11.8985C1.84412 12.3189 1.68604 12.8199 1.68604 13.3333C1.68604 13.8468 1.84412 14.3477 2.1388 14.7682C2.43348 15.1886 2.85047 15.5082 3.3331 15.6833V16.6667C3.3331 16.8877 3.4209 17.0996 3.57718 17.2559C3.73346 17.4122 3.94542 17.5 4.16643 17.5C4.38745 17.5 4.59941 17.4122 4.75569 17.2559C4.91197 17.0996 4.99977 16.8877 4.99977 16.6667V15.6833C5.48239 15.5082 5.89938 15.1886 6.19406 14.7682C6.48875 14.3477 6.64683 13.8468 6.64683 13.3333C6.64683 12.8199 6.48875 12.3189 6.19406 11.8985C5.89938 11.478 5.48239 11.1585 4.99977 10.9833ZM4.16643 14.1667C4.00161 14.1667 3.8405 14.1178 3.70346 14.0262C3.56642 13.9347 3.45961 13.8045 3.39653 13.6522C3.33346 13.5 3.31696 13.3324 3.34911 13.1708C3.38127 13.0091 3.46063 12.8606 3.57718 12.7441C3.69372 12.6275 3.84221 12.5482 4.00386 12.516C4.16551 12.4839 4.33306 12.5004 4.48534 12.5634C4.63761 12.6265 4.76776 12.7333 4.85932 12.8704C4.95089 13.0074 4.99977 13.1685 4.99977 13.3333C4.99977 13.5543 4.91197 13.7663 4.75569 13.9226C4.59941 14.0789 4.38745 14.1667 4.16643 14.1667ZM10.8331 4.31667V3.33333C10.8331 3.11232 10.7453 2.90036 10.589 2.74408C10.4327 2.5878 10.2208 2.5 9.99977 2.5C9.77875 2.5 9.56679 2.5878 9.41051 2.74408C9.25423 2.90036 9.16643 3.11232 9.16643 3.33333V4.31667C8.68381 4.49184 8.26682 4.81136 7.97213 5.2318C7.67745 5.65225 7.51937 6.15323 7.51937 6.66667C7.51937 7.1801 7.67745 7.68108 7.97213 8.10153C8.26682 8.52198 8.68381 8.8415 9.16643 9.01667V16.6667C9.16643 16.8877 9.25423 17.0996 9.41051 17.2559C9.56679 17.4122 9.77875 17.5 9.99977 17.5C10.2208 17.5 10.4327 17.4122 10.589 17.2559C10.7453 17.0996 10.8331 16.8877 10.8331 16.6667V9.01667C11.3157 8.8415 11.7327 8.52198 12.0274 8.10153C12.3221 7.68108 12.4802 7.1801 12.4802 6.66667C12.4802 6.15323 12.3221 5.65225 12.0274 5.2318C11.7327 4.81136 11.3157 4.49184 10.8331 4.31667ZM9.99977 7.5C9.83495 7.5 9.67383 7.45113 9.53679 7.35956C9.39975 7.26799 9.29294 7.13784 9.22987 6.98557C9.16679 6.8333 9.15029 6.66574 9.18245 6.50409C9.2146 6.34244 9.29397 6.19395 9.41051 6.07741C9.52705 5.96087 9.67554 5.8815 9.83719 5.84935C9.99884 5.81719 10.1664 5.83369 10.3187 5.89677C10.4709 5.95984 10.6011 6.06665 10.6927 6.20369C10.7842 6.34073 10.8331 6.50185 10.8331 6.66667C10.8331 6.88768 10.7453 7.09964 10.589 7.25592C10.4327 7.4122 10.2208 7.5 9.99977 7.5ZM18.3331 10.8333C18.3334 10.3161 18.1732 9.81156 17.8747 9.38918C17.5762 8.9668 17.1541 8.6474 16.6664 8.475C16.6705 8.42786 16.6705 8.38047 16.6664 8.33333V3.33333C16.6664 3.11232 16.5786 2.90036 16.4224 2.74408C16.2661 2.5878 16.0541 2.5 15.8331 2.5C15.6121 2.5 15.4001 2.5878 15.2438 2.74408C15.0876 2.90036 14.9998 3.11232 14.9998 3.33333V8.33333C14.9957 8.38047 14.9957 8.42786 14.9998 8.475C14.5143 8.6485 14.0944 8.96784 13.7974 9.38927C13.5005 9.81071 13.3411 10.3136 13.3411 10.8292C13.3411 11.3447 13.5005 11.8476 13.7974 12.2691C14.0944 12.6905 14.5143 13.0098 14.9998 13.1833V16.6667C14.9998 16.8877 15.0876 17.0996 15.2438 17.2559C15.4001 17.4122 15.6121 17.5 15.8331 17.5C16.0541 17.5 16.2661 17.4122 16.4224 17.2559C16.5786 17.0996 16.6664 16.8877 16.6664 16.6667V13.1833C17.1527 13.0114 17.5739 12.6933 17.8723 12.2726C18.1707 11.8518 18.3316 11.3491 18.3331 10.8333ZM15.8331 11.6667C15.6683 11.6667 15.5072 11.6178 15.3701 11.5262C15.2331 11.4347 15.1263 11.3045 15.0632 11.1522C15.0001 11 14.9836 10.8324 15.0158 10.6708C15.0479 10.5091 15.1273 10.3606 15.2438 10.2441C15.3604 10.1275 15.5089 10.0482 15.6705 10.016C15.8322 9.98386 15.9997 10.0004 16.152 10.0634C16.3043 10.1265 16.4344 10.2333 16.526 10.3704C16.6176 10.5074 16.6664 10.6685 16.6664 10.8333C16.6664 11.0543 16.5786 11.2663 16.4224 11.4226C16.2661 11.5789 16.0541 11.6667 15.8331 11.6667Z" fill="black"/>
</svg>
