<svg width="15" height="16" viewBox="0 0 15 16" fill="none" xmlns="http://www.w3.org/2000/svg">
<path d="M9.13024 2.96466C9.03626 2.73031 8.87421 2.52945 8.66497 2.38798C8.45573 2.24651 8.20889 2.1709 7.95627 2.1709C7.70364 2.1709 7.4568 2.24651 7.24756 2.38798C7.03832 2.52945 6.87627 2.73031 6.78229 2.96466L5.71725 5.56516L5.66884 5.60144L2.86704 5.80706C2.70161 5.81815 2.54 5.86179 2.3915 5.93547C2.24299 6.00916 2.11052 6.11144 2.00168 6.23645C1.80024 6.46804 1.68858 6.76416 1.68701 7.07103C1.68694 7.25572 1.72757 7.43817 1.80601 7.6054C1.88445 7.77263 1.99878 7.92055 2.14087 8.03865L4.28912 9.85295V9.89529L3.63556 12.647C3.61188 12.7501 3.5997 12.8556 3.59926 12.9615C3.5965 13.1299 3.62899 13.2971 3.69464 13.4522C3.76029 13.6074 3.85766 13.7472 3.98049 13.8626C4.18332 14.0611 4.44732 14.1852 4.72965 14.2148C5.01197 14.2445 5.29603 14.1779 5.5357 14.0258L7.95627 12.5442H8.01678L10.3768 14.0258C10.6172 14.1771 10.9016 14.2427 11.184 14.212C11.4663 14.1812 11.7299 14.056 11.932 13.8565C12.0549 13.7411 12.1522 13.6014 12.2179 13.4462C12.2835 13.291 12.316 13.1239 12.3133 12.9554C12.3132 12.8515 12.301 12.748 12.277 12.647L11.5871 9.90134V9.859L13.7354 8.0447C13.8656 7.936 13.9728 7.80233 14.0505 7.65156C14.1283 7.5008 14.175 7.336 14.188 7.1669C14.2009 6.99779 14.1799 6.8278 14.1261 6.66696C14.0722 6.50611 13.9867 6.35767 13.8745 6.2304C13.7657 6.1054 13.6332 6.00311 13.4847 5.92943C13.3362 5.85574 13.1746 5.8121 13.0092 5.80102L10.2074 5.59539L10.159 5.55911L9.09393 2.95861L9.13024 2.96466ZM10.8065 8.92766C10.6664 9.04714 10.5539 9.19548 10.4766 9.3625C10.3993 9.52952 10.3591 9.71127 10.3587 9.89529C10.3584 9.99718 10.3706 10.0987 10.395 10.1977V10.1977L11.0606 12.907V12.9373H11.0122H10.982L8.59772 11.4556C8.3952 11.3328 8.16288 11.2679 7.92601 11.2679C7.68914 11.2679 7.45681 11.3328 7.2543 11.4556L4.93056 12.9977H4.88215V12.9675L5.55386 10.234C5.57823 10.135 5.59042 10.0335 5.59017 9.93157C5.58975 9.74756 5.54952 9.5658 5.47222 9.39878C5.39493 9.23176 5.2824 9.08343 5.14236 8.96395L2.99412 7.14965V7.10731V7.06498H3.03042L5.83827 6.85936C6.07328 6.84162 6.29866 6.75862 6.48899 6.6197C6.67931 6.48079 6.82701 6.29149 6.91542 6.07316L7.9018 3.44242V3.41219H7.97442V3.44242L9.03947 6.04292C9.12788 6.26125 9.27558 6.45055 9.46591 6.58947C9.65623 6.72838 9.88161 6.81139 10.1166 6.82912L12.9245 7.03474H12.9608V7.07707V7.11941L10.8065 8.92766Z" fill="#CBCBCB"/>
</svg>
