<svg width="34" height="34" viewBox="0 0 34 34" fill="none" xmlns="http://www.w3.org/2000/svg">
<path d="M33.6613 10.2003C33.6613 10.2003 33.3293 7.85615 32.3066 6.82686C31.0117 5.47217 29.5641 5.46553 28.9 5.38584C24.1453 5.04053 17.0066 5.04053 17.0066 5.04053H16.9934C16.9934 5.04053 9.85469 5.04053 5.1 5.38584C4.43594 5.46553 2.98828 5.47217 1.69336 6.82686C0.670703 7.85615 0.345312 10.2003 0.345312 10.2003C0.345312 10.2003 0 12.9562 0 15.7054V18.2819C0 21.0312 0.338672 23.787 0.338672 23.787C0.338672 23.787 0.670703 26.1312 1.68672 27.1604C2.98164 28.5151 4.68164 28.4687 5.43867 28.6147C8.16133 28.8737 17 28.9534 17 28.9534C17 28.9534 24.1453 28.9401 28.9 28.6015C29.5641 28.5218 31.0117 28.5151 32.3066 27.1604C33.3293 26.1312 33.6613 23.787 33.6613 23.787C33.6613 23.787 34 21.0378 34 18.2819V15.7054C34 12.9562 33.6613 10.2003 33.6613 10.2003ZM13.4871 21.4097V11.8538L22.6711 16.6483L13.4871 21.4097Z" fill="#B0A1B0"/>
</svg>
