<svg width="18" height="18" viewBox="0 0 18 18" fill="none" xmlns="http://www.w3.org/2000/svg">
<g clip-path="url(#clip0_549_2155)">
<mask id="mask0_549_2155" style="mask-type:luminance" maskUnits="userSpaceOnUse" x="0" y="0" width="18" height="18">
<path d="M0 1.90735e-06H18V18H0V1.90735e-06Z" fill="white" style="fill:white;fill-opacity:1;"/>
</mask>
<g mask="url(#mask0_549_2155)">
<path d="M17.4727 9.77466V5.63308C17.4727 3.91756 16.082 2.52689 14.3665 2.52689H14.0953C13.1336 2.52689 12.18 2.70161 11.2808 3.04256L10.9579 3.16501C9.69644 3.64334 8.30355 3.64334 7.04211 3.16501L6.71917 3.04256C5.82001 2.70161 4.86636 2.52689 3.90473 2.52689H3.63354C1.91802 2.52689 0.527344 3.91756 0.527344 5.63308V9.77466C0.527344 11.4901 1.91802 12.8809 3.63354 12.8809H3.90473C4.86636 12.8809 5.82001 12.7061 6.71917 12.3652L7.04211 12.2427C8.30355 11.7644 9.69644 11.7644 10.9579 12.2427L11.2808 12.3652C12.18 12.7061 13.1336 12.8809 14.0953 12.8809H14.3665C16.082 12.8809 17.4727 11.4901 17.4727 9.77466Z" stroke="#007DA0" style="stroke:#007DA0;stroke:color(display-p3 0.0000 0.4902 0.6275);stroke-opacity:1;" stroke-width="0.6" stroke-miterlimit="10" stroke-linecap="round" stroke-linejoin="round"/>
<path d="M5.40156 12.3758L1.35156 14.3011L2.25156 15.5258L9.45156 11.9258L5.40156 12.3758Z" fill="#007DA0" style="fill:#007DA0;fill:color(display-p3 0.0000 0.4902 0.6275);fill-opacity:1;"/>
<path d="M0.527344 8.22683V12.3684C0.527344 14.0839 1.91802 15.4746 3.63354 15.4746H3.90473C4.86636 15.4746 5.82001 15.2999 6.71917 14.9589L7.04211 14.8365C8.30355 14.3582 9.69644 14.3582 10.9579 14.8365L11.2808 14.9589C12.18 15.2999 13.1336 15.4746 14.0953 15.4746H14.3665C16.082 15.4746 17.4727 14.0839 17.4727 12.3684V8.22683" stroke="#007DA0" style="stroke:#007DA0;stroke:color(display-p3 0.0000 0.4902 0.6275);stroke-opacity:1;" stroke-width="0.6" stroke-miterlimit="10" stroke-linecap="round" stroke-linejoin="round"/>
<path d="M6.15625 9.12695C6.15625 9.70946 5.68403 10.1816 5.10156 10.1816C4.51909 10.1816 4.04688 9.70946 4.04688 9.12695C4.04688 8.54448 4.51909 8.07227 5.10156 8.07227C5.68403 8.07227 6.15625 8.54448 6.15625 9.12695Z" stroke="#E60232" style="stroke:#E60232;stroke:color(display-p3 0.9020 0.0078 0.1961);stroke-opacity:1;" stroke-width="1.2" stroke-miterlimit="10" stroke-linecap="round" stroke-linejoin="round"/>
</g>
</g>
<defs>
<clipPath id="clip0_549_2155">
<rect width="18" height="18" fill="white" style="fill:white;fill-opacity:1;"/>
</clipPath>
</defs>
</svg>
