<svg width="28" height="28" fill="none" xmlns="http://www.w3.org/2000/svg"><g clip-path="url(#clip0)" fill="#124570"><path d="M24.582.545H3.577A2.88 2.88 0 00.692 3.412v20.88a2.88 2.88 0 002.885 2.867h21.005a2.88 2.88 0 002.885-2.868V3.412A2.88 2.88 0 0024.582.545zM3.577 2.105h21.005c.725 0 1.316.586 1.316 1.307v3.814H2.26V3.412c0-.72.59-1.308 1.316-1.308zm21.005 23.494H3.577a1.314 1.314 0 01-1.317-1.308V8.785h23.638v15.506c0 .722-.59 1.308-1.316 1.308z"/><path d="M6.518 5.445a.783.783 0 00.784-.78.783.783 0 00-1.34-.551.783.783 0 00-.229.551.783.783 0 00.785.78zm5.042 0a.783.783 0 00.784-.78.783.783 0 00-1.34-.551.783.783 0 00-.23.551.782.782 0 00.785.78zm5.04 0a.783.783 0 00.784-.78.783.783 0 00-1.34-.551.783.783 0 00-.23.551.783.783 0 00.785.78zm5.04 0a.784.784 0 00.784-.78.783.783 0 00-1.568 0 .782.782 0 00.785.78zm1.681 5.122H4.837a.782.782 0 00-.785.78v11.691c0 .431.352.78.785.78H23.32a.782.782 0 00.785-.78V11.346c0-.43-.351-.78-.785-.78zm-.784 11.692H5.62V12.126h16.916V22.26z"/><path d="M8.197 15.467H19.96a.782.782 0 00.784-.78c0-.43-.35-.78-.784-.78H8.197a.782.782 0 00-.784.78c0 .43.351.78.784.78z"/></g><defs><clipPath id="clip0"><path fill="#fff" transform="translate(.692 .545)" d="M0 0h26.775v26.614H0z"/></clipPath></defs></svg>