<svg width="16" height="14" viewBox="0 0 16 14" fill="none" xmlns="http://www.w3.org/2000/svg">
<path d="M12.6665 8H15.3332V0H12.6665V8ZM9.99984 0H3.99984C3.4465 0 2.97317 0.333333 2.77317 0.813333L0.759837 5.51333C0.699837 5.66667 0.666504 5.82667 0.666504 6V7.33333C0.666504 7.68695 0.80698 8.02609 1.05703 8.27614C1.30708 8.52619 1.64622 8.66667 1.99984 8.66667H6.2065L5.57317 11.7133C5.55984 11.78 5.55317 11.8467 5.55317 11.92C5.55317 12.2 5.6665 12.4467 5.8465 12.6267L6.55317 13.3333L10.9398 8.94C11.1865 8.7 11.3332 8.36667 11.3332 8V1.33333C11.3332 0.593333 10.7332 0 9.99984 0Z" fill="black"/>
</svg>
