<svg xmlns="http://www.w3.org/2000/svg" width="23" height="22" viewBox="0 0 23 22"><g><g><path fill="#fff" d="M18.79 7.698A9.592 9.592 0 0 1 19.91 12.2c0 5.338-4.345 9.678-9.69 9.678-5.344 0-9.69-4.34-9.69-9.678 0-5.338 4.346-9.677 9.69-9.677 2.306 0 4.427.814 6.1 2.17l-.673.764a8.62 8.62 0 0 0-5.437-1.926c-4.783 0-8.67 3.881-8.67 8.66 0 4.776 3.887 8.657 8.67 8.657 4.784 0 8.67-3.881 8.67-8.658a8.664 8.664 0 0 0-.755-3.525c.225-.336.45-.651.663-.967zm-13.291.866c.398 0 .785.131 1.02.355.633.623 3.427 3.678 3.458 3.719l.387.418L21.411.383c.418-.286.897-.468 1.02-.428.06.092.02.47-.102.805-.408.57-3.988 5.613-10.924 16.156-.225.347-.684.388-1.02.367a1.137 1.137 0 0 1-.786-.418c-1.213-1.425-2.753-3.199-3.845-4.462-.581-.671-1.04-1.19-1.254-1.446-.47-.56-.602-1.507-.041-2.026.285-.256.663-.367 1.04-.367z"/></g></g></svg>