<svg xmlns="http://www.w3.org/2000/svg" width="36" height="40" viewBox="0 0 36 40"><g><g><path fill="#005ccb" d="M28.772 1.531c.112 1.418.083 2.536.31 3.6.468 2.205 1.846 3.688 3.998 4.436.225.077.455.145.686.21 2.188.616 2.307.621 2.208 2.918-.491 11.468-5.367 20.403-15.396 26.43-1.892 1.138-3.302 1.18-5.221.038C7.24 34.33 2.269 27.353.529 18.15.09 15.833.174 13.417.003 11.048c-.043-.592.231-.84.789-.948A16.568 16.568 0 0 0 2.7 9.603c2.673-.866 4.264-3.042 4.296-5.841.023-2.022.019-2.042 2.056-2.48C12.302.586 15.57-.24 18.907.068c3.322.307 6.611.967 9.865 1.464zm4.168 12.794c-.151-.753.45-1.55-.709-1.92C28.595 11.248 26.592 8.659 26 4.96c-.098-.61-.28-.881-.937-1.038-4.75-1.137-9.48-1.135-14.228.005-.58.14-.819.32-.911.94-.544 3.665-2.496 6.264-6.07 7.482-.757.259-.944.602-.89 1.319.75 10.213 5.358 18.04 14.407 23.146.473.267.793.183 1.216-.053C27.46 31.818 31.917 24.11 32.94 14.325zM19.036 28.996h-2.13v-1.775c-1.23-.288-2.382-.565-3.539-.82-.713-.157-1.052-.504-.965-1.298.085-.788.018-1.594.018-2.426 1.235.391 2.37.838 3.548 1.093.828.18 1.718.16 2.57.096.284-.02.729-.43.752-.693.025-.28-.292-.737-.577-.875-1.156-.557-2.368-.996-3.538-1.526-1.264-.574-2.328-1.375-2.648-2.829-.535-2.427.535-4.159 2.953-4.798.429-.114.868-.19 1.352-.295l.083-1.318h2.13l.068 1.193c1.42.36 2.796.706 4.246 1.073l-1.228 2.913c-1.352-.272-2.62-.586-3.907-.76-.608-.083-1.481-.195-1.638.668-.14.773.65.978 1.213 1.22 1.07.46 2.188.82 3.229 1.336 1.903.942 2.635 2.267 2.426 4.155-.19 1.726-1.316 3.021-3.285 3.435-.966.203-1.234.601-1.095 1.477.036.225-.02.465-.038.754z"/></g></g></svg>