<svg xmlns="http://www.w3.org/2000/svg" width="21" height="20" viewBox="0 0 21 20"><defs><clipPath id="vvnia"><path fill="#fff" d="M16.851 20l-6.449-3.638-6.529 3.493 1.474-7.244L0 7.494l7.36-.84 3.225-6.656 3.075 6.726L21 7.728l-5.46 4.996z"/></clipPath></defs><g><g><path fill="#fff" d="M16.851 20l-6.449-3.638-6.529 3.493 1.474-7.244L0 7.494l7.36-.84 3.225-6.656 3.075 6.726L21 7.728l-5.46 4.996z"/><path fill="none" stroke="#004eac" stroke-miterlimit="20" stroke-width="2" d="M16.851 20v0l-6.449-3.638v0l-6.529 3.493v0l1.474-7.244v0L0 7.494v0l7.36-.84v0l3.225-6.656v0l3.075 6.726v0L21 7.728v0l-5.46 4.996v0z" clip-path="url(&quot;#vvnia&quot;)"/></g></g></svg>