<svg xmlns="http://www.w3.org/2000/svg" width="59" height="58" viewBox="0 0 59 58"><g><g><path fill="#515151" d="M29.474 57.998h-5.191c-1.73 0-3.46-.003-5.191-.003-1.73 0-3.46.003-5.191.003l-5.191-.003c-1.73 0-3.461.003-5.192.003-.096 0-.193-.001-.29.001-.7.01-1.322-.22-1.879-.624a3.31 3.31 0 0 1-1.144-1.49c-.206-.517-.224-1.05-.191-1.592.03-.485.239-.907.435-1.335.154-.34.296-.684.45-1.024.195-.432.4-.861.596-1.294.144-.32.277-.647.42-.968.207-.458.42-.914.626-1.373.144-.322.278-.65.423-.972.2-.446.41-.89.61-1.336.15-.335.287-.675.437-1.01.194-.435.399-.866.594-1.302.153-.34.294-.687.447-1.029.193-.428.395-.853.587-1.282.155-.348.298-.701.453-1.05.192-.428.39-.853.586-1.281.124-.271.235-.55.375-.813.11-.207.24-.409.39-.59.327-.392.74-.677 1.196-.906.422-.21.839-.431 1.259-.647l1.275-.658c.467-.24.934-.478 1.4-.72.443-.229.883-.463 1.325-.692.412-.214.827-.426 1.24-.639.544-.283 1.087-.568 1.632-.851l1.367-.703c.212-.11.421-.224.635-.332a.697.697 0 0 1 .759.048c.541.368 1.083.737 1.64 1.08.57.353 1.17.647 1.787.91.447.19.9.362 1.36.52a16.242 16.242 0 0 0 2.984.703c.357.046.718.04 1.071.094.668.099 1.337.06 2.005.045.384-.01.766-.083 1.148-.131.212-.028.422-.066.634-.09.488-.054.962-.18 1.44-.29.259-.059.51-.152.765-.233.265-.086.533-.165.793-.266.439-.172.88-.342 1.305-.545.468-.223.927-.466 1.372-.73.452-.267.882-.57 1.32-.86.12-.078.228-.175.35-.249.234-.14.473-.123.712-.002.49.25.983.497 1.474.748.153.08.3.17.452.249.707.37 1.415.74 2.125 1.106.46.238.926.465 1.387.701.512.261 1.021.527 1.53.793.479.25.956.499 1.435.747.326.17.656.334.98.506.428.227.865.44 1.276.693.527.328.902.8 1.157 1.363.267.588.521 1.182.787 1.772.28.618.57 1.23.85 1.849.155.344.293.698.448 1.044.19.422.39.838.581 1.26.148.326.288.658.433.986.165.374.333.747.498 1.12.188.427.371.858.564 1.283.188.416.39.825.577 1.24.155.342.296.687.448 1.029.195.436.398.868.592 1.305.157.354.302.713.46 1.067.151.344.316.681.467 1.025.241.544.297 1.113.244 1.703a2.997 2.997 0 0 1-.356 1.163c-.37.688-.906 1.2-1.644 1.504a3.266 3.266 0 0 1-1.262.25h-9.012a17308.522 17308.522 0 0 1-17.234.002zm-13.23-42.724v-.021c.024-.7.037-1.398.077-2.095.024-.424.09-.845.136-1.266.004-.035.006-.07.011-.103l.158-1.031c.036-.236.067-.474.109-.709.028-.16.067-.32.11-.48.14-.506.267-1.016.43-1.516.145-.45.308-.899.506-1.328.361-.786.771-1.548 1.294-2.242a10.329 10.329 0 0 1 1.646-1.76 10.825 10.825 0 0 1 2.016-1.321 12.246 12.246 0 0 1 1.82-.734c.379-.12.774-.192 1.16-.297.333-.09.674-.13 1.015-.178.615-.09 1.229-.17 1.852-.17.497-.001.995-.027 1.492-.023.4.003.802.02 1.201.054.322.027.64.089.96.136.198.029.397.054.592.092.344.068.69.135 1.03.223.358.093.714.197 1.064.32.314.11.618.25.926.378.54.225 1.037.524 1.524.84a9.61 9.61 0 0 1 1.11.868c.403.355.768.74 1.107 1.156.377.459.71.947 1.01 1.459.25.428.476.87.662 1.33.136.333.267.668.386 1.007.125.355.243.712.345 1.073.08.281.127.57.19.857.029.126.064.25.088.377.078.415.152.832.228 1.248.003.014.006.026.007.04.033.348.07.695.097 1.044.036.464.072.929.09 1.394.023.581.087 1.161.052 1.746-.029.484-.04.97-.082 1.455-.036.416-.09.83-.16 1.242-.056.342-.143.679-.222 1.017-.089.378-.17.757-.279 1.13-.09.306-.21.604-.323.904-.115.304-.235.607-.357.908-.273.676-.62 1.314-1 1.935-.32.522-.666 1.023-1.046 1.505-.564.72-1.19 1.381-1.879 1.981-.514.449-1.055.867-1.642 1.217-.451.269-.902.544-1.395.739-.297.117-.582.269-.884.372-.429.145-.867.263-1.304.383a7.41 7.41 0 0 1-.684.152c-.244.043-.49.08-.736.101-.392.038-.785.07-1.178.083-.248.008-.497-.022-.745-.038-.083-.005-.164-.02-.246-.025a9.467 9.467 0 0 1-1.23-.155 8.216 8.216 0 0 1-1.123-.272 17.05 17.05 0 0 1-1.33-.48c-.383-.16-.757-.347-1.122-.548a13.26 13.26 0 0 1-1.67-1.11c-.55-.42-1.043-.899-1.525-1.39a10.952 10.952 0 0 1-1.137-1.362c-.289-.412-.569-.83-.835-1.257-.175-.28-.327-.577-.476-.873-.205-.407-.402-.82-.592-1.234-.079-.172-.134-.356-.197-.534-.108-.306-.22-.611-.321-.92a10.287 10.287 0 0 1-.191-.672 51.6 51.6 0 0 1-.251-1.054 5.765 5.765 0 0 1-.092-.481c-.038-.271-.065-.544-.1-.815-.057-.436-.064-.876-.109-1.31-.033-.323-.019-.642-.038-.962z"/></g></g></svg>