<svg xmlns="http://www.w3.org/2000/svg" width="25" height="25"><path fill-rule="evenodd" d="M24.999 14.285v3.571h-3.566v-3.571h3.566zm-.031 7.142v3.572h-3.567v-3.572h-3.535v-3.571h3.567v3.571h3.535zm-10.669-7.142h3.536v-3.571h3.566v3.571h-3.535v3.571h-3.567v-3.571zm3.567-7.143V3.57h3.567v3.572h3.535v3.572h-3.567V7.142h-3.535zm-.031 0v3.572h-3.568V7.142h-3.535V3.57h3.567v3.572h3.536zm-7.134 0v3.572H7.134V7.142H3.598V3.57h3.567v3.572h3.536zm-7.103 7.143v3.571H.031v-3.571h3.536v-3.571h3.567v3.571H3.598zm7.103 0v-3.571h3.566v3.571h-3.535v3.571H7.165v-3.571h3.536zm3.598 7.142h3.536v3.572h-3.568v-3.572h-3.535v-3.571h3.567v3.571zm-7.134 0h3.536v3.572H7.134v-3.572H3.598v-3.571h3.567v3.571zM-.001 7.142h3.568v3.572H-.001V7.142zM.031-.001h3.567V3.57H.031V-.001zm7.134 0h3.567V3.57H7.165V-.001zm7.134 0h3.567V3.57h-3.567V-.001zm10.7 0V3.57h-3.566V-.001h3.566zm-21.432 25H-.001v-3.572h3.568v3.572z"/></svg>