<svg width="28" height="26" viewBox="0 0 28 26" fill="none" xmlns="http://www.w3.org/2000/svg">
<path d="M14.4409 22.796C14.4409 22.1624 14.2534 21.5429 13.9022 21.016C13.5509 20.4891 13.0516 20.0785 12.4675 19.836C11.8833 19.5935 11.2405 19.53 10.6204 19.6537C10.0003 19.7773 9.43066 20.0824 8.98357 20.5305C8.53648 20.9786 8.23201 21.5495 8.10866 22.171C7.98531 22.7925 8.04862 23.4367 8.29058 24.0221C8.53254 24.6076 8.94229 25.108 9.46801 25.46C9.99373 25.8121 10.6118 26 11.2441 26C12.0919 26 12.9051 25.6624 13.5046 25.0616C14.1041 24.4607 14.4409 23.6458 14.4409 22.796ZM9.51705 22.796C9.51705 22.4537 9.61834 22.1191 9.80811 21.8344C9.99788 21.5498 10.2676 21.3279 10.5832 21.1969C10.8988 21.0659 11.246 21.0316 11.581 21.0984C11.916 21.1652 12.2238 21.3301 12.4653 21.5721C12.7068 21.8142 12.8713 22.1226 12.9379 22.4584C13.0046 22.7941 12.9704 23.1421 12.8397 23.4584C12.7089 23.7747 12.4876 24.045 12.2036 24.2352C11.9196 24.4254 11.5857 24.5269 11.2441 24.5269C11.0173 24.5269 10.7927 24.4821 10.5832 24.3952C10.3736 24.3082 10.1833 24.1807 10.0229 24.02C9.86252 23.8592 9.7353 23.6684 9.64851 23.4584C9.56172 23.2484 9.51705 23.0233 9.51705 22.796Z" fill="#2C2C2C"/>
<path d="M24.1417 22.796C24.1417 22.1624 23.9543 21.5429 23.603 21.016C23.2517 20.4891 22.7524 20.0785 22.1683 19.836C21.5841 19.5935 20.9413 19.53 20.3212 19.6537C19.7011 19.7773 19.1315 20.0824 18.6844 20.5305C18.2373 20.9786 17.9328 21.5495 17.8095 22.171C17.6861 22.7925 17.7494 23.4367 17.9914 24.0221C18.2334 24.6076 18.6431 25.108 19.1688 25.46C19.6945 25.8121 20.3126 26 20.9449 26C21.3647 26 21.7804 25.9171 22.1683 25.7561C22.5561 25.5951 22.9086 25.3591 23.2054 25.0616C23.5023 24.7641 23.7377 24.4109 23.8984 24.0221C24.0591 23.6334 24.1417 23.2168 24.1417 22.796ZM19.2179 22.796C19.2179 22.4537 19.3191 22.1191 19.5089 21.8344C19.6987 21.5498 19.9684 21.3279 20.284 21.1969C20.5996 21.0659 20.9468 21.0316 21.2818 21.0984C21.6168 21.1652 21.9246 21.3301 22.1661 21.5721C22.4076 21.8142 22.5721 22.1226 22.6387 22.4584C22.7054 22.7941 22.6712 23.1421 22.5405 23.4584C22.4098 23.7747 22.1884 24.045 21.9044 24.2352C21.6204 24.4254 21.2865 24.5269 20.9449 24.5269C20.4869 24.5269 20.0476 24.3446 19.7237 24.02C19.3998 23.6954 19.2179 23.2551 19.2179 22.796Z" fill="#2C2C2C"/>
<path d="M7.2021 4.97166L6.28346 0H0V1.47308H5.07087L8.34121 19.2237H23.7743V17.7507H9.55381L9.11286 15.2832H24.5827L28 4.97166H7.2021ZM23.5171 13.8102H8.85564L7.45932 6.44474H25.979L23.5171 13.8102Z" fill="#2C2C2C"/>
</svg>
