<svg width="34" height="34" viewBox="0 0 34 34" fill="none" xmlns="http://www.w3.org/2000/svg">
<path d="M34 17C34 26.3888 26.3888 34 17 34C7.61116 34 0 26.3888 0 17C0 7.61116 7.61116 0 17 0C26.3888 0 34 7.61116 34 17ZM0.85 17C0.85 25.9194 8.0806 33.15 17 33.15C25.9194 33.15 33.15 25.9194 33.15 17C33.15 8.0806 25.9194 0.85 17 0.85C8.0806 0.85 0.85 8.0806 0.85 17Z" fill="#F1F1F1"/>
<path d="M19.8313 11.3227H21.3833V8.61971C21.1155 8.58287 20.1947 8.5 19.1223 8.5C16.8847 8.5 15.3518 9.90746 15.3518 12.4943V14.875H12.8826V17.8968H15.3518V25.5H18.3792V17.8975H20.7486L21.1247 14.8757H18.3785V12.7939C18.3792 11.9205 18.6144 11.3227 19.8313 11.3227Z" fill="#3B5998"/>
</svg>
