<svg width="34" height="34" viewBox="0 0 34 34" fill="none" xmlns="http://www.w3.org/2000/svg">
<path d="M34 17C34 26.3888 26.3888 34 17 34C7.61116 34 0 26.3888 0 17C0 7.61116 7.61116 0 17 0C26.3888 0 34 7.61116 34 17ZM0.85 17C0.85 25.9194 8.0806 33.15 17 33.15C25.9194 33.15 33.15 25.9194 33.15 17C33.15 8.0806 25.9194 0.85 17 0.85C8.0806 0.85 0.85 8.0806 0.85 17Z" fill="#F1F1F1"/>
<path d="M9.56254 9.65655C8.22662 11.0442 8.50004 12.5182 8.50004 16.9963C8.50004 20.715 7.85121 24.443 11.247 25.3206C12.3073 25.5933 21.7027 25.5933 22.7616 25.3192C24.1755 24.9544 25.3258 23.8076 25.483 21.808C25.505 21.5289 25.505 12.4686 25.4823 12.1839C25.3152 10.0539 24.004 8.82638 22.2764 8.57776C21.8805 8.52038 21.8011 8.50338 19.7696 8.49984C12.5637 8.50338 10.9842 8.18251 9.56254 9.65655Z" fill="url(#paint0_linear)"/>
<path d="M16.9986 10.7236C14.4267 10.7236 11.9843 10.4948 11.0514 12.889C10.6661 13.8778 10.7221 15.162 10.7221 17.0008C10.7221 18.6144 10.6704 20.131 11.0514 21.112C11.9822 23.5076 14.4444 23.2781 16.9972 23.2781C19.4601 23.2781 21.9994 23.5345 22.9437 21.112C23.3297 20.1133 23.273 18.8482 23.273 17.0008C23.273 14.5486 23.4083 12.9655 22.219 11.7769C21.0149 10.5727 19.3864 10.7236 16.9958 10.7236H16.9986ZM16.4362 11.8548C21.8011 11.8463 22.4839 11.2499 22.1071 19.5353C21.9732 22.4656 19.742 22.144 16.9993 22.144C11.9985 22.144 11.8547 22.001 11.8547 16.998C11.8547 11.937 12.2514 11.8576 16.4362 11.8534V11.8548ZM20.349 12.8968C19.9332 12.8968 19.5961 13.2339 19.5961 13.6497C19.5961 14.0655 19.9332 14.4027 20.349 14.4027C20.7648 14.4027 21.102 14.0655 21.102 13.6497C21.102 13.2339 20.7648 12.8968 20.349 12.8968ZM16.9986 13.7772C15.2186 13.7772 13.7757 15.2208 13.7757 17.0008C13.7757 18.7809 15.2186 20.2238 16.9986 20.2238C18.7787 20.2238 20.2208 18.7809 20.2208 17.0008C20.2208 15.2208 18.7787 13.7772 16.9986 13.7772ZM16.9986 14.9084C19.7647 14.9084 19.7682 19.0933 16.9986 19.0933C14.2333 19.0933 14.229 14.9084 16.9986 14.9084Z" fill="white"/>
<defs>
<linearGradient id="paint0_linear" x1="9.59514" y1="24.414" x2="25.3948" y2="10.7396" gradientUnits="userSpaceOnUse">
<stop stop-color="#FFDD55"/>
<stop offset="0.5" stop-color="#FF543E"/>
<stop offset="1" stop-color="#C837AB"/>
</linearGradient>
</defs>
</svg>
