<svg width="30" height="30" viewBox="0 0 30 30" fill="none" xmlns="http://www.w3.org/2000/svg">
<path d="M20.4795 13.5939H23.9063V11.3322C23.4083 11.9362 22.7188 12.4879 21.8551 12.9629C21.4118 13.205 20.9522 13.4159 20.4795 13.5939Z" fill="url(#paint0_linear)"/>
<path d="M15 10.3125C17.33 10.3125 19.2188 9.6829 19.2188 8.90625C19.2188 8.1296 17.33 7.5 15 7.5C12.67 7.5 10.7812 8.1296 10.7812 8.90625C10.7812 9.6829 12.67 10.3125 15 10.3125Z" fill="url(#paint1_linear)"/>
<path d="M8.59682 5.67094C6.98268 6.55875 6.09375 7.70766 6.09375 8.90625C6.09375 10.1048 6.98268 11.2538 8.59682 12.1416C10.2994 13.0781 12.5735 13.5938 15 13.5938C17.4265 13.5938 19.7006 13.0781 21.4032 12.1416C23.0173 11.2538 23.9062 10.1048 23.9062 8.90625C23.9062 7.70766 23.0173 6.55875 21.4032 5.67094C19.7006 4.73437 17.4265 4.21875 15 4.21875C12.5735 4.21875 10.2994 4.73437 8.59682 5.67094ZM20.1562 8.90625C20.1562 9.61178 19.564 10.2371 18.4887 10.6673C17.5492 11.043 16.3103 11.25 15 11.25C13.6897 11.25 12.4508 11.043 11.5113 10.6673C10.436 10.2371 9.84375 9.61178 9.84375 8.90625C9.84375 8.20072 10.436 7.57535 11.5113 7.14521C12.4508 6.76945 13.6897 6.5625 15 6.5625C16.3103 6.5625 17.5492 6.76945 18.4887 7.14521C19.564 7.57535 20.1562 8.20072 20.1562 8.90625Z" fill="url(#paint2_linear)"/>
<path d="M26.25 20.9754V22.0315H25.3125V21.094H23.9062V22.0315H22.9688V21.094H21.5625V23.9065H20.625V21.094H19.2188V22.0315H18.2812V21.094H16.875V22.0315H15.9375V21.094H14.5312V23.9065H13.5938V21.094H12.1875V22.0315H11.25V21.094H9.84375V22.0315H8.90625V21.094H7.5V25.7815H25.3125C26.0582 25.7807 26.773 25.4841 27.3003 24.9568C27.8276 24.4296 28.1241 23.7147 28.125 22.969V19.8204C27.6295 20.3842 26.9764 20.7865 26.25 20.9754Z" fill="url(#paint3_linear)"/>
<path d="M6.5625 21.0938H1.875V25.7812H6.5625V21.0938ZM3.75 24.8438H2.8125V22.0312H3.75V24.8438ZM5.625 24.8438H4.6875V23.9062H5.625V24.8438ZM5.625 22.9688H4.6875V22.0312H5.625V22.9688Z" fill="url(#paint4_linear)"/>
<path d="M26.25 14.6927V15.4689H25.3125V14.5314H23.9062V15.4689H22.9688V14.5314H21.5625V17.3439H20.625V14.5314H19.2188V15.4689H18.2812V14.5314H16.875V15.4689H15.9375V14.5314H15C14.8432 14.5314 14.6869 14.5294 14.5312 14.5252V17.3439H13.5938V14.4754C13.1157 14.4371 12.6459 14.3795 12.1875 14.3029V15.4689H11.25V14.1162C10.7744 14.0066 10.305 13.8716 9.84375 13.7119V15.4689H8.90625V13.3406C8.64281 13.2229 8.38906 13.097 8.145 12.9632C7.28127 12.4882 6.59227 11.9364 6.09375 11.3324V15.4689C6.09375 16.6675 6.98268 17.8165 8.59682 18.7043C10.2994 19.6408 12.5735 20.1565 15 20.1565H25.3125C25.9758 20.1562 26.6176 19.9215 27.1246 19.4939C27.6316 19.0663 27.9712 18.4733 28.0834 17.8196C28.1955 17.1659 28.0731 16.4936 27.7376 15.9214C27.4021 15.3492 26.8752 14.914 26.25 14.6927Z" fill="url(#paint5_linear)"/>
<defs>
<linearGradient id="paint0_linear" x1="20.4795" y1="12.4789" x2="23.9063" y2="12.4789" gradientUnits="userSpaceOnUse">
<stop stop-color="#21A5B5"/>
<stop offset="1" stop-color="#71B2B4"/>
</linearGradient>
<linearGradient id="paint1_linear" x1="10.7812" y1="8.92606" x2="19.2187" y2="8.92606" gradientUnits="userSpaceOnUse">
<stop stop-color="#21A5B5"/>
<stop offset="1" stop-color="#71B2B4"/>
</linearGradient>
<linearGradient id="paint2_linear" x1="6.09375" y1="8.97227" x2="23.9062" y2="8.97227" gradientUnits="userSpaceOnUse">
<stop stop-color="#21A5B5"/>
<stop offset="1" stop-color="#71B2B4"/>
</linearGradient>
<linearGradient id="paint3_linear" x1="7.5" y1="22.843" x2="28.125" y2="22.843" gradientUnits="userSpaceOnUse">
<stop stop-color="#21A5B5"/>
<stop offset="1" stop-color="#71B2B4"/>
</linearGradient>
<linearGradient id="paint4_linear" x1="1.875" y1="23.4705" x2="6.5625" y2="23.4705" gradientUnits="userSpaceOnUse">
<stop stop-color="#21A5B5"/>
<stop offset="1" stop-color="#71B2B4"/>
</linearGradient>
<linearGradient id="paint5_linear" x1="6.09375" y1="15.8066" x2="28.1239" y2="15.8066" gradientUnits="userSpaceOnUse">
<stop stop-color="#21A5B5"/>
<stop offset="1" stop-color="#71B2B4"/>
</linearGradient>
</defs>
</svg>
