<svg width="30" height="30" viewBox="0 0 30 30" fill="none" xmlns="http://www.w3.org/2000/svg">
<g clip-path="url(#clip0)">
<path d="M17.8843 16.7307C15.8165 16.7307 14.1343 18.413 14.1343 20.4807C14.1343 21.5415 14.5778 22.5001 15.2881 23.1828C15.3724 23.2638 15.4603 23.3409 15.5518 23.4138C15.552 23.4139 15.5522 23.414 15.5524 23.4142C15.5978 23.4504 15.6439 23.4855 15.691 23.5195C15.6919 23.5202 15.6928 23.5208 15.6937 23.5215C15.74 23.555 15.787 23.5874 15.8348 23.6188C15.8369 23.6202 15.8391 23.6215 15.8412 23.6229C15.8878 23.6533 15.9351 23.6829 15.9833 23.7113C15.987 23.7134 15.9908 23.7156 15.9946 23.7178C16.0412 23.7451 16.0884 23.7716 16.1363 23.797C16.142 23.8 16.1478 23.8028 16.1535 23.8058C16.1997 23.8299 16.2463 23.8533 16.2936 23.8756C16.3018 23.8794 16.3101 23.883 16.3183 23.8868C16.3635 23.9077 16.4091 23.928 16.4553 23.9472C16.4662 23.9517 16.4773 23.9558 16.4882 23.9602C16.5322 23.9779 16.5763 23.9952 16.6211 24.0113C16.635 24.0163 16.6492 24.0208 16.6632 24.0256C16.7055 24.0402 16.7479 24.0546 16.791 24.0678C16.8082 24.073 16.8258 24.0776 16.8432 24.0826C16.8835 24.0943 16.9238 24.106 16.9646 24.1163C16.9857 24.1217 17.0071 24.1261 17.0284 24.1311C17.0661 24.1399 17.1038 24.149 17.1419 24.1567C17.1672 24.1618 17.193 24.1658 17.2185 24.1704C17.2532 24.1767 17.2878 24.1833 17.3228 24.1887C17.3532 24.1933 17.3839 24.1965 17.4145 24.2004C17.4454 24.2042 17.4759 24.2087 17.5069 24.2118C17.5446 24.2157 17.5828 24.2179 17.6209 24.2206C17.6453 24.2223 17.6696 24.2248 17.6942 24.226C17.7571 24.2292 17.8205 24.2308 17.8842 24.2308C17.9479 24.2308 18.0112 24.2292 18.0741 24.226C18.0988 24.2248 18.123 24.2223 18.1475 24.2206C18.1855 24.2179 18.2237 24.2157 18.2614 24.2118C18.2924 24.2087 18.323 24.2042 18.3538 24.2004C18.3844 24.1965 18.4151 24.1933 18.4455 24.1887C18.4805 24.1833 18.5151 24.1767 18.5498 24.1704C18.5754 24.1658 18.6011 24.1618 18.6264 24.1567C18.6646 24.149 18.7022 24.1399 18.74 24.1311C18.7612 24.1261 18.7827 24.1217 18.8037 24.1163C18.8446 24.106 18.8849 24.0943 18.9252 24.0826C18.9425 24.0776 18.9601 24.073 18.9774 24.0678C19.0204 24.0546 19.0628 24.0402 19.1052 24.0256C19.1191 24.0208 19.1333 24.0163 19.1472 24.0113C19.192 23.9952 19.2361 23.9779 19.2801 23.9602C19.291 23.9558 19.3021 23.9517 19.313 23.9472C19.3592 23.928 19.4048 23.9077 19.45 23.8868C19.4582 23.883 19.4665 23.8795 19.4747 23.8756C19.522 23.8533 19.5687 23.8299 19.6149 23.8058C19.6206 23.8028 19.6264 23.7999 19.632 23.797C19.68 23.7716 19.7271 23.7451 19.7738 23.7178C19.7775 23.7156 19.7813 23.7134 19.7851 23.7113C19.8331 23.6828 19.8804 23.6533 19.9272 23.6229C19.9293 23.6215 19.9314 23.6202 19.9335 23.6188C19.9813 23.5874 20.0284 23.555 20.0746 23.5215C20.0755 23.5209 20.0764 23.5202 20.0773 23.5195C20.1244 23.4855 20.1706 23.4504 20.216 23.4142C20.2161 23.4141 20.2163 23.414 20.2165 23.4138C20.308 23.3409 20.3959 23.2638 20.4802 23.1828C21.1906 22.5001 21.634 21.5415 21.634 20.4807C21.6343 18.413 19.952 16.7307 17.8843 16.7307Z" fill="url(#paint0_linear)"/>
<path d="M24.2307 0H5.76919C5.29127 0 4.90381 0.387462 4.90381 0.865385V25.3846C4.90381 25.8625 5.29127 26.25 5.76919 26.25H13.5577V23.8497C12.8089 22.8948 12.4038 21.724 12.4038 20.4808C12.4038 17.4587 14.8625 15 17.8846 15C20.9067 15 23.3653 17.4587 23.3653 20.4808C23.3653 21.724 22.9603 22.8948 22.2115 23.8497V26.25H24.2307C24.7087 26.25 25.0961 25.8625 25.0961 25.3846V0.865385C25.0961 0.387462 24.7087 0 24.2307 0ZM9.23073 3.75H12.6923C13.1702 3.75 13.5577 4.13746 13.5577 4.61538C13.5577 5.09331 13.1702 5.48077 12.6923 5.48077H9.23073C8.75281 5.48077 8.36535 5.09331 8.36535 4.61538C8.36535 4.13746 8.75281 3.75 9.23073 3.75ZM20.7692 14.1346H17.3077C16.8297 14.1346 16.4423 13.7472 16.4423 13.2692C16.4423 12.7913 16.8297 12.4038 17.3077 12.4038H20.7692C21.2471 12.4038 21.6346 12.7913 21.6346 13.2692C21.6346 13.7472 21.2471 14.1346 20.7692 14.1346ZM20.7692 11.25H9.23073C8.75281 11.25 8.36535 10.8625 8.36535 10.3846C8.36535 9.90669 8.75281 9.51923 9.23073 9.51923H20.7692C21.2471 9.51923 21.6346 9.90669 21.6346 10.3846C21.6346 10.8625 21.2471 11.25 20.7692 11.25ZM20.7692 8.36539H9.23073C8.75281 8.36539 8.36535 7.97792 8.36535 7.5C8.36535 7.02208 8.75281 6.63462 9.23073 6.63462H20.7692C21.2471 6.63462 21.6346 7.02208 21.6346 7.5C21.6346 7.97792 21.2471 8.36539 20.7692 8.36539Z" fill="url(#paint1_linear)"/>
<path d="M15.2886 25.3066V29.1347C15.2886 29.4539 15.4642 29.7471 15.7456 29.8978C16.027 30.0483 16.3685 30.0319 16.634 29.8548L17.8847 29.0209L19.1355 29.8547C19.2803 29.9513 19.4477 30.0001 19.6156 30.0001C19.7556 30.0001 19.8959 29.9662 20.0238 29.8978C20.3052 29.7472 20.4809 29.4539 20.4809 29.1347V25.3066C19.7077 25.7243 18.8234 25.9616 17.8847 25.9616C16.946 25.9616 16.0618 25.7243 15.2886 25.3066Z" fill="url(#paint2_linear)"/>
</g>
<defs>
<linearGradient id="paint0_linear" x1="14.1343" y1="20.5336" x2="21.634" y2="20.5336" gradientUnits="userSpaceOnUse">
<stop stop-color="#21A5B5"/>
<stop offset="1" stop-color="#71B2B4"/>
</linearGradient>
<linearGradient id="paint1_linear" x1="4.90381" y1="13.3099" x2="25.0961" y2="13.3099" gradientUnits="userSpaceOnUse">
<stop stop-color="#21A5B5"/>
<stop offset="1" stop-color="#71B2B4"/>
</linearGradient>
<linearGradient id="paint2_linear" x1="15.2886" y1="27.6864" x2="20.4809" y2="27.6864" gradientUnits="userSpaceOnUse">
<stop stop-color="#21A5B5"/>
<stop offset="1" stop-color="#71B2B4"/>
</linearGradient>
<clipPath id="clip0">
<rect width="30" height="30" fill="white"/>
</clipPath>
</defs>
</svg>
