<svg width="18" height="42" viewBox="0 0 18 42" fill="none" xmlns="http://www.w3.org/2000/svg">
<path d="M9 0.85C4.50592 0.85 0.85 4.50431 0.85 8.99612V17.0043C0.85 21.496 4.50593 25.15 9 25.15C13.4941 25.15 17.15 21.4962 17.15 17.0043V8.99612C17.15 4.5043 13.494 0.85 9 0.85ZM15.9611 17.0043C15.9611 20.8402 12.8383 23.9611 9 23.9611C5.16168 23.9611 2.03888 20.8402 2.03888 17.0043V8.99612C2.03888 5.16025 5.1617 2.03888 9 2.03888C12.8383 2.03888 15.9611 5.16014 15.9611 8.99612V17.0043Z" fill="white" stroke="white" stroke-width="0.3"/>
<path d="M9.59417 4.11124V4.11117C9.59401 3.78271 9.32799 3.51675 8.99967 3.51675C8.67142 3.51675 8.40518 3.78266 8.40518 4.11124V8.13599C8.40518 8.46457 8.67142 8.73049 8.99967 8.73049C9.32792 8.73049 9.59417 8.46457 9.59417 8.13599V4.11124Z" fill="white" stroke="white" stroke-width="0.3"/>
<path d="M8.46967 41.5303C8.76256 41.8232 9.23744 41.8232 9.53033 41.5303L14.3033 36.7574C14.5962 36.4645 14.5962 35.9896 14.3033 35.6967C14.0104 35.4038 13.5355 35.4038 13.2426 35.6967L9 39.9393L4.75736 35.6967C4.46447 35.4038 3.98959 35.4038 3.6967 35.6967C3.40381 35.9896 3.40381 36.4645 3.6967 36.7574L8.46967 41.5303ZM8.25 40L8.25 41L9.75 41L9.75 40L8.25 40Z" fill="white"/>
</svg>
