<svg width="26" height="26" viewBox="0 0 26 26" fill="none" xmlns="http://www.w3.org/2000/svg">
<path d="M17.3446 16.1889C20.8533 12.0419 20.3358 5.83583 16.1889 2.3272C12.042 -1.18143 5.83583 -0.66403 2.3272 3.48289C-1.18143 7.62982 -0.66403 13.8359 3.48289 17.3446C7.14997 20.4473 12.5218 20.4473 16.1889 17.3446L24.8361 26L26 24.8361L17.3446 16.1889ZM9.84485 18.0413C5.31807 18.0413 1.64843 14.3716 1.64843 9.84484C1.64843 5.31807 5.31807 1.64843 9.84485 1.64843C14.3716 1.64843 18.0413 5.31807 18.0413 9.84484C18.0413 14.3716 14.3716 18.0413 9.84485 18.0413Z" fill="#2C2C2C"/>
</svg>
