<svg width="30" height="30" viewBox="0 0 30 30" fill="none" xmlns="http://www.w3.org/2000/svg">
<path d="M25.3125 10.3125C25.3125 4.88438 20.8969 0.46875 15.4688 0.46875H14.5312C9.10313 0.46875 4.6875 4.88438 4.6875 10.3125C4.6875 10.3622 4.70156 10.4077 4.71563 10.4527L4.70953 10.4545L7.96875 20.6981V20.625C7.96875 20.4567 8.05875 20.3016 8.205 20.2181L8.70844 19.9303L5.62828 10.2492C5.66203 8.72766 6.90797 7.5 8.4375 7.5C9.98859 7.5 11.25 8.76141 11.25 10.3125C11.25 10.3495 11.2631 10.3823 11.2711 10.417L11.2622 10.4189L12.9202 17.5238L13.7695 17.0386L12.1898 10.2689C12.2114 8.89781 13.2173 7.76437 14.5312 7.54266V16.6031L14.7675 16.4681C14.9119 16.3856 15.0886 16.3856 15.2325 16.4681L15.4688 16.6031V7.54219C16.7827 7.76391 17.7891 8.89734 17.8102 10.2684L16.2305 17.0381L17.0798 17.5233L18.7378 10.4184L18.7289 10.4166C18.7369 10.3823 18.75 10.3495 18.75 10.3125C18.75 8.76141 20.0114 7.5 21.5625 7.5C23.092 7.5 24.338 8.72766 24.3717 10.2492L21.2916 19.9303L21.795 20.2181C21.9412 20.3016 22.0312 20.4567 22.0312 20.625V20.6981L25.2905 10.4545L25.2844 10.4527C25.2984 10.4077 25.3125 10.3622 25.3125 10.3125Z" fill="url(#paint0_linear)"/>
<path d="M8.90625 25.0405L14.5312 28.2547V24.6467L8.90625 21.4325V25.0405Z" fill="url(#paint1_linear)"/>
<path d="M15.0003 17.4152L9.38281 20.6252L15.0003 23.8352L20.6178 20.6252L15.0003 17.4152Z" fill="url(#paint2_linear)"/>
<path d="M19.6875 24.3748C19.6875 24.5525 19.5872 24.7147 19.4283 24.7944L17.5533 25.7319C17.4872 25.7647 17.4155 25.7811 17.3438 25.7811C17.258 25.7811 17.1727 25.7577 17.0972 25.7112C16.9594 25.6255 16.875 25.475 16.875 25.3123V23.8433L15.4688 24.6467V28.2547L21.0938 25.0405V21.4325L19.6875 22.2359V24.3748Z" fill="url(#paint3_linear)"/>
<path d="M18.75 24.0857V22.7722L17.8125 23.308V24.5544L18.75 24.0857Z" fill="url(#paint4_linear)"/>
<defs>
<linearGradient id="paint0_linear" x1="4.6875" y1="10.7259" x2="25.3125" y2="10.7259" gradientUnits="userSpaceOnUse">
<stop stop-color="#21A5B5"/>
<stop offset="1" stop-color="#71B2B4"/>
</linearGradient>
<linearGradient id="paint1_linear" x1="8.90625" y1="24.8916" x2="14.5312" y2="24.8916" gradientUnits="userSpaceOnUse">
<stop stop-color="#21A5B5"/>
<stop offset="1" stop-color="#71B2B4"/>
</linearGradient>
<linearGradient id="paint2_linear" x1="9.38281" y1="20.6704" x2="20.6178" y2="20.6704" gradientUnits="userSpaceOnUse">
<stop stop-color="#21A5B5"/>
<stop offset="1" stop-color="#71B2B4"/>
</linearGradient>
<linearGradient id="paint3_linear" x1="15.4687" y1="24.8916" x2="21.0937" y2="24.8916" gradientUnits="userSpaceOnUse">
<stop stop-color="#21A5B5"/>
<stop offset="1" stop-color="#71B2B4"/>
</linearGradient>
<linearGradient id="paint4_linear" x1="17.8125" y1="23.6759" x2="18.75" y2="23.6759" gradientUnits="userSpaceOnUse">
<stop stop-color="#21A5B5"/>
<stop offset="1" stop-color="#71B2B4"/>
</linearGradient>
</defs>
</svg>
