<svg width="12" height="12" viewBox="0 0 12 12" fill="none" xmlns="http://www.w3.org/2000/svg">
<path d="M5.81534 0.443986C5.88366 0.279727 6.11634 0.279727 6.18466 0.443986L7.67236 4.02083C7.70116 4.09008 7.76628 4.13739 7.84104 4.14339L11.7025 4.45296C11.8799 4.46718 11.9518 4.68848 11.8167 4.80421L8.87462 7.3244C8.81766 7.37319 8.79278 7.44975 8.81018 7.5227L9.70903 11.2909C9.75031 11.4639 9.56206 11.6007 9.41024 11.508L6.10425 9.48868C6.04025 9.44958 5.95975 9.44958 5.89575 9.48868L2.58976 11.508C2.43794 11.6007 2.24969 11.4639 2.29097 11.2909L3.18982 7.5227C3.20722 7.44975 3.18234 7.37319 3.12538 7.3244L0.183324 4.80421C0.0482165 4.68848 0.120122 4.46718 0.297453 4.45296L4.15896 4.14339C4.23372 4.13739 4.29884 4.09008 4.32764 4.02083L5.81534 0.443986Z" fill="#E3E3E3"/>
</svg>
