<svg width="30" height="30" viewBox="0 0 30 30" fill="none" xmlns="http://www.w3.org/2000/svg">
<g clip-path="url(#clip0)">
<path d="M17.2167 0H12.7835C12.2877 0 11.8857 0.401953 11.8857 0.897773V3.31488H18.1144V0.897773C18.1144 0.401953 17.7125 0 17.2167 0Z" fill="url(#paint0_linear)"/>
<path d="M15.0001 16.4962C14.6573 16.4962 14.3784 16.7751 14.3784 17.1179C14.3784 17.4607 14.6573 17.7395 15.0001 17.7395C15.3429 17.7395 15.6218 17.4607 15.6218 17.1179C15.6218 16.7751 15.3429 16.4962 15.0001 16.4962Z" fill="url(#paint1_linear)"/>
<path d="M21.7939 8.42542H8.20623C7.70613 9.1252 7.41064 9.98067 7.41064 10.9045V28.1618C7.41064 29.1754 8.23529 30.0001 9.24891 30.0001H20.7513C21.7649 30.0001 22.5895 29.1754 22.5895 28.1618V10.9045C22.5895 9.98073 22.294 9.1252 21.7939 8.42542ZM16.9317 13.9167L17.4516 13.3968C17.8022 13.0462 18.3706 13.0462 18.7212 13.3968C19.0719 13.7474 19.0719 14.3158 18.7212 14.6664L18.2013 15.1863C18.026 15.3616 17.7963 15.4493 17.5665 15.4493C17.3368 15.4493 17.107 15.3617 16.9317 15.1863C16.5812 14.8357 16.5812 14.2673 16.9317 13.9167ZM15.0001 19.5352C13.6672 19.5352 12.5829 18.4509 12.5829 17.1181C12.5829 15.7852 13.6672 14.7009 15.0001 14.7009C16.3329 14.7009 17.4172 15.7853 17.4172 17.1181C17.4172 18.4508 16.333 19.5352 15.0001 19.5352ZM15.8978 20.7475V21.4829C15.8978 21.9787 15.4959 22.3806 15.0001 22.3806C14.5042 22.3806 14.1023 21.9787 14.1023 21.4829V20.7475C14.1023 20.2517 14.5042 19.8497 15.0001 19.8497C15.4959 19.8497 15.8978 20.2517 15.8978 20.7475ZM14.1023 12.7532C14.1023 12.2574 14.5042 11.8554 15.0001 11.8554C15.4959 11.8554 15.8978 12.2574 15.8978 12.7532V13.4885C15.8978 13.9843 15.4959 14.3863 15.0001 14.3863C14.5042 14.3863 14.1023 13.9843 14.1023 13.4885V12.7532ZM11.2788 13.3967C11.6294 13.0461 12.1978 13.0461 12.5484 13.3967L13.0683 13.9166C13.419 14.2673 13.419 14.8356 13.0683 15.1863C12.893 15.3616 12.6633 15.4492 12.4335 15.4492C12.2038 15.4492 11.974 15.3616 11.7988 15.1863L11.2789 14.6664C10.9282 14.3158 10.9282 13.7474 11.2788 13.3967ZM9.7374 17.118C9.7374 16.6222 10.1394 16.2202 10.6352 16.2202H11.3705C11.8663 16.2202 12.2682 16.6222 12.2682 17.118C12.2682 17.6138 11.8663 18.0157 11.3705 18.0157H10.6352C10.1394 18.0157 9.7374 17.6138 9.7374 17.118ZM11.2788 19.5696L11.7987 19.0497C12.1493 18.6991 12.7177 18.6991 13.0683 19.0497C13.419 19.4003 13.419 19.9687 13.0683 20.3193L12.5484 20.8392C12.3731 21.0145 12.1434 21.1022 11.9136 21.1022C11.6839 21.1022 11.4541 21.0146 11.2788 20.8392C10.9282 20.4886 10.9282 19.9202 11.2788 19.5696ZM17.8265 25.2403H12.1737C11.6779 25.2403 11.2759 24.8383 11.2759 24.3425C11.2759 23.8467 11.6779 23.4448 12.1737 23.4448H17.8265C18.3223 23.4448 18.7243 23.8467 18.7243 24.3425C18.7243 24.8383 18.3223 25.2403 17.8265 25.2403ZM18.7213 20.8392C18.546 21.0145 18.3162 21.1022 18.0865 21.1022C17.8567 21.1022 17.6269 21.0146 17.4517 20.8392L16.9318 20.3193C16.5812 19.9687 16.5812 19.4003 16.9318 19.0497C17.2823 18.6991 17.8508 18.6991 18.2014 19.0497L18.7213 19.5696C19.0719 19.9202 19.0719 20.4886 18.7213 20.8392ZM19.3649 18.0157H18.6297C18.1338 18.0157 17.7319 17.6138 17.7319 17.118C17.7319 16.6222 18.1338 16.2202 18.6297 16.2202H19.3649C19.8608 16.2202 20.2627 16.6222 20.2627 17.118C20.2627 17.6138 19.8607 18.0157 19.3649 18.0157Z" fill="url(#paint2_linear)"/>
<path d="M19.4402 5.1106H10.5596V6.62999H19.4402V5.1106Z" fill="url(#paint3_linear)"/>
</g>
<defs>
<linearGradient id="paint0_linear" x1="11.8857" y1="1.68079" x2="18.1144" y2="1.68079" gradientUnits="userSpaceOnUse">
<stop stop-color="#21A5B5"/>
<stop offset="1" stop-color="#71B2B4"/>
</linearGradient>
<linearGradient id="paint1_linear" x1="14.3784" y1="17.1266" x2="15.6218" y2="17.1266" gradientUnits="userSpaceOnUse">
<stop stop-color="#21A5B5"/>
<stop offset="1" stop-color="#71B2B4"/>
</linearGradient>
<linearGradient id="paint2_linear" x1="7.41064" y1="19.3647" x2="22.5895" y2="19.3647" gradientUnits="userSpaceOnUse">
<stop stop-color="#21A5B5"/>
<stop offset="1" stop-color="#71B2B4"/>
</linearGradient>
<linearGradient id="paint3_linear" x1="10.5596" y1="5.88099" x2="19.4402" y2="5.88099" gradientUnits="userSpaceOnUse">
<stop stop-color="#21A5B5"/>
<stop offset="1" stop-color="#71B2B4"/>
</linearGradient>
<clipPath id="clip0">
<rect width="30" height="30" fill="white"/>
</clipPath>
</defs>
</svg>
