<svg width="30" height="30" viewBox="0 0 30 30" fill="none" xmlns="http://www.w3.org/2000/svg">
<g clip-path="url(#clip0)">
<path d="M21.7485 17.5647L22.7419 12.9045C25.7187 10.8136 25.3292 6.27243 22.0343 4.72204V0.879048C22.0343 0.41897 21.6795 0.0368214 21.2207 0.00254404C20.7629 -0.0305028 20.3544 0.293696 20.2862 0.748618C19.915 3.22292 18.1957 5.21651 15.879 5.97512V10.6056C15.879 11.091 15.4855 11.4845 15.0001 11.4845C14.5147 11.4845 14.1212 11.091 14.1212 10.6056V5.97512C11.8045 5.21651 10.0851 3.22297 9.71398 0.748618C9.64572 0.293638 9.23837 -0.0313232 8.77947 0.00254404C8.32068 0.0368214 7.96589 0.41897 7.96589 0.879048V4.72198C4.6748 6.27061 4.27818 10.8113 7.2582 12.9044L8.43517 18.4256L6.58384 22.734C12.1204 24.5272 16.2187 17.3771 21.7485 17.5647Z" fill="url(#paint0_linear)"/>
<path d="M21.9564 19.3402C17.288 18.9054 12.9121 26.0865 6.67041 24.5915L12.6667 29.7858C12.8264 29.9242 13.0307 30.0004 13.2421 30.0004H16.7547C16.9662 30.0004 17.1706 29.9241 17.3304 29.7856L23.4827 24.4536C23.7717 24.2032 23.8655 23.7946 23.7149 23.4432L21.9564 19.3402Z" fill="url(#paint1_linear)"/>
</g>
<defs>
<linearGradient id="paint0_linear" x1="5.24219" y1="11.6736" x2="24.7579" y2="11.6736" gradientUnits="userSpaceOnUse">
<stop stop-color="#21A5B5"/>
<stop offset="1" stop-color="#71B2B4"/>
</linearGradient>
<linearGradient id="paint1_linear" x1="6.67041" y1="24.736" x2="23.786" y2="24.736" gradientUnits="userSpaceOnUse">
<stop stop-color="#21A5B5"/>
<stop offset="1" stop-color="#71B2B4"/>
</linearGradient>
<clipPath id="clip0">
<rect width="30" height="30" fill="white"/>
</clipPath>
</defs>
</svg>
