<svg width="34" height="34" viewBox="0 0 34 34" fill="none" xmlns="http://www.w3.org/2000/svg">
<path d="M34 17C34 26.3888 26.3888 34 17 34C7.61116 34 0 26.3888 0 17C0 7.61116 7.61116 0 17 0C26.3888 0 34 7.61116 34 17ZM0.85 17C0.85 25.9194 8.0806 33.15 17 33.15C25.9194 33.15 33.15 25.9194 33.15 17C33.15 8.0806 25.9194 0.85 17 0.85C8.0806 0.85 0.85 8.0806 0.85 17Z" fill="#F1F1F1"/>
<path d="M22.6065 17.7282C22.3316 17.3812 22.4103 17.2267 22.6065 16.9165C22.61 16.913 24.8788 13.7779 25.1125 12.7147L25.114 12.714C25.2301 12.3265 25.114 12.0417 24.5523 12.0417H22.6936C22.2204 12.0417 22.0023 12.2861 21.8854 12.5595C21.8854 12.5595 20.939 14.8248 19.6003 16.2932C19.1682 16.7175 18.9685 16.8535 18.7326 16.8535C18.6164 16.8535 18.4358 16.7175 18.4358 16.33V12.714C18.4358 12.2493 18.3033 12.0417 17.9116 12.0417H14.989C14.6922 12.0417 14.5159 12.2585 14.5159 12.4604C14.5159 12.901 15.1852 13.0022 15.2547 14.2418V16.9314C15.2547 17.5207 15.1477 17.6291 14.9104 17.6291C14.2786 17.6291 12.745 15.3546 11.8363 12.7515C11.6528 12.2465 11.4736 12.0425 10.9969 12.0425H9.1375C8.60696 12.0425 8.5 12.2868 8.5 12.5602C8.5 13.0433 9.13183 15.4453 11.4382 18.6186C12.9753 20.7847 15.1399 21.9584 17.1091 21.9584C18.2927 21.9584 18.4372 21.6977 18.4372 21.2494C18.4372 19.1796 18.3302 18.9841 18.9231 18.9841C19.198 18.9841 19.6711 19.1201 20.7761 20.1649C22.0391 21.4038 22.2466 21.9584 22.9535 21.9584H24.8122C25.342 21.9584 25.6105 21.6977 25.4561 21.1835C25.1026 20.1019 22.7141 17.877 22.6065 17.7282Z" fill="#4C75A3"/>
</svg>
