<svg width="34" height="34" viewBox="0 0 34 34" fill="none" xmlns="http://www.w3.org/2000/svg">
<path d="M34 17C34 26.3888 26.3888 34 17 34C7.61116 34 0 26.3888 0 17C0 7.61116 7.61116 0 17 0C26.3888 0 34 7.61116 34 17ZM0.85 17C0.85 25.9194 8.0806 33.15 17 33.15C25.9194 33.15 33.15 25.9194 33.15 17C33.15 8.0806 25.9194 0.85 17 0.85C8.0806 0.85 0.85 8.0806 0.85 17Z" fill="#F1F1F1"/>
<path d="M23.1148 10.8852C21.5767 9.34704 19.5317 8.5 17.3565 8.5C15.1813 8.5 13.1363 9.34704 11.5981 10.8852C10.06 12.4233 9.21297 14.4683 9.21297 16.6435C9.21297 18.0214 9.56177 19.3754 10.2238 20.5748L8.5 25.5L13.4251 23.7762C14.6245 24.4382 15.9786 24.787 17.3565 24.787C19.5317 24.787 21.5767 23.94 23.1148 22.4018C24.6529 20.8637 25.5 18.8187 25.5 16.6435C25.5 14.4683 24.6529 12.4233 23.1148 10.8852ZM21.3823 19.6687L20.4422 20.6088C19.6634 21.3877 17.4535 20.4406 15.5065 18.4935C13.5594 16.5464 12.6123 14.3367 13.3912 13.5578L14.3313 12.6177C14.526 12.423 14.8417 12.423 15.0364 12.6177L16.2115 13.7929C16.4062 13.9876 16.4062 14.3033 16.2115 14.498L15.5064 15.2031C16.1904 16.647 17.353 17.8096 18.7969 18.4935L19.502 17.7884C19.6967 17.5937 20.0124 17.5937 20.2071 17.7884L21.3823 18.9636C21.577 19.1583 21.577 19.474 21.3823 19.6687Z" fill="#43D854"/>
</svg>
