<svg width="30" height="26" viewBox="0 0 30 26" fill="none" xmlns="http://www.w3.org/2000/svg">
<path d="M29.2398 7.95917L29.2399 7.95927C29.3587 10.4147 28.4285 12.4954 26.6048 14.6748C24.7813 16.8541 22.1281 19.0589 18.859 21.7758L18.7393 21.8753L18.7392 21.8753L18.6846 21.9207C17.5567 22.8582 16.3543 23.8577 15.0916 24.9357L15.0915 24.9357L15 25.0138L14.9085 24.9357L14.9084 24.9356C13.6453 23.8574 12.4427 22.8577 11.3147 21.92L11.2608 21.8752L11.2607 21.8752L11.1415 21.7761C7.87209 19.0591 5.21877 16.8542 3.39516 14.6748C1.57148 12.4954 0.641283 10.4148 0.760148 7.95927L0.760153 7.95917C0.955167 3.91891 4.15437 0.780928 7.90995 0.75H7.90995H7.91007H7.91019H7.9103H7.91042H7.91053H7.91065H7.91077H7.91088H7.911H7.91112H7.91123H7.91135H7.91146H7.91158H7.9117H7.91181H7.91193H7.91205H7.91216H7.91228H7.9124H7.91251H7.91263H7.91275H7.91286H7.91298H7.9131H7.91321H7.91333H7.91345H7.91356H7.91368H7.9138H7.91391H7.91403H7.91415H7.91426H7.91438H7.9145H7.91461H7.91473H7.91485H7.91496H7.91508H7.9152H7.91532H7.91543H7.91555H7.91567H7.91578H7.9159H7.91602H7.91613H7.91625H7.91637H7.91649H7.9166H7.91672H7.91684H7.91695H7.91707H7.91719H7.91731H7.91742H7.91754H7.91766H7.91778H7.91789H7.91801H7.91813H7.91824H7.91836H7.91848H7.9186H7.91871H7.91883H7.91895H7.91907H7.91918H7.9193H7.91942H7.91954H7.91965H7.91977H7.91989H7.92001H7.92012H7.92024H7.92036H7.92048H7.92059H7.92071H7.92083H7.92095H7.92107H7.92118H7.9213H7.92142H7.92154H7.92165H7.92177H7.92189H7.92201H7.92213H7.92224H7.92236H7.92248H7.9226H7.92272H7.92283H7.92295H7.92307H7.92319H7.92331H7.92342H7.92354H7.92366H7.92378H7.92389H7.92401H7.92413H7.92425H7.92437H7.92449H7.9246H7.92472H7.92484H7.92496H7.92508H7.92519H7.92531H7.92543H7.92555H7.92567H7.92579H7.9259H7.92602H7.92614H7.92626H7.92638H7.9265H7.92661H7.92673H7.92685H7.92697H7.92709H7.92721H7.92732H7.92744H7.92756H7.92768H7.9278H7.92792H7.92804H7.92815H7.92827H7.92839H7.92851H7.92863H7.92875H7.92887H7.92898H7.9291H7.92922H7.92934H7.92946H7.92958H7.9297H7.92981H7.92993H7.93005H7.93017H7.93029H7.93041H7.93053H7.93065H7.93076H7.93088H7.931H7.93112H7.93124H7.93136H7.93148H7.9316H7.93172H7.93183H7.93195H7.93207H7.93219H7.93231H7.93243H7.93255H7.93267H7.93279H7.93291H7.93302H7.93314H7.93326H7.93338H7.9335H7.93362H7.93374H7.93386H7.93398H7.9341H7.93422H7.93433H7.93445H7.93457H7.93469H7.93481H7.93493H7.93505H7.93517H7.93529H7.93541H7.93553H7.93565H7.93576H7.93588H7.936H7.93612H7.93624H7.93636H7.93648H7.9366H7.93672H7.93684H7.93696H7.93708H7.9372H7.93732H7.93744H7.93756H7.93767H7.93779H7.93791H7.93803H7.93815H7.93827H7.93839H7.93851H7.93863H7.93875H7.93887H7.93899H7.93911H7.93923H7.93935H7.93947H7.93959H7.93971H7.93983H7.93995H7.94007H7.94019H7.9403H7.94042H7.94054H7.94066H7.94078H7.9409H7.94102H7.94114H7.94126H7.94138H7.9415H7.94162H7.94174H7.94186H7.94198H7.9421H7.94222H7.94234H7.94246H7.94258H7.9427H7.94282H7.94294H7.94306H7.94318H7.9433H7.94342H7.94354H7.94366H7.94378H7.9439H7.94402H7.94414H7.94426H7.94438H7.9445H7.94462H7.94474H7.94486H7.94498H7.9451H7.94522H7.94534H7.94546H7.94558H7.9457H7.94582H7.94594H7.94606H7.94618H7.9463H7.94642H7.94654H7.94666H7.94678H7.9469H7.94702H7.94714H7.94726H7.94738H7.9475H7.94762H7.94774H7.94786H7.94798H7.9481H7.94822H7.94834H7.94846H7.94858H7.9487H7.94882H7.94894H7.94906H7.94918H7.9493H7.94942H7.94954H7.94966H7.94978H7.9499H7.95002H7.95014H7.95026H7.95038H7.9505H7.95062H7.95074H7.95086H7.95099H7.95111H7.95123H7.95135H7.95147H7.95159H7.95171H7.95183H7.95195H7.95207H7.95219H7.95231H7.95243H7.95255H7.95267H7.95279H7.95291H7.95303H7.95315H7.95327H7.95339H7.95351H7.95363H7.95375H7.95388H7.954H7.95412H7.95424H7.95436H7.95448H7.9546H7.95472H7.95484H7.95496H7.95508H7.9552H7.95532H7.95544H7.95556H7.95568H7.9558H7.95592H7.95604H7.95616H7.95628H7.95641H7.95653H7.95665H7.95677H7.95689H7.95701H7.95713H7.95725H7.95737H7.95749H7.95761H7.95773H7.95785H7.95797H7.95809H7.95821H7.95834H7.95846H7.95858H7.9587H7.95882H7.95894H7.95906H7.95918H7.9593H7.95942H7.95954H7.95966H7.95978H7.9599H7.96002H7.96015H7.96027H7.96039H7.96051H7.96063H7.96075H7.96087H7.96099H7.96111H7.96123H7.96135H7.96147H7.96159H7.96171H7.96184H7.96196H7.96208H7.9622H7.96232H7.96244H7.96256H7.96268H7.9628H7.96292H7.96304H7.96316H7.96328H7.96341H7.96353H7.96365H7.96377H7.96389H7.96401H7.96413H7.96425H7.96437H7.96449H7.96461H7.96473H7.96485H7.96498H7.9651H7.96522H7.96534H7.96546H7.96558H7.9657H7.96582H7.96594H7.96606H7.96618H7.9663H7.96643H7.96655H7.96667H7.96679H7.96691H7.96703H7.96715H7.96727H7.96739H7.96751H7.96763H7.96775H7.96788C11.4134 0.75 13.3717 3.2051 14.3407 4.99211L15 6.20794L15.6593 4.99211C16.6284 3.20505 18.5866 0.75 22.0322 0.75H22.0323H22.0324H22.0325H22.0327H22.0328H22.0329H22.033H22.0331H22.0333H22.0334H22.0335H22.0336H22.0338H22.0339H22.034H22.0341H22.0342H22.0344H22.0345H22.0346H22.0347H22.0348H22.035H22.0351H22.0352H22.0353H22.0354H22.0356H22.0357H22.0358H22.0359H22.036H22.0362H22.0363H22.0364H22.0365H22.0366H22.0368H22.0369H22.037H22.0371H22.0372H22.0374H22.0375H22.0376H22.0377H22.0378H22.038H22.0381H22.0382H22.0383H22.0384H22.0386H22.0387H22.0388H22.0389H22.039H22.0392H22.0393H22.0394H22.0395H22.0396H22.0398H22.0399H22.04H22.0401H22.0402H22.0404H22.0405H22.0406H22.0407H22.0408H22.041H22.0411H22.0412H22.0413H22.0414H22.0415H22.0417H22.0418H22.0419H22.042H22.0421H22.0423H22.0424H22.0425H22.0426H22.0427H22.0429H22.043H22.0431H22.0432H22.0433H22.0435H22.0436H22.0437H22.0438H22.0439H22.0441H22.0442H22.0443H22.0444H22.0445H22.0446H22.0448H22.0449H22.045H22.0451H22.0452H22.0454H22.0455H22.0456H22.0457H22.0458H22.046H22.0461H22.0462H22.0463H22.0464H22.0466H22.0467H22.0468H22.0469H22.047H22.0471H22.0473H22.0474H22.0475H22.0476H22.0477H22.0479H22.048H22.0481H22.0482H22.0483H22.0485H22.0486H22.0487H22.0488H22.0489H22.049H22.0492H22.0493H22.0494H22.0495H22.0496H22.0498H22.0499H22.05H22.0501H22.0502H22.0504H22.0505H22.0506H22.0507H22.0508H22.0509H22.0511H22.0512H22.0513H22.0514H22.0515H22.0517H22.0518H22.0519H22.052H22.0521H22.0522H22.0524H22.0525H22.0526H22.0527H22.0528H22.053H22.0531H22.0532H22.0533H22.0534H22.0535H22.0537H22.0538H22.0539H22.054H22.0541H22.0543H22.0544H22.0545H22.0546H22.0547H22.0549H22.055H22.0551H22.0552H22.0553H22.0554H22.0556H22.0557H22.0558H22.0559H22.056H22.0562H22.0563H22.0564H22.0565H22.0566H22.0567H22.0569H22.057H22.0571H22.0572H22.0573H22.0575H22.0576H22.0577H22.0578H22.0579H22.058H22.0582H22.0583H22.0584H22.0585H22.0586H22.0588H22.0589H22.059H22.0591H22.0592H22.0593H22.0595H22.0596H22.0597H22.0598H22.0599H22.0601H22.0602H22.0603H22.0604H22.0605H22.0606H22.0608H22.0609H22.061H22.0611H22.0612H22.0613H22.0615H22.0616H22.0617H22.0618H22.0619H22.0621H22.0622H22.0623H22.0624H22.0625H22.0626H22.0628H22.0629H22.063H22.0631H22.0632H22.0634H22.0635H22.0636H22.0637H22.0638H22.0639H22.0641H22.0642H22.0643H22.0644H22.0645H22.0647H22.0648H22.0649H22.065H22.0651H22.0652H22.0654H22.0655H22.0656H22.0657H22.0658H22.066H22.0661H22.0662H22.0663H22.0664H22.0665H22.0667H22.0668H22.0669H22.067H22.0671H22.0673H22.0674H22.0675H22.0676H22.0677H22.0678H22.068H22.0681H22.0682H22.0683H22.0684H22.0686H22.0687H22.0688H22.0689H22.069H22.0691H22.0693H22.0694H22.0695H22.0696H22.0697H22.0699H22.07H22.0701H22.0702H22.0703H22.0704H22.0706H22.0707H22.0708H22.0709H22.071H22.0712H22.0713H22.0714H22.0715H22.0716H22.0718H22.0719H22.072H22.0721H22.0722H22.0723H22.0725H22.0726H22.0727H22.0728H22.0729H22.0731H22.0732H22.0733H22.0734H22.0735H22.0736H22.0738H22.0739H22.074H22.0741H22.0742H22.0744H22.0745H22.0746H22.0747H22.0748H22.0749H22.0751H22.0752H22.0753H22.0754H22.0755H22.0757H22.0758H22.0759H22.076H22.0761H22.0763H22.0764H22.0765H22.0766H22.0767H22.0768H22.077H22.0771H22.0772H22.0773H22.0774H22.0776H22.0777H22.0778H22.0779H22.078H22.0782H22.0783H22.0784H22.0785H22.0786H22.0787H22.0789H22.079H22.0791H22.0792H22.0793H22.0795H22.0796H22.0797H22.0798H22.0799H22.0801H22.0802H22.0803H22.0804H22.0805H22.0807H22.0808H22.0809H22.081H22.0811H22.0812H22.0814H22.0815H22.0816H22.0817H22.0818H22.082H22.0821H22.0822H22.0823H22.0824H22.0826H22.0827H22.0828H22.0829H22.083H22.0832H22.0833H22.0834H22.0835H22.0836H22.0838H22.0839H22.084H22.0841H22.0842H22.0843H22.0845H22.0846H22.0847H22.0848H22.0849H22.0851H22.0852H22.0853H22.0854H22.0855H22.0857H22.0858H22.0859H22.086H22.0861H22.0863H22.0864H22.0865H22.0866H22.0867H22.0869H22.087H22.0871H22.0872H22.0873H22.0875H22.0876H22.0877H22.0878H22.0879H22.0881H22.0882H22.0883H22.0884H22.0885H22.0887H22.0888H22.0889H22.089H22.0891H22.0893H22.0894H22.0895H22.0896H22.0897H22.0899H22.09H22.0901C25.8457 0.780875 29.0448 3.9189 29.2398 7.95917ZM10.8341 22.4958C11.9628 23.4341 13.1622 24.4311 14.4215 25.5061L0.0110251 7.92301C-0.248595 13.2862 4.09998 16.8998 10.617 22.3154L10.7814 22.452L10.8341 22.4958ZM19.3835 22.3151C25.9002 16.8996 30.2486 13.286 29.989 7.92301L15.5785 25.5061C16.8375 24.4314 18.0366 23.4346 19.1652 22.4965L19.2186 22.4521L19.3835 22.3151Z" stroke="#2C2C2C" stroke-width="1.5"/>
</svg>
