<svg width="34" height="34" viewBox="0 0 34 34" fill="none" xmlns="http://www.w3.org/2000/svg">
<path d="M32.555 7.565C31.6328 5.9245 30.6319 5.62275 28.594 5.508C26.5582 5.36988 21.4391 5.3125 17.0042 5.3125C12.5609 5.3125 7.43962 5.36988 5.406 5.50588C3.37237 5.62275 2.36937 5.92237 1.43862 7.565C0.48875 9.20337 0 12.0254 0 16.9936C0 16.9979 0 17 0 17C0 17.0043 0 17.0064 0 17.0064V17.0106C0 21.9576 0.48875 24.8009 1.43862 26.4223C2.36937 28.0628 3.37025 28.3602 5.40387 28.4984C7.43962 28.6174 12.5609 28.6875 17.0042 28.6875C21.4391 28.6875 26.5582 28.6174 28.5961 28.5005C30.634 28.3624 31.6349 28.0649 32.5571 26.4244C33.5155 24.803 34 21.9597 34 17.0127C34 17.0127 34 17.0064 34 17.0021C34 17.0021 34 16.9979 34 16.9958C34 12.0254 33.5155 9.20337 32.555 7.565ZM12.75 23.375V10.625L23.375 17L12.75 23.375Z" fill="url(#paint0_linear)"/>
<defs>
<linearGradient id="paint0_linear" x1="-8.81889e-08" y1="17.1646" x2="34" y2="17.1646" gradientUnits="userSpaceOnUse">
<stop stop-color="#21A5B5"/>
<stop offset="1" stop-color="#71B2B4"/>
</linearGradient>
</defs>
</svg>
