<svg width="30" height="30" viewBox="0 0 30 30" fill="none" xmlns="http://www.w3.org/2000/svg">
<path d="M21.2822 1.57129L20.2181 3.52176L22.2727 4.75457L21.7903 5.55848L19.7686 4.34535L19.2164 5.35832L21.3352 6.62957L20.8528 7.43348L18.7673 6.18238L18.2152 7.19535L20.3981 8.50504L19.9158 9.30895L17.7661 8.01895L17.2139 9.03191L19.4611 10.38L18.9788 11.1839L16.7648 9.85551L16.1166 11.0438C16.2938 11.2139 16.4063 11.453 16.4063 11.7188V12.6563H16.875C17.6503 12.6563 18.2813 13.2872 18.2813 14.0625V19.6875C18.2813 20.9799 17.2298 22.0313 15.9375 22.0313H17.3438V22.9688H15.4688V23.9063H17.3438V24.8438H15.4688V25.7813H17.3438V26.7188H15.4688V28.5938H21.0938V16.4438C21.0938 15.1144 21.4303 13.7954 22.0669 12.6277L26.5505 4.4077L21.2822 1.57129Z" fill="url(#paint0_linear)"/>
<path d="M13.5938 13.5938H13.125C12.8667 13.5938 12.6562 13.8038 12.6562 14.0625V19.6875C12.6562 20.4628 13.2872 21.0938 14.0625 21.0938H15.9375C16.7128 21.0938 17.3438 20.4628 17.3438 19.6875V14.0625C17.3438 13.8038 17.1333 13.5938 16.875 13.5938H16.4062V15.4688C16.4062 15.9858 15.9858 16.4062 15.4688 16.4062H14.5312C14.0142 16.4062 13.5938 15.9858 13.5938 15.4688V13.5938ZM16.4062 18.2812V19.2188H13.5938V18.2812H16.4062Z" fill="url(#paint1_linear)"/>
<path d="M11.7189 19.6876V14.0626C11.7189 13.2873 12.3499 12.6564 13.1252 12.6564H13.5939V11.7189C13.5939 11.679 13.601 11.6411 13.6056 11.6022L11.9603 12.5893L11.478 11.7854L13.5967 10.5142L13.0445 9.50168L11.0233 10.7143L10.541 9.91043L12.5955 8.67762L12.0433 7.66465L10.0863 8.83887L9.60393 8.03497L11.5942 6.84106L11.042 5.82809L9.14924 6.96387L8.66689 6.15997L10.593 5.0045L10.0408 3.99153L8.21221 5.08887L7.72986 4.28497L9.59174 3.16793L8.72033 1.57043L3.44971 4.40778L7.9333 12.6278C8.56986 13.7954 8.90643 15.1145 8.90643 16.4439V28.5939H14.5314V27.6564H12.6564V26.7189H14.5314V25.7814H12.6564V24.8439H14.5314V23.9064H12.6564V22.9689H14.5314V22.0314H14.0627C12.7703 22.0314 11.7189 20.98 11.7189 19.6876Z" fill="url(#paint2_linear)"/>
<path d="M14.5312 11.7188H15.4692V15.4688H14.5312V11.7188Z" fill="url(#paint3_linear)"/>
<defs>
<linearGradient id="paint0_linear" x1="15.4687" y1="15.2728" x2="26.5505" y2="15.2728" gradientUnits="userSpaceOnUse">
<stop stop-color="#21A5B5"/>
<stop offset="1" stop-color="#71B2B4"/>
</linearGradient>
<linearGradient id="paint1_linear" x1="12.6562" y1="17.3966" x2="17.3437" y2="17.3966" gradientUnits="userSpaceOnUse">
<stop stop-color="#21A5B5"/>
<stop offset="1" stop-color="#71B2B4"/>
</linearGradient>
<linearGradient id="paint2_linear" x1="3.44971" y1="15.2725" x2="14.5314" y2="15.2725" gradientUnits="userSpaceOnUse">
<stop stop-color="#21A5B5"/>
<stop offset="1" stop-color="#71B2B4"/>
</linearGradient>
<linearGradient id="paint3_linear" x1="14.5312" y1="13.6202" x2="15.4692" y2="13.6202" gradientUnits="userSpaceOnUse">
<stop stop-color="#21A5B5"/>
<stop offset="1" stop-color="#71B2B4"/>
</linearGradient>
</defs>
</svg>
