<svg xmlns="http://www.w3.org/2000/svg" width="24" height="26"><path fill-rule="evenodd" d="M23.545 15.706a1.198 1.198 0 01-.586.36c-.223.062-.451.09-.682.09h-1.371v-.155l.001-3.402c0-.168 0-.168.172-.168.424 0 .85-.008 1.274.003.23.005.462.025.681.1.192.066.36.179.495.333.184.21.31.449.377.725.072.301.11.604.086.911-.033.442-.141.859-.447 1.203zm-.314-1.658a1.38 1.38 0 00-.151-.607.738.738 0 00-.182-.216c-.144-.123-.321-.151-.492-.169-.221-.022-.446-.008-.668-.01-.052 0-.075.027-.077.076a3.336 3.336 0 00-.002.1v2.156c0 .151.006.158.151.158.279-.001.561.015.837-.046.193-.042.348-.138.437-.323.1-.207.146-.428.148-.658.001-.154.002-.307-.001-.461zm-3.332-5.421c-.09.002-.139-.032-.187-.107-.234-.357-.474-.709-.713-1.063-.025-.038-.055-.072-.081-.109a.63.63 0 00-.439-.268c-.101-.015-.206-.01-.309-.014-.061-.001-.09.031-.09.092l-.001.087.001 1.21c0 .052-.007.105-.011.163h-.711c-.004-.051-.009-.096-.009-.139l-.002-3.391c0-.171.004-.175.173-.175.446-.001.891-.002 1.337.002.206.003.414.004.618.029.406.049.701.221.847.677.093.293.069.587-.086.862a.926.926 0 01-.533.424c-.084.028-.171.049-.258.073l-.021.033.072.046c.248.16.424.387.58.632.17.265.338.532.506.799.021.035.035.073.059.122-.038.005-.068.011-.099.011-.214.002-.429-.003-.643.004zm-.391-2.32a.513.513 0 00.074-.468c-.055-.17-.157-.266-.327-.286-.199-.023-.4-.036-.6-.054l-.001.014h-.408c-.137 0-.152.013-.153.147-.001.227-.001.456.002.684.001.132.019.146.154.149.338.005.675-.003 1.012-.044a.328.328 0 00.247-.142zm-.353-3.814l-.953.04c-.113.004-.122.011-.123.134l-.001 1.073c0 .033.002.067-.001.1-.007.078-.019.093-.099.094-.169.002-.339.002-.508.002-.112-.001-.12-.009-.121-.123a2330.248 2330.248 0 010-3.405V.222c.065-.004.105-.008.146-.007.5.002.999.001 1.499.009.193.003.387.025.568.099a.883.883 0 01.42.362c.164.264.203.55.166.857a1.062 1.062 0 01-.28.619 1 1 0 01-.713.332zm.086-1.512a.646.646 0 00-.385-.143c-.214-.008-.428-.008-.643-.009-.105-.001-.118.013-.12.124-.002.137 0 .274 0 .411 0 .137-.002.274 0 .411.002.118.021.14.139.136.23-.008.46-.026.691-.033a.486.486 0 00.233-.068c.314-.174.339-.63.085-.829zm-.363 10.321c.158.25.275.523.353.809.076.281.12.569.12.86.002.97.003 1.938 0 2.907a3.062 3.062 0 01-.166 1.014c-.261.744-.725 1.325-1.412 1.718a3.091 3.091 0 01-.77.313 3.686 3.686 0 01-.93.104c-1.172-.004-2.345-.002-3.518-.002h-.175v.16c0 1.035-.003 2.07.002 3.106.001.218-.017.433-.061.642-.075.355-.22.683-.433.983a2.636 2.636 0 01-1.053.861c-.117.056-.248.081-.372.122-.364.119-.739.108-1.113.086a2.174 2.174 0 01-.446-.078 2.539 2.539 0 01-1.684-1.411 2.719 2.719 0 01-.247-1.164c.002-1.044 0-2.087 0-3.131v-.176h-.171c-1.198 0-2.396-.003-3.593.002a3.122 3.122 0 01-2.447-1.09 3.204 3.204 0 01-.446-.676 2.936 2.936 0 01-.253-.761 3.33 3.33 0 01-.059-.631c-.006-.961-.004-1.921-.002-2.881a3.12 3.12 0 011.22-2.509c.273-.208.569-.373.892-.485.172-.06.354-.095.537-.127.304-.051.609-.036.913-.037 1.086-.003 2.172-.001 3.259-.001h.15v-.196c0-2.308.001-4.615-.001-6.923 0-.217.013-.433.057-.643.058-.283.162-.553.313-.799.235-.384.543-.698.938-.918.198-.111.405-.195.625-.255A3.072 3.072 0 019.984.012a2.54 2.54 0 011.361.517c.383.293.667.66.843 1.113.07.181.113.367.151.557.051.252.04.504.04.757l.001 6.723v.15h.147c1.206 0 2.412.002 3.618-.003.24 0 .48.016.713.063.255.053.505.136.741.256.533.267.959.653 1.279 1.157zM7.893 19.195l.001 2.681c0 .183-.001.362.037.545.037.177.095.344.183.495.33.562.832.845 1.475.879.152.009.303-.01.455-.034.335-.052.624-.193.868-.422.359-.336.552-.752.552-1.252v-2.955c0-.032-.006-.065-.01-.102H7.893v.165zM11.366 2.3a1.717 1.717 0 00-.407-.639 1.684 1.684 0 00-1.01-.483 2.287 2.287 0 00-.829.06 1.54 1.54 0 00-.739.444 1.698 1.698 0 00-.488 1.22v6.773c0 .045.005.09.007.143h3.564V5.601l.001-2.644c0-.225-.018-.443-.099-.657zm5.324 9.289a2.956 2.956 0 00-.697-.271 2.253 2.253 0 00-.582-.093c-3.811 0-7.622-.001-11.433.002a2.214 2.214 0 00-.514.058c-.206.051-.41.121-.605.206a2.288 2.288 0 00-1.038.878c-.045.072-.099.145-.109.238.013 0 .02.001.021-.001.022-.024.043-.05.063-.075a1.64 1.64 0 01.957-.565c.208-.045.422-.066.639-.065.834.006 1.668.003 2.502.003 3.365 0 6.73.001 10.095-.001.253 0 .5.033.744.1.305.082.563.239.777.471.025.027.061.044.093.065-.008-.029-.012-.06-.026-.085a2.204 2.204 0 00-.887-.865zm-3.469-5.448H16.3v.756h-3.074c-.012-.248-.004-.495-.005-.756zm.008-4.399c.085-.029 2.84-.042 3.07-.013v.751h-3.07v-.738zm.017 20.773c.021-.004.041-.009.061-.009l2.949.002c.011 0 .023.006.047.013.014.245.004.492.004.748H13.23v-.739l.007-.008c.003-.002.005-.006.009-.007zm4.233-1.633c.161-.002.322 0 .483-.001.08-.001.131.028.177.105.25.423.509.842.766 1.262.199.326.399.65.6.975.019.03.048.054.072.082a.37.37 0 00.029-.013v-2.398c.231-.02.447-.019.668-.003v3.68c-.04.005-.079.013-.118.013-.174.002-.347-.004-.521.004-.078.003-.122-.032-.158-.09-.192-.311-.383-.622-.573-.934-.216-.353-.43-.709-.646-1.063a5.107 5.107 0 00-.132-.206c-.023-.035-.053-.065-.081-.098-.01.005-.02.008-.031.012v2.369h-.642c-.029-.1-.036-3.516-.007-3.679.035-.005.074-.016.114-.017z"/></svg>