<svg xmlns="http://www.w3.org/2000/svg" width="30" height="20" viewBox="0 0 30 20"><g><g><path fill="#005ccb" d="M30 3.207V16.79C30 18.559 28.407 20 26.451 20h-22.9C1.596 20 .005 18.56.005 16.79V3.208c0-1.77 1.59-3.21 3.547-3.21h22.9c1.956 0 3.547 1.44 3.547 3.21zm-.958 0c0-1.292-1.162-2.343-2.59-2.343h-22.9c-1.428 0-2.59 1.05-2.59 2.343V16.79c0 1.291 1.162 2.342 2.59 2.342h22.9c1.428 0 2.59-1.05 2.59-2.342zm-1.982-.144a.406.406 0 0 1 0 .613l-9.77 8.84c-.63.571-1.46.856-2.288.856-.83 0-1.657-.285-2.288-.856l-9.77-8.84a.405.405 0 0 1 0-.613c.188-.17.49-.17.677 0l9.77 8.841c.889.803 2.334.803 3.222 0l9.77-8.841c.187-.17.49-.17.677 0z"/></g></g></svg>