<svg id="Logo_AutoGermania" data-name="Logo AutoGermania" xmlns="http://www.w3.org/2000/svg" width="198" height="47" viewBox="0 0 198 47">
  <defs>
    <style>
      .cls-1, .cls-2 {
        fill: #ffd337;
      }

      .cls-1, .cls-6 {
        fill-rule: evenodd;
      }

      .cls-3 {
        fill: #ff0b00;
      }

      .cls-4 {
        font-size: 37.333px;
        text-anchor: middle;
        font-family: "Script MT Bold";
      }

      .cls-4, .cls-6 {
        fill: #005ccb;
      }

      .cls-5 {
        fill: #060759;
      }
    </style>
  </defs>
  <g id="flag_lines" data-name="flag lines">
    <path id="yellow" class="cls-1" d="M396,48.989H510v6H396v-6Z" transform="translate(-394 -34)"/>
    <rect id="yellow_copy" data-name="yellow copy" class="cls-2" x="2" y="17" width="119" height="3"/>
    <rect id="red" class="cls-3" x="13" y="9" width="63" height="6"/>
    <rect id="red_copy" data-name="red copy" class="cls-3" x="6" y="12" width="100" height="3"/>
    <rect id="black" x="31" y="3" width="41" height="6"/>
    <rect id="black_copy" data-name="black copy" x="21" y="6" width="52" height="3"/>
  </g>
  <text id="AutoGermania" class="cls-4" transform="translate(102.499 38.286) scale(0.848 0.857)">Auto<tspan class="cls-5">Germania</tspan></text>
  <path id="halfcar_icon" data-name="halfcar icon" class="cls-6" d="M395.938,54c-0.627-1.419-1.183-2.659-1.724-3.907a3.405,3.405,0,0,1,.244-2.829c1.085,1.114,2.208.673,3.291,0.145,2.291-1.117,4.529-2.346,6.848-3.4,2.191-.995,4.446-1.853,6.695-2.714q3.216-1.233,6.48-2.34c1.376-.464,2.792-0.816,4.195-1.2,1.184-.324,2.367-0.662,3.566-0.921,1.393-.3,2.8-0.525,4.2-0.783,0.662-.122,1.32-0.262,1.984-0.366,2.082-.327,4.166-0.641,6.248-0.96,0.112-.017.223-0.041,0.334-0.049,1.877-.142,3.753-0.3,5.63-0.42,1.628-.106,3.258-0.2,4.889-0.25,1.094-.032,2.192.016,3.287,0.055,0.9,0.032,1.8.1,2.695,0.159,2.159,0.139,4.33.181,6.472,0.45a8.911,8.911,0,0,1,5.2,2.351c2.409,2.312,4.847,4.6,7.248,6.916a2.045,2.045,0,0,0,1.49.613c3.853,0.094,7.712.123,11.554,0.386,1.906,0.131,3.815.18,5.718,0.327,1.252,0.1,2.493.344,3.739,0.524,0.111,0.016.222,0.034,0.335,0.047,1.337,0.141,2.678.251,4.01,0.431,0.914,0.124,1.815.341,2.72,0.521,0.824,0.163,1.653.309,2.469,0.5,0.9,0.217,1.8.456,2.682,0.731a20.95,20.95,0,0,1,5.341,2.407,5.443,5.443,0,0,1,2.047,2.506,4.989,4.989,0,0,1,.168.953,4.764,4.764,0,0,1-.685-0.421,14.719,14.719,0,0,0-4.592-2.9,20.969,20.969,0,0,0-2.909-.8c-0.951-.23-1.911-0.424-2.872-0.609-0.745-.144-1.494-0.27-2.245-0.369-1.394-.184-2.8-0.3-4.184-0.52-2.453-.387-4.938-0.282-7.4-0.535-0.643-.066-1.29-0.1-1.937-0.124-5.905-.23-11.81-0.412-17.72-0.45-1.938-.013-3.875-0.2-5.811-0.338-1.091-.076-2.183-0.173-3.266-0.326-0.884-.125-1.756-0.34-2.631-0.531-0.573-.125-1.145-0.264-1.708-0.426-0.4-.113-0.778-0.275-1.266-0.452a1.131,1.131,0,0,1,.942-0.218c2.364-.021,4.729,0,7.092-0.059,0.969-.026,1.933-0.227,3.051-0.368-0.285-.507-0.5-0.884-0.708-1.26-0.591-1.05-1.163-2.11-1.777-3.146a7.257,7.257,0,0,0-3.54-2.857,2.326,2.326,0,0,0-.66-0.119,86.641,86.641,0,0,0-11.633-.344c-2.669.05-5.338,0.219-8,.425-1.786.138-3.564,0.413-5.34,0.667-1.328.19-2.653,0.41-3.967,0.68q-2.915.6-5.811,1.289c-2.1.5-4.2,0.994-6.279,1.58s-4.119,1.233-6.149,1.935c-2.7.934-5.4,1.885-8.049,2.945-2.572,1.027-5.086,2.2-7.624,3.31-0.384.168-.76,0.356-1.137,0.542-0.82.4-.876,0.565-0.679,1.455A3.481,3.481,0,0,1,395.938,54Zm118.321,0.984a7.692,7.692,0,0,1-.887-0.046c-0.574-.1-1.139-0.264-1.715-0.35q-2.361-.354-4.729-0.66a2.546,2.546,0,0,1-1.789-.93,16.138,16.138,0,0,0-1.641-1.546l-0.509-.472C506.617,50.966,512.7,53.072,514.259,54.987ZM424.014,44.811c-0.706-.1-1.285-0.16-1.853-0.274a0.576,0.576,0,0,1-.4-0.338,0.6,0.6,0,0,1,.27-0.453,11.116,11.116,0,0,1,3.437-1.586,4.878,4.878,0,0,1-.381.436c-0.286.264-.616,0.485-0.877,0.771C423.725,43.9,423.736,43.935,424.014,44.811Z" transform="translate(-394 -34)"/>
</svg>
