<svg xmlns="http://www.w3.org/2000/svg" width="91" height="91" viewBox="0 0 91 91"><g><g><path fill="#005ccb" d="M70.057 12.011c.194-2.348 1.331-2.763 2.941-2.645 1.263.091 2.538.018 3.877.018.048-.583.107-.994.113-1.407.017-1.244.627-1.857 1.88-1.854 3.419.007 6.837.011 10.255-.003 1.255-.005 1.874.566 1.873 1.835-.006 7.357-.001 14.715-.005 22.074 0 1.6-1.051 1.91-2.367 1.908-4.7-.006-9.401.033-14.1-.026-1.171-.015-1.93.316-2.7 1.248-2.723 3.3-6.07 5.461-10.58 5.395-.677-.01-1.507.486-2.023.995-5.473 5.394-10.896 10.838-16.336 16.266-1.702 1.699-2.371 1.692-4.108-.04-10.765-10.744-21.528-21.49-32.29-32.238-1.657-1.656-1.655-2.309-.006-3.956 6.117-6.109 12.234-12.219 18.354-18.324 1.685-1.681 2.292-1.678 3.974-.004 1.4 1.392 2.849 2.741 4.17 4.205.794.879 1.497 1.076 2.62.605 2.11-.887 4.292-1.6 6.444-2.388 3.903-1.43 7.791-1.3 11.514.464 3.752 1.78 7.369 3.844 11.093 5.687 1.64.81 3.398 1.383 5.407 2.185zm-33.305-2.7c1.803 1.753 3.392 3.171 4.828 4.73 1.306 1.419 2.802 2.323 4.674 2.842 3.233.9 6.4 2.028 9.609 3.016 1.26.388 1.814 1.185 1.407 2.404-.413 1.236-1.435 1.257-2.512.893-.253-.085-.51-.157-.764-.238-4.776-1.51-9.548-3.038-14.331-4.527-1.978-.615-3.675.065-4.494 1.71-.796 1.596-.257 3.463 1.414 4.604.606.414 1.312.715 2.01.955 4.082 1.408 8.191 2.734 12.25 4.2a6.53 6.53 0 0 1 2.56 1.725c4.605 5.187 13.216 4.331 16.516-1.714.194-.354.29-.806.292-1.213.02-4.16 0-8.32.023-12.482.004-.783-.302-.989-1.064-1.226-2.37-.737-4.749-1.526-6.994-2.573-3.427-1.599-6.721-3.481-10.12-5.145-2.32-1.135-4.836-1.49-7.329-.767-2.544.739-5.01 1.749-7.975 2.806zm.404 5.361l-3.73-3.716c-4.42 2.75-8.866 2.653-13.11.121-1.426 1.35-2.737 2.588-4.078 3.855.249.47.477.885.688 1.308 1.803 3.593 1.817 7.21-.103 10.725-.557 1.02-.423 1.527.343 2.283 5.358 5.287 10.669 10.62 15.999 15.935.333.332.695.634 1.076.98 4.42-2.696 8.815-2.697 13.053-.122l3.84-3.756c-.576-2.007-1.803-4.032-1.536-5.836.518-3.502-1.549-4.06-3.976-4.671-.612-.154-1.212-.355-1.893-.557-.179.402-.333.734-.477 1.07-1.913 4.5-6.259 6.981-10.923 6.236-4.717-.753-8.235-4.45-8.58-9.018-.371-4.905 2.366-9.009 7.036-10.589.484-.163 1.11-.337 1.354-.713 1.162-1.794 2.777-2.913 5.017-3.535zM87.449 28.47V9.697h-7c0 6.042-.013 11.944.035 17.844.002.312.505.877.792.888 2.012.078 4.028.041 6.173.041zm-56.116-5.814c-2.752.881-4.574 4.03-4.06 6.88.601 3.33 3.591 5.831 6.768 5.66 3.097-.168 5.734-2.416 6.038-5.307-3.94-1.117-7.813-2.464-8.746-7.233zm45.536 5.732V12.946h-3.174c0 4.649.073 9.168-.039 13.683-.04 1.622.547 2.102 2.02 1.88.36-.054.725-.075 1.193-.121zm-66.685-7.002c1.113 1.228 2.305 2.547 3.54 3.912 1.338-2.53 1.368-5.032-.064-7.592a7070.711 7070.711 0 0 0-3.476 3.68zM37.14 48.787l3.717 3.707 3.708-3.708c-2.126-1.554-5.304-1.55-7.425.001zM26.424 4.139c-.543.713-1.019 1.504-1.655 2.132-.63.62-1.421 1.076-2.222 1.664 2.738 1.957 5.945 1.934 7.9.455L26.424 4.14zm29.69 33.577l-2.838-1.507-.326.233 1.073 3.234c.846-.792 1.407-1.32 2.09-1.96zm3.25 32.196c4.252-1.18 8.29-2.362 12.364-3.403 1.42-.364 2.942-.605 4.393-.519 3.061.183 4.97 2.006 5.866 4.867.917 2.929-.019 5.392-2.27 7.31-.989.841-2.2 1.53-3.426 1.977-9.207 3.365-18.438 6.665-27.671 9.96-3.685 1.313-7.394 1.192-10.912-.454-3.81-1.783-7.477-3.867-11.252-5.728-1.69-.835-3.492-1.445-5.556-2.285-.053 2.645-1.554 2.746-3.235 2.655-1.16-.064-2.326-.013-3.552-.013-.044.616-.093 1.032-.101 1.449-.025 1.242-.684 1.886-1.893 1.894-3.418.025-6.837.023-10.255 0C.66 87.614-.001 87.015 0 85.736c.013-7.359.013-14.718.001-22.077-.003-1.539.929-1.846 2.21-1.842 4.753.013 9.507-.026 14.26.027 1.11.011 1.837-.291 2.564-1.185 5.768-7.103 14.6-7.474 21.096-.99.536.536 1.303.915 2.032 1.17 3.468 1.22 6.94 2.436 10.449 3.527 2.98.925 5.517 2.305 6.751 5.546zm-38.618 8.05c2.858 1.149 5.46 2.05 7.934 3.224 3.466 1.644 6.8 3.565 10.258 5.228 2.753 1.324 5.653 1.467 8.563.42 9.128-3.283 18.264-6.545 27.37-9.887 1.11-.408 2.237-1.085 3.046-1.932 1.58-1.657 1.067-4.38-.993-5.222-.965-.395-2.244-.465-3.262-.208-4.392 1.104-8.747 2.36-13.094 3.632-.51.15-1.08.668-1.294 1.159-1.67 3.81-5.015 5.404-9.018 4.179-2.395-.735-4.776-1.513-7.164-2.27-2.743-.869-5.513-1.668-8.21-2.661-.57-.21-1.19-1.123-1.207-1.73-.016-.52.698-1.283 1.268-1.533.477-.21 1.231.105 1.83.293 4.986 1.557 9.957 3.163 14.949 4.7 1.608.495 3.143-.19 3.972-1.594.782-1.328.666-3.007-.526-4.11a8.04 8.04 0 0 0-2.694-1.622c-4.114-1.471-8.28-2.797-12.392-4.275-.896-.323-1.804-.913-2.431-1.622-4.62-5.224-12.989-4.472-16.526 1.551-.206.35-.36.79-.363 1.188-.025 4.477-.016 8.952-.016 13.092zM3.451 65.339c0 6.06.012 11.912-.013 17.763-.004.864.379 1.106 1.157 1.092 1.387-.025 2.779-.079 4.159.02 1.358.096 1.865-.296 1.84-1.762-.088-5.163-.032-10.33-.038-15.495 0-.514-.053-1.027-.086-1.617H3.451zm13.743 15.424V65.365h-3.052v15.398h3.052z"/></g></g></svg>