<svg xmlns="http://www.w3.org/2000/svg" width="41" height="40" viewBox="0 0 41 40"><g><g><path fill="#005ccb" d="M17.791-.001c.072.017.144.043.217.05.332.029.665.043.996.083.33.04.657.104.984.157.135.022.269.042.402.07.14.029.28.065.42.098l.27.065c.18.043.362.08.54.131.21.059.417.128.624.198.26.087.522.169.776.272.42.17.839.342 1.247.537.393.186.776.394 1.154.606.437.244.855.516 1.266.802.566.394 1.106.82 1.616 1.281.329.298.647.607.953.927.305.321.597.655.878.996.36.439.702.892 1.002 1.374.224.36.443.724.656 1.089.218.374.416.758.584 1.157.171.408.345.815.509 1.226.076.192.13.394.193.591.072.227.146.456.212.685.05.173.091.35.132.526.06.257.118.516.17.775.032.153.05.31.074.466l.098.646.006.04c.02.195.049.389.057.583.022.553.047 1.108.05 1.66.002.358-.024.717-.052 1.074-.019.245-.063.487-.093.731-.026.198-.043.396-.072.594-.024.154-.062.308-.093.462-.024.114-.045.228-.07.342-.066.284-.123.57-.202.852-.098.344-.217.683-.323 1.025-.151.486-.347.955-.556 1.417-.188.414-.396.82-.618 1.217-.248.442-.521.87-.787 1.301-.065.106-.145.202-.216.303-.098.14-.097.143.025.264.276.271.553.542.829.815l2.731 2.69c.924.91 1.85 1.818 2.774 2.727l2.122 2.092c.39.386.78.771 1.164 1.163.176.18.297.398.39.631.056.142.111.283.123.437.002.029.03.055.047.082v.726c-.016.021-.043.04-.047.064-.08.512-.333.93-.71 1.28-.215.198-.46.346-.735.452a2.388 2.388 0 0 1-1.978-.098c-.341-.167-.598-.43-.86-.689-1.07-1.053-2.136-2.109-3.204-3.162a974.507 974.507 0 0 0-2.149-2.112l-3.211-3.151c-.188-.185-.372-.374-.558-.56-.094-.095-.107-.096-.219-.017-.366.259-.73.522-1.1.775-.53.365-1.092.682-1.671.963-.474.23-.958.44-1.443.646-.26.11-.528.202-.797.29-.313.101-.63.195-.947.28-.29.076-.583.135-.874.202-.14.032-.28.07-.422.1-.109.023-.22.041-.33.056-.185.026-.37.048-.555.07a4334.606 4334.606 0 0 1-.862.103c-.432.02-.863.047-1.294.052-.328.003-.656-.024-.985-.037-.117-.005-.235 0-.352-.008-.252-.018-.507-.028-.755-.069-.14-.024-.278-.03-.417-.05-.16-.023-.319-.06-.479-.09-.114-.023-.229-.042-.343-.064-.22-.041-.441-.08-.66-.129-.187-.041-.372-.092-.557-.142-.189-.05-.378-.1-.564-.16a13.67 13.67 0 0 1-.599-.205c-.323-.12-.647-.236-.965-.367a14.418 14.418 0 0 1-1.326-.623 18.957 18.957 0 0 1-1.294-.751 16.384 16.384 0 0 1-1.288-.913 17.74 17.74 0 0 1-1.648-1.476c-.466-.472-.9-.969-1.306-1.489a16.69 16.69 0 0 1-1.215-1.8 18.02 18.02 0 0 1-.798-1.533c-.16-.346-.29-.707-.427-1.063-.1-.259-.198-.519-.283-.784-.074-.226-.13-.46-.19-.691-.072-.274-.147-.545-.208-.819-.058-.268-.1-.539-.148-.808-.035-.197-.066-.394-.099-.591a.563.563 0 0 1-.007-.056c-.025-.333-.04-.667-.078-1-.063-.553-.041-1.107-.034-1.66.004-.326.025-.651.06-.975.038-.37.094-.737.154-1.104.059-.36.124-.723.202-1.08.057-.266.14-.525.212-.788.062-.22.117-.446.191-.664a22.806 22.806 0 0 1 .688-1.734c.208-.469.446-.921.702-1.365.326-.563.682-1.106 1.068-1.63a16.61 16.61 0 0 1 1.668-1.928 11.31 11.31 0 0 1 1.02-.926c.318-.246.628-.501.948-.743.423-.323.873-.604 1.328-.88.564-.34 1.153-.631 1.748-.91.25-.116.51-.21.77-.308a45.11 45.11 0 0 1 1.088-.393c.158-.054.322-.088.483-.132.182-.05.363-.108.546-.154.121-.031.246-.049.369-.074.096-.02.191-.042.287-.06.271-.053.542-.107.814-.155.162-.028.325-.05.488-.065.327-.03.655-.052.982-.082.092-.01.183-.034.274-.052h1.692zM.9 16.839c.036.478.01 1.016.087 1.548.037.248.056.498.087.747.017.134.04.268.065.4.027.14.062.28.091.42.044.213.078.428.131.638.064.25.139.496.216.742.102.327.2.655.319.976.116.314.256.62.387.928.194.458.422.9.669 1.332A15.928 15.928 0 0 0 5.55 27.98c.422.422.86.828 1.335 1.192.34.26.685.515 1.035.762.411.29.844.546 1.286.788.443.241.894.467 1.36.663.33.137.665.262 1 .39.13.05.26.097.394.137.154.046.312.084.467.13.173.05.344.109.518.153.209.052.42.094.63.138.262.054.522.112.785.157.267.045.535.083.805.113.26.029.523.057.784.06.667.008 1.335.003 2.002.002.061 0 .122-.004.183-.01l.85-.097c.19-.023.38-.046.57-.073a5.13 5.13 0 0 0 .346-.06c.151-.031.3-.07.452-.102.2-.044.404-.082.602-.134.241-.064.48-.139.717-.213.262-.08.527-.152.781-.25.493-.188.98-.388 1.455-.616.497-.239.983-.497 1.45-.788.412-.256.808-.54 1.205-.82.471-.335.9-.722 1.302-1.136.594-.61 1.188-1.22 1.733-1.873.124-.15.25-.297.364-.454.154-.212.302-.43.445-.649.264-.406.518-.819.733-1.252.164-.33.33-.661.48-.998.145-.323.275-.653.404-.984.073-.185.132-.375.193-.565.056-.17.108-.342.157-.514.046-.164.086-.33.128-.496.036-.143.073-.286.106-.43.029-.127.052-.255.077-.381.033-.16.071-.319.096-.479.043-.271.083-.543.112-.815.03-.281.056-.565.064-.847.012-.42.015-.838.006-1.258a21.098 21.098 0 0 0-.06-1.072c-.016-.227-.046-.452-.073-.679a5.371 5.371 0 0 0-.056-.385c-.051-.265-.107-.529-.162-.792-.019-.09-.041-.18-.062-.271-.044-.19-.08-.38-.133-.566-.063-.225-.14-.447-.212-.67-.065-.202-.122-.408-.202-.605-.161-.4-.322-.803-.507-1.194a21.816 21.816 0 0 0-.636-1.227 13.782 13.782 0 0 0-1.015-1.55 15.309 15.309 0 0 0-1.337-1.57 15.988 15.988 0 0 0-3.059-2.47c-.656-.41-1.34-.767-2.049-1.08a16.27 16.27 0 0 0-.6-.251c-.184-.07-.372-.134-.56-.197-.22-.076-.44-.152-.664-.219-.253-.077-.51-.146-.766-.215-.107-.03-.216-.05-.325-.072-.132-.027-.264-.05-.396-.076-.15-.03-.3-.066-.451-.091-.19-.031-.38-.056-.57-.077a52.802 52.802 0 0 0-1.008-.105 7.775 7.775 0 0 0-.605-.034c-.362-.004-.724-.009-1.085.007-.427.019-.853.056-1.278.092-.201.017-.401.045-.6.076-.166.025-.33.061-.495.091-.138.025-.276.043-.414.068-.096.017-.19.038-.285.062-.116.03-.231.066-.347.096-.112.029-.227.05-.338.083-.228.068-.455.141-.681.215-.246.08-.494.158-.737.249a11.01 11.01 0 0 0-.663.276c-.31.14-.62.275-.92.433-.368.193-.727.405-1.087.614-.496.287-.962.618-1.413.968-.328.256-.642.529-.955.802a14.73 14.73 0 0 0-1.882 2.01c-.331.42-.639.858-.925 1.31-.304.48-.578.975-.832 1.482-.26.521-.486 1.056-.681 1.603-.144.404-.255.82-.38 1.232-.032.102-.067.201-.092.304-.03.117-.051.234-.075.352-.024.117-.046.236-.069.353-.035.183-.074.364-.105.547-.03.174-.052.349-.074.524-.035.278-.08.554-.098.832-.025.399-.03.8-.044 1.256zm7.393-3.525c.035-.06.071-.12.104-.182.01-.022.015-.048.019-.073.01-.07-.014-.153.076-.193.005-.002.006-.013.008-.02.035-.136.056-.279.11-.407.045-.107.057-.23.109-.32.038-.066.035-.138.07-.19.069-.1.044-.24.148-.32.003 0 .004-.006.004-.009.04-.133.077-.264.118-.394.014-.043.043-.081.057-.124.014-.043.015-.092.03-.135.016-.045.043-.086.064-.13a.268.268 0 0 0 .022-.056c.017-.076-.026-.173.083-.22.011-.004.004-.047.011-.071.019-.055.04-.11.061-.165.009-.023.02-.044.024-.067.01-.057-.008-.122.07-.154.019-.008.019-.065.026-.1.011-.06-.011-.133.075-.158.005 0 .009-.011.01-.018l.1-.367a.27.27 0 0 1 .038-.07c.01-.014.039-.026.037-.034-.028-.135.085-.225.112-.344.02-.09.087-.167.134-.25.008-.014.024-.029.026-.044.018-.103.095-.157.17-.22.048-.04.071-.11.12-.152.088-.075.186-.138.28-.206l.181-.14c.02-.012.044-.018.066-.026.043-.016.11.004.11-.075 0-.005.015-.015.024-.016a.309.309 0 0 0 .18-.077c.074-.066.2-.071.302-.106.039-.013.075-.036.112-.055.02-.011.04-.027.062-.032.061-.012.133.002.166-.072.003-.005.013-.007.02-.009.137-.035.274-.073.412-.105.061-.013.125.002.173-.066.019-.027.093-.016.143-.023.092-.01.195.027.27-.068.014-.018.061-.013.093-.015.149-.007.307.017.444-.026.316-.099.642-.023.953-.083.748-.14 1.5-.066 2.251-.08.755-.012 1.51.011 2.266.02.34.12.702.024 1.04.1.207.045.425.01.611.082.169.064.363.011.49.093.121.078.283.004.368.136.003.005.013.007.02.006.162-.026.286.095.439.109.023.002.044.017.066.027.048.02.093.046.142.061.047.015.112-.007.132.066.003.012.037.015.057.02.046.013.118-.015.118.073 0 .005.01.012.016.012.08-.003.135.063.193.08.175.053.283.184.418.282.087.063.175.127.247.204.052.057.072.143.12.205.066.084.062.2.108.276.084.137.132.279.175.43.028.101.095.19.144.286a.114.114 0 0 1 .01.02c.036.123.07.248.11.37.012.038.041.071.063.107.003.006.013.01.013.015-.005.116.048.21.095.311.052.112.043.257.11.356.058.087.042.213.095.251.125.093.018.264.15.337.012.007.005.042.013.061.02.044.042.089.064.132.003.006.011.013.01.018-.023.145.099.248.113.383.004.043.038.083.058.124.003.005.012.012.011.017-.029.148.102.252.113.39.003.042.04.082.062.123.005.009.016.016.019.025l.1.364c.004.019 0 .048.009.053.102.043.066.14.085.213l.013.058h.268c.262.002.523 0 .784.008.047.001.092.035.138.055.016.005.032.016.049.02.116.026.19.121.286.174.132.072.145.224.252.308.019.015.008.063.018.093.018.05.043.1.064.15.01.026.02.052.026.079.015.073-.01.16.08.21.018.01.008.06.018.09.02.058.045.112.066.17a.224.224 0 0 1 .017.07c.002.105.004.21.002.313-.003.113-.112.2-.204.256-.253.156-.525.047-.786.078-.092.011-.187.002-.3.002.035.105-.023.216.084.29a.042.042 0 0 1 .015.028c.01.186.143.345.11.543-.013.082-.021.175.06.25.028.024.015.095.015.145v3.1c0 1.058.002 2.116 0 3.174 0 .081.032.175-.063.233-.008.005-.012.028-.008.041.032.139-.08.228-.121.341-.016.045-.07.088-.118.11-.134.056-.257.129-.42.126-.813-.01-1.627-.005-2.44-.005-.124 0-.248-.007-.37 0-.207.01-.343-.093-.458-.25a.857.857 0 0 0-.097-.111c-.115-.101-.08-.226-.082-.342-.005-.399-.001-.799-.001-1.198v-.161H11.5c-.002.044 0 .09-.009.135-.009.041-.03.081-.043.123-.01.03-.021.06-.022.09-.002.117-.003.231 0 .347.002.033.02.064.03.097.012.035.033.07.035.107.004.108.005.216 0 .323-.002.039-.032.075-.04.114-.015.07-.04.141-.03.208.018.115-.065.176-.12.242-.077.093-.176.17-.273.243-.033.026-.09.026-.136.026a81.45 81.45 0 0 1-1.024.007c-.657 0-1.314-.005-1.972-.002-.133 0-.223-.063-.307-.15-.078-.08-.16-.154-.235-.237-.02-.024-.023-.068-.025-.103a3.97 3.97 0 0 1-.013-.28v-6.295c0-.17.008-.34.015-.508.003-.071-.012-.152.068-.2.005-.003.005-.013.007-.02l.109-.422c.006-.023.012-.047.024-.067.013-.023.034-.042.051-.063-.029-.009-.058-.026-.088-.026-.272-.002-.545-.004-.817-.002-.173 0-.258-.115-.362-.23-.1-.11-.086-.224-.078-.342.003-.053.042-.104.065-.155.003-.006.01-.011.012-.018.033-.13.063-.26.1-.39.012-.043.042-.08.064-.12.005-.01.02-.016.02-.023-.009-.09.047-.156.079-.233.052-.129.142-.212.235-.302l.149-.147c.005-.005.008-.014.014-.016.11-.033.219-.088.33-.093.28-.014.56-.005.84-.006h.15a.391.391 0 0 0-.011-.03zm15.2.295c-.01-.06-.003-.138-.03-.15-.077-.038-.056-.1-.062-.155-.007-.064.016-.164-.017-.187-.093-.065-.062-.15-.077-.228a.47.47 0 0 0-.023-.08c-.018-.046-.045-.091-.057-.14-.04-.155-.075-.311-.111-.466-.002-.007-.008-.013-.01-.018-.025-.06-.055-.118-.071-.18-.038-.134-.04-.29-.113-.403-.054-.083-.056-.158-.071-.24-.004-.016-.007-.043-.018-.048-.08-.032-.063-.103-.07-.164-.003-.016-.01-.032-.016-.048-.023-.056-.048-.111-.068-.168-.012-.032-.011-.07-.024-.101-.022-.06-.052-.117-.075-.177-.01-.026-.002-.073-.017-.08-.087-.04-.065-.12-.077-.186-.004-.024-.006-.05-.016-.073-.048-.094-.103-.184-.147-.28-.034-.074-.013-.153-.08-.234-.055-.064-.071-.193-.095-.291a.289.289 0 0 0-.147-.19c-.156-.06-.258-.231-.448-.217-.072-.09-.179-.069-.273-.087-.014-.002-.037-.005-.039-.013-.022-.089-.095-.055-.15-.064-.067-.011-.135-.016-.2-.032-.053-.012-.1-.045-.153-.054-.089-.014-.194.007-.267-.032-.113-.06-.227-.05-.344-.059-.104-.008-.223.011-.31-.032-.105-.051-.207-.048-.312-.054-.065-.005-.131 0-.196-.007-.308-.028-.615-.077-.923-.084-.66-.014-1.322-.02-1.982-.006-.66.014-1.321-.063-1.979.07-.217.043-.449.017-.674.025-.072.002-.162-.02-.214.015-.172.108-.359.056-.539.077-.039.004-.092-.009-.116.012-.1.086-.218.062-.332.073-.042.003-.11 0-.122.02-.04.08-.11.053-.169.067-.146.034-.297.058-.432.118-.058.024-.113.057-.177.07-.016.003-.03.017-.044.027-.07.05-.142.1-.211.154-.05.04-.116.076-.141.13-.052.11-.082.23-.12.346-.005.013-.004.032-.013.04-.097.086-.12.213-.15.324-.035.123-.136.226-.117.366.002.01-.026.022-.035.035a.197.197 0 0 0-.034.06l-.1.362c-.002.006-.004.017-.009.019-.088.034-.068.113-.077.18-.004.029-.001.073-.017.081-.096.051-.066.142-.08.217-.004.023 0 .056-.012.063-.125.078-.016.263-.155.334-.005.003 0 .02-.003.031-.018.103.034.225-.088.3-.006.003-.002.02-.004.03-.035.167-.048.342-.112.497-.044.107-.038.23-.09.317-.07.117-.07.233-.085.353-.003.02-.037.037-.04.056-.006.054-.026.138 0 .158.06.046.143.066.219.087.11.033.224.015.34.085.105.064.262.024.398.09.128.062.29.02.442.084.166.067.363.029.55.09.211.07.448.043.676.1.262.065.545.027.82.085.241.05.5.023.75.032.035 0 .07.01.104.02.049.016.096.047.145.049a206.732 206.732 0 0 0 2.582.015c.385-.002.77.006 1.154-.01.377-.017.752.038 1.133-.065.346-.091.721.017 1.082-.091.235-.071.495 0 .744-.09.192-.068.414-.012.62-.098.157-.066.347 0 .52-.088.126-.065.291.002.438-.091.099-.062.246-.014.376-.087.134-.075.31-.078.488-.116zm-12.709 5.043v-.001c.294 0 .588.001.883-.001.037 0 .076-.013.113-.024.05-.015.096-.04.146-.051.11-.023.221.005.331-.082.134-.106.262-.194.256-.384-.003-.1-.003-.2-.007-.302-.001-.055.004-.108-.07-.138-.046-.018-.07-.08-.11-.113a2.853 2.853 0 0 0-.203-.154c-.019-.015-.046-.015-.066-.027-.082-.051-.158-.113-.244-.153-.091-.043-.191-.066-.287-.098-.006-.003-.017-.006-.018-.01-.013-.101-.096-.06-.152-.076-.037-.012-.07-.038-.106-.057-.02-.01-.041-.022-.063-.03l-.292-.1c-.009-.003-.013-.016-.021-.022-.025-.018-.049-.042-.077-.052-.113-.042-.24-.063-.338-.126a.352.352 0 0 0-.181-.065c-.014-.002-.036-.005-.038-.014-.029-.092-.107-.066-.172-.074-.031-.003-.086-.001-.091-.015-.038-.103-.126-.06-.193-.074-.03-.007-.064-.01-.093-.02-.058-.018-.114-.057-.172-.06-.177-.01-.355-.006-.533-.01-.187-.005-.355.026-.485.179-.052.06-.17.26-.17.347-.003.367-.003.734-.003 1.102 0 .027.004.06.018.08.055.081.11.163.175.236.04.045.093.09.148.109.136.04.254.143.41.122.011-.002.025.011.039.015.055.02.11.048.167.054.09.01.181.005.272.009.065.002.155-.015.19.02.083.08.175.056.264.058.258.003.515.002.773.002zm11.834-.001v-.003h.936c.029 0 .072.005.083-.01.07-.095.172-.056.26-.066.1-.012.203-.008.303-.024.079-.012.154-.043.23-.068l.308-.113c.003-.001.005-.005.008-.007.054-.05.116-.094.16-.152.051-.069.135-.112.133-.226-.01-.35.002-.698-.005-1.047-.002-.098.055-.222-.076-.293-.008-.004-.002-.03-.008-.04-.037-.063-.066-.162-.118-.176-.114-.031-.202-.13-.339-.108-.109.02-.226.013-.336-.003-.244-.034-.463.076-.693.115-.072.013-.145.08-.234.078-.006-.002-.01.01-.017.012-.11.05-.218.104-.33.147-.116.046-.25.06-.35.127a.387.387 0 0 1-.186.074c-.01.002-.027.009-.027.013-.007.084-.077.057-.124.07-.02.006-.054.005-.059.016-.031.08-.1.067-.163.074a.246.246 0 0 0-.081.025c-.09.048-.178.103-.27.148-.091.044-.194.07-.278.123-.113.07-.218.156-.315.246-.067.061-.149.136-.163.216-.026.142-.006.292-.005.44 0 .013.003.032.012.039.051.046.108.086.157.132.083.08.232.15.34.16.063.006.126.02.188.034.046.01.09.044.134.044.308.005.617.003.925.003z"/></g></g></svg>