<svg width="173" height="42" viewBox="0 0 173 42" fill="none" xmlns="http://www.w3.org/2000/svg">
<path d="M46.6113 35.3301C46.028 35.3301 45.4082 35.2936 44.752 35.2207L44.5742 32.4453C44.9935 32.4909 45.5267 32.5137 46.1738 32.5137C47.0033 32.5137 47.6686 32.3496 48.1699 32.0215C48.6712 31.6934 49.0859 31.11 49.4141 30.2715C49.4505 30.1803 49.6328 29.6654 49.9609 28.7266L43.918 13.9746H47.7461L51.6973 24.8711C51.9889 23.7865 52.6406 21.7721 53.6523 18.8281C54.6732 15.8841 55.2337 14.2663 55.334 13.9746H59.1621C54.9967 24.985 52.8958 30.5358 52.8594 30.627C52.2122 32.3132 51.3965 33.5163 50.4121 34.2363C49.4277 34.9655 48.1608 35.3301 46.6113 35.3301ZM68.0483 26.5664C69.2605 26.5664 70.172 26.1243 70.7827 25.2402C71.3933 24.3561 71.6987 23.0892 71.6987 21.4395C71.6987 19.7715 71.3933 18.5 70.7827 17.625C70.172 16.75 69.2514 16.3125 68.0209 16.3125C66.8087 16.3125 65.8927 16.7546 65.2729 17.6387C64.6622 18.5137 64.3569 19.7852 64.3569 21.4531C64.3569 23.0938 64.6668 24.3561 65.2866 25.2402C65.9064 26.1243 66.8269 26.5664 68.0483 26.5664ZM67.9526 29.2871C65.7286 29.2871 63.9786 28.5671 62.7026 27.127C61.4265 25.6868 60.7885 23.791 60.7885 21.4395C60.7885 19.015 61.4265 17.1055 62.7026 15.7109C63.9786 14.3073 65.7788 13.6055 68.103 13.6055C70.3452 13.6055 72.0997 14.321 73.3666 15.752C74.6427 17.1738 75.2807 19.0697 75.2807 21.4395C75.2807 23.8366 74.6381 25.7461 73.353 27.168C72.0678 28.5807 70.2677 29.2871 67.9526 29.2871Z" fill="#007CFF"/>
<path d="M78.7666 29V13.9746H81.665L82.0752 15.8887C82.2575 15.6608 82.4306 15.4603 82.5947 15.2871C82.7679 15.1048 83.0003 14.9043 83.292 14.6855C83.5928 14.4577 83.9072 14.2708 84.2353 14.125C84.5726 13.9792 84.9827 13.8561 85.4658 13.7559C85.958 13.6556 86.4821 13.6055 87.0381 13.6055C88.2321 13.6055 89.1846 13.847 89.8955 14.3301C90.6155 14.8132 91.1214 15.3783 91.4131 16.0254C91.9508 15.2507 92.6481 14.6536 93.5049 14.2344C94.3616 13.8151 95.3141 13.6055 96.3623 13.6055C98.0849 13.6055 99.3473 14.0931 100.149 15.0684C100.96 16.0436 101.366 17.4883 101.366 19.4023V29H97.7705V20.4688C97.7705 19.0013 97.6064 17.944 97.2783 17.2969C96.9593 16.6406 96.3441 16.3125 95.4326 16.3125C94.0381 16.3125 93.0355 16.9414 92.4248 18.1992C92.1696 18.7552 91.9964 19.4251 91.9053 20.209V29H88.3232V20.3047C88.3232 18.9648 88.1455 17.9668 87.79 17.3105C87.4346 16.6543 86.792 16.3262 85.8623 16.3262C85.1058 16.3262 84.4541 16.5176 83.9072 16.9004C83.3603 17.2832 82.9456 17.7845 82.6631 18.4043C82.4534 19.3249 82.3486 20.4277 82.3486 21.7129V29H78.7666ZM112.412 29.2871C109.997 29.2871 108.115 28.5944 106.766 27.209C105.426 25.8145 104.756 23.8913 104.756 21.4395C104.756 19.0514 105.39 17.151 106.657 15.7383C107.923 14.3255 109.651 13.6146 111.838 13.6055C113.907 13.6055 115.511 14.2526 116.651 15.5469C117.799 16.8411 118.373 18.5592 118.373 20.7012C118.373 20.8561 118.369 21.1068 118.36 21.4531C118.36 21.7995 118.36 22.0547 118.36 22.2188H108.366C108.402 23.6224 108.785 24.7116 109.514 25.4863C110.252 26.252 111.264 26.6348 112.549 26.6348C114.19 26.6348 115.767 26.2064 117.28 25.3496L117.785 27.8926C116.282 28.8223 114.491 29.2871 112.412 29.2871ZM108.434 19.9629H114.996C114.996 18.7415 114.718 17.8027 114.162 17.1465C113.606 16.4902 112.836 16.1621 111.852 16.1621C110.931 16.1621 110.152 16.4811 109.514 17.1191C108.885 17.7572 108.525 18.7051 108.434 19.9629ZM127.451 29.2871C125.491 29.2871 123.951 28.5671 122.83 27.127C121.709 25.6868 121.148 23.7637 121.148 21.3574C121.148 19.0241 121.704 17.151 122.816 15.7383C123.937 14.3164 125.478 13.6055 127.437 13.6055C129.57 13.6055 131.079 14.362 131.963 15.875C131.872 14.9818 131.826 14.1204 131.826 13.291V8.4375L135.408 8.20508V29H132.304L131.908 26.9492C131.753 27.1953 131.607 27.4095 131.47 27.5918C131.343 27.765 131.151 27.9701 130.896 28.207C130.641 28.4349 130.363 28.6217 130.062 28.7676C129.771 28.9043 129.397 29.0228 128.941 29.123C128.495 29.2324 127.998 29.2871 127.451 29.2871ZM128.299 26.5664C130.705 26.5664 131.926 24.9303 131.963 21.6582C131.963 19.8079 131.653 18.459 131.033 17.6113C130.413 16.7637 129.488 16.3398 128.258 16.3398C127.182 16.3398 126.321 16.7728 125.674 17.6387C125.036 18.4954 124.717 19.7624 124.717 21.4395C124.717 23.1074 125.036 24.3789 125.674 25.2539C126.321 26.1289 127.196 26.5664 128.299 26.5664Z" fill="#006CDF"/>
<path d="M141.177 29.2461C140.585 29.2461 140.083 29.041 139.673 28.6309C139.263 28.2207 139.058 27.7331 139.058 27.168C139.058 26.5938 139.258 26.097 139.659 25.6777C140.07 25.2585 140.575 25.0488 141.177 25.0488C141.76 25.0488 142.252 25.2585 142.654 25.6777C143.055 26.097 143.255 26.5938 143.255 27.168C143.255 27.7331 143.055 28.2207 142.654 28.6309C142.252 29.041 141.76 29.2461 141.177 29.2461ZM146.7 29V13.9746H149.708L150.173 16.2715C151.157 14.6947 152.583 13.9062 154.452 13.9062C154.844 13.9062 155.163 13.9245 155.409 13.9609L155.354 16.9551C154.99 16.9004 154.611 16.873 154.219 16.873C152.898 16.873 151.909 17.2241 151.253 17.9258C150.605 18.6276 150.282 19.603 150.282 20.8517V29H146.7ZM168.998 27.8242C167.804 28.7995 166.232 29.2871 164.281 29.2871C162.331 29.2871 160.759 28.7995 159.565 27.8242C158.38 26.849 157.787 25.418 157.787 23.5312V13.9746H161.383V23.3946C161.383 24.5156 161.615 25.3268 162.08 25.8281C162.554 26.3294 163.302 26.5801 164.322 26.5801C165.325 26.5801 166.054 26.3341 166.51 25.8419C166.975 25.3406 167.207 24.5248 167.207 23.3946V13.9746H170.789V23.5312C170.789 25.4089 170.192 26.8398 168.998 27.8242Z" fill="#00D5E3"/>
<path d="M26.154 5C24.3929 5 22.9647 6.42817 22.9647 8.18927C22.9647 9.95037 21.5365 11.3785 19.7754 11.3785V14.5678H27.4296C29.1907 14.5678 30.6189 13.1396 30.6189 11.3785C32.38 11.3785 33.8082 9.95037 33.8082 8.18927C35.5693 8.18927 36.9974 6.7611 36.9974 5H26.154Z" fill="#007CFF"/>
<path d="M14.0361 8.18927C14.0361 6.42817 12.608 5 10.8469 5H0.00341797C0.00341797 6.7611 1.43159 8.18927 3.19269 8.18927C3.19269 9.95037 4.62087 11.3785 6.38197 11.3785C6.38197 13.1396 7.81014 14.5678 9.57124 14.5678H17.2254V11.3785C15.4636 11.3785 14.0361 9.95037 14.0361 8.18927Z" fill="#007CFF"/>
<path d="M18.5001 5C17.4431 4.9987 16.5853 5.8541 16.584 6.91098C16.5833 7.45759 16.8162 7.97877 17.2244 8.34233V41.3574H19.7758V8.34233C20.5648 7.63941 20.6349 6.43005 19.9314 5.64041C19.5679 5.23219 19.0468 4.99935 18.5001 5Z" fill="#D9D9D9"/>
<path d="M19.7731 28.6006H17.2217V30.5141H19.7731V28.6006Z" fill="#E0E0E0"/>
<path d="M19.7731 35.6167H17.2217V37.5303H19.7731V35.6167Z" fill="#E0E0E0"/>
<path d="M18.5 41.9953C18.4426 42.0016 18.3852 42.0016 18.3278 41.9953C15.6859 41.9953 13.5439 39.8534 13.5439 37.2114C13.5439 34.5695 15.6858 32.4275 18.3278 32.4275H21.6893C22.7462 32.4275 23.6029 31.5709 23.6029 30.514C23.6029 29.457 22.7462 28.6004 21.6893 28.6004H15.3108V25.4111H21.6893C24.5073 25.4111 26.7921 27.6959 26.7921 30.5139C26.7921 33.3319 24.5073 35.6167 21.6893 35.6167H18.9083C17.7104 35.6128 16.737 36.5811 16.7332 37.779C16.7332 37.7835 16.7332 37.7873 16.7332 37.7918C16.7364 38.295 16.9093 38.783 17.2243 39.1759L18.0791 40.222" fill="#00D5E3"/>
<path d="M23.4881 29.8761H26.7476C26.4261 27.3266 24.2593 25.4137 21.6895 25.4111V28.6004C22.4982 28.603 23.2183 29.1133 23.4881 29.8761Z" fill="#6EC1D4"/>
<path d="M10.7822 28.5558C7.90548 28.2018 5.74381 25.7582 5.74316 22.8598C5.74316 19.689 8.31305 17.1191 11.4838 17.1191H12.7595L14.6731 19.0327V20.3084H11.4838C10.0748 20.3084 8.93243 21.4508 8.93243 22.8598C8.93243 24.2688 10.0748 25.4112 11.4838 25.4112H21.6893" fill="#00D5E3"/>
<path d="M25.5163 17.1191H24.2406L22.3271 19.0327V20.3084H25.5163C26.9254 20.3084 28.0677 21.4508 28.0677 22.8598C28.0677 24.2688 26.9254 25.4112 25.5163 25.4112H15.3108C12.4927 25.4182 10.2137 27.7087 10.2207 30.5268C10.2264 32.7898 11.7222 34.7793 13.8947 35.4127C14.634 33.5993 16.4015 32.4179 18.3597 32.4275H15.3108C14.2538 32.4275 13.3972 31.5709 13.3972 30.514C13.3972 29.457 14.2538 28.6004 15.3108 28.6004H25.5163C28.6871 28.6004 31.257 26.0305 31.257 22.8597C31.257 19.689 28.6865 17.1191 25.5163 17.1191Z" fill="#007CFF"/>
<path d="M22.9653 37.2113C22.9666 36.6678 22.8741 36.1282 22.691 35.6167L22.6464 35.521C22.3313 35.5848 22.0111 35.6173 21.6896 35.6167H18.9085C18.7918 35.6103 18.6745 35.6103 18.5577 35.6167C19.318 36.0243 19.7875 36.8209 19.776 37.6833V37.7917C19.7715 38.4315 19.4845 39.0362 18.9914 39.4438L18.0793 40.2092L17.6647 40.5536C17.3247 40.8393 17.2807 41.3459 17.5665 41.6858C17.7036 41.8491 17.8994 41.9511 18.1112 41.9696H18.5003C21.0083 41.8051 22.9601 39.7251 22.9653 37.2113Z" fill="#007CFF"/>
<path d="M19.6292 36.8924H22.9652C22.9415 36.458 22.858 36.0281 22.7164 35.6167L22.6718 35.521C22.3484 35.5867 22.0192 35.6186 21.6895 35.6167H18.9084C18.7917 35.6103 18.6744 35.6103 18.5576 35.6167C19.0615 35.8935 19.4436 36.3483 19.6292 36.8924Z" fill="#3E8CC7"/>
<path d="M32.7557 5.00007C30.9378 10.6131 24.4573 12.7818 19.7754 13.9299V14.5678H27.4296C29.1907 14.5678 30.6189 13.1396 30.6189 11.3785C32.38 11.3785 33.8082 9.95037 33.8082 8.18927C35.5693 8.18927 36.9974 6.7611 36.9974 5H32.7557V5.00007Z" fill="#006CDF"/>
</svg>
