<svg width="12" height="12" viewBox="0 0 12 12" fill="none" xmlns="http://www.w3.org/2000/svg">
<path d="M6.00005 0.799805C3.14438 0.799805 0.800049 2.96923 0.800049 5.65642C0.800049 7.08807 1.48038 8.36008 2.53338 9.24609V11.1993L4.45652 10.2622C4.94532 10.4058 5.45665 10.513 6.00005 10.513C8.85572 10.513 11.2 8.34361 11.2 5.65642C11.2 2.96923 8.85572 0.799805 6.00005 0.799805ZM6.00005 1.64443C8.40895 1.64443 10.3334 3.44603 10.3334 5.65642C10.3334 7.86681 8.40895 9.66841 6.00005 9.66841C5.48222 9.66841 4.98778 9.57254 4.52412 9.41755L4.34818 9.36476L3.40005 9.82678V8.87657L3.23755 8.74438C2.27598 8.00576 1.66672 6.89887 1.66672 5.65642C1.66672 3.44603 3.59115 1.64443 6.00005 1.64443ZM5.51255 4.3236L2.89912 7.01585L5.24172 5.74891L6.48755 7.05555L9.07411 4.32317L6.78525 5.57745L5.51255 4.3236Z" fill="white"/>
</svg>
