<svg width="12" height="12" viewBox="0 0 12 12" fill="none" xmlns="http://www.w3.org/2000/svg">
<path d="M9.39807 4.50143C9.39807 4.57727 9.39807 4.6531 9.39807 4.7181C9.39807 6.9606 7.6864 9.54977 4.5664 9.54977C3.60223 9.54977 2.7139 9.2681 1.95557 8.79143C2.08557 8.80227 2.2264 8.8131 2.3564 8.8131C3.14723 8.8131 3.8839 8.54227 4.4689 8.08727C3.7214 8.07643 3.09307 7.5781 2.88723 6.90643C2.99557 6.9281 3.09307 6.93893 3.21223 6.93893C3.3639 6.93893 3.51557 6.91727 3.6564 6.87393C2.8764 6.72227 2.2914 6.03977 2.2914 5.21643C2.2914 5.2056 2.2914 5.2056 2.2914 5.19477C2.5189 5.32477 2.7789 5.4006 3.06057 5.41143C2.60557 5.1081 2.30223 4.5881 2.30223 3.99227C2.30223 3.6781 2.3889 3.3856 2.52973 3.13643C3.3639 4.1656 4.62057 4.83727 6.0289 4.9131C5.9964 4.79393 5.98557 4.6531 5.98557 4.5231C5.98557 3.5806 6.7439 2.82227 7.6864 2.82227C8.1739 2.82227 8.61807 3.0281 8.9214 3.3531C9.3114 3.27727 9.6689 3.13643 10.0047 2.94143C9.87473 3.34227 9.6039 3.66727 9.25723 3.88393C9.6039 3.8406 9.9289 3.75393 10.2322 3.6131C10.0156 3.95977 9.7339 4.2631 9.39807 4.50143Z" fill="#FAFBFC"/>
</svg>
