<svg width="12" height="12" viewBox="0 0 12 12" fill="none" xmlns="http://www.w3.org/2000/svg">
<path d="M8.16673 6.95315C8.03673 6.90982 7.4734 6.60649 7.3434 6.56315C7.2134 6.51982 7.17006 6.51982 7.0834 6.60649C6.96415 6.77388 6.83386 6.93312 6.6934 7.08315C6.60673 7.16982 6.5634 7.16982 6.4334 7.12649C6.07113 7.00454 5.74396 6.79634 5.48006 6.51982C5.2114 6.29075 4.99053 6.01097 4.83006 5.69649C4.7434 5.56649 4.83006 5.52315 4.8734 5.43649C4.94148 5.37315 4.99988 5.30014 5.04673 5.21982C5.09006 5.13315 5.1334 5.08982 5.17673 5.00315C5.22006 4.91649 5.17673 4.87315 5.17673 4.78649C5.17673 4.69982 4.91673 4.13649 4.78673 3.91982C4.65673 3.70315 4.6134 3.70315 4.52673 3.70315H4.31006C4.19652 3.70822 4.0887 3.75442 4.00673 3.83315C3.86427 3.95606 3.75133 4.10948 3.67631 4.28203C3.60129 4.45458 3.56612 4.64181 3.5734 4.82982C3.61311 5.27281 3.77848 5.69526 4.05006 6.04749C4.54231 6.82736 5.25171 7.44639 6.09106 7.82849C6.3944 7.95849 6.61106 8.00182 6.7844 8.08849C7.02237 8.16481 7.27578 8.17972 7.52106 8.13182C7.85176 8.04353 8.1423 7.84474 8.3444 7.56849C8.39916 7.38561 8.42833 7.19603 8.43106 7.00515C8.34254 7.00591 8.25456 6.99124 8.17106 6.96182L8.16673 6.95315ZM6.00006 9.89982C5.28019 9.90847 4.57258 9.71316 3.95906 9.33649L3.82906 9.24982L2.30806 9.63982L2.7024 8.16649L2.61573 8.03649C2.21961 7.39747 2.00952 6.66065 2.00906 5.90882C2.00821 5.11825 2.24191 4.34519 2.68059 3.6875C3.11928 3.02981 3.74322 2.51704 4.47345 2.21411C5.20367 1.91118 6.00736 1.83169 6.78278 1.98571C7.5582 2.13974 8.2705 2.52034 8.82952 3.07936C9.38854 3.63838 9.76915 4.35068 9.92317 5.1261C10.0772 5.90152 9.99771 6.70521 9.69477 7.43544C9.39184 8.16566 8.87907 8.78961 8.22138 9.22829C7.56369 9.66697 6.79063 9.90068 6.00006 9.89982ZM9.3844 2.56782C8.4745 1.69076 7.26377 1.19468 6.00006 1.18115C4.73586 1.18115 3.52344 1.68335 2.62952 2.57728C1.7356 3.4712 1.2334 4.68362 1.2334 5.94782C1.23319 6.78744 1.45761 7.61183 1.8834 8.33549L1.1814 10.8185L3.7424 10.1685C4.44761 10.5525 5.24053 10.7467 6.0434 10.7318C6.66936 10.7318 7.2892 10.6085 7.86752 10.369C8.44584 10.1294 8.97131 9.77832 9.41394 9.3357C9.85656 8.89307 10.2077 8.3676 10.4472 7.78928C10.6868 7.21096 10.8101 6.59112 10.8101 5.96515C10.7794 4.69577 10.2665 3.48569 9.37573 2.58082" fill="#FAFBFC"/>
</svg>
