<svg width="175" height="52" viewBox="0 0 175 52" fill="none" xmlns="http://www.w3.org/2000/svg">
<path d="M168.519 51.8486H6.49182C2.86242 51.8486 0.0107422 48.997 0.0107422 45.3676V6.48108C0.0107422 2.85167 2.86242 0 6.49182 0H168.519C172.148 0 175 2.85167 175 6.48108V45.3676C175 48.8673 172.148 51.8486 168.519 51.8486Z" fill="black"/>
<path d="M168.519 1.03697C171.5 1.03697 173.963 3.49978 173.963 6.48108V45.3676C173.963 48.3488 171.5 50.8117 168.519 50.8117H6.49182C3.51053 50.8117 1.04772 48.3488 1.04772 45.3676V6.48108C1.04772 3.49978 3.51053 1.03697 6.49182 1.03697H168.519ZM168.519 0H6.49182C2.86242 0 0.0107422 2.85167 0.0107422 6.48108V45.3676C0.0107422 48.997 2.86242 51.8486 6.49182 51.8486H168.519C172.148 51.8486 175 48.997 175 45.3676V6.48108C175 2.9813 172.148 0 168.519 0Z" fill="#A6A6A6"/>
<path d="M61.4536 13.2209C61.4536 14.2578 61.1943 15.1652 60.5462 15.8133C59.7685 16.591 58.8611 16.9799 57.6945 16.9799C56.5279 16.9799 55.6206 16.591 54.8429 15.8133C54.0651 15.0356 53.6763 14.1282 53.6763 12.9616C53.6763 11.795 54.0651 10.8877 54.8429 10.11C55.6206 9.33222 56.5279 8.94336 57.6945 8.94336C58.213 8.94336 58.7315 9.07298 59.25 9.33223C59.7685 9.59147 60.1574 9.85071 60.4166 10.2396L59.7685 10.8877C59.25 10.2396 58.6019 9.98033 57.6945 9.98033C56.9168 9.98033 56.1391 10.2396 55.6206 10.8877C54.9725 11.4062 54.7132 12.1839 54.7132 13.0913C54.7132 13.9986 54.9725 14.7763 55.6206 15.2948C56.2687 15.8133 56.9168 16.2022 57.6945 16.2022C58.6019 16.2022 59.25 15.9429 59.8981 15.2948C60.287 14.906 60.5462 14.3875 60.5462 13.7394H57.6945V12.832H61.4536C61.4536 12.832 61.4536 13.0913 61.4536 13.2209Z" fill="white" stroke="white" stroke-width="0.237461" stroke-miterlimit="10"/>
<path d="M67.4108 9.97962H63.911V12.4424H67.1515V13.3498H63.911V15.8126H67.4108V16.8496H62.874V9.07227H67.4108V9.97962Z" fill="white" stroke="white" stroke-width="0.237461" stroke-miterlimit="10"/>
<path d="M71.6881 16.8496H70.6511V9.97962H68.4475V9.07227H73.8916V9.97962H71.6881V16.8496Z" fill="white" stroke="white" stroke-width="0.237461" stroke-miterlimit="10"/>
<path d="M77.6555 16.8496V9.07227H78.6925V16.8496H77.6555Z" fill="white" stroke="white" stroke-width="0.237461" stroke-miterlimit="10"/>
<path d="M83.0943 16.8496H82.0573V9.97962H79.8538V9.07227H85.1682V9.97962H82.9647V16.8496H83.0943Z" fill="white" stroke="white" stroke-width="0.237461" stroke-miterlimit="10"/>
<path d="M95.4151 15.8133C94.6374 16.591 93.73 16.9799 92.5634 16.9799C91.3968 16.9799 90.4895 16.591 89.7118 15.8133C88.934 15.0356 88.5452 14.1282 88.5452 12.9616C88.5452 11.795 88.934 10.8877 89.7118 10.11C90.4895 9.33222 91.3968 8.94336 92.5634 8.94336C93.73 8.94336 94.6374 9.33222 95.4151 10.11C96.1928 10.8877 96.5817 11.795 96.5817 12.9616C96.5817 14.1282 96.1928 15.0356 95.4151 15.8133ZM90.4895 15.1652C91.008 15.6837 91.7857 16.0725 92.5634 16.0725C93.3412 16.0725 94.1189 15.8133 94.6374 15.1652C95.1559 14.6467 95.5447 13.869 95.5447 12.9616C95.5447 12.0543 95.2855 11.2765 94.6374 10.7581C94.1189 10.2396 93.3412 9.85071 92.5634 9.85071C91.7857 9.85071 91.008 10.11 90.4895 10.7581C89.971 11.2765 89.5821 12.0543 89.5821 12.9616C89.5821 13.869 89.8414 14.6467 90.4895 15.1652Z" fill="white" stroke="white" stroke-width="0.237461" stroke-miterlimit="10"/>
<path d="M98.0027 16.8496V9.07227H99.1693L102.928 15.1645V13.609V9.07227H103.965V16.8496H102.928L98.91 10.4981V12.0536V16.8496H98.0027Z" fill="white" stroke="white" stroke-width="0.237461" stroke-miterlimit="10"/>
<path d="M88.2871 28.2563C85.1762 28.2563 82.7134 30.5895 82.7134 33.83C82.7134 36.9409 85.1762 39.4037 88.2871 39.4037C91.3981 39.4037 93.8609 37.0705 93.8609 33.83C93.8609 30.4598 91.3981 28.2563 88.2871 28.2563ZM88.2871 37.0705C86.6021 37.0705 85.1762 35.6447 85.1762 33.7004C85.1762 31.7561 86.6021 30.3302 88.2871 30.3302C89.9722 30.3302 91.3981 31.6264 91.3981 33.7004C91.3981 35.6447 89.9722 37.0705 88.2871 37.0705ZM76.2323 28.2563C73.1214 28.2563 70.6586 30.5895 70.6586 33.83C70.6586 36.9409 73.1214 39.4037 76.2323 39.4037C79.3433 39.4037 81.8061 37.0705 81.8061 33.83C81.8061 30.4598 79.3433 28.2563 76.2323 28.2563ZM76.2323 37.0705C74.5473 37.0705 73.1214 35.6447 73.1214 33.7004C73.1214 31.7561 74.5473 30.3302 76.2323 30.3302C77.9174 30.3302 79.3432 31.6264 79.3432 33.7004C79.3432 35.6447 77.9174 37.0705 76.2323 37.0705ZM61.8443 29.9414V32.2746H67.4181C67.2884 33.5708 66.77 34.6077 66.1218 35.2558C65.3441 36.0336 64.0479 36.9409 61.8443 36.9409C58.3446 36.9409 55.7521 34.2189 55.7521 30.7191C55.7521 27.2193 58.4742 24.4973 61.8443 24.4973C63.659 24.4973 65.0849 25.275 66.1218 26.1823L67.8069 24.4973C66.3811 23.201 64.5664 22.1641 61.974 22.1641C57.3076 22.1641 53.2893 26.0527 53.2893 30.7191C53.2893 35.3855 57.3076 39.2741 61.974 39.2741C64.5664 39.2741 66.3811 38.4964 67.9366 36.8113C69.492 35.2558 70.0105 33.0523 70.0105 31.3672C70.0105 30.8487 70.0105 30.3302 69.8809 29.9414H61.8443ZM120.693 31.7561C120.174 30.4598 118.878 28.2563 116.026 28.2563C113.174 28.2563 110.841 30.4598 110.841 33.83C110.841 36.9409 113.174 39.4037 116.285 39.4037C118.748 39.4037 120.304 37.8483 120.822 36.9409L119.007 35.6447C118.359 36.5521 117.582 37.2002 116.285 37.2002C114.989 37.2002 114.211 36.6817 113.563 35.5151L120.952 32.4042L120.693 31.7561ZM113.174 33.5708C113.174 31.4968 114.86 30.3302 116.026 30.3302C116.934 30.3302 117.841 30.8487 118.1 31.4968L113.174 33.5708ZM107.082 38.8853H109.545V22.6825H107.082V38.8853ZM103.194 29.4229C102.546 28.7748 101.509 28.1267 100.212 28.1267C97.4903 28.1267 94.8978 30.5895 94.8978 33.7004C94.8978 36.8113 97.3607 39.1445 100.212 39.1445C101.509 39.1445 102.546 38.4964 103.064 37.8483H103.194V38.626C103.194 40.7 102.027 41.8666 100.212 41.8666C98.7865 41.8666 97.7495 40.8296 97.4903 39.9222L95.4163 40.8296C96.0644 42.2554 97.6199 44.0701 100.342 44.0701C103.194 44.0701 105.527 42.385 105.527 38.3668V28.5155H103.194V29.4229ZM100.342 37.0705C98.6569 37.0705 97.231 35.6447 97.231 33.7004C97.231 31.7561 98.6569 30.3302 100.342 30.3302C102.027 30.3302 103.323 31.7561 103.323 33.7004C103.323 35.6447 102.027 37.0705 100.342 37.0705ZM131.97 22.6825H126.137V38.8853H128.599V32.793H131.97C134.692 32.793 137.284 30.8487 137.284 27.7378C137.284 24.6269 134.692 22.6825 131.97 22.6825ZM132.099 30.4598H128.599V24.8861H132.099C133.914 24.8861 134.951 26.4416 134.951 27.6082C134.821 29.034 133.784 30.4598 132.099 30.4598ZM147.006 28.1267C145.191 28.1267 143.376 28.9044 142.728 30.5895L144.932 31.4968C145.45 30.5895 146.228 30.3302 147.135 30.3302C148.432 30.3302 149.598 31.108 149.728 32.4042V32.5338C149.339 32.2745 148.302 31.8857 147.265 31.8857C144.932 31.8857 142.599 33.1819 142.599 35.5151C142.599 37.7187 144.543 39.1445 146.617 39.1445C148.302 39.1445 149.08 38.3668 149.728 37.589H149.857V38.8853H152.191V32.6634C151.931 29.8117 149.728 28.1267 147.006 28.1267ZM146.746 37.0705C145.969 37.0705 144.802 36.6817 144.802 35.6447C144.802 34.3485 146.228 33.9596 147.395 33.9596C148.432 33.9596 148.95 34.2189 149.598 34.4781C149.339 36.0336 148.043 37.0705 146.746 37.0705ZM160.357 28.5155L157.635 35.5151H157.505L154.653 28.5155H152.061L156.338 38.3668L153.876 43.8109H156.338L162.949 28.5155H160.357ZM138.58 38.8853H141.043V22.6825H138.58V38.8853Z" fill="white"/>
<path d="M13.4923 9.72266C13.1035 10.1115 12.8442 10.7596 12.8442 11.5374V40.1837C12.8442 40.9615 13.1035 41.6096 13.4923 41.9984L13.622 42.128L29.695 26.055V25.9254V25.7957L13.4923 9.72266Z" fill="url(#paint0_linear)"/>
<path d="M35.0069 31.4983L29.6924 26.1838V25.9246V25.7949L35.0069 20.4805L35.1365 20.6101L41.4879 24.2395C43.3026 25.2765 43.3026 26.9615 41.4879 27.9985L35.0069 31.4983Z" fill="url(#paint1_linear)"/>
<path d="M35.1373 31.3679L29.6932 25.9238L13.4905 42.1265C14.1386 42.7746 15.0459 42.7746 16.2125 42.2562L35.1373 31.3679Z" fill="url(#paint2_linear)"/>
<path d="M35.1373 20.4796L16.2125 9.72102C15.0459 9.07291 14.1386 9.20253 13.4905 9.85064L29.6932 25.9237L35.1373 20.4796Z" fill="url(#paint3_linear)"/>
<path opacity="0.2" d="M35.0106 31.2402L16.2155 41.8692C15.1785 42.5173 14.2711 42.3877 13.623 41.8692L13.4934 41.9988L13.623 42.1284C14.2711 42.6469 15.1785 42.7766 16.2155 42.1284L35.0106 31.2402Z" fill="black"/>
<path opacity="0.12" d="M13.4914 41.8694C13.1025 41.4805 12.9729 40.8324 12.9729 40.0547V40.1843C12.9729 40.962 13.2321 41.6101 13.621 41.999V41.8694H13.4914Z" fill="black"/>
<path opacity="0.12" d="M41.4916 27.6089L35.0105 31.2383L35.1401 31.3679L41.4916 27.7385C42.3989 27.22 42.7878 26.5719 42.7878 25.9238C42.7878 26.5719 42.2693 27.0904 41.4916 27.6089Z" fill="black"/>
<path opacity="0.25" d="M16.2151 9.8515L41.4913 24.2395C42.2691 24.758 42.7876 25.2765 42.7876 25.9246C42.7876 25.2765 42.3987 24.6284 41.4913 24.1099L16.2151 9.72188C14.4004 8.6849 12.9746 9.59226 12.9746 11.6662V11.7958C12.9746 9.72188 14.4004 8.81453 16.2151 9.8515Z" fill="white"/>
<defs>
<linearGradient id="paint0_linear" x1="28.2688" y1="11.2907" x2="6.51521" y2="33.0443" gradientUnits="userSpaceOnUse">
<stop stop-color="#00A0FF"/>
<stop offset="0.00657445" stop-color="#00A1FF"/>
<stop offset="0.2601" stop-color="#00BEFF"/>
<stop offset="0.5122" stop-color="#00D2FF"/>
<stop offset="0.7604" stop-color="#00DFFF"/>
<stop offset="1" stop-color="#00E3FF"/>
</linearGradient>
<linearGradient id="paint1_linear" x1="43.8657" y1="25.9264" x2="12.5013" y2="25.9264" gradientUnits="userSpaceOnUse">
<stop stop-color="#FFE000"/>
<stop offset="0.4087" stop-color="#FFBD00"/>
<stop offset="0.7754" stop-color="#FFA500"/>
<stop offset="1" stop-color="#FF9C00"/>
</linearGradient>
<linearGradient id="paint2_linear" x1="32.191" y1="28.9001" x2="2.6913" y2="58.3997" gradientUnits="userSpaceOnUse">
<stop stop-color="#FF3A44"/>
<stop offset="1" stop-color="#C31162"/>
</linearGradient>
<linearGradient id="paint3_linear" x1="9.46871" y1="0.227801" x2="22.6416" y2="13.4006" gradientUnits="userSpaceOnUse">
<stop stop-color="#32A071"/>
<stop offset="0.0685" stop-color="#2DA771"/>
<stop offset="0.4762" stop-color="#15CF74"/>
<stop offset="0.8009" stop-color="#06E775"/>
<stop offset="1" stop-color="#00F076"/>
</linearGradient>
</defs>
</svg>
