<svg width="156" height="52" viewBox="0 0 156 52" fill="none" xmlns="http://www.w3.org/2000/svg">
<g clip-path="url(#clip0)">
<path d="M142.759 0.000168509H12.3591C11.8838 0.000168509 11.4141 0.000168509 10.9401 0.00276096C10.5432 0.00535341 10.1496 0.0128845 9.74891 0.019223C8.87851 0.0294655 8.01016 0.106039 7.1514 0.248279C6.29385 0.393615 5.46316 0.667615 4.68743 1.06101C3.91265 1.45774 3.20471 1.97324 2.5893 2.58882C1.97065 3.20267 1.45496 3.9122 1.06206 4.69012C0.668074 5.46649 0.394883 6.29845 0.251921 7.15725C0.107601 8.01497 0.0299407 8.88258 0.0196378 9.75229C0.00760884 10.1497 0.00633854 10.5485 0 10.9459V40.9072C0.00633854 41.3097 0.00760884 41.6996 0.0196378 42.1022C0.0299438 42.9719 0.107604 43.8394 0.251921 44.6971C0.394488 45.5564 0.667696 46.3888 1.06206 47.1655C1.45479 47.9409 1.97055 48.6476 2.5893 49.258C3.20238 49.8763 3.91078 50.3922 4.68743 50.7859C5.46316 51.1803 6.29375 51.456 7.1514 51.6035C8.0103 51.7446 8.87856 51.8212 9.74891 51.8327C10.1496 51.8415 10.5432 51.8466 10.9401 51.8466C11.4141 51.8492 11.8838 51.8492 12.3591 51.8492H142.759C143.225 51.8492 143.699 51.8492 144.165 51.8466C144.559 51.8466 144.965 51.8415 145.359 51.8327C146.228 51.8218 147.095 51.7452 147.952 51.6035C148.812 51.4549 149.646 51.1794 150.425 50.7859C151.201 50.3919 151.909 49.8761 152.522 49.258C153.139 48.6452 153.656 47.939 154.053 47.1655C154.445 46.3883 154.715 45.5559 154.856 44.6971C155 43.8393 155.081 42.9719 155.096 42.1022C155.101 41.6996 155.101 41.3097 155.101 40.9072C155.112 40.4363 155.112 39.968 155.112 39.4894V12.3611C155.112 11.8864 155.112 11.4156 155.101 10.9459C155.101 10.5485 155.101 10.1497 155.096 9.75224C155.081 8.88245 155 8.01503 154.856 7.1572C154.715 6.29889 154.444 5.467 154.053 4.69007C153.253 3.13081 151.984 1.86158 150.425 1.0609C149.646 0.66846 148.812 0.394532 147.952 0.248162C147.095 0.105296 146.228 0.0286955 145.359 0.0190415C144.965 0.012716 144.559 0.00512009 144.165 0.00259245C143.699 0 143.225 0 142.759 0V0.000168509Z" fill="#A6A6A6"/>
<path d="M10.9483 50.7154C10.5534 50.7154 10.168 50.7103 9.77616 50.7015C8.96444 50.6909 8.15462 50.6202 7.35334 50.4901C6.60618 50.3614 5.88239 50.122 5.20583 49.7799C4.53548 49.4406 3.92406 48.9956 3.395 48.4621C2.85829 47.9349 2.41145 47.3235 2.07219 46.652C1.7292 45.9761 1.49183 45.2516 1.36834 44.5038C1.23499 43.7003 1.16285 42.8879 1.15252 42.0734C1.1443 41.8001 1.13354 40.8898 1.13354 40.8898V10.9463C1.13354 10.9463 1.145 10.0501 1.15259 9.78681C1.16247 8.97366 1.2342 8.16245 1.36715 7.36018C1.49086 6.61034 1.72842 5.88381 2.0716 5.20573C2.40961 4.53469 2.85397 3.92276 3.38745 3.39367C3.92033 2.85955 4.5337 2.41233 5.20519 2.06832C5.8802 1.72726 6.60262 1.48958 7.34827 1.36325C8.15218 1.23177 8.96482 1.16069 9.77935 1.15059L10.949 1.13477H144.16L145.344 1.15123C146.151 1.16082 146.956 1.23127 147.753 1.36198C148.506 1.4899 149.236 1.72923 149.918 2.07212C151.264 2.7654 152.358 3.86223 153.049 5.20889C153.387 5.88229 153.62 6.6029 153.743 7.34626C153.877 8.15511 153.952 8.9727 153.968 9.79251C153.972 10.1596 153.972 10.5539 153.972 10.9463C153.982 11.4324 153.982 11.8951 153.982 12.3615V39.4898C153.982 39.9607 153.982 40.4202 153.972 40.8835C153.972 41.305 153.972 41.6912 153.967 42.0886C153.951 42.8938 153.877 43.6968 153.745 44.4911C153.624 45.2443 153.388 45.9744 153.045 46.6558C152.703 47.32 152.259 47.9262 151.729 48.452C151.199 48.9884 150.587 49.4359 149.915 49.7774C149.234 50.1222 148.505 50.3624 147.753 50.4901C146.951 50.6209 146.141 50.6916 145.33 50.7015C144.95 50.7103 144.552 50.7154 144.166 50.7154L142.761 50.7179L10.9483 50.7154Z" fill="black"/>
<path d="M32.102 26.3154C32.116 25.2335 32.4033 24.1727 32.9374 23.2317C33.4715 22.2907 34.2349 21.5 35.1567 20.9334C34.5711 20.0971 33.7986 19.4089 32.9006 18.9234C32.0025 18.4379 31.0036 18.1685 29.9832 18.1365C27.8065 17.9081 25.6964 19.439 24.5872 19.439C23.4565 19.439 21.7487 18.1592 19.9097 18.197C18.7202 18.2355 17.561 18.5814 16.5449 19.2011C15.5288 19.8207 14.6906 20.693 14.1118 21.733C11.6049 26.0733 13.4749 32.4521 15.8763 35.9604C17.0777 37.6784 18.4819 39.5974 20.3192 39.5293C22.1172 39.4548 22.7887 38.3829 24.9589 38.3829C27.1091 38.3829 27.7391 39.5293 29.6137 39.4861C31.543 39.4548 32.7585 37.7605 33.9178 36.0263C34.7811 34.8022 35.4453 33.4493 35.886 32.0177C34.7652 31.5436 33.8087 30.7501 33.1358 29.7361C32.4629 28.722 32.1033 27.5324 32.102 26.3154Z" fill="white"/>
<path d="M28.5615 15.8293C29.6135 14.5665 30.1317 12.9434 30.0062 11.3047C28.3991 11.4735 26.9146 12.2416 25.8485 13.4559C25.3272 14.0492 24.928 14.7393 24.6736 15.4869C24.4192 16.2346 24.3147 17.025 24.366 17.813C25.1698 17.8213 25.965 17.6471 26.6918 17.3035C27.4185 16.9599 28.0578 16.4558 28.5615 15.8293Z" fill="white"/>
<path d="M54.8262 35.1774H48.6906L47.2172 39.5282H44.6184L50.4299 23.4316H53.1299L58.9414 39.5282H56.2983L54.8262 35.1774ZM49.3261 33.1698H54.1895L51.792 26.1089H51.7249L49.3261 33.1698Z" fill="white"/>
<path d="M71.4919 33.6614C71.4919 37.3083 69.54 39.6514 66.5944 39.6514C65.8482 39.6904 65.1061 39.5185 64.4531 39.1554C63.8 38.7923 63.2625 38.2526 62.9019 37.5981H62.8462V43.4109H60.4373V27.7929H62.769V29.7449H62.8133C63.1904 29.0935 63.7371 28.5567 64.3951 28.1913C65.0531 27.826 65.7978 27.6459 66.5501 27.6701C69.5285 27.6701 71.4919 30.0246 71.4919 33.6614ZM69.0159 33.6614C69.0159 31.2854 67.788 29.7233 65.9146 29.7233C64.0741 29.7233 62.8361 31.3183 62.8361 33.6614C62.8361 36.026 64.0741 37.6096 65.9146 37.6096C67.7881 37.6096 69.0159 36.0589 69.0159 33.6614Z" fill="white"/>
<path d="M84.4109 33.6614C84.4109 37.3083 82.4589 39.6513 79.5133 39.6513C78.7671 39.6904 78.025 39.5185 77.372 39.1554C76.719 38.7923 76.1814 38.2526 75.8208 37.5981H75.7651V43.4109H73.3562V27.7929H75.6879V29.7448H75.7322C76.1093 29.0935 76.656 28.5567 77.314 28.1913C77.972 27.826 78.7167 27.6459 79.469 27.6701C82.4475 27.6701 84.4109 30.0246 84.4109 33.6614ZM81.9349 33.6614C81.9349 31.2854 80.707 29.7233 78.8335 29.7233C76.993 29.7233 75.755 31.3183 75.755 33.6614C75.755 36.026 76.993 37.6095 78.8335 37.6095C80.707 37.6095 81.9349 36.0589 81.9349 33.6614H81.9349Z" fill="white"/>
<path d="M92.9454 35.0441C93.1239 36.6403 94.6746 37.6884 96.7936 37.6884C98.824 37.6884 100.285 36.6403 100.285 35.201C100.285 33.9516 99.4037 33.2035 97.3176 32.6908L95.2315 32.1883C92.2758 31.4743 90.9036 30.092 90.9036 27.849C90.9036 25.0717 93.3239 23.1641 96.7607 23.1641C100.162 23.1641 102.494 25.0717 102.572 27.849H100.14C99.9949 26.2426 98.667 25.273 96.7265 25.273C94.7859 25.273 93.458 26.254 93.458 27.6819C93.458 28.8199 94.3062 29.4895 96.3809 30.0021L98.1543 30.4376C101.457 31.2186 102.829 32.5452 102.829 34.8997C102.829 37.9111 100.43 39.7972 96.615 39.7972C93.0454 39.7972 90.6352 37.9554 90.4795 35.044L92.9454 35.0441Z" fill="white"/>
<path d="M108.03 25.0176V27.7948H110.262V29.7025H108.03V36.1722C108.03 37.1773 108.477 37.6456 109.458 37.6456C109.723 37.641 109.988 37.6224 110.251 37.5899V39.4861C109.809 39.5686 109.361 39.6059 108.913 39.5975C106.537 39.5975 105.61 38.7051 105.61 36.4291V29.7025H103.904V27.7948H105.61V25.0176H108.03Z" fill="white"/>
<path d="M111.554 33.6631C111.554 29.9707 113.728 27.6504 117.12 27.6504C120.522 27.6504 122.687 29.9706 122.687 33.6631C122.687 37.3657 120.534 39.6759 117.12 39.6759C113.707 39.6759 111.554 37.3657 111.554 33.6631ZM120.232 33.6631C120.232 31.1302 119.072 29.6352 117.12 29.6352C115.168 29.6352 114.008 31.1416 114.008 33.6631C114.008 36.2062 115.168 37.6898 117.12 37.6898C119.072 37.6898 120.232 36.2062 120.232 33.6631H120.232Z" fill="white"/>
<path d="M124.669 27.7928H126.967V29.7903H127.022C127.178 29.1664 127.543 28.6151 128.057 28.229C128.571 27.8429 129.203 27.6455 129.845 27.67C130.123 27.669 130.4 27.6992 130.671 27.7599V30.0131C130.32 29.906 129.955 29.8568 129.588 29.8675C129.238 29.8533 128.889 29.915 128.566 30.0484C128.242 30.1818 127.951 30.3836 127.712 30.6401C127.474 30.8966 127.293 31.2017 127.184 31.5344C127.075 31.8671 127.038 32.2196 127.078 32.5676V39.5284H124.669L124.669 27.7928Z" fill="white"/>
<path d="M141.78 36.0834C141.456 38.2139 139.381 39.6759 136.727 39.6759C133.313 39.6759 131.194 37.3885 131.194 33.7188C131.194 30.0378 133.324 27.6504 136.625 27.6504C139.872 27.6504 141.914 29.8808 141.914 33.4391V34.2644H133.625V34.41C133.587 34.8419 133.641 35.277 133.784 35.6864C133.927 36.0958 134.155 36.4701 134.454 36.7845C134.752 37.0989 135.114 37.3462 135.516 37.5099C135.917 37.6736 136.349 37.75 136.782 37.7341C137.352 37.7874 137.923 37.6556 138.411 37.3582C138.899 37.0608 139.279 36.6137 139.492 36.0834L141.78 36.0834ZM133.637 32.5809H139.504C139.525 32.1925 139.467 31.8039 139.331 31.4394C139.195 31.0749 138.986 30.7423 138.715 30.4627C138.445 30.183 138.12 29.9622 137.76 29.8141C137.401 29.6661 137.014 29.594 136.625 29.6023C136.233 29.6 135.844 29.6754 135.481 29.8241C135.118 29.9728 134.788 30.192 134.51 30.4689C134.233 30.7458 134.012 31.075 133.862 31.4375C133.712 31.8 133.636 32.1886 133.637 32.5809V32.5809Z" fill="white"/>
<path d="M49.0281 11.3213C49.5331 11.285 50.0399 11.3613 50.5119 11.5447C50.9838 11.728 51.4092 12.0138 51.7574 12.3814C52.1055 12.7491 52.3677 13.1894 52.5251 13.6706C52.6825 14.1519 52.7311 14.6621 52.6674 15.1644C52.6674 17.6353 51.3319 19.0556 49.0281 19.0556H46.2344V11.3213H49.0281ZM47.4356 17.9618H48.8939C49.2548 17.9834 49.6159 17.9242 49.951 17.7886C50.2862 17.653 50.5868 17.4444 50.8312 17.1779C51.0755 16.9115 51.2573 16.5939 51.3634 16.2483C51.4696 15.9027 51.4973 15.5378 51.4446 15.1801C51.4934 14.8239 51.4629 14.4612 51.3552 14.1182C51.2474 13.7751 51.0652 13.4601 50.8214 13.1958C50.5776 12.9315 50.2784 12.7243 49.9452 12.5892C49.6119 12.4541 49.2529 12.3943 48.8939 12.4143H47.4356V17.9618Z" fill="white"/>
<path d="M54.0272 16.132C53.9905 15.7484 54.0344 15.3614 54.156 14.9958C54.2776 14.6301 54.4744 14.294 54.7335 14.0088C54.9927 13.7237 55.3086 13.4959 55.661 13.34C56.0134 13.184 56.3944 13.1035 56.7798 13.1035C57.1651 13.1035 57.5462 13.184 57.8985 13.34C58.2509 13.4959 58.5668 13.7237 58.826 14.0088C59.0852 14.294 59.2819 14.6301 59.4035 14.9958C59.5251 15.3614 59.569 15.7484 59.5323 16.132C59.5697 16.516 59.5264 16.9035 59.405 17.2697C59.2837 17.6359 59.0871 17.9727 58.8279 18.2584C58.5687 18.5441 58.2525 18.7724 57.8998 18.9287C57.5471 19.0849 57.1655 19.1656 56.7798 19.1656C56.394 19.1656 56.0125 19.0849 55.6597 18.9287C55.307 18.7724 54.9908 18.5441 54.7316 18.2584C54.4724 17.9727 54.2758 17.6359 54.1545 17.2697C54.0331 16.9035 53.9898 16.516 54.0272 16.132ZM58.3475 16.132C58.3475 14.8668 57.7791 14.1269 56.7817 14.1269C55.7804 14.1269 55.2171 14.8668 55.2171 16.132C55.2171 17.4073 55.7804 18.1415 56.7817 18.1415C57.7792 18.1415 58.3475 17.4023 58.3475 16.132H58.3475Z" fill="white"/>
<path d="M66.846 19.0536H65.6511L64.4447 14.7548H64.3536L63.1523 19.0536H61.9688L60.3599 13.2168H61.5282L62.5738 17.6706H62.6599L63.8599 13.2168H64.965L66.165 17.6706H66.2562L67.2967 13.2168H68.4486L66.846 19.0536Z" fill="white"/>
<path d="M69.8015 13.2161H70.9104V14.1433H70.9965C71.1425 13.8103 71.3888 13.5311 71.701 13.3447C72.0132 13.1583 72.3758 13.0739 72.7383 13.1034C73.0223 13.082 73.3074 13.1249 73.5726 13.2287C73.8379 13.3325 74.0763 13.4947 74.2703 13.7032C74.4643 13.9117 74.609 14.1611 74.6935 14.4331C74.778 14.7051 74.8002 14.9926 74.7586 15.2743V19.0528H73.6066V15.5636C73.6066 14.6256 73.199 14.1591 72.3471 14.1591C72.1543 14.1501 71.9618 14.183 71.7829 14.2553C71.6039 14.3277 71.4427 14.4379 71.3103 14.5784C71.178 14.7189 71.0775 14.8863 71.0159 15.0693C70.9543 15.2522 70.933 15.4463 70.9534 15.6383V19.0529H69.8015L69.8015 13.2161Z" fill="white"/>
<path d="M76.595 10.9375H77.7469V19.0528H76.595V10.9375Z" fill="white"/>
<path d="M79.3467 16.1301C79.3101 15.7465 79.354 15.3595 79.4756 14.9939C79.5973 14.6282 79.794 14.2921 80.0532 14.0069C80.3124 13.7217 80.6284 13.4939 80.9808 13.338C81.3332 13.1821 81.7143 13.1016 82.0996 13.1016C82.485 13.1016 82.8661 13.1821 83.2185 13.338C83.5709 13.4939 83.8868 13.7217 84.146 14.0069C84.4052 14.2921 84.6019 14.6282 84.7236 14.9939C84.8453 15.3595 84.8892 15.7465 84.8525 16.1301C84.8899 16.5141 84.8465 16.9017 84.7251 17.2679C84.6038 17.6341 84.4071 17.9709 84.1479 18.2566C83.8886 18.5423 83.5724 18.7706 83.2197 18.9268C82.8669 19.083 82.4854 19.1638 82.0996 19.1638C81.7138 19.1638 81.3323 19.083 80.9795 18.9268C80.6268 18.7706 80.3106 18.5423 80.0514 18.2566C79.7921 17.9709 79.5955 17.6341 79.4741 17.2679C79.3528 16.9017 79.3094 16.5141 79.3467 16.1301ZM83.667 16.1301C83.667 14.8649 83.0987 14.1251 82.1012 14.1251C81.0999 14.1251 80.5367 14.8649 80.5367 16.1302C80.5367 17.4055 81.1 18.1397 82.1012 18.1397C83.0987 18.1397 83.667 17.4004 83.667 16.1301H83.667Z" fill="white"/>
<path d="M86.0681 17.4023C86.0681 16.3517 86.8504 15.746 88.239 15.6599L89.8201 15.5687V15.0649C89.8201 14.4485 89.4125 14.1004 88.6251 14.1004C87.9821 14.1004 87.5365 14.3364 87.4086 14.7491H86.2934C86.4112 13.7466 87.3542 13.1035 88.6783 13.1035C90.1416 13.1035 90.9669 13.832 90.9669 15.0649V19.053H89.8581V18.2327H89.7669C89.5819 18.5269 89.3222 18.7668 89.0141 18.9278C88.7061 19.0888 88.3609 19.1652 88.0137 19.1491C87.7687 19.1746 87.521 19.1485 87.2867 19.0724C87.0524 18.9963 86.8367 18.872 86.6534 18.7074C86.47 18.5428 86.3233 18.3416 86.2225 18.1169C86.1217 17.8921 86.0691 17.6487 86.0681 17.4023ZM89.8201 16.9036V16.4156L88.3947 16.5067C87.5909 16.5605 87.2264 16.8339 87.2264 17.3485C87.2264 17.8738 87.6821 18.1795 88.3087 18.1795C88.4923 18.1981 88.6778 18.1796 88.8541 18.125C89.0304 18.0705 89.1939 17.981 89.3349 17.8619C89.4759 17.7429 89.5915 17.5967 89.6749 17.4321C89.7582 17.2674 89.8076 17.0877 89.8201 16.9036Z" fill="white"/>
<path d="M92.4746 16.1319C92.4746 14.2876 93.4227 13.1192 94.8974 13.1192C95.2622 13.1024 95.6242 13.1898 95.9412 13.3711C96.2582 13.5524 96.5169 13.8202 96.6873 14.1432H96.7734V10.9375H97.9253V19.0528H96.8215V18.1307H96.7304C96.5468 18.4515 96.279 18.7159 95.9559 18.8954C95.6328 19.0749 95.2668 19.1626 94.8974 19.149C93.4126 19.1491 92.4746 17.9807 92.4746 16.1319ZM93.6645 16.1319C93.6645 17.3699 94.2481 18.1149 95.2241 18.1149C96.1949 18.1149 96.795 17.3592 96.795 16.137C96.795 14.9205 96.1886 14.154 95.2241 14.154C94.2544 14.154 93.6645 14.904 93.6645 16.1319H93.6645Z" fill="white"/>
<path d="M102.696 16.132C102.659 15.7484 102.703 15.3614 102.824 14.9958C102.946 14.6301 103.143 14.294 103.402 14.0088C103.661 13.7237 103.977 13.4959 104.329 13.34C104.682 13.184 105.063 13.1035 105.448 13.1035C105.834 13.1035 106.215 13.184 106.567 13.34C106.919 13.4959 107.235 13.7237 107.494 14.0088C107.754 14.294 107.95 14.6301 108.072 14.9958C108.194 15.3614 108.237 15.7484 108.201 16.132C108.238 16.516 108.195 16.9035 108.074 17.2697C107.952 17.6359 107.756 17.9727 107.496 18.2584C107.237 18.5441 106.921 18.7724 106.568 18.9287C106.216 19.0849 105.834 19.1656 105.448 19.1656C105.062 19.1656 104.681 19.0849 104.328 18.9287C103.975 18.7724 103.659 18.5441 103.4 18.2584C103.141 17.9727 102.944 17.6359 102.823 17.2697C102.702 16.9035 102.658 16.516 102.696 16.132ZM107.016 16.132C107.016 14.8668 106.448 14.1269 105.45 14.1269C104.449 14.1269 103.886 14.8668 103.886 16.132C103.886 17.4073 104.449 18.1415 105.45 18.1415C106.448 18.1415 107.016 17.4023 107.016 16.132Z" fill="white"/>
<path d="M109.749 13.2161H110.858V14.1433H110.944C111.09 13.8103 111.337 13.5311 111.649 13.3447C111.961 13.1583 112.324 13.0739 112.686 13.1034C112.97 13.082 113.255 13.1249 113.52 13.2287C113.786 13.3325 114.024 13.4947 114.218 13.7032C114.412 13.9117 114.557 14.1611 114.641 14.4331C114.726 14.7051 114.748 14.9926 114.706 15.2743V19.0528H113.554V15.5636C113.554 14.6256 113.147 14.1591 112.295 14.1591C112.102 14.1501 111.91 14.183 111.731 14.2553C111.552 14.3277 111.39 14.4379 111.258 14.5784C111.126 14.7189 111.025 14.8863 110.964 15.0693C110.902 15.2522 110.881 15.4463 110.901 15.6383V19.0529H109.749V13.2161Z" fill="white"/>
<path d="M121.21 11.7617V13.2415H122.474V14.2118H121.21V17.2131C121.21 17.8245 121.462 18.0922 122.035 18.0922C122.182 18.0917 122.329 18.0829 122.474 18.0656V19.0251C122.268 19.0621 122.058 19.0818 121.848 19.084C120.567 19.084 120.057 18.6333 120.057 17.508V14.2117H119.13V13.2414H120.057V11.7617H121.21Z" fill="white"/>
<path d="M124.052 10.9375H125.193V14.154H125.284C125.438 13.8179 125.691 13.5371 126.009 13.35C126.328 13.1629 126.696 13.0786 127.064 13.1084C127.347 13.0931 127.629 13.1402 127.891 13.2466C128.154 13.3529 128.389 13.5158 128.581 13.7236C128.773 13.9315 128.917 14.1791 129.002 14.4489C129.087 14.7187 129.112 15.004 129.074 15.2844V19.0528H127.921V15.5686C127.921 14.6363 127.487 14.1641 126.673 14.1641C126.475 14.1479 126.276 14.1751 126.09 14.2439C125.903 14.3126 125.734 14.4213 125.594 14.5623C125.454 14.7032 125.347 14.873 125.279 15.0599C125.212 15.2467 125.186 15.446 125.203 15.6439V19.0528H124.052L124.052 10.9375Z" fill="white"/>
<path d="M135.791 17.4751C135.634 18.0086 135.295 18.47 134.833 18.7787C134.371 19.0874 133.814 19.2237 133.262 19.1638C132.877 19.1739 132.495 19.1003 132.142 18.9479C131.789 18.7956 131.473 18.5682 131.216 18.2816C130.96 17.9949 130.769 17.6559 130.656 17.288C130.544 16.9201 130.513 16.5321 130.565 16.1511C130.514 15.7688 130.546 15.3801 130.658 15.0111C130.77 14.6421 130.96 14.3015 131.215 14.0123C131.47 13.7232 131.785 13.4922 132.137 13.3351C132.489 13.178 132.871 13.0984 133.257 13.1017C134.881 13.1017 135.86 14.2112 135.86 16.0441V16.446H131.739V16.5106C131.721 16.7248 131.748 16.9404 131.818 17.1436C131.888 17.3468 132 17.533 132.146 17.6905C132.293 17.8479 132.47 17.973 132.668 18.0578C132.865 18.1425 133.078 18.1851 133.293 18.1827C133.569 18.2158 133.848 18.1662 134.095 18.0402C134.343 17.9142 134.547 17.7175 134.682 17.4751L135.791 17.4751ZM131.739 15.5941H134.687C134.701 15.3982 134.675 15.2014 134.609 15.0164C134.543 14.8315 134.439 14.6623 134.303 14.5199C134.168 14.3775 134.005 14.265 133.823 14.1896C133.642 14.1142 133.447 14.0776 133.25 14.0821C133.051 14.0796 132.853 14.117 132.669 14.1921C132.484 14.2672 132.317 14.3785 132.176 14.5194C132.035 14.6603 131.924 14.828 131.849 15.0126C131.774 15.1971 131.736 15.3949 131.739 15.5941H131.739Z" fill="white"/>
</g>
<defs>
<clipPath id="clip0">
<rect width="155.112" height="51.849" fill="white"/>
</clipPath>
</defs>
</svg>
