<svg width="19" height="23" viewBox="0 0 19 23" fill="none" xmlns="http://www.w3.org/2000/svg">
<path d="M15.1534 12.1488C15.1641 11.3159 15.3854 10.4992 15.7965 9.77473C16.2077 9.05028 16.7955 8.44161 17.5051 8.00534C17.0543 7.36151 16.4596 6.83167 15.7682 6.45789C15.0768 6.08412 14.3077 5.8767 13.5222 5.85212C11.8464 5.67623 10.2218 6.85487 9.3679 6.85487C8.49743 6.85487 7.18266 5.86959 5.76687 5.89872C4.85109 5.9283 3.9586 6.19461 3.17634 6.67167C2.39409 7.14874 1.74875 7.82031 1.30321 8.62094C-0.626786 11.9624 0.812817 16.8733 2.66159 19.5743C3.58657 20.8969 4.66761 22.3743 6.08212 22.3219C7.46631 22.2645 7.98328 21.4392 9.65411 21.4392C11.3094 21.4392 11.7945 22.3219 13.2377 22.2886C14.723 22.2645 15.6588 20.9601 16.5513 19.625C17.2159 18.6826 17.7273 17.641 18.0666 16.5389C17.2037 16.1739 16.4673 15.563 15.9492 14.7823C15.4312 14.0016 15.1544 13.0857 15.1534 12.1488Z" fill="white"/>
<path d="M12.4278 4.07616C13.2377 3.10397 13.6367 1.85439 13.54 0.592773C12.3028 0.722724 11.1599 1.31406 10.3391 2.24895C9.93779 2.70566 9.63043 3.237 9.43459 3.81257C9.23875 4.38815 9.15827 4.99668 9.19776 5.60338C9.81661 5.60975 10.4288 5.47561 10.9883 5.21108C11.5478 4.94654 12.04 4.55849 12.4278 4.07616Z" fill="white"/>
</svg>
