<svg width="12" height="7" viewBox="0 0 12 7" fill="none" xmlns="http://www.w3.org/2000/svg">
<path d="M0.50302 0.000122106C0.636422 0.000150251 0.76435 0.052877 0.858666 0.146705L5.53336 4.79584L10.2081 0.146706C10.3029 0.0555748 10.43 0.00514931 10.5619 0.00628896C10.6938 0.00742861 10.8199 0.0600438 10.9132 0.152801C11.0065 0.245557 11.0594 0.371035 11.0605 0.502207C11.0617 0.63338 11.011 0.759753 10.9193 0.854107L5.889 5.85694C5.79467 5.95073 5.66674 6.00342 5.53336 6.00342C5.39997 6.00342 5.27204 5.95073 5.17771 5.85694L0.147375 0.854106C0.0770459 0.784141 0.0291543 0.695009 0.0097537 0.597977C-0.00964689 0.500946 0.000314251 0.400372 0.0383792 0.30897C0.0764442 0.217568 0.140902 0.139442 0.223606 0.0844689C0.306309 0.0294957 0.403545 0.000143078 0.50302 0.000122106Z" fill="#636A70"/>
</svg>
