<svg width="194" height="58" viewBox="0 0 194 58" fill="none" xmlns="http://www.w3.org/2000/svg">
<path d="M192.551 7.1312C192.551 3.56978 189.613 0.632072 186.052 0.632072H7.77183C4.21041 0.632072 1.2727 3.56978 1.2727 7.1312V49.9184C1.2727 53.4799 4.21041 56.4176 7.77183 56.4176H186.052C189.613 56.4176 192.551 53.4799 192.551 49.9184V7.1312ZM7.77183 0.508921H186.052C189.758 0.508921 192.674 3.55478 192.674 7.1312V49.9184C192.674 53.6308 189.764 56.5407 186.052 56.5407H7.77183C4.05942 56.5407 1.14955 53.6308 1.14955 49.9184V7.1312C1.14955 3.4188 4.05942 0.508921 7.77183 0.508921Z" fill="#4BCFD0" stroke="#4BCFD0" stroke-width="1.01784"/>
<path d="M68.2449 14.5474C68.2449 15.6884 67.9597 16.6868 67.2466 17.3999C66.3908 18.2556 65.3925 18.6835 64.1088 18.6835C62.8252 18.6835 61.8269 18.2556 60.9711 17.3999C60.1154 16.5442 59.6875 15.5458 59.6875 14.2622C59.6875 12.9785 60.1154 11.9802 60.9711 11.1244C61.8269 10.2687 62.8252 9.84082 64.1088 9.84082C64.6793 9.84082 65.2498 9.98345 65.8203 10.2687C66.3908 10.5539 66.8187 10.8392 67.104 11.2671L66.3908 11.9802C65.8203 11.2671 65.1072 10.9818 64.1088 10.9818C63.2531 10.9818 62.3974 11.2671 61.8269 11.9802C61.1137 12.5507 60.8285 13.4064 60.8285 14.4048C60.8285 15.4032 61.1137 16.2589 61.8269 16.8294C62.54 17.3999 63.2531 17.8278 64.1088 17.8278C65.1072 17.8278 65.8203 17.5425 66.5335 16.8294C66.9613 16.4015 67.2466 15.831 67.2466 15.1179H64.1088V14.1195H68.2449C68.2449 14.1195 68.2449 14.4048 68.2449 14.5474Z" fill="#4BCFD0" stroke="#4BCFD0" stroke-width="0.262428" stroke-miterlimit="10"/>
<path d="M74.8043 10.9808H70.9535V13.6906H74.5191V14.689H70.9535V17.3989H74.8043V18.5399H69.8125V9.98242H74.8043V10.9808Z" fill="#4BCFD0" stroke="#4BCFD0" stroke-width="0.262428" stroke-miterlimit="10"/>
<path d="M79.5109 18.5399H78.3699V10.9808H75.9453V9.98242H81.9355V10.9808H79.5109V18.5399Z" fill="#4BCFD0" stroke="#4BCFD0" stroke-width="0.262428" stroke-miterlimit="10"/>
<path d="M86.0723 18.5399V9.98242H87.2133V18.5399H86.0723Z" fill="#4BCFD0" stroke="#4BCFD0" stroke-width="0.262428" stroke-miterlimit="10"/>
<path d="M92.0617 18.5399H90.9207V10.9808H88.4961V9.98242H94.3437V10.9808H91.9191V18.5399H92.0617Z" fill="#4BCFD0" stroke="#4BCFD0" stroke-width="0.262428" stroke-miterlimit="10"/>
<path d="M105.612 17.4014C104.756 18.2571 103.758 18.685 102.474 18.685C101.19 18.685 100.192 18.2571 99.3363 17.4014C98.4806 16.5456 98.0527 15.5472 98.0527 14.2636C98.0527 12.98 98.4806 11.9816 99.3363 11.1259C100.192 10.2702 101.19 9.84229 102.474 9.84229C103.758 9.84229 104.756 10.2702 105.612 11.1259C106.468 11.9816 106.895 12.98 106.895 14.2636C106.895 15.5472 106.468 16.5456 105.612 17.4014ZM100.192 16.6882C100.763 17.2587 101.618 17.6866 102.474 17.6866C103.33 17.6866 104.186 17.4014 104.756 16.6882C105.327 16.1177 105.754 15.262 105.754 14.2636C105.754 13.2653 105.469 12.4095 104.756 11.839C104.186 11.2685 103.33 10.8407 102.474 10.8407C101.618 10.8407 100.763 11.1259 100.192 11.839C99.6216 12.4095 99.1937 13.2653 99.1937 14.2636C99.1937 15.262 99.479 16.1177 100.192 16.6882Z" fill="#4BCFD0" stroke="#4BCFD0" stroke-width="0.262428" stroke-miterlimit="10"/>
<path d="M108.465 18.5399V9.98242H109.748L113.885 16.6858V14.9743V9.98242H115.026V18.5399H113.885L109.463 11.5513V13.2628V18.5399H108.465Z" fill="#4BCFD0" stroke="#4BCFD0" stroke-width="0.262428" stroke-miterlimit="10"/>
<path d="M97.7702 31.0905C94.3472 31.0905 91.6374 33.6578 91.6374 37.2234C91.6374 40.6464 94.3472 43.3562 97.7702 43.3562C101.193 43.3562 103.903 40.789 103.903 37.2234C103.903 33.5151 101.193 31.0905 97.7702 31.0905ZM97.7702 40.789C95.9161 40.789 94.3472 39.2201 94.3472 37.0808C94.3472 34.9414 95.9161 33.3725 97.7702 33.3725C99.6243 33.3725 101.193 34.7988 101.193 37.0808C101.193 39.2201 99.6243 40.789 97.7702 40.789ZM84.5062 31.0905C81.0832 31.0905 78.3733 33.6578 78.3733 37.2234C78.3733 40.6464 81.0832 43.3562 84.5062 43.3562C87.9292 43.3562 90.639 40.789 90.639 37.2234C90.639 33.5151 87.9292 31.0905 84.5062 31.0905ZM84.5062 40.789C82.6521 40.789 81.0832 39.2201 81.0832 37.0808C81.0832 34.9414 82.6521 33.3725 84.5062 33.3725C86.3603 33.3725 87.9292 34.7988 87.9292 37.0808C87.9292 39.2201 86.3603 40.789 84.5062 40.789ZM68.6749 32.9447V35.5119H74.8077C74.6651 36.9381 74.0946 38.0791 73.3815 38.7922C72.5258 39.648 71.0995 40.6464 68.6749 40.6464C64.8241 40.6464 61.9716 37.6513 61.9716 33.8004C61.9716 29.9495 64.9667 26.9544 68.6749 26.9544C70.6716 26.9544 72.2405 27.8102 73.3815 28.8086L75.2356 26.9544C73.6668 25.5282 71.67 24.3872 68.8175 24.3872C63.6831 24.3872 59.2617 28.6659 59.2617 33.8004C59.2617 38.9349 63.6831 43.2136 68.8175 43.2136C71.67 43.2136 73.6668 42.3578 75.3782 40.5037C77.0897 38.7922 77.6602 36.3676 77.6602 34.5135C77.6602 33.943 77.6602 33.3725 77.5176 32.9447H68.6749ZM133.426 34.9414C132.856 33.5152 131.429 31.0905 128.292 31.0905C125.154 31.0905 122.587 33.5151 122.587 37.2234C122.587 40.6464 125.154 43.3562 128.577 43.3562C131.287 43.3562 132.998 41.6447 133.569 40.6464L131.572 39.2201C130.859 40.2185 130.003 40.9316 128.577 40.9316C127.151 40.9316 126.295 40.3611 125.582 39.0775L133.711 35.6545L133.426 34.9414ZM125.154 36.9381C125.154 34.6561 127.008 33.3725 128.292 33.3725C129.29 33.3725 130.289 33.943 130.574 34.6561L125.154 36.9381ZM118.451 42.7857H121.161V24.9577H118.451V42.7857ZM114.172 32.3742C113.459 31.661 112.318 30.9479 110.892 30.9479C107.897 30.9479 105.044 33.6578 105.044 37.0808C105.044 40.5037 107.754 43.071 110.892 43.071C112.318 43.071 113.459 42.3578 114.029 41.6447H114.172V42.5005C114.172 44.7825 112.888 46.0661 110.892 46.0661C109.323 46.0661 108.182 44.9251 107.897 43.9267L105.615 44.9251C106.328 46.4939 108.039 48.4907 111.034 48.4907C114.172 48.4907 116.739 46.6366 116.739 42.2152V31.3758H114.172V32.3742ZM111.034 40.789C109.18 40.789 107.611 39.2201 107.611 37.0808C107.611 34.9414 109.18 33.3725 111.034 33.3725C112.888 33.3725 114.315 34.9414 114.315 37.0808C114.315 39.2201 112.888 40.789 111.034 40.789ZM145.835 24.9577H139.416V42.7857H142.126V36.0824H145.835C148.83 36.0824 151.682 33.943 151.682 30.52C151.682 27.0971 148.83 24.9577 145.835 24.9577ZM145.977 33.5152H142.126V27.3823H145.977C147.974 27.3823 149.115 29.0938 149.115 30.3774C148.972 31.9463 147.831 33.5152 145.977 33.5152ZM162.379 30.9479C160.382 30.9479 158.385 31.8037 157.672 33.6578L160.097 34.6561C160.667 33.6578 161.523 33.3725 162.522 33.3725C163.948 33.3725 165.231 34.2283 165.374 35.6545V35.7971C164.946 35.5119 163.805 35.084 162.664 35.084C160.097 35.084 157.53 36.5103 157.53 39.0775C157.53 41.5021 159.669 43.071 161.951 43.071C163.805 43.071 164.661 42.2152 165.374 41.3595H165.517V42.7857H168.084V35.9398C167.799 32.802 165.374 30.9479 162.379 30.9479ZM162.094 40.789C161.238 40.789 159.954 40.3611 159.954 39.2201C159.954 37.7939 161.523 37.366 162.807 37.366C163.948 37.366 164.518 37.6512 165.231 37.9365C164.946 39.648 163.52 40.789 162.094 40.789ZM177.069 31.3758L174.074 39.0775H173.931L170.794 31.3758H167.941L172.648 42.2152L169.938 48.2054H172.648L179.922 31.3758H177.069ZM153.108 42.7857H155.818V24.9577H153.108V42.7857Z" fill="#4BCFD0"/>
<path fill-rule="evenodd" clip-rule="evenodd" d="M16.3226 46.5829C16.486 46.5203 16.645 46.4463 16.7983 46.3614L38.6265 34.2767L33.4514 29.0525L16.3226 46.5829ZM39.5927 33.7429L34.1936 28.2922L39.5877 22.7735L47.0141 26.8697C48.8445 27.8768 47.9081 29.1356 47.0141 29.6391L39.5927 33.7429ZM38.624 22.2423L16.7983 10.2054C16.5617 10.0749 16.3034 9.98956 16.0362 9.95361L33.4465 27.5268L38.624 22.2398V22.2423ZM14.7562 10.1802L32.7043 28.3073L14.8433 46.5829C14.3228 46.2481 14.0414 45.523 14.0364 44.5864C14.0364 42.7914 13.887 14.289 13.8771 12.149C13.8696 11.1143 14.2407 10.4874 14.7562 10.1802Z" fill="#4BCFD0"/>
</svg>
