<svg width="171" height="57" viewBox="0 0 171 57" fill="none" xmlns="http://www.w3.org/2000/svg">
<path d="M7.85894 56.709C8.80282 56.8641 9.75698 56.9483 10.7134 56.9609C11.1537 56.9705 11.5863 56.9761 12.0224 56.9761C12.5427 56.9789 13.0582 56.9789 13.5798 56.9789H13.5819H156.884H156.886C157.397 56.9789 157.916 56.9789 158.428 56.9761C158.862 56.9761 159.307 56.9705 159.741 56.9609C160.696 56.9489 161.648 56.8647 162.59 56.709M7.85894 56.709L7.9482 56.1903C7.94763 56.1902 7.94706 56.1901 7.94649 56.19M7.85894 56.709L7.94426 56.1896C7.94501 56.1897 7.94575 56.1899 7.94649 56.19M7.85894 56.709C6.91644 56.5468 6.00366 56.2439 5.15119 55.8105C4.2977 55.3778 3.51921 54.8109 2.84548 54.1314C2.16551 53.4606 1.59872 52.684 1.16714 51.8319C0.733756 50.9784 0.433517 50.0636 0.276846 49.1193C0.11825 48.1768 0.0329064 47.2234 0.0215807 46.2677C0.0125495 45.9654 0.00903677 45.6696 0.00549625 45.3715C0.00385448 45.2333 0.00220674 45.0946 0 44.9544M7.94649 56.19C8.86372 56.3405 9.79093 56.4223 10.7204 56.4345L10.725 56.4346C11.1621 56.4442 11.5908 56.4497 12.0224 56.4497H12.0253C12.5446 56.4526 13.0593 56.4526 13.5819 56.4526H156.884C157.396 56.4526 157.915 56.4526 158.425 56.4497L158.428 56.4497C158.857 56.4497 159.299 56.4442 159.729 56.4346L159.734 56.4345C160.662 56.4229 161.587 56.3412 162.503 56.1899M7.94649 56.19C7.05657 56.0367 6.19472 55.7506 5.38977 55.3413L5.38918 55.341C4.58595 54.9338 3.85331 54.4003 3.21925 53.7608L3.21927 53.7608L3.21515 53.7567C2.57565 53.1258 2.0426 52.3955 1.63671 51.5941L1.63647 51.5936C1.22739 50.788 0.943996 49.9245 0.796114 49.0331L0.795914 49.032C0.641829 48.1162 0.558912 47.1899 0.547909 46.2614H0.547994L0.547711 46.2519C0.538822 45.9544 0.535407 45.6666 0.531902 45.3711C0.530265 45.2331 0.528609 45.0934 0.526365 44.9503M162.503 56.1899C162.502 56.1901 162.501 56.1902 162.5 56.1903L162.59 56.709M162.503 56.1899C162.503 56.1898 162.504 56.1898 162.504 56.1897L162.59 56.709M162.503 56.1899C163.396 56.0354 164.261 55.7491 165.071 55.3406M162.59 56.709C163.535 56.5457 164.451 56.2429 165.308 55.8105M165.308 55.8105L165.07 55.3411C165.07 55.3409 165.07 55.3407 165.071 55.3406M165.308 55.8105C166.161 55.3776 166.939 54.8107 167.612 54.1314C168.29 53.458 168.858 52.682 169.295 51.8319M165.308 55.8105L165.071 55.3406M165.071 55.3406C165.873 54.9332 166.605 54.3999 167.238 53.7609L167.241 53.7579C167.879 53.124 168.414 52.3937 168.825 51.5937M168.825 51.5937C168.825 51.5942 168.825 51.5947 168.825 51.5952L169.295 51.8319M168.825 51.5937C168.826 51.5929 168.826 51.5921 168.827 51.5913L169.295 51.8319M168.825 51.5937C169.231 50.7878 169.512 49.9248 169.657 49.0343L169.658 49.0318C169.812 48.1156 169.898 47.1891 169.915 46.26M169.295 51.8319C169.725 50.9778 170.022 50.0631 170.177 49.1193C170.336 48.1766 170.424 47.2234 170.441 46.2677M169.915 46.26C169.915 46.2604 169.915 46.2607 169.915 46.261L170.441 46.2677M169.915 46.26C169.915 46.2594 169.915 46.2588 169.915 46.2582L170.441 46.2677M169.915 46.26C169.92 45.8218 169.92 45.3969 169.92 44.9544V44.9431L169.92 44.9431C169.931 44.4322 169.931 43.9232 169.931 43.3963V13.5841C169.931 13.0615 169.931 12.5497 169.92 12.0402L169.92 12.0289C169.92 11.5918 169.92 11.1572 169.915 10.7245M170.441 46.2677C170.447 45.8252 170.447 45.3967 170.447 44.9544M170.447 44.9544L170.441 10.7171M170.447 44.9544C170.458 44.4369 170.458 43.9223 170.458 43.3963V13.5841C170.458 13.0625 170.458 12.545 170.447 12.0289V44.9544ZM169.915 10.7245C169.915 10.7243 169.915 10.724 169.915 10.7238L170.441 10.7171M169.915 10.7245C169.915 10.7252 169.915 10.7259 169.915 10.7265L170.441 10.7171M169.915 10.7245C169.898 9.79549 169.812 8.86902 169.658 7.95276L169.657 7.95056C169.511 7.06089 169.231 6.19858 168.826 5.39315M170.441 10.7171C170.424 9.76125 170.336 8.80801 170.177 7.86531C170.022 6.92208 169.725 6.00789 169.295 5.15408M168.826 5.39315C168.826 5.39356 168.826 5.39398 168.827 5.3944L169.295 5.15408M168.826 5.39315C168.825 5.39234 168.825 5.39153 168.825 5.39072L169.295 5.15408M168.826 5.39315C167.997 3.77862 166.683 2.46431 165.069 1.63486M169.295 5.15408C168.416 3.44056 167.021 2.04576 165.308 1.16586M165.308 1.16586L165.071 1.636C165.071 1.63562 165.07 1.63524 165.069 1.63486M165.308 1.16586C164.451 0.734595 163.535 0.433566 162.59 0.272715M165.308 1.16586L165.068 1.63408C165.068 1.63434 165.069 1.6346 165.069 1.63486M165.069 1.63486C164.26 1.22792 163.395 0.943774 162.503 0.791802M162.59 0.272715L162.503 0.791914C162.503 0.791877 162.503 0.79184 162.503 0.791802M162.59 0.272715C161.648 0.115714 160.696 0.0315346 159.741 0.0209254M162.59 0.272715L162.502 0.791623C162.502 0.791683 162.502 0.791743 162.503 0.791802M162.503 0.791802C161.588 0.639321 160.662 0.557564 159.735 0.547258L159.732 0.547229C159.652 0.545936 159.572 0.544605 159.491 0.543272L159.741 0.0209254M159.741 0.0209254C159.661 0.0196482 159.581 0.0183239 159.501 0.0169956C159.144 0.0110946 158.782 0.00511629 158.428 0.00284894M159.741 0.0209254L157.41 0.000185181V0.000113233C157.75 0.0003318 158.09 0.000972253 158.428 0.00284894M158.428 0.00284894L158.424 0.529203C158.424 0.529204 158.424 0.529204 158.425 0.529205L158.425 0.529206L158.428 0.00284894ZM0.526365 44.9503V44.9544H0M0.526365 44.9503V12.0331M0.526365 44.9503C0.526343 44.9489 0.526322 44.9475 0.5263 44.9461L0 44.9544M0 44.9544V12.0289M0.526365 12.0331C0.526343 12.0345 0.52632 12.0359 0.526298 12.0373L0 12.0289M0.526365 12.0331C0.528639 11.8898 0.53031 11.7486 0.531966 11.6085C0.535449 11.3141 0.538869 11.025 0.547705 10.7331L0.547794 10.7331L0.547909 10.7234C0.558909 9.79481 0.641825 8.86847 0.795915 7.9527L0.796066 7.9518C0.944377 7.06085 1.22779 6.19777 1.63652 5.39234L1.63698 5.39144C2.04326 4.58703 2.57651 3.85334 3.21622 3.21859L3.21772 3.2171C3.85496 2.57969 4.58796 2.04587 5.39016 1.63498M0.526365 12.0331V12.0289H0M0 12.0289C0.0022329 11.8889 0.00389347 11.7487 0.00555462 11.6085C0.00907555 11.3113 0.0125991 11.0139 0.0215807 10.7171C0.0329029 9.76139 0.118247 8.80794 0.276846 7.86536C0.433951 6.92159 0.734172 6.00733 1.16714 5.15414C1.59891 4.29926 2.16562 3.51953 2.84548 2.84495C3.52178 2.16847 4.29976 1.60196 5.15119 1.16598M5.39016 1.63498C5.38986 1.63513 5.38956 1.63528 5.38927 1.63543L5.15119 1.16598M5.39016 1.63498C6.19483 1.22702 7.05645 0.942818 7.94592 0.791972M5.39016 1.63498C5.39047 1.63482 5.39078 1.63466 5.3911 1.6345L5.15119 1.16598M5.15119 1.16598L7.94592 0.791972M7.94592 0.791972C8.86294 0.640134 9.79019 0.558391 10.7196 0.547458L10.7218 0.547424C10.814 0.545965 10.9056 0.544454 10.9968 0.54295C11.3431 0.537237 11.683 0.531629 12.0256 0.52939C12.0257 0.529389 12.0258 0.529388 12.0259 0.529388L7.94592 0.791972ZM157.41 0.52655V0.526478L13.5819 0.52655H156.884H157.41Z" stroke="#4BCFD0" stroke-width="1.05273"/>
<path d="M35.2795 28.9188C35.2948 27.7299 35.6106 26.5641 36.1975 25.53C36.7844 24.4959 37.6234 23.6271 38.6363 23.0044C37.9928 22.0854 37.1439 21.329 36.157 20.7955C35.1701 20.262 34.0724 19.9659 32.951 19.9308C30.559 19.6797 28.2401 21.3622 27.0211 21.3622C25.7786 21.3622 23.9019 19.9557 21.8809 19.9973C20.5737 20.0396 19.2998 20.4197 18.1832 21.1007C17.0665 21.7816 16.1454 22.7403 15.5094 23.8831C12.7545 28.6528 14.8094 35.6627 17.4484 39.5182C18.7687 41.4061 20.3118 43.515 22.3309 43.4402C24.3068 43.3582 25.0447 42.1803 27.4297 42.1803C29.7925 42.1803 30.4849 43.4402 32.5449 43.3926C34.6651 43.3582 36.0009 41.4963 37.2749 39.5905C38.2236 38.2453 38.9536 36.7585 39.4379 35.1853C38.2061 34.6644 37.155 33.7923 36.4155 32.678C35.676 31.5636 35.2809 30.2562 35.2795 28.9188Z" fill="#4BCFD0"/>
<path d="M31.3902 17.3966C32.5462 16.0089 33.1158 14.2252 32.9778 12.4243C31.2117 12.6098 29.5804 13.4539 28.4087 14.7884C27.8359 15.4403 27.3972 16.1987 27.1176 17.0203C26.8381 17.8419 26.7232 18.7106 26.7796 19.5766C27.6629 19.5857 28.5369 19.3942 29.3355 19.0166C30.1341 18.639 30.8367 18.0851 31.3902 17.3966Z" fill="#4BCFD0"/>
<path d="M60.2568 38.6618H53.5142L51.895 43.443H49.0391L55.4255 25.7539H58.3927L64.7792 43.443H61.8746L60.2568 38.6618ZM54.2125 36.4555H59.5571L56.9224 28.6961H56.8487L54.2125 36.4555Z" fill="#4BCFD0"/>
<path d="M78.5702 36.9941C78.5702 41.0018 76.4252 43.5767 73.1881 43.5767C72.3681 43.6196 71.5526 43.4307 70.835 43.0317C70.1174 42.6326 69.5266 42.0395 69.1304 41.3203H69.0691V47.7082H66.4219V30.545H68.9843V32.6901H69.033C69.4474 31.9743 70.0482 31.3843 70.7713 30.9829C71.4944 30.5814 72.3128 30.3834 73.1395 30.4101C76.4126 30.4101 78.5702 32.9975 78.5702 36.9941ZM75.8493 36.9941C75.8493 34.383 74.4999 32.6664 72.4411 32.6664C70.4185 32.6664 69.058 34.4192 69.058 36.9941C69.058 39.5926 70.4185 41.3329 72.4411 41.3329C74.4999 41.3329 75.8493 39.6288 75.8493 36.9941Z" fill="#4BCFD0"/>
<path d="M92.7675 36.9941C92.7675 41.0018 90.6225 43.5767 87.3854 43.5767C86.5654 43.6196 85.7499 43.4307 85.0323 43.0316C84.3146 42.6326 83.7239 42.0395 83.3276 41.3203H83.2664V47.7082H80.6191V30.545H83.1815V32.6901H83.2302C83.6447 31.9743 84.2454 31.3843 84.9685 30.9828C85.6916 30.5814 86.51 30.3834 87.3367 30.4101C90.6099 30.4101 92.7675 32.9975 92.7675 36.9941ZM90.0466 36.9941C90.0466 34.383 88.6972 32.6664 86.6384 32.6664C84.6158 32.6664 83.2553 34.4192 83.2553 36.9941C83.2553 39.5926 84.6158 41.3329 86.6384 41.3329C88.6972 41.3329 90.0466 39.6288 90.0466 36.9941H90.0466Z" fill="#4BCFD0"/>
<path d="M102.147 38.5139C102.344 40.268 104.048 41.4198 106.376 41.4198C108.608 41.4198 110.213 40.268 110.213 38.6863C110.213 37.3133 109.245 36.4912 106.952 35.9278L104.66 35.3755C101.412 34.591 99.9036 33.0719 99.9036 30.6069C99.9036 27.5549 102.563 25.4585 106.34 25.4585C110.078 25.4585 112.64 27.5549 112.727 30.6069H110.054C109.894 28.8416 108.435 27.776 106.303 27.776C104.17 27.776 102.711 28.8541 102.711 30.4233C102.711 31.6739 103.643 32.4097 105.923 32.9731L107.872 33.4516C111.501 34.3099 113.009 35.7678 113.009 38.3552C113.009 41.6646 110.373 43.7373 106.18 43.7373C102.257 43.7373 99.6086 41.7133 99.4375 38.5138L102.147 38.5139Z" fill="#4BCFD0"/>
<path d="M118.724 27.4966V30.5486H121.177V32.645H118.724V39.7548C118.724 40.8593 119.215 41.374 120.294 41.374C120.585 41.3689 120.875 41.3485 121.164 41.3128V43.3966C120.68 43.4872 120.187 43.5282 119.694 43.519C117.083 43.519 116.065 42.5383 116.065 40.0371V32.645H114.189V30.5486H116.065V27.4966H118.724Z" fill="#4BCFD0"/>
<path d="M122.594 36.9944C122.594 32.9366 124.984 30.3867 128.71 30.3867C132.45 30.3867 134.828 32.9365 134.828 36.9944C134.828 41.0633 132.462 43.602 128.71 43.602C124.96 43.602 122.594 41.0633 122.594 36.9944ZM132.131 36.9944C132.131 34.2108 130.855 32.5679 128.71 32.5679C126.565 32.5679 125.291 34.2233 125.291 36.9944C125.291 39.789 126.565 41.4194 128.71 41.4194C130.855 41.4194 132.131 39.789 132.131 36.9944H132.131Z" fill="#4BCFD0"/>
<path d="M137.01 30.5449H139.535V32.74H139.596C139.767 32.0544 140.168 31.4486 140.733 31.0242C141.298 30.5999 141.992 30.383 142.698 30.41C143.003 30.4089 143.307 30.442 143.605 30.5087V32.9849C143.22 32.8672 142.818 32.8131 142.416 32.8249C142.031 32.8093 141.648 32.8771 141.292 33.0237C140.936 33.1702 140.616 33.392 140.354 33.6739C140.092 33.9558 139.894 34.2911 139.773 34.6567C139.653 35.0223 139.613 35.4096 139.657 35.7921V43.4416H137.01L137.01 30.5449Z" fill="#4BCFD0"/>
<path d="M155.811 39.6541C155.455 41.9953 153.175 43.602 150.258 43.602C146.506 43.602 144.178 41.0883 144.178 37.0556C144.178 33.0103 146.519 30.3867 150.147 30.3867C153.715 30.3867 155.959 32.8378 155.959 36.7481V37.6551H146.85V37.8151C146.808 38.2897 146.867 38.7679 147.024 39.2178C147.181 39.6677 147.432 40.079 147.76 40.4246C148.088 40.7701 148.486 41.0418 148.928 41.2217C149.369 41.4016 149.843 41.4856 150.319 41.4681C150.945 41.5267 151.573 41.3818 152.109 41.055C152.646 40.7281 153.063 40.2368 153.298 39.6541L155.811 39.6541ZM146.863 35.805H153.31C153.334 35.3782 153.269 34.9511 153.12 34.5506C152.971 34.15 152.741 33.7846 152.444 33.4772C152.147 33.1699 151.789 32.9272 151.394 32.7645C150.999 32.6018 150.574 32.5226 150.147 32.5318C149.716 32.5292 149.288 32.612 148.89 32.7755C148.491 32.9389 148.128 33.1797 147.823 33.4841C147.517 33.7884 147.275 34.1501 147.11 34.5485C146.946 34.9469 146.861 35.3739 146.863 35.805V35.805Z" fill="#4BCFD0"/>
<path d="M53.8807 12.4403C54.4357 12.4005 54.9926 12.4843 55.5112 12.6858C56.0299 12.8873 56.4974 13.2013 56.88 13.6053C57.2626 14.0094 57.5507 14.4932 57.7237 15.0221C57.8966 15.551 57.95 16.1116 57.88 16.6636C57.88 19.379 56.4124 20.9399 53.8807 20.9399H50.8105V12.4403H53.8807ZM52.1307 19.7379H53.7332C54.1298 19.7616 54.5267 19.6965 54.8949 19.5475C55.2632 19.3985 55.5936 19.1692 55.8621 18.8764C56.1306 18.5836 56.3305 18.2346 56.4471 17.8548C56.5637 17.475 56.5941 17.074 56.5362 16.681C56.5899 16.2895 56.5564 15.8909 56.438 15.5139C56.3196 15.1369 56.1193 14.7908 55.8514 14.5003C55.5835 14.2098 55.2547 13.9821 54.8885 13.8337C54.5223 13.6852 54.1278 13.6195 53.7332 13.6414H52.1307V19.7379Z" fill="#4BCFD0"/>
<path d="M59.3717 17.7304C59.3314 17.3089 59.3796 16.8836 59.5133 16.4818C59.647 16.08 59.8631 15.7106 60.148 15.3972C60.4328 15.0839 60.7799 14.8335 61.1672 14.6622C61.5544 14.4908 61.9732 14.4023 62.3966 14.4023C62.8201 14.4023 63.2389 14.4908 63.6261 14.6622C64.0134 14.8335 64.3605 15.0839 64.6453 15.3972C64.9301 15.7106 65.1463 16.08 65.28 16.4818C65.4137 16.8836 65.4619 17.3089 65.4215 17.7304C65.4626 18.1524 65.415 18.5783 65.2817 18.9807C65.1484 19.3832 64.9323 19.7533 64.6474 20.0673C64.3625 20.3812 64.0151 20.6321 63.6275 20.8038C63.2399 20.9755 62.8206 21.0642 62.3966 21.0642C61.9727 21.0642 61.5534 20.9755 61.1658 20.8038C60.7782 20.6321 60.4307 20.3812 60.1459 20.0673C59.861 19.7533 59.6449 19.3832 59.5116 18.9807C59.3783 18.5783 59.3306 18.1524 59.3717 17.7304ZM64.1195 17.7304C64.1195 16.3401 63.4949 15.527 62.3987 15.527C61.2984 15.527 60.6794 16.3401 60.6794 17.7305C60.6794 19.132 61.2984 19.9388 62.3987 19.9388C63.4949 19.9388 64.1195 19.1264 64.1195 17.7304H64.1195Z" fill="#4BCFD0"/>
<path d="M73.4638 20.9392H72.1507L70.825 16.2151H70.7248L69.4047 20.9392H68.104L66.3359 14.5249H67.6199L68.7689 19.4194H68.8635L70.1823 14.5249H71.3967L72.7155 19.4194H72.8156L73.9591 14.5249H75.225L73.4638 20.9392Z" fill="#4BCFD0"/>
<path d="M76.7129 14.5251H77.9315V15.5441H78.0261C78.1866 15.1781 78.4572 14.8713 78.8003 14.6665C79.1434 14.4617 79.5419 14.369 79.9402 14.4013C80.2523 14.3779 80.5657 14.4249 80.8571 14.539C81.1486 14.6531 81.4106 14.8313 81.6238 15.0604C81.8371 15.2896 81.996 15.5637 82.0889 15.8626C82.1817 16.1615 82.2062 16.4774 82.1604 16.787V20.9394H80.8945V17.1049C80.8945 16.0741 80.4466 15.5615 79.5104 15.5615C79.2985 15.5516 79.0869 15.5877 78.8903 15.6672C78.6936 15.7468 78.5165 15.8679 78.371 16.0223C78.2255 16.1767 78.1152 16.3607 78.0475 16.5617C77.9798 16.7627 77.9563 16.976 77.9788 17.187V20.9394H76.7129L76.7129 14.5251Z" fill="#4BCFD0"/>
<path d="M84.1738 12.0205H85.4397V20.9387H84.1738V12.0205Z" fill="#4BCFD0"/>
<path d="M87.2018 17.7276C87.1615 17.3061 87.2097 16.8808 87.3434 16.4789C87.4771 16.0771 87.6933 15.7077 87.9782 15.3943C88.263 15.081 88.6102 14.8306 88.9975 14.6592C89.3848 14.4879 89.8036 14.3994 90.227 14.3994C90.6505 14.3994 91.0693 14.4879 91.4566 14.6592C91.8439 14.8306 92.191 15.081 92.4759 15.3943C92.7607 15.7077 92.9769 16.0771 93.1106 16.4789C93.2443 16.8808 93.2926 17.3061 93.2523 17.7276C93.2933 18.1496 93.2456 18.5755 93.1123 18.978C92.9789 19.3804 92.7628 19.7505 92.4779 20.0645C92.193 20.3784 91.8456 20.6293 91.4579 20.801C91.0703 20.9727 90.651 21.0614 90.227 21.0614C89.8031 21.0614 89.3838 20.9727 88.9961 20.801C88.6085 20.6293 88.261 20.3784 87.9761 20.0645C87.6912 19.7505 87.4751 19.3804 87.3418 18.978C87.2084 18.5755 87.1607 18.1496 87.2018 17.7276ZM91.9495 17.7276C91.9495 16.3373 91.3249 15.5242 90.2288 15.5242C89.1284 15.5242 88.5094 16.3373 88.5094 17.7276C88.5094 19.1292 89.1285 19.936 90.2288 19.936C91.3249 19.936 91.9495 19.1236 91.9495 17.7276H91.9495Z" fill="#4BCFD0"/>
<path d="M94.584 19.1265C94.584 17.9719 95.4437 17.3062 96.9697 17.2116L98.7072 17.1115V16.5578C98.7072 15.8804 98.2592 15.4978 97.394 15.4978C96.6873 15.4978 96.1977 15.7573 96.0571 16.2108H94.8316C94.961 15.109 95.9973 14.4023 97.4524 14.4023C99.0605 14.4023 99.9675 15.2029 99.9675 16.5578V20.9404H98.7489V20.039H98.6487C98.4454 20.3624 98.16 20.626 97.8215 20.8029C97.483 20.9798 97.1036 21.0638 96.7221 21.0461C96.4528 21.0741 96.1807 21.0454 95.9232 20.9618C95.6657 20.8782 95.4286 20.7415 95.2271 20.5607C95.0257 20.3798 94.8644 20.1587 94.7536 19.9117C94.6428 19.6647 94.585 19.3972 94.584 19.1265ZM98.7072 18.5784V18.0421L97.1408 18.1423C96.2575 18.2014 95.8568 18.5019 95.8568 19.0673C95.8568 19.6446 96.3576 19.9806 97.0462 19.9806C97.248 20.001 97.4518 19.9806 97.6456 19.9207C97.8393 19.8607 98.019 19.7624 98.174 19.6316C98.3289 19.5007 98.456 19.3401 98.5476 19.1591C98.6392 18.9782 98.6934 18.7807 98.7072 18.5784Z" fill="#4BCFD0"/>
<path d="M101.629 17.7288C101.629 15.702 102.671 14.4181 104.291 14.4181C104.692 14.3996 105.09 14.4956 105.438 14.6949C105.787 14.8942 106.071 15.1885 106.258 15.5434H106.353V12.0205H107.619V20.9387H106.406V19.9253H106.306C106.104 20.2779 105.81 20.5685 105.455 20.7658C105.1 20.963 104.697 21.0594 104.291 21.0444C102.66 21.0445 101.629 19.7605 101.629 17.7288ZM102.937 17.7288C102.937 19.0893 103.578 19.908 104.65 19.908C105.717 19.908 106.377 19.0775 106.377 17.7344C106.377 16.3976 105.71 15.5553 104.65 15.5553C103.585 15.5553 102.937 16.3795 102.937 17.7288H102.937Z" fill="#4BCFD0"/>
<path d="M112.86 17.7304C112.82 17.3089 112.868 16.8836 113.002 16.4818C113.135 16.08 113.351 15.7106 113.636 15.3972C113.921 15.0839 114.268 14.8335 114.655 14.6622C115.043 14.4908 115.461 14.4023 115.885 14.4023C116.308 14.4023 116.727 14.4908 117.114 14.6622C117.502 14.8335 117.849 15.0839 118.134 15.3972C118.418 15.7106 118.635 16.08 118.768 16.4818C118.902 16.8836 118.95 17.3089 118.91 17.7304C118.951 18.1524 118.903 18.5783 118.77 18.9807C118.637 19.3832 118.421 19.7533 118.136 20.0673C117.851 20.3812 117.503 20.6321 117.116 20.8038C116.728 20.9755 116.309 21.0642 115.885 21.0642C115.461 21.0642 115.042 20.9755 114.654 20.8038C114.266 20.6321 113.919 20.3812 113.634 20.0673C113.349 19.7533 113.133 19.3832 113 18.9807C112.867 18.5783 112.819 18.1524 112.86 17.7304ZM117.608 17.7304C117.608 16.3401 116.983 15.527 115.887 15.527C114.787 15.527 114.168 16.3401 114.168 17.7305C114.168 19.132 114.787 19.9388 115.887 19.9388C116.983 19.9388 117.608 19.1264 117.608 17.7304Z" fill="#4BCFD0"/>
<path d="M120.605 14.5251H121.824V15.5441H121.919C122.079 15.1781 122.35 14.8713 122.693 14.6665C123.036 14.4617 123.434 14.369 123.833 14.4013C124.145 14.3779 124.458 14.4249 124.75 14.539C125.041 14.6531 125.303 14.8313 125.516 15.0604C125.73 15.2896 125.889 15.5637 125.981 15.8626C126.074 16.1615 126.099 16.4774 126.053 16.787V20.9394H124.787V17.1049C124.787 16.0741 124.339 15.5615 123.403 15.5615C123.191 15.5516 122.98 15.5877 122.783 15.6672C122.586 15.7468 122.409 15.8679 122.264 16.0223C122.118 16.1767 122.008 16.3607 121.94 16.5617C121.872 16.7627 121.849 16.976 121.871 17.187V20.9394H120.605V14.5251Z" fill="#4BCFD0"/>
<path d="M133.204 12.9272V14.5534H134.593V15.6197H133.204V18.9179C133.204 19.5898 133.48 19.8841 134.111 19.8841C134.272 19.8835 134.433 19.8738 134.593 19.8548V20.9093C134.366 20.9499 134.136 20.9716 133.905 20.974C132.497 20.974 131.936 20.4787 131.936 19.2421V15.6196H130.918V14.5534H131.936V12.9272H133.204Z" fill="#4BCFD0"/>
<path d="M136.326 12.0205H137.581V15.5553H137.681C137.849 15.1859 138.127 14.8773 138.477 14.6717C138.827 14.4661 139.232 14.3734 139.637 14.4062C139.947 14.3893 140.258 14.4412 140.546 14.558C140.834 14.6749 141.093 14.8539 141.304 15.0823C141.515 15.3107 141.673 15.5829 141.766 15.8793C141.86 16.1758 141.887 16.4893 141.846 16.7975V20.9387H140.579V17.1098C140.579 16.0852 140.102 15.5664 139.207 15.5664C138.99 15.5485 138.771 15.5784 138.566 15.654C138.361 15.7296 138.175 15.849 138.021 16.0039C137.868 16.1588 137.75 16.3454 137.675 16.5507C137.601 16.756 137.573 16.9751 137.592 17.1925V20.9387H136.326L136.326 12.0205Z" fill="#4BCFD0"/>
<path d="M149.227 19.2057C149.055 19.7919 148.682 20.299 148.174 20.6383C147.666 20.9775 147.055 21.1273 146.447 21.0614C146.025 21.0726 145.605 20.9916 145.217 20.8242C144.829 20.6568 144.481 20.4069 144.2 20.0919C143.918 19.7769 143.708 19.4043 143.584 19C143.461 18.5957 143.427 18.1694 143.484 17.7506C143.428 17.3306 143.463 16.9033 143.586 16.4978C143.709 16.0923 143.918 15.718 144.198 15.4003C144.479 15.0825 144.824 14.8287 145.211 14.656C145.598 14.4834 146.018 14.3959 146.442 14.3995C148.227 14.3995 149.303 15.6189 149.303 17.6331V18.0748H144.774V18.1457C144.754 18.3811 144.784 18.618 144.861 18.8413C144.938 19.0646 145.061 19.2693 145.222 19.4423C145.382 19.6153 145.578 19.7528 145.795 19.846C146.012 19.9391 146.246 19.9859 146.482 19.9833C146.785 20.0196 147.092 19.9651 147.363 19.8266C147.635 19.6882 147.86 19.472 148.008 19.2057L149.227 19.2057ZM144.774 17.1386H148.014C148.03 16.9233 148 16.7071 147.928 16.5038C147.855 16.3005 147.741 16.1146 147.592 15.9581C147.444 15.8016 147.264 15.678 147.064 15.5951C146.865 15.5122 146.651 15.472 146.435 15.4769C146.216 15.4742 145.999 15.5153 145.796 15.5978C145.593 15.6804 145.409 15.8027 145.254 15.9575C145.099 16.1124 144.977 16.2967 144.895 16.4995C144.812 16.7023 144.771 16.9196 144.774 17.1386H144.774Z" fill="#4BCFD0"/>
</svg>
