<svg width="241" height="170" viewBox="0 0 241 170" fill="none" xmlns="http://www.w3.org/2000/svg">
<path d="M232.279 106.61L233.348 110.781C233.451 111.027 233.596 111.21 233.843 111.371L237.894 112.842C238.532 113.078 238.598 113.923 238.087 114.305L234.405 116.728C234.221 116.876 234.058 117.127 234.059 117.395L233.877 121.734C233.86 122.436 233.02 122.782 232.505 122.359L229.166 119.655C228.919 119.495 228.693 119.437 228.385 119.505L224.245 120.739C223.59 120.937 223.032 120.308 223.275 119.663L224.855 115.608C224.956 115.317 224.955 115.048 224.748 114.825L222.349 111.216C222.017 110.644 222.403 109.914 223.101 109.922L227.433 110.15C227.7 110.145 227.946 110.037 228.17 109.826L230.882 106.327C231.248 105.763 232.091 105.953 232.279 106.61Z" fill="#F9D222"/>
<path d="M105.414 144.283C137.769 142.219 162.319 114.206 160.246 81.7137C158.173 49.2219 130.263 24.5552 97.9077 26.6192C65.5518 28.6832 41.0025 56.6963 43.0752 89.1882C45.1479 121.68 73.0577 146.347 105.414 144.283Z" fill="#E2FFFF"/>
<path fill-rule="evenodd" clip-rule="evenodd" d="M0.14721 49.3791C0.877685 52.6466 4.08656 54.7117 7.34761 53.9798C10.5826 53.2479 12.6436 50.0326 11.9131 46.7651C11.1826 43.4976 7.97373 41.4325 4.71268 42.1383C1.47772 42.8702 -0.583265 46.1116 0.14721 49.3791Z" fill="#8ED9FF"/>
<path fill-rule="evenodd" clip-rule="evenodd" d="M167.65 31.4906C170.676 30.0529 171.954 26.4455 170.519 23.4394C169.085 20.4332 165.484 19.1524 162.458 20.5901C159.432 22.0278 158.153 25.6352 159.588 28.6413C161.023 31.6736 164.623 32.9283 167.65 31.4906Z" fill="#51CB4D"/>
<path fill-rule="evenodd" clip-rule="evenodd" d="M167.888 109.204C167.706 110.537 168.645 111.739 169.949 111.922C171.28 112.105 172.48 111.164 172.663 109.831C172.845 108.498 171.906 107.296 170.602 107.113C169.271 106.93 168.071 107.871 167.888 109.204Z" fill="#EF3C48"/>
<path opacity="0.93" fill-rule="evenodd" clip-rule="evenodd" d="M64.0579 11.9089C63.8753 13.242 64.8144 14.4445 66.1189 14.6275C67.4494 14.8105 68.6494 13.8694 68.8321 12.5363C69.0147 11.2031 68.0755 10.0007 66.7711 9.81767C65.4406 9.63469 64.2405 10.5757 64.0579 11.9089Z" fill="#528AFF"/>
<path opacity="0.93" fill-rule="evenodd" clip-rule="evenodd" d="M167.467 140.564L168.249 149.504C168.276 149.844 168.041 150.131 167.702 150.158C167.597 150.158 167.493 150.158 167.389 150.105L159.353 146.446C159.04 146.315 158.91 145.949 159.066 145.635C159.119 145.531 159.171 145.452 159.249 145.4L166.502 140.12C166.762 139.911 167.154 139.989 167.336 140.25C167.441 140.329 167.467 140.433 167.467 140.564Z" fill="#528AFF"/>
<path fill-rule="evenodd" clip-rule="evenodd" d="M31.2632 10.2111L34.2112 18.6806C34.3155 18.9943 34.159 19.3341 33.8459 19.4386C33.7416 19.4648 33.6372 19.4909 33.5329 19.4648L24.8454 17.8964C24.5063 17.8441 24.2976 17.5304 24.3498 17.1906C24.3758 17.086 24.4019 16.9815 24.4802 16.903L30.2196 10.002C30.4284 9.74061 30.8197 9.71447 31.0806 9.92359C31.1588 10.002 31.211 10.1066 31.2632 10.2111Z" fill="#F9D222"/>
<path fill-rule="evenodd" clip-rule="evenodd" d="M34.94 118.457L31.0268 110.38C30.8702 110.092 31.0007 109.726 31.3137 109.569C31.4181 109.517 31.5225 109.491 31.6268 109.517L40.4186 110.066C40.7577 110.092 40.9925 110.38 40.9925 110.693C40.9925 110.798 40.9404 110.903 40.8882 110.981L36.0097 118.509C35.827 118.797 35.4618 118.875 35.1748 118.692C35.0705 118.64 34.9922 118.562 34.94 118.457Z" fill="#EF3C48"/>
<path d="M125.011 126.858L82.0841 131.841C81.0183 131.974 80.0324 131.202 79.8992 130.109L76.7283 102.584C76.5951 101.518 77.3678 100.532 78.4603 100.399L121.387 95.4427C122.453 95.3094 123.439 96.0822 123.572 97.1747L126.743 124.7C126.849 125.766 126.077 126.752 125.011 126.858Z" fill="#EE1700"/>
<path d="M109.104 128.723L98.0456 130.002C97.8858 130.029 97.7525 129.895 97.7259 129.762L94.1553 98.8263C94.102 98.3466 94.4484 97.9469 94.9014 97.867L104.814 96.7212C105.293 96.6679 105.693 97.0143 105.773 97.4673L109.344 128.403C109.37 128.563 109.264 128.696 109.104 128.723Z" fill="#F9D222"/>
<path d="M64.898 92.3242L56.1048 96.2145C55.7318 96.3744 55.3055 96.2145 55.1456 95.8415L34.2019 48.465C34.042 48.092 34.2019 47.6656 34.5749 47.5057L43.3681 43.6154C43.7411 43.4556 44.1674 43.6154 44.3273 43.9885L65.271 91.3383C65.4309 91.7114 65.271 92.1377 64.898 92.3242Z" fill="#EE1700"/>
<path d="M41.9559 71.8609C41.9292 71.8875 41.8759 71.9142 41.8493 71.9675C41.8493 71.9675 42.1424 71.7543 42.0091 71.8609C42.3289 71.6477 42.5421 71.5944 42.9684 71.4879C42.8085 71.5412 42.6487 71.5412 43.3414 71.4079C43.1016 71.4612 43.6878 71.3546 43.6612 71.3546C43.5013 71.3813 43.3681 71.3013 43.8477 71.3546C43.7944 71.3546 43.7145 71.3546 43.6612 71.3546C43.6079 71.3546 43.5813 71.3546 43.528 71.3546C43.2882 71.3546 43.7944 71.4079 43.6346 71.3813C43.528 71.3546 43.4214 71.3546 43.3414 71.328C43.1016 71.2747 42.8618 71.2214 42.622 71.1415C42.4888 71.1148 42.3822 71.0615 42.249 71.0082C42.1957 70.9816 42.1424 70.9816 42.0891 70.9549C41.8493 70.875 42.1957 71.0082 42.0624 70.9283C41.796 70.8217 41.5029 70.7151 41.2364 70.5819C40.7301 70.3421 40.2239 70.1023 39.7442 69.8358C38.0123 68.8766 36.3869 67.7574 34.9213 66.4251C33.9621 65.5725 33.0295 64.6399 32.2301 63.654C32.2567 63.7072 32.31 63.7339 32.3367 63.7872C31.0577 62.1884 29.752 60.1367 30.0451 58.005C30.0451 58.0583 30.0185 58.1116 30.0185 58.1649C30.0984 57.7119 30.2316 57.2856 30.4448 56.8859C30.578 56.6727 30.7113 56.4596 30.8711 56.2464C30.7646 56.3796 30.9777 56.1132 31.0044 56.0865C31.111 55.9799 31.1909 55.9 31.2975 55.7934C31.4041 55.6868 31.5106 55.6069 31.6172 55.5269C31.6705 55.4737 31.7771 55.3671 31.5639 55.5536C31.6172 55.5269 31.6705 55.4737 31.7238 55.447C31.8304 55.3671 31.937 55.3138 32.0436 55.2338C32.0969 55.2072 32.1501 55.1805 32.2034 55.1539C31.8837 55.3937 32.0436 55.2338 32.1768 55.1805C32.2034 55.1805 32.3367 55.1006 32.3367 55.1006C32.3367 55.1006 31.8837 55.2871 32.1501 55.1805C32.2034 55.1539 32.2567 55.1273 32.3367 55.1273C32.6298 55.0207 32.0969 55.2072 32.0969 55.2072C32.1501 55.2072 32.2301 55.1805 32.2834 55.1539C32.5765 55.074 32.0436 55.2072 32.0436 55.2072C32.0969 55.2072 32.1768 55.1805 32.2301 55.1805C32.5765 55.1006 31.8038 55.2338 32.1235 55.2072C32.1768 55.2072 32.2567 55.2072 32.31 55.1805C32.5765 55.1539 32.2034 55.1805 32.1768 55.1805C32.2834 55.2072 32.4166 55.1805 32.5498 55.1805C32.8429 55.1805 32.3633 55.1539 32.5232 55.1805C32.5498 55.1805 32.5765 55.1805 32.6031 55.2072C32.7364 55.2338 32.8696 55.2605 33.0028 55.3138C33.1893 55.3671 32.8429 55.2605 32.8962 55.2605C32.9229 55.2871 32.9762 55.2871 33.0295 55.3138C33.1094 55.3404 33.216 55.3937 33.2959 55.447C33.5091 55.5536 33.6956 55.6868 33.8821 55.82C34.5483 56.3263 35.1078 56.9658 35.6408 57.6053C35.6141 57.552 35.5608 57.5254 35.5342 57.4721C37.053 59.364 38.2521 61.4423 39.2646 63.6273C40.1706 65.6258 41.0232 67.6775 41.6361 69.7825C41.8226 70.4487 42.1157 71.2747 42.0091 71.9941C42.0091 71.9408 42.0358 71.8876 42.0358 71.8343C41.8759 71.9675 41.716 72.1274 41.9559 71.8609C41.8226 72.0208 41.6627 72.2073 41.8759 72.3672C42.0891 72.5271 42.622 72.5004 42.8618 72.4738C43.3681 72.4205 43.8744 72.3139 44.354 72.1274C44.727 71.9941 45.18 71.8343 45.4465 71.5412C45.7929 71.1681 45.7662 70.6885 45.6863 70.1822C45.5797 69.4894 45.3665 68.7966 45.1534 68.1305C44.5672 66.2919 43.8477 64.5066 43.0483 62.748C42.2223 60.9094 41.2631 59.1774 40.0906 57.5254C39.2113 56.273 38.1988 54.8874 36.8132 54.1147C35.321 53.2887 33.4025 53.5551 31.8038 53.9815C29.4589 54.5943 26.5545 56.1398 26.0749 58.7777C25.7285 60.6963 26.6344 62.5348 27.7536 64.0536C28.9526 65.7323 30.4448 67.1979 32.0436 68.5035C33.4558 69.6493 34.9746 70.6352 36.5734 71.4612C37.506 71.9408 38.4652 72.3672 39.4511 72.6336C40.6768 72.98 41.9559 72.9534 43.2082 72.607C43.9543 72.3938 44.807 72.1007 45.3665 71.5412C45.9794 70.9549 44.807 70.9016 44.4606 70.9283C43.9543 70.9816 43.448 71.0882 42.9684 71.2747C42.6753 71.4346 42.249 71.5678 41.9559 71.8609Z" fill="#F9D222"/>
<path d="M44.4076 69.9158C44.4076 69.9158 38.8653 57.0991 47.7117 47.5332V53.0756L52.0817 50.8373C52.0817 50.8373 45.1004 60.2966 46.1663 71.8609L44.4076 69.9158Z" fill="#F4A400"/>
<path d="M44.7274 71.2743C43.2085 71.3009 41.4233 71.7806 40.3841 72.953C39.7446 73.6724 39.3182 74.5517 38.9452 75.4311C38.2258 77.2163 37.7728 79.1082 37.4797 81.0001C37.2132 82.732 37.1066 84.5173 37.2132 86.2759C37.3198 88.0879 37.5863 90.0597 38.5721 91.6318C38.9985 92.3246 39.5847 92.9641 40.3041 93.3638C41.4233 93.9766 42.7822 94.0832 44.0346 93.95C45.7932 93.7635 47.6051 93.2305 49.0973 92.2446C49.7901 91.7917 50.4562 91.2054 50.8826 90.486C51.4421 89.5267 51.4688 88.2744 51.4155 87.2086C51.3089 85.0769 50.8026 82.9452 50.1365 80.9201C49.497 79.0016 48.7243 77.1097 47.8716 75.2978C47.4985 74.4984 47.1255 73.7257 46.6725 72.9796C46.3794 72.4734 46.033 71.8871 45.6067 71.5141C45.3669 71.3542 45.0471 71.2743 44.7274 71.2743C43.8214 71.2476 42.7556 71.5141 42.0095 71.9937C41.8496 72.1003 41.4766 72.3135 41.5565 72.5533C41.6098 72.7931 42.0628 72.8198 42.2226 72.8198C41.7697 72.7931 41.8496 72.7665 41.9562 72.7931C42.0095 72.8197 41.7164 72.6599 41.7963 72.7398C41.823 72.7665 41.9029 72.7931 41.9295 72.8198C42.0361 72.9263 42.1427 73.0329 42.2493 73.1395C42.2226 73.0862 42.1694 73.0596 42.1427 73.0063C42.7289 73.7257 43.1553 74.5784 43.5816 75.4044C44.1411 76.5235 44.6474 77.6693 45.1271 78.8417C46.1396 81.3198 46.9656 83.8245 47.3653 86.4891C47.5518 87.6615 47.6851 88.8872 47.4985 90.0863C47.4985 90.033 47.5252 89.9797 47.5252 89.9264C47.4719 90.2728 47.392 90.6459 47.2321 90.9656C47.1788 91.0722 47.1255 91.1788 47.0456 91.2854C47.0189 91.312 46.9923 91.3653 46.9656 91.392C46.939 91.4186 46.939 91.4186 46.9123 91.4453C46.7791 91.6051 46.9656 91.4186 46.8324 91.5252C46.6725 91.6851 46.5126 91.8449 46.3528 91.9782C46.2995 92.0048 46.2462 92.0581 46.2195 92.0848C46.1129 92.1647 46.2995 92.0315 46.2995 92.0315C46.1929 92.0848 46.0597 92.1913 45.9531 92.2446C45.8998 92.2713 45.8465 92.2979 45.7932 92.3246C45.66 92.4045 45.9797 92.2446 45.9531 92.2446C45.8465 92.2979 45.7399 92.3512 45.6333 92.4045C45.3669 92.5377 46.0863 92.2446 45.6866 92.3779C45.6333 92.4045 45.6067 92.4045 45.5534 92.4312C45.207 92.5644 46.0597 92.2979 45.7133 92.3779C45.66 92.3779 45.6333 92.4045 45.58 92.4045C45.3402 92.4578 46.0597 92.2979 45.8198 92.3512C45.7133 92.3779 45.6067 92.4045 45.5001 92.4045C45.5001 92.4045 46.0064 92.3512 45.7133 92.3779C45.66 92.3779 45.58 92.3779 45.5267 92.4045C45.4734 92.4045 45.4468 92.4045 45.3935 92.4045C45.207 92.4312 45.7666 92.4045 45.5001 92.4045C45.3935 92.4045 45.2869 92.4045 45.1803 92.4045C44.8606 92.3779 45.3935 92.4578 45.0738 92.4045C44.8606 92.3779 44.6474 92.3246 44.4343 92.2713C44.381 92.2446 44.3277 92.2446 44.2744 92.218C44.4343 92.2713 44.2744 92.218 44.2477 92.1913C44.1678 92.1381 44.0612 92.1114 43.9813 92.0581C43.8214 91.9782 43.6615 91.8716 43.5283 91.765C43.2352 91.5518 42.9687 91.2854 42.7289 90.9923C42.7556 91.0456 42.8089 91.0722 42.8355 91.1255C41.8762 89.9264 41.4766 88.381 41.2634 86.8888C41.0236 85.29 41.0236 83.638 41.1302 82.0126C41.1835 81.2399 41.2634 80.4671 41.3966 79.721C41.3966 79.7743 41.37 79.8276 41.37 79.8809C41.6364 78.2822 42.0361 76.6834 42.5957 75.1646C42.8888 74.4185 43.2085 73.6458 43.6349 72.9796C43.7415 72.8198 43.848 72.6865 43.9546 72.5533C43.7681 72.7665 43.9546 72.5533 44.0079 72.5C44.0612 72.4467 44.1145 72.3934 44.1678 72.3401C44.301 72.2335 44.4343 72.2335 44.1145 72.3668C44.1411 72.3401 44.1678 72.3401 44.1944 72.3135C44.3277 72.2335 44.2477 72.2602 43.9546 72.4201C43.9813 72.3934 44.0079 72.3934 44.0346 72.3668C43.7948 72.4734 43.5283 72.5799 43.2618 72.6332C42.8888 72.7398 42.6223 72.7665 42.1694 72.7931C43.0753 72.7665 44.1145 72.5799 44.8872 72.0737C45.0471 71.9671 45.4202 71.7539 45.3402 71.5141C45.3402 71.3009 44.8872 71.2743 44.7274 71.2743Z" fill="#F9D222"/>
<path d="M45.2868 72.9531C45.2868 72.9531 50.4294 85.9563 63.4593 86.4359L59.5423 82.519L64.232 81.0268C64.232 81.0268 52.6144 79.2682 45.1802 70.3418L45.2868 72.9531Z" fill="#F4A400"/>
<path d="M66.9483 34.7426C65.0298 34.3695 62.5784 34.7426 61.2461 36.3413C60.127 37.7003 60.2869 39.4855 60.953 41.0043C61.3527 41.9103 61.9922 42.5765 62.7649 43.1627C64.2305 44.2818 65.8292 45.2144 67.4013 46.1737C68.4139 46.7865 69.3731 47.4527 70.3857 48.0655C70.1725 47.9323 70.2524 47.9589 70.3857 48.0655C70.439 48.1188 70.4922 48.1455 70.5455 48.1988C70.6255 48.2787 70.7054 48.3586 70.7854 48.4386C70.9186 48.5718 70.7854 48.4386 70.7321 48.3853C70.7587 48.4386 70.7854 48.4652 70.812 48.5185C70.9186 48.705 71.0252 48.9182 71.1051 49.1314C71.718 50.7301 71.265 52.622 70.4656 54.1141C70.3857 54.274 70.2791 54.4339 70.1991 54.5938C70.0926 54.7537 70.1725 54.6471 70.1725 54.6204C70.1459 54.6471 70.1192 54.7004 70.0926 54.727C70.0393 54.8069 69.986 54.8869 69.906 54.9668C69.6662 55.2599 69.4264 55.553 69.16 55.8195C69.0267 55.9527 68.8935 56.0859 68.7336 56.2192C68.707 56.2458 68.6803 56.2725 68.627 56.2991C68.627 56.2991 68.7603 56.1925 68.6537 56.2725C68.5737 56.3258 68.4938 56.4057 68.4139 56.459C68.0941 56.6988 67.7744 56.912 67.428 57.1251C67.2681 57.2051 67.1082 57.285 66.975 57.365C66.8684 57.4182 67.0283 57.3383 67.0549 57.3383C67.0016 57.3649 66.9483 57.3916 66.895 57.4182C66.8151 57.4715 66.7085 57.4982 66.6286 57.5515C66.2822 57.6847 65.9358 57.8179 65.5894 57.9245C65.4562 57.9778 65.696 57.8979 65.696 57.8979L65.5894 57.9245C65.5095 57.9512 65.4029 57.9778 65.3229 57.9778C65.1631 58.0045 64.9765 58.0577 64.8167 58.0844C64.79 58.0844 64.7367 58.0844 64.7101 58.111C64.4969 58.1377 64.8167 58.111 64.8433 58.111C64.7634 58.111 64.6834 58.1377 64.6035 58.1377C64.417 58.1377 64.2571 58.1643 64.0706 58.1377C64.0439 58.1377 63.9906 58.1377 63.964 58.1377C63.8308 58.1377 64.1505 58.1377 64.1505 58.1377C64.0706 58.111 64.0173 58.1377 63.9374 58.111C63.8574 58.111 63.8041 58.0844 63.7242 58.0844C63.6709 58.0844 63.6442 58.0577 63.591 58.0577C63.4311 58.0311 63.6709 58.0577 63.7242 58.0844C63.6176 58.0311 63.4577 58.0045 63.3511 57.9778C63.3245 57.9778 63.2978 57.9512 63.2712 57.9512C63.138 57.9245 63.4844 58.0577 63.3511 58.0045C63.2978 57.9778 63.2179 57.9512 63.138 57.8979C63.0847 57.8712 63.0314 57.8446 62.9781 57.7913C62.9514 57.7646 62.9248 57.7646 62.8982 57.738C62.7916 57.6847 63.058 57.8712 62.9514 57.7913C62.8449 57.6847 62.7116 57.5781 62.6051 57.4715C62.5518 57.4182 62.4985 57.3383 62.4452 57.285C62.5518 57.4182 62.3919 57.2051 62.3652 57.1784C62.2587 57.0186 62.1787 56.8587 62.1254 56.6988C61.5659 55.3932 61.7524 53.6079 62.4985 52.4355C62.6317 52.2489 62.9515 51.9025 63.1913 51.6894C63.2978 51.5828 63.058 51.7693 63.1646 51.716C63.1913 51.6894 63.2179 51.6627 63.2712 51.6361C63.3245 51.5828 63.4044 51.5295 63.4844 51.5028C63.5643 51.4496 63.6176 51.4229 63.6975 51.3696C63.7242 51.343 63.7775 51.343 63.8041 51.3163C63.9107 51.2364 63.591 51.3963 63.8041 51.3163C63.964 51.263 64.0972 51.1831 64.2571 51.1298C64.337 51.1032 64.417 51.0765 64.4969 51.0499C64.7101 50.9699 64.417 51.0499 64.417 51.0765C64.4436 51.0499 64.5502 51.0499 64.5769 51.0232C64.7367 50.9699 64.8966 50.9433 65.0831 50.9166C65.2164 50.89 65.5628 50.9166 65.6693 50.8367C65.6693 50.8367 65.3762 50.8633 65.5361 50.8633C65.5894 50.8633 65.616 50.8633 65.6693 50.8633C65.7759 50.8633 65.8825 50.8367 65.9624 50.8367C66.149 50.8367 66.3355 50.8101 66.522 50.8101C66.895 50.8101 67.2681 50.8101 67.6145 50.8367C67.6678 50.8367 68.0142 50.8633 67.7744 50.8367C67.5612 50.8367 67.8277 50.8367 67.8809 50.8367C68.0675 50.8367 68.254 50.8633 68.4405 50.89C68.7336 50.9166 69.0267 50.9433 69.3465 50.9699C69.9327 51.0232 70.5189 51.0765 71.1051 51.1831C71.265 51.2097 71.4515 51.2364 71.6114 51.263C71.6913 51.2897 71.7713 51.2897 71.8512 51.3163C71.8778 51.3163 71.9311 51.343 71.9578 51.343C72.1976 51.3963 71.9311 51.3163 71.9045 51.343C71.9578 51.263 72.8637 51.6094 72.9437 51.6361C73.1035 51.6894 73.2634 51.7427 73.4233 51.796C73.5299 51.8226 73.6098 51.8759 73.6898 51.9025C73.823 51.9558 73.6098 51.8759 73.6098 51.8759C73.6631 51.9025 73.7164 51.9292 73.7697 51.9558C74.1161 52.1157 74.4358 52.3022 74.7556 52.5154C74.8089 52.5687 74.9688 52.6753 74.8355 52.5687C74.9155 52.622 74.9954 52.7019 75.0753 52.7552C75.2086 52.8884 75.3685 52.995 75.5017 53.1549C75.6349 53.2881 75.7681 53.448 75.8747 53.5812C75.928 53.6612 75.8747 53.5812 75.8747 53.5812C75.9014 53.6079 75.928 53.6612 75.9547 53.6878C75.9813 53.7411 76.008 53.7677 76.0346 53.821C76.6208 54.7536 76.8873 55.9261 77.2337 56.9653C77.5534 57.9512 77.8465 58.9371 78.1663 59.923C78.3528 60.5625 78.5127 61.202 78.7791 61.8148C79.392 63.1738 80.8575 63.68 82.2431 63.8399C82.4296 63.8666 82.5895 63.8932 82.776 63.8932C82.856 63.8932 82.9359 63.9198 83.0425 63.9465C83.0958 63.9465 83.1224 63.9731 83.1757 63.9731C83.3356 63.9998 82.9626 63.9199 83.1224 63.9731C83.3356 64.0264 83.5488 64.1064 83.7619 64.1597C83.7619 64.1597 83.9218 64.2396 83.8419 64.1863C83.7353 64.133 83.9218 64.213 83.9218 64.213C84.055 64.2662 84.1883 64.3462 84.2948 64.4261C84.5613 64.586 84.8011 64.7459 85.0676 64.9058C84.9077 64.7992 85.0143 64.8791 85.0942 64.9324C85.1475 64.9857 85.2275 65.039 85.2807 65.0923C85.4406 65.2255 85.5739 65.3587 85.7071 65.5186C85.7337 65.5453 85.867 65.7318 85.787 65.6252C85.8403 65.7051 85.8936 65.7851 85.9469 65.865C86.0535 66.0782 86.1334 66.2913 86.2134 66.5045C86.2666 66.6377 86.2134 66.4246 86.24 66.5844C86.2666 66.6644 86.2666 66.771 86.2933 66.8509C86.3199 67.0374 86.3199 67.1973 86.3466 67.3838C86.3466 67.5703 86.3466 67.7569 86.3199 67.9434C86.3199 67.9967 86.2933 68.1566 86.2933 68.1299C86.3199 68.05 86.2666 68.1832 86.2666 68.1832C86.24 68.2365 86.24 68.2898 86.2134 68.3431C86.1601 68.5029 86.0801 68.6628 86.0002 68.8494C85.9735 68.876 85.9735 68.9293 85.9469 68.9559C85.9469 68.9559 86.0268 68.8493 85.9735 68.9293C85.9202 69.0092 85.8403 69.0892 85.7604 69.1691C85.7337 69.1957 85.7071 69.2224 85.6804 69.249C85.7071 69.2224 85.8137 69.1691 85.7337 69.1957C85.7071 69.1957 85.4939 69.329 85.6005 69.2757C85.7337 69.2224 85.5472 69.3023 85.5472 69.3023C85.6005 69.3023 85.787 69.2757 85.5472 69.3023C85.8936 69.2757 85.4939 69.3023 85.4939 69.3023C85.4939 69.2757 85.7604 69.329 85.6005 69.3023C85.5472 69.3023 85.4939 69.2757 85.4673 69.2757C85.2275 69.249 85.6538 69.329 85.4406 69.2757C85.334 69.249 84.8278 69.0359 85.2541 69.2224C84.6679 68.9559 83.9218 68.9026 83.3622 69.2757C82.9359 69.5688 82.8293 70.1816 83.3889 70.4215C84.4814 70.9011 85.7071 71.0876 86.8529 70.6879C87.7855 70.3948 88.5049 69.6487 88.798 68.7161C89.3309 67.0108 88.798 65.1989 87.3858 64.0797C86.6663 63.5202 85.867 63.0405 85.0143 62.7208C84.1616 62.401 83.3089 62.3477 82.4296 62.2145C82.403 62.2145 82.3497 62.1879 82.323 62.1879C82.1898 62.1612 82.4563 62.2145 82.4563 62.2145C82.403 62.1879 82.2698 62.1612 82.2165 62.1346C82.1898 62.1346 82.1365 62.1079 82.1099 62.1079C81.95 62.0546 82.1632 62.1346 82.1632 62.1346C82.1365 62.1612 81.95 62.028 81.9234 62.0013C81.8967 61.9747 81.7635 61.8681 81.8434 61.9481C81.95 62.028 81.8168 61.9214 81.8168 61.9214C81.7901 61.8948 81.7368 61.8681 81.7102 61.8415C81.6835 61.8148 81.6303 61.7615 81.6036 61.7349C81.5503 61.6816 81.497 61.5484 81.5503 61.6816C81.6036 61.8148 81.5503 61.7082 81.5237 61.6549C81.497 61.6017 81.4704 61.575 81.4437 61.5217C81.3904 61.4151 81.3371 61.3085 81.2839 61.202C81.1773 60.9089 81.0707 60.6158 80.9908 60.296C80.4312 58.5107 79.9249 56.6988 79.3121 54.9402C79.1522 54.4605 78.9657 53.9809 78.7525 53.5546C78.4327 52.9417 77.9265 52.3822 77.3935 51.9292C74.9954 49.9307 71.6913 49.5843 68.6803 49.3712C65.3496 49.158 60.8731 49.3978 59.5941 53.1282C59.0345 54.7537 59.1144 56.7254 60.1536 58.1643C61.1395 59.5233 62.8715 59.9763 64.4969 59.923C67.9076 59.843 71.4515 57.8179 73.0769 54.8069C74.0095 53.1016 74.4358 51.0232 73.8496 49.1314C73.6365 48.4119 73.2368 47.7991 72.6239 47.3194C71.6647 46.5733 70.5988 45.9605 69.5596 45.321C68.627 44.7348 67.6944 44.1486 66.7618 43.5624C66.3888 43.3225 66.0424 43.0827 65.6693 42.8429C65.5361 42.7363 65.3762 42.6564 65.243 42.5498C65.2164 42.5232 64.9765 42.3633 65.1098 42.4699C65.2164 42.5498 65.0298 42.4166 65.0032 42.3899C64.79 42.2301 64.5769 42.0435 64.3903 41.857C64.3104 41.7771 64.2305 41.6971 64.1505 41.6172C64.1239 41.5639 64.0706 41.5373 64.0439 41.484C64.0173 41.4573 63.8841 41.3241 63.9906 41.4307C64.0972 41.5373 63.9906 41.404 63.964 41.3774C63.9373 41.3241 63.9107 41.2975 63.8841 41.2442C63.8308 41.1642 63.7775 41.0576 63.7242 40.9511C63.6176 40.7645 63.5377 40.578 63.4577 40.3648C63.4044 40.205 63.3511 40.0451 63.2978 39.8852C63.2446 39.752 63.2978 39.9385 63.2712 39.7786C63.2446 39.6721 63.2179 39.5388 63.2179 39.4322C63.1646 39.0592 63.138 38.5796 63.2179 38.2598C63.2712 38.0466 63.3511 37.8335 63.4577 37.6203C63.4844 37.567 63.5377 37.4871 63.5643 37.4338C63.5643 37.4604 63.4844 37.5404 63.5643 37.4604C63.6442 37.3805 63.6975 37.2739 63.7775 37.194C63.8308 37.1407 63.9107 37.0607 63.964 37.0075C64.0706 36.9009 63.8308 37.0874 63.964 37.0075C63.9906 36.9808 64.0439 36.9542 64.0706 36.9275C64.1505 36.8742 64.2305 36.8209 64.337 36.7676C64.3637 36.741 64.417 36.7144 64.4436 36.6877C64.3637 36.741 64.3104 36.741 64.417 36.6877C64.5236 36.6344 64.6301 36.6078 64.7101 36.5545L64.8433 36.5012C64.8433 36.5012 64.6035 36.5545 64.7634 36.5278C64.87 36.5012 64.9765 36.4745 65.0831 36.4479C65.1364 36.4479 65.1897 36.4212 65.2164 36.4212C65.4029 36.3946 64.9765 36.4479 65.1631 36.4212C65.3762 36.4212 65.616 36.3946 65.8292 36.3946C65.5894 36.368 65.7759 36.3946 65.9091 36.4212C66.0424 36.4479 66.2023 36.4745 66.3355 36.5012C66.8418 36.6078 67.7477 36.4479 67.9609 35.8883C68.1474 35.1156 67.3747 34.8225 66.9483 34.7426Z" fill="#528AFF"/>
<path d="M73.3725 26.2158C73.0528 27.1485 72.8396 28.1344 73.106 29.1203C73.3459 29.9729 73.9321 30.8256 74.7314 31.2253C75.0778 31.4118 75.4509 31.4651 75.8506 31.4917C76.197 31.5184 76.57 31.545 76.8098 31.5717C77.3161 31.6516 77.8224 31.7582 78.3287 31.9181C78.5685 31.998 78.7816 32.078 79.0214 32.1579C79.0481 32.1845 79.2879 32.2645 79.1547 32.2112C79.2613 32.2645 79.3678 32.3178 79.5011 32.3711C79.5544 32.3977 79.6077 32.4243 79.6609 32.4776C79.6609 32.4776 79.5011 32.3711 79.6077 32.451C79.6876 32.5309 79.8475 32.6642 79.6876 32.5043C79.8475 32.6642 79.5277 32.2645 79.7409 32.5576C79.8208 32.6642 79.7142 32.5043 79.6876 32.4776C79.7675 32.5576 79.7409 32.6109 79.6876 32.4776C79.7142 32.5576 79.7409 32.6109 79.7409 32.6908C79.7409 32.6642 79.7142 32.5309 79.7409 32.6642C79.7409 32.7707 79.7675 32.8773 79.7675 33.0106C79.7675 32.8507 79.7675 33.1171 79.7675 33.1704C79.7675 33.277 79.7409 33.3836 79.7409 33.4635C79.6876 33.7833 79.6077 34.0764 79.4211 34.3429C79.208 34.6893 78.9149 34.9557 78.675 35.2755C77.5559 36.8476 77.7691 39.0592 78.3287 40.7912C78.9682 42.6564 80.2205 44.2285 81.8459 45.321C82.0058 45.4276 82.2989 45.5075 82.4588 45.3743C82.6453 45.2677 82.6719 44.9746 82.6453 44.7881C82.5654 44.1486 82.139 43.5623 81.6061 43.216C81.4729 43.1094 81.6061 43.216 81.686 43.2692C81.6327 43.216 81.5795 43.1893 81.5262 43.136C81.3929 43.0294 81.2597 42.9228 81.1531 42.8163C81.0998 42.763 81.0465 42.7097 80.9666 42.6564C80.86 42.5765 81.0465 42.7363 81.0465 42.7363C81.0199 42.7363 80.94 42.6297 80.9133 42.6031C80.86 42.5498 80.7801 42.4699 80.7268 42.3899C80.7001 42.3633 80.6735 42.31 80.6468 42.2833C80.6202 42.2567 80.5936 42.2301 80.5936 42.2034C80.5403 42.1235 80.5403 42.1501 80.6735 42.2833C80.6735 42.2301 80.5136 42.0702 80.487 42.0435C80.4337 41.9636 80.3271 41.857 80.3271 41.7771C80.3271 41.8037 80.4603 42.0435 80.3537 41.8037C80.3271 41.7504 80.3004 41.6971 80.2738 41.6438C80.2472 41.5906 80.2205 41.5373 80.1939 41.4573C80.1672 41.404 80.0873 41.1642 80.1672 41.4307C80.2738 41.6971 80.1139 41.3241 80.0873 41.2442C80.034 41.1109 80.0073 40.9777 79.9541 40.8445C79.9274 40.7645 79.9274 40.7112 79.9008 40.6313C79.9008 40.6046 79.8741 40.5514 79.8741 40.5247C79.8208 40.3648 79.9274 40.7912 79.8741 40.5247C79.8475 40.3382 79.8208 40.1783 79.7942 39.9918C79.7942 39.8852 79.7675 39.7786 79.7675 39.672C79.7675 39.6188 79.7409 39.3523 79.7675 39.4855C79.7675 38.5796 80.0073 37.7269 80.5936 37.0074C80.8334 36.7143 81.0998 36.4745 81.2597 36.1281C81.4462 35.7817 81.5528 35.4087 81.6061 35.0356C81.7926 33.8899 81.4995 32.7441 80.8867 31.7848C79.7409 30.0262 77.476 29.3867 75.4775 29.2002C75.291 29.1735 75.1045 29.1735 74.918 29.1469C74.8913 29.1469 74.7581 29.1203 74.9446 29.1469C74.8913 29.1469 74.8647 29.1469 74.8114 29.1203C74.7581 29.1203 74.6782 29.0936 74.6249 29.0936C74.5449 29.067 74.4916 29.0403 74.4117 29.0403C74.3318 29.0403 74.5183 29.0936 74.5183 29.0936C74.4916 29.0936 74.465 29.067 74.4383 29.0403C74.4117 29.0403 74.6515 29.2002 74.5716 29.1203C74.465 29.0403 74.8114 29.3601 74.6782 29.2268C74.5716 29.0936 74.918 29.5732 74.7847 29.3601C74.7048 29.2535 74.9446 29.6265 74.918 29.5732C74.8913 29.5199 74.838 29.3867 74.918 29.5999C75.0246 29.893 74.918 29.5732 74.918 29.5732C74.918 29.5732 74.9446 29.813 74.9446 29.7331C74.9446 29.6798 74.918 29.6265 74.918 29.5732C74.918 29.5466 74.918 29.4933 74.918 29.4667C74.8913 29.3601 74.8913 29.6265 74.918 29.4933C74.9713 29.0137 75.0246 28.5607 75.1844 28.0811C75.371 27.5215 75.0512 26.8553 74.6515 26.4557C74.4117 26.3491 73.559 25.6563 73.3725 26.2158Z" fill="#51CB4D"/>
<path d="M92.3437 46.2003C92.3969 44.6549 92.9299 42.9762 94.2355 42.0436C94.5286 41.8304 94.8217 41.6705 95.1415 41.5906C95.328 41.5373 95.5145 41.5107 95.701 41.484C95.7543 41.484 96.0208 41.484 95.8609 41.484C95.9409 41.484 95.9941 41.5107 96.0741 41.5107C96.2073 41.5373 96.154 41.5373 96.0741 41.5107C96.1274 41.5107 96.1807 41.5373 96.234 41.5373C96.3938 41.564 96.1274 41.5107 96.1274 41.5107C96.154 41.5373 96.3405 41.5906 96.3938 41.5906C96.3938 41.5906 96.154 41.484 96.2873 41.5373C96.3139 41.564 96.3672 41.564 96.4205 41.5906C96.4738 41.6172 96.7669 41.7238 96.5804 41.6705C96.3938 41.5906 96.6336 41.6972 96.6603 41.7238C96.7136 41.7505 96.7669 41.7771 96.8202 41.8304C96.9268 41.8837 97.0333 41.9636 97.1399 42.0169C96.98 41.9104 97.1666 42.0436 97.2199 42.0702C97.2998 42.1235 97.3797 42.1768 97.4597 42.2567C97.5396 42.31 97.6196 42.3633 97.6728 42.4433C97.6196 42.39 97.7794 42.5499 97.8061 42.5765C98.0992 42.8696 98.339 43.1894 98.5788 43.5091C99.0051 44.122 99.2982 44.8148 99.5114 45.5342C99.8845 46.7066 100.044 47.9856 99.7779 49.1847C99.4581 50.6769 98.8719 52.1424 98.3656 53.5813C97.8594 54.9935 97.1932 56.4324 97.1399 57.9779C97.0866 59.55 97.2998 61.1754 98.6055 62.2146C99.4848 62.9073 100.604 63.2804 101.696 63.4669C102.522 63.6001 103.455 63.5469 104.201 63.1472C105.773 62.3211 105.8 60.2161 104.867 58.8838C104.281 58.0311 103.268 57.4982 102.309 57.1518C101.43 56.8587 100.497 56.7521 99.5913 56.8854C98.1791 57.0985 96.7935 57.8979 95.8343 58.9638C94.9283 59.9763 94.2622 61.2819 94.6885 62.6675C95.0882 63.9732 96.234 65.0124 97.2998 65.7851C97.6995 66.0782 98.1258 66.3447 98.5788 66.5845C98.8453 66.7444 99.1384 66.8776 99.4315 67.0108C99.5647 67.0641 99.7246 67.1174 99.8578 67.1973C99.9111 67.224 100.124 67.3306 99.9377 67.224C99.6979 67.0908 100.151 67.3572 99.9111 67.1973C100.497 67.597 100.977 68.1566 101.323 68.8227C101.59 69.329 101.803 69.8886 101.91 70.4482C102.149 71.5939 101.963 72.8196 101.483 73.8855C101.163 74.6049 100.71 75.2444 100.337 75.9372C99.9377 76.6833 99.5913 77.456 99.3515 78.2821C98.8986 79.6943 98.7387 81.1865 98.8986 82.652C99.0051 83.6112 99.2982 84.5172 99.7246 85.3699C100.018 85.9294 100.337 86.4624 100.391 87.1285C100.497 88.5141 99.9377 90.0329 98.4456 90.326C98.4189 90.326 98.2058 90.3793 98.2857 90.3527C98.3656 90.3527 98.1791 90.3527 98.1525 90.3527C98.0459 90.3527 97.9393 90.3527 97.8327 90.3527C97.7528 90.3527 97.9393 90.3527 97.9393 90.3527C97.886 90.326 97.8061 90.326 97.7528 90.326C97.5929 90.326 97.8061 90.326 97.7794 90.326C97.7794 90.326 97.5396 90.2727 97.7528 90.326C97.9926 90.3793 97.4597 90.2194 97.7261 90.326C97.9393 90.406 97.6462 90.2994 97.6195 90.2727C97.3264 90.1395 96.9534 90.0329 96.6336 90.0063C96.4738 89.9796 96.1007 89.953 95.9675 90.0862C95.5945 90.406 96.5271 90.8323 96.6869 90.9122C98.1791 91.605 100.604 92.0314 101.963 90.779C102.922 89.8997 103.189 88.2476 102.789 87.0486C102.576 86.4091 102.176 85.8762 101.91 85.2366C101.537 84.304 101.35 83.3181 101.35 82.3056C101.35 80.8401 101.696 79.4012 102.256 78.0689C102.522 77.4027 102.842 76.7632 103.215 76.1504C103.642 75.4043 104.095 74.6849 104.334 73.8588C104.627 72.793 104.627 71.7272 104.334 70.6613C103.908 69.1159 102.922 67.8102 101.563 66.9842C101.243 66.771 100.87 66.6378 100.524 66.5046C100.444 66.4779 100.364 66.4246 100.284 66.398C100.151 66.3447 100.311 66.4246 100.337 66.4246C100.311 66.398 100.257 66.3713 100.231 66.3713C100.204 66.3447 100.151 66.318 100.098 66.318C99.9377 66.2381 99.8045 66.1582 99.6713 66.0516C99.6446 66.0249 99.4581 65.9183 99.618 66.0249C99.7779 66.1315 99.5913 65.9983 99.5647 65.9983C99.4581 65.9183 99.3249 65.8384 99.2183 65.7585C99.1117 65.6785 98.9785 65.5986 98.8719 65.492C98.8186 65.4387 98.7653 65.3854 98.6854 65.3588C98.6587 65.3321 98.4722 65.1723 98.5522 65.2255C98.6054 65.2788 98.4722 65.1456 98.4456 65.119C98.3923 65.0657 98.339 65.0124 98.2857 64.9591C98.1525 64.8259 98.0459 64.7193 97.9393 64.586C97.5396 64.1064 97.2465 63.5735 97.1399 62.934C96.9268 61.655 97.8327 60.376 98.7653 59.5766C99.3249 59.097 99.9377 58.6973 100.631 58.4308C100.897 58.3242 101.217 58.2443 101.537 58.191C101.616 58.1644 101.696 58.1644 101.776 58.1644C101.616 58.191 101.803 58.1644 101.856 58.1644C101.936 58.1644 102.016 58.1644 102.096 58.1644C102.283 58.1644 101.91 58.1377 102.149 58.1644C102.176 58.1644 102.229 58.191 102.256 58.191C102.256 58.191 101.989 58.1377 102.123 58.1644C102.256 58.191 101.936 58.1111 101.963 58.1111C101.989 58.1377 102.043 58.1377 102.069 58.1377C102.203 58.191 101.91 58.0844 101.936 58.0844C101.989 58.1111 102.096 58.1111 101.936 58.0844C101.803 58.0578 101.883 58.0578 101.936 58.0844C101.989 58.1111 102.043 58.1377 102.096 58.1644C101.936 58.0578 102.096 58.1644 102.149 58.2177C102.256 58.2976 102.176 58.2177 102.256 58.3243C102.389 58.4575 102.522 58.5907 102.602 58.7506C103.002 59.3901 103.109 60.2428 102.895 60.9888C102.682 61.6816 102.149 62.2146 101.457 62.3744C101.377 62.4011 101.297 62.4011 101.19 62.4277C101.084 62.4277 101.19 62.4277 101.19 62.4277C101.137 62.4277 101.11 62.4277 101.057 62.4277C101.004 62.4277 100.977 62.4277 100.924 62.4277C100.95 62.4277 101.11 62.4544 100.977 62.4277C100.924 62.4277 100.897 62.4277 100.844 62.4277C100.684 62.4277 100.844 62.4544 100.897 62.4544L100.764 62.4277C100.737 62.4277 100.737 62.4277 100.71 62.4277C100.764 62.4544 100.817 62.4544 100.87 62.481C100.87 62.4544 100.764 62.4544 100.737 62.4544C100.71 62.4544 100.71 62.4544 100.684 62.4277C100.737 62.4544 100.79 62.481 100.844 62.481C100.844 62.4544 100.737 62.4277 100.737 62.4277C100.631 62.3744 100.817 62.481 100.844 62.481C100.79 62.481 100.551 62.2945 100.684 62.4011C100.79 62.481 100.604 62.3478 100.577 62.3211C100.551 62.2945 100.524 62.2945 100.471 62.2146C100.337 62.0813 100.231 61.9481 100.151 61.7882C99.9644 61.4685 99.8578 61.0954 99.7779 60.7224C99.6446 60.0829 99.618 59.3901 99.6713 58.7239C99.7779 57.1785 100.471 55.7129 100.977 54.2741C101.457 52.8885 102.016 51.4762 102.309 50.0374C102.549 48.8116 102.389 47.4794 102.043 46.3069C101.563 44.7348 100.657 43.3226 99.3782 42.31C97.9393 41.1643 95.9142 40.3116 94.049 40.4182C92.3437 40.4981 90.9847 41.564 90.2919 43.1094C89.9455 43.8555 89.8123 44.6815 89.7856 45.5076C89.7856 46.1737 92.3437 46.68 92.3437 46.2003Z" fill="#8ED9FF"/>
<path d="M139.958 60.1099C139.079 59.3371 137.96 58.8309 136.787 58.7776C135.295 58.6976 133.776 59.4171 132.524 60.1632C131.538 60.7494 130.552 61.5221 130.179 62.6679C129.966 63.3873 130.206 64.0801 130.446 64.7463C130.845 65.8654 131.325 66.9579 131.725 68.077C132.018 68.9563 131.991 69.7824 131.405 70.5284C131.298 70.6617 131.165 70.8215 131.032 70.9281C130.952 71.0081 131.058 70.8748 130.979 70.9814L130.952 71.0081C130.952 71.0081 132.098 70.4485 132.124 70.4485C131.538 70.5284 130.979 70.5817 130.392 70.5284C129.779 70.4751 129.14 70.3686 128.527 70.2353C128.047 70.1554 127.541 69.9955 127.062 69.9422C126.342 69.8889 125.596 70.3419 124.983 70.635C124.397 70.9281 123.837 71.2745 123.571 71.8874C123.225 72.7667 123.384 73.7792 123.997 74.472C124.29 74.8184 124.61 75.1115 124.877 75.4846C125.17 75.9109 125.41 76.3905 125.596 76.8968C125.916 77.7228 126.049 78.762 125.489 79.5081C125.383 79.6414 125.276 79.7479 125.17 79.8545C124.983 80.0144 124.903 80.0677 124.743 80.1743C124.797 80.1476 124.903 80.0943 124.717 80.2009C124.77 80.1743 124.93 80.0943 124.69 80.2009C124.743 80.1743 124.93 80.0943 124.663 80.2009C124.717 80.1743 124.877 80.121 124.637 80.2009C124.877 80.0943 124.37 80.3075 124.53 80.2542C124.397 80.3075 124.237 80.3608 124.131 80.3874C123.331 80.6272 122.505 80.7072 121.652 80.8138C121.226 80.8671 120.8 80.9736 120.4 81.1335C119.707 81.4 118.935 81.7197 118.375 82.226C117.735 82.7589 117.709 83.505 117.922 84.2511C118.375 85.7966 119.601 87.5286 118.695 89.1273C118.588 89.3405 118.428 89.527 118.268 89.7135C118.215 89.7668 118.188 89.7935 118.135 89.8467C118.109 89.8734 118.002 89.98 118.055 89.9267C118.002 89.98 117.949 90.0066 117.895 90.0599C117.842 90.0866 117.602 90.2731 117.789 90.1399C117.736 90.1931 117.656 90.2464 117.576 90.2731C117.602 90.2731 117.789 90.1398 117.656 90.2198C117.602 90.2464 117.442 90.3264 117.762 90.1665C117.576 90.2731 118.082 90.0066 117.762 90.1665C117.762 90.1665 118.082 90.0333 117.869 90.1132C117.975 90.0599 118.082 90.0333 117.922 90.0866C117.895 90.0866 117.735 90.1665 117.869 90.1132C118.002 90.0599 117.842 90.1399 117.789 90.1399C117.682 90.1665 117.576 90.2198 117.469 90.2464C117.336 90.2997 116.963 90.3797 116.75 90.433C116.137 90.5928 115.524 90.6994 114.911 90.7794C114.378 90.8593 113.845 91.1524 113.392 91.3922C113.152 91.5254 112.913 91.632 112.699 91.7919C112.673 91.8185 112.46 91.9784 112.619 91.9518C115.124 91.5787 117.629 90.8326 119.734 89.3938C120.88 88.621 121.599 87.5286 121.359 86.063C121.199 85.1304 120.746 84.2777 120.427 83.3718C120.187 82.679 120 81.8796 120.533 81.2934C120.613 81.2135 120.533 81.2934 120.533 81.2934L120.56 81.2668C120.533 81.2934 120.48 81.32 120.453 81.3467C120 81.5865 119.547 81.8263 119.068 82.0128C119.201 81.9595 119.015 82.0395 118.988 82.0395C119.174 82.0128 119.201 81.9862 119.361 81.9595C119.734 81.9063 120.107 81.8796 120.48 81.8263C121.759 81.6398 122.985 81.2401 124.157 80.7072C124.983 80.3341 125.809 79.9345 126.582 79.4548C126.982 79.1884 127.381 78.9219 127.701 78.5489C128.287 77.8827 128.341 76.9501 128.101 76.1241C127.834 75.1382 127.275 74.2589 126.582 73.5394C126.315 73.2463 126.049 72.9532 125.916 72.5802C125.756 72.1272 125.729 71.5943 125.809 71.1413C125.863 70.9015 125.916 70.6883 126.049 70.4751C126.102 70.3952 126.156 70.3419 126.209 70.262C125.649 70.5284 125.063 70.7949 124.504 71.088H124.477C124.53 71.088 124.584 71.088 124.637 71.088C125.09 71.088 125.569 71.2479 126.022 71.3545C127.221 71.5943 128.5 71.8341 129.7 71.6209C130.632 71.461 131.538 71.0081 132.364 70.5551C132.764 70.3419 133.137 70.0755 133.457 69.7557C134.069 69.1162 134.416 68.2369 134.203 67.3576C134.096 66.8779 133.883 66.425 133.723 65.972C133.483 65.3591 133.243 64.7463 133.004 64.1068C132.764 63.4406 132.391 62.6679 132.444 61.9484C132.471 61.4422 132.711 60.9892 133.004 60.5895C133.163 60.3763 133.323 60.1898 133.51 60.0299C133.59 59.95 133.696 59.8701 133.776 59.8168C133.776 59.8168 133.883 59.7368 133.83 59.7635C134.043 59.6036 133.67 59.8168 133.91 59.7102C133.75 59.7901 133.563 59.8967 133.403 59.9766C133.377 60.0033 133.217 60.0299 133.19 60.0566C133.19 60.0299 133.43 60.0033 133.483 59.9766C133.75 59.9234 134.016 59.8967 134.283 59.8967C134.869 59.8967 135.455 60.0299 136.015 60.2698C136.548 60.5096 137.054 60.8293 137.48 61.2024C137.56 61.2557 137.853 61.1491 137.88 61.1224C138.173 61.0158 138.466 60.8826 138.759 60.7494C138.892 60.8027 140.011 60.1632 139.958 60.1099Z" fill="#F4A400"/>
<path d="M130.553 46.7072C130.447 46.8937 130.34 47.0536 130.234 47.2401C130.207 47.2934 130.18 47.32 130.154 47.3733C130.18 47.3467 130.314 47.1602 130.18 47.3467C130.1 47.4533 130.047 47.5332 129.967 47.6398C129.807 47.8263 129.647 48.0128 129.461 48.1994C129.408 48.2527 129.274 48.3592 129.488 48.1727C129.434 48.226 129.381 48.2527 129.328 48.3059C129.221 48.3859 129.114 48.4925 129.008 48.5724C128.955 48.6257 128.901 48.6523 128.848 48.7056C128.635 48.8655 128.848 48.7056 128.875 48.679C128.768 48.7856 128.608 48.8389 128.502 48.9188C128.422 48.9454 128.368 48.9987 128.288 49.0254C128.235 49.052 128.049 49.132 128.262 49.0254C128.102 49.0787 127.942 49.1586 127.782 49.2119C127.702 49.2386 127.382 49.2918 127.622 49.2652C127.489 49.2918 127.356 49.3185 127.223 49.3451C126.956 49.3984 126.69 49.3984 126.397 49.4251C125.198 49.505 124.052 49.6915 123.013 50.3577C121.92 51.0771 121.041 52.063 120.481 53.2621C120.028 54.2746 119.735 55.3938 119.868 56.5129C119.948 57.3389 120.295 58.085 120.721 58.7778C121.147 59.4173 121.627 60.0568 121.92 60.7762C121.973 60.8828 122 60.9894 122.027 61.096C121.973 60.9628 122.027 61.096 122.027 61.1226C122.053 61.1759 122.053 61.2292 122.08 61.3092C122.133 61.5756 122.187 61.8687 122.213 62.1352C122.24 62.4549 122.266 62.7747 122.24 63.0944C122.24 63.1477 122.213 63.4675 122.24 63.2543C122.24 63.3875 122.213 63.4941 122.187 63.6274C122.16 63.8938 122.107 64.1869 122.027 64.4534C121.867 65.1195 121.707 65.4926 121.334 66.1321C121.334 66.1587 121.201 66.3452 121.254 66.2653C121.307 66.1854 121.147 66.4252 121.121 66.4252C121.014 66.5584 120.908 66.6916 120.801 66.8249C120.748 66.8782 120.694 66.9315 120.641 66.9847C120.561 67.0647 120.481 67.1446 120.614 67.0114C120.508 67.118 120.401 67.1979 120.268 67.3045C120.161 67.3844 120.055 67.4644 119.948 67.5443C119.922 67.571 119.815 67.6243 119.815 67.6509C119.868 67.571 120.082 67.491 119.868 67.5976C119.682 67.7042 119.495 67.8108 119.309 67.9174C118.856 68.1572 118.27 68.77 118.563 69.3296C118.882 69.8892 119.708 69.6493 120.135 69.4362C122.32 68.2904 124.025 66.2653 124.531 63.8139C124.904 62.002 124.718 60.1101 123.732 58.5113C123.332 57.8718 122.853 57.2856 122.533 56.5662C122.506 56.4862 122.453 56.3797 122.426 56.2997C122.4 56.2731 122.373 56.1399 122.426 56.3264C122.426 56.2731 122.4 56.2198 122.4 56.1931C122.346 55.98 122.32 55.7935 122.293 55.5803C122.293 55.4737 122.293 55.3405 122.293 55.2339C122.293 55.2072 122.32 54.8608 122.293 55.0207C122.32 54.7543 122.373 54.4878 122.426 54.2213C122.453 54.0881 122.48 53.9815 122.533 53.8483C122.56 53.795 122.586 53.7151 122.586 53.6618C122.64 53.5019 122.533 53.795 122.586 53.6351C122.693 53.3687 122.826 53.1289 122.959 52.889C122.986 52.8358 123.199 52.516 123.066 52.7292C123.146 52.6226 123.226 52.516 123.306 52.4094C123.386 52.3028 123.466 52.2229 123.572 52.1163C123.625 52.063 123.679 51.9298 123.545 52.143C123.599 52.0897 123.679 52.0364 123.732 51.9831L123.998 51.7699C123.998 51.7966 123.785 51.9031 123.972 51.7966C124.025 51.7699 124.105 51.7166 124.158 51.69C124.212 51.6633 124.292 51.61 124.345 51.61C124.052 51.69 124.212 51.6633 124.292 51.6367C124.345 51.61 124.425 51.5834 124.478 51.5834C124.531 51.5568 124.558 51.5567 124.611 51.5567C124.691 51.5301 124.665 51.5301 124.505 51.5834C124.665 51.4768 125.011 51.5035 125.171 51.4768C125.437 51.4502 125.704 51.4235 125.944 51.4235C127.542 51.2903 129.008 50.784 130.287 49.7981C131.299 49.0254 132.099 48.0128 132.712 46.9204C132.978 46.4141 132.685 45.8812 132.125 45.8545C131.539 45.7746 130.846 46.1476 130.553 46.7072Z" fill="#F9D222"/>
<path d="M111.634 55.8997C112.966 54.8605 114.165 53.5548 114.752 51.9561C115.151 50.8369 115.151 49.6379 114.832 48.4921C114.645 47.8526 114.405 47.2131 114.192 46.5736C114.059 46.2006 114.006 46.0407 113.952 45.7742C113.846 45.3745 113.766 44.9748 113.686 44.5752C113.553 43.6958 113.499 42.7899 113.446 41.9106C113.419 41.5908 113.419 41.2711 113.419 40.9513C113.419 40.6848 113.393 41.1378 113.419 40.898C113.419 40.8447 113.419 40.7914 113.446 40.7648C113.473 40.6049 113.499 40.445 113.553 40.2852C113.606 40.072 113.419 40.4983 113.553 40.3118C113.579 40.2585 113.633 40.2052 113.633 40.1519C113.712 39.9921 113.579 40.3118 113.553 40.2319C113.553 40.2052 113.659 40.0986 113.686 40.072C113.819 39.8855 113.446 40.2319 113.659 40.0986C113.792 39.9921 113.872 40.0453 113.606 40.1253C113.659 40.0986 113.739 40.072 113.792 40.0187C113.712 40.0986 113.473 40.1253 113.712 40.072C113.872 40.0187 113.926 40.0986 113.659 40.072C113.712 40.072 113.819 40.0453 113.872 40.0453C114.006 40.0187 114.139 40.0187 114.272 40.0187C114.325 40.0187 114.405 40.0187 114.459 40.0187C114.165 39.9654 114.405 40.0187 114.485 40.0187C114.752 40.0187 115.018 40.0187 115.311 40.0187C116.83 40.0187 118.296 39.6723 119.601 38.8996C120.88 38.1268 122.106 37.0876 122.745 35.7021C123.039 35.0359 123.225 34.3964 123.145 33.677C123.039 32.7976 122.665 31.945 122.292 31.1722C121.546 29.6801 120.587 28.2945 119.575 26.9622C118.722 25.8164 117.816 24.6973 116.83 23.6314C116.537 23.3117 116.217 22.9653 115.924 22.6455C115.871 22.5923 115.817 22.539 115.764 22.459C115.658 22.3258 115.897 22.6455 115.817 22.5123C115.791 22.4857 115.764 22.4324 115.738 22.4057C115.631 22.2725 115.551 22.1393 115.471 22.006C115.391 21.8728 115.338 21.7662 115.285 21.633C115.258 21.6064 115.258 21.5531 115.258 21.5264C115.205 21.3665 115.311 21.5264 115.285 21.6064C115.311 21.5531 115.231 21.4198 115.231 21.3665C115.178 21.1534 115.178 20.9402 115.178 20.727C115.178 20.6737 115.178 20.5938 115.178 20.5405C115.178 20.2474 115.151 20.727 115.178 20.4339C115.205 20.2208 115.231 20.0076 115.285 19.7944C115.311 19.6346 115.364 19.5013 115.418 19.3415C115.498 19.0483 115.338 19.528 115.444 19.2615C115.471 19.1816 115.524 19.075 115.551 18.9951C115.631 18.8618 115.684 18.7019 115.764 18.5687C115.817 18.4888 115.871 18.4088 115.924 18.3289C115.951 18.2756 116.191 17.9292 116.031 18.169C116.244 17.8759 116.484 17.5828 116.723 17.3164C116.857 17.1565 117.017 17.0233 117.15 16.8634C117.39 16.6236 116.963 17.0499 117.203 16.8101C117.283 16.7301 117.363 16.6769 117.443 16.5969C117.736 16.3305 118.056 16.0906 118.349 15.8775C118.482 15.7709 118.642 15.6377 118.802 15.5577C118.482 15.7176 118.775 15.5844 118.828 15.5311C118.935 15.4511 119.042 15.3979 119.148 15.3446C119.468 15.158 119.761 15.0248 120.081 14.8649C120.454 14.6784 119.841 14.9449 120.214 14.8116C120.294 14.785 120.374 14.7584 120.454 14.7317C120.72 14.6251 120.987 14.5452 121.28 14.4919C121.386 14.4652 121.52 14.4386 121.626 14.412C121.36 14.4652 121.733 14.3853 121.76 14.3853C121.946 14.3587 122.133 14.332 122.319 14.3054C122.532 14.2787 122.772 14.2521 122.985 14.2521C123.065 14.2521 123.172 14.2521 123.252 14.2521C123.332 14.2521 123.332 14.2521 123.225 14.2521C123.305 14.2521 123.358 14.2521 123.438 14.2521C124.264 14.2787 125.064 14.3853 125.863 14.5718C125.81 14.5718 125.676 14.5185 125.863 14.5718C125.943 14.5985 126.05 14.6251 126.129 14.6518C126.289 14.7051 126.476 14.7584 126.636 14.8116C126.955 14.9182 127.249 15.0248 127.542 15.158C127.995 15.3446 128.421 15.5311 128.847 15.7709C129.993 16.3838 131.112 17.2631 132.018 18.3023C132.125 18.4088 132.231 18.5421 132.338 18.6487C132.338 18.6487 132.524 18.8885 132.418 18.7286C132.471 18.8085 132.524 18.8618 132.578 18.9418C132.791 19.2082 132.977 19.5013 133.191 19.7678C133.51 20.2474 133.83 20.7537 134.097 21.26C134.523 22.006 134.923 22.7788 135.269 23.5782C135.429 23.9512 135.562 24.3509 135.722 24.7239C135.882 25.1503 135.935 25.3901 136.042 25.7365C136.202 26.3493 136.335 26.9622 136.441 27.6017C136.548 28.2145 137.267 28.3211 137.774 28.1613C138.28 28.0014 139.053 27.4685 138.946 26.8556C138.44 23.8713 137.267 21.0468 135.562 18.5154C134.683 17.2098 133.644 16.0107 132.391 15.0515C131.459 14.332 130.419 13.7458 129.327 13.2928C125.996 11.9072 122.239 11.8007 118.935 13.3728C117.39 14.1188 115.977 15.1847 114.805 16.437C113.686 17.6361 112.727 19.1816 112.593 20.8336C112.513 21.7129 112.62 22.5923 113.126 23.365C113.606 24.1111 114.272 24.7506 114.858 25.4167C115.285 25.8697 115.684 26.3493 116.084 26.829C116.244 27.0155 116.244 27.0155 116.377 27.1754C116.51 27.3352 116.644 27.5218 116.777 27.6816C117.07 28.0813 117.363 28.4544 117.629 28.8541C118.509 30.1064 119.388 31.4121 120.028 32.8243C120.134 33.0375 120.214 33.2773 120.321 33.5171C120.347 33.597 120.374 33.7036 120.427 33.7835C120.427 33.8102 120.454 33.8901 120.454 33.8901C120.401 33.7303 120.401 33.7036 120.427 33.7835C120.427 33.8102 120.454 33.8368 120.454 33.8635C120.534 34.1299 120.56 34.4231 120.56 34.7162C120.56 34.8494 120.481 34.956 120.56 34.6629C120.56 34.6895 120.56 34.7428 120.534 34.7961C120.507 34.876 120.507 34.9826 120.481 35.0626C120.454 35.1425 120.427 35.2224 120.401 35.3024C120.481 35.0892 120.374 35.3823 120.347 35.409C120.321 35.4889 120.267 35.5688 120.214 35.6488C120.161 35.7287 120.134 35.8086 120.081 35.8886C120.054 35.9419 119.868 36.1817 120.054 35.9419C119.948 36.0751 119.841 36.2083 119.734 36.3416C119.681 36.3948 119.628 36.4748 119.548 36.5281C119.335 36.7412 119.521 36.5281 119.548 36.5281C119.521 36.5281 119.228 36.8212 119.175 36.8478C119.068 36.9278 118.988 37.0077 118.882 37.061C118.828 37.1143 118.775 37.1409 118.695 37.1942C118.402 37.4074 118.908 37.061 118.722 37.1676C118.562 37.2742 118.402 37.3541 118.216 37.4607C118.136 37.514 118.029 37.5406 117.923 37.5939C117.549 37.7804 118.162 37.514 117.789 37.6472C117.629 37.7005 117.496 37.7538 117.336 37.7804C117.256 37.8071 117.15 37.8337 117.07 37.8604C116.857 37.9137 117.363 37.8337 117.017 37.8604C116.83 37.887 116.617 37.9137 116.43 37.9403C116.244 37.967 116.057 37.967 115.871 37.967C115.817 37.967 115.498 37.967 115.817 37.967C115.738 37.967 115.658 37.967 115.551 37.967C114.778 37.967 114.006 37.9137 113.286 38.1535C112.433 38.4466 111.661 39.0062 111.181 39.8055C110.835 40.4184 110.755 41.0845 110.728 41.7773C110.701 42.5767 110.808 43.3494 110.861 44.1488C110.941 45.0015 111.048 45.8542 111.288 46.6802C111.501 47.3996 111.741 48.0924 111.98 48.7852C112.034 48.9184 112.06 49.025 112.114 49.1583C112.114 49.1849 112.194 49.4514 112.14 49.2115C112.167 49.2915 112.194 49.3448 112.194 49.4247C112.274 49.7178 112.327 50.0109 112.354 50.304C112.38 50.4639 112.38 50.5971 112.38 50.757C112.38 50.8369 112.38 50.9169 112.38 50.9968C112.38 50.757 112.38 51.0235 112.38 51.0501C112.354 51.2899 112.3 51.5564 112.22 51.7962C112.194 51.9028 112.167 52.0627 112.087 52.1692C112.247 51.8761 112.06 52.2225 112.034 52.3025C111.98 52.4357 111.901 52.5689 111.821 52.7022C111.767 52.7821 111.741 52.8354 111.687 52.9153C111.661 52.9686 111.634 53.0219 111.607 53.0486C111.687 52.9153 111.714 52.9153 111.634 53.0219C111.421 53.315 111.181 53.5815 110.941 53.8479C110.861 53.9279 110.781 54.0078 110.701 54.0878C110.915 53.9012 110.622 54.1677 110.595 54.1677C110.408 54.3276 110.222 54.4874 110.009 54.6473C109.609 54.9671 109.209 55.6332 109.689 56.0596C110.382 56.5125 111.208 56.2461 111.634 55.8997Z" fill="#EE1700"/>
<path d="M73.3962 74.5251C72.7834 75.6442 72.5169 77.0032 72.5968 78.2555C72.7301 80.2007 73.7693 81.8527 75.3947 82.8919C76.5671 83.638 78.006 84.1709 79.3916 84.3308C79.7912 84.3841 80.2176 84.4107 80.6173 84.4107C80.4307 84.4107 80.6706 84.4107 80.7239 84.4107C80.8038 84.4107 80.8837 84.4107 80.9637 84.4374C81.0969 84.464 81.2568 84.4907 81.3101 84.4907C81.763 84.6239 82.1627 84.917 82.4558 85.2901C83.495 86.6224 83.4417 88.5942 83.3352 90.1663C83.3085 90.4061 84.5875 90.1929 84.6941 90.1663C85.0138 90.0863 85.307 90.033 85.6001 89.8998C85.7066 89.8465 85.9198 89.7666 85.9465 89.6334C86.053 88.1412 86.0797 86.3825 85.2803 85.0502C85.0671 84.6772 84.774 84.3575 84.401 84.1176C83.8148 83.7179 83.0953 83.6647 82.4025 83.638C82.3493 83.638 82.1894 83.638 82.3226 83.638C82.216 83.638 82.1361 83.638 82.0295 83.6114C81.8163 83.5847 81.6032 83.5847 81.4166 83.5314C80.9903 83.4781 80.5906 83.3449 80.1643 83.2117C79.6314 83.0252 79.1251 82.8386 78.6188 82.5988C76.9668 81.7728 75.7677 80.4139 75.3414 78.6019C75.0216 77.1364 75.2348 75.4311 75.9542 74.1254C76.1141 73.8057 75.0749 73.9655 74.9683 73.9922C74.6219 74.0455 74.3022 74.1254 73.9558 74.232C73.7959 74.3119 73.4762 74.3652 73.3962 74.5251Z" fill="#51CB4D"/>
<path d="M92.5298 27.708L93.5423 28.614L94.8746 28.3209L94.3151 29.5466L95.0345 30.719L93.6755 30.5858L92.7696 31.625L92.4765 30.266L91.2241 29.7597L92.4232 29.067L92.5298 27.708Z" fill="#EE1700"/>
<path d="M136.097 34.9824L137.349 36.1282L139.001 35.7552L138.308 37.3006L139.188 38.7661L137.509 38.5796L136.39 39.8586L136.043 38.2066L134.471 37.5404L135.937 36.6878L136.097 34.9824Z" fill="#F9D222"/>
<path d="M114.806 75.4316L115.419 75.9912L116.245 75.8047L115.898 76.5774L116.351 77.2969L115.499 77.1903L114.966 77.8298L114.779 77.0037L114.006 76.684L114.726 76.2577L114.806 75.4316Z" fill="#8ED9FF"/>
<path d="M71.1594 63.3867L71.3993 64.1861L72.1986 64.4526L71.5058 64.9322L71.4792 65.7582L70.813 65.2519L70.0137 65.4917L70.3068 64.719L69.8271 64.0262L70.6532 64.0529L71.1594 63.3867Z" fill="#F9D222"/>
<path d="M63.5929 22.7258C64.2698 22.7258 64.8186 22.1771 64.8186 21.5001C64.8186 20.8232 64.2698 20.2744 63.5929 20.2744C62.916 20.2744 62.3672 20.8232 62.3672 21.5001C62.3672 22.1771 62.916 22.7258 63.5929 22.7258Z" fill="#8ED9FF"/>
<path d="M82.8048 20.9934C83.1727 20.9934 83.471 20.6952 83.471 20.3273C83.471 19.9594 83.1727 19.6611 82.8048 19.6611C82.4369 19.6611 82.1387 19.9594 82.1387 20.3273C82.1387 20.6952 82.4369 20.9934 82.8048 20.9934Z" fill="#F9D222"/>
<path d="M49.7091 40.5247C50.077 40.5247 50.3753 40.2264 50.3753 39.8585C50.3753 39.4906 50.077 39.1924 49.7091 39.1924C49.3412 39.1924 49.043 39.4906 49.043 39.8585C49.043 40.2264 49.3412 40.5247 49.7091 40.5247Z" fill="#F9D222"/>
<path d="M114.007 32.638C114.375 32.638 114.674 32.3397 114.674 31.9718C114.674 31.6039 114.375 31.3057 114.007 31.3057C113.64 31.3057 113.341 31.6039 113.341 31.9718C113.341 32.3397 113.64 32.638 114.007 32.638Z" fill="#DCB300"/>
<path d="M86.9347 57.7112C87.3026 57.7112 87.6009 57.413 87.6009 57.0451C87.6009 56.6772 87.3026 56.3789 86.9347 56.3789C86.5668 56.3789 86.2686 56.6772 86.2686 57.0451C86.2686 57.413 86.5668 57.7112 86.9347 57.7112Z" fill="#528AFF"/>
<path d="M103.348 42.6296C104.113 42.6296 104.733 42.0092 104.733 41.244C104.733 40.4787 104.113 39.8584 103.348 39.8584C102.582 39.8584 101.962 40.4787 101.962 41.244C101.962 42.0092 102.582 42.6296 103.348 42.6296Z" fill="#F4A400"/>
<path d="M135.43 56.6986C136.239 56.6986 136.895 56.0425 136.895 55.2331C136.895 54.4237 136.239 53.7676 135.43 53.7676C134.62 53.7676 133.964 54.4237 133.964 55.2331C133.964 56.0425 134.62 56.6986 135.43 56.6986Z" fill="#51CB4D"/>
<path d="M61.2208 65.7588L60.7412 67.9704H63.0328L61.2208 65.7588Z" fill="#8ED9FF"/>
<path d="M55.6779 38.7666L55.1982 40.9782H57.5164L55.6779 38.7666Z" fill="#51CB4D"/>
<path d="M110.196 66.611L108.038 65.8916L107.798 68.1832L110.196 66.611Z" fill="#EE1700"/>
<path d="M94.9556 81.5333L92.2111 80.6807L91.918 83.2653L94.9556 81.5333Z" fill="#51CB4D"/>
<path d="M144.516 54.4078L145.928 52.6758L146.807 55.2338L144.516 54.4078Z" fill="#DCB300"/>
<path d="M124.344 26.3492L125.756 24.6172L126.662 27.2018L124.344 26.3492Z" fill="#8ED9FF"/>
</svg>
