<svg width="34" height="26" viewBox="0 0 34 26" fill="none" xmlns="http://www.w3.org/2000/svg">
<path d="M1.76276 0C0.789231 0 0 0.789183 0 1.76276C0 2.73633 0.789231 3.52552 1.76276 3.52552H31.7297C32.7032 3.52552 33.4924 2.73633 33.4924 1.76276C33.4924 0.789183 32.7032 0 31.7297 0H1.76276ZM1.76276 11.0172C0.789231 11.0172 0 11.8064 0 12.78C0 13.7536 0.789231 14.5428 1.76276 14.5428H31.7297C32.7032 14.5428 33.4924 13.7536 33.4924 12.78C33.4924 11.8064 32.7032 11.0172 31.7297 11.0172H1.76276ZM1.76276 22.0345C0.789231 22.0345 0 22.8237 0 23.7972C0 24.7708 0.789231 25.56 1.76276 25.56H31.7297C32.7032 25.56 33.4924 24.7708 33.4924 23.7972C33.4924 22.8237 32.7032 22.0345 31.7297 22.0345H1.76276Z" fill="#DADADA"/>
</svg>
