<svg width="26" height="26" viewBox="0 0 26 26" fill="none" xmlns="http://www.w3.org/2000/svg">
<path fill-rule="evenodd" clip-rule="evenodd" d="M25.6454 23.9355C26.118 24.4081 26.118 25.1733 25.6454 25.6454C25.4094 25.8815 25.0998 26 24.7902 26C24.4811 26 24.1716 25.8815 23.9355 25.6454L12.9997 14.7101L2.06437 25.6454C1.82832 25.8815 1.51874 26 1.20916 26C0.900071 26 0.590494 25.8815 0.354442 25.6454C-0.118147 25.1733 -0.118147 24.4081 0.354442 23.9355L11.2898 13.0002L0.354442 2.06437C-0.118147 1.59227 -0.118147 0.82703 0.354442 0.354442C0.826547 -0.118147 1.59178 -0.118147 2.06437 0.354442L12.9997 11.2898L23.9355 0.354442C24.4076 -0.118147 25.1729 -0.118147 25.6454 0.354442C26.118 0.82703 26.118 1.59227 25.6454 2.06437L14.7101 13.0002L25.6454 23.9355Z" fill="#636A70"/>
</svg>
