<svg width="164" height="138" viewBox="0 0 164 138" fill="none" xmlns="http://www.w3.org/2000/svg">
<path fill-rule="evenodd" clip-rule="evenodd" d="M159.508 20.2851C156.418 19.1576 152.951 20.7027 151.824 23.793C150.696 26.8833 152.283 30.3077 155.374 31.477C158.464 32.6046 161.93 31.0594 163.058 27.9691C164.185 24.8788 162.598 21.4544 159.508 20.2851Z" fill="#80D7FB"/>
<path fill-rule="evenodd" clip-rule="evenodd" d="M4.368 88.8156C3.36574 87.9803 1.86235 88.0639 0.985372 89.0661C0.150153 90.0684 0.275428 91.5718 1.27769 92.4488C2.27995 93.284 3.78335 93.2005 4.66033 92.1982C5.49555 91.1542 5.37026 89.6508 4.368 88.8156Z" fill="#FC5050"/>
<path opacity="0.93" fill-rule="evenodd" clip-rule="evenodd" d="M159.387 85.0988C158.384 84.2635 156.881 84.3471 156.004 85.3493C155.169 86.3516 155.294 87.855 156.296 88.732C157.299 89.5672 158.802 89.4837 159.679 88.4814C160.514 87.4791 160.389 85.934 159.387 85.0988Z" fill="#448AF9"/>
<path opacity="0.93" fill-rule="evenodd" clip-rule="evenodd" d="M46.7575 18.8243L38.9064 14.69C38.6141 14.523 38.4888 14.1889 38.6559 13.8965C38.6976 13.813 38.7812 13.7295 38.8647 13.6877L46.2146 8.96874C46.5069 8.8017 46.841 8.88522 47.0498 9.13579C47.0916 9.21931 47.1333 9.30283 47.1333 9.42811L47.6345 18.2814C47.6345 18.6155 47.3839 18.9079 47.0916 18.9079C46.9663 18.9079 46.8828 18.8661 46.7575 18.8243Z" fill="#448AF9"/>
<path fill-rule="evenodd" clip-rule="evenodd" d="M41.9132 137.968L33.3104 135.88C32.9763 135.797 32.8093 135.463 32.851 135.17C32.8928 135.087 32.9346 134.962 32.9763 134.92L38.9481 128.53C39.1569 128.28 39.5328 128.28 39.7833 128.489C39.8669 128.572 39.9086 128.656 39.9504 128.739L42.6231 137.217C42.7066 137.551 42.5396 137.885 42.2472 137.968C42.122 138.01 42.0384 138.01 41.9132 137.968Z" fill="#FDD340"/>
<path fill-rule="evenodd" clip-rule="evenodd" d="M129.148 0.115234L135.287 0.866932C135.496 0.908693 135.663 1.1175 135.663 1.3263C135.663 1.40982 135.621 1.45159 135.579 1.53511L131.988 6.4629C131.862 6.62994 131.57 6.6717 131.403 6.54642C131.361 6.50466 131.319 6.4629 131.278 6.37938L128.73 0.741649C128.647 0.532844 128.73 0.282278 128.939 0.198756C129.023 0.115234 129.106 0.115234 129.148 0.115234Z" fill="#FC5050"/>
<path d="M18.8164 33.3154L20.2781 34.6518C20.3616 34.7353 20.4869 34.7771 20.6121 34.7353L22.5331 34.2759C22.8255 34.1924 23.076 34.5265 22.9507 34.7771L22.1573 36.5728C22.1155 36.6981 22.1155 36.8234 22.199 36.9069L23.2431 38.6191C23.4101 38.8696 23.2013 39.2037 22.8672 39.2037L20.9045 38.9949C20.7792 38.9949 20.6539 39.0367 20.5704 39.1202L19.2758 40.6236C19.067 40.8742 18.6911 40.7489 18.6076 40.4566L18.19 38.5356C18.1482 38.4103 18.0647 38.3267 17.9812 38.285L16.1437 37.5333C15.8514 37.408 15.8514 37.0322 16.102 36.8651L17.8141 35.8629C17.9394 35.8211 17.9812 35.6958 17.9812 35.5705L18.1482 33.6078C18.2317 33.2319 18.6076 33.1066 18.8164 33.3154Z" fill="#FDD340"/>
<path d="M159.515 110.824L160.976 112.161C161.06 112.244 161.185 112.286 161.31 112.244L163.231 111.785C163.524 111.701 163.774 112.035 163.649 112.286L162.856 114.082C162.814 114.207 162.814 114.332 162.897 114.416L163.941 116.128C164.108 116.378 163.9 116.713 163.565 116.713L161.603 116.504C161.477 116.504 161.352 116.545 161.269 116.629L159.974 118.132C159.765 118.383 159.389 118.258 159.306 117.965L158.888 116.044C158.846 115.919 158.763 115.836 158.679 115.794L156.842 115.042C156.55 114.917 156.55 114.541 156.8 114.374L158.512 113.372C158.638 113.33 158.679 113.205 158.679 113.079L158.846 111.117C158.93 110.741 159.306 110.615 159.515 110.824Z" fill="#19C753"/>
<circle cx="87.7799" cy="73.5856" r="59.5944" fill="#E2FFFF"/>
<path d="M117.838 113.467L70.5819 105.784C69.0545 105.529 68.0132 104.094 68.2446 102.544L75.6038 57.2777C75.8583 55.7503 77.2931 54.709 78.8437 54.9404L126.216 62.6236C127.743 62.8781 128.784 64.3129 128.553 65.8635L121.217 111.014C120.916 112.634 119.412 113.721 117.838 113.467Z" fill="#CCF8F6"/>
<path d="M120.455 111.569L73.1987 103.886C71.6713 103.632 70.6299 102.197 70.8613 100.646L78.2205 55.3803C78.4751 53.8529 79.9099 52.8115 81.4604 53.0429L128.832 60.7261C130.36 60.9807 131.401 62.4155 131.17 63.966L123.834 109.116C123.556 110.736 122.052 111.824 120.455 111.569Z" fill="#51CB4D"/>
<path d="M116.264 97.1514L120.175 73.1067C117.514 72.667 115.709 70.1676 116.148 67.5063L77.2926 61.1885L76.876 63.7341C84.7444 65.0069 90.1134 72.4356 88.8174 80.3039C87.5446 88.1722 80.1159 93.5412 72.2476 92.2452L71.8311 94.8372L110.687 101.155C111.103 98.5168 113.603 96.7117 116.264 97.1514ZM102.795 88.6119C99.5785 88.0797 97.38 85.048 97.8891 81.8081C98.3982 78.5682 101.453 76.3929 104.693 76.902C107.933 77.4111 110.108 80.4659 109.599 83.7058C109.067 86.9457 106.012 89.1442 102.795 88.6119Z" fill="#B8F259"/>
<path d="M105.224 70.1224C95.9443 72.4366 86.5254 66.7899 84.2112 57.5099C81.897 48.2299 87.5668 38.8111 96.8237 36.4968C106.081 34.1826 115.523 39.8525 117.837 49.1093C120.151 58.3662 114.481 67.8082 105.224 70.1224Z" fill="#CCF8F6"/>
<path d="M106.034 68.178C96.7539 70.4923 87.335 64.8456 85.0208 55.5656C82.7065 46.2856 88.3764 36.8667 97.6332 34.5525C106.913 32.2383 116.332 37.9081 118.646 47.165C120.961 56.445 115.291 65.8638 106.034 68.178Z" fill="#F9D222"/>
<path d="M96.547 59.3613C95.9453 58.6439 95.7833 57.9728 96.0147 57.3248C96.2461 56.6768 96.7321 56.2834 97.4727 56.0982C97.9586 55.9825 98.5141 56.0288 99.162 56.2602C99.9489 56.9082 100.805 57.371 101.754 57.7182C102.703 58.0422 103.605 58.019 104.462 57.6256C104.855 57.4405 105.202 57.1859 105.457 56.8619C105.711 56.5379 105.896 56.2139 105.966 55.8668C106.035 55.5197 106.035 55.1726 105.943 54.8023C105.85 54.432 105.665 54.1312 105.387 53.8766C105.04 53.5526 104.693 53.298 104.346 53.1592C103.999 52.9972 103.652 52.9278 103.304 52.8815C102.957 52.8583 102.633 52.8352 102.309 52.8583C102.009 52.8815 101.708 52.8815 101.43 52.8583C100.99 52.8583 100.527 52.8352 100.088 52.8121C99.6249 52.7889 99.1852 52.7426 98.7455 52.6269C98.3058 52.5343 97.8661 52.3723 97.4264 52.1641C96.9867 51.9558 96.547 51.6781 96.1073 51.3078C95.6907 50.9607 95.3436 50.5672 95.0427 50.1275C94.7419 49.6878 94.5568 49.2481 94.4411 48.8316C94.3022 48.253 94.2559 47.6051 94.3254 46.9339C94.3948 46.2628 94.5567 45.6148 94.8113 45.0131C95.0659 44.4114 95.3899 43.8329 95.8296 43.3238C96.2462 42.8146 96.7321 42.4212 97.2875 42.1204C98.3983 41.5187 99.6017 41.1715 100.944 41.079C102.286 40.9864 103.513 41.1021 104.67 41.403C105.133 41.5881 105.503 41.7964 105.781 42.0741C106.058 42.3287 106.22 42.6064 106.29 42.8841C106.382 43.2312 106.359 43.5552 106.244 43.856C106.128 44.18 105.943 44.4346 105.688 44.6891C105.434 44.9206 105.11 45.1057 104.739 45.1983C104.369 45.2909 103.929 45.2908 103.467 45.152C103.096 45.0594 102.587 45.0131 101.939 45.0131C101.291 45.0131 100.689 45.1057 100.111 45.2909C99.5323 45.476 99.0926 45.8 98.7917 46.2165C98.4909 46.6562 98.4678 47.2579 98.7455 48.0216C99 48.2993 99.2546 48.5076 99.5554 48.6465C99.8563 48.8085 100.157 48.901 100.481 48.9704C100.805 49.0399 101.152 49.0861 101.523 49.0861C101.893 49.1093 102.24 49.1093 102.564 49.1093C103.49 49.1556 104.369 49.225 105.179 49.3639C105.989 49.5027 106.73 49.7573 107.378 50.0813C108.025 50.4284 108.581 50.8912 109.044 51.4929C109.507 52.0946 109.854 52.8583 110.085 53.8303C110.27 54.594 110.293 55.3577 110.131 56.1677C109.969 56.9776 109.692 57.7182 109.275 58.4124C108.859 59.1067 108.35 59.7084 107.748 60.2175C107.123 60.7267 106.475 61.0738 105.781 61.2358C104.207 61.6292 102.587 61.6523 100.944 61.3284C99.2777 61.0044 97.843 60.3333 96.6396 59.315L96.547 59.3613Z" fill="#F4A400"/>
<path d="M102.378 59.2219L103.35 63.156C103.767 64.8454 106.428 64.1974 105.989 62.4849L104.901 58.0879C104.091 58.5044 103.258 58.8979 102.378 59.2219Z" fill="#F4A400"/>
<path d="M98.6084 43.8095C99.4416 43.4855 100.321 43.3235 101.2 43.2078L100.252 39.3894C99.8349 37.7 97.1736 38.3479 97.6133 40.0605L98.5621 43.8558C98.5621 43.8326 98.5853 43.8095 98.6084 43.8095Z" fill="#F4A400"/>
<path d="M74.353 40.0188L49.172 40.0376C46.5534 40.0456 44.4141 42.1685 44.416 44.8046L44.4365 106.174C44.4445 108.793 46.5674 110.932 49.2035 110.93L74.3845 110.912C77.0031 110.904 79.1424 108.781 79.1405 106.145L79.1199 44.7748C79.1119 42.1562 76.9891 40.017 74.353 40.0188Z" fill="#CCF8F6"/>
<path d="M75.8012 38.5777L50.6026 38.5903C47.984 38.5983 45.8448 40.7212 45.8466 43.3573L45.8672 104.727C45.8752 107.346 47.998 109.485 50.6341 109.483L75.8152 109.464C78.4338 109.456 80.573 107.334 80.5711 104.697L80.5506 43.3275C80.5601 40.7151 78.4197 38.5697 75.8012 38.5777Z" fill="#89A6B7"/>
<path d="M75.7915 40.7968L71.7581 40.8014L71.759 41.9228C71.7625 42.4747 71.3157 42.9084 70.7875 42.9005L55.6051 42.8978C55.0532 42.9013 54.6195 42.4545 54.6273 41.9262L54.6264 40.8049L50.593 40.8094C49.1956 40.8121 48.0515 41.9458 48.0542 43.3432L48.0748 104.713C48.0775 106.11 49.2112 107.255 50.6085 107.252L75.7895 107.233C77.1869 107.23 78.331 106.097 78.3283 104.699L78.3077 43.3294C78.3401 41.9443 77.2064 40.8002 75.7915 40.7968Z" fill="#88E2E3"/>
<path fill-rule="evenodd" clip-rule="evenodd" d="M62.4082 74.0332C62.4047 73.4813 62.8576 73.0301 63.4034 73.0441C63.9553 73.0405 64.4004 73.511 64.3864 74.0568C64.3899 74.6087 63.937 75.0599 63.3912 75.0459C62.8393 75.0494 62.3881 74.5965 62.4082 74.0332ZM61.2106 74.0271C61.2045 75.2247 62.17 76.2313 63.3676 76.2374C64.5652 76.2434 65.5543 75.2718 65.5603 74.0742C65.5664 72.8766 64.6009 71.8701 63.4033 71.864C62.2057 71.8579 61.2167 72.8295 61.2106 74.0271ZM71.3074 74.1186C71.3038 73.5667 71.7568 73.1155 72.3025 73.1295C72.8545 73.126 73.2995 73.5964 73.2856 74.1422C73.2891 74.6941 72.8362 75.1453 72.2904 75.1313C71.7446 75.1173 71.2934 74.6644 71.3074 74.1186ZM70.1308 73.8839C70.0686 74.5112 70.2535 75.1069 70.6811 75.5712C71.0911 76.0294 71.6859 76.2965 72.2904 76.3114C72.76 76.3184 73.2024 76.1782 73.5765 75.8961C73.8131 76.1755 74.1749 76.3218 74.5682 76.3218L74.5858 76.3279L74.6033 76.3341L74.6208 76.3402L74.7794 76.3367C74.8556 76.3437 74.9152 76.2859 74.9222 76.2096L74.9283 75.4054C74.9353 75.3292 74.8774 75.2696 74.8012 75.2626L74.6838 75.2609C74.5489 75.253 74.4149 75.1864 74.4219 74.7168L74.4366 72.5389C74.4436 72.4627 74.3858 72.4031 74.3096 72.3961L73.6052 72.3856C73.2513 72.1044 72.8132 71.9511 72.3673 71.9328C72.3498 71.9266 72.3498 71.9266 72.3261 71.938C71.1934 71.9153 70.2473 72.7643 70.1308 73.8839ZM57.51 71.7881L57.1753 71.789C57.0991 71.782 57.0395 71.8398 57.05 71.9221L57.0378 72.7439C57.0308 72.8201 57.0886 72.8797 57.171 72.8692L57.3882 72.8665C57.4058 72.8727 57.4469 72.8674 57.4811 72.9384L58.6376 75.3098C58.6832 75.4045 58.6815 75.5218 58.6333 75.6033L58.6271 75.6208C58.5728 75.7198 58.5247 75.8013 58.4651 75.8591C57.9421 76.2858 57.3236 76.03 56.7453 75.8277C56.6928 75.8093 56.6639 75.7795 56.6113 75.7611C56.3783 75.6402 56.1137 75.6656 55.9061 75.8093L55.2946 76.2641C55.9964 76.844 56.8777 77.1917 57.7748 77.2697L57.8747 77.2653C58.4327 77.2442 58.8699 77.0629 59.2037 76.7273C59.4954 76.4557 59.7301 76.0658 59.9623 75.4587L61.3997 71.9692C61.412 71.9342 61.4067 71.893 61.384 71.8457C61.3551 71.8159 61.3261 71.7861 61.285 71.7914L60.3046 71.7827C60.2459 71.7818 60.1986 71.8046 60.1802 71.8572L59.2964 74.0456L58.5858 72.4792C58.4106 72.0246 58.1679 71.7626 57.5222 71.753C57.5275 71.7942 57.51 71.7881 57.51 71.7881ZM52.8579 70.3568C52.582 70.3586 52.3384 70.5487 52.2465 70.8115C52.0555 71.4134 51.9522 72.0459 51.9425 72.6916L51.9364 72.7091C51.9391 72.9264 51.9356 73.1612 51.9732 73.3907C52.0565 74.1082 52.2572 74.8274 52.5875 75.5134C52.9353 76.2055 53.3786 76.7933 53.9113 77.2944C54.5483 77.891 55.2991 78.3307 56.1226 78.6189C56.1927 78.6434 56.2514 78.6443 56.3276 78.6513C56.5212 78.6601 56.7104 78.5689 56.848 78.4007L57.3981 77.7279C56.4668 77.579 55.5978 77.1962 54.8732 76.5689C54.3747 76.1388 53.948 75.6158 53.6405 74.9772C53.3268 74.3561 53.1665 73.6902 53.1235 73.0262C53.0613 72.08 53.275 71.1321 53.7217 70.3051L52.8579 70.3568ZM54.2912 70.3077C53.8041 71.0813 53.5676 71.9819 53.601 72.8983L54.3439 72.6862C54.5857 72.6135 54.7766 72.405 54.8038 72.1588C54.8546 71.9012 54.929 71.6323 55.0324 71.3931C55.2514 70.8797 54.8782 70.3164 54.3324 70.3024C54.3324 70.3024 54.3148 70.2963 54.2912 70.3077ZM65.8151 70.3675C65.7389 70.3605 65.6793 70.4184 65.6723 70.4946L65.6662 71.2988C65.6592 71.375 65.717 71.4346 65.7932 71.4416L66.028 71.4451C66.0455 71.4512 66.0631 71.4574 66.0569 71.4749L66.0387 74.6743C66.0309 75.596 66.6319 76.239 67.4948 76.2459L67.6534 76.2424C67.7296 76.2494 67.7892 76.1916 67.7962 76.1154L67.804 75.1937C67.811 75.1175 67.7532 75.058 67.677 75.051L67.6183 75.0501C67.2836 75.051 67.2398 74.839 67.2424 74.6629L67.2633 71.2874C67.265 70.7766 66.8427 70.3535 66.332 70.3518L65.8151 70.3675ZM67.9755 70.3762C67.8993 70.3692 67.8397 70.427 67.8327 70.5032L67.8266 71.3075C67.8196 71.3837 67.8774 71.4433 67.9536 71.4503L68.1884 71.4538C68.2059 71.4599 68.2235 71.466 68.2173 71.4835L68.1991 74.683C68.1913 75.6046 68.7923 76.2476 69.6552 76.2546L69.8138 76.2511C69.89 76.2581 69.9496 76.2003 69.9566 76.124L69.9644 75.2024C69.9714 75.1262 69.9136 75.0666 69.8374 75.0596L69.7787 75.0587C69.444 75.0596 69.4002 74.8476 69.4028 74.6715L69.4237 71.296C69.4254 70.7853 69.0031 70.3621 68.4924 70.3604L67.9755 70.3762Z" fill="white"/>
</svg>
