<svg width="19" height="16" viewBox="0 0 19 16" fill="none" xmlns="http://www.w3.org/2000/svg">
<path d="M17.0157 4.33475C17.7477 3.815 18.3635 3.16625 18.8652 2.41925V2.4185C18.1955 2.71175 17.483 2.90675 16.739 3.00125C17.504 2.5445 18.0882 1.82675 18.3627 0.962C17.6495 1.38725 16.862 1.68725 16.0227 1.85525C15.3455 1.13375 14.3802 0.6875 13.3272 0.6875C11.2842 0.6875 9.63948 2.34575 9.63948 4.37825C9.63948 4.67075 9.66423 4.952 9.72498 5.21975C6.65748 5.06975 3.94248 3.59975 2.11848 1.3595C1.80048 1.91225 1.61298 2.5445 1.61298 3.22475C1.61298 4.50275 2.27073 5.63525 3.25248 6.2915C2.65923 6.28025 2.07798 6.10775 1.58523 5.837V5.8775C1.58523 7.67075 2.86398 9.16025 4.54173 9.50375C4.24098 9.58625 3.91398 9.62525 3.57423 9.62525C3.33798 9.62525 3.09948 9.61175 2.87598 9.56225C3.35373 11.0233 4.71123 12.098 6.32373 12.1332C5.06823 13.115 3.47373 13.7067 1.74798 13.7067C1.44573 13.7067 1.15548 13.6932 0.865234 13.6565C2.50023 14.7102 4.43673 15.3125 6.52623 15.3125C13.0385 15.3125 17.2827 9.8795 17.0157 4.33475Z" fill="#636A70"/>
</svg>
