<svg width="165" height="52" viewBox="0 0 165 52" fill="none" xmlns="http://www.w3.org/2000/svg">
<path d="M151.86 0.564618H13.147C12.6414 0.564618 12.1418 0.564618 11.6375 0.567163C11.2154 0.569707 10.7966 0.577098 10.3704 0.583318C9.44452 0.59337 8.52081 0.668519 7.60731 0.808112C6.69509 0.950744 5.81144 1.21965 4.98626 1.60572C4.16209 1.99506 3.40902 2.50098 2.75437 3.1051C2.09628 3.70753 1.54772 4.40385 1.12977 5.1673C0.710665 5.92922 0.420057 6.7457 0.267981 7.58852C0.11446 8.43028 0.0318494 9.28174 0.0208897 10.1353C0.00809391 10.5253 0.00674263 10.9166 0 11.3067V40.7105C0.00674263 41.1055 0.00809391 41.4881 0.0208897 41.8832C0.0318528 42.7367 0.114464 43.5881 0.267981 44.4298C0.419637 45.2732 0.710262 46.0901 1.12977 46.8523C1.54753 47.6133 2.09617 48.3068 2.75437 48.9059C3.40654 49.5127 4.16009 50.0189 4.98626 50.4053C5.81144 50.7924 6.69499 51.0629 7.60731 51.2077C8.52097 51.3462 9.44458 51.4214 10.3704 51.4327C10.7966 51.4413 11.2154 51.4463 11.6375 51.4463C12.1418 51.4488 12.6414 51.4488 13.147 51.4488H151.86C152.356 51.4488 152.86 51.4488 153.355 51.4463C153.775 51.4463 154.206 51.4413 154.626 51.4327C155.55 51.422 156.472 51.3468 157.384 51.2077C158.299 51.0619 159.186 50.7915 160.015 50.4053C160.841 50.0187 161.593 49.5125 162.245 48.9059C162.902 48.3044 163.451 47.6114 163.874 46.8523C164.291 46.0895 164.579 45.2727 164.728 44.4298C164.882 43.588 164.967 42.7368 164.984 41.8832C164.989 41.4881 164.989 41.1055 164.989 40.7105C165 40.2483 165 39.7887 165 39.319V12.6956C165 12.2297 165 11.7676 164.989 11.3067C164.989 10.9166 164.989 10.5253 164.984 10.1352C164.967 9.28162 164.882 8.43034 164.728 7.58847C164.578 6.74613 164.29 5.92972 163.874 5.16725C163.023 3.637 161.673 2.39139 160.015 1.60561C159.186 1.22047 158.299 0.951644 157.384 0.807998C156.472 0.66779 155.55 0.592615 154.626 0.58314C154.206 0.576932 153.775 0.569478 153.355 0.566997C152.86 0.564453 152.356 0.564453 151.86 0.564453V0.564618Z" fill="#A6A6A6"/>
<path d="M11.8995 50.3244C11.4809 50.3244 11.0724 50.3195 10.6571 50.3108C9.7967 50.3004 8.93835 50.2311 8.08906 50.1034C7.29713 49.9772 6.52997 49.7424 5.81287 49.4067C5.10235 49.0739 4.4543 48.6374 3.89354 48.1141C3.32467 47.5969 2.85106 46.9971 2.49147 46.3383C2.12793 45.6753 1.87633 44.9647 1.74545 44.2311C1.60411 43.4429 1.52764 42.6459 1.5167 41.847C1.50799 41.5788 1.49658 40.6859 1.49658 40.6859V11.3123C1.49658 11.3123 1.50873 10.4332 1.51676 10.1749C1.52724 9.3772 1.60327 8.58142 1.74419 7.79443C1.87531 7.05886 2.1271 6.34615 2.49084 5.68098C2.8491 5.02271 3.32009 4.42243 3.88553 3.90341C4.45035 3.37946 5.10047 2.94075 5.8122 2.60329C6.52765 2.26872 7.29336 2.03557 8.08368 1.91164C8.93577 1.78266 9.7971 1.71293 10.6604 1.70303L11.9001 1.6875H153.093L154.348 1.70365C155.203 1.71306 156.057 1.78217 156.901 1.91039C157.699 2.03587 158.473 2.27065 159.197 2.60701C160.622 3.2871 161.783 4.36306 162.514 5.68408C162.872 6.34466 163.12 7.05156 163.25 7.78077C163.392 8.57422 163.472 9.37625 163.489 10.1805C163.493 10.5406 163.493 10.9274 163.493 11.3123C163.503 11.7892 163.503 12.243 163.503 12.7006V39.3125C163.503 39.7745 163.503 40.2252 163.493 40.6797C163.493 41.0932 163.493 41.472 163.487 41.8618C163.471 42.6517 163.393 43.4394 163.252 44.2187C163.124 44.9575 162.874 45.6737 162.51 46.3422C162.148 46.9937 161.677 47.5884 161.115 48.1042C160.554 48.6303 159.905 49.0693 159.193 49.4043C158.471 49.7425 157.698 49.9782 156.901 50.1034C156.052 50.2318 155.193 50.3011 154.333 50.3108C153.93 50.3195 153.509 50.3244 153.1 50.3244L151.611 50.327L11.8995 50.3244Z" fill="black"/>
<path fill-rule="evenodd" clip-rule="evenodd" d="M32.9987 26.8125C33.0265 24.6593 34.1553 22.6704 35.9898 21.5426C34.8272 19.8823 32.9499 18.8674 30.924 18.804C28.7927 18.5803 26.7265 20.0794 25.6404 20.0794C24.5333 20.0794 22.861 18.8262 21.0603 18.8633C18.6911 18.9398 16.5359 20.2542 15.3832 22.3256C12.9285 26.5755 14.7595 32.8214 17.1109 36.2567C18.2873 37.9389 19.6622 39.818 21.4613 39.7513C23.2218 39.6783 23.8793 38.6287 26.0044 38.6287C28.1097 38.6287 28.7266 39.7513 30.5622 39.709C32.4513 39.6783 33.6415 38.0193 34.7767 36.3212C35.622 35.1226 36.2724 33.7979 36.7039 32.3961C34.4602 31.4471 33.0014 29.2486 32.9987 26.8125Z" fill="white"/>
<path fill-rule="evenodd" clip-rule="evenodd" d="M29.5332 16.5456C30.5633 15.3091 31.0707 13.7198 30.9478 12.1152C29.3742 12.2805 27.9206 13.0326 26.8767 14.2217C25.8458 15.3948 25.3236 16.9296 25.425 18.488C27.0198 18.5045 28.5339 17.7885 29.5332 16.5456Z" fill="white"/>
<path d="M53.0392 17.76V11.4316H54.8669C55.3695 11.4316 55.7921 11.5039 56.1348 11.6486C56.4775 11.7857 56.7555 11.9913 56.9687 12.2655C57.1896 12.532 57.3457 12.8595 57.4371 13.2479C57.5361 13.6286 57.5856 14.0627 57.5856 14.5501C57.5856 15.0527 57.5323 15.483 57.4256 15.8409C57.3266 16.1912 57.1972 16.4844 57.0373 16.7205C56.8773 16.9566 56.6946 17.1431 56.4889 17.2802C56.2909 17.4173 56.0891 17.5239 55.8835 17.6001C55.6779 17.6686 55.4837 17.7143 55.3009 17.7371C55.1182 17.7524 54.9659 17.76 54.844 17.76H53.0392ZM51.954 10.5178V18.6738H54.7526C55.4304 18.6738 56.0168 18.5786 56.5118 18.3883C57.0068 18.1979 57.4142 17.9237 57.7341 17.5658C58.0539 17.2003 58.29 16.7548 58.4423 16.2293C58.5946 15.6962 58.6708 15.087 58.6708 14.4016C58.6708 13.0918 58.3319 12.117 57.6541 11.4773C56.9763 10.8376 56.0092 10.5178 54.7526 10.5178H51.954ZM60.7738 15.7267C60.7738 15.3688 60.8195 15.0527 60.9108 14.7786C61.0098 14.4968 61.1431 14.2607 61.3106 14.0703C61.4782 13.8799 61.6724 13.7353 61.8932 13.6363C62.1217 13.5373 62.3616 13.4878 62.6129 13.4878C62.8642 13.4878 63.1003 13.5373 63.3211 13.6363C63.5496 13.7353 63.7476 13.8799 63.9151 14.0703C64.0826 14.2607 64.2121 14.4968 64.3035 14.7786C64.4025 15.0527 64.452 15.3688 64.452 15.7267C64.452 16.0846 64.4025 16.4044 64.3035 16.6862C64.2121 16.9604 64.0826 17.1926 63.9151 17.383C63.7476 17.5658 63.5496 17.7067 63.3211 17.8057C63.1003 17.9047 62.8642 17.9542 62.6129 17.9542C62.3616 17.9542 62.1217 17.9047 61.8932 17.8057C61.6724 17.7067 61.4782 17.5658 61.3106 17.383C61.1431 17.1926 61.0098 16.9604 60.9108 16.6862C60.8195 16.4044 60.7738 16.0846 60.7738 15.7267ZM59.7457 15.7267C59.7457 16.1608 59.8066 16.5644 59.9285 16.9375C60.0503 17.3107 60.2331 17.6381 60.4768 17.9199C60.7205 18.1941 61.0213 18.4111 61.3792 18.571C61.7371 18.7233 62.1483 18.7995 62.6129 18.7995C63.085 18.7995 63.4963 18.7233 63.8466 18.571C64.2045 18.4111 64.5053 18.1941 64.749 17.9199C64.9927 17.6381 65.1755 17.3107 65.2973 16.9375C65.4191 16.5644 65.4801 16.1608 65.4801 15.7267C65.4801 15.2926 65.4191 14.889 65.2973 14.5158C65.1755 14.1351 64.9927 13.8076 64.749 13.5334C64.5053 13.2517 64.2045 13.0308 63.8466 12.8709C63.4963 12.711 63.085 12.631 62.6129 12.631C62.1483 12.631 61.7371 12.711 61.3792 12.8709C61.0213 13.0308 60.7205 13.2517 60.4768 13.5334C60.2331 13.8076 60.0503 14.1351 59.9285 14.5158C59.8066 14.889 59.7457 15.2926 59.7457 15.7267ZM72.702 18.6738L74.5868 12.7681H73.5815L72.2565 17.6001H72.2336L70.9999 12.7681H69.9376L68.7496 17.6001H68.7267L67.3902 12.7681H66.3165L68.2127 18.6738H69.2636L70.4516 13.9789H70.4745L71.6739 18.6738H72.702ZM75.7383 12.7681V18.6738H76.7093V15.3383C76.7093 15.0718 76.7436 14.8281 76.8121 14.6072C76.8883 14.3788 76.9987 14.1808 77.1434 14.0132C77.2881 13.8457 77.467 13.7162 77.6803 13.6248C77.9011 13.5334 78.16 13.4878 78.457 13.4878C78.8302 13.4878 79.1234 13.5944 79.3366 13.8076C79.5498 14.0208 79.6565 14.3102 79.6565 14.6758V18.6738H80.6274V14.79C80.6274 14.4701 80.5932 14.1808 80.5246 13.9218C80.4637 13.6553 80.3533 13.4268 80.1933 13.2364C80.0334 13.0461 79.824 12.8976 79.5651 12.7909C79.3062 12.6843 78.9825 12.631 78.5941 12.631C77.7183 12.631 77.0787 12.9889 76.675 13.7048H76.6522V12.7681H75.7383ZM82.3713 10.5178V18.6738H83.3423V10.5178H82.3713ZM85.7832 15.7267C85.7832 15.3688 85.8288 15.0527 85.9202 14.7786C86.0192 14.4968 86.1525 14.2607 86.32 14.0703C86.4876 13.8799 86.6818 13.7353 86.9026 13.6363C87.1311 13.5373 87.371 13.4878 87.6223 13.4878C87.8736 13.4878 88.1097 13.5373 88.3305 13.6363C88.559 13.7353 88.757 13.8799 88.9245 14.0703C89.092 14.2607 89.2215 14.4968 89.3129 14.7786C89.4119 15.0527 89.4614 15.3688 89.4614 15.7267C89.4614 16.0846 89.4119 16.4044 89.3129 16.6862C89.2215 16.9604 89.092 17.1926 88.9245 17.383C88.757 17.5658 88.559 17.7067 88.3305 17.8057C88.1097 17.9047 87.8736 17.9542 87.6223 17.9542C87.371 17.9542 87.1311 17.9047 86.9026 17.8057C86.6818 17.7067 86.4876 17.5658 86.32 17.383C86.1525 17.1926 86.0192 16.9604 85.9202 16.6862C85.8288 16.4044 85.7832 16.0846 85.7832 15.7267ZM84.7551 15.7267C84.7551 16.1608 84.816 16.5644 84.9378 16.9375C85.0597 17.3107 85.2425 17.6381 85.4862 17.9199C85.7298 18.1941 86.0307 18.4111 86.3886 18.571C86.7465 18.7233 87.1577 18.7995 87.6223 18.7995C88.0944 18.7995 88.5057 18.7233 88.856 18.571C89.2139 18.4111 89.5147 18.1941 89.7584 17.9199C90.0021 17.6381 90.1848 17.3107 90.3067 16.9375C90.4285 16.5644 90.4895 16.1608 90.4895 15.7267C90.4895 15.2926 90.4285 14.889 90.3067 14.5158C90.1848 14.1351 90.0021 13.8076 89.7584 13.5334C89.5147 13.2517 89.2139 13.0308 88.856 12.8709C88.5057 12.711 88.0944 12.631 87.6223 12.631C87.1577 12.631 86.7465 12.711 86.3886 12.8709C86.0307 13.0308 85.7298 13.2517 85.4862 13.5334C85.2425 13.8076 85.0597 14.1351 84.9378 14.5158C84.816 14.889 84.7551 15.2926 84.7551 15.7267ZM97.0945 18.651C96.927 18.75 96.6947 18.7995 96.3977 18.7995C96.1464 18.7995 95.9446 18.7309 95.7923 18.5939C95.6476 18.4492 95.5752 18.2169 95.5752 17.8971C95.3087 18.2169 94.9965 18.4492 94.6385 18.5939C94.2882 18.7309 93.9075 18.7995 93.4962 18.7995C93.2297 18.7995 92.9746 18.769 92.7309 18.7081C92.4948 18.6472 92.2892 18.552 92.114 18.4225C91.9389 18.2931 91.798 18.1255 91.6914 17.9199C91.5924 17.7067 91.5429 17.4516 91.5429 17.1546C91.5429 16.8195 91.6 16.5453 91.7142 16.3321C91.8285 16.1189 91.977 15.9475 92.1597 15.8181C92.3501 15.681 92.5633 15.5782 92.7994 15.5096C93.0431 15.4411 93.2906 15.384 93.5419 15.3383C93.8085 15.285 94.0598 15.2469 94.2958 15.2241C94.5395 15.1936 94.7528 15.1555 94.9355 15.1098C95.1183 15.0565 95.263 14.9842 95.3696 14.8928C95.4762 14.7938 95.5295 14.6529 95.5295 14.4701C95.5295 14.2569 95.4877 14.0856 95.4039 13.9561C95.3277 13.8266 95.2249 13.7276 95.0955 13.6591C94.9736 13.5906 94.8327 13.5449 94.6728 13.522C94.5205 13.4992 94.3682 13.4878 94.2159 13.4878C93.8047 13.4878 93.462 13.5677 93.1878 13.7276C92.9137 13.8799 92.7652 14.1731 92.7423 14.6072H91.7713C91.7866 14.2417 91.8627 13.9333 91.9998 13.6819C92.1369 13.4306 92.3197 13.2288 92.5481 13.0765C92.7766 12.9166 93.0355 12.8024 93.3249 12.7338C93.6219 12.6653 93.9379 12.631 94.273 12.631C94.5395 12.631 94.8023 12.6501 95.0612 12.6881C95.3277 12.7262 95.5676 12.8062 95.7808 12.928C95.9941 13.0423 96.1654 13.206 96.2949 13.4192C96.4243 13.6324 96.4891 13.9104 96.4891 14.2531V17.2916C96.4891 17.5201 96.5005 17.6876 96.5233 17.7943C96.5538 17.9009 96.6452 17.9542 96.7975 17.9542C96.8813 17.9542 96.9803 17.9351 97.0945 17.8971V18.651ZM95.5181 15.6239C95.3963 15.7153 95.2363 15.7838 95.0383 15.8295C94.8403 15.8676 94.6309 15.9018 94.4101 15.9323C94.1968 15.9551 93.9798 15.9856 93.759 16.0237C93.5381 16.0541 93.3401 16.1074 93.165 16.1836C92.9898 16.2598 92.8451 16.3702 92.7309 16.5149C92.6243 16.6519 92.571 16.8423 92.571 17.086C92.571 17.2459 92.6014 17.383 92.6623 17.4973C92.7309 17.6039 92.8147 17.6914 92.9137 17.76C93.0203 17.8285 93.1421 17.878 93.2792 17.9085C93.4163 17.9389 93.561 17.9542 93.7133 17.9542C94.0331 17.9542 94.3073 17.9123 94.5357 17.8285C94.7642 17.7371 94.9508 17.6267 95.0955 17.4973C95.2402 17.3602 95.3468 17.2155 95.4153 17.0632C95.4838 16.9033 95.5181 16.7548 95.5181 16.6177V15.6239ZM98.9349 15.7724C98.9349 15.483 98.9653 15.2012 99.0263 14.9271C99.0872 14.6529 99.1862 14.4092 99.3233 14.196C99.4603 13.9828 99.6431 13.8114 99.8716 13.6819C100.1 13.5525 100.378 13.4878 100.705 13.4878C101.041 13.4878 101.326 13.5525 101.562 13.6819C101.798 13.8038 101.989 13.9675 102.133 14.1731C102.286 14.3788 102.396 14.6186 102.465 14.8928C102.533 15.1593 102.567 15.4373 102.567 15.7267C102.567 16.0008 102.533 16.2712 102.465 16.5377C102.404 16.8043 102.301 17.0441 102.156 17.2574C102.011 17.463 101.825 17.6305 101.596 17.76C101.368 17.8894 101.09 17.9542 100.763 17.9542C100.45 17.9542 100.176 17.8933 99.9401 17.7714C99.7116 17.6496 99.5213 17.4858 99.3689 17.2802C99.2243 17.0746 99.1138 16.8423 99.0377 16.5834C98.9691 16.3169 98.9349 16.0465 98.9349 15.7724ZM103.504 18.6738V10.5178H102.533V13.5563H102.51C102.404 13.3811 102.27 13.2364 102.11 13.1222C101.958 13.0004 101.794 12.9052 101.619 12.8366C101.444 12.7605 101.269 12.7072 101.094 12.6767C100.919 12.6463 100.755 12.631 100.603 12.631C100.153 12.631 99.7573 12.7148 99.4146 12.8823C99.0796 13.0423 98.7978 13.2631 98.5693 13.5449C98.3485 13.819 98.1809 14.1427 98.0667 14.5158C97.9601 14.889 97.9068 15.285 97.9068 15.7038C97.9068 16.1227 97.9639 16.5187 98.0781 16.8918C98.1924 17.265 98.3599 17.5924 98.5808 17.8742C98.8092 18.156 99.091 18.3806 99.4261 18.5482C99.7688 18.7157 100.169 18.7995 100.625 18.7995C101.037 18.7995 101.414 18.7271 101.756 18.5824C102.099 18.4378 102.35 18.2017 102.51 17.8742H102.533V18.6738H103.504ZM109.342 15.7267C109.342 15.3688 109.388 15.0527 109.479 14.7786C109.578 14.4968 109.712 14.2607 109.879 14.0703C110.047 13.8799 110.241 13.7353 110.462 13.6363C110.69 13.5373 110.93 13.4878 111.181 13.4878C111.433 13.4878 111.669 13.5373 111.89 13.6363C112.118 13.7353 112.316 13.8799 112.484 14.0703C112.651 14.2607 112.781 14.4968 112.872 14.7786C112.971 15.0527 113.021 15.3688 113.021 15.7267C113.021 16.0846 112.971 16.4044 112.872 16.6862C112.781 16.9604 112.651 17.1926 112.484 17.383C112.316 17.5658 112.118 17.7067 111.89 17.8057C111.669 17.9047 111.433 17.9542 111.181 17.9542C110.93 17.9542 110.69 17.9047 110.462 17.8057C110.241 17.7067 110.047 17.5658 109.879 17.383C109.712 17.1926 109.578 16.9604 109.479 16.6862C109.388 16.4044 109.342 16.0846 109.342 15.7267ZM108.314 15.7267C108.314 16.1608 108.375 16.5644 108.497 16.9375C108.619 17.3107 108.802 17.6381 109.045 17.9199C109.289 18.1941 109.59 18.4111 109.948 18.571C110.306 18.7233 110.717 18.7995 111.181 18.7995C111.654 18.7995 112.065 18.7233 112.415 18.571C112.773 18.4111 113.074 18.1941 113.318 17.9199C113.561 17.6381 113.744 17.3107 113.866 16.9375C113.988 16.5644 114.049 16.1608 114.049 15.7267C114.049 15.2926 113.988 14.889 113.866 14.5158C113.744 14.1351 113.561 13.8076 113.318 13.5334C113.074 13.2517 112.773 13.0308 112.415 12.8709C112.065 12.711 111.654 12.631 111.181 12.631C110.717 12.631 110.306 12.711 109.948 12.8709C109.59 13.0308 109.289 13.2517 109.045 13.5334C108.802 13.8076 108.619 14.1351 108.497 14.5158C108.375 14.889 108.314 15.2926 108.314 15.7267ZM115.422 12.7681V18.6738H116.393V15.3383C116.393 15.0718 116.427 14.8281 116.496 14.6072C116.572 14.3788 116.682 14.1808 116.827 14.0132C116.972 13.8457 117.151 13.7162 117.364 13.6248C117.585 13.5334 117.844 13.4878 118.141 13.4878C118.514 13.4878 118.807 13.5944 119.02 13.8076C119.233 14.0208 119.34 14.3102 119.34 14.6758V18.6738H120.311V14.79C120.311 14.4701 120.277 14.1808 120.208 13.9218C120.147 13.6553 120.037 13.4268 119.877 13.2364C119.717 13.0461 119.508 12.8976 119.249 12.7909C118.99 12.6843 118.666 12.631 118.278 12.631C117.402 12.631 116.762 12.9889 116.359 13.7048H116.336V12.7681H115.422ZM126.753 12.7681V10.9975H125.782V12.7681H124.777V13.6248H125.782V17.383C125.782 17.6572 125.809 17.878 125.862 18.0456C125.916 18.2131 125.996 18.3426 126.102 18.4339C126.217 18.5253 126.361 18.5901 126.536 18.6281C126.719 18.6586 126.936 18.6738 127.188 18.6738H127.93V17.8171H127.485C127.332 17.8171 127.207 17.8133 127.108 17.8057C127.016 17.7904 126.944 17.7638 126.891 17.7257C126.837 17.6876 126.799 17.6343 126.776 17.5658C126.761 17.4973 126.753 17.4059 126.753 17.2916V13.6248H127.93V12.7681H126.753ZM129.237 10.5178V18.6738H130.208V15.3383C130.208 15.0718 130.242 14.8281 130.311 14.6072C130.387 14.3788 130.498 14.1808 130.642 14.0132C130.787 13.8457 130.966 13.7162 131.179 13.6248C131.4 13.5334 131.659 13.4878 131.956 13.4878C132.329 13.4878 132.622 13.5944 132.835 13.8076C133.049 14.0208 133.155 14.3102 133.155 14.6758V18.6738H134.126V14.79C134.126 14.4701 134.092 14.1808 134.023 13.9218C133.963 13.6553 133.852 13.4268 133.692 13.2364C133.532 13.0461 133.323 12.8976 133.064 12.7909C132.805 12.6843 132.481 12.631 132.093 12.631C131.918 12.631 131.735 12.6501 131.545 12.6881C131.362 12.7262 131.183 12.7871 131.008 12.8709C130.84 12.9471 130.688 13.0499 130.551 13.1793C130.414 13.3012 130.307 13.4535 130.231 13.6363H130.208V10.5178H129.237ZM139.914 15.1555H136.521C136.536 14.9271 136.586 14.7138 136.67 14.5158C136.754 14.3102 136.868 14.1313 137.012 13.9789C137.157 13.8266 137.328 13.7086 137.526 13.6248C137.732 13.5334 137.961 13.4878 138.212 13.4878C138.456 13.4878 138.676 13.5334 138.874 13.6248C139.08 13.7086 139.255 13.8266 139.4 13.9789C139.552 14.1236 139.67 14.2988 139.754 14.5044C139.845 14.71 139.899 14.9271 139.914 15.1555ZM140.851 16.8004H139.891C139.807 17.1888 139.632 17.4782 139.366 17.6686C139.107 17.859 138.772 17.9542 138.36 17.9542C138.041 17.9542 137.763 17.9009 137.526 17.7943C137.29 17.6876 137.096 17.5468 136.944 17.3716C136.792 17.1888 136.681 16.9832 136.613 16.7548C136.544 16.5187 136.514 16.2712 136.521 16.0123H140.942C140.957 15.6543 140.923 15.2774 140.839 14.8814C140.763 14.4854 140.618 14.1198 140.405 13.7848C140.199 13.4497 139.922 13.1755 139.571 12.9623C139.229 12.7414 138.794 12.631 138.269 12.631C137.865 12.631 137.492 12.7072 137.15 12.8595C136.814 13.0118 136.521 13.225 136.27 13.4992C136.026 13.7733 135.836 14.097 135.699 14.4701C135.562 14.8433 135.493 15.2545 135.493 15.7038C135.508 16.1531 135.573 16.5682 135.687 16.9489C135.809 17.3297 135.988 17.6572 136.224 17.9313C136.46 18.2055 136.75 18.4187 137.092 18.571C137.443 18.7233 137.854 18.7995 138.326 18.7995C138.996 18.7995 139.552 18.6319 139.994 18.2969C140.436 17.9618 140.721 17.463 140.851 16.8004Z" fill="white"/>
<path d="M72.5378 28.5864C75.4542 28.5865 77.3767 30.8919 77.3767 34.4529C77.3767 38.0239 75.4654 40.3182 72.5812 40.3182C71.0903 40.3962 69.686 39.6153 68.9656 38.3077H68.911V43.9994H66.5523V28.7067H68.8354V30.618H68.8788C69.6312 29.3186 71.0371 28.5381 72.5378 28.5864ZM85.1854 28.5865C88.102 28.5865 90.0244 30.8919 90.0244 34.4529C90.0244 38.0239 88.1131 40.3182 85.2288 40.3182C83.738 40.3962 82.3337 39.6153 81.6133 38.3077H81.5587V43.9994H79.2V28.7067H81.4831V30.618H81.5265C82.2789 29.3186 83.6847 28.5381 85.1854 28.5865ZM102.119 24.1738C105.45 24.1738 107.733 26.0417 107.81 28.7612H105.429C105.286 27.1883 103.986 26.2388 102.086 26.2388C100.186 26.2388 98.8855 27.1994 98.8855 28.5976C98.8855 29.7118 99.7159 30.3675 101.747 30.8695L103.484 31.2959C106.718 32.0606 108.061 33.3596 108.061 35.665C108.061 38.6138 105.713 40.4606 101.977 40.4606C98.4814 40.4606 96.1214 38.6571 95.9689 35.8063L98.3835 35.8064C98.5583 37.3694 100.077 38.3957 102.152 38.3957C104.14 38.3957 105.57 37.3694 105.57 35.9601C105.57 34.7367 104.707 34.0042 102.665 33.5022L100.622 33.0101C97.7278 32.311 96.3842 30.9575 96.3842 28.7612C96.3842 26.0417 98.7541 24.1738 102.119 24.1738ZM122.053 28.5654C125.384 28.5654 127.504 30.8373 127.504 34.4529C127.504 38.0784 125.396 40.3405 122.053 40.3405C118.711 40.3405 116.603 38.0784 116.603 34.4529C116.603 30.8374 118.732 28.5654 122.053 28.5654ZM141.153 28.5654C144.332 28.5654 146.332 30.7493 146.332 34.2335V35.0417H138.216V35.1842C138.14 36.0397 138.435 36.8865 139.027 37.5093C139.618 38.132 140.449 38.4707 141.307 38.4391C142.451 38.5463 143.531 37.8891 143.961 36.8228L146.2 36.8228C145.883 38.9089 143.851 40.3405 141.252 40.3405C137.909 40.3405 135.834 38.1007 135.834 34.5075C135.834 30.903 137.921 28.5654 141.153 28.5654ZM113.152 25.9873V28.7067H115.337V30.5746H113.152V36.9096C113.152 37.8937 113.589 38.3523 114.55 38.3523C114.809 38.3478 115.068 38.3296 115.326 38.2978V40.1545C114.894 40.2352 114.455 40.2718 114.016 40.2636C111.689 40.2636 110.782 39.3897 110.782 37.1612V30.5746H109.111V28.7067H110.782V25.9873H113.152ZM59.3968 24.4366L65.0872 40.1979H62.4992L61.0577 35.9378H55.0499L53.6072 40.1979H51.0625L56.753 24.4366H59.3968ZM134.517 28.5864C134.789 28.5855 135.06 28.615 135.325 28.6744V30.8807C134.982 30.7759 134.624 30.7277 134.265 30.7382C133.572 30.7101 132.901 30.9864 132.428 31.4947C131.956 32.003 131.729 32.6924 131.807 33.382V40.1979H129.449V28.7067H131.698V30.6626H131.753C132.067 29.4035 133.22 28.5369 134.517 28.5864ZM122.053 30.5089C120.141 30.5089 119.006 31.9839 119.006 34.4529C119.006 36.9431 120.141 38.3957 122.053 38.3957C123.964 38.3957 125.101 36.9431 125.101 34.4529C125.101 31.9727 123.964 30.5089 122.053 30.5089ZM71.9156 30.5969C70.1133 30.5969 68.9011 32.1586 68.9011 34.4529C68.9011 36.7683 70.1133 38.3189 71.9156 38.3189C73.75 38.3189 74.9523 36.8005 74.9523 34.4529C74.9523 32.1264 73.75 30.5969 71.9156 30.5969ZM84.5632 30.5969C82.761 30.5969 81.5488 32.1586 81.5488 34.4529C81.5488 36.7683 82.761 38.3189 84.5632 38.3189C86.3977 38.3189 87.6 36.8005 87.6 34.4529C87.6 32.1264 86.3977 30.5969 84.5632 30.5969ZM58.0867 27.0582H58.021L55.6721 33.972H60.4343L58.0867 27.0582ZM141.153 30.4767C140.377 30.472 139.632 30.7775 139.082 31.3252C138.533 31.8728 138.225 32.6173 138.227 33.3932H143.972C144.014 32.6244 143.735 31.8727 143.2 31.3191C142.665 30.7655 141.923 30.4601 141.153 30.4767Z" fill="white"/>
</svg>
