<svg width="19" height="14" viewBox="0 0 19 14" fill="none" xmlns="http://www.w3.org/2000/svg">
<path d="M18.4672 2.44676L18.4897 2.59376C18.2722 1.82201 17.685 1.22651 16.9387 1.00976L16.923 1.00601C15.5197 0.62501 9.87296 0.62501 9.87296 0.62501C9.87296 0.62501 4.24046 0.61751 2.82296 1.00601C2.06246 1.22651 1.47446 1.82201 1.26071 2.57801L1.25696 2.59376C0.732705 5.33201 0.728955 8.62226 1.28021 11.554L1.25696 11.4055C1.47446 12.1773 2.06171 12.7728 2.80796 12.9895L2.82371 12.9933C4.22546 13.375 9.87371 13.375 9.87371 13.375C9.87371 13.375 15.5055 13.375 16.9237 12.9933C17.685 12.7728 18.273 12.1773 18.4867 11.4213L18.4905 11.4055C18.729 10.132 18.8655 8.66651 18.8655 7.16951C18.8655 7.11476 18.8655 7.05926 18.8647 7.00376C18.8655 6.95276 18.8655 6.89201 18.8655 6.83126C18.8655 5.33351 18.729 3.86801 18.4672 2.44676ZM8.07146 9.73826V4.26851L12.771 7.00751L8.07146 9.73826Z" fill="#636A70"/>
</svg>
