<svg width="165" height="51" viewBox="0 0 165 51" fill="none" xmlns="http://www.w3.org/2000/svg">
<path d="M151.86 0.000165374H13.147C12.6414 0.000165374 12.1418 0.000165374 11.6375 0.00270958C11.2154 0.00525379 10.7966 0.0126447 10.3704 0.0188653C9.44452 0.0289172 8.52081 0.104066 7.60731 0.243659C6.69509 0.386291 5.81144 0.655192 4.98626 1.04127C4.16209 1.43061 3.40902 1.93652 2.75437 2.54065C2.09628 3.14307 1.54772 3.8394 1.12977 4.60284C0.710665 5.36477 0.420057 6.18124 0.267981 7.02407C0.11446 7.86582 0.0318494 8.71729 0.0208897 9.57082C0.00809391 9.96085 0.00674263 10.3522 0 10.7422V40.146C0.00674263 40.541 0.00809391 40.9236 0.0208897 41.3188C0.0318528 42.1723 0.114464 43.0237 0.267981 43.8654C0.419637 44.7087 0.710262 45.5256 1.12977 46.2879C1.54753 47.0488 2.09617 47.7423 2.75437 48.3414C3.40654 48.9482 4.16009 49.4545 4.98626 49.8408C5.81144 50.228 6.69499 50.4985 7.60731 50.6433C8.52097 50.7818 9.44458 50.8569 10.3704 50.8682C10.7966 50.8769 11.2154 50.8818 11.6375 50.8818C12.1418 50.8844 12.6414 50.8844 13.147 50.8844H151.86C152.356 50.8844 152.86 50.8844 153.355 50.8818C153.775 50.8818 154.206 50.8769 154.626 50.8682C155.55 50.8575 156.472 50.7824 157.384 50.6433C158.299 50.4974 159.186 50.227 160.015 49.8408C160.841 49.4543 161.593 48.948 162.245 48.3414C162.902 47.74 163.451 47.047 163.874 46.2879C164.291 45.5251 164.579 44.7082 164.728 43.8654C164.882 43.0236 164.967 42.1723 164.984 41.3188C164.989 40.9236 164.989 40.541 164.989 40.146C165 39.6839 165 39.2242 165 38.7546V12.1311C165 11.6653 165 11.2031 164.989 10.7422C164.989 10.3522 164.989 9.96085 164.984 9.57077C164.967 8.71716 164.882 7.86589 164.728 7.02402C164.578 6.18168 164.29 5.36527 163.874 4.60279C163.023 3.07255 161.673 1.82694 160.015 1.04115C159.186 0.656021 158.299 0.387191 157.384 0.243544C156.472 0.103337 155.55 0.0281616 154.626 0.0186872C154.206 0.0124793 153.775 0.00502481 153.355 0.00254421C152.86 0 152.356 0 151.86 0V0.000165374Z" fill="#A6A6A6"/>
<path d="M11.8995 49.76C11.4809 49.76 11.0724 49.755 10.6571 49.7464C9.7967 49.736 8.93835 49.6667 8.08906 49.539C7.29713 49.4127 6.52997 49.1779 5.81287 48.8423C5.10235 48.5094 4.4543 48.073 3.89354 47.5496C3.32467 47.0324 2.85106 46.4326 2.49147 45.7739C2.12793 45.1109 1.87633 44.4002 1.74545 43.6667C1.60411 42.8785 1.52764 42.0814 1.5167 41.2825C1.50799 41.0143 1.49658 40.1215 1.49658 40.1215V10.7479C1.49658 10.7479 1.50873 9.8687 1.51676 9.61041C1.52724 8.81274 1.60327 8.01697 1.74419 7.22997C1.87531 6.49441 2.1271 5.7817 2.49084 5.11652C2.8491 4.45826 3.32009 3.85798 3.88553 3.33896C4.45035 2.815 5.10047 2.37629 5.8122 2.03883C6.52765 1.70427 7.29336 1.47111 8.08368 1.34718C8.93577 1.21821 9.7971 1.14847 10.6604 1.13857L11.9001 1.12305H153.093L154.348 1.1392C155.203 1.1486 156.057 1.21771 156.901 1.34594C157.699 1.47142 158.473 1.7062 159.197 2.04256C160.622 2.72264 161.783 3.7986 162.514 5.11963C162.872 5.78021 163.12 6.4871 163.25 7.21632C163.392 8.00977 163.472 8.8118 163.489 9.61601C163.493 9.97611 163.493 10.3629 163.493 10.7479C163.503 11.2247 163.503 11.6786 163.503 12.1361V38.7481C163.503 39.21 163.503 39.6608 163.493 40.1152C163.493 40.5287 163.493 40.9075 163.487 41.2974C163.471 42.0872 163.393 42.875 163.252 43.6542C163.124 44.3931 162.874 45.1093 162.51 45.7777C162.148 46.4293 161.677 47.0239 161.115 47.5397C160.554 48.0658 159.905 48.5049 159.193 48.8399C158.471 49.1781 157.698 49.4138 156.901 49.539C156.052 49.6673 155.193 49.7367 154.333 49.7464C153.93 49.755 153.509 49.76 153.1 49.76L151.611 49.7625L11.8995 49.76Z" fill="black"/>
<path fill-rule="evenodd" clip-rule="evenodd" d="M12.185 9.59529C11.8157 9.98621 11.5986 10.5916 11.5986 11.3773V39.4248C11.5986 40.2104 11.8157 40.8158 12.185 41.2068L12.2789 41.2981L27.9907 25.5863V25.2157L12.2789 9.50391L12.185 9.59529Z" fill="#00D7FE"/>
<mask id="mask0" mask-type="alpha" maskUnits="userSpaceOnUse" x="27" y="19" width="14" height="12">
<path d="M33.2253 30.8247L27.9897 25.5853V25.2147L33.2279 19.9766L39.5512 23.5685C41.323 24.5763 41.323 26.2237 39.5512 27.2302L33.3459 30.7561L33.2253 30.8247Z" fill="white"/>
</mask>
<g mask="url(#mask0)">
<path fill-rule="evenodd" clip-rule="evenodd" d="M33.2253 30.8247L27.9897 25.5853V25.2147L33.2279 19.9766L39.5512 23.5685C41.323 24.5763 41.323 26.2237 39.5512 27.2302L33.3459 30.7561L33.2253 30.8247Z" fill="url(#paint0_linear)"/>
</g>
<mask id="mask1" mask-type="alpha" maskUnits="userSpaceOnUse" x="12" y="25" width="22" height="17">
<path d="M33.3482 30.7565L27.992 25.4004L12.1863 41.2061C12.7714 41.8242 13.736 41.9004 14.8225 41.2835L33.3482 30.7565Z" fill="white"/>
</mask>
<g mask="url(#mask1)">
<path fill-rule="evenodd" clip-rule="evenodd" d="M33.3482 30.7565L27.992 25.4004L12.1863 41.2061C12.7714 41.8242 13.736 41.9004 14.8225 41.2835L33.3482 30.7565Z" fill="url(#paint1_linear)"/>
</g>
<mask id="mask2" mask-type="alpha" maskUnits="userSpaceOnUse" x="12" y="9" width="22" height="17">
<path d="M33.3482 20.043L14.8225 9.51603C13.736 8.89918 12.7714 8.97534 12.1863 9.59345L27.992 25.3992L33.3482 20.043Z" fill="white"/>
</mask>
<g mask="url(#mask2)">
<path fill-rule="evenodd" clip-rule="evenodd" d="M33.3482 20.043L14.8225 9.51603C13.736 8.89918 12.7714 8.97534 12.1863 9.59345L27.992 25.3992L33.3482 20.043Z" fill="url(#paint2_linear)"/>
</g>
<path fill-rule="evenodd" clip-rule="evenodd" d="M132.075 39.2997H134.444V23.4331H132.075V39.2997ZM153.407 29.1484L150.692 36.0276H150.611L147.794 29.1484H145.242L149.468 38.7628L147.059 44.1114H149.53L156.041 29.1484H153.407ZM139.976 37.4974C139.2 37.4974 138.118 37.1103 138.118 36.1508C138.118 34.926 139.466 34.4563 140.629 34.4563C141.671 34.4563 142.159 34.681 142.793 34.9869C142.609 36.4566 141.343 37.4974 139.976 37.4974ZM140.262 28.8019C138.547 28.8019 136.772 29.5571 136.037 31.2312L138.138 32.1083C138.588 31.2312 139.424 30.9444 140.303 30.9444C141.527 30.9444 142.772 31.6793 142.793 32.9866V33.149C142.364 32.9041 141.446 32.5373 140.323 32.5373C138.057 32.5373 135.75 33.7824 135.75 36.1089C135.75 38.2323 137.608 39.6005 139.689 39.6005C141.282 39.6005 142.159 38.886 142.712 38.0483H142.793V39.2731H145.079V33.1909C145.079 30.3732 142.977 28.8019 140.262 28.8019ZM125.625 31.0802H122.257V25.6415H125.625C127.396 25.6415 128.401 27.1075 128.401 28.3602C128.401 29.5901 127.396 31.0802 125.625 31.0802ZM125.564 23.4331H119.889V39.2997H122.257V33.2886H125.564C128.189 33.2886 130.769 31.3873 130.769 28.3602C130.769 25.3331 128.189 23.4331 125.564 23.4331ZM94.6191 37.5C92.9831 37.5 91.6136 36.1305 91.6136 34.2495C91.6136 32.3481 92.9831 30.9571 94.6191 30.9571C96.2348 30.9571 97.5015 32.3481 97.5015 34.2495C97.5015 36.1305 96.2348 37.5 94.6191 37.5ZM97.3378 30.0369H97.2566C96.7247 29.4035 95.703 28.8311 94.4147 28.8311C91.7151 28.8311 89.2414 31.202 89.2414 34.2495C89.2414 37.2753 91.7151 39.6272 94.4147 39.6272C95.703 39.6272 96.7247 39.0548 97.2566 38.3998H97.3378V39.1766C97.3378 41.2429 96.2348 42.3471 94.4554 42.3471C93.0034 42.3471 92.1035 41.3038 91.7354 40.4243L89.6704 41.2835C90.2631 42.7152 91.8382 44.4731 94.4554 44.4731C97.2363 44.4731 99.5881 42.8371 99.5881 38.8504V29.1573H97.3378V30.0369ZM101.224 39.2997H103.596V23.4318H101.224V39.2997ZM107.092 34.0654C107.031 31.9801 108.708 30.9165 109.913 30.9165C110.855 30.9165 111.652 31.3861 111.917 32.0613L107.092 34.0654ZM114.453 32.2656C114.004 31.0599 112.633 28.8311 109.832 28.8311C107.051 28.8311 104.741 31.018 104.741 34.2291C104.741 37.255 107.031 39.6272 110.097 39.6272C112.572 39.6272 114.004 38.1143 114.597 37.2347L112.756 36.0073C112.143 36.9072 111.304 37.5 110.097 37.5C108.892 37.5 108.032 36.9478 107.48 35.8652L114.698 32.88L114.453 32.2656ZM56.9471 30.4875V32.7771H62.4263C62.2626 34.0654 61.8336 35.0059 61.1799 35.6608C60.3816 36.4579 59.1339 37.3362 56.9471 37.3362C53.5734 37.3362 50.9347 34.6175 50.9347 31.2439C50.9347 27.869 53.5734 25.1503 56.9471 25.1503C58.7671 25.1503 60.096 25.8662 61.0771 26.7864L62.6929 25.1706C61.3221 23.8621 59.5033 22.8594 56.9471 22.8594C52.3258 22.8594 48.4407 26.6226 48.4407 31.2439C48.4407 35.8652 52.3258 39.6272 56.9471 39.6272C59.4411 39.6272 61.3221 38.8098 62.7944 37.2753C64.3073 35.7624 64.7782 33.6364 64.7782 31.9179C64.7782 31.3861 64.7376 30.8961 64.6551 30.4875H56.9471ZM71.0089 37.5C69.3728 37.5 67.9614 36.1508 67.9614 34.2291C67.9614 32.286 69.3728 30.9571 71.0089 30.9571C72.6436 30.9571 74.055 32.286 74.055 34.2291C74.055 36.1508 72.6436 37.5 71.0089 37.5ZM71.0089 28.8311C68.0224 28.8311 65.5892 31.1005 65.5892 34.2291C65.5892 37.3362 68.0224 39.6272 71.0089 39.6272C73.9941 39.6272 76.4272 37.3362 76.4272 34.2291C76.4272 31.1005 73.9941 28.8311 71.0089 28.8311ZM82.8292 37.5C81.1932 37.5 79.7818 36.1508 79.7818 34.2291C79.7818 32.286 81.1932 30.9571 82.8292 30.9571C84.4652 30.9571 85.8754 32.286 85.8754 34.2291C85.8754 36.1508 84.4652 37.5 82.8292 37.5ZM82.8292 28.8311C79.844 28.8311 77.4109 31.1005 77.4109 34.2291C77.4109 37.3362 79.844 39.6272 82.8292 39.6272C85.8144 39.6272 88.2476 37.3362 88.2476 34.2291C88.2476 31.1005 85.8144 28.8311 82.8292 28.8311Z" fill="#FFFFFE"/>
<path d="M55.3793 15.296C55.1041 15.6901 54.7193 15.9858 54.2247 16.1828C53.7339 16.3762 53.1612 16.4729 52.5068 16.4729C51.8449 16.4729 51.2574 16.3186 50.7443 16.0099C50.2311 15.6976 49.8332 15.2551 49.5506 14.6824C49.2717 14.1098 49.1286 13.4461 49.1212 12.6912V11.9829C49.1212 10.7595 49.4056 9.81128 49.9745 9.13824C50.5472 8.4652 51.3504 8.12868 52.3841 8.12868C53.2319 8.12868 53.9142 8.34621 54.4311 8.78127C54.948 9.21261 55.264 9.82615 55.3793 10.6219H54.3084C54.1076 9.54727 53.468 9.00995 52.3897 9.00995C51.672 9.00995 51.1273 9.26281 50.7554 9.76852C50.3873 10.2705 50.2014 10.9993 50.1976 11.955V12.6187C50.1976 13.5297 50.4059 14.2548 50.8223 14.794C51.2388 15.3295 51.8022 15.5972 52.5124 15.5972C52.914 15.5972 53.2654 15.5526 53.5666 15.4633C53.8678 15.3741 54.1169 15.2235 54.314 15.0115V13.1876H52.4343V12.3175H55.3793V15.296ZM61.4175 12.6076H57.898V15.4856H61.9864V16.3613H56.827V8.24024H61.9306V9.12151H57.898V11.7319H61.4175V12.6076ZM68.6995 9.12151H66.0891V16.3613H65.0238V9.12151H62.419V8.24024H68.6995V9.12151ZM72.9782 16.3613H71.9073V8.24024H72.9782V16.3613ZM80.0427 9.12151H77.4323V16.3613H76.367V9.12151H73.7622V8.24024H80.0427V9.12151ZM89.4194 12.5629C89.4194 13.3587 89.2855 14.054 89.0178 14.649C88.7501 15.2402 88.3708 15.692 87.88 16.0044C87.3891 16.3167 86.8165 16.4729 86.162 16.4729C85.5225 16.4729 84.9554 16.3167 84.4608 16.0044C83.9663 15.6883 83.5814 15.2402 83.3063 14.6601C83.0348 14.0763 82.8954 13.4014 82.8879 12.6354V12.0498C82.8879 11.2689 83.0237 10.5791 83.2951 9.98047C83.5666 9.3818 83.9496 8.92443 84.4441 8.60836C84.9424 8.28858 85.5113 8.12868 86.1509 8.12868C86.8016 8.12868 87.3742 8.28672 87.8688 8.60278C88.3671 8.91513 88.7501 9.37064 89.0178 9.96931C89.2855 10.5643 89.4194 11.2578 89.4194 12.0498V12.5629ZM88.3541 12.0386C88.3541 11.0756 88.1607 10.3374 87.774 9.82429C87.3873 9.30743 86.8462 9.049 86.1509 9.049C85.4741 9.049 84.9405 9.30743 84.5501 9.82429C84.1634 10.3374 83.9644 11.0514 83.9533 11.9661V12.5629C83.9533 13.4963 84.1485 14.2307 84.5389 14.7661C84.9331 15.2979 85.4741 15.5637 86.162 15.5637C86.8537 15.5637 87.3891 15.3127 87.7684 14.8107C88.1477 14.305 88.3429 13.5818 88.3541 12.641V12.0386ZM96.9245 16.3613H95.848L91.7596 10.1032V16.3613H90.6831V8.24024H91.7596L95.8592 14.5263V8.24024H96.9245V16.3613Z" fill="white"/>
<defs>
<linearGradient id="paint0_linear" x1="38.3985" y1="25.4004" x2="27.9897" y2="25.4004" gradientUnits="userSpaceOnUse">
<stop stop-color="#FFBC00"/>
<stop offset="1" stop-color="#FFDA03"/>
</linearGradient>
<linearGradient id="paint1_linear" x1="30.4373" y1="30.4402" x2="16.8521" y2="41.6381" gradientUnits="userSpaceOnUse">
<stop stop-color="#E22652"/>
<stop offset="1" stop-color="#FF3A44"/>
</linearGradient>
<linearGradient id="paint2_linear" x1="14.5796" y1="11.4962" x2="23.6372" y2="19.4606" gradientUnits="userSpaceOnUse">
<stop stop-color="#0ED574"/>
<stop offset="1" stop-color="#07F076"/>
</linearGradient>
</defs>
</svg>
