<svg width="18" height="18" viewBox="0 0 18 18" fill="none" xmlns="http://www.w3.org/2000/svg">
<path d="M9.00522 4.375C6.45297 4.375 4.38672 6.4435 4.38672 8.9935C4.38672 11.5457 6.45522 13.612 9.00522 13.612C11.5575 13.612 13.6237 11.5435 13.6237 8.9935C13.6237 6.44125 11.5552 4.375 9.00522 4.375ZM9.00522 11.9913C7.34847 11.9913 6.00747 10.6495 6.00747 8.9935C6.00747 7.3375 7.34922 5.99575 9.00522 5.99575C10.6612 5.99575 12.003 7.3375 12.003 8.9935C12.0037 10.6495 10.662 11.9913 9.00522 11.9913Z" fill="#636A70"/>
<path d="M12.7112 0.05654C11.0552 -0.02071 6.95342 -0.01696 5.29592 0.05654C3.83942 0.12479 2.55467 0.47654 1.51892 1.51229C-0.21208 3.24329 0.00917045 5.57579 0.00917045 8.99654C0.00917045 12.4975 -0.18583 14.776 1.51892 16.4808C3.25667 18.2178 5.62292 17.9905 9.00317 17.9905C12.4712 17.9905 13.6682 17.9928 14.8944 17.518C16.5617 16.8708 17.8202 15.3805 17.9432 12.7038C18.0212 11.047 18.0167 6.94604 17.9432 5.28854C17.7947 2.12879 16.0989 0.21254 12.7112 0.05654ZM15.3324 15.3355C14.1977 16.4703 12.6234 16.369 8.98142 16.369C5.23142 16.369 3.72767 16.4245 2.63042 15.3243C1.36667 14.0665 1.59542 12.0468 1.59542 8.98454C1.59542 4.84079 1.17017 1.85654 5.32892 1.64354C6.28442 1.60979 6.56567 1.59854 8.97092 1.59854L9.00467 1.62104C13.0014 1.62104 16.1372 1.20254 16.3254 5.36054C16.3682 6.30929 16.3779 6.59429 16.3779 8.99579C16.3772 12.7023 16.4477 14.215 15.3324 15.3355Z" fill="#636A70"/>
<path d="M13.8058 5.27178C14.4019 5.27178 14.8851 4.78858 14.8851 4.19253C14.8851 3.59648 14.4019 3.11328 13.8058 3.11328C13.2098 3.11328 12.7266 3.59648 12.7266 4.19253C12.7266 4.78858 13.2098 5.27178 13.8058 5.27178Z" fill="#636A70"/>
</svg>
