<svg width="10" height="18" viewBox="0 0 10 18" fill="none" xmlns="http://www.w3.org/2000/svg">
<path d="M9.36515 0.00374516L7.03098 0C4.40862 0 2.71393 1.73869 2.71393 4.42978V6.4722H0.367026C0.164226 6.4722 0 6.63661 0 6.83942V9.79865C0 10.0015 0.164413 10.1657 0.367026 10.1657H2.71393V17.6328C2.71393 17.8356 2.87816 17.9998 3.08096 17.9998H6.143C6.3458 17.9998 6.51003 17.8354 6.51003 17.6328V10.1657H9.25411C9.45691 10.1657 9.62114 10.0015 9.62114 9.79865L9.62226 6.83942C9.62226 6.74204 9.5835 6.64879 9.51477 6.57988C9.44605 6.51096 9.35242 6.4722 9.25505 6.4722H6.51003V4.74081C6.51003 3.90864 6.70833 3.48618 7.79237 3.48618L9.36478 3.48562C9.56739 3.48562 9.73162 3.32121 9.73162 3.1186V0.370771C9.73162 0.168345 9.56758 0.00411968 9.36515 0.00374516Z" fill="#636A70"/>
</svg>
