<svg width="7" height="9" viewBox="0 0 7 9" fill="none" xmlns="http://www.w3.org/2000/svg">
<path d="M1.03705 8.94302C0.947715 8.94302 0.873266 8.9182 0.813707 8.86857C0.764074 8.80901 0.739258 8.73456 0.739258 8.64522V7.99007C0.739258 7.88088 0.764074 7.79154 0.813707 7.72206C0.863339 7.65257 0.952678 7.57316 1.08172 7.48382L5.0573 4.75899L1.08172 2.03415C0.952678 1.95474 0.863339 1.88029 0.813707 1.81081C0.764074 1.74132 0.739258 1.65198 0.739258 1.54279V0.887639C0.739258 0.7983 0.764074 0.728815 0.813707 0.679182C0.873266 0.619623 0.947715 0.589844 1.03705 0.589844C1.12639 0.589844 1.24551 0.639476 1.39441 0.738742L6.08469 3.95494C6.24352 4.07406 6.35271 4.18325 6.41227 4.28251C6.48176 4.38178 6.5165 4.5009 6.5165 4.63987V4.89299C6.5165 5.03197 6.48176 5.15108 6.41227 5.25035C6.34278 5.34962 6.23359 5.45384 6.08469 5.56304L1.39441 8.79412C1.24551 8.89339 1.12639 8.94302 1.03705 8.94302Z" fill="#636A70"/>
</svg>
