<svg width="16" height="16" viewBox="0 0 16 16" fill="none" xmlns="http://www.w3.org/2000/svg">
<path d="M8 0C3.6 0 0 3.6 0 8C0 12.4 3.6 16 8 16C12.4 16 16 12.4 16 8C16 3.6 12.4 0 8 0ZM14.9667 10.2667H11.5333C11.6333 9.56667 11.6667 8.8 11.6667 8C11.6667 7.2 11.6 6.46667 11.5333 5.73333H15C15.2333 6.43333 15.3667 7.2 15.3667 8C15.3333 8.8 15.2 9.53333 14.9667 10.2667ZM0.666667 8C0.666667 7.2 0.8 6.46667 1.03333 5.73333H4.5C4.4 6.43333 4.36667 7.2 4.36667 8C4.36667 8.8 4.43333 9.53333 4.5 10.2667H1.03333C0.8 9.53333 0.666667 8.8 0.666667 8ZM5 8C5 7.2 5.06667 6.46667 5.16667 5.73333H7.66667V10.2667H5.16667C5.06667 9.53333 5 8.8 5 8ZM8.33333 0.7C9.4 1 10.3 2.73333 10.7333 5.06667H8.33333V0.7ZM7.66667 0.7V5.06667H5.26667C5.7 2.73333 6.6 1.03333 7.66667 0.7ZM7.66667 10.9333V15.3C6.6 15 5.7 13.2667 5.26667 10.9333H7.66667ZM8.33333 15.3V10.9333H10.7333C10.3 13.2667 9.4 14.9667 8.33333 15.3ZM8.33333 10.2667V5.73333H10.8333C10.9333 6.43333 11 7.2 11 8C11 8.8 10.9333 9.53333 10.8333 10.2667H8.33333ZM14.7333 5.06667H11.4333C11.1 3.23333 10.5 1.73333 9.7 0.866667C11.9333 1.4 13.8 2.96667 14.7333 5.06667ZM6.33333 0.866667C5.53333 1.73333 4.9 3.23333 4.6 5.06667H1.26667C2.2 2.96667 4.06667 1.4 6.33333 0.866667ZM1.26667 10.9333H4.56667C4.9 12.7667 5.5 14.2667 6.3 15.1333C4.06667 14.6 2.2 13.0333 1.26667 10.9333ZM9.66667 15.1333C10.4667 14.2667 11.1 12.7667 11.4 10.9333H14.7C13.8 13.0333 11.9333 14.6 9.66667 15.1333Z" fill="#636A70"/>
</svg>
