<svg width="600" height="600" viewBox="0 0 600 600" fill="none" xmlns="http://www.w3.org/2000/svg">
<g clip-path="url(#clip0)">
<rect width="600" height="600" fill="white"/>
<path d="M414.554 467.99C509.225 398.069 529.529 264.965 459.903 170.693C390.278 76.4218 257.089 56.6816 162.418 126.602C67.7463 196.523 47.4426 329.627 117.068 423.899C186.693 518.17 319.882 537.91 414.554 467.99Z" fill="#E4FAF9"/>
<path fill-rule="evenodd" clip-rule="evenodd" d="M17.9723 163.401C20.4723 174.901 31.8723 182.101 43.2723 179.601C54.6723 177.101 61.8722 165.701 59.3722 154.201C56.8722 142.701 45.4723 135.501 34.0723 138.001C22.6723 140.501 15.4723 151.901 17.9723 163.401Z" fill="#8ED9FF"/>
<path fill-rule="evenodd" clip-rule="evenodd" d="M574.77 224.802C585.37 219.702 589.871 207.102 584.871 196.502C579.871 185.902 567.171 181.502 556.471 186.502C545.871 191.602 541.371 204.202 546.371 214.802C551.471 225.402 564.17 229.802 574.77 224.802Z" fill="#51CB4D"/>
<path fill-rule="evenodd" clip-rule="evenodd" d="M520.272 530.901C519.672 535.601 522.972 539.802 527.572 540.502C532.172 541.102 536.472 537.802 537.072 533.202C537.672 528.502 534.372 524.302 529.772 523.602C525.072 522.902 520.872 526.201 520.272 530.901Z" fill="#EF3C48"/>
<path opacity="0.93" fill-rule="evenodd" clip-rule="evenodd" d="M210.172 74.1017C209.572 78.8017 212.872 83.0017 217.472 83.7017C222.072 84.3017 226.372 81.0017 226.972 76.4017C227.572 71.7017 224.272 67.5017 219.672 66.8017C215.072 66.1017 210.772 69.4017 210.172 74.1017Z" fill="#528AFF"/>
<path opacity="0.93" fill-rule="evenodd" clip-rule="evenodd" d="M478.371 536.402L481.071 567.902C481.171 569.102 480.271 570.102 479.171 570.202C478.771 570.202 478.471 570.202 478.071 570.002L449.771 557.102C448.671 556.602 448.271 555.402 448.671 554.302C448.871 554.002 449.071 553.702 449.371 553.502L474.871 534.902C475.771 534.202 477.171 534.402 477.871 535.402C478.271 535.602 478.371 536.002 478.371 536.402Z" fill="#528AFF"/>
<path fill-rule="evenodd" clip-rule="evenodd" d="M84.2714 524.902L94.6714 554.702C95.0714 555.802 94.4714 557.002 93.3714 557.402C93.0714 557.502 92.6714 557.502 92.2714 557.502L61.6714 552.002C60.4714 551.802 59.7714 550.702 59.9714 549.502C60.0714 549.102 60.1714 548.802 60.4714 548.502L80.6714 524.202C81.4714 523.302 82.7714 523.202 83.6714 523.902C83.9714 524.202 84.1714 524.502 84.2714 524.902Z" fill="#F9D222"/>
<path fill-rule="evenodd" clip-rule="evenodd" d="M65.4722 59.0016L51.5722 30.6016C51.0722 29.5016 51.4722 28.3016 52.5722 27.8016C52.8722 27.6016 53.2722 27.6016 53.6722 27.6016L84.6722 29.5016C85.8722 29.6016 86.7722 30.6016 86.6722 31.8016C86.6722 32.2016 86.5722 32.5016 86.3722 32.8016L69.1722 59.3016C68.5722 60.3016 67.1722 60.6016 66.2722 59.9016C65.8722 59.6016 65.5722 59.3016 65.4722 59.0016Z" fill="#EF3C48"/>
<path d="M358.173 327.601L224.973 258.901C220.673 256.701 218.973 251.401 221.173 247.001L286.973 119.501C289.173 115.201 294.473 113.501 298.873 115.701L432.373 184.601C436.673 186.801 438.373 192.101 436.173 196.501L370.473 323.801C368.173 328.201 362.673 329.901 358.173 327.601Z" fill="#51CB4D"/>
<path d="M359.672 280.602L394.672 212.802C387.172 208.902 384.272 199.702 388.072 192.202L278.572 135.802L274.872 143.002C297.072 154.502 305.772 181.702 294.372 204.002C282.872 226.202 255.672 234.902 233.372 223.502L229.572 230.802L339.072 287.302C342.972 279.702 352.172 276.802 359.672 280.602ZM327.872 242.202C318.772 237.502 315.172 226.302 319.872 217.202C324.572 208.102 335.772 204.502 344.872 209.202C353.972 213.902 357.572 225.102 352.872 234.202C348.172 243.302 336.972 246.902 327.872 242.202Z" fill="#B8F259"/>
<path opacity="0.5" d="M228.973 261.102L224.473 258.802C220.373 256.702 218.773 251.702 220.873 247.602L287.173 119.002C289.273 114.902 294.273 113.302 298.373 115.402L302.873 117.702C306.973 119.802 308.573 124.802 306.473 128.902L240.073 257.502C237.973 261.602 232.973 263.202 228.973 261.102Z" fill="#317B6C"/>
<path d="M231.271 296.302C197.471 302.802 164.771 280.502 158.271 246.702C151.771 212.902 174.071 180.202 207.871 173.702C241.671 167.202 274.371 189.502 280.871 223.302C287.371 257.102 265.071 289.802 231.271 296.302Z" fill="#F9D222"/>
<path d="M231.271 296.302C197.471 302.802 164.771 280.502 158.271 246.702C151.771 212.902 174.071 180.202 207.871 173.702C241.671 167.202 274.371 189.502 280.871 223.302C287.371 257.102 265.071 289.802 231.271 296.302Z" stroke="#F4A400" stroke-width="12" stroke-miterlimit="10"/>
<path d="M199.27 262.301C197.27 259.601 196.77 257.201 197.77 255.001C198.77 252.801 200.57 251.401 203.17 250.901C204.87 250.601 206.87 250.901 209.17 251.801C211.87 254.201 214.77 256.101 218.07 257.501C221.37 258.901 224.57 258.901 227.67 257.701C229.17 257.101 230.37 256.301 231.37 255.201C232.37 254.101 233.07 253.001 233.37 251.801C233.67 250.601 233.77 249.301 233.47 248.001C233.17 246.701 232.67 245.501 231.67 244.601C230.47 243.401 229.27 242.401 228.07 241.801C226.87 241.201 225.67 240.801 224.37 240.601C223.17 240.401 221.97 240.301 220.87 240.301C219.77 240.301 218.77 240.201 217.77 240.101C216.17 240.001 214.57 239.801 212.97 239.701C211.37 239.501 209.77 239.201 208.27 238.801C206.77 238.401 205.17 237.701 203.67 236.901C202.17 236.101 200.67 235.001 199.17 233.601C197.77 232.301 196.57 230.801 195.67 229.201C194.77 227.601 194.07 226.001 193.87 224.501C193.47 222.401 193.47 220.101 193.87 217.801C194.27 215.401 194.97 213.201 195.97 211.001C196.97 208.901 198.27 207.001 199.87 205.201C201.47 203.501 203.27 202.201 205.27 201.301C209.27 199.401 213.67 198.401 218.47 198.301C223.17 198.201 227.57 198.901 231.57 200.201C233.17 200.901 234.47 201.801 235.37 202.801C236.27 203.801 236.87 204.801 237.07 205.801C237.27 207.001 237.17 208.201 236.67 209.201C236.17 210.301 235.47 211.201 234.57 212.001C233.67 212.801 232.47 213.301 231.07 213.601C229.67 213.901 228.17 213.701 226.57 213.201C225.27 212.801 223.47 212.601 221.17 212.401C218.87 212.301 216.67 212.501 214.67 213.001C212.57 213.601 210.97 214.601 209.77 216.101C208.57 217.601 208.37 219.701 209.27 222.501C210.07 223.501 210.97 224.301 211.97 224.901C212.97 225.501 214.07 225.901 215.17 226.201C216.37 226.501 217.57 226.701 218.87 226.801C220.17 226.901 221.37 227.001 222.57 227.101C225.87 227.401 228.97 227.901 231.77 228.601C234.57 229.301 237.17 230.301 239.37 231.601C241.57 233.001 243.47 234.701 244.97 237.001C246.47 239.201 247.57 242.001 248.27 245.501C248.77 248.201 248.67 251.001 247.97 253.801C247.27 256.601 246.07 259.201 244.47 261.601C242.87 264.001 240.97 266.001 238.67 267.701C236.37 269.401 233.97 270.501 231.47 271.001C225.77 272.101 220.07 271.901 214.27 270.401C208.47 268.901 203.47 266.201 199.37 262.401L199.27 262.301Z" fill="#F4A400"/>
<path d="M219.971 262.901L222.671 277.001C223.871 283.101 233.371 281.301 232.171 275.201L229.171 259.401C226.171 260.801 223.071 261.901 219.971 262.901Z" fill="#F4A400"/>
<path d="M209.67 207.501C212.67 206.501 215.77 206.101 218.97 205.901L216.37 192.101C215.17 186.001 205.67 187.801 206.87 193.901L209.47 207.601C209.47 207.601 209.57 207.501 209.67 207.501Z" fill="#F4A400"/>
<path d="M232.272 303.602C194.472 311.102 157.572 286.402 150.072 248.602C142.572 210.802 167.272 173.902 205.072 166.402C242.872 158.902 279.773 183.602 287.273 221.402C294.673 259.202 270.072 296.102 232.272 303.602Z" fill="#F9D222"/>
<path d="M196.972 264.501C194.872 261.701 194.272 259.001 195.372 256.601C196.372 254.201 198.372 252.701 201.172 252.201C202.972 251.801 205.172 252.101 207.572 253.101C210.472 255.701 213.672 257.701 217.172 259.101C220.772 260.501 224.172 260.601 227.472 259.201C229.072 258.601 230.372 257.601 231.372 256.501C232.472 255.301 233.172 254.101 233.472 252.801C233.872 251.501 233.872 250.101 233.572 248.701C233.272 247.301 232.672 246.101 231.672 245.001C230.372 243.701 229.072 242.701 227.772 242.101C226.472 241.501 225.172 241.001 223.772 240.901C222.472 240.701 221.172 240.601 219.972 240.601C218.772 240.601 217.672 240.501 216.672 240.401C214.972 240.301 213.272 240.101 211.472 240.001C209.772 239.801 208.072 239.501 206.372 239.101C204.672 238.601 203.072 238.001 201.372 237.101C199.772 236.201 198.072 235.101 196.472 233.601C194.972 232.201 193.672 230.601 192.672 228.901C191.672 227.101 190.972 225.401 190.672 223.801C190.172 221.501 190.172 219.101 190.572 216.501C190.972 213.901 191.672 211.501 192.772 209.201C193.872 206.901 195.272 204.801 196.972 203.001C198.672 201.101 200.672 199.701 202.772 198.701C207.072 196.601 211.772 195.501 216.872 195.401C221.972 195.301 226.672 195.901 231.072 197.301C232.772 198.101 234.172 199.001 235.172 200.001C236.172 201.001 236.772 202.101 236.972 203.201C237.272 204.501 237.072 205.701 236.572 206.901C236.072 208.101 235.272 209.101 234.272 210.001C233.272 210.901 232.072 211.501 230.572 211.701C229.072 212.001 227.472 211.901 225.672 211.301C224.272 210.901 222.272 210.601 219.872 210.501C217.372 210.401 215.072 210.601 212.872 211.201C210.672 211.801 208.872 212.901 207.572 214.501C206.272 216.101 206.172 218.401 207.072 221.401C207.972 222.501 208.972 223.301 210.072 223.901C211.172 224.501 212.272 225.001 213.572 225.301C214.772 225.601 216.172 225.801 217.472 226.001C218.872 226.101 220.172 226.201 221.472 226.301C225.072 226.601 228.372 227.101 231.372 227.801C234.472 228.501 237.172 229.601 239.572 231.001C241.972 232.401 244.072 234.301 245.672 236.701C247.372 239.101 248.472 242.101 249.272 245.801C249.872 248.701 249.772 251.701 248.972 254.701C248.172 257.701 246.972 260.501 245.272 263.101C243.572 265.701 241.472 267.901 239.072 269.701C236.572 271.501 234.072 272.701 231.372 273.301C225.272 274.501 219.172 274.301 212.872 272.701C206.572 271.101 201.272 268.301 196.872 264.201L196.972 264.501Z" fill="#F4A400"/>
<path d="M219.271 265.102L222.271 280.302C223.571 286.902 233.771 284.902 232.471 278.302L229.071 261.302C225.871 262.702 222.671 264.002 219.271 265.102Z" fill="#F4A400"/>
<path d="M207.671 205.502C210.871 204.402 214.271 203.902 217.671 203.702L214.771 188.902C213.471 182.302 203.271 184.302 204.571 190.902L207.471 205.602C207.571 205.602 207.671 205.502 207.671 205.502Z" fill="#F4A400"/>
<path d="M148.672 235.002C148.672 262.802 164.972 286.802 188.472 298.002C193.072 300.202 196.872 293.602 192.572 290.902C192.372 290.802 192.072 290.602 191.872 290.502C171.272 280.202 157.372 259.902 156.772 236.702C156.172 213.102 169.172 191.902 189.672 180.602C189.872 180.502 190.172 180.302 190.372 180.202C194.672 177.402 190.572 170.902 186.072 173.302C163.772 184.902 148.672 208.202 148.672 235.002Z" fill="#F4A400"/>
<path d="M395.772 403.702H165.872C151.472 403.702 139.672 392.002 139.672 377.502V308.402C139.672 294.002 151.372 282.202 165.872 282.202H395.772C410.172 282.202 421.972 293.902 421.972 308.402V377.502C421.972 392.002 410.272 403.702 395.772 403.702Z" fill="#88E2E3"/>
<path d="M202.172 369.702C201.772 369.302 201.672 368.902 201.672 368.402V317.602C201.672 317.002 201.872 316.602 202.172 316.202C202.472 315.802 202.972 315.702 203.572 315.702H224.472C230.772 315.702 235.672 317.202 239.272 320.202C242.872 323.202 244.672 327.502 244.672 333.202C244.672 338.802 242.872 343.102 239.272 346.002C235.672 348.902 230.772 350.302 224.472 350.302H212.972V368.602C212.972 369.202 212.772 369.602 212.472 370.002C212.072 370.302 211.672 370.502 211.072 370.502H203.572C202.972 370.302 202.572 370.102 202.172 369.702ZM224.072 341.402C227.072 341.402 229.372 340.702 230.972 339.302C232.572 337.902 233.372 335.802 233.372 333.002C233.372 330.302 232.572 328.202 231.072 326.702C229.572 325.202 227.172 324.402 224.072 324.402H212.872V341.402H224.072Z" fill="white"/>
<path d="M253.973 369.802C253.673 369.502 253.473 369.102 253.473 368.602L253.673 367.902L272.373 317.502C272.873 316.202 273.873 315.502 275.173 315.502H283.773C285.173 315.502 286.073 316.202 286.573 317.502L305.273 367.902L305.473 368.602C305.473 369.102 305.273 369.502 304.973 369.802C304.673 370.102 304.273 370.302 303.873 370.302H296.873C295.773 370.302 295.073 369.802 294.573 368.802L290.973 359.402H267.873L264.273 368.802C263.873 369.802 263.073 370.302 261.973 370.302H254.973C254.673 370.302 254.273 370.102 253.973 369.802ZM270.673 350.302H288.273L279.473 326.302L270.673 350.302Z" fill="white"/>
<path d="M330.872 369.702C330.472 369.302 330.372 368.902 330.372 368.402V350.802L311.872 318.102C311.672 317.602 311.672 317.302 311.672 317.202C311.672 316.702 311.872 316.302 312.172 316.002C312.472 315.702 312.872 315.502 313.272 315.502H320.272C321.272 315.502 322.072 316.002 322.672 317.002L335.772 339.602L348.972 317.002C349.172 316.602 349.472 316.302 349.872 316.002C350.272 315.702 350.772 315.502 351.272 315.502H358.272C358.772 315.502 359.172 315.702 359.472 316.002C359.772 316.302 359.972 316.702 359.972 317.202C359.972 317.502 359.872 317.802 359.772 318.102L341.372 350.802V368.402C341.372 369.002 341.172 369.402 340.872 369.802C340.472 370.102 340.072 370.302 339.472 370.302H332.272C331.672 370.302 331.272 370.102 330.872 369.702Z" fill="white"/>
<path d="M518.272 375.702C511.472 369.102 500.872 368.602 494.072 375.702C481.972 388.302 469.872 401.002 457.772 413.602C438.472 433.802 419.172 453.902 399.972 474.102C399.572 474.502 399.172 474.902 398.772 475.402C385.272 461.302 371.872 447.202 358.372 433.202C355.872 430.602 353.372 428.002 350.972 425.402C344.672 418.802 332.972 418.302 326.772 425.402C320.472 432.502 319.972 443.602 326.772 450.702C344.272 469.002 361.772 487.302 379.272 505.602C381.772 508.202 384.272 510.802 386.672 513.402C393.172 520.202 404.372 520.202 410.872 513.402C422.972 500.802 435.072 488.102 447.172 475.502C466.472 455.302 485.772 435.202 504.972 415.002C509.372 410.402 513.872 405.702 518.272 401.102C524.672 394.302 525.072 382.202 518.272 375.702Z" fill="#51CB4D"/>
<path d="M131.239 439.951L117.727 429.308L89.3236 465.367L102.836 476.01L131.239 439.951Z" fill="#455A64"/>
<path d="M174.272 371.501L84.1719 421.101L147.072 470.701L174.272 371.501Z" fill="#89A6B7"/>
<path d="M183.172 365.801C186.472 361.701 189.672 357.501 192.972 353.401C193.472 352.801 193.872 352.201 194.372 351.601C195.572 350.101 195.272 347.601 193.672 346.501C192.072 345.401 189.872 345.601 188.572 347.201C185.272 351.301 182.072 355.501 178.772 359.601C178.272 360.201 177.872 360.801 177.372 361.401C176.172 362.901 176.472 365.401 178.072 366.501C179.772 367.701 181.972 367.401 183.172 365.801Z" fill="#455A64"/>
<path d="M183.373 394.302C187.473 397.602 191.673 400.802 195.773 404.102C196.373 404.602 196.973 405.002 197.573 405.502C199.073 406.702 201.573 406.402 202.673 404.802C203.773 403.202 203.573 401.002 201.973 399.702C197.873 396.402 193.673 393.202 189.573 389.902C188.973 389.402 188.373 389.002 187.773 388.502C186.273 387.302 183.773 387.602 182.673 389.202C181.473 390.902 181.773 393.102 183.373 394.302Z" fill="#455A64"/>
<path d="M136.072 357.102C140.172 360.402 144.372 363.602 148.472 366.902C149.072 367.402 149.672 367.802 150.272 368.302C151.772 369.502 154.272 369.202 155.372 367.602C156.472 366.002 156.272 363.802 154.672 362.502C150.572 359.202 146.372 356.002 142.272 352.702C141.672 352.202 141.072 351.802 140.472 351.302C138.972 350.102 136.472 350.402 135.372 352.002C134.172 353.702 134.472 355.802 136.072 357.102Z" fill="#455A64"/>
<path d="M188.472 380.701C193.572 379.501 198.672 378.301 203.772 377.101C204.472 376.901 205.272 376.801 205.972 376.601C207.772 376.201 209.472 374.601 209.072 372.501C208.772 370.701 206.972 368.901 204.972 369.401C199.872 370.601 194.771 371.801 189.671 373.001C188.971 373.201 188.172 373.301 187.472 373.501C185.672 373.901 183.971 375.501 184.371 377.601C184.771 379.401 186.572 381.201 188.472 380.701Z" fill="#455A64"/>
<path d="M168.972 358.801C168.972 353.501 168.872 348.301 168.872 343.001C168.872 342.301 168.872 341.501 168.872 340.801C168.872 338.901 166.572 337.401 164.772 337.701C162.672 338.101 161.672 339.701 161.672 341.801C161.672 347.101 161.772 352.301 161.772 357.601C161.772 358.301 161.772 359.101 161.772 359.801C161.772 361.701 164.072 363.201 165.872 362.901C167.972 362.501 168.972 360.801 168.972 358.801Z" fill="#455A64"/>
</g>
<defs>
<clipPath id="clip0">
<rect width="600" height="600" fill="white"/>
</clipPath>
</defs>
</svg>
