<svg width="21" height="23" viewBox="0 0 21 23" fill="none" xmlns="http://www.w3.org/2000/svg">
<path fill-rule="evenodd" clip-rule="evenodd" d="M2.10102 22.3369C2.1977 22.2998 2.29171 22.256 2.38239 22.2058L15.2948 15.0571L12.2335 11.9668L2.10102 22.3369ZM15.8664 14.7414L12.6725 11.5171L15.8634 8.2525L20.2564 10.6756C21.3392 11.2713 20.7853 12.016 20.2564 12.3138L15.8664 14.7414ZM15.2933 7.93825L2.38239 0.817876C2.24244 0.740695 2.08963 0.690211 1.9316 0.668945L12.2306 11.0643L15.2933 7.93676V7.93825ZM1.17439 0.802983L11.7916 11.526L1.22595 22.3369C0.91806 22.1388 0.751592 21.7099 0.748645 21.1559C0.748645 20.094 0.660255 3.23353 0.654362 1.96762C0.649943 1.35552 0.869446 0.984679 1.17439 0.802983Z" fill="white"/>
</svg>
