<svg width="600" height="600" viewBox="0 0 600 600" fill="none" xmlns="http://www.w3.org/2000/svg">
<rect width="600" height="600" fill="white"/>
<path d="M403.529 474.471C506.38 417.261 543.575 287.858 486.607 185.442C429.638 83.025 300.079 46.3779 197.228 103.588C94.3771 160.798 57.182 290.201 114.15 392.617C171.119 495.034 300.678 531.681 403.529 474.471Z" fill="#E4FAF9"/>
<path fill-rule="evenodd" clip-rule="evenodd" d="M75.3916 61.7124C76.4916 73.4124 86.7916 82.1124 98.4916 81.0124C110.192 79.9124 118.792 69.6124 117.692 57.9124C116.592 46.2124 106.292 37.5124 94.5916 38.6124C82.9916 39.6124 74.3916 50.0124 75.3916 61.7124Z" fill="#8ED9FF"/>
<path fill-rule="evenodd" clip-rule="evenodd" d="M380.89 559.812C392.09 556.112 398.19 544.112 394.49 533.012C390.89 521.912 378.79 515.812 367.59 519.512C356.39 523.212 350.29 535.212 353.99 546.312C357.69 557.412 369.69 563.512 380.89 559.812Z" fill="#51CB4D"/>
<path fill-rule="evenodd" clip-rule="evenodd" d="M476.891 79.0116C475.691 83.6116 478.391 88.2116 482.891 89.4116C487.391 90.6116 492.091 87.9116 493.291 83.3116C494.491 78.7116 491.791 74.1116 487.291 72.9116C482.691 71.7116 478.091 74.4116 476.891 79.0116Z" fill="#EF3C48"/>
<path opacity="0.93" fill-rule="evenodd" clip-rule="evenodd" d="M251.391 57.6119C250.191 62.2119 252.891 66.8119 257.391 68.0119C261.891 69.2119 266.591 66.5119 267.791 61.9119C268.991 57.3119 266.291 52.7119 261.791 51.5119C257.291 50.4119 252.591 53.1119 251.391 57.6119Z" fill="#528AFF"/>
<path opacity="0.93" fill-rule="evenodd" clip-rule="evenodd" d="M534.691 122.812L533.391 154.412C533.391 155.612 532.391 156.512 531.191 156.412C530.791 156.412 530.491 156.312 530.191 156.112L503.791 139.712C502.791 139.112 502.491 137.812 503.091 136.812C503.291 136.512 503.591 136.212 503.891 136.112L531.491 120.912C532.491 120.312 533.791 120.712 534.391 121.712C534.591 122.112 534.691 122.512 534.691 122.812Z" fill="#528AFF"/>
<path fill-rule="evenodd" clip-rule="evenodd" d="M68.7906 488.612L75.2906 519.512C75.4906 520.612 74.7906 521.812 73.6906 522.012C73.2906 522.112 72.9906 522.112 72.5906 521.912L42.9906 512.512C41.8906 512.112 41.2906 510.912 41.5906 509.812C41.6906 509.512 41.8906 509.112 42.1906 508.912L65.2906 487.412C66.1906 486.612 67.4906 486.612 68.2906 487.512C68.4906 487.912 68.6906 488.212 68.7906 488.612Z" fill="#F9D222"/>
<path fill-rule="evenodd" clip-rule="evenodd" d="M561.191 506.212L567.691 537.112C567.891 538.212 567.191 539.412 566.091 539.612C565.691 539.712 565.391 539.712 564.991 539.512L535.391 530.112C534.291 529.712 533.691 528.512 533.991 527.412C534.091 527.112 534.291 526.712 534.591 526.512L557.691 505.012C558.591 504.212 559.891 504.212 560.691 505.112C560.991 505.412 561.091 505.812 561.191 506.212Z" fill="#F9D222"/>
<path fill-rule="evenodd" clip-rule="evenodd" d="M410.592 66.9119L400.492 37.0119C400.092 35.9119 400.692 34.7119 401.792 34.3119C402.092 34.2119 402.492 34.2119 402.892 34.2119L433.492 40.1119C434.692 40.3119 435.392 41.4119 435.192 42.6119C435.092 43.0119 434.992 43.3119 434.692 43.6119L414.292 67.7119C413.492 68.6119 412.192 68.7119 411.292 67.9119C410.892 67.6119 410.692 67.3119 410.592 66.9119Z" fill="#EF3C48"/>
<path d="M114.39 163.312L65.3905 168.912C46.1905 173.912 34.6905 193.612 39.6905 212.812C40.2905 215.112 41.0905 217.312 42.0905 219.412C44.8905 225.112 51.3905 228.112 57.5905 226.412L143.49 203.912L114.39 163.312Z" fill="#89A6B7"/>
<path d="M342.291 133.612C337.291 114.412 317.591 102.912 298.391 107.912L65.3906 168.912C84.5906 163.912 104.291 175.412 109.291 194.612L179.991 464.712C184.991 483.912 204.691 495.412 223.891 490.412L224.991 490.112L227.991 489.212L237.291 485.712L236.291 484.712L412.891 403.712L342.291 133.612Z" fill="#EAEAEA"/>
<path d="M439.191 395.812C436.591 386.812 427.291 381.612 418.191 384.012L261.791 425.012C252.491 427.412 247.091 437.012 249.591 446.312C249.591 446.412 249.591 446.412 249.591 446.512C254.591 465.712 243.091 485.412 223.891 490.412L413.091 440.812C432.491 435.712 444.591 415.612 439.291 396.312C439.291 396.212 439.291 396.012 439.191 395.812Z" fill="#89A6B7"/>
<path d="M197.99 201.312C194.99 202.112 191.99 200.312 191.19 197.312C190.29 193.812 186.59 191.612 183.09 192.612C179.59 193.512 177.39 197.212 178.39 200.712C179.19 203.712 177.39 206.712 174.39 207.512C171.39 208.312 168.39 206.512 167.59 203.512C165.09 194.012 170.79 184.312 180.29 181.812C189.79 179.312 199.49 185.012 201.99 194.512C202.79 197.512 200.99 200.512 197.99 201.312Z" fill="#455A64"/>
<path d="M303.689 173.612C300.689 174.412 297.689 172.612 296.889 169.612C295.989 166.112 292.289 163.912 288.789 164.912C285.289 165.812 283.089 169.512 284.089 173.012C284.889 176.012 283.089 179.012 280.089 179.812C277.089 180.612 274.089 178.812 273.289 175.812C270.789 166.312 276.489 156.612 285.989 154.112C295.489 151.612 305.189 157.312 307.689 166.812C308.389 169.812 306.589 172.812 303.689 173.612Z" fill="#455A64"/>
<path d="M244.09 210.112C237.69 211.812 230.99 210.612 225.49 206.912C222.99 205.212 222.29 201.712 223.99 199.112C225.69 196.612 229.19 195.912 231.79 197.612C234.59 199.512 237.99 200.112 241.29 199.212C244.59 198.312 247.29 196.112 248.79 193.112C250.19 190.312 253.49 189.212 256.29 190.612C259.09 192.012 260.19 195.312 258.79 198.112C255.79 204.112 250.49 208.412 244.09 210.112Z" fill="#455A64"/>
<path d="M331.191 235.612L191.291 272.212C188.291 273.012 185.291 271.212 184.491 268.212C183.691 265.212 185.491 262.212 188.491 261.412L328.391 224.812C331.391 224.012 334.391 225.812 335.191 228.812C335.991 231.812 334.191 234.912 331.191 235.612Z" fill="#455A64"/>
<path d="M339.89 268.912L199.99 305.512C196.99 306.312 193.99 304.512 193.19 301.512C192.39 298.512 194.19 295.512 197.19 294.712L337.09 258.112C340.09 257.312 343.09 259.112 343.89 262.112C344.69 265.112 342.89 268.112 339.89 268.912Z" fill="#455A64"/>
<path d="M348.691 302.212L208.791 338.812C205.791 339.612 202.791 337.812 201.991 334.812C201.191 331.812 202.991 328.812 205.991 328.012L345.891 291.412C348.891 290.612 351.891 292.412 352.691 295.412C353.391 298.412 351.591 301.412 348.691 302.212Z" fill="#455A64"/>
<path d="M259.291 386.712L223.791 396.012C220.791 396.812 217.791 395.012 216.991 392.012C216.191 389.012 217.991 386.012 220.991 385.212L256.491 375.912C259.491 375.112 262.491 376.912 263.291 379.912C264.091 382.912 262.291 385.912 259.291 386.712Z" fill="#455A64"/>
<path d="M485.19 420.813C473.99 417.013 459.59 414.713 443.79 414.713C427.89 414.713 413.29 417.013 401.99 420.813H379.59V440.213C379.89 454.113 408.49 465.413 443.69 465.513C479.09 465.613 507.89 454.213 507.89 440.213V420.813H485.19Z" fill="#F4A400"/>
<path d="M443.789 446.313C408.389 446.213 379.689 434.813 379.689 420.813C379.689 406.813 408.489 395.513 443.889 395.513C479.289 395.613 507.989 407.013 507.989 421.013C507.889 435.013 479.089 446.313 443.789 446.313Z" fill="#F9D222"/>
<path d="M417.589 430.313C416.089 429.113 416.089 428.013 417.489 427.213C418.889 426.413 421.089 426.013 423.789 426.013C425.589 426.013 427.589 426.313 429.689 426.813C431.889 428.013 434.589 429.013 437.689 429.813C440.789 430.613 444.089 430.913 447.489 430.613C449.089 430.513 450.489 430.213 451.789 429.913C452.989 429.513 453.889 429.113 454.489 428.713C455.089 428.213 455.389 427.713 455.389 427.213C455.389 426.713 454.989 426.113 454.289 425.713C453.289 425.113 452.289 424.613 451.189 424.313C450.089 424.013 448.889 423.713 447.689 423.513C446.489 423.313 445.289 423.213 444.189 423.113C443.089 423.013 441.989 422.913 441.089 422.813C439.489 422.613 437.889 422.413 436.289 422.313C434.689 422.113 433.089 421.913 431.589 421.613C430.089 421.313 428.689 420.913 427.289 420.513C425.889 420.113 424.589 419.513 423.289 418.813C422.089 418.213 421.189 417.513 420.589 416.713C419.989 416.013 419.589 415.313 419.589 414.613C419.589 413.713 419.989 412.813 420.889 411.913C421.789 411.013 422.889 410.113 424.389 409.313C425.789 408.513 427.589 407.813 429.489 407.313C431.489 406.713 433.589 406.313 435.789 406.113C440.289 405.613 444.989 405.613 449.789 405.913C454.689 406.213 458.989 406.813 462.889 407.713C464.389 408.113 465.489 408.613 466.289 409.013C466.989 409.513 467.389 409.913 467.389 410.313C467.389 410.813 467.089 411.313 466.389 411.713C465.689 412.113 464.789 412.413 463.689 412.713C462.589 413.013 461.289 413.113 459.789 413.113C458.389 413.113 456.789 412.913 455.189 412.613C453.889 412.313 452.089 412.113 449.789 411.913C447.489 411.713 445.189 411.613 442.989 411.613C440.789 411.713 438.889 411.913 437.389 412.413C435.889 412.913 435.289 413.813 435.589 414.913C436.189 415.413 436.989 415.813 437.889 416.113C438.789 416.413 439.789 416.713 440.889 416.913C441.989 417.113 443.189 417.313 444.489 417.413C445.789 417.613 446.989 417.713 448.189 417.813C451.489 418.213 454.589 418.613 457.289 419.113C460.089 419.613 462.489 420.213 464.489 420.913C466.489 421.613 468.089 422.513 469.189 423.513C470.289 424.513 470.889 425.713 470.889 427.213C470.889 428.313 470.289 429.513 468.989 430.513C467.689 431.513 465.989 432.513 463.889 433.413C461.789 434.213 459.389 434.913 456.789 435.413C454.089 435.913 451.489 436.213 448.789 436.113C442.789 436.113 436.989 435.613 431.289 434.513C425.589 433.413 421.089 432.013 417.689 430.113L417.589 430.313Z" fill="#F4A400"/>
<path d="M438.689 432.213V438.113C438.689 440.713 448.789 440.713 448.789 438.113V431.513C445.489 431.813 442.089 432.113 438.689 432.213Z" fill="#F4A400"/>
<path d="M438.989 409.012C442.289 408.812 445.589 408.912 448.789 409.112V403.312C448.789 400.712 438.689 400.712 438.689 403.312V409.012C438.789 409.012 438.889 409.012 438.989 409.012Z" fill="#F4A400"/>
<path d="M478.19 395.313C466.99 391.513 452.59 389.213 436.79 389.213C420.89 389.213 406.29 391.513 394.99 395.313H372.59V414.713C372.89 428.613 401.49 439.913 436.69 440.013C472.09 440.113 500.89 428.713 500.89 414.713V395.313H478.19Z" fill="#F4A400"/>
<path d="M436.789 420.813C401.389 420.713 372.689 409.313 372.689 395.313C372.689 381.313 401.489 370.013 436.889 370.013C472.289 370.013 500.989 381.513 500.989 395.513C500.989 409.513 472.089 420.813 436.789 420.813Z" fill="#F9D222"/>
<path d="M410.589 404.813C409.089 403.613 409.089 402.513 410.489 401.713C411.889 400.913 414.089 400.513 416.789 400.513C418.589 400.513 420.589 400.813 422.689 401.313C424.889 402.513 427.589 403.513 430.689 404.313C433.789 405.113 437.089 405.413 440.489 405.113C442.089 405.013 443.489 404.713 444.789 404.413C445.989 404.013 446.889 403.613 447.489 403.213C448.089 402.713 448.389 402.213 448.389 401.713C448.389 401.213 447.989 400.613 447.289 400.213C446.289 399.613 445.289 399.113 444.189 398.813C443.089 398.513 441.889 398.213 440.689 398.013C439.489 397.813 438.289 397.713 437.189 397.613C436.089 397.513 434.989 397.413 434.089 397.313C432.489 397.113 430.889 396.913 429.289 396.813C427.689 396.613 426.089 396.413 424.589 396.113C423.089 395.813 421.689 395.413 420.289 395.013C418.889 394.613 417.589 394.013 416.289 393.313C415.089 392.713 414.189 392.013 413.589 391.213C412.989 390.513 412.589 389.813 412.589 389.113C412.589 388.213 412.989 387.313 413.889 386.413C414.789 385.513 415.889 384.613 417.389 383.813C418.789 383.013 420.589 382.313 422.489 381.813C424.489 381.213 426.589 380.813 428.789 380.613C433.289 380.113 437.989 380.113 442.789 380.413C447.689 380.713 451.989 381.313 455.889 382.213C457.389 382.613 458.489 383.113 459.289 383.513C459.989 384.013 460.389 384.413 460.389 384.813C460.389 385.313 460.089 385.813 459.389 386.213C458.689 386.613 457.789 386.913 456.689 387.213C455.589 387.513 454.289 387.613 452.789 387.613C451.289 387.613 449.789 387.413 448.189 387.113C446.889 386.813 445.089 386.613 442.789 386.413C440.489 386.213 438.189 386.113 435.989 386.113C433.789 386.213 431.889 386.413 430.389 386.913C428.889 387.413 428.289 388.313 428.589 389.413C429.189 389.913 429.989 390.313 430.889 390.613C431.789 390.913 432.789 391.213 433.889 391.413C434.989 391.613 436.189 391.813 437.489 391.913C438.789 392.113 439.989 392.213 441.189 392.313C444.489 392.713 447.589 393.113 450.289 393.613C453.089 394.113 455.489 394.713 457.489 395.413C459.489 396.113 461.089 397.013 462.189 398.013C463.289 399.013 463.889 400.213 463.889 401.713C463.889 402.813 463.289 404.013 461.989 405.013C460.689 406.113 458.989 407.013 456.889 407.913C454.789 408.713 452.389 409.413 449.789 409.913C447.089 410.413 444.489 410.713 441.789 410.613C435.789 410.613 429.989 410.113 424.289 409.013C418.589 407.913 414.089 406.513 410.689 404.613L410.589 404.813Z" fill="#F4A400"/>
<path d="M431.689 406.713V412.613C431.689 415.213 441.789 415.213 441.789 412.613V406.013C438.489 406.313 435.089 406.613 431.689 406.713Z" fill="#F4A400"/>
<path d="M431.989 383.512C435.289 383.312 438.589 383.412 441.789 383.612V377.812C441.789 375.212 431.689 375.212 431.689 377.812V383.512C431.789 383.512 431.889 383.512 431.989 383.512Z" fill="#F4A400"/>
<path d="M485.19 370.512C473.99 366.712 459.59 364.412 443.79 364.412C427.89 364.412 413.29 366.712 401.99 370.512H379.59V389.912C379.89 403.812 408.49 415.112 443.69 415.212C479.09 415.312 507.89 403.912 507.89 389.912V370.512H485.19Z" fill="#F4A400"/>
<path d="M443.789 396.012C408.389 395.912 379.689 384.512 379.689 370.512C379.689 356.512 408.489 345.212 443.889 345.212C479.289 345.312 507.989 356.712 507.989 370.712C507.889 384.712 479.089 396.012 443.789 396.012Z" fill="#F9D222"/>
<path d="M417.691 380.012C416.191 378.812 416.191 377.712 417.591 376.912C418.991 376.112 421.191 375.712 423.891 375.712C425.691 375.712 427.691 376.012 429.791 376.512C431.991 377.712 434.691 378.712 437.791 379.512C440.891 380.312 444.191 380.612 447.591 380.312C449.191 380.212 450.591 379.912 451.891 379.612C453.091 379.212 453.991 378.812 454.591 378.412C455.191 377.912 455.491 377.412 455.491 376.912C455.491 376.412 455.091 375.812 454.391 375.412C453.391 374.812 452.391 374.312 451.291 374.012C450.191 373.712 448.991 373.412 447.791 373.212C446.591 373.012 445.391 372.912 444.291 372.812C443.191 372.712 442.091 372.612 441.191 372.512C439.591 372.312 437.991 372.112 436.391 372.012C434.791 371.812 433.191 371.612 431.691 371.312C430.191 371.012 428.791 370.612 427.391 370.212C425.991 369.812 424.691 369.212 423.391 368.512C422.191 367.912 421.291 367.212 420.691 366.412C420.091 365.712 419.691 365.012 419.691 364.312C419.691 363.412 420.091 362.512 420.991 361.612C421.891 360.712 422.991 359.812 424.491 359.012C425.891 358.212 427.691 357.512 429.591 357.012C431.591 356.412 433.691 356.012 435.891 355.812C440.391 355.312 445.091 355.312 449.891 355.612C454.791 355.912 459.091 356.512 462.991 357.412C464.491 357.812 465.591 358.312 466.391 358.712C467.091 359.212 467.491 359.612 467.491 360.012C467.491 360.512 467.191 361.012 466.491 361.412C465.791 361.812 464.891 362.112 463.791 362.412C462.691 362.712 461.391 362.812 459.891 362.812C458.491 362.812 456.891 362.612 455.291 362.312C453.991 362.012 452.191 361.812 449.891 361.612C447.591 361.412 445.291 361.312 443.091 361.312C440.891 361.412 438.991 361.612 437.491 362.112C435.991 362.612 435.391 363.512 435.691 364.612C436.291 365.112 437.091 365.512 437.991 365.812C438.891 366.112 439.891 366.412 440.991 366.612C442.091 366.812 443.291 367.012 444.591 367.112C445.891 367.312 447.091 367.412 448.291 367.512C451.591 367.912 454.691 368.312 457.391 368.812C460.191 369.312 462.591 369.912 464.591 370.612C466.591 371.312 468.191 372.212 469.291 373.212C470.391 374.212 470.991 375.412 470.991 376.912C470.991 378.012 470.391 379.212 469.091 380.212C467.791 381.212 466.091 382.212 463.991 383.112C461.891 383.912 459.491 384.612 456.891 385.112C454.191 385.612 451.591 385.912 448.891 385.812C442.891 385.812 437.091 385.312 431.391 384.212C425.691 383.112 421.191 381.712 417.791 379.812L417.691 380.012Z" fill="#F4A400"/>
<path d="M438.791 381.912V387.812C438.791 390.412 448.891 390.412 448.891 387.812V381.212C445.491 381.512 442.091 381.812 438.791 381.912Z" fill="#F4A400"/>
<path d="M438.991 358.712C442.291 358.512 445.591 358.612 448.791 358.812V353.012C448.791 350.412 438.691 350.412 438.691 353.012V358.712C438.891 358.712 438.891 358.712 438.991 358.712Z" fill="#F4A400"/>
<path d="M492.59 345.712C481.39 341.912 466.99 339.612 451.19 339.612C435.29 339.612 420.69 341.912 409.39 345.712H386.99V365.112C387.29 379.012 415.89 390.312 451.09 390.412C486.49 390.512 515.29 379.112 515.29 365.112V345.712H492.59Z" fill="#F4A400"/>
<path d="M451.19 371.212C415.79 371.112 387.09 359.712 387.09 345.712C387.09 331.712 415.89 320.412 451.29 320.412C486.69 320.512 515.39 331.912 515.39 345.912C515.39 359.912 486.59 371.212 451.19 371.212Z" fill="#F9D222"/>
<path d="M425.091 355.212C423.591 354.012 423.591 352.912 424.991 352.112C426.391 351.312 428.591 350.912 431.291 350.912C433.091 350.912 435.091 351.212 437.191 351.712C439.391 352.912 442.091 353.912 445.191 354.712C448.291 355.512 451.591 355.812 454.991 355.512C456.591 355.412 457.991 355.112 459.291 354.812C460.491 354.412 461.391 354.012 461.991 353.612C462.591 353.112 462.891 352.612 462.891 352.112C462.891 351.612 462.491 351.012 461.791 350.612C460.791 350.012 459.791 349.512 458.691 349.212C457.591 348.912 456.391 348.612 455.191 348.412C453.991 348.212 452.791 348.112 451.691 348.012C450.591 347.912 449.491 347.812 448.591 347.712C446.991 347.512 445.391 347.312 443.791 347.212C442.191 347.012 440.591 346.812 439.091 346.512C437.591 346.212 436.191 345.812 434.791 345.412C433.391 345.012 432.091 344.412 430.791 343.712C429.591 343.112 428.691 342.412 428.091 341.612C427.491 340.912 427.091 340.212 427.091 339.512C427.091 338.612 427.491 337.712 428.391 336.812C429.291 335.912 430.391 335.012 431.891 334.212C433.291 333.412 435.091 332.712 436.991 332.212C438.991 331.612 441.091 331.212 443.291 331.012C447.791 330.512 452.491 330.512 457.291 330.812C462.191 331.112 466.491 331.712 470.391 332.612C471.891 333.012 472.991 333.512 473.791 333.912C474.491 334.412 474.891 334.812 474.891 335.212C474.891 335.712 474.591 336.212 473.891 336.612C473.191 337.012 472.291 337.312 471.191 337.612C470.091 337.912 468.791 338.012 467.291 338.012C465.891 338.012 464.291 337.812 462.691 337.512C461.391 337.212 459.591 337.012 457.291 336.812C454.991 336.612 452.691 336.512 450.491 336.512C448.291 336.612 446.391 336.812 444.891 337.312C443.391 337.812 442.791 338.712 443.091 339.812C443.691 340.312 444.491 340.712 445.391 341.012C446.291 341.312 447.291 341.612 448.391 341.812C449.491 342.012 450.691 342.212 451.991 342.312C453.291 342.512 454.491 342.612 455.691 342.712C458.991 343.112 462.091 343.512 464.791 344.012C467.591 344.512 469.991 345.112 471.991 345.812C473.991 346.512 475.591 347.412 476.691 348.412C477.791 349.412 478.391 350.612 478.391 352.112C478.391 353.212 477.791 354.412 476.491 355.412C475.191 356.512 473.491 357.412 471.391 358.312C469.291 359.112 466.891 359.812 464.291 360.312C461.591 360.812 458.991 361.112 456.291 361.012C450.291 361.012 444.491 360.512 438.791 359.412C433.091 358.312 428.591 356.912 425.191 355.012L425.091 355.212Z" fill="#F4A400"/>
<path d="M446.191 357.112V363.012C446.191 365.612 456.291 365.612 456.291 363.012V356.412C452.891 356.812 449.591 357.012 446.191 357.112Z" fill="#F4A400"/>
<path d="M446.392 333.912C449.692 333.712 452.992 333.812 456.192 334.012V328.212C456.192 325.612 446.092 325.612 446.092 328.212V333.912C446.292 333.912 446.392 333.912 446.392 333.912Z" fill="#F4A400"/>
<path d="M485.19 320.913C473.99 317.113 459.59 314.812 443.79 314.812C427.89 314.812 413.29 317.113 401.99 320.913H379.59V340.312C379.89 354.213 408.49 365.512 443.69 365.612C479.09 365.712 507.89 354.312 507.89 340.312V320.913H485.19Z" fill="#F4A400"/>
<path d="M443.789 346.412C408.389 346.312 379.689 334.912 379.689 320.912C379.689 306.912 408.489 295.612 443.889 295.612C479.289 295.712 507.989 307.112 507.989 321.112C507.889 335.112 479.189 346.512 443.789 346.412Z" fill="#F9D222"/>
<path d="M417.691 330.512C416.191 329.312 416.191 328.212 417.591 327.412C418.991 326.612 421.191 326.212 423.891 326.212C425.691 326.212 427.691 326.512 429.791 327.012C431.991 328.212 434.691 329.212 437.791 330.012C440.891 330.812 444.191 331.112 447.591 330.812C449.191 330.712 450.591 330.412 451.891 330.112C453.091 329.712 453.991 329.312 454.591 328.912C455.191 328.412 455.491 327.912 455.491 327.412C455.491 326.912 455.091 326.312 454.391 325.912C453.391 325.312 452.391 324.812 451.291 324.512C450.191 324.212 448.991 323.912 447.791 323.712C446.591 323.512 445.391 323.412 444.291 323.312C443.191 323.212 442.091 323.112 441.191 323.012C439.591 322.812 437.991 322.612 436.391 322.512C434.791 322.312 433.191 322.112 431.691 321.812C430.191 321.512 428.791 321.112 427.391 320.712C425.991 320.312 424.691 319.712 423.391 319.012C422.191 318.412 421.291 317.712 420.691 316.912C420.091 316.212 419.691 315.512 419.691 314.812C419.691 313.912 420.091 313.012 420.991 312.112C421.891 311.212 422.991 310.312 424.491 309.512C425.891 308.712 427.691 308.012 429.591 307.512C431.591 306.912 433.691 306.512 435.891 306.312C440.391 305.812 445.091 305.812 449.891 306.112C454.791 306.412 459.091 307.012 462.991 307.912C464.491 308.312 465.591 308.812 466.391 309.212C467.091 309.712 467.491 310.112 467.491 310.512C467.491 311.012 467.191 311.512 466.491 311.912C465.791 312.312 464.891 312.612 463.791 312.912C462.691 313.212 461.391 313.312 459.891 313.312C458.491 313.312 456.891 313.112 455.291 312.812C453.991 312.512 452.191 312.312 449.891 312.112C447.591 311.912 445.291 311.812 443.091 311.812C440.891 311.912 438.991 312.112 437.491 312.612C435.991 313.112 435.391 314.012 435.691 315.112C436.291 315.612 437.091 316.012 437.991 316.312C438.891 316.612 439.891 316.912 440.991 317.112C442.091 317.312 443.291 317.512 444.591 317.612C445.891 317.812 447.091 317.912 448.291 318.012C451.591 318.412 454.691 318.812 457.391 319.312C460.191 319.812 462.591 320.412 464.591 321.112C466.591 321.812 468.191 322.712 469.291 323.712C470.391 324.712 470.991 325.912 470.991 327.412C470.991 328.512 470.391 329.712 469.091 330.712C467.791 331.712 466.091 332.712 463.991 333.612C461.891 334.412 459.491 335.112 456.891 335.612C454.191 336.112 451.591 336.412 448.891 336.312C442.891 336.312 437.091 335.812 431.391 334.712C425.691 333.612 421.191 332.212 417.791 330.312L417.691 330.512Z" fill="#F4A400"/>
<path d="M438.791 332.412V338.312C438.791 340.912 448.891 340.912 448.891 338.312V331.712C445.491 332.012 442.191 332.212 438.791 332.412Z" fill="#F4A400"/>
<path d="M438.991 309.112C442.291 308.912 445.591 309.012 448.791 309.212V303.412C448.791 300.812 438.691 300.812 438.691 303.412V309.112C438.891 309.112 438.891 309.112 438.991 309.112Z" fill="#F4A400"/>
<path d="M394.691 177.112C394.991 181.512 394.991 185.712 394.691 189.712C394.491 193.012 393.791 196.112 392.791 198.912C391.691 201.712 390.091 204.212 387.991 206.412C385.791 208.612 383.091 210.212 379.891 211.512C376.691 212.712 372.891 213.312 368.591 213.312C364.291 213.312 360.491 212.712 357.291 211.512C354.091 210.312 351.391 208.612 349.291 206.412C347.191 204.212 345.591 201.712 344.491 198.912C343.391 196.112 342.691 193.012 342.491 189.712C342.291 187.512 342.191 185.412 342.191 183.512C342.191 181.612 342.291 179.412 342.491 177.112C342.691 173.812 343.391 170.712 344.491 167.912C345.591 165.112 347.191 162.612 349.291 160.412C351.391 158.212 354.091 156.512 357.291 155.312C360.491 154.112 364.291 153.512 368.591 153.512C372.891 153.512 376.691 154.112 379.891 155.312C383.091 156.512 385.791 158.212 387.891 160.412C389.991 162.612 391.591 165.112 392.691 167.912C393.791 170.712 394.491 173.812 394.691 177.112ZM436.291 157.512C437.091 156.512 437.891 155.712 438.691 155.212C439.491 154.612 440.691 154.412 442.291 154.412H455.891C457.091 154.412 458.091 154.712 458.791 155.312C459.491 155.912 459.891 156.712 459.891 157.712C459.891 157.912 459.791 158.212 459.691 158.512C459.591 158.812 459.391 159.212 459.191 159.512L376.991 267.612C376.191 268.612 375.391 269.412 374.591 269.912C373.791 270.512 372.591 270.712 370.991 270.712H357.491C356.291 270.712 355.291 270.412 354.591 269.812C353.891 269.212 353.491 268.412 353.491 267.412C353.491 267.212 353.591 266.912 353.691 266.612C353.791 266.312 353.991 265.912 354.191 265.612L436.291 157.512ZM361.791 188.912C361.991 191.812 362.591 193.912 363.491 195.412C364.391 196.812 366.091 197.612 368.591 197.612C371.091 197.612 372.691 196.912 373.691 195.412C374.591 194.012 375.191 191.812 375.391 188.912C375.691 185.212 375.691 181.612 375.391 177.912C375.191 175.012 374.591 172.912 373.691 171.412C372.791 170.012 371.091 169.212 368.591 169.212C366.091 169.212 364.491 169.912 363.491 171.412C362.591 172.812 361.991 175.012 361.791 177.912C361.491 181.612 361.491 185.312 361.791 188.912ZM471.891 235.312C472.191 239.712 472.191 243.912 471.891 247.912C471.691 251.212 470.991 254.312 469.991 257.112C468.891 259.912 467.291 262.412 465.191 264.612C462.991 266.812 460.391 268.512 457.091 269.712C453.891 270.912 450.091 271.512 445.791 271.512C441.491 271.512 437.691 270.912 434.491 269.712C431.291 268.512 428.591 266.812 426.491 264.612C424.391 262.412 422.791 259.912 421.691 257.112C420.591 254.312 419.891 251.212 419.691 247.912C419.491 245.712 419.391 243.612 419.391 241.712C419.391 239.812 419.491 237.612 419.691 235.312C419.891 232.012 420.591 228.912 421.691 226.112C422.791 223.312 424.391 220.812 426.491 218.612C428.591 216.412 431.291 214.712 434.491 213.512C437.691 212.312 441.491 211.712 445.791 211.712C450.091 211.712 453.891 212.312 457.091 213.512C460.291 214.712 462.991 216.412 465.091 218.612C467.191 220.812 468.791 223.312 469.891 226.112C470.991 228.912 471.691 232.012 471.891 235.312ZM438.991 247.112C439.191 250.012 439.791 252.112 440.691 253.612C441.591 255.012 443.291 255.812 445.791 255.812C448.191 255.812 449.891 255.112 450.891 253.612C451.791 252.212 452.391 250.012 452.591 247.112C452.891 243.412 452.891 239.812 452.591 236.112C452.391 233.212 451.791 231.112 450.891 229.612C449.991 228.212 448.291 227.412 445.791 227.412C443.391 227.412 441.691 228.112 440.691 229.612C439.791 231.012 439.191 233.212 438.991 236.112C438.591 239.812 438.591 243.512 438.991 247.112Z" fill="#88E2E3"/>
</svg>
