<svg width="165" height="139" viewBox="0 0 165 139" fill="none" xmlns="http://www.w3.org/2000/svg">
<path d="M91.1237 134.158C124.097 132.054 149.114 103.507 147.002 70.3951C144.89 37.2833 116.448 12.1461 83.4746 14.2495C50.5015 16.3528 25.4838 44.9004 27.596 78.0121C29.7083 111.124 58.1505 136.261 91.1237 134.158Z" fill="#E2FFFF"/>
<path fill-rule="evenodd" clip-rule="evenodd" d="M159.689 20.2481C156.587 19.1162 153.107 20.6673 151.975 23.7695C150.843 26.8718 152.436 30.3094 155.539 31.4832C158.641 32.6151 162.12 31.064 163.252 27.9617C164.384 24.8595 162.791 21.4219 159.689 20.2481Z" fill="#80D7FB"/>
<path fill-rule="evenodd" clip-rule="evenodd" d="M3.94958 89.0422C2.94345 88.2038 1.43427 88.2876 0.553907 89.2938C-0.284534 90.2999 -0.158776 91.8091 0.847353 92.6895C1.85348 93.5279 3.36268 93.4441 4.24304 92.4379C5.08148 91.3899 4.95571 89.8807 3.94958 89.0422Z" fill="#FC5050"/>
<path opacity="0.93" fill-rule="evenodd" clip-rule="evenodd" d="M159.566 85.3113C158.56 84.4728 157.05 84.5567 156.17 85.5628C155.332 86.569 155.457 88.0781 156.464 88.9585C157.47 89.7969 158.979 89.7131 159.859 88.707C160.698 87.7008 160.572 86.1497 159.566 85.3113Z" fill="#448AF9"/>
<path opacity="0.93" fill-rule="evenodd" clip-rule="evenodd" d="M46.5014 18.781L38.6201 14.6307C38.3266 14.463 38.2009 14.1277 38.3686 13.8342C38.4105 13.7504 38.4943 13.6665 38.5782 13.6246L45.9564 8.88741C46.2499 8.71972 46.5853 8.80357 46.7949 9.0551C46.8368 9.13894 46.8787 9.22279 46.8787 9.34855L47.3818 18.236C47.3818 18.5714 47.1303 18.8649 46.8368 18.8649C46.711 18.8649 46.6272 18.8229 46.5014 18.781Z" fill="#448AF9"/>
<path fill-rule="evenodd" clip-rule="evenodd" d="M41.6391 138.385L33.0031 136.289C32.6677 136.205 32.5001 135.869 32.542 135.576C32.5839 135.492 32.6258 135.366 32.6677 135.324L38.6626 128.91C38.8722 128.659 39.2495 128.659 39.501 128.868C39.5849 128.952 39.6268 129.036 39.6687 129.12L42.3517 137.63C42.4356 137.965 42.2679 138.301 41.9744 138.385C41.8487 138.427 41.7648 138.427 41.6391 138.385Z" fill="#FDD340"/>
<path fill-rule="evenodd" clip-rule="evenodd" d="M129.21 0L135.373 0.754597C135.582 0.796519 135.75 1.00613 135.75 1.21574C135.75 1.29958 135.708 1.34151 135.666 1.42535L132.061 6.37215C131.935 6.53984 131.642 6.58176 131.474 6.45599C131.432 6.41407 131.39 6.37215 131.348 6.28831L128.791 0.628831C128.707 0.41922 128.791 0.167688 129.001 0.0838441C129.084 0 129.168 0 129.21 0Z" fill="#FC5050"/>
<path d="M18.4531 33.3278L19.9204 34.6693C20.0042 34.7531 20.13 34.7951 20.2557 34.7531L22.1841 34.292C22.4776 34.2081 22.7291 34.5435 22.6033 34.7951L21.8068 36.5977C21.7649 36.7235 21.7649 36.8492 21.8488 36.9331L22.8968 38.6519C23.0645 38.9034 22.8549 39.2388 22.5195 39.2388L20.5492 39.0292C20.4234 39.0292 20.2976 39.0711 20.2138 39.1549L18.9142 40.6641C18.7046 40.9157 18.3273 40.7899 18.2435 40.4965L17.8243 38.568C17.7823 38.4423 17.6985 38.3584 17.6146 38.3165L15.7701 37.5619C15.4766 37.4361 15.4766 37.0588 15.7281 36.8912L17.4469 35.885C17.5727 35.8431 17.6146 35.7173 17.6146 35.5916L17.7823 33.6212C17.8662 33.2439 18.2435 33.1182 18.4531 33.3278Z" fill="#FDD340"/>
<path d="M159.694 111.136L161.162 112.477C161.245 112.561 161.371 112.603 161.497 112.561L163.425 112.1C163.719 112.016 163.97 112.352 163.845 112.603L163.048 114.406C163.006 114.532 163.006 114.657 163.09 114.741L164.138 116.46C164.306 116.712 164.096 117.047 163.761 117.047L161.79 116.837C161.665 116.837 161.539 116.879 161.455 116.963L160.155 118.472C159.946 118.724 159.569 118.598 159.485 118.305L159.065 116.376C159.024 116.25 158.94 116.167 158.856 116.125L157.011 115.37C156.718 115.244 156.718 114.867 156.969 114.699L158.688 113.693C158.814 113.651 158.856 113.525 158.856 113.4L159.024 111.429C159.107 111.052 159.485 110.926 159.694 111.136Z" fill="#19C753"/>
<path d="M110.828 32.3813L139.855 43.3924C142.89 44.5551 144.393 47.9887 143.222 51.0689L115.871 123.183C114.7 126.263 111.303 127.819 108.26 126.701L79.2321 115.69C76.1968 114.528 74.6939 111.094 75.8649 108.014L103.216 35.8998C104.387 32.8195 107.792 31.2186 110.828 32.3813Z" fill="#C5F5F4"/>
<path d="M109.818 30.0635L138.883 41.1278C141.918 42.2905 143.421 45.724 142.25 48.8042L114.862 120.865C113.691 123.945 110.294 125.501 107.25 124.384L78.2228 113.372C75.1875 112.21 73.6847 108.776 74.8556 105.696L102.207 33.5819C103.378 30.5017 106.783 28.9008 109.818 30.0635Z" fill="#85A5B6"/>
<path d="M108.826 32.666L113.465 34.449L112.947 35.7463C112.689 36.395 113.022 37.1062 113.634 37.3118L131.116 43.9677C131.719 44.2182 132.431 43.885 132.689 43.2363L133.207 41.939L137.846 43.722C139.449 44.3424 140.274 46.1655 139.645 47.8137L112.302 119.883C111.674 121.531 109.85 122.356 108.247 121.735L79.2195 110.724C77.6162 110.104 76.7915 108.281 77.4201 106.633L104.763 34.5635C105.392 32.9152 107.215 32.0906 108.826 32.666Z" fill="#E8EDF1"/>
<path d="M74.4172 96.9869C92.9744 96.9869 108.018 81.9434 108.018 63.3862C108.018 44.829 92.9744 29.7854 74.4172 29.7854C55.86 29.7854 40.8164 44.829 40.8164 63.3862C40.8164 81.9434 55.86 96.9869 74.4172 96.9869Z" fill="#51CB4D"/>
<path d="M79.9193 30.2318C78.1336 29.9264 76.3008 29.7854 74.421 29.7854C72.8937 29.7854 71.4134 29.8794 69.9331 30.0909C73.1522 29.8324 76.7707 29.8794 79.9193 30.2318Z" fill="#8ED9FF"/>
<path d="M44.2949 78.3301C49.7932 89.3972 61.2128 96.9867 74.3946 96.9867C75.452 96.9867 76.4859 96.9397 77.5197 96.8458C64.3379 97.4097 50.7801 89.8671 44.2949 78.3301Z" fill="#8ED9FF"/>
<path d="M79.915 30.2316C82.5467 30.6545 85.0609 31.4064 87.4576 32.3933C86.5177 31.3594 83.5571 30.6075 79.915 30.2316Z" fill="#8ED9FF"/>
<path d="M98.7877 40.1239C98.7642 40.1474 98.7407 40.1474 98.7407 40.1709C100.433 41.9567 101.96 43.9304 103.229 46.0452C103.064 44.9408 101.466 43.2725 98.7877 40.1239Z" fill="#8ED9FF"/>
<path d="M61.8252 32.135C61.8487 32.1585 61.8722 32.182 61.8957 32.182C64.4334 31.1716 67.1355 30.4432 69.9317 30.0673C66.2896 30.3492 63.1645 31.0071 61.8252 32.135Z" fill="#8ED9FF"/>
<path d="M77.543 96.8458C86.6598 96.4464 95.5887 92.2169 101.933 82.7476L101.909 82.7241C96.3876 90.5486 87.5997 95.906 77.543 96.8458Z" fill="#8ED9FF"/>
<path d="M43.4028 50.3918C43.3793 50.3448 43.3793 50.2979 43.3793 50.2979C38.7504 60.6131 39.8782 70.4113 44.3192 78.3063C42.087 73.7949 40.8181 68.7195 40.8181 63.3622C40.7946 58.7803 41.7345 54.3863 43.4028 50.3918Z" fill="#8ED9FF"/>
<path d="M101.885 82.724C98.9481 80.4683 98.3607 78.5651 98.7836 74.97C96.8803 70.905 93.2148 65.7827 94.1312 61.0363C91.2176 58.4281 89.4553 58.71 86.0012 59.8849C77.9417 56.6658 77.4013 57.3707 76.7199 48.2774C79.6335 44.1184 82.6881 44.6823 87.1761 44.7998C88.8444 49.0998 92.6509 48.7943 96.4574 49.4522C101.415 48.0189 103.413 47.4785 103.225 46.0921C101.956 43.9774 100.428 42.0037 98.7366 40.2179C95.87 43.061 92.9328 42.1916 89.5023 41.3222C87.4345 39.9359 83.534 40.4998 81.3723 41.3222C76.0385 40.2179 78.8346 39.0195 80.2209 35.5185H84.8734C87.599 34.3201 88.2099 33.2628 87.458 32.4169C85.0848 31.4065 82.5471 30.6781 79.9155 30.2551C76.7904 29.9262 73.1483 29.8557 69.9292 30.1142C67.1331 30.4901 64.4309 31.2185 61.8932 32.2289C66.9921 37.2338 74.2762 32.3229 70.9396 39.0195C64.0315 40.5703 67.556 45.4812 58.1807 49.4757L50.0507 50.6271V54.1046C52.6119 55.7024 52.5649 58.4281 52.3769 61.0598C56.5124 56.6423 55.69 57.2532 58.1807 62.2111C65.4413 62.2346 66.2637 60.7308 69.7883 68.0149H74.4407C74.2057 72.5733 72.091 75.6749 68.6369 78.4711C69.5533 82.2541 66.5222 83.5464 63.9845 85.4262C63.4206 88.7628 66.0287 92.7808 60.5069 90.0786C57.8518 86.554 58.0397 76.8028 58.1807 72.6673L52.3769 71.5159C50.4737 68.4143 48.2885 63.4095 52.3769 61.0598C50.6382 59.9084 47.1606 57.5822 45.4218 56.4073C45.4218 56.4073 43.683 51.1675 43.4246 50.4156C41.7563 54.4101 40.8164 58.7805 40.8164 63.386C40.8164 68.7668 42.0852 73.8421 44.3175 78.3301C50.8026 89.8671 64.3369 97.4097 77.5423 96.8457C87.599 95.9059 96.3869 90.5485 101.885 82.724Z" fill="#8ED9FF"/>
<path d="M56.7712 36.9045C55.0089 36.9045 53.5991 38.3144 53.5991 40.0766C53.5991 41.8389 56.7712 47.3137 56.7712 47.3137C56.7712 47.3137 59.9433 41.8389 59.9433 40.0766C59.9433 38.3144 58.5335 36.9045 56.7712 36.9045ZM56.7712 41.6039C55.8548 41.6039 55.1264 40.8755 55.1264 39.9592C55.1264 39.0428 55.8548 38.3144 56.7712 38.3144C57.6876 38.3144 58.416 39.0428 58.416 39.9592C58.416 40.8755 57.6876 41.6039 56.7712 41.6039Z" fill="#F9D222"/>
<path d="M87.4563 43.8132C85.694 43.8132 84.2842 45.2231 84.2842 46.9853C84.2842 48.7476 87.4563 54.2224 87.4563 54.2224C87.4563 54.2224 90.6284 48.7476 90.6284 46.9853C90.6284 45.2231 89.1951 43.8132 87.4563 43.8132ZM87.4563 48.5126C86.5399 48.5126 85.8115 47.7842 85.8115 46.8678C85.8115 45.9515 86.5399 45.2231 87.4563 45.2231C88.3727 45.2231 89.1011 45.9515 89.1011 46.8678C89.1011 47.7607 88.3492 48.5126 87.4563 48.5126Z" fill="#F9D222"/>
<path d="M69.9314 63.3865C68.1691 63.3865 66.7593 64.7963 66.7593 66.5586C66.7593 68.3209 69.9314 73.7957 69.9314 73.7957C69.9314 73.7957 73.1035 68.3209 73.1035 66.5586C73.1035 64.7963 71.6702 63.3865 69.9314 63.3865ZM69.9314 68.0859C69.015 68.0859 68.2866 67.3575 68.2866 66.4411C68.2866 65.5247 69.015 64.7963 69.9314 64.7963C70.8478 64.7963 71.5762 65.5247 71.5762 66.4411C71.5762 67.3575 70.8243 68.0859 69.9314 68.0859Z" fill="#F9D222"/>
</svg>
