<svg width="169" height="170" viewBox="0 0 169 170" fill="none" xmlns="http://www.w3.org/2000/svg">
<path d="M120.188 133.06C147.054 113.179 152.817 75.3337 133.061 48.5309C113.304 21.728 75.51 16.117 48.6444 35.9984C21.7788 55.8797 16.0157 93.7248 35.772 120.528C55.5283 147.33 93.3228 152.941 120.188 133.06Z" fill="#E2FFFF"/>
<path fill-rule="evenodd" clip-rule="evenodd" d="M10.092 48.0879C10.8225 51.3554 14.0314 53.4205 17.2924 52.6886C20.5274 51.9567 22.5884 48.7414 21.8579 45.4739C21.1274 42.2064 17.9186 40.1413 14.6575 40.8471C11.4225 41.579 9.36156 44.8204 10.092 48.0879Z" fill="#8ED9FF"/>
<path fill-rule="evenodd" clip-rule="evenodd" d="M157.905 29.5282C160.931 28.0905 162.209 24.4832 160.774 21.477C159.339 18.4709 155.739 17.19 152.713 18.6277C149.687 20.0655 148.408 23.6728 149.843 26.6789C151.278 29.7112 154.878 30.9659 157.905 29.5282Z" fill="#51CB4D"/>
<path fill-rule="evenodd" clip-rule="evenodd" d="M147.888 109.204C147.706 110.537 148.645 111.739 149.949 111.922C151.28 112.105 152.48 111.164 152.663 109.831C152.845 108.498 151.906 107.296 150.602 107.113C149.271 106.93 148.071 107.871 147.888 109.204Z" fill="#EF3C48"/>
<path opacity="0.93" fill-rule="evenodd" clip-rule="evenodd" d="M44.0579 11.9093C43.8753 13.2425 44.8144 14.4449 46.1189 14.6279C47.4494 14.8109 48.6494 13.8698 48.8321 12.5367C49.0147 11.2035 48.0755 10.0011 46.7711 9.8181C45.4406 9.63512 44.2405 10.5762 44.0579 11.9093Z" fill="#528AFF"/>
<path opacity="0.93" fill-rule="evenodd" clip-rule="evenodd" d="M153.709 145.199L154.492 154.139C154.518 154.478 154.283 154.766 153.944 154.792C153.839 154.792 153.735 154.792 153.631 154.74L145.595 151.08C145.282 150.949 145.152 150.584 145.309 150.27C145.361 150.165 145.413 150.087 145.491 150.035L152.744 144.754C153.005 144.545 153.396 144.624 153.579 144.885C153.683 144.963 153.709 145.068 153.709 145.199Z" fill="#528AFF"/>
<path fill-rule="evenodd" clip-rule="evenodd" d="M11.2632 10.2112L14.2112 18.6806C14.3155 18.9943 14.159 19.3341 13.8459 19.4387C13.7416 19.4648 13.6372 19.491 13.5329 19.4648L4.84544 17.8964C4.50629 17.8442 4.29758 17.5305 4.34976 17.1906C4.37585 17.0861 4.40194 16.9815 4.4802 16.9031L10.2196 10.0021C10.4284 9.74067 10.8197 9.71453 11.0806 9.92366C11.1588 10.0021 11.211 10.1066 11.2632 10.2112Z" fill="#F9D222"/>
<path fill-rule="evenodd" clip-rule="evenodd" d="M14.94 118.457L11.0268 110.38C10.8702 110.092 11.0007 109.727 11.3137 109.57C11.4181 109.517 11.5225 109.491 11.6268 109.517L20.4186 110.066C20.7577 110.092 20.9925 110.38 20.9925 110.694C20.9925 110.798 20.9404 110.903 20.8882 110.981L16.0097 118.51C15.827 118.797 15.4618 118.876 15.1748 118.693C15.0705 118.64 14.9922 118.562 14.94 118.457Z" fill="#EF3C48"/>
<path d="M131.335 71.0494L107.174 64.7769C104.642 64.1284 102.064 65.6839 101.406 68.2511L85.9487 128.326C85.2902 130.893 86.7995 133.495 89.3159 134.176L113.477 140.449C116.009 141.097 118.586 139.542 119.245 136.975L134.702 76.9003C135.361 74.3331 133.867 71.6979 131.335 71.0494Z" fill="#C5F5F4"/>
<path d="M133.076 69.9949L108.866 63.7402C106.334 63.0918 103.756 64.6472 103.098 67.2144L87.6895 127.271C87.031 129.838 88.5404 132.44 91.0567 133.122L115.218 139.394C117.75 140.043 120.327 138.487 120.986 135.92L136.443 75.8457C137.101 73.2785 135.607 70.6434 133.076 69.9949Z" fill="#85A5B6"/>
<path d="M132.52 72.1615L128.648 71.1745L128.387 72.2671C128.256 72.8134 127.708 73.1255 127.211 72.9758L112.648 69.2142C112.136 69.0978 111.823 68.5482 111.954 68.0019L112.215 66.9093L108.343 65.9223C107.003 65.5838 105.617 66.3973 105.266 67.7719L89.8236 127.814C89.4726 129.189 90.2875 130.578 91.6276 130.917L115.789 137.189C117.13 137.528 118.516 136.714 118.867 135.34L134.309 75.2976C134.66 73.9229 133.845 72.5333 132.52 72.1615Z" fill="#E8EDF1"/>
<path d="M113.773 86.1697C112.9 89.6336 112.024 93.1126 111.151 96.5765C109.759 102.104 108.366 107.631 106.974 113.158C106.655 114.423 106.337 115.688 106.022 116.938C105.509 118.971 108.668 119.787 109.184 117.739C110.056 114.275 110.933 110.796 111.805 107.332C113.198 101.805 114.59 96.2779 115.982 90.7507C116.301 89.4856 116.62 88.2206 116.935 86.9705C117.462 84.9412 114.285 84.1365 113.773 86.1697Z" fill="#455A64"/>
<path d="M121.143 92.1417C117.969 91.3369 114.779 91.7448 112.041 93.0844L107.065 112.864C108.84 115.348 111.455 117.228 114.629 118.033C121.759 119.841 129.027 115.503 130.822 108.368C132.602 101.229 128.273 93.9497 121.143 92.1417Z" fill="#CCF8F6"/>
<path d="M107.51 111.023C109.246 114.041 112.158 116.397 115.798 117.32C122.928 119.128 130.196 114.79 131.991 107.655C133.786 100.52 129.442 93.237 122.312 91.4291C118.672 90.5061 114.999 91.176 112.039 93.0196L107.51 111.023Z" fill="#F9D222"/>
<path d="M111.754 108.173C111.598 107.396 111.741 106.824 112.175 106.438C112.608 106.051 113.131 105.944 113.748 106.1C114.154 106.203 114.553 106.465 114.955 106.903C115.285 107.691 115.746 108.401 116.31 109.024C116.888 109.651 117.572 109.985 118.359 110.04C118.739 110.056 119.089 110.001 119.409 109.874C119.729 109.747 120 109.56 120.185 109.334C120.384 109.113 120.517 108.842 120.596 108.526C120.672 108.225 120.654 107.916 120.556 107.603C120.429 107.218 120.253 106.901 120.061 106.644C119.855 106.384 119.633 106.184 119.385 106.025C119.137 105.866 118.9 105.725 118.655 105.615C118.411 105.505 118.201 105.388 118.009 105.259C117.67 105.077 117.351 104.884 117.016 104.687C116.682 104.49 116.37 104.267 116.081 104.018C115.791 103.768 115.528 103.477 115.273 103.156C115.021 102.82 114.811 102.447 114.624 101.983C114.459 101.557 114.343 101.127 114.314 100.671C114.284 100.215 114.304 99.8198 114.395 99.4585C114.52 98.9617 114.739 98.4728 115.067 97.9955C115.395 97.5183 115.772 97.1014 116.197 96.745C116.623 96.3886 117.094 96.1077 117.629 95.891C118.144 95.6855 118.668 95.578 119.194 95.5835C120.252 95.5794 121.301 95.7975 122.335 96.2679C123.369 96.7384 124.249 97.3137 124.989 97.9979C125.259 98.3227 125.454 98.6284 125.552 98.9413C125.653 99.2392 125.679 99.518 125.618 99.7588C125.546 100.045 125.407 100.282 125.199 100.469C124.992 100.657 124.736 100.784 124.458 100.874C124.168 100.944 123.878 100.951 123.547 100.867C123.231 100.787 122.908 100.609 122.611 100.325C122.359 100.117 122.006 99.8676 121.525 99.6174C121.047 99.3522 120.562 99.1811 120.039 99.0965C119.535 99.0007 119.072 99.0595 118.669 99.2615C118.266 99.4636 118.014 99.8959 117.918 100.592C117.989 100.883 118.113 101.154 118.263 101.384C118.413 101.615 118.601 101.822 118.827 102.008C119.052 102.193 119.281 102.363 119.548 102.511C119.812 102.674 120.063 102.818 120.304 102.943C120.988 103.341 121.605 103.753 122.153 104.181C122.702 104.608 123.141 105.088 123.494 105.594C123.843 106.115 124.068 106.684 124.18 107.321C124.292 107.958 124.238 108.681 124.037 109.479C123.875 110.126 123.584 110.709 123.147 111.238C122.709 111.768 122.197 112.214 121.609 112.578C121.022 112.941 120.401 113.184 119.742 113.321C119.083 113.459 118.447 113.441 117.861 113.293C116.537 112.957 115.319 112.328 114.202 111.42C113.086 110.512 112.287 109.429 111.796 108.199L111.751 108.188L111.754 108.173Z" fill="#F4A400"/>
<path d="M116.159 110.419L115.322 113.747C114.958 115.192 117.2 115.76 117.563 114.315L118.503 110.581C117.721 110.575 116.934 110.519 116.159 110.419Z" fill="#F4A400"/>
<path d="M119.495 97.3868C120.24 97.4794 120.969 97.6964 121.668 97.9697L122.483 94.7325C122.847 93.2871 120.606 92.719 120.242 94.1644L119.431 97.3866C119.465 97.3791 119.48 97.383 119.495 97.3868Z" fill="#F4A400"/>
<path d="M74.6781 29.368C75.2906 34.9738 71.2417 40.0159 65.6374 40.6282C60.0316 41.2407 54.9895 37.1919 54.377 31.586C54.2491 30.4154 54.3243 29.2672 54.5765 28.181C55.5249 24.0666 58.9857 20.8115 63.4194 20.3271C67.8532 19.8427 71.9336 22.2738 73.748 26.0863C74.2289 27.0925 74.5502 28.1973 74.6781 29.368Z" fill="#EFECEF"/>
<path d="M68.9399 39.5239C67.8541 40.1218 66.6382 40.5189 65.3359 40.6612C59.8957 41.2555 54.9895 37.1919 54.377 31.586C53.7645 25.9802 57.6777 20.9544 63.1179 20.3601C64.4202 20.2178 65.6931 20.343 66.8823 20.6908C63.4308 22.5883 61.2782 26.5173 61.7441 30.7811C62.2099 35.0449 65.1602 38.4164 68.9399 39.5239Z" fill="#DDDAEC"/>
<path d="M51.4007 116.966L53.0888 132.336C53.1836 133.227 53.9661 133.863 54.8575 133.744L93.5686 129.473C94.458 129.378 95.0933 128.593 94.9749 127.7L93.2868 112.33C92.5353 105.417 86.3143 100.425 79.4141 101.18L75.9512 101.569L65.9964 102.674L62.5335 103.062C55.6333 103.817 50.6511 110.028 51.4007 116.966Z" fill="#FFE07D"/>
<path opacity="0.5" d="M62.7676 103.052C55.8674 103.807 50.8832 110.042 51.6348 116.956L53.3229 132.326C53.4176 133.217 54.2002 133.853 55.0915 133.734L61.1752 133.056C60.2858 133.151 59.5033 132.515 59.4066 131.648L57.7185 116.278C56.967 109.364 61.9511 103.129 68.8513 102.374L62.7676 103.052Z" fill="#FFD064"/>
<path d="M71.1264 95.3534C88.2113 93.4868 100.548 78.1235 98.6816 61.0385C96.8149 43.9536 81.4516 31.6167 64.3667 33.4834C47.2817 35.35 34.9449 50.7133 36.8115 67.7982C38.6781 84.8832 54.0414 97.2201 71.1264 95.3534Z" fill="#DDDAEC"/>
<path d="M71.4741 107.49L73.4076 107.279L76.0481 131.447L74.1146 131.658L71.4741 107.49Z" fill="#FFD064"/>
<path d="M67.4067 93.1984C65.699 93.3946 66.7538 100.977 66.7538 100.977L67.2858 105.891C67.588 108.638 70.072 110.629 72.8131 110.326C75.5543 110.022 77.5428 107.532 77.2406 104.786L76.7087 99.8721C76.7087 99.8721 75.7594 91.8682 74.0516 92.0644L67.4067 93.1984Z" fill="#A06E50"/>
<path d="M71.7724 102.386C58.4247 103.844 46.5351 94.12 45.0429 80.4623L44.0037 70.951C42.5116 57.2935 52.2978 46.6472 65.6455 45.1889L89.8135 42.5484L93.3789 75.1811C94.8711 88.839 85.1199 100.927 71.7724 102.386Z" fill="#CD916E"/>
<path d="M45.0381 80.4198C46.5285 94.0605 59.2369 104.901 72.0402 102.356C58.9327 96.9116 57.2518 91.9376 55.8183 89.2288C54.3848 86.52 54.1255 85.5089 53.407 78.9324L52.3691 69.4328L51.3412 60.0247L50.4749 52.0963L54.9713 51.605C56.6574 51.4208 88.5659 41.0577 88.5659 41.0577L65.4697 43.5811C52.122 45.0394 42.5099 57.2797 44.0002 70.9202L45.0381 80.4198Z" fill="#B67F5F"/>
<path d="M64.2537 45.6709C57.5923 46.3987 55.0054 47.785 49.8429 52.7638C62.5344 61.8942 76.1666 65.8911 92.1729 64.1423L89.8493 42.8744L64.2537 45.6709Z" fill="#B67F5F"/>
<path d="M98.5688 60.0083C96.463 43.1827 81.3704 31.0832 64.5967 32.9159C56.6607 33.7829 49.7875 37.6363 44.8868 43.2197C56.2171 55.9937 73.2665 63.273 91.431 61.2884C93.871 61.0218 96.2488 60.5811 98.5688 60.0083Z" fill="#EFECEF"/>
<path d="M70.6904 95.837C68.334 96.0945 66.0737 95.5564 64.6477 94.397C63.9612 93.8398 63.8436 92.8202 64.3834 92.1203C64.9233 91.4204 65.9197 91.3044 66.6029 91.8618C67.1839 92.3342 68.5109 92.8141 70.3381 92.6145C72.1652 92.4149 73.3573 91.6597 73.8226 91.073C74.3695 90.381 75.3675 90.2793 76.0456 90.8461C76.7239 91.4129 76.8291 92.4341 76.2791 93.1262C75.1374 94.5661 73.0467 95.5796 70.6904 95.837Z" fill="#A06E50"/>
<path d="M78.3808 117.872C79.4422 117.756 80.2096 116.81 80.0947 115.759C79.9799 114.707 79.0263 113.949 77.9649 114.065C76.9034 114.181 76.1361 115.127 76.2509 116.179C76.3658 117.23 77.3193 117.988 78.3808 117.872Z" fill="#8ED9FF"/>
<path d="M69.2045 118.874C70.2659 118.758 71.0333 117.812 70.9184 116.761C70.8036 115.71 69.85 114.952 68.7886 115.068C67.7272 115.184 66.9598 116.13 67.0746 117.181C67.1895 118.232 68.143 118.99 69.2045 118.874Z" fill="#8ED9FF"/>
<path d="M71.2217 69.3658L65.4214 69.9996L65.7382 72.8997L71.5386 72.266L71.2217 69.3658Z" fill="#FFC350"/>
<path d="M53.2294 71.3219L45.0278 72.218C43.8954 72.3417 42.8954 71.691 42.7941 70.7644C42.6929 69.8379 43.5288 68.9866 44.6612 68.8628L54.9132 67.7427L53.2294 71.3219Z" fill="#F4A400"/>
<path d="M83.0532 68.0632L91.2548 67.1672C92.3872 67.0434 93.2231 66.1921 93.1219 65.2655C93.0206 64.339 92.0206 63.6882 90.8882 63.812L80.6362 64.9321L83.0532 68.0632Z" fill="#F4A400"/>
<path d="M58.6726 71.0522C60.7636 70.8238 62.6768 71.9774 63.5457 73.7701C63.6704 73.2456 63.7281 72.6977 63.6662 72.1318C63.376 69.4751 60.9786 67.55 58.3219 67.8402C55.6651 68.1305 53.74 70.5279 54.0303 73.1846C54.0921 73.7505 54.2665 74.2731 54.5018 74.7583C54.9627 72.8204 56.5816 71.2807 58.6726 71.0522Z" fill="#B67F5F"/>
<path d="M77.6321 69.2043C79.7229 68.9759 81.6363 70.1295 82.5052 71.9222C82.6299 71.3977 82.6875 70.8498 82.6257 70.2839C82.3354 67.6272 79.9381 65.7021 77.2813 65.9923C74.6246 66.2826 72.6995 68.68 72.9898 71.3367C73.0516 71.9026 73.226 72.4252 73.4612 72.9104C73.9224 70.9725 75.5413 69.4328 77.6321 69.2043Z" fill="#B67F5F"/>
<path d="M59.0365 75.2717C58.0061 75.3843 57.0813 74.6406 56.9688 73.6113L56.7652 71.7474C56.6527 70.7181 57.3953 69.7923 58.4255 69.6797C59.4557 69.5672 60.3807 70.3108 60.4932 71.34L60.6968 73.204C60.8093 74.2335 60.0667 75.1591 59.0365 75.2717Z" fill="#5A4650"/>
<path d="M59.7567 80.831C55.4302 81.3037 51.5253 78.168 51.0526 73.8416C50.5799 69.5151 53.7156 65.6102 58.0421 65.1375C62.3685 64.6648 66.2734 67.8005 66.7461 72.1269C67.2188 76.4534 64.0831 80.3583 59.7567 80.831ZM58.385 68.276C55.7888 68.5597 53.9076 70.9023 54.1913 73.4984C54.4749 76.0946 56.8176 77.9757 59.4137 77.6921C62.0099 77.4085 63.891 75.0658 63.6074 72.4697C63.3237 69.8735 60.9811 67.9924 58.385 68.276Z" fill="#FFE07D"/>
<path d="M78.329 73.1634C77.2985 73.276 76.3738 72.5323 76.2613 71.5031L76.0577 69.6391C75.9452 68.6098 76.6878 67.684 77.718 67.5714C78.7484 67.4589 79.6732 68.2025 79.7856 69.2318L79.9893 71.0958C80.1018 72.1253 79.3594 73.0508 78.329 73.1634Z" fill="#5A4650"/>
<path d="M78.7694 78.7534C74.4429 79.226 70.538 76.0904 70.0653 71.7639C69.5926 67.4375 72.7283 63.5326 77.0547 63.0599C81.3812 62.5872 85.2861 65.7229 85.7588 70.0493C86.2315 74.3757 83.096 78.2806 78.7694 78.7534ZM77.3977 66.1984C74.8015 66.482 72.9203 68.8247 73.204 71.4208C73.4876 74.0169 75.8303 75.8981 78.4264 75.6145C81.0226 75.3308 82.9037 72.9882 82.6201 70.392C82.3364 67.7959 79.994 65.9147 77.3977 66.1984Z" fill="#FFE07D"/>
<path d="M121.278 29.6104L122.347 33.7812C122.45 34.027 122.595 34.2101 122.842 34.3706L126.893 35.8424C127.531 36.0781 127.597 36.9233 127.086 37.3046L123.404 39.7278C123.22 39.8758 123.057 40.1266 123.058 40.3949L122.876 44.7339C122.859 45.4362 122.019 45.7824 121.504 45.3586L118.165 42.6552C117.918 42.4947 117.692 42.4371 117.384 42.5048L113.245 43.7392C112.589 43.9374 112.031 43.3079 112.274 42.6633L113.854 38.6076C113.955 38.3167 113.954 38.0483 113.747 37.8251L111.348 34.2163C111.016 33.6444 111.402 32.9146 112.1 32.922L116.432 33.1498C116.699 33.1447 116.945 33.0369 117.169 32.8262L119.881 29.3271C120.247 28.7628 121.09 28.9533 121.278 29.6104Z" fill="#F9D222"/>
</svg>
