<svg width="166" height="140" viewBox="0 0 166 140" fill="none" xmlns="http://www.w3.org/2000/svg">
<path d="M91.8808 135.273C125.128 133.153 150.354 104.368 148.224 70.9807C146.094 37.5937 117.415 12.2476 84.1681 14.3684C50.9209 16.4893 25.6953 45.2741 27.8251 78.6611C29.9549 112.048 58.6336 137.394 91.8808 135.273Z" fill="#E2FFFF"/>
<path fill-rule="evenodd" clip-rule="evenodd" d="M161.017 20.4166C157.889 19.2753 154.381 20.8393 153.239 23.9673C152.098 27.0953 153.704 30.5615 156.832 31.7451C159.96 32.8864 163.469 31.3223 164.61 28.1943C165.752 25.0663 164.145 21.6001 161.017 20.4166Z" fill="#80D7FB"/>
<path fill-rule="evenodd" clip-rule="evenodd" d="M3.98241 89.7823C2.96792 88.9369 1.44619 89.0215 0.558511 90.036C-0.286899 91.0505 -0.160096 92.5722 0.854397 93.4599C1.86889 94.3053 3.39063 94.2208 4.27831 93.2063C5.12372 92.1495 4.9969 90.6278 3.98241 89.7823Z" fill="#FC5050"/>
<path opacity="0.93" fill-rule="evenodd" clip-rule="evenodd" d="M160.891 86.0204C159.876 85.175 158.354 85.2595 157.467 86.274C156.621 87.2885 156.748 88.8102 157.763 89.6979C158.777 90.5433 160.299 90.4588 161.187 89.4443C162.032 88.4298 161.905 86.8658 160.891 86.0204Z" fill="#448AF9"/>
<path opacity="0.93" fill-rule="evenodd" clip-rule="evenodd" d="M46.8856 18.9373L38.9387 14.7526C38.6428 14.5835 38.516 14.2453 38.6851 13.9494C38.7274 13.8649 38.8119 13.7803 38.8965 13.7381L46.3361 8.9615C46.632 8.79242 46.9701 8.87696 47.1815 9.13058C47.2237 9.21512 47.266 9.29966 47.266 9.42648L47.7733 18.3878C47.7733 18.726 47.5196 19.0219 47.2237 19.0219C47.0969 19.0219 47.0124 18.9796 46.8856 18.9373Z" fill="#448AF9"/>
<path fill-rule="evenodd" clip-rule="evenodd" d="M41.9852 139.535L33.2775 137.421C32.9393 137.337 32.7703 136.999 32.8125 136.703C32.8548 136.618 32.8971 136.491 32.9393 136.449L38.984 129.982C39.1954 129.728 39.5758 129.728 39.8294 129.939C39.914 130.024 39.9563 130.108 39.9985 130.193L42.7038 138.774C42.7884 139.112 42.6193 139.45 42.3234 139.535C42.1966 139.577 42.1121 139.577 41.9852 139.535Z" fill="#FDD340"/>
<path fill-rule="evenodd" clip-rule="evenodd" d="M130.284 0L136.497 0.760869C136.709 0.803139 136.878 1.01449 136.878 1.22584C136.878 1.31039 136.836 1.35266 136.793 1.4372L133.158 6.42512C133.031 6.5942 132.735 6.63647 132.566 6.50966C132.524 6.46739 132.482 6.42512 132.44 6.34057L129.861 0.634057C129.776 0.422705 129.861 0.169082 130.072 0.084541C130.157 0 130.241 0 130.284 0Z" fill="#FC5050"/>
<path d="M18.6067 33.6052L20.0861 34.9579C20.1707 35.0424 20.2975 35.0847 20.4243 35.0424L22.3687 34.5775C22.6646 34.4929 22.9182 34.8311 22.7914 35.0847L21.9883 36.9023C21.946 37.0291 21.946 37.156 22.0306 37.2405L23.0873 38.9736C23.2564 39.2272 23.045 39.5654 22.7069 39.5654L20.7202 39.354C20.5934 39.354 20.4665 39.3963 20.382 39.4808L19.0716 41.0026C18.8603 41.2562 18.4798 41.1294 18.3953 40.8335L17.9726 38.889C17.9303 38.7622 17.8458 38.6777 17.7612 38.6354L15.9013 37.8746C15.6054 37.7477 15.6054 37.3673 15.8591 37.1982L17.5922 36.1837C17.719 36.1415 17.7612 36.0147 17.7612 35.8878L17.9303 33.9011C18.0149 33.5207 18.3953 33.3939 18.6067 33.6052Z" fill="#FDD340"/>
<path d="M161.021 112.059L162.5 113.412C162.585 113.497 162.712 113.539 162.838 113.497L164.783 113.032C165.079 112.947 165.332 113.285 165.205 113.539L164.402 115.356C164.36 115.483 164.36 115.61 164.445 115.695L165.501 117.428C165.67 117.681 165.459 118.019 165.121 118.019L163.134 117.808C163.007 117.808 162.881 117.85 162.796 117.935L161.486 119.457C161.274 119.71 160.894 119.583 160.809 119.288L160.387 117.343C160.344 117.216 160.26 117.132 160.175 117.09L158.315 116.329C158.02 116.202 158.019 115.821 158.273 115.652L160.006 114.638C160.133 114.596 160.175 114.469 160.175 114.342L160.344 112.355C160.429 111.975 160.809 111.848 161.021 112.059Z" fill="#19C753"/>
<path d="M77.7868 32.4623L49.5078 37.6193C46.5488 38.1688 44.6044 41.0432 45.1539 44.0444L57.9619 114.298C58.5114 117.299 61.3435 119.286 64.3025 118.779L92.5814 113.622C95.5404 113.072 97.4848 110.198 96.9353 107.197L84.1273 36.943C83.5778 33.9418 80.7457 31.9128 77.7868 32.4623Z" fill="#C5F5F4"/>
<path d="M79.0937 30.5192L50.7724 35.7185C47.8135 36.268 45.8691 39.1424 46.4186 42.1436L59.2688 112.355C59.8183 115.356 62.6504 117.343 65.6094 116.836L93.8883 111.679C96.8473 111.129 98.7917 108.255 98.2422 105.253L85.4342 34.9999C84.8847 31.9987 82.0526 29.9697 79.0937 30.5192Z" fill="#85A5B6"/>
<path d="M79.5608 33.0554L75.0378 33.9008L75.2915 35.1689C75.4183 35.8029 74.9956 36.3947 74.4038 36.4793L57.3688 39.6073C56.777 39.7341 56.1852 39.3114 56.0584 38.6773L55.8048 37.4092L51.2818 38.2546C49.7178 38.5505 48.661 40.0723 48.9569 41.6785L61.7649 111.89C62.0608 113.496 63.5825 114.553 65.1465 114.257L93.4255 109.1C94.9895 108.804 96.0463 107.282 95.7504 105.676L82.9424 35.4648C82.6465 33.8585 81.1248 32.8017 79.5608 33.0554Z" fill="#E8EDF1"/>
<path opacity="0.5" d="M76.0974 62.8987C72.758 63.4905 71.1517 67.2103 71.1517 67.2103C71.1517 67.2103 68.3196 64.2937 65.0225 64.8854C61.6831 65.4772 58.7665 68.3094 59.5696 72.7478C60.3727 77.1862 63.5853 82.3432 74.7447 87.2043C83.537 78.7502 84.7628 72.8323 83.9597 68.3939C83.1565 63.9132 79.4367 62.2647 76.0974 62.8987Z" fill="#FC5050"/>
<path opacity="0.2" d="M76.8986 59.8971C72.7983 60.6157 70.7694 65.2232 70.7694 65.2232C70.7694 65.2232 67.3032 61.5879 63.1607 62.3488C59.0604 63.0674 55.4252 66.5759 56.3974 72.071C57.3696 77.5662 61.343 83.949 75.1655 89.9515C86.029 79.5106 87.5508 72.1556 86.5785 66.6604C85.6486 61.1652 81.0411 59.1363 76.8986 59.8971Z" fill="#FC5050"/>
<path d="M75.5028 65.0118C72.7552 65.519 71.4026 68.6048 71.4026 68.6048C71.4026 68.6048 69.0777 66.1531 66.2879 66.6603C63.5403 67.1676 61.0886 69.4924 61.7649 73.17C62.4412 76.8475 65.1043 81.1168 74.3615 85.1748C81.6743 78.1579 82.6888 73.2545 82.0125 69.577C81.3362 65.8994 78.2504 64.5468 75.5028 65.0118Z" fill="#FC5050"/>
<path d="M101.038 124.993C95.6696 124.993 95.3737 121.569 95.2469 119.709C95.1624 118.357 95.0778 117.3 93.852 116.117C89.4558 113.073 86.8351 108.423 86.4546 103.097C85.1442 104.069 83.5802 104.577 81.8894 104.577C80.7058 104.577 79.48 104.323 78.381 103.774C77.1551 103.182 76.4788 101.871 76.7747 100.561C77.0706 99.2928 78.1696 98.3206 79.4377 98.1938C79.1841 97.6443 79.0573 97.0525 78.9727 96.4607C78.8037 94.5585 79.48 92.7832 80.8749 91.6419C81.8049 90.881 82.9462 90.4583 84.1298 90.4583C84.8906 90.4583 85.6937 90.6274 86.4123 90.9655C87.2155 91.346 87.9341 91.9378 88.5259 92.6986C91.2312 87.1612 96.5995 82.5537 104.293 82.5537C104.462 82.5537 104.631 82.5537 104.8 82.5537C105.223 82.5537 105.688 82.5114 106.153 82.5114C107.759 82.4692 109.408 82.4269 111.098 82.4269C113.635 82.4269 115.706 82.5537 117.608 82.8073C118.411 82.0465 119.341 81.4124 120.356 80.9474C121.286 80.5247 122.215 80.1443 123.145 79.8484L123.272 79.8061C124.16 79.5102 125.217 79.1721 126.316 79.003C126.612 78.9607 126.907 78.9185 127.203 78.9185C129.106 78.9185 130.627 79.9752 131.135 81.666C131.515 82.8919 131.43 84.1177 131.388 85.2168C131.388 85.4704 131.346 85.724 131.346 85.9776C131.346 87.3726 131.177 88.6829 131.05 89.9511C131.05 90.0356 131.008 90.1624 131.008 90.247L131.092 90.416C131.6 91.1769 132.065 91.98 132.445 92.8255C133.037 93.8822 134.093 95.1503 134.728 95.404L134.897 95.4462C136.418 96.038 139.25 97.1793 139.25 100.603V100.73V100.857C139.208 101.364 139.25 101.914 139.25 102.505C139.377 104.323 139.546 107.747 135.277 108.973L135.108 109.015L134.939 109.057C133.164 109.311 132.825 109.607 131.557 110.875C130.036 113.327 127.964 115.398 125.513 116.92C125.005 117.638 124.963 118.399 124.879 119.456C124.794 121.189 124.667 124.866 118.961 124.909C118.876 124.909 118.792 124.909 118.707 124.909C113.804 124.909 113.001 122.415 112.874 120.217C112.874 120.048 112.831 119.794 112.831 119.667C111.521 119.667 108.604 119.667 107.294 119.667C107.252 119.794 107.252 120.048 107.252 120.217C107.125 122.415 106.322 124.951 101.334 124.951L101.038 124.993Z" fill="#E1F8F8"/>
<path d="M88.9495 97.9404C87.5123 98.3631 85.8638 98.7436 84.3843 98.2786C83.0316 97.8136 82.0171 96.3764 82.6512 94.9815C82.9894 94.2206 83.8348 93.8402 84.6379 94.0515C85.4833 94.3052 86.0328 95.066 86.2442 95.9114C86.5824 97.2641 85.906 98.7858 84.9761 99.758C83.6657 101.111 81.679 101.449 79.9881 100.646C79.3541 100.35 78.7623 101.322 79.4386 101.618C81.4253 102.548 83.7502 102.379 85.441 100.899C86.8782 99.6735 87.8082 97.6023 87.3855 95.7424C87.1741 94.6433 86.4555 93.6288 85.441 93.1638C84.4266 92.6989 83.2853 92.7834 82.4399 93.502C81.6367 94.1783 81.2985 95.2351 81.3831 96.2496C81.4676 97.2641 82.0171 98.1095 82.8203 98.7436C84.6379 100.138 87.2164 99.7158 89.2454 99.0817C89.964 98.7858 89.6681 97.7291 88.9495 97.9404Z" fill="#5E7A8C"/>
<path d="M133.84 97.6443C131.938 96.8835 130.289 93.9245 130.289 93.9245C125.682 83.7796 114.269 84.6673 104.8 84.9209C89.4982 84.4137 82.904 105.845 95.3738 114.172C99.7699 118.315 95.1202 122.626 101.165 122.542C107.379 122.584 102.813 118.822 106.618 117.258L113.508 117.216C117.312 118.78 112.747 122.542 118.961 122.457C124.836 122.373 120.821 118.568 123.906 115.018C126.316 113.623 128.303 111.636 129.697 109.226V109.269C131.177 107.747 131.938 106.986 134.559 106.606C137.856 105.676 136.545 103.224 136.799 100.561C136.841 98.7434 135.277 98.2361 133.84 97.6443Z" fill="#80D7FB"/>
<path d="M123.356 97.5177C123.356 98.4054 123.821 99.3776 124.624 99.8426C125.342 100.223 126.272 100.265 126.991 99.9694C127.667 99.7158 128.132 99.2086 128.386 98.5745C128.513 98.2363 128.597 97.8559 128.597 97.5177C128.597 96.7991 127.456 96.7991 127.456 97.5177C127.456 97.6023 127.456 97.6446 127.456 97.6868C127.456 97.8136 127.498 97.5177 127.456 97.6446C127.456 97.6868 127.456 97.6868 127.456 97.7291C127.456 97.8136 127.414 97.8982 127.371 97.9827C127.371 98.025 127.329 98.0673 127.329 98.1095C127.329 98.1095 127.329 98.1941 127.287 98.1941C127.287 98.1941 127.371 98.0673 127.287 98.1518C127.245 98.2363 127.202 98.3631 127.118 98.4477C127.118 98.49 127.075 98.49 127.075 98.5322C127.033 98.6168 127.16 98.4477 127.075 98.5322C127.033 98.5745 126.991 98.6168 126.949 98.659C126.906 98.7013 126.864 98.7436 126.822 98.7436C126.949 98.659 126.737 98.7859 126.695 98.8281C126.653 98.8281 126.526 98.9127 126.568 98.9127C126.61 98.8704 126.484 98.9549 126.441 98.9549C126.357 98.9972 126.272 98.9972 126.23 98.9972C126.145 99.0395 126.188 98.9972 126.23 98.9972C126.188 98.9972 126.103 98.9972 126.061 98.9972C125.976 98.9972 125.892 98.9972 125.807 98.9972C125.765 98.9972 125.681 98.9972 125.638 98.9972C125.596 98.9972 125.511 98.9972 125.638 98.9972C125.469 98.9549 125.342 98.9127 125.173 98.8704C125.3 98.9127 125.131 98.8281 125.089 98.8281C125.046 98.7859 124.962 98.7436 124.92 98.7013C125.004 98.7859 124.92 98.7013 124.877 98.659C124.835 98.6168 124.793 98.5745 124.708 98.49C124.624 98.4054 124.708 98.49 124.751 98.5322C124.751 98.49 124.708 98.49 124.708 98.4477C124.666 98.4054 124.666 98.3632 124.624 98.3209C124.581 98.2786 124.581 98.2363 124.539 98.1941L124.497 98.1518C124.497 98.2786 124.539 98.2363 124.497 98.1518C124.455 98.0673 124.412 97.9404 124.412 97.8559C124.412 97.8136 124.412 97.7714 124.37 97.7291C124.37 97.6868 124.328 97.56 124.37 97.6868C124.37 97.8136 124.37 97.6868 124.37 97.6446C124.37 97.6023 124.37 97.6023 124.37 97.56C124.37 97.5177 124.37 97.5177 124.37 97.4755C124.455 96.7991 123.313 96.7991 123.356 97.5177Z" fill="#5E7A8C"/>
<path d="M99.3467 90.5005C99.7272 90.3314 100.108 90.1623 100.615 89.9932C101.798 89.6128 103.024 89.3169 104.25 89.1901C106.998 88.8519 109.914 89.0633 112.535 89.9509C113.042 90.12 113.381 90.2468 113.803 90.5005C114.437 90.8386 114.987 89.8664 114.353 89.5282C113 88.7674 111.352 88.4292 109.872 88.1756C106.786 87.7106 103.616 87.8797 100.657 88.8096C100.023 89.021 99.3467 89.2323 98.7549 89.5282C98.1632 89.8664 98.7127 90.8386 99.3467 90.5005Z" fill="#5E7A8C"/>
<path d="M121.663 83.6104C122.34 83.3145 123.396 82.8495 124.664 82.4691C126.524 81.9196 127.497 81.6237 128.046 82.0887C128.257 82.2577 128.469 82.5959 128.427 85.0899C128.384 86.6962 128.469 86.2312 128.257 88.387C128.131 89.7396 128.046 90.416 127.877 90.9232C127.666 91.515 127.201 92.7831 126.017 93.544C124.791 94.3048 123.481 94.178 122.805 94.0935C122.213 94.009 120.353 93.8399 119.042 92.2336C117.774 90.7118 117.859 88.9365 117.901 88.4715C118.07 86.4003 119.507 84.5404 121.663 83.6104Z" fill="#80D7FB"/>
<path d="M121.916 84.1183C123.269 83.5266 124.664 83.0616 126.101 82.6811C126.524 82.5543 127.073 82.3852 127.496 82.5121C127.581 82.5121 127.581 82.5543 127.665 82.5543C127.792 82.5966 127.623 82.5543 127.707 82.5966C127.792 82.6389 127.707 82.6389 127.707 82.5543C127.707 82.5966 127.75 82.6389 127.75 82.6389C127.707 82.4698 127.792 82.7657 127.792 82.8502C127.834 83.0193 127.834 83.1884 127.834 83.3575C127.877 84.0338 127.877 84.6679 127.834 85.3442C127.834 86.1896 127.792 87.0773 127.707 87.9227C127.581 89.064 127.581 90.2476 127.116 91.3043C126.608 92.5302 125.594 93.4601 124.199 93.6292C121.959 93.8828 119.465 92.8683 118.662 90.5857C117.774 87.8381 119.422 85.2174 121.916 84.1183C122.593 83.8224 122.001 82.8502 121.367 83.1461C118.746 84.3297 116.929 86.9927 117.393 89.9094C117.647 91.5579 118.619 93.0374 120.014 93.8828C120.986 94.4746 122.043 94.686 123.142 94.7705C124.791 94.8973 126.397 94.3478 127.412 93.0374C128.172 92.0652 128.511 90.9239 128.68 89.698C128.849 88.4722 128.976 87.2041 128.976 85.9782C128.976 84.8369 129.145 83.4843 128.849 82.343C128.553 81.3708 127.581 81.2439 126.693 81.3708C125.763 81.4976 124.833 81.8357 123.903 82.1316C123.015 82.4275 122.17 82.7657 121.367 83.1461C120.691 83.442 121.282 84.4142 121.916 84.1183Z" fill="#5E7A8C"/>
<path d="M105.854 91.1756C100.359 91.1756 95.8359 86.6949 95.8359 81.1575C95.8359 75.6201 100.317 71.1394 105.854 71.1394C111.349 71.1394 115.872 75.6201 115.872 81.1575C115.872 86.6949 111.349 91.1756 105.854 91.1756Z" fill="#C5F5F4"/>
<path d="M106.574 90.2044C101.079 90.2044 96.5562 85.7238 96.5562 80.1863C96.5562 74.6489 101.037 70.1682 106.574 70.1682C112.112 70.1682 116.592 74.6489 116.592 80.1863C116.592 85.7238 112.069 90.2044 106.574 90.2044Z" fill="#FDD340"/>
<path d="M102.47 83.9048C102.216 83.4399 102.216 83.0172 102.47 82.679C102.681 82.3408 103.02 82.1717 103.442 82.1717C103.738 82.1717 104.034 82.2985 104.372 82.5099C104.71 82.9749 105.133 83.3553 105.64 83.6935C106.105 84.0316 106.613 84.1162 107.162 84.0316C107.416 83.9894 107.627 83.9048 107.838 83.7358C108.05 83.6089 108.177 83.4399 108.261 83.2285C108.346 83.0594 108.388 82.8481 108.388 82.6367C108.388 82.4254 108.346 82.214 108.219 82.0449C108.05 81.7913 107.923 81.6222 107.712 81.4954C107.542 81.3686 107.373 81.2418 107.162 81.1995C106.951 81.115 106.782 81.0727 106.613 81.0304C106.443 80.9882 106.274 80.9459 106.105 80.9036C105.852 80.8191 105.598 80.7768 105.344 80.6923C105.091 80.6077 104.837 80.5232 104.626 80.3964C104.372 80.2696 104.161 80.1428 103.949 79.9737C103.738 79.8046 103.527 79.5932 103.315 79.2973C103.146 79.0437 102.977 78.7901 102.893 78.4942C102.808 78.1983 102.724 77.9447 102.724 77.6911C102.724 77.3529 102.808 76.9725 102.935 76.6343C103.062 76.2539 103.231 75.9157 103.485 75.6198C103.696 75.3239 103.992 75.028 104.288 74.8167C104.584 74.6053 104.922 74.4362 105.26 74.3517C105.978 74.1826 106.697 74.1403 107.458 74.2672C108.219 74.394 108.895 74.6476 109.487 74.9858C109.741 75.1548 109.91 75.3239 109.994 75.493C110.121 75.6621 110.163 75.8312 110.163 76.0002C110.163 76.2116 110.121 76.3807 109.994 76.5498C109.867 76.7188 109.741 76.8457 109.571 76.9302C109.402 77.0147 109.191 77.0993 108.98 77.0993C108.768 77.0993 108.515 77.0147 108.261 76.8879C108.05 76.8034 107.796 76.6766 107.416 76.592C107.077 76.5075 106.697 76.4652 106.359 76.5075C106.021 76.5498 105.725 76.6343 105.471 76.8457C105.218 77.057 105.133 77.3952 105.175 77.8601C105.26 78.0292 105.387 78.1983 105.556 78.3251C105.683 78.4519 105.852 78.5365 106.021 78.621C106.19 78.7056 106.401 78.7901 106.57 78.8324C106.782 78.8746 106.951 78.9592 107.162 79.0014C107.669 79.1705 108.134 79.3396 108.599 79.5087C109.022 79.7201 109.402 79.9314 109.741 80.2273C110.036 80.5232 110.29 80.8614 110.459 81.2418C110.628 81.6222 110.713 82.1295 110.713 82.679C110.713 83.144 110.628 83.5667 110.417 83.9894C110.205 84.4121 109.952 84.7925 109.614 85.1307C109.276 85.4688 108.937 85.7225 108.515 85.9338C108.092 86.1452 107.669 86.2297 107.247 86.2297C106.317 86.2297 105.387 86.0184 104.499 85.5956C103.738 85.2152 103.062 84.6657 102.47 83.9048Z" fill="#FCA932"/>
<path d="M105.771 84.6671V86.9901C105.771 88.0038 107.334 88.0038 107.334 86.9901V84.3714C106.827 84.4981 106.32 84.5826 105.771 84.6671Z" fill="#FCA932"/>
<path d="M105.818 75.492C106.324 75.4075 106.831 75.4498 107.338 75.5342V73.2534C107.338 72.2397 105.775 72.2397 105.775 73.2534L105.818 75.492Z" fill="#FCA932"/>
<path d="M99.3472 90.5007C99.7277 90.3316 100.108 90.1625 100.615 89.9935C101.799 89.613 103.025 89.3171 104.251 89.1903C106.998 88.8522 109.915 89.0635 112.536 89.9512C113.043 90.1203 113.381 90.2471 113.804 90.5007C114.438 90.8389 114.987 89.8666 114.353 89.5285C113.001 88.7676 111.352 88.4295 109.873 88.1758C106.787 87.7109 103.617 87.8799 100.658 88.8099C100.024 89.0212 99.3472 89.2326 98.7554 89.5285C98.1636 89.8666 98.7132 90.8389 99.3472 90.5007Z" fill="#5E7A8C"/>
<path d="M114.523 91.5153C114.734 91.2616 114.776 90.8812 114.396 90.6698C113.043 89.909 111.395 89.5708 109.915 89.3172C106.83 88.8522 103.659 89.0213 100.7 89.9512C100.066 90.1626 99.3899 90.3739 98.7981 90.6698C98.4177 90.8389 98.46 91.2616 98.6713 91.5153C98.4177 91.7266 98.46 92.0648 98.6713 92.2761C98.2486 92.6566 98.7559 93.4597 99.3476 93.1638C99.7281 92.9947 100.109 92.8256 100.616 92.6566C101.799 92.2761 103.025 91.9802 104.251 91.8534C106.999 91.5153 109.915 91.7266 112.536 92.6143C113.043 92.7834 113.381 92.9102 113.804 93.1638C114.396 93.502 114.903 92.6988 114.48 92.2761C114.692 92.0225 114.734 91.7266 114.523 91.5153Z" fill="#80D7FB"/>
<path d="M90.5954 42.9051C92.4976 44.2155 93.8503 46.2022 94.273 48.5271C94.6957 50.8097 94.2307 53.1768 92.9203 55.079C92.1594 56.2203 93.9348 57.4461 94.6957 56.3048C97.2319 52.5005 97.1474 47.4703 94.4843 43.7505C93.7657 42.736 92.7935 41.8483 91.779 41.1297C90.6377 40.3266 89.4119 42.1019 90.5954 42.9051Z" fill="#85A5B6"/>
<path d="M94.0158 37.8323C96.5943 39.6077 98.5388 42.0594 99.6378 45.0183C100.103 46.2441 100.441 47.935 100.526 49.2031C100.61 50.7248 100.483 52.3734 100.145 53.726C99.6801 55.5437 99.0038 57.0654 97.9893 58.5449C97.2284 59.6862 99.0038 60.912 99.7646 59.7707C101.709 56.854 102.808 53.3456 102.724 49.8371C102.639 46.371 101.498 43.0316 99.511 40.1995C98.3697 38.5932 96.8903 37.1983 95.2417 36.057C94.1004 35.2538 92.8745 37.0292 94.0158 37.8323Z" fill="#85A5B6"/>
<path d="M97.4826 32.7599C101.076 35.2116 103.823 38.6355 105.345 42.778C106.782 46.6246 107.078 51.1053 106.064 55.121C105.429 57.615 104.457 59.7708 103.062 61.8843C102.301 63.0256 104.077 64.2514 104.838 63.1101C107.501 59.179 108.938 54.4447 108.811 49.7104C108.684 45.0184 107.205 40.4531 104.457 36.6065C102.893 34.4085 100.907 32.5063 98.7085 31.0268C97.5249 30.1814 96.299 31.9568 97.4826 32.7599Z" fill="#85A5B6"/>
</svg>
