<svg width="132" height="134" viewBox="0 0 132 134" fill="none" xmlns="http://www.w3.org/2000/svg">
<path d="M69.5549 129.475C102.873 127.35 128.152 98.5038 126.017 65.0461C123.883 31.5884 95.1435 6.18848 61.8259 8.31385C28.5083 10.4392 3.22922 39.285 5.36353 72.7427C7.49783 106.2 36.2373 131.6 69.5549 129.475Z" fill="#E2FFFF"/>
<path fill-rule="evenodd" clip-rule="evenodd" d="M128.158 25.6675C125.359 24.6319 122.256 26.0634 121.252 28.8351C120.218 31.6068 121.648 34.7135 124.446 35.749C127.245 36.7846 130.348 35.3531 131.352 32.5814C132.356 29.7793 130.926 26.703 128.158 25.6675Z" fill="#80D7FB"/>
<path fill-rule="evenodd" clip-rule="evenodd" d="M3.82817 85.6999C2.91555 84.9385 1.57704 85.0298 0.786101 85.9436C0.0255828 86.8573 0.147266 88.1974 1.02947 88.9893C1.94209 89.7508 3.2806 89.6594 4.07154 88.7457C4.86248 87.8319 4.74079 86.4613 3.82817 85.6999Z" fill="#FC5050"/>
<path opacity="0.93" fill-rule="evenodd" clip-rule="evenodd" d="M125.634 119.143C124.721 118.381 123.383 118.473 122.592 119.387C121.831 120.3 121.953 121.64 122.835 122.432C123.748 123.194 125.086 123.102 125.877 122.189C126.668 121.275 126.546 119.935 125.634 119.143Z" fill="#448AF9"/>
<path opacity="0.93" fill-rule="evenodd" clip-rule="evenodd" d="M37.8077 9.03765L30.7501 5.29133C30.4763 5.13904 30.385 4.83446 30.5371 4.56034C30.5676 4.46896 30.6588 4.40805 30.7197 4.34713L37.321 0.0830271C37.5643 -0.0692624 37.899 -0.00834659 38.0511 0.235316C38.1119 0.32669 38.1423 0.418064 38.1423 0.509437L38.5986 8.4894C38.6291 8.79398 38.3857 9.03765 38.0815 9.0681C37.9902 9.12902 37.899 9.09856 37.8077 9.03765Z" fill="#448AF9"/>
<path fill-rule="evenodd" clip-rule="evenodd" d="M38.3549 117.924L30.5976 116.036C30.3238 115.975 30.1413 115.67 30.2022 115.396C30.2326 115.305 30.263 115.213 30.3238 115.153L35.6779 109.396C35.8908 109.183 36.2255 109.152 36.4384 109.366C36.4992 109.426 36.5601 109.518 36.5905 109.609L38.9937 117.224C39.085 117.498 38.9329 117.802 38.6287 117.894C38.5374 117.955 38.4462 117.955 38.3549 117.924Z" fill="#FDD340"/>
<path fill-rule="evenodd" clip-rule="evenodd" d="M107.988 6.93567L113.524 7.60574C113.737 7.6362 113.889 7.81895 113.859 8.03215C113.859 8.09307 113.829 8.15398 113.798 8.2149L110.543 12.6313C110.421 12.7836 110.178 12.8445 110.026 12.7227C109.965 12.6922 109.935 12.6313 109.904 12.5704L107.623 7.48391C107.531 7.30116 107.623 7.0575 107.805 6.99658C107.836 6.93567 107.897 6.93567 107.988 6.93567Z" fill="#FC5050"/>
<path d="M8.60315 36.8455L9.91124 38.0334C10.0025 38.0943 10.0938 38.1248 10.2154 38.1248L11.9494 37.7288C12.2232 37.6679 12.4362 37.942 12.3449 38.1857L11.6148 39.8304C11.5844 39.9218 11.5844 40.0436 11.6452 40.135L12.5578 41.6579C12.7099 41.9015 12.497 42.2061 12.2232 42.1757L10.4588 41.9929C10.3371 41.9929 10.2459 42.0234 10.1546 42.1147L8.99862 43.4549C8.81609 43.6681 8.48146 43.5767 8.42062 43.3026L8.05557 41.5665C8.02515 41.4447 7.96431 41.3533 7.84263 41.3228L6.19991 40.6223C5.95654 40.5005 5.92612 40.1654 6.16949 40.0131L7.72095 39.1299C7.81221 39.0689 7.87305 38.9776 7.90347 38.8557L8.05557 37.0587C8.05557 36.8151 8.3902 36.6628 8.60315 36.8455Z" fill="#FDD340"/>
<path d="M93.9352 119.843L95.2433 121.031C95.3345 121.092 95.4258 121.122 95.5475 121.122L97.2815 120.727C97.5553 120.666 97.7682 120.94 97.6769 121.183L96.9468 122.828C96.9164 122.919 96.9164 123.041 96.9773 123.133L97.8899 124.656C98.042 124.899 97.8291 125.204 97.5553 125.173L95.7909 124.991C95.6692 124.991 95.5779 125.021 95.4866 125.112L94.3307 126.453C94.1481 126.666 93.8135 126.574 93.7527 126.3L93.3876 124.564C93.3572 124.442 93.2963 124.351 93.1747 124.321L91.5319 123.62C91.2886 123.498 91.2582 123.163 91.5015 123.011L93.053 122.128C93.1442 122.067 93.2051 121.975 93.2355 121.853L93.3876 120.056C93.3876 119.782 93.7222 119.66 93.9352 119.843Z" fill="#19C753"/>
<path d="M48.5485 57.5269C48.731 57.3441 48.944 57.1309 49.1265 56.9482C52.564 53.3846 52.6553 47.8108 49.2482 44.2472C46.632 41.506 43.9854 38.8257 41.2171 36.2368C38.5705 33.7393 35.3763 33.2215 31.9388 34.3484C30.3569 34.8662 29.1401 35.8409 28.0449 36.9678L48.5485 57.5269Z" fill="#C5F5F4"/>
<path d="M87.9456 96.9698C92.3566 92.7971 91.8699 86.5837 87.9456 82.9287C85.6336 80.7662 83.4738 78.4514 81.2226 76.1975C77.2375 72.2075 71.5793 72.238 67.5941 76.228C67.5333 76.2889 67.4725 76.3498 67.4116 76.4107L87.9456 96.9698Z" fill="#C5F5F4"/>
<path d="M65.6149 78.208C64.7023 79.1217 63.7897 80.0355 62.8771 80.9492C61.9644 81.8325 61.1127 81.8934 60.0784 81.1319C53.8421 76.5633 48.3968 71.2331 43.8946 64.9588C43.0732 63.8014 43.1036 62.979 44.1379 61.9739C45.0201 61.0906 45.9023 60.2074 46.7845 59.3241L26.4331 38.9478C22.3871 44.3083 20.6227 50.4304 20.5923 57.1311C20.5923 64.8674 22.7522 71.9641 27.1632 78.3298C32.0609 85.396 38.1755 91.3049 44.8984 96.5741C49.492 100.168 54.6331 102.605 60.413 103.732C64.7327 104.554 69.0525 104.798 73.4026 104.067C78.0874 103.275 82.2246 101.356 85.9968 98.5843L65.6149 78.208Z" fill="#C5F5F4"/>
<path d="M89.5239 14.6421H71.1194C62.7233 14.6421 55.9395 21.4647 55.9395 29.8406V38.0947C55.9395 46.1355 62.1757 52.7144 70.0851 53.2627C70.0547 53.3236 70.0243 53.3845 69.9938 53.4454C69.9026 54.2069 69.142 57.8923 64.6398 61.5168C64.3356 61.7604 64.4877 62.2478 64.8527 62.2782C67.7427 62.461 76.2301 59.537 77.8728 53.3236H89.5239C97.92 53.3236 104.704 46.501 104.704 38.1251V29.8406C104.704 21.4342 97.92 14.6421 89.5239 14.6421Z" fill="#C5F5F4"/>
<path d="M50.5221 55.8512C50.7047 55.6685 50.9176 55.4553 51.1001 55.2725C54.5377 51.7089 54.6289 46.1351 51.2218 42.5716C48.6056 39.8304 45.959 37.1501 43.1907 34.5611C40.5441 32.0636 37.35 31.5458 33.9124 32.6728C32.3305 33.1905 31.1137 34.1652 30.0186 35.2921L50.5221 55.8512Z" fill="#008B2B"/>
<path d="M89.9163 95.2941C94.3273 91.1214 93.8406 84.908 89.9163 81.253C87.6043 79.0905 85.4445 76.7757 83.1933 74.5219C79.2082 70.5319 73.55 70.5623 69.5648 74.5523C69.504 74.6132 69.4432 74.6741 69.3823 74.7351L89.9163 95.2941Z" fill="#008B2B"/>
<path d="M67.5881 76.5323C66.6755 77.446 65.7628 78.3598 64.8502 79.2735C63.9376 80.1568 63.0858 80.2177 62.0515 79.4563C55.8153 74.8876 50.37 69.5575 45.8677 63.2831C45.0463 62.1257 45.0768 61.3034 46.1111 60.2983C46.9933 59.415 47.8755 58.5317 48.7577 57.6484L28.4062 37.2721C24.3603 42.6327 22.5959 48.7547 22.5654 55.4554C22.5654 63.1917 24.7253 70.2884 29.1363 76.6541C34.034 83.7204 40.1486 89.6292 46.8716 94.8984C51.4651 98.4924 56.6062 100.929 62.3861 102.056C66.7059 102.878 71.0256 103.122 75.3758 102.391C80.0606 101.599 84.1978 99.6803 87.97 96.9086L67.5881 76.5323Z" fill="#19C753"/>
<path d="M91.4712 12.9971H73.0667C64.6705 12.9971 57.8867 19.8196 57.8867 28.1956V36.4496C57.8867 44.4905 64.123 51.0694 72.0324 51.6177C72.0019 51.6786 71.9715 51.7395 71.9411 51.8004C71.8498 52.5619 71.0893 56.2473 66.587 59.8718C66.2828 60.1154 66.4349 60.6027 66.8 60.6332C69.69 60.8159 78.1773 57.892 79.8201 51.6786H91.4712C99.8673 51.6786 106.651 44.856 106.651 36.4801V28.1956C106.682 19.7892 99.8673 12.9971 91.4712 12.9971Z" fill="white"/>
<path d="M87.8812 22.0736C84.5045 22.0736 82.2838 25.4544 82.2838 25.4544C82.2838 25.4544 80.0326 22.0736 76.6864 22.0736C73.3097 22.0736 69.9634 24.3275 69.9634 28.8048C69.9634 33.2821 72.2145 38.9168 82.3142 45.648C92.4139 38.9168 94.665 33.2821 94.665 28.8048C94.665 24.3275 91.2579 22.0736 87.8812 22.0736Z" fill="#FC5050"/>
<path d="M104.977 111.559C116.687 111.559 126.18 102.054 126.18 90.3295C126.18 78.605 116.687 69.1003 104.977 69.1003C93.2665 69.1003 83.7734 78.605 83.7734 90.3295C83.7734 102.054 93.2665 111.559 104.977 111.559Z" fill="#E1F8F8"/>
<path d="M104.978 102.878C98.0722 102.878 92.4443 97.2436 92.4443 90.3296C92.4443 83.4157 98.0722 77.781 104.978 77.781C111.883 77.781 117.511 83.4157 117.511 90.3296C117.511 97.2436 111.883 102.878 104.978 102.878Z" fill="#FDD340"/>
<path d="M99.8654 95.0186C99.5612 94.4095 99.5612 93.8917 99.835 93.4957C100.109 93.0998 100.535 92.8866 101.082 92.8866C101.447 92.8866 101.812 93.0084 102.238 93.2825C102.664 93.8612 103.212 94.3486 103.82 94.7445C104.429 95.1405 105.067 95.2928 105.737 95.1405C106.041 95.0796 106.315 94.9577 106.558 94.775C106.801 94.5922 106.984 94.379 107.106 94.1658C107.227 93.9222 107.288 93.6785 107.288 93.4044C107.288 93.1303 107.227 92.8866 107.075 92.6429C106.893 92.3384 106.68 92.1252 106.467 91.9424C106.254 91.7901 106.01 91.6378 105.767 91.5769C105.524 91.4855 105.311 91.4246 105.067 91.3942C104.854 91.3637 104.641 91.3028 104.459 91.2419C104.155 91.1505 103.82 91.0591 103.516 90.9677C103.212 90.8764 102.907 90.7545 102.603 90.6022C102.299 90.45 102.025 90.2672 101.751 90.054C101.478 89.8408 101.204 89.5667 100.961 89.2316C100.717 88.9271 100.565 88.592 100.413 88.2265C100.291 87.861 100.23 87.526 100.23 87.2214C100.23 86.795 100.322 86.3381 100.474 85.8813C100.626 85.4244 100.869 84.998 101.143 84.6021C101.417 84.2061 101.751 83.8711 102.147 83.5969C102.542 83.3228 102.938 83.1096 103.394 83.0182C104.276 82.7746 105.189 82.7441 106.132 82.9269C107.075 83.1096 107.927 83.3837 108.687 83.8101C108.992 84.0234 109.205 84.2366 109.357 84.4802C109.509 84.7239 109.57 84.9371 109.57 85.1503C109.57 85.394 109.509 85.6376 109.357 85.8204C109.235 86.0336 109.052 86.1859 108.809 86.3077C108.566 86.4295 108.353 86.4904 108.049 86.4904C107.775 86.4904 107.471 86.3991 107.166 86.2468C106.923 86.1249 106.558 86.0031 106.102 85.8813C105.645 85.7594 105.219 85.729 104.763 85.7594C104.337 85.7899 103.972 85.9422 103.668 86.1859C103.364 86.4295 103.273 86.8559 103.333 87.4346C103.455 87.6783 103.607 87.861 103.79 88.0133C103.972 88.1656 104.155 88.2875 104.398 88.4093C104.611 88.5007 104.854 88.592 105.098 88.6834C105.341 88.7443 105.585 88.8357 105.828 88.8966C106.467 89.0794 107.075 89.2926 107.623 89.5362C108.17 89.7799 108.627 90.0845 109.022 90.4195C109.418 90.785 109.722 91.2114 109.935 91.6987C110.148 92.1861 110.269 92.7952 110.269 93.5262C110.269 94.1049 110.148 94.6531 109.904 95.1709C109.661 95.7192 109.326 96.176 108.931 96.6025C108.535 97.0289 108.049 97.3639 107.531 97.6076C107.014 97.8512 106.497 97.9731 105.95 97.9731C104.794 97.9731 103.638 97.6989 102.542 97.1812C101.447 96.6634 100.535 95.9324 99.8654 95.0186Z" fill="#FCA932"/>
<path d="M103.973 95.9344V98.8584C103.973 100.138 105.951 100.138 105.951 98.8584V95.5689C105.312 95.7517 104.642 95.8735 103.973 95.9344Z" fill="#FCA932"/>
<path d="M104.034 84.4515C104.672 84.3602 105.311 84.3906 105.95 84.482V81.619C105.95 80.3397 103.973 80.3397 103.973 81.619V84.4515C104.003 84.4515 104.003 84.4515 104.034 84.4515Z" fill="#FCA932"/>
<path d="M114.65 73.9416C114.62 73.9721 114.62 74.0025 114.589 74.0025C114.559 74.0025 114.498 74.0025 114.468 74.0025C112.277 72.7233 109.813 71.9009 107.288 71.5963C105.585 71.3831 103.851 71.4136 102.147 71.6877C101.204 71.84 100.261 72.0532 99.379 72.3273C98.6185 72.5405 97.8884 72.8147 97.1887 73.1497C97.1279 73.1801 97.067 73.2106 97.0062 73.2411C96.9758 73.2411 96.9454 73.2715 96.9149 73.2715C94.968 74.1853 93.234 75.4036 91.7738 76.8656C91.713 76.9265 91.6522 76.9874 91.5913 77.0483C91.5913 77.0483 91.5913 77.0483 91.5609 77.0788C90.2528 78.4189 89.1272 79.9113 88.2755 81.5865C86.3285 85.1806 85.781 89.0792 86.2981 92.795C86.7848 96.1759 88.1842 99.3739 90.2528 102.024C91.2567 103.303 92.3822 104.43 93.6599 105.435C94.1771 105.831 94.7551 106.227 95.3026 106.562C95.3026 106.562 95.3026 106.562 95.3331 106.562C97.3408 107.78 99.6224 108.572 101.934 108.968C102.299 109.029 102.664 109.09 103.06 109.12C104.672 109.273 106.224 109.242 107.714 109.029C108.323 108.938 108.931 108.816 109.54 108.694C112.795 107.902 115.654 106.257 117.936 104.034C121.13 100.927 123.198 96.7546 123.716 92.3077C124.233 87.7999 123.168 83.0485 120.004 78.9367C119.943 78.8758 119.913 78.8149 119.852 78.7844C119.365 78.358 118.635 78.3275 118.149 78.7539C117.631 79.2108 117.571 79.9723 117.966 80.49C120.765 84.145 121.677 88.3482 121.13 92.3382C120.643 95.9322 119 99.313 116.475 101.871C116.415 101.932 116.354 101.993 116.293 102.054L116.263 102.085C113.829 104.491 110.604 106.136 106.893 106.562C105.767 106.684 104.581 106.684 103.334 106.562C103.182 106.532 102.999 106.532 102.847 106.501C102.817 106.501 102.756 106.471 102.725 106.471C102.573 106.44 102.391 106.44 102.239 106.41C102.208 106.41 102.208 106.41 102.178 106.41C102.117 106.41 102.026 106.379 101.965 106.379C99.3182 105.892 96.9454 104.765 94.9376 103.181C91.6522 100.562 89.4619 96.6632 88.8534 92.5209C88.245 87.4649 90.0094 82.2261 93.6599 78.6321C94.8767 77.4443 96.2761 76.4696 97.7971 75.7082C98.5272 75.3427 99.2878 75.0381 100.109 74.7944C100.352 74.703 100.596 74.6421 100.839 74.5812C101.508 74.3985 102.178 74.2766 102.847 74.1853C106.376 73.7284 110.057 74.4289 113.129 76.2259C113.19 76.2564 113.22 76.3478 113.19 76.4087" fill="#FCA932"/>
<path d="M113.192 76.38L112.675 77.2633C112.523 77.5374 112.767 77.842 113.04 77.7811L114.957 77.3851L116.174 77.1415C116.356 77.111 116.478 76.9283 116.447 76.7151L116.082 75.0399L115.717 73.2733C115.657 72.9688 115.231 72.8774 115.079 73.1515L114.622 73.9434" fill="#FCA932"/>
</svg>
