<svg width="600" height="600" viewBox="0 0 600 600" fill="none" xmlns="http://www.w3.org/2000/svg">
<g clip-path="url(#clip0)">
<rect width="600" height="600" fill="white"/>
<path d="M414.123 474.471C516.974 417.261 554.169 287.858 497.2 185.442C440.232 83.025 310.673 46.3779 207.822 103.588C104.971 160.798 67.7758 290.201 124.744 392.617C181.713 495.034 311.272 531.681 414.123 474.471Z" fill="#E4FAF9"/>
<path fill-rule="evenodd" clip-rule="evenodd" d="M526.581 35.729C527.681 47.429 537.981 56.129 549.581 55.029C561.281 53.929 569.881 43.629 568.781 31.929C567.681 20.229 557.381 11.529 545.781 12.629C534.081 13.629 525.481 24.029 526.581 35.729Z" fill="#8ED9FF"/>
<path fill-rule="evenodd" clip-rule="evenodd" d="M37.9817 423.329C49.1817 419.629 55.2817 407.629 51.5817 396.529C47.9817 385.429 35.8817 379.329 24.6817 383.029C13.4817 386.729 7.38169 398.729 11.0817 409.829C14.7817 420.929 26.7817 426.929 37.9817 423.329Z" fill="#51CB4D"/>
<path fill-rule="evenodd" clip-rule="evenodd" d="M455.281 52.9292C454.081 57.5292 456.781 62.1292 461.281 63.3292C465.781 64.5292 470.481 61.8292 471.681 57.2292C472.881 52.6292 470.181 48.0292 465.681 46.8292C461.081 45.7292 456.481 48.4292 455.281 52.9292Z" fill="#EF3C48"/>
<path opacity="0.93" fill-rule="evenodd" clip-rule="evenodd" d="M101.182 467.229C99.9816 471.829 102.682 476.429 107.182 477.629C111.682 478.829 116.382 476.129 117.582 471.529C118.782 466.929 116.082 462.329 111.582 461.129C107.082 460.029 102.482 462.729 101.182 467.229Z" fill="#528AFF"/>
<path opacity="0.93" fill-rule="evenodd" clip-rule="evenodd" d="M539.882 424.229L538.582 455.829C538.582 457.029 537.582 457.929 536.382 457.829C535.982 457.829 535.682 457.729 535.382 457.529L508.982 441.129C507.982 440.529 507.682 439.229 508.282 438.229C508.482 437.929 508.782 437.629 509.082 437.529L536.782 422.329C537.782 421.729 539.082 422.129 539.682 423.129C539.782 423.429 539.882 423.829 539.882 424.229Z" fill="#528AFF"/>
<path fill-rule="evenodd" clip-rule="evenodd" d="M102.882 35.0289L109.382 65.9289C109.582 67.0289 108.882 68.2289 107.782 68.4289C107.382 68.5289 107.082 68.5289 106.682 68.3289L77.0824 59.0289C75.9824 58.6289 75.3824 57.4289 75.6824 56.3289C75.7824 56.0289 75.9824 55.6289 76.2824 55.4289L99.3824 33.9289C100.282 33.1289 101.582 33.1289 102.382 34.0289C102.682 34.3289 102.782 34.6289 102.882 35.0289Z" fill="#F9D222"/>
<path fill-rule="evenodd" clip-rule="evenodd" d="M548.082 512.129L554.582 543.029C554.782 544.129 554.082 545.329 552.982 545.529C552.582 545.629 552.282 545.629 551.882 545.429L522.282 536.029C521.182 535.629 520.582 534.429 520.882 533.329C520.982 533.029 521.182 532.629 521.482 532.429L544.582 510.929C545.482 510.129 546.782 510.129 547.582 511.029C547.782 511.429 547.982 511.729 548.082 512.129Z" fill="#F9D222"/>
<path fill-rule="evenodd" clip-rule="evenodd" d="M135.582 561.229L125.482 531.329C125.082 530.229 125.682 529.029 126.782 528.629C127.082 528.529 127.482 528.529 127.882 528.529L158.382 534.429C159.582 534.629 160.282 535.729 160.082 536.929C159.982 537.329 159.882 537.629 159.582 537.929L139.182 562.029C138.382 562.929 137.082 563.029 136.182 562.229C135.982 561.929 135.782 561.629 135.582 561.229Z" fill="#EF3C48"/>
<path d="M388.481 321.729H463.581C467.781 321.729 471.081 325.129 471.081 329.229V334.229C471.081 338.429 467.681 341.729 463.581 341.729H387.881C383.681 341.729 380.381 338.329 380.381 334.229V329.928C380.281 325.428 383.881 321.729 388.481 321.729Z" fill="#88E2E3"/>
<path d="M388.481 355.229H463.581C467.781 355.229 471.081 358.629 471.081 362.729V367.729C471.081 371.929 467.681 375.229 463.581 375.229H387.881C383.681 375.229 380.381 371.829 380.381 367.729V363.428C380.281 358.828 383.881 355.229 388.481 355.229Z" fill="#88E2E3"/>
<path d="M388.481 388.629H463.581C467.781 388.629 471.081 392.029 471.081 396.129V401.129C471.081 405.329 467.681 408.629 463.581 408.629H387.881C383.681 408.629 380.381 405.229 380.381 401.129V396.829C380.281 392.229 383.881 388.629 388.481 388.629Z" fill="#88E2E3"/>
<path d="M332.582 198.729H376.382C378.482 198.729 380.182 200.429 380.182 202.529V300.129C380.182 305.029 384.182 309.029 389.082 309.029H462.082C466.982 309.029 470.982 305.029 470.982 300.129V202.529C470.982 200.429 472.682 198.729 474.782 198.729H518.582C526.582 198.729 530.582 189.129 524.882 183.429L431.882 90.4287C428.382 86.9287 422.682 86.9287 419.182 90.4287L326.182 183.429C320.682 189.029 324.682 198.729 332.582 198.729Z" fill="#88E2E3"/>
<path d="M127.381 96.8286L246.281 96.6286C261.181 96.3286 273.381 108.229 273.681 123.029L274.681 181.629C274.981 196.529 263.081 208.729 248.281 209.029L235.481 209.229C234.881 209.229 234.381 209.729 234.381 210.329L234.881 239.229C234.981 242.629 230.781 244.329 228.381 241.929L197.481 210.229C197.281 210.029 196.981 209.929 196.681 209.929L129.281 209.229C114.381 209.529 102.181 197.629 101.881 182.829L100.881 124.229C100.681 109.329 112.481 97.0286 127.381 96.8286Z" fill="#88E2E3"/>
<path opacity="0.5" d="M222.881 199.429C222.881 198.829 223.381 198.229 223.881 198.229L236.281 198.029C250.681 197.729 262.081 184.929 261.781 169.229L260.781 107.529C260.781 104.929 260.381 102.329 259.681 99.9287C267.881 104.429 273.481 113.029 273.681 123.029L274.681 181.629C274.981 196.529 263.081 208.729 248.281 209.029L235.481 209.229C234.881 209.229 234.381 209.729 234.381 210.329L234.881 239.229C234.981 242.629 230.781 244.329 228.381 241.929L223.481 236.929L222.881 199.429Z" fill="#66AAAA"/>
<path d="M213.581 129.028C206.881 122.028 195.781 121.828 188.881 128.528L184.981 132.328C184.081 133.228 182.581 133.228 181.681 132.228L177.981 128.328C171.281 121.328 160.181 121.128 153.281 127.828C146.281 134.528 146.081 145.628 152.781 152.528L180.781 181.628C181.681 182.528 183.181 182.628 184.081 181.728L213.281 153.728C220.081 147.028 220.281 135.928 213.581 129.028Z" fill="#EF3C48"/>
<path opacity="0.35" d="M161.782 152.828C155.082 145.828 155.282 134.828 162.282 128.128C164.582 125.928 167.282 124.528 170.182 123.728C164.382 122.028 157.782 123.428 153.182 127.928C146.182 134.628 145.982 145.728 152.682 152.628L180.682 181.728C181.582 182.628 183.082 182.728 183.982 181.828L186.982 178.928L161.782 152.828Z" fill="#A21922"/>
<path d="M382.081 414.83L218.681 456.33C213.381 457.63 207.981 454.43 206.681 449.13L166.981 292.63C165.681 287.33 168.881 281.93 174.181 280.63L337.981 239.03C343.281 237.73 348.681 240.93 349.981 246.23L389.581 402.33C390.981 407.83 387.581 413.43 382.081 414.83Z" fill="#51CB4D"/>
<path d="M348.38 374.13L327.28 291.03C318.08 293.33 308.68 287.83 306.38 278.63L172.08 312.73L174.28 321.53C201.48 314.63 229.18 331.13 236.08 358.33C242.98 385.53 226.48 413.23 199.28 420.13L201.58 429.13L335.88 395.03C333.58 385.83 339.18 376.43 348.38 374.13ZM292.88 365.53C281.68 368.33 270.38 361.63 267.58 350.43C264.78 339.23 271.48 327.93 282.68 325.13C293.88 322.33 305.18 329.03 307.98 340.23C310.78 351.43 303.98 362.63 292.88 365.53Z" fill="#B8F259"/>
<path opacity="0.5" d="M223.681 455.229L218.181 456.629C213.181 457.929 208.081 454.829 206.881 449.929L166.881 292.229C165.581 287.229 168.681 282.129 173.581 280.929L179.081 279.529C184.081 278.229 189.181 281.329 190.381 286.229L230.381 443.929C231.681 448.829 228.681 453.929 223.681 455.229Z" fill="#317B6C"/>
<path d="M389.681 430.629C379.981 427.329 367.381 425.329 353.681 425.329C339.781 425.329 327.081 427.329 317.381 430.629H297.881V447.529C298.081 459.629 322.981 469.429 353.581 469.529C384.281 469.529 409.381 459.729 409.381 447.529V430.629H389.681Z" fill="#F4A400"/>
<path d="M353.681 452.729C322.981 452.729 297.881 442.729 297.981 430.629C298.081 418.529 322.981 408.629 353.781 408.629C384.581 408.629 409.581 418.629 409.481 430.829C409.481 442.929 384.381 452.829 353.681 452.729Z" fill="#F9D222"/>
<path d="M330.98 438.829C329.68 437.729 329.68 436.829 330.88 436.129C332.18 435.429 333.98 435.029 336.38 435.029C337.98 435.029 339.68 435.229 341.58 435.729C343.58 436.729 345.88 437.629 348.58 438.329C351.28 439.029 354.08 439.229 357.08 439.029C358.48 438.929 359.68 438.729 360.78 438.429C361.88 438.129 362.68 437.729 363.18 437.329C363.68 436.929 363.98 436.529 363.98 436.029C363.98 435.529 363.68 435.129 362.98 434.729C362.18 434.229 361.28 433.829 360.28 433.529C359.28 433.229 358.28 433.029 357.18 432.829C356.08 432.729 355.08 432.529 354.08 432.529C353.08 432.429 352.18 432.329 351.38 432.229C349.98 432.129 348.58 431.929 347.18 431.729C345.78 431.529 344.48 431.329 343.18 431.129C341.88 430.829 340.58 430.529 339.38 430.129C338.18 429.729 336.98 429.229 335.88 428.629C334.88 428.029 334.08 427.429 333.48 426.829C332.88 426.229 332.68 425.629 332.68 425.029C332.68 424.229 333.08 423.429 333.78 422.629C334.48 421.829 335.48 421.029 336.78 420.429C338.08 419.729 339.48 419.129 341.28 418.629C342.98 418.129 344.88 417.829 346.78 417.629C350.68 417.229 354.78 417.229 358.98 417.529C363.18 417.829 366.98 418.329 370.38 419.129C371.68 419.529 372.68 419.929 373.28 420.329C373.98 420.729 374.28 421.129 374.28 421.529C374.28 421.929 373.98 422.329 373.38 422.729C372.78 423.029 371.98 423.329 370.98 423.629C369.98 423.829 368.88 423.929 367.68 423.929C366.48 423.929 365.08 423.729 363.68 423.529C362.58 423.329 360.98 423.129 358.98 422.929C356.98 422.729 354.98 422.629 353.08 422.729C351.08 422.829 349.48 423.029 348.18 423.429C346.88 423.829 346.38 424.629 346.68 425.629C347.28 426.029 347.88 426.329 348.68 426.629C349.48 426.929 350.38 427.129 351.28 427.329C352.28 427.529 353.28 427.629 354.38 427.829C355.48 427.929 356.58 428.129 357.58 428.229C360.48 428.529 363.08 428.929 365.58 429.329C367.98 429.729 370.08 430.329 371.88 430.929C373.68 431.529 374.98 432.329 375.98 433.229C376.98 434.129 377.48 435.229 377.48 436.429C377.48 437.429 376.88 438.429 375.78 439.329C374.68 440.229 373.18 441.129 371.38 441.829C369.58 442.529 367.48 443.129 365.18 443.629C362.88 444.029 360.48 444.329 358.18 444.329C352.98 444.329 347.88 443.829 342.98 442.929C338.08 442.029 334.08 440.729 331.08 439.129L330.98 438.829Z" fill="#F4A400"/>
<path d="M349.279 440.53V445.73C349.279 447.93 358.079 447.93 358.079 445.73V439.93C355.179 440.23 352.279 440.43 349.279 440.53Z" fill="#F4A400"/>
<path d="M349.579 420.329C352.379 420.229 355.279 420.229 358.179 420.429V415.429C358.179 413.229 349.379 413.229 349.379 415.429V420.429C349.379 420.329 349.479 420.329 349.579 420.329Z" fill="#F4A400"/>
<path d="M383.581 408.429C373.881 405.129 361.281 403.129 347.581 403.129C333.681 403.129 320.981 405.129 311.281 408.429H291.781V425.329C291.981 437.429 316.881 447.229 347.481 447.329C378.181 447.329 403.281 437.529 403.281 425.329V408.429H383.581Z" fill="#F4A400"/>
<path d="M347.581 430.529C316.881 430.529 291.781 420.529 291.881 408.429C291.881 396.229 316.881 386.429 347.681 386.429C378.381 386.429 403.481 396.429 403.381 408.629C403.281 420.829 378.381 430.629 347.581 430.529Z" fill="#F9D222"/>
<path d="M324.88 416.729C323.58 415.629 323.58 414.729 324.78 414.029C326.08 413.329 327.88 412.929 330.28 412.929C331.88 412.929 333.58 413.129 335.48 413.629C337.48 414.629 339.78 415.529 342.48 416.229C345.18 416.929 347.98 417.129 350.98 416.929C352.38 416.829 353.58 416.629 354.68 416.329C355.78 416.029 356.58 415.629 357.08 415.229C357.58 414.829 357.88 414.429 357.88 413.929C357.88 413.429 357.58 413.029 356.88 412.629C356.08 412.129 355.18 411.729 354.18 411.429C353.18 411.129 352.18 410.929 351.08 410.729C349.98 410.629 348.98 410.429 347.98 410.429C346.98 410.329 346.08 410.229 345.28 410.129C343.88 410.029 342.48 409.829 341.08 409.629C339.68 409.429 338.38 409.229 337.08 409.029C335.78 408.729 334.48 408.429 333.28 408.029C332.08 407.629 330.88 407.129 329.78 406.529C328.78 405.929 327.98 405.329 327.38 404.729C326.78 404.129 326.58 403.529 326.58 402.929C326.58 402.129 326.98 401.329 327.68 400.529C328.38 399.729 329.38 398.929 330.68 398.329C331.98 397.629 333.38 397.029 335.18 396.529C336.88 396.029 338.78 395.729 340.68 395.529C344.58 395.129 348.68 395.129 352.88 395.429C357.08 395.729 360.88 396.229 364.28 397.029C365.58 397.429 366.58 397.829 367.18 398.229C367.88 398.629 368.18 399.029 368.18 399.429C368.18 399.829 367.88 400.229 367.28 400.629C366.68 400.929 365.88 401.229 364.88 401.529C363.88 401.829 362.78 401.829 361.58 401.829C360.28 401.829 358.98 401.629 357.58 401.429C356.48 401.229 354.88 401.029 352.88 400.829C350.88 400.629 348.88 400.529 346.98 400.629C344.98 400.729 343.38 400.929 342.08 401.329C340.78 401.729 340.28 402.529 340.58 403.529C341.18 403.929 341.78 404.229 342.58 404.529C343.38 404.829 344.28 405.029 345.18 405.229C346.18 405.429 347.18 405.529 348.28 405.729C349.38 405.829 350.48 406.029 351.48 406.129C354.38 406.429 356.98 406.829 359.48 407.229C361.88 407.629 363.98 408.229 365.78 408.829C367.58 409.429 368.88 410.229 369.88 411.129C370.88 412.029 371.38 413.129 371.38 414.329C371.38 415.329 370.78 416.329 369.68 417.229C368.58 418.129 367.08 419.029 365.28 419.729C363.48 420.429 361.38 421.029 359.08 421.529C356.78 421.929 354.38 422.229 352.08 422.229C346.88 422.229 341.78 421.729 336.88 420.829C331.98 419.929 327.98 418.629 324.98 417.029L324.88 416.729Z" fill="#F4A400"/>
<path d="M343.18 418.329V423.529C343.18 425.729 351.98 425.729 351.98 423.529V417.729C349.08 418.029 346.18 418.229 343.18 418.329Z" fill="#F4A400"/>
<path d="M343.479 398.129C346.279 398.029 349.179 398.029 352.079 398.229V393.229C352.079 391.029 343.279 391.029 343.279 393.229V398.229C343.279 398.129 343.379 398.129 343.479 398.129Z" fill="#F4A400"/>
<path d="M389.681 386.828C379.981 383.528 367.381 381.528 353.681 381.528C339.781 381.528 327.081 383.528 317.381 386.828H297.881V403.728C298.081 415.828 322.981 425.628 353.581 425.728C384.281 425.728 409.381 415.928 409.381 403.728V386.828H389.681Z" fill="#F4A400"/>
<path d="M353.681 409.029C322.981 409.029 297.881 399.029 297.981 386.929C298.081 374.829 322.981 364.929 353.781 364.929C384.581 364.929 409.581 374.929 409.481 387.129C409.381 399.329 384.481 409.029 353.681 409.029Z" fill="#F9D222"/>
<path d="M330.98 395.129C329.68 394.029 329.68 393.129 330.88 392.429C332.18 391.729 333.98 391.329 336.38 391.329C337.98 391.329 339.68 391.529 341.58 392.029C343.58 393.029 345.88 393.929 348.58 394.629C351.28 395.329 354.08 395.529 357.08 395.329C358.48 395.229 359.68 395.029 360.78 394.729C361.88 394.429 362.68 394.029 363.18 393.629C363.68 393.229 363.98 392.829 363.98 392.329C363.98 391.829 363.68 391.429 362.98 391.029C362.18 390.529 361.28 390.129 360.28 389.829C359.28 389.529 358.28 389.329 357.18 389.129C356.08 389.029 355.08 388.829 354.08 388.829C353.08 388.729 352.18 388.629 351.38 388.529C349.98 388.429 348.58 388.229 347.18 388.029C345.78 387.829 344.48 387.629 343.18 387.429C341.88 387.129 340.58 386.829 339.38 386.429C338.18 386.029 336.98 385.529 335.88 384.929C334.88 384.329 334.08 383.729 333.48 383.129C332.88 382.529 332.68 381.929 332.68 381.329C332.68 380.529 333.08 379.729 333.78 378.929C334.48 378.129 335.48 377.329 336.78 376.729C338.08 376.029 339.48 375.429 341.28 374.929C342.98 374.429 344.88 374.129 346.78 373.929C350.68 373.529 354.78 373.529 358.98 373.829C363.18 374.129 366.98 374.629 370.38 375.429C371.68 375.829 372.68 376.229 373.28 376.629C373.98 377.029 374.28 377.429 374.28 377.829C374.28 378.229 373.98 378.629 373.38 379.029C372.78 379.329 371.98 379.629 370.98 379.929C369.98 380.129 368.88 380.229 367.68 380.229C366.48 380.229 365.08 380.029 363.68 379.829C362.58 379.629 360.98 379.429 358.98 379.229C356.98 379.029 354.98 378.929 353.08 379.029C351.08 379.129 349.48 379.329 348.18 379.729C346.88 380.129 346.38 380.929 346.68 381.929C347.28 382.329 347.88 382.629 348.68 382.929C349.48 383.229 350.38 383.429 351.28 383.629C352.28 383.829 353.28 383.929 354.38 384.129C355.48 384.229 356.58 384.429 357.58 384.529C360.48 384.829 363.08 385.229 365.58 385.629C367.98 386.029 370.08 386.629 371.88 387.229C373.68 387.829 374.98 388.629 375.98 389.529C376.98 390.429 377.48 391.529 377.48 392.729C377.48 393.729 376.88 394.729 375.78 395.629C374.68 396.529 373.18 397.429 371.38 398.129C369.58 398.829 367.48 399.429 365.18 399.929C362.88 400.329 360.48 400.629 358.18 400.629C352.98 400.629 347.88 400.129 342.98 399.229C338.08 398.329 334.08 397.029 331.08 395.429L330.98 395.129Z" fill="#F4A400"/>
<path d="M349.279 396.829V402.029C349.279 404.229 358.079 404.229 358.079 402.029V396.229C355.179 396.429 352.279 396.629 349.279 396.829Z" fill="#F4A400"/>
<path d="M349.579 376.629C352.379 376.529 355.279 376.529 358.179 376.729V371.729C358.179 369.529 349.379 369.529 349.379 371.729V376.729C349.379 376.629 349.479 376.629 349.579 376.629Z" fill="#F4A400"/>
<path d="M396.181 365.329C386.481 362.029 373.881 360.029 360.181 360.029C346.281 360.029 333.581 362.029 323.881 365.329H304.381V382.229C304.581 394.329 329.481 404.129 360.081 404.229C390.781 404.229 415.881 394.429 415.881 382.229V365.329H396.181Z" fill="#F4A400"/>
<path d="M360.181 387.429C329.481 387.429 304.381 377.429 304.481 365.329C304.581 353.229 329.481 343.329 360.281 343.329C390.981 343.329 416.081 353.329 415.981 365.529C415.881 377.729 390.881 387.529 360.181 387.429Z" fill="#F9D222"/>
<path d="M337.48 373.629C336.18 372.529 336.18 371.629 337.38 370.929C338.68 370.229 340.48 369.829 342.88 369.829C344.48 369.829 346.18 370.029 348.08 370.529C350.08 371.529 352.38 372.429 355.08 373.129C357.78 373.829 360.58 374.029 363.58 373.829C364.98 373.729 366.18 373.529 367.28 373.229C368.38 372.929 369.18 372.529 369.68 372.129C370.18 371.729 370.48 371.329 370.48 370.829C370.48 370.329 370.18 369.929 369.48 369.529C368.68 369.029 367.78 368.629 366.78 368.329C365.78 368.029 364.78 367.829 363.68 367.629C362.58 367.529 361.58 367.329 360.58 367.329C359.58 367.229 358.68 367.129 357.88 367.029C356.48 366.929 355.08 366.729 353.68 366.529C352.28 366.329 350.98 366.129 349.68 365.929C348.38 365.629 347.08 365.329 345.88 364.929C344.68 364.529 343.48 364.029 342.38 363.429C341.38 362.829 340.58 362.229 339.98 361.629C339.38 361.029 339.18 360.429 339.18 359.829C339.18 359.029 339.58 358.229 340.28 357.429C340.98 356.629 341.98 355.829 343.28 355.229C344.58 354.529 345.98 353.929 347.78 353.429C349.48 352.929 351.38 352.629 353.28 352.429C357.18 352.029 361.28 352.029 365.48 352.329C369.68 352.629 373.48 353.129 376.88 353.929C378.18 354.329 379.18 354.729 379.78 355.129C380.48 355.529 380.78 355.929 380.78 356.329C380.78 356.729 380.48 357.129 379.88 357.529C379.28 357.829 378.48 358.129 377.48 358.429C376.48 358.629 375.38 358.729 374.18 358.729C372.98 358.729 371.58 358.529 370.18 358.329C369.08 358.129 367.48 357.929 365.48 357.729C363.48 357.529 361.48 357.429 359.58 357.529C357.58 357.629 355.98 357.829 354.68 358.229C353.38 358.629 352.88 359.429 353.18 360.429C353.78 360.829 354.38 361.129 355.18 361.429C355.98 361.729 356.88 361.929 357.78 362.129C358.78 362.329 359.78 362.429 360.88 362.629C361.98 362.729 363.08 362.929 364.08 363.029C366.98 363.329 369.58 363.729 372.08 364.129C374.48 364.529 376.58 365.129 378.38 365.729C380.18 366.329 381.48 367.129 382.48 368.029C383.48 368.929 383.98 370.029 383.98 371.229C383.98 372.229 383.38 373.229 382.28 374.129C381.18 375.029 379.68 375.929 377.88 376.629C376.08 377.329 373.98 377.929 371.68 378.429C369.38 378.829 366.98 379.129 364.68 379.129C359.48 379.129 354.38 378.629 349.48 377.729C344.58 376.829 340.58 375.529 337.58 373.929L337.48 373.629Z" fill="#F4A400"/>
<path d="M355.779 375.23V380.43C355.779 382.63 364.579 382.63 364.579 380.43V374.63C361.679 374.93 358.679 375.13 355.779 375.23Z" fill="#F4A400"/>
<path d="M355.979 355.029C358.779 354.929 361.679 354.929 364.579 355.129V350.129C364.579 347.929 355.779 347.929 355.779 350.129V355.129C355.879 355.029 355.979 355.029 355.979 355.029Z" fill="#F4A400"/>
<path d="M389.78 343.729C380.08 340.429 367.48 338.429 353.78 338.429C339.88 338.429 327.18 340.429 317.48 343.729H297.98V360.629C298.18 372.729 323.08 382.529 353.68 382.629C384.38 382.629 409.48 372.829 409.48 360.629V343.729H389.78Z" fill="#F4A400"/>
<path d="M353.681 365.929C322.981 365.929 297.881 355.929 297.981 343.829C298.081 331.729 322.981 321.829 353.781 321.829C384.481 321.829 409.581 331.829 409.481 344.029C409.481 356.129 384.481 365.929 353.681 365.929Z" fill="#F9D222"/>
<path d="M330.98 352.029C329.68 350.929 329.68 350.029 330.88 349.329C332.18 348.629 333.98 348.229 336.38 348.229C337.98 348.229 339.68 348.429 341.58 348.929C343.58 349.929 345.88 350.829 348.58 351.529C351.28 352.229 354.08 352.429 357.08 352.229C358.48 352.129 359.68 351.929 360.78 351.629C361.88 351.329 362.68 350.929 363.18 350.529C363.68 350.129 363.98 349.729 363.98 349.229C363.98 348.729 363.68 348.329 362.98 347.929C362.18 347.429 361.28 347.029 360.28 346.729C359.28 346.429 358.28 346.229 357.18 346.029C356.08 345.929 355.08 345.729 354.08 345.729C353.08 345.629 352.18 345.529 351.38 345.429C349.98 345.329 348.58 345.129 347.18 344.929C345.78 344.729 344.48 344.529 343.18 344.329C341.88 344.029 340.58 343.729 339.38 343.329C338.18 342.929 336.98 342.429 335.88 341.829C334.88 341.229 334.08 340.629 333.48 340.029C332.88 339.429 332.68 338.829 332.68 338.229C332.68 337.429 333.08 336.629 333.78 335.829C334.48 335.029 335.48 334.229 336.78 333.629C338.08 332.929 339.48 332.329 341.28 331.829C342.98 331.329 344.88 331.029 346.78 330.829C350.68 330.429 354.78 330.429 358.98 330.729C363.18 331.029 366.98 331.529 370.38 332.329C371.68 332.729 372.68 333.129 373.28 333.529C373.98 333.929 374.28 334.329 374.28 334.729C374.28 335.129 373.98 335.529 373.38 335.929C372.78 336.229 371.98 336.529 370.98 336.829C369.98 337.129 368.88 337.129 367.68 337.129C366.48 337.129 365.08 336.929 363.68 336.729C362.58 336.529 360.98 336.329 358.98 336.129C356.98 335.929 354.98 335.829 353.08 335.929C351.08 336.029 349.48 336.229 348.18 336.629C346.88 337.029 346.38 337.829 346.68 338.829C347.28 339.229 347.88 339.529 348.68 339.829C349.48 340.129 350.38 340.329 351.28 340.529C352.28 340.729 353.28 340.829 354.38 341.029C355.48 341.129 356.58 341.329 357.58 341.429C360.48 341.729 363.08 342.129 365.58 342.529C367.98 342.929 370.08 343.529 371.88 344.129C373.68 344.729 374.98 345.529 375.98 346.429C376.98 347.329 377.48 348.429 377.48 349.629C377.48 350.629 376.88 351.629 375.78 352.529C374.68 353.429 373.18 354.329 371.38 355.029C369.58 355.729 367.48 356.329 365.18 356.829C362.88 357.229 360.48 357.529 358.18 357.529C352.98 357.529 347.88 357.029 342.98 356.129C338.08 355.229 334.08 353.929 331.08 352.329L330.98 352.029Z" fill="#F4A400"/>
<path d="M349.381 353.73V358.93C349.381 361.13 358.181 361.13 358.181 358.93V353.13C355.181 353.33 352.281 353.63 349.381 353.73Z" fill="#F4A400"/>
<path d="M349.581 333.529C352.381 333.429 355.281 333.429 358.181 333.629V328.629C358.181 326.429 349.381 326.429 349.381 328.629V333.629C349.381 333.529 349.481 333.529 349.581 333.529Z" fill="#F4A400"/>
</g>
<defs>
<clipPath id="clip0">
<rect width="600" height="600" fill="white"/>
</clipPath>
</defs>
</svg>
