<svg width="129" height="46" viewBox="0 0 129 46" fill="none" xmlns="http://www.w3.org/2000/svg">
<path fill-rule="evenodd" clip-rule="evenodd" d="M58.5805 20.3877C58.5805 17.3494 61.0911 14.879 64.1499 14.879C67.2377 14.879 69.7194 17.3494 69.7194 20.3877C69.7194 23.4259 67.2088 25.8963 64.1499 25.8963C61.0911 25.8963 58.5805 23.4259 58.5805 20.3877ZM51.9433 20.3877C51.9433 27.0321 57.4262 32.4272 64.1499 32.4272C70.8737 32.4272 76.3566 27.0321 76.3566 20.3877C76.3566 13.7432 70.8737 8.34815 64.1499 8.34815C57.4262 8.34815 51.9433 13.7432 51.9433 20.3877ZM108.417 20.3877C108.417 17.3494 110.928 14.879 113.987 14.879C117.074 14.879 119.556 17.3494 119.556 20.3877C119.556 23.4259 117.046 25.8963 113.987 25.8963C110.928 25.8963 108.417 23.4259 108.417 20.3877ZM101.809 19.1667C101.463 22.6025 102.588 25.8963 104.925 28.4519C107.234 30.9506 110.524 32.3988 113.958 32.3988C116.555 32.3988 119.037 31.6037 121.143 30.0704C122.5 31.5753 124.491 32.3988 126.742 32.3988H126.857C126.886 32.3988 126.944 32.3988 126.972 32.3988C127.001 32.3988 127.059 32.3988 127.088 32.3988H127.954C128.386 32.3988 128.704 32.058 128.704 31.6605V27.2309C128.704 26.8049 128.358 26.4926 127.954 26.4926H127.29C126.511 26.4074 125.818 26.1235 125.847 23.4827V11.4716C125.847 11.0457 125.501 10.7333 125.097 10.7333H121.114C119.123 9.2 116.699 8.34815 114.131 8.31975C114.073 8.31975 114.015 8.31975 113.958 8.31975C107.725 8.29136 102.415 13.0333 101.809 19.1667ZM31.0794 8.20617H29.2037C28.7997 8.20617 28.4822 8.51852 28.4822 8.91605V13.4309C28.4822 13.8284 28.7997 14.1407 29.2037 14.1407H30.4734C30.56 14.1407 30.762 14.1691 30.9351 14.5667L37.5146 27.4864C37.7743 27.9975 37.7454 28.6222 37.4569 29.1049L37.3992 29.1901C37.0817 29.7296 36.822 30.1556 36.4757 30.5247C33.5323 32.9383 30.0694 31.5185 26.8662 30.4111C26.6065 30.2975 26.3468 30.184 26.0871 30.042C24.8173 29.4173 23.2879 29.5309 22.1625 30.3827L18.7573 32.9383C22.7685 36.0901 27.6454 37.9926 32.6954 38.3901C32.7243 38.3901 32.7243 38.3901 32.7531 38.3901L33.2725 38.3617C36.3603 38.163 38.7843 37.1975 40.6889 35.3802C42.3049 33.8469 43.6035 31.6889 44.9021 28.3951L52.809 9.17161C52.8956 8.94444 52.8667 8.71728 52.7513 8.51852C52.607 8.31975 52.405 8.20617 52.1453 8.20617H46.6335C46.3449 8.20617 46.0852 8.37654 45.9698 8.66049L41.2083 20.7284L37.1972 12.1815C36.1583 9.68272 34.8308 8.20617 31.2237 8.20617C31.166 8.20617 31.1082 8.20617 31.0794 8.20617ZM4.99232 0.511111C3.43403 0.567901 2.10659 1.56173 1.64487 3.03827C0.54829 6.36049 0 9.82469 0 13.3741V13.4593C0 14.6802 0.0577147 15.9296 0.202002 17.1506C0.634862 21.1259 1.81801 25.0728 3.75146 28.8494C5.6849 32.6259 8.25321 35.8914 11.2255 38.5889C14.8327 41.8543 19.0747 44.2963 23.6053 45.8012C23.9805 45.9148 24.3556 45.9716 24.7308 46H24.8173C25.9139 46 26.9528 45.4889 27.6742 44.637L30.6754 40.9457C25.4811 40.2074 20.5464 38.0494 16.5064 34.6988C13.7073 32.3704 11.3121 29.4457 9.52293 26.0099C7.76263 22.5741 6.78148 18.9395 6.55062 15.3333C6.20433 10.1086 7.35863 4.91235 9.81151 0.340741L4.99232 0.511111ZM13.0724 0.17037C10.3887 4.42963 9.06121 9.42716 9.26322 14.4815L13.361 13.2605C14.7173 12.863 15.7273 11.7272 15.9581 10.3358C16.189 8.88766 16.6218 7.4679 17.199 6.10494C18.411 3.26543 16.3333 0.141975 13.2455 0.141975C13.1878 0.17037 13.1301 0.17037 13.0724 0.17037ZM77.5109 0C77.078 0 76.7606 0.340741 76.7606 0.738272V5.13951C76.7606 5.56543 77.1069 5.87778 77.5109 5.87778H78.7806C78.896 5.87778 78.9826 5.96296 78.9826 6.07654V23.7099C78.9826 28.7926 82.3589 32.342 87.1781 32.342H88.0438C88.4767 32.342 88.7941 32.0012 88.7941 31.6037V26.6062C88.7941 26.1802 88.4478 25.8679 88.0438 25.8679H87.7264C85.8507 25.8679 85.6198 24.7321 85.6198 23.7099V5.13951C85.6198 2.3 83.2824 0 80.3966 0H77.5109ZM89.631 0C89.1981 0 88.8807 0.340741 88.8807 0.738272V5.13951C88.8807 5.56543 89.227 5.87778 89.631 5.87778H90.9007C91.0161 5.87778 91.1027 5.96296 91.1027 6.07654V23.7099C91.1027 28.7926 94.479 32.342 99.2982 32.342H100.164C100.597 32.342 100.914 32.0012 100.914 31.6037V26.6062C100.914 26.1802 100.568 25.8679 100.164 25.8679H99.8465C97.9708 25.8679 97.7399 24.7321 97.7399 23.7099V5.13951C97.7399 2.3 95.4025 0 92.5167 0H89.631Z" fill="#4BCFD0"/>
</svg>
