<svg width="16" height="20" viewBox="0 0 16 20" fill="none" xmlns="http://www.w3.org/2000/svg">
<path d="M0 7.61792C0 3.40605 3.44006 -0.00747433 7.68062 1.22914e-05C11.9149 0.00749892 15.3627 3.46493 15.3331 7.6722C15.3204 9.47493 14.6773 11.1286 13.6123 12.427H13.6128L7.66668 20L1.74893 12.4667H1.7534C0.65809 11.1495 0 9.46006 0 7.61792Z" fill="white"/>
<path d="M11.3341 5.00848C10.3216 4.00238 8.6799 4.00238 7.66736 5.00848C6.65482 4.00238 5.01315 4.00238 4.00061 5.00848C2.98808 6.01457 2.98808 7.6458 4.00061 8.6519L7.66736 12.2954L11.3341 8.65195C12.3466 7.6458 12.3466 6.01463 11.3341 5.00848Z" fill="#4BCFD0"/>
</svg>
