<svg width="78" height="79" viewBox="0 0 78 79" fill="none" xmlns="http://www.w3.org/2000/svg">
<path d="M0.517578 1H2.85091V3.33333H0.517578V1ZM2.85091 1H5.18424V3.33333H2.85091V1ZM5.18424 1H7.51758V3.33333H5.18424V1ZM7.51758 1H9.85091V3.33333H7.51758V1ZM9.85091 1H12.1842V3.33333H9.85091V1ZM12.1842 1H14.5176V3.33333H12.1842V1ZM14.5176 1H16.8509V3.33333H14.5176V1ZM26.1842 1H28.5176V3.33333H26.1842V1ZM30.8509 1H33.1842V3.33333H30.8509V1ZM33.1842 1H35.5176V3.33333H33.1842V1ZM35.5176 1H37.8509V3.33333H35.5176V1ZM37.8509 1H40.1842V3.33333H37.8509V1ZM40.1842 1H42.5176V3.33333H40.1842V1ZM42.5176 1H44.8509V3.33333H42.5176V1ZM51.8509 1H54.1842V3.33333H51.8509V1ZM61.1842 1H63.5176V3.33333H61.1842V1ZM63.5176 1H65.8509V3.33333H63.5176V1ZM65.8509 1H68.1842V3.33333H65.8509V1ZM68.1842 1H70.5176V3.33333H68.1842V1ZM70.5176 1H72.8509V3.33333H70.5176V1ZM72.8509 1H75.1842V3.33333H72.8509V1ZM75.1842 1H77.5176V3.33333H75.1842V1ZM0.517578 3.33333H2.85091V5.66667H0.517578V3.33333ZM14.5176 3.33333H16.8509V5.66667H14.5176V3.33333ZM21.5176 3.33333H23.8509V5.66667H21.5176V3.33333ZM23.8509 3.33333H26.1842V5.66667H23.8509V3.33333ZM28.5176 3.33333H30.8509V5.66667H28.5176V3.33333ZM33.1842 3.33333H35.5176V5.66667H33.1842V3.33333ZM37.8509 3.33333H40.1842V5.66667H37.8509V3.33333ZM47.1842 3.33333H49.5176V5.66667H47.1842V3.33333ZM61.1842 3.33333H63.5176V5.66667H61.1842V3.33333ZM75.1842 3.33333H77.5176V5.66667H75.1842V3.33333ZM0.517578 5.66667H2.85091V8H0.517578V5.66667ZM5.18424 5.66667H7.51758V8H5.18424V5.66667ZM7.51758 5.66667H9.85091V8H7.51758V5.66667ZM9.85091 5.66667H12.1842V8H9.85091V5.66667ZM14.5176 5.66667H16.8509V8H14.5176V5.66667ZM28.5176 5.66667H30.8509V8H28.5176V5.66667ZM33.1842 5.66667H35.5176V8H33.1842V5.66667ZM37.8509 5.66667H40.1842V8H37.8509V5.66667ZM40.1842 5.66667H42.5176V8H40.1842V5.66667ZM49.5176 5.66667H51.8509V8H49.5176V5.66667ZM51.8509 5.66667H54.1842V8H51.8509V5.66667ZM61.1842 5.66667H63.5176V8H61.1842V5.66667ZM65.8509 5.66667H68.1842V8H65.8509V5.66667ZM68.1842 5.66667H70.5176V8H68.1842V5.66667ZM70.5176 5.66667H72.8509V8H70.5176V5.66667ZM75.1842 5.66667H77.5176V8H75.1842V5.66667ZM0.517578 8H2.85091V10.3333H0.517578V8ZM5.18424 8H7.51758V10.3333H5.18424V8ZM7.51758 8H9.85091V10.3333H7.51758V8ZM9.85091 8H12.1842V10.3333H9.85091V8ZM14.5176 8H16.8509V10.3333H14.5176V8ZM19.1842 8H21.5176V10.3333H19.1842V8ZM26.1842 8H28.5176V10.3333H26.1842V8ZM35.5176 8H37.8509V10.3333H35.5176V8ZM37.8509 8H40.1842V10.3333H37.8509V8ZM44.8509 8H47.1842V10.3333H44.8509V8ZM49.5176 8H51.8509V10.3333H49.5176V8ZM54.1842 8H56.5176V10.3333H54.1842V8ZM56.5176 8H58.8509V10.3333H56.5176V8ZM61.1842 8H63.5176V10.3333H61.1842V8ZM65.8509 8H68.1842V10.3333H65.8509V8ZM68.1842 8H70.5176V10.3333H68.1842V8ZM70.5176 8H72.8509V10.3333H70.5176V8ZM75.1842 8H77.5176V10.3333H75.1842V8ZM0.517578 10.3333H2.85091V12.6667H0.517578V10.3333ZM5.18424 10.3333H7.51758V12.6667H5.18424V10.3333ZM7.51758 10.3333H9.85091V12.6667H7.51758V10.3333ZM9.85091 10.3333H12.1842V12.6667H9.85091V10.3333ZM14.5176 10.3333H16.8509V12.6667H14.5176V10.3333ZM21.5176 10.3333H23.8509V12.6667H21.5176V10.3333ZM26.1842 10.3333H28.5176V12.6667H26.1842V10.3333ZM28.5176 10.3333H30.8509V12.6667H28.5176V10.3333ZM30.8509 10.3333H33.1842V12.6667H30.8509V10.3333ZM33.1842 10.3333H35.5176V12.6667H33.1842V10.3333ZM37.8509 10.3333H40.1842V12.6667H37.8509V10.3333ZM44.8509 10.3333H47.1842V12.6667H44.8509V10.3333ZM49.5176 10.3333H51.8509V12.6667H49.5176V10.3333ZM56.5176 10.3333H58.8509V12.6667H56.5176V10.3333ZM61.1842 10.3333H63.5176V12.6667H61.1842V10.3333ZM65.8509 10.3333H68.1842V12.6667H65.8509V10.3333ZM68.1842 10.3333H70.5176V12.6667H68.1842V10.3333ZM70.5176 10.3333H72.8509V12.6667H70.5176V10.3333ZM75.1842 10.3333H77.5176V12.6667H75.1842V10.3333ZM0.517578 12.6667H2.85091V15H0.517578V12.6667ZM14.5176 12.6667H16.8509V15H14.5176V12.6667ZM19.1842 12.6667H21.5176V15H19.1842V12.6667ZM21.5176 12.6667H23.8509V15H21.5176V12.6667ZM28.5176 12.6667H30.8509V15H28.5176V12.6667ZM37.8509 12.6667H40.1842V15H37.8509V12.6667ZM42.5176 12.6667H44.8509V15H42.5176V12.6667ZM44.8509 12.6667H47.1842V15H44.8509V12.6667ZM61.1842 12.6667H63.5176V15H61.1842V12.6667ZM75.1842 12.6667H77.5176V15H75.1842V12.6667ZM0.517578 15H2.85091V17.3333H0.517578V15ZM2.85091 15H5.18424V17.3333H2.85091V15ZM5.18424 15H7.51758V17.3333H5.18424V15ZM7.51758 15H9.85091V17.3333H7.51758V15ZM9.85091 15H12.1842V17.3333H9.85091V15ZM12.1842 15H14.5176V17.3333H12.1842V15ZM14.5176 15H16.8509V17.3333H14.5176V15ZM19.1842 15H21.5176V17.3333H19.1842V15ZM23.8509 15H26.1842V17.3333H23.8509V15ZM28.5176 15H30.8509V17.3333H28.5176V15ZM33.1842 15H35.5176V17.3333H33.1842V15ZM37.8509 15H40.1842V17.3333H37.8509V15ZM42.5176 15H44.8509V17.3333H42.5176V15ZM47.1842 15H49.5176V17.3333H47.1842V15ZM51.8509 15H54.1842V17.3333H51.8509V15ZM56.5176 15H58.8509V17.3333H56.5176V15ZM61.1842 15H63.5176V17.3333H61.1842V15ZM63.5176 15H65.8509V17.3333H63.5176V15ZM65.8509 15H68.1842V17.3333H65.8509V15ZM68.1842 15H70.5176V17.3333H68.1842V15ZM70.5176 15H72.8509V17.3333H70.5176V15ZM72.8509 15H75.1842V17.3333H72.8509V15ZM75.1842 15H77.5176V17.3333H75.1842V15ZM19.1842 17.3333H21.5176V19.6667H19.1842V17.3333ZM21.5176 17.3333H23.8509V19.6667H21.5176V17.3333ZM23.8509 17.3333H26.1842V19.6667H23.8509V17.3333ZM28.5176 17.3333H30.8509V19.6667H28.5176V17.3333ZM35.5176 17.3333H37.8509V19.6667H35.5176V17.3333ZM42.5176 17.3333H44.8509V19.6667H42.5176V17.3333ZM44.8509 17.3333H47.1842V19.6667H44.8509V17.3333ZM47.1842 17.3333H49.5176V19.6667H47.1842V17.3333ZM51.8509 17.3333H54.1842V19.6667H51.8509V17.3333ZM54.1842 17.3333H56.5176V19.6667H54.1842V17.3333ZM2.85091 19.6667H5.18424V22H2.85091V19.6667ZM5.18424 19.6667H7.51758V22H5.18424V19.6667ZM14.5176 19.6667H16.8509V22H14.5176V19.6667ZM21.5176 19.6667H23.8509V22H21.5176V19.6667ZM23.8509 19.6667H26.1842V22H23.8509V19.6667ZM26.1842 19.6667H28.5176V22H26.1842V19.6667ZM28.5176 19.6667H30.8509V22H28.5176V19.6667ZM35.5176 19.6667H37.8509V22H35.5176V19.6667ZM42.5176 19.6667H44.8509V22H42.5176V19.6667ZM47.1842 19.6667H49.5176V22H47.1842V19.6667ZM54.1842 19.6667H56.5176V22H54.1842V19.6667ZM56.5176 19.6667H58.8509V22H56.5176V19.6667ZM61.1842 19.6667H63.5176V22H61.1842V19.6667ZM63.5176 19.6667H65.8509V22H63.5176V19.6667ZM68.1842 19.6667H70.5176V22H68.1842V19.6667ZM0.517578 22H2.85091V24.3333H0.517578V22ZM5.18424 22H7.51758V24.3333H5.18424V22ZM12.1842 22H14.5176V24.3333H12.1842V22ZM16.8509 22H19.1842V24.3333H16.8509V22ZM26.1842 22H28.5176V24.3333H26.1842V22ZM30.8509 22H33.1842V24.3333H30.8509V22ZM33.1842 22H35.5176V24.3333H33.1842V22ZM35.5176 22H37.8509V24.3333H35.5176V22ZM40.1842 22H42.5176V24.3333H40.1842V22ZM44.8509 22H47.1842V24.3333H44.8509V22ZM47.1842 22H49.5176V24.3333H47.1842V22ZM51.8509 22H54.1842V24.3333H51.8509V22ZM54.1842 22H56.5176V24.3333H54.1842V22ZM61.1842 22H63.5176V24.3333H61.1842V22ZM68.1842 22H70.5176V24.3333H68.1842V22ZM72.8509 22H75.1842V24.3333H72.8509V22ZM75.1842 22H77.5176V24.3333H75.1842V22ZM2.85091 24.3333H5.18424V26.6667H2.85091V24.3333ZM5.18424 24.3333H7.51758V26.6667H5.18424V24.3333ZM7.51758 24.3333H9.85091V26.6667H7.51758V24.3333ZM9.85091 24.3333H12.1842V26.6667H9.85091V24.3333ZM12.1842 24.3333H14.5176V26.6667H12.1842V24.3333ZM14.5176 24.3333H16.8509V26.6667H14.5176V24.3333ZM19.1842 24.3333H21.5176V26.6667H19.1842V24.3333ZM23.8509 24.3333H26.1842V26.6667H23.8509V24.3333ZM28.5176 24.3333H30.8509V26.6667H28.5176V24.3333ZM33.1842 24.3333H35.5176V26.6667H33.1842V24.3333ZM35.5176 24.3333H37.8509V26.6667H35.5176V24.3333ZM44.8509 24.3333H47.1842V26.6667H44.8509V24.3333ZM54.1842 24.3333H56.5176V26.6667H54.1842V24.3333ZM58.8509 24.3333H61.1842V26.6667H58.8509V24.3333ZM68.1842 24.3333H70.5176V26.6667H68.1842V24.3333ZM70.5176 24.3333H72.8509V26.6667H70.5176V24.3333ZM75.1842 24.3333H77.5176V26.6667H75.1842V24.3333ZM0.517578 26.6667H2.85091V29H0.517578V26.6667ZM2.85091 26.6667H5.18424V29H2.85091V26.6667ZM7.51758 26.6667H9.85091V29H7.51758V26.6667ZM9.85091 26.6667H12.1842V29H9.85091V26.6667ZM12.1842 26.6667H14.5176V29H12.1842V26.6667ZM16.8509 26.6667H19.1842V29H16.8509V26.6667ZM19.1842 26.6667H21.5176V29H19.1842V26.6667ZM26.1842 26.6667H28.5176V29H26.1842V26.6667ZM28.5176 26.6667H30.8509V29H28.5176V26.6667ZM33.1842 26.6667H35.5176V29H33.1842V26.6667ZM37.8509 26.6667H40.1842V29H37.8509V26.6667ZM40.1842 26.6667H42.5176V29H40.1842V26.6667ZM44.8509 26.6667H47.1842V29H44.8509V26.6667ZM54.1842 26.6667H56.5176V29H54.1842V26.6667ZM63.5176 26.6667H65.8509V29H63.5176V26.6667ZM65.8509 26.6667H68.1842V29H65.8509V26.6667ZM68.1842 26.6667H70.5176V29H68.1842V26.6667ZM5.18424 29H7.51758V31.3333H5.18424V29ZM7.51758 29H9.85091V31.3333H7.51758V29ZM14.5176 29H16.8509V31.3333H14.5176V29ZM16.8509 29H19.1842V31.3333H16.8509V29ZM21.5176 29H23.8509V31.3333H21.5176V29ZM23.8509 29H26.1842V31.3333H23.8509V29ZM26.1842 29H28.5176V31.3333H26.1842V29ZM28.5176 29H30.8509V31.3333H28.5176V29ZM35.5176 29H37.8509V31.3333H35.5176V29ZM37.8509 29H40.1842V31.3333H37.8509V29ZM40.1842 29H42.5176V31.3333H40.1842V29ZM44.8509 29H47.1842V31.3333H44.8509V29ZM47.1842 29H49.5176V31.3333H47.1842V29ZM51.8509 29H54.1842V31.3333H51.8509V29ZM54.1842 29H56.5176V31.3333H54.1842V29ZM58.8509 29H61.1842V31.3333H58.8509V29ZM61.1842 29H63.5176V31.3333H61.1842V29ZM72.8509 29H75.1842V31.3333H72.8509V29ZM75.1842 29H77.5176V31.3333H75.1842V29ZM0.517578 31.3333H2.85091V33.6667H0.517578V31.3333ZM2.85091 31.3333H5.18424V33.6667H2.85091V31.3333ZM9.85091 31.3333H12.1842V33.6667H9.85091V31.3333ZM12.1842 31.3333H14.5176V33.6667H12.1842V31.3333ZM16.8509 31.3333H19.1842V33.6667H16.8509V31.3333ZM21.5176 31.3333H23.8509V33.6667H21.5176V31.3333ZM28.5176 31.3333H30.8509V33.6667H28.5176V31.3333ZM30.8509 31.3333H33.1842V33.6667H30.8509V31.3333ZM35.5176 31.3333H37.8509V33.6667H35.5176V31.3333ZM40.1842 31.3333H42.5176V33.6667H40.1842V31.3333ZM51.8509 31.3333H54.1842V33.6667H51.8509V31.3333ZM54.1842 31.3333H56.5176V33.6667H54.1842V31.3333ZM58.8509 31.3333H61.1842V33.6667H58.8509V31.3333ZM61.1842 31.3333H63.5176V33.6667H61.1842V31.3333ZM72.8509 31.3333H75.1842V33.6667H72.8509V31.3333ZM75.1842 31.3333H77.5176V33.6667H75.1842V31.3333ZM0.517578 33.6667H2.85091V36H0.517578V33.6667ZM5.18424 33.6667H7.51758V36H5.18424V33.6667ZM7.51758 33.6667H9.85091V36H7.51758V33.6667ZM14.5176 33.6667H16.8509V36H14.5176V33.6667ZM19.1842 33.6667H21.5176V36H19.1842V33.6667ZM23.8509 33.6667H26.1842V36H23.8509V33.6667ZM30.8509 33.6667H33.1842V36H30.8509V33.6667ZM33.1842 33.6667H35.5176V36H33.1842V33.6667ZM35.5176 33.6667H37.8509V36H35.5176V33.6667ZM44.8509 33.6667H47.1842V36H44.8509V33.6667ZM47.1842 33.6667H49.5176V36H47.1842V33.6667ZM49.5176 33.6667H51.8509V36H49.5176V33.6667ZM51.8509 33.6667H54.1842V36H51.8509V33.6667ZM54.1842 33.6667H56.5176V36H54.1842V33.6667ZM56.5176 33.6667H58.8509V36H56.5176V33.6667ZM65.8509 33.6667H68.1842V36H65.8509V33.6667ZM68.1842 33.6667H70.5176V36H68.1842V33.6667ZM70.5176 33.6667H72.8509V36H70.5176V33.6667ZM75.1842 33.6667H77.5176V36H75.1842V33.6667ZM0.517578 36H2.85091V38.3333H0.517578V36ZM2.85091 36H5.18424V38.3333H2.85091V36ZM7.51758 36H9.85091V38.3333H7.51758V36ZM9.85091 36H12.1842V38.3333H9.85091V36ZM12.1842 36H14.5176V38.3333H12.1842V36ZM16.8509 36H19.1842V38.3333H16.8509V36ZM28.5176 36H30.8509V38.3333H28.5176V36ZM30.8509 36H33.1842V38.3333H30.8509V36ZM33.1842 36H35.5176V38.3333H33.1842V36ZM37.8509 36H40.1842V38.3333H37.8509V36ZM42.5176 36H44.8509V38.3333H42.5176V36ZM54.1842 36H56.5176V38.3333H54.1842V36ZM58.8509 36H61.1842V38.3333H58.8509V36ZM61.1842 36H63.5176V38.3333H61.1842V36ZM65.8509 36H68.1842V38.3333H65.8509V36ZM2.85091 38.3333H5.18424V40.6667H2.85091V38.3333ZM7.51758 38.3333H9.85091V40.6667H7.51758V38.3333ZM12.1842 38.3333H14.5176V40.6667H12.1842V38.3333ZM14.5176 38.3333H16.8509V40.6667H14.5176V38.3333ZM21.5176 38.3333H23.8509V40.6667H21.5176V38.3333ZM23.8509 38.3333H26.1842V40.6667H23.8509V38.3333ZM26.1842 38.3333H28.5176V40.6667H26.1842V38.3333ZM33.1842 38.3333H35.5176V40.6667H33.1842V38.3333ZM35.5176 38.3333H37.8509V40.6667H35.5176V38.3333ZM47.1842 38.3333H49.5176V40.6667H47.1842V38.3333ZM54.1842 38.3333H56.5176V40.6667H54.1842V38.3333ZM61.1842 38.3333H63.5176V40.6667H61.1842V38.3333ZM63.5176 38.3333H65.8509V40.6667H63.5176V38.3333ZM68.1842 38.3333H70.5176V40.6667H68.1842V38.3333ZM72.8509 38.3333H75.1842V40.6667H72.8509V38.3333ZM0.517578 40.6667H2.85091V43H0.517578V40.6667ZM7.51758 40.6667H9.85091V43H7.51758V40.6667ZM9.85091 40.6667H12.1842V43H9.85091V40.6667ZM19.1842 40.6667H21.5176V43H19.1842V40.6667ZM23.8509 40.6667H26.1842V43H23.8509V40.6667ZM28.5176 40.6667H30.8509V43H28.5176V40.6667ZM30.8509 40.6667H33.1842V43H30.8509V40.6667ZM33.1842 40.6667H35.5176V43H33.1842V40.6667ZM35.5176 40.6667H37.8509V43H35.5176V40.6667ZM44.8509 40.6667H47.1842V43H44.8509V40.6667ZM47.1842 40.6667H49.5176V43H47.1842V40.6667ZM49.5176 40.6667H51.8509V43H49.5176V40.6667ZM51.8509 40.6667H54.1842V43H51.8509V40.6667ZM54.1842 40.6667H56.5176V43H54.1842V40.6667ZM56.5176 40.6667H58.8509V43H56.5176V40.6667ZM61.1842 40.6667H63.5176V43H61.1842V40.6667ZM68.1842 40.6667H70.5176V43H68.1842V40.6667ZM72.8509 40.6667H75.1842V43H72.8509V40.6667ZM75.1842 40.6667H77.5176V43H75.1842V40.6667ZM0.517578 43H2.85091V45.3333H0.517578V43ZM5.18424 43H7.51758V45.3333H5.18424V43ZM14.5176 43H16.8509V45.3333H14.5176V43ZM21.5176 43H23.8509V45.3333H21.5176V43ZM28.5176 43H30.8509V45.3333H28.5176V43ZM35.5176 43H37.8509V45.3333H35.5176V43ZM37.8509 43H40.1842V45.3333H37.8509V43ZM40.1842 43H42.5176V45.3333H40.1842V43ZM42.5176 43H44.8509V45.3333H42.5176V43ZM44.8509 43H47.1842V45.3333H44.8509V43ZM47.1842 43H49.5176V45.3333H47.1842V43ZM54.1842 43H56.5176V45.3333H54.1842V43ZM56.5176 43H58.8509V45.3333H56.5176V43ZM61.1842 43H63.5176V45.3333H61.1842V43ZM63.5176 43H65.8509V45.3333H63.5176V43ZM68.1842 43H70.5176V45.3333H68.1842V43ZM70.5176 43H72.8509V45.3333H70.5176V43ZM75.1842 43H77.5176V45.3333H75.1842V43ZM0.517578 45.3333H2.85091V47.6667H0.517578V45.3333ZM2.85091 45.3333H5.18424V47.6667H2.85091V45.3333ZM5.18424 45.3333H7.51758V47.6667H5.18424V45.3333ZM7.51758 45.3333H9.85091V47.6667H7.51758V45.3333ZM12.1842 45.3333H14.5176V47.6667H12.1842V45.3333ZM19.1842 45.3333H21.5176V47.6667H19.1842V45.3333ZM28.5176 45.3333H30.8509V47.6667H28.5176V45.3333ZM42.5176 45.3333H44.8509V47.6667H42.5176V45.3333ZM44.8509 45.3333H47.1842V47.6667H44.8509V45.3333ZM47.1842 45.3333H49.5176V47.6667H47.1842V45.3333ZM51.8509 45.3333H54.1842V47.6667H51.8509V45.3333ZM58.8509 45.3333H61.1842V47.6667H58.8509V45.3333ZM65.8509 45.3333H68.1842V47.6667H65.8509V45.3333ZM68.1842 45.3333H70.5176V47.6667H68.1842V45.3333ZM72.8509 45.3333H75.1842V47.6667H72.8509V45.3333ZM0.517578 47.6667H2.85091V50H0.517578V47.6667ZM2.85091 47.6667H5.18424V50H2.85091V47.6667ZM7.51758 47.6667H9.85091V50H7.51758V47.6667ZM9.85091 47.6667H12.1842V50H9.85091V47.6667ZM12.1842 47.6667H14.5176V50H12.1842V47.6667ZM14.5176 47.6667H16.8509V50H14.5176V47.6667ZM16.8509 47.6667H19.1842V50H16.8509V47.6667ZM23.8509 47.6667H26.1842V50H23.8509V47.6667ZM30.8509 47.6667H33.1842V50H30.8509V47.6667ZM35.5176 47.6667H37.8509V50H35.5176V47.6667ZM54.1842 47.6667H56.5176V50H54.1842V47.6667ZM58.8509 47.6667H61.1842V50H58.8509V47.6667ZM61.1842 47.6667H63.5176V50H61.1842V47.6667ZM72.8509 47.6667H75.1842V50H72.8509V47.6667ZM75.1842 47.6667H77.5176V50H75.1842V47.6667ZM2.85091 50H5.18424V52.3333H2.85091V50ZM7.51758 50H9.85091V52.3333H7.51758V50ZM12.1842 50H14.5176V52.3333H12.1842V50ZM19.1842 50H21.5176V52.3333H19.1842V50ZM21.5176 50H23.8509V52.3333H21.5176V50ZM23.8509 50H26.1842V52.3333H23.8509V50ZM26.1842 50H28.5176V52.3333H26.1842V50ZM28.5176 50H30.8509V52.3333H28.5176V50ZM30.8509 50H33.1842V52.3333H30.8509V50ZM33.1842 50H35.5176V52.3333H33.1842V50ZM42.5176 50H44.8509V52.3333H42.5176V50ZM44.8509 50H47.1842V52.3333H44.8509V50ZM54.1842 50H56.5176V52.3333H54.1842V50ZM58.8509 50H61.1842V52.3333H58.8509V50ZM61.1842 50H63.5176V52.3333H61.1842V50ZM68.1842 50H70.5176V52.3333H68.1842V50ZM70.5176 50H72.8509V52.3333H70.5176V50ZM75.1842 50H77.5176V52.3333H75.1842V50ZM0.517578 52.3333H2.85091V54.6667H0.517578V52.3333ZM2.85091 52.3333H5.18424V54.6667H2.85091V52.3333ZM7.51758 52.3333H9.85091V54.6667H7.51758V52.3333ZM9.85091 52.3333H12.1842V54.6667H9.85091V52.3333ZM12.1842 52.3333H14.5176V54.6667H12.1842V52.3333ZM14.5176 52.3333H16.8509V54.6667H14.5176V52.3333ZM19.1842 52.3333H21.5176V54.6667H19.1842V52.3333ZM21.5176 52.3333H23.8509V54.6667H21.5176V52.3333ZM23.8509 52.3333H26.1842V54.6667H23.8509V52.3333ZM26.1842 52.3333H28.5176V54.6667H26.1842V52.3333ZM28.5176 52.3333H30.8509V54.6667H28.5176V52.3333ZM30.8509 52.3333H33.1842V54.6667H30.8509V52.3333ZM33.1842 52.3333H35.5176V54.6667H33.1842V52.3333ZM42.5176 52.3333H44.8509V54.6667H42.5176V52.3333ZM44.8509 52.3333H47.1842V54.6667H44.8509V52.3333ZM49.5176 52.3333H51.8509V54.6667H49.5176V52.3333ZM51.8509 52.3333H54.1842V54.6667H51.8509V52.3333ZM54.1842 52.3333H56.5176V54.6667H54.1842V52.3333ZM56.5176 52.3333H58.8509V54.6667H56.5176V52.3333ZM58.8509 52.3333H61.1842V54.6667H58.8509V52.3333ZM61.1842 52.3333H63.5176V54.6667H61.1842V52.3333ZM63.5176 52.3333H65.8509V54.6667H63.5176V52.3333ZM65.8509 52.3333H68.1842V54.6667H65.8509V52.3333ZM75.1842 52.3333H77.5176V54.6667H75.1842V52.3333ZM7.51758 54.6667H9.85091V57H7.51758V54.6667ZM12.1842 54.6667H14.5176V57H12.1842V54.6667ZM19.1842 54.6667H21.5176V57H19.1842V54.6667ZM21.5176 54.6667H23.8509V57H21.5176V54.6667ZM28.5176 54.6667H30.8509V57H28.5176V54.6667ZM35.5176 54.6667H37.8509V57H35.5176V54.6667ZM40.1842 54.6667H42.5176V57H40.1842V54.6667ZM47.1842 54.6667H49.5176V57H47.1842V54.6667ZM58.8509 54.6667H61.1842V57H58.8509V54.6667ZM63.5176 54.6667H65.8509V57H63.5176V54.6667ZM68.1842 54.6667H70.5176V57H68.1842V54.6667ZM72.8509 54.6667H75.1842V57H72.8509V54.6667ZM75.1842 54.6667H77.5176V57H75.1842V54.6667ZM0.517578 57H2.85091V59.3333H0.517578V57ZM2.85091 57H5.18424V59.3333H2.85091V57ZM7.51758 57H9.85091V59.3333H7.51758V57ZM9.85091 57H12.1842V59.3333H9.85091V57ZM14.5176 57H16.8509V59.3333H14.5176V57ZM19.1842 57H21.5176V59.3333H19.1842V57ZM21.5176 57H23.8509V59.3333H21.5176V57ZM26.1842 57H28.5176V59.3333H26.1842V57ZM28.5176 57H30.8509V59.3333H28.5176V57ZM33.1842 57H35.5176V59.3333H33.1842V57ZM37.8509 57H40.1842V59.3333H37.8509V57ZM40.1842 57H42.5176V59.3333H40.1842V57ZM42.5176 57H44.8509V59.3333H42.5176V57ZM47.1842 57H49.5176V59.3333H47.1842V57ZM54.1842 57H56.5176V59.3333H54.1842V57ZM56.5176 57H58.8509V59.3333H56.5176V57ZM58.8509 57H61.1842V59.3333H58.8509V57ZM61.1842 57H63.5176V59.3333H61.1842V57ZM63.5176 57H65.8509V59.3333H63.5176V57ZM65.8509 57H68.1842V59.3333H65.8509V57ZM68.1842 57H70.5176V59.3333H68.1842V57ZM72.8509 57H75.1842V59.3333H72.8509V57ZM19.1842 59.3333H21.5176V61.6667H19.1842V59.3333ZM23.8509 59.3333H26.1842V61.6667H23.8509V59.3333ZM26.1842 59.3333H28.5176V61.6667H26.1842V59.3333ZM33.1842 59.3333H35.5176V61.6667H33.1842V59.3333ZM37.8509 59.3333H40.1842V61.6667H37.8509V59.3333ZM42.5176 59.3333H44.8509V61.6667H42.5176V59.3333ZM44.8509 59.3333H47.1842V61.6667H44.8509V59.3333ZM49.5176 59.3333H51.8509V61.6667H49.5176V59.3333ZM54.1842 59.3333H56.5176V61.6667H54.1842V59.3333ZM56.5176 59.3333H58.8509V61.6667H56.5176V59.3333ZM65.8509 59.3333H68.1842V61.6667H65.8509V59.3333ZM75.1842 59.3333H77.5176V61.6667H75.1842V59.3333ZM0.517578 61.6667H2.85091V64H0.517578V61.6667ZM2.85091 61.6667H5.18424V64H2.85091V61.6667ZM5.18424 61.6667H7.51758V64H5.18424V61.6667ZM7.51758 61.6667H9.85091V64H7.51758V61.6667ZM9.85091 61.6667H12.1842V64H9.85091V61.6667ZM12.1842 61.6667H14.5176V64H12.1842V61.6667ZM14.5176 61.6667H16.8509V64H14.5176V61.6667ZM26.1842 61.6667H28.5176V64H26.1842V61.6667ZM35.5176 61.6667H37.8509V64H35.5176V61.6667ZM37.8509 61.6667H40.1842V64H37.8509V61.6667ZM44.8509 61.6667H47.1842V64H44.8509V61.6667ZM49.5176 61.6667H51.8509V64H49.5176V61.6667ZM56.5176 61.6667H58.8509V64H56.5176V61.6667ZM61.1842 61.6667H63.5176V64H61.1842V61.6667ZM65.8509 61.6667H68.1842V64H65.8509V61.6667ZM68.1842 61.6667H70.5176V64H68.1842V61.6667ZM70.5176 61.6667H72.8509V64H70.5176V61.6667ZM75.1842 61.6667H77.5176V64H75.1842V61.6667ZM0.517578 64H2.85091V66.3333H0.517578V64ZM14.5176 64H16.8509V66.3333H14.5176V64ZM21.5176 64H23.8509V66.3333H21.5176V64ZM30.8509 64H33.1842V66.3333H30.8509V64ZM33.1842 64H35.5176V66.3333H33.1842V64ZM42.5176 64H44.8509V66.3333H42.5176V64ZM47.1842 64H49.5176V66.3333H47.1842V64ZM51.8509 64H54.1842V66.3333H51.8509V64ZM54.1842 64H56.5176V66.3333H54.1842V64ZM56.5176 64H58.8509V66.3333H56.5176V64ZM65.8509 64H68.1842V66.3333H65.8509V64ZM68.1842 64H70.5176V66.3333H68.1842V64ZM72.8509 64H75.1842V66.3333H72.8509V64ZM75.1842 64H77.5176V66.3333H75.1842V64ZM0.517578 66.3333H2.85091V68.6667H0.517578V66.3333ZM5.18424 66.3333H7.51758V68.6667H5.18424V66.3333ZM7.51758 66.3333H9.85091V68.6667H7.51758V66.3333ZM9.85091 66.3333H12.1842V68.6667H9.85091V66.3333ZM14.5176 66.3333H16.8509V68.6667H14.5176V66.3333ZM26.1842 66.3333H28.5176V68.6667H26.1842V66.3333ZM30.8509 66.3333H33.1842V68.6667H30.8509V66.3333ZM37.8509 66.3333H40.1842V68.6667H37.8509V66.3333ZM42.5176 66.3333H44.8509V68.6667H42.5176V66.3333ZM44.8509 66.3333H47.1842V68.6667H44.8509V66.3333ZM54.1842 66.3333H56.5176V68.6667H54.1842V66.3333ZM56.5176 66.3333H58.8509V68.6667H56.5176V66.3333ZM58.8509 66.3333H61.1842V68.6667H58.8509V66.3333ZM61.1842 66.3333H63.5176V68.6667H61.1842V66.3333ZM63.5176 66.3333H65.8509V68.6667H63.5176V66.3333ZM65.8509 66.3333H68.1842V68.6667H65.8509V66.3333ZM0.517578 68.6667H2.85091V71H0.517578V68.6667ZM5.18424 68.6667H7.51758V71H5.18424V68.6667ZM7.51758 68.6667H9.85091V71H7.51758V68.6667ZM9.85091 68.6667H12.1842V71H9.85091V68.6667ZM14.5176 68.6667H16.8509V71H14.5176V68.6667ZM21.5176 68.6667H23.8509V71H21.5176V68.6667ZM26.1842 68.6667H28.5176V71H26.1842V68.6667ZM28.5176 68.6667H30.8509V71H28.5176V68.6667ZM37.8509 68.6667H40.1842V71H37.8509V68.6667ZM40.1842 68.6667H42.5176V71H40.1842V68.6667ZM44.8509 68.6667H47.1842V71H44.8509V68.6667ZM49.5176 68.6667H51.8509V71H49.5176V68.6667ZM51.8509 68.6667H54.1842V71H51.8509V68.6667ZM58.8509 68.6667H61.1842V71H58.8509V68.6667ZM63.5176 68.6667H65.8509V71H63.5176V68.6667ZM65.8509 68.6667H68.1842V71H65.8509V68.6667ZM70.5176 68.6667H72.8509V71H70.5176V68.6667ZM75.1842 68.6667H77.5176V71H75.1842V68.6667ZM0.517578 71H2.85091V73.3333H0.517578V71ZM5.18424 71H7.51758V73.3333H5.18424V71ZM7.51758 71H9.85091V73.3333H7.51758V71ZM9.85091 71H12.1842V73.3333H9.85091V71ZM14.5176 71H16.8509V73.3333H14.5176V71ZM19.1842 71H21.5176V73.3333H19.1842V71ZM23.8509 71H26.1842V73.3333H23.8509V71ZM30.8509 71H33.1842V73.3333H30.8509V71ZM33.1842 71H35.5176V73.3333H33.1842V71ZM37.8509 71H40.1842V73.3333H37.8509V71ZM44.8509 71H47.1842V73.3333H44.8509V71ZM47.1842 71H49.5176V73.3333H47.1842V71ZM49.5176 71H51.8509V73.3333H49.5176V71ZM54.1842 71H56.5176V73.3333H54.1842V71ZM56.5176 71H58.8509V73.3333H56.5176V71ZM63.5176 71H65.8509V73.3333H63.5176V71ZM65.8509 71H68.1842V73.3333H65.8509V71ZM70.5176 71H72.8509V73.3333H70.5176V71ZM72.8509 71H75.1842V73.3333H72.8509V71ZM75.1842 71H77.5176V73.3333H75.1842V71ZM0.517578 73.3333H2.85091V75.6667H0.517578V73.3333ZM14.5176 73.3333H16.8509V75.6667H14.5176V73.3333ZM19.1842 73.3333H21.5176V75.6667H19.1842V73.3333ZM30.8509 73.3333H33.1842V75.6667H30.8509V73.3333ZM33.1842 73.3333H35.5176V75.6667H33.1842V73.3333ZM35.5176 73.3333H37.8509V75.6667H35.5176V73.3333ZM40.1842 73.3333H42.5176V75.6667H40.1842V73.3333ZM47.1842 73.3333H49.5176V75.6667H47.1842V73.3333ZM54.1842 73.3333H56.5176V75.6667H54.1842V73.3333ZM56.5176 73.3333H58.8509V75.6667H56.5176V73.3333ZM58.8509 73.3333H61.1842V75.6667H58.8509V73.3333ZM63.5176 73.3333H65.8509V75.6667H63.5176V73.3333ZM65.8509 73.3333H68.1842V75.6667H65.8509V73.3333ZM68.1842 73.3333H70.5176V75.6667H68.1842V73.3333ZM0.517578 75.6667H2.85091V78H0.517578V75.6667ZM2.85091 75.6667H5.18424V78H2.85091V75.6667ZM5.18424 75.6667H7.51758V78H5.18424V75.6667ZM7.51758 75.6667H9.85091V78H7.51758V75.6667ZM9.85091 75.6667H12.1842V78H9.85091V75.6667ZM12.1842 75.6667H14.5176V78H12.1842V75.6667ZM14.5176 75.6667H16.8509V78H14.5176V75.6667ZM30.8509 75.6667H33.1842V78H30.8509V75.6667ZM33.1842 75.6667H35.5176V78H33.1842V75.6667ZM35.5176 75.6667H37.8509V78H35.5176V75.6667ZM44.8509 75.6667H47.1842V78H44.8509V75.6667ZM47.1842 75.6667H49.5176V78H47.1842V75.6667ZM54.1842 75.6667H56.5176V78H54.1842V75.6667ZM56.5176 75.6667H58.8509V78H56.5176V75.6667ZM63.5176 75.6667H65.8509V78H63.5176V75.6667ZM65.8509 75.6667H68.1842V78H65.8509V75.6667ZM68.1842 75.6667H70.5176V78H68.1842V75.6667ZM75.1842 75.6667H77.5176V78H75.1842V75.6667Z" fill="black" stroke="black" stroke-width="0.272421"/>
</svg>
