<svg width="600" height="600" viewBox="0 0 600 600" fill="none" xmlns="http://www.w3.org/2000/svg">
<rect width="600" height="600" fill="white"/>
<path d="M403.529 474.471C506.38 417.261 543.575 287.858 486.607 185.442C429.638 83.025 300.079 46.3779 197.228 103.588C94.3772 160.798 57.182 290.201 114.15 392.617C171.119 495.034 300.678 531.681 403.529 474.471Z" fill="#E4FAF9"/>
<path fill-rule="evenodd" clip-rule="evenodd" d="M198.36 63.9067C199.46 75.6067 209.76 84.3067 221.36 83.2067C233.06 82.1067 241.66 71.8067 240.56 60.1067C239.46 48.4067 229.16 39.7067 217.56 40.8067C205.86 41.8067 197.26 52.2067 198.36 63.9067Z" fill="#8ED9FF"/>
<path fill-rule="evenodd" clip-rule="evenodd" d="M468.161 559.807C479.361 556.107 485.461 544.107 481.761 533.007C478.161 521.907 466.061 515.807 454.861 519.507C443.661 523.207 437.561 535.207 441.261 546.307C444.961 557.407 456.961 563.407 468.161 559.807Z" fill="#51CB4D"/>
<path fill-rule="evenodd" clip-rule="evenodd" d="M476.861 78.9071C475.661 83.5071 478.361 88.1071 482.861 89.3071C487.361 90.5071 492.061 87.8071 493.261 83.2071C494.461 78.6071 491.761 74.0071 487.261 72.8071C482.761 71.6071 478.061 74.3071 476.861 78.9071Z" fill="#EF3C48"/>
<path opacity="0.93" fill-rule="evenodd" clip-rule="evenodd" d="M131.361 81.107C130.161 85.707 132.861 90.307 137.361 91.507C141.861 92.707 146.561 90.007 147.761 85.407C148.961 80.807 146.261 76.207 141.761 75.007C137.161 73.907 132.561 76.607 131.361 81.107Z" fill="#528AFF"/>
<path opacity="0.93" fill-rule="evenodd" clip-rule="evenodd" d="M560.861 122.807L559.561 154.407C559.561 155.607 558.561 156.507 557.361 156.407C556.961 156.407 556.661 156.307 556.361 156.107L529.861 139.707C528.861 139.107 528.561 137.807 529.161 136.807C529.361 136.507 529.661 136.207 529.961 136.107L557.661 120.907C558.661 120.307 559.961 120.707 560.561 121.707C560.761 122.007 560.861 122.407 560.861 122.807Z" fill="#528AFF"/>
<path fill-rule="evenodd" clip-rule="evenodd" d="M72.5621 58.9072L79.0621 89.8072C79.2621 90.9072 78.5621 92.1072 77.4621 92.3072C77.0621 92.4072 76.7621 92.4072 76.3621 92.2072L46.7621 82.8072C45.6621 82.4072 45.0621 81.2072 45.3621 80.1072C45.4621 79.8072 45.6621 79.4072 45.9621 79.2072L69.0621 57.7072C69.9621 56.9072 71.2621 56.9072 72.0621 57.8072C72.2621 58.1072 72.4621 58.5072 72.5621 58.9072Z" fill="#F9D222"/>
<path fill-rule="evenodd" clip-rule="evenodd" d="M561.162 506.107L567.662 537.007C567.862 538.107 567.162 539.307 566.062 539.507C565.662 539.607 565.362 539.607 564.962 539.407L535.362 530.007C534.262 529.607 533.662 528.407 533.962 527.307C534.062 527.007 534.262 526.607 534.562 526.407L557.662 504.907C558.562 504.107 559.862 504.107 560.662 505.007C560.962 505.407 561.162 505.707 561.162 506.107Z" fill="#F9D222"/>
<path fill-rule="evenodd" clip-rule="evenodd" d="M148.761 555.207L138.661 525.307C138.261 524.207 138.861 523.007 139.961 522.607C140.261 522.507 140.661 522.507 141.061 522.507L171.561 528.407C172.761 528.607 173.461 529.707 173.261 530.907C173.161 531.307 173.061 531.607 172.761 531.907L152.361 555.907C151.561 556.807 150.261 556.907 149.361 556.107C149.061 555.907 148.861 555.607 148.761 555.207Z" fill="#EF3C48"/>
<path d="M405.362 135.807L396.162 144.607L400.662 156.507C467.462 171.707 509.462 238.307 494.262 305.107L490.962 319.407L511.562 324.107L514.862 309.807C532.662 231.607 483.462 153.607 405.362 135.807Z" fill="#89A6B7"/>
<path d="M231.462 245.407L228.162 259.707L248.762 264.407L252.062 250.107C267.262 183.307 333.862 141.307 400.662 156.507L405.362 135.907C327.262 118.107 249.162 167.307 231.462 245.407Z" fill="#B8CAD4"/>
<path d="M396.963 488.907L328.863 473.407L333.563 452.807L401.663 468.307C419.463 472.307 437.263 461.107 441.363 443.307L443.563 433.707L466.563 428.107L462.063 448.007C455.263 477.207 426.163 495.507 396.963 488.907Z" fill="#89A6B7"/>
<path d="M495.962 316.707C529.762 324.407 550.962 358.107 543.362 391.907C535.662 425.707 501.962 446.907 468.162 439.307L464.062 438.407L461.662 373.407L491.962 315.807L495.962 316.707Z" fill="#88E2E3"/>
<path d="M274.163 268.107L249.663 262.507L219.463 320.007L221.863 384.907L246.363 390.507L274.163 268.107Z" fill="#77C6C6"/>
<path d="M245.663 261.607C211.963 253.907 178.263 275.207 170.563 308.907C162.863 342.607 184.163 376.307 217.863 384.007L221.963 384.907L249.763 262.507L245.663 261.607Z" fill="#88E2E3"/>
<path d="M467.362 310.207L491.862 315.807L464.062 438.407L439.562 432.807L467.362 310.207Z" fill="#77C6C6"/>
<path d="M293.762 182.107C293.562 182.407 293.362 182.607 293.062 182.807C291.962 183.807 290.762 184.707 289.562 185.607C289.562 185.607 289.362 185.707 289.262 185.807C289.562 185.607 289.462 185.707 289.262 185.807C288.962 186.307 288.562 186.707 288.062 187.007C287.962 187.107 287.862 187.307 287.762 187.407C288.062 189.007 288.162 190.607 288.162 192.307C288.162 199.507 285.862 206.007 281.962 209.707C278.462 213.007 274.562 213.007 269.062 213.107C262.762 213.207 254.962 213.307 245.762 218.907C244.462 219.707 243.362 220.407 242.362 221.207C238.962 223.807 236.962 226.307 235.262 228.507C233.162 231.207 231.762 232.907 228.162 234.207C223.262 235.907 217.062 235.707 210.862 233.407C204.862 231.207 199.062 227.307 195.062 222.607C189.362 216.107 186.262 207.307 186.362 197.907C186.362 188.807 189.562 180.007 194.962 173.707C205.162 162.007 221.062 161.507 225.662 161.707C230.862 161.907 233.662 163.107 237.762 164.807C241.962 166.607 247.162 168.907 256.662 170.907C263.562 172.407 268.462 172.907 272.162 173.107C272.262 173.007 272.462 172.907 272.462 172.907C272.662 172.707 272.962 172.507 273.162 172.307C273.662 171.807 274.162 171.407 274.662 170.907C275.662 169.907 276.662 168.807 277.762 167.807C278.262 167.407 278.762 167.007 279.362 166.807C277.762 166.507 276.062 166.407 274.062 166.307C270.462 166.007 265.462 165.707 258.062 164.107C249.262 162.207 244.362 160.107 240.462 158.407C236.162 156.507 232.362 154.907 225.762 154.707C220.362 154.507 201.862 155.007 189.562 169.107C182.962 176.707 179.262 186.907 179.262 197.907C179.162 209.007 182.862 219.407 189.662 227.207C194.562 232.807 201.162 237.407 208.362 240.007C216.062 242.807 223.862 243.107 230.362 240.807C235.862 238.807 238.262 235.807 240.662 232.807C242.662 230.307 244.662 227.707 249.262 224.907C256.762 220.307 262.962 220.207 268.962 220.107C274.362 220.007 279.962 219.907 285.062 216.107C285.562 215.707 286.062 215.307 286.562 214.907C291.862 210.007 294.962 201.607 294.962 192.407C295.262 188.707 294.662 185.307 293.762 182.107Z" fill="#F9D222"/>
<path d="M222.862 263.907L220.762 218.207C220.662 215.207 219.662 212.507 218.062 210.107C216.162 207.307 213.362 205.207 210.062 204.107L166.562 190.107C161.762 188.507 156.362 189.507 152.362 192.507L36.4621 281.207C29.6621 286.407 28.3621 296.207 33.5621 303.007L79.1621 362.707C84.3621 369.507 94.1622 370.807 100.962 365.607L216.762 277.007C220.862 273.907 223.162 269.007 222.862 263.907ZM181.462 238.207C181.262 238.007 181.062 237.807 180.862 237.507C176.262 231.507 177.462 222.907 183.462 218.307C189.462 213.707 198.062 214.907 202.662 220.907C202.862 221.107 203.062 221.407 203.162 221.607C207.162 227.607 205.862 235.707 200.062 240.107C194.362 244.407 186.162 243.607 181.462 238.207Z" fill="#EF3C48"/>
<path opacity="0.35" d="M203.162 221.506C207.162 227.506 205.862 235.606 200.062 240.006C194.262 244.406 186.162 243.506 181.462 238.106C181.262 237.906 181.062 237.706 180.862 237.406L56.1621 332.606L79.1621 362.706C84.3621 369.506 94.1621 370.806 100.962 365.606L216.762 277.006C220.762 273.906 223.062 269.006 222.862 263.906L220.762 218.206C220.662 215.206 219.662 212.506 218.062 210.106C217.862 209.906 217.762 209.706 217.562 209.406L202.662 220.706C202.862 221.106 202.962 221.306 203.162 221.506Z" fill="#A21922"/>
<path d="M83.6621 336.207C83.3621 336.207 83.0621 336.007 82.8621 335.707L62.4621 309.007C62.2621 308.707 62.1621 308.407 62.1621 308.107C62.1621 307.807 62.3621 307.507 62.6621 307.307L80.5621 293.707C80.8621 293.507 81.1621 293.407 81.5621 293.407C81.8621 293.407 82.1621 293.607 82.4621 293.907L84.7621 296.907C84.9621 297.207 85.0621 297.507 84.9621 297.807C84.9621 298.107 84.7621 298.407 84.4621 298.707L71.3621 308.707L77.2621 316.407L89.5621 307.007C89.8621 306.807 90.1621 306.707 90.5621 306.707C90.8621 306.707 91.1621 306.907 91.3621 307.207L93.6621 310.207C93.8621 310.507 93.9621 310.807 93.8621 311.107C93.8621 311.407 93.6621 311.707 93.3621 312.007L81.0621 321.407L88.7621 331.507C88.9621 331.807 89.0621 332.107 88.9621 332.407C88.9621 332.707 88.7621 333.007 88.4621 333.307L84.7621 336.107C84.2621 336.207 83.9621 336.207 83.6621 336.207Z" fill="white"/>
<path d="M108.361 317.307C108.061 317.307 107.761 317.107 107.561 316.807L87.1613 290.107C86.9613 289.807 86.8613 289.507 86.8613 289.207C86.8613 288.907 87.0613 288.607 87.3613 288.407L97.9613 280.307C101.361 277.707 104.561 276.507 107.661 276.607C110.761 276.707 113.361 278.207 115.561 281.107C117.061 283.107 117.861 285.107 117.961 287.207C118.061 289.307 117.461 291.307 116.161 293.207L130.061 299.107C130.261 299.207 130.461 299.307 130.561 299.507C130.761 299.707 130.861 300.007 130.761 300.307C130.661 300.607 130.561 300.807 130.361 301.007L126.561 303.907C126.161 304.207 125.661 304.407 125.261 304.407C124.861 304.407 124.461 304.307 123.961 304.107L111.261 298.407L105.661 302.707L113.161 312.607C113.361 312.907 113.461 313.207 113.361 313.507C113.361 313.807 113.161 314.107 112.861 314.407L109.061 317.307C109.061 317.307 108.661 317.407 108.361 317.307ZM107.961 293.607C109.561 292.307 110.561 291.007 110.861 289.707C111.161 288.307 110.761 287.007 109.661 285.607C108.561 284.207 107.361 283.407 105.961 283.307C104.561 283.207 103.061 283.707 101.361 285.007L95.6613 289.407L102.261 298.007L107.961 293.607Z" fill="white"/>
<path d="M136.062 296.207C135.763 296.207 135.463 296.007 135.263 295.707L114.863 269.007C114.663 268.707 114.562 268.407 114.562 268.107C114.562 267.807 114.762 267.507 115.062 267.307L133.163 253.507C133.463 253.307 133.763 253.207 134.163 253.207C134.463 253.207 134.763 253.407 135.062 253.707L137.163 256.407C137.363 256.707 137.463 257.007 137.463 257.307C137.363 257.607 137.263 257.907 136.963 258.107L123.363 268.507L128.863 275.707L141.463 266.107C141.763 265.907 142.063 265.807 142.463 265.807C142.763 265.807 143.063 266.007 143.363 266.307L145.363 268.907C145.563 269.207 145.663 269.507 145.663 269.807C145.563 270.107 145.463 270.407 145.163 270.607L132.562 280.207L138.263 287.607L152.062 277.107C152.362 276.907 152.663 276.807 152.963 276.807C153.263 276.807 153.563 277.007 153.763 277.307L155.863 280.107C156.063 280.407 156.163 280.707 156.163 281.007C156.063 281.307 155.963 281.607 155.663 281.807L137.263 295.907C136.663 296.207 136.362 296.307 136.062 296.207Z" fill="white"/>
<path d="M161.562 276.707C161.263 276.707 160.962 276.507 160.762 276.207L140.363 249.507C140.163 249.207 140.062 248.907 140.062 248.607C140.062 248.307 140.262 248.007 140.562 247.807L158.663 234.007C158.963 233.807 159.263 233.707 159.663 233.707C159.963 233.707 160.263 233.907 160.562 234.207L162.663 236.907C162.863 237.207 162.963 237.507 162.963 237.807C162.863 238.107 162.763 238.407 162.463 238.607L148.963 248.907L154.463 256.107L167.062 246.507C167.362 246.307 167.663 246.207 168.062 246.207C168.362 246.207 168.663 246.407 168.963 246.707L170.963 249.307C171.163 249.607 171.262 249.907 171.262 250.207C171.162 250.507 171.062 250.807 170.762 251.007L158.163 260.607L163.863 268.007L177.363 257.707C177.663 257.507 177.962 257.407 178.262 257.407C178.562 257.407 178.862 257.607 179.062 257.907L181.163 260.707C181.363 261.007 181.463 261.307 181.463 261.607C181.363 261.907 181.263 262.207 180.963 262.407L162.562 276.507C162.263 276.707 161.962 276.807 161.562 276.707Z" fill="white"/>
<path d="M190.362 215.106L183.962 218.006C180.862 211.306 179.262 202.106 179.662 194.606L186.662 195.006C186.262 201.306 187.762 209.406 190.362 215.106Z" fill="#F9D222"/>
</svg>
