<svg width="22" height="22" viewBox="0 0 22 22" fill="none" xmlns="http://www.w3.org/2000/svg">
<path d="M17.9206 0.433594H3.49557C2.67105 0.433594 1.8803 0.761133 1.29728 1.34416C0.714258 1.92718 0.386719 2.71793 0.386719 3.54245V17.9675C0.386719 18.792 0.714258 19.5828 1.29728 20.1658C1.8803 20.7488 2.67105 21.0764 3.49557 21.0764H17.9206C18.7452 21.0764 19.5359 20.7488 20.1189 20.1658C20.702 19.5828 21.0295 18.792 21.0295 17.9675V3.54245C21.0295 2.71793 20.702 1.92718 20.1189 1.34416C19.5359 0.761133 18.7452 0.433594 17.9206 0.433594ZM14.0968 12.3845L15.19 17.654L10.7081 15.0141L6.22618 17.654L7.32205 12.3845L3.45412 9.12543L8.68735 8.50884L10.7081 3.84556L13.0397 8.50884L17.9621 9.12543L14.0968 12.3845Z" fill="#FDD340"/>
</svg>
