<svg width="11" height="20" viewBox="0 0 11 20" fill="none" xmlns="http://www.w3.org/2000/svg">
<path d="M10.4058 0.00416134L7.81228 0C4.89852 0 3.01551 1.9319 3.01551 4.92203V7.19141H0.407811C0.182475 7.19141 0 7.37409 0 7.59943V10.8875C0 11.1128 0.182683 11.2953 0.407811 11.2953H3.01551V19.5922C3.01551 19.8175 3.19799 20 3.42332 20H6.82563C7.05097 20 7.23344 19.8173 7.23344 19.5922V11.2953H10.2825C10.5078 11.2953 10.6903 11.1128 10.6903 10.8875L10.6915 7.59943C10.6915 7.49123 10.6484 7.38762 10.5721 7.31105C10.4957 7.23448 10.3917 7.19141 10.2835 7.19141H7.23344V5.26763C7.23344 4.34298 7.45378 3.87358 8.65828 3.87358L10.4054 3.87295C10.6305 3.87295 10.813 3.69027 10.813 3.46514V0.411972C10.813 0.187052 10.6308 0.00457747 10.4058 0.00416134Z" fill="white"/>
</svg>
