<svg width="9" height="16" viewBox="0 0 9 16" fill="none" xmlns="http://www.w3.org/2000/svg">
<path d="M0.183821 14.7268C0.183863 14.5407 0.261295 14.3622 0.399085 14.2307L7.2266 7.70992L0.399085 1.18916C0.265255 1.05682 0.191202 0.879568 0.192876 0.695589C0.19455 0.511609 0.271818 0.335617 0.408036 0.205519C0.544254 0.0754208 0.728525 0.00162535 0.92116 2.66142e-05C1.11379 -0.00157212 1.29938 0.0691538 1.43794 0.196972L8.78489 7.21383C8.92263 7.34541 9 7.52386 9 7.70992C9 7.89598 8.92263 8.07443 8.78489 8.20601L1.43795 15.2229C1.3352 15.321 1.2043 15.3878 1.0618 15.4148C0.919309 15.4419 0.77161 15.428 0.637382 15.3749C0.503153 15.3218 0.38842 15.2319 0.307689 15.1165C0.226958 15.0012 0.183851 14.8655 0.183821 14.7268Z" fill="white"/>
</svg>
