<svg width="23" height="18" viewBox="0 0 23 18" fill="none" xmlns="http://www.w3.org/2000/svg">
<path d="M19.8775 4.48892C20.7785 3.84923 21.5363 3.05077 22.1538 2.13138V2.13046C21.3295 2.49138 20.4526 2.73138 19.5369 2.84769C20.4785 2.28554 21.1975 1.40215 21.5354 0.337846C20.6575 0.861231 19.6883 1.23046 18.6554 1.43723C17.8218 0.549231 16.6338 0 15.3378 0C12.8234 0 10.7991 2.04092 10.7991 4.54246C10.7991 4.90246 10.8295 5.24862 10.9043 5.57815C7.12892 5.39354 3.78738 3.58431 1.54246 0.827077C1.15108 1.50738 0.920308 2.28554 0.920308 3.12277C0.920308 4.69569 1.72985 6.08954 2.93815 6.89723C2.208 6.88338 1.49262 6.67108 0.886154 6.33785V6.38769C0.886154 8.59477 2.46 10.428 4.52492 10.8508C4.15477 10.9523 3.75231 11.0003 3.33415 11.0003C3.04338 11.0003 2.74985 10.9837 2.47477 10.9228C3.06277 12.7209 4.73354 14.0437 6.71815 14.0871C5.17292 15.2954 3.21046 16.0237 1.08646 16.0237C0.714462 16.0237 0.357231 16.0071 0 15.9618C2.01231 17.2588 4.39569 18 6.96738 18C14.9825 18 20.2062 11.3132 19.8775 4.48892Z" fill="white"/>
</svg>
