<svg width="190" height="57" viewBox="0 0 190 57" fill="none" xmlns="http://www.w3.org/2000/svg">
<path d="M189.254 7.0062C189.254 3.50721 186.367 0.620993 182.868 0.620993H7.71323C4.21424 0.620993 1.32802 3.50721 1.32802 7.0062V49.0434C1.32802 52.5424 4.21424 55.4286 7.71323 55.4286H182.868C186.367 55.4286 189.254 52.5424 189.254 49.0434V7.0062ZM7.71323 0.5H182.868C186.509 0.5 189.375 3.49247 189.375 7.0062V49.0434C189.375 52.6908 186.516 55.5496 182.868 55.5496H7.71323C4.0659 55.5496 1.20703 52.6908 1.20703 49.0434V7.0062C1.20703 3.35887 4.0659 0.5 7.71323 0.5Z" fill="#A6A6A6" stroke="white"/>
<path d="M67.1262 14.2921C67.1262 15.4131 66.846 16.3939 66.1453 17.0945C65.3046 17.9353 64.3237 18.3557 63.0626 18.3557C61.8015 18.3557 60.8206 17.9353 59.9799 17.0945C59.1391 16.2538 58.7188 15.2729 58.7188 14.0118C58.7188 12.7507 59.1391 11.7698 59.9799 10.9291C60.8206 10.0883 61.8015 9.66797 63.0626 9.66797C63.6231 9.66797 64.1836 9.80809 64.7441 10.0883C65.3046 10.3686 65.725 10.6488 66.0052 11.0692L65.3046 11.7698C64.7441 11.0692 64.0435 10.789 63.0626 10.789C62.2219 10.789 61.3811 11.0692 60.8206 11.7698C60.12 12.3303 59.8397 13.1711 59.8397 14.1519C59.8397 15.1328 60.12 15.9736 60.8206 16.534C61.5212 17.0945 62.2219 17.5149 63.0626 17.5149C64.0435 17.5149 64.7441 17.2347 65.4447 16.534C65.8651 16.1137 66.1453 15.5532 66.1453 14.8526H63.0626V13.8717H67.1262C67.1262 13.8717 67.1262 14.1519 67.1262 14.2921Z" fill="white" stroke="white" stroke-width="0.257828" stroke-miterlimit="10"/>
<path d="M73.5699 10.7875H69.7865V13.4499H73.2896V14.4307H69.7865V17.0931H73.5699V18.2141H68.6655V9.80664H73.5699V10.7875Z" fill="white" stroke="white" stroke-width="0.257828" stroke-miterlimit="10"/>
<path d="M78.1955 18.2141H77.0745V10.7875H74.6924V9.80664H80.5776V10.7875H78.1955V18.2141Z" fill="white" stroke="white" stroke-width="0.257828" stroke-miterlimit="10"/>
<path d="M84.6416 18.2141V9.80664H85.7626V18.2141H84.6416Z" fill="white" stroke="white" stroke-width="0.257828" stroke-miterlimit="10"/>
<path d="M90.5251 18.2141H89.4041V10.7875H87.022V9.80664H92.7671V10.7875H90.385V18.2141H90.5251Z" fill="white" stroke="white" stroke-width="0.257828" stroke-miterlimit="10"/>
<path d="M103.838 17.0955C102.997 17.9363 102.017 18.3566 100.755 18.3566C99.4943 18.3566 98.5135 17.9363 97.6727 17.0955C96.832 16.2548 96.4116 15.2739 96.4116 14.0128C96.4116 12.7517 96.832 11.7708 97.6727 10.9301C98.5135 10.0893 99.4943 9.66895 100.755 9.66895C102.017 9.66895 102.997 10.0893 103.838 10.9301C104.679 11.7708 105.099 12.7517 105.099 14.0128C105.099 15.2739 104.679 16.2548 103.838 17.0955ZM98.5135 16.3949C99.074 16.9554 99.9147 17.3758 100.755 17.3758C101.596 17.3758 102.437 17.0955 102.997 16.3949C103.558 15.8344 103.978 14.9937 103.978 14.0128C103.978 13.0319 103.698 12.1912 102.997 11.6307C102.437 11.0702 101.596 10.6498 100.755 10.6498C99.9147 10.6498 99.074 10.9301 98.5135 11.6307C97.953 12.1912 97.5326 13.0319 97.5326 14.0128C97.5326 14.9937 97.8129 15.8344 98.5135 16.3949Z" fill="white" stroke="white" stroke-width="0.257828" stroke-miterlimit="10"/>
<path d="M106.641 18.2141V9.80664H107.902L111.965 16.3925V14.711V9.80664H113.086V18.2141H111.965L107.621 11.348V13.0295V18.2141H106.641Z" fill="white" stroke="white" stroke-width="0.257828" stroke-miterlimit="10"/>
<path d="M96.1333 30.5458C92.7703 30.5458 90.108 33.068 90.108 36.5711C90.108 39.9341 92.7703 42.5965 96.1333 42.5965C99.4963 42.5965 102.159 40.0742 102.159 36.5711C102.159 32.9279 99.4963 30.5458 96.1333 30.5458ZM96.1333 40.0742C94.3117 40.0742 92.7703 38.5329 92.7703 36.431C92.7703 34.3291 94.3117 32.7878 96.1333 32.7878C97.9549 32.7878 99.4963 34.189 99.4963 36.431C99.4963 38.5329 97.9549 40.0742 96.1333 40.0742ZM83.1018 30.5458C79.7388 30.5458 77.0764 33.068 77.0764 36.5711C77.0764 39.9341 79.7388 42.5965 83.1018 42.5965C86.4648 42.5965 89.1271 40.0742 89.1271 36.5711C89.1271 32.9279 86.4648 30.5458 83.1018 30.5458ZM83.1018 40.0742C81.2802 40.0742 79.7388 38.5329 79.7388 36.431C79.7388 34.3291 81.2802 32.7878 83.1018 32.7878C84.9234 32.7878 86.4647 34.189 86.4647 36.431C86.4647 38.5329 84.9234 40.0742 83.1018 40.0742ZM67.548 32.3674V34.8896H73.5733C73.4332 36.2909 72.8727 37.4119 72.1721 38.1125C71.3313 38.9532 69.9301 39.9341 67.548 39.9341C63.7646 39.9341 60.9622 36.9915 60.9622 33.2082C60.9622 29.4248 63.9048 26.4822 67.548 26.4822C69.5097 26.4822 71.0511 27.3229 72.1721 28.3038L73.9937 26.4822C72.4523 25.081 70.4906 23.96 67.6881 23.96C62.6437 23.96 58.2998 28.1637 58.2998 33.2082C58.2998 38.2526 62.6437 42.4563 67.6881 42.4563C70.4906 42.4563 72.4523 41.6156 74.1338 39.794C75.8153 38.1125 76.3758 35.7304 76.3758 33.9088C76.3758 33.3483 76.3758 32.7878 76.2357 32.3674H67.548ZM131.164 34.3291C130.604 32.9279 129.203 30.5458 126.12 30.5458C123.037 30.5458 120.515 32.9279 120.515 36.5711C120.515 39.9341 123.037 42.5965 126.4 42.5965C129.062 42.5965 130.744 40.915 131.304 39.9341L129.343 38.5329C128.642 39.5137 127.801 40.2144 126.4 40.2144C124.999 40.2144 124.158 39.6539 123.457 38.3927L131.445 35.0298L131.164 34.3291ZM123.037 36.2909C123.037 34.0489 124.859 32.7878 126.12 32.7878C127.101 32.7878 128.082 33.3483 128.362 34.0489L123.037 36.2909ZM116.451 42.036H119.114V24.5205H116.451V42.036ZM112.248 31.8069C111.547 31.1063 110.426 30.4057 109.025 30.4057C106.082 30.4057 103.28 33.068 103.28 36.431C103.28 39.794 105.942 42.3162 109.025 42.3162C110.426 42.3162 111.547 41.6156 112.107 40.915H112.248V41.7557C112.248 43.9977 110.986 45.2588 109.025 45.2588C107.483 45.2588 106.362 44.1378 106.082 43.157L103.84 44.1378C104.541 45.6792 106.222 47.6409 109.165 47.6409C112.248 47.6409 114.77 45.8193 114.77 41.4755V30.826H112.248V31.8069ZM109.165 40.0742C107.343 40.0742 105.802 38.5329 105.802 36.431C105.802 34.3291 107.343 32.7878 109.165 32.7878C110.986 32.7878 112.388 34.3291 112.388 36.431C112.388 38.5329 110.986 40.0742 109.165 40.0742ZM143.355 24.5205H137.05V42.036H139.712V35.4501H143.355C146.298 35.4501 149.1 33.3483 149.1 29.9853C149.1 26.6223 146.298 24.5205 143.355 24.5205ZM143.495 32.9279H139.712V26.9026H143.495C145.457 26.9026 146.578 28.5841 146.578 29.8452C146.438 31.3865 145.317 32.9279 143.495 32.9279ZM159.61 30.4057C157.648 30.4057 155.686 31.2464 154.985 33.068L157.368 34.0489C157.928 33.068 158.769 32.7878 159.75 32.7878C161.151 32.7878 162.412 33.6285 162.552 35.0298V35.1699C162.132 34.8896 161.011 34.4693 159.89 34.4693C157.368 34.4693 154.845 35.8705 154.845 38.3927C154.845 40.7749 156.947 42.3162 159.189 42.3162C161.011 42.3162 161.851 41.4755 162.552 40.6347H162.692V42.036H165.214V35.31C164.934 32.2273 162.552 30.4057 159.61 30.4057ZM159.329 40.0742C158.489 40.0742 157.227 39.6539 157.227 38.5329C157.227 37.1316 158.769 36.7113 160.03 36.7113C161.151 36.7113 161.711 36.9915 162.412 37.2717C162.132 38.9532 160.73 40.0742 159.329 40.0742ZM174.042 30.826L171.1 38.3927H170.96L167.877 30.826H165.074L169.698 41.4755L167.036 47.3607H169.698L176.845 30.826H174.042ZM150.501 42.036H153.164V24.5205H150.501V42.036Z" fill="white"/>
<path fill-rule="evenodd" clip-rule="evenodd" d="M16.1147 45.7666C16.2753 45.705 16.4314 45.6323 16.582 45.5489L38.0276 33.676L32.9433 28.5434L16.1147 45.7666ZM38.9769 33.1516L33.6724 27.7964L38.972 22.3745L46.2682 26.3989C48.0665 27.3883 47.1465 28.6251 46.2682 29.1198L38.9769 33.1516ZM38.0251 21.8526L16.582 10.0266C16.3496 9.89846 16.0958 9.81462 15.8333 9.7793L32.9384 27.0445L38.0251 21.8501V21.8526ZM14.5757 10.0019L32.2093 27.8113L14.6614 45.7666C14.15 45.4376 13.8735 44.7252 13.8686 43.8051C13.8686 42.0414 13.7218 14.0387 13.712 11.9362C13.7047 10.9196 14.0692 10.3037 14.5757 10.0019Z" fill="white"/>
</svg>
