<svg width="134" height="134" viewBox="0 0 134 134" fill="none" xmlns="http://www.w3.org/2000/svg">
<path d="M1 1H5V5H1V1ZM5 1H9V5H5V1ZM9 1H13V5H9V1ZM13 1H17V5H13V1ZM17 1H21V5H17V1ZM21 1H25V5H21V1ZM25 1H29V5H25V1ZM45 1H49V5H45V1ZM53 1H57V5H53V1ZM57 1H61V5H57V1ZM61 1H65V5H61V1ZM65 1H69V5H65V1ZM69 1H73V5H69V1ZM73 1H77V5H73V1ZM89 1H93V5H89V1ZM105 1H109V5H105V1ZM109 1H113V5H109V1ZM113 1H117V5H113V1ZM117 1H121V5H117V1ZM121 1H125V5H121V1ZM125 1H129V5H125V1ZM129 1H133V5H129V1ZM1 5H5V9H1V5ZM25 5H29V9H25V5ZM37 5H41V9H37V5ZM41 5H45V9H41V5ZM49 5H53V9H49V5ZM57 5H61V9H57V5ZM65 5H69V9H65V5ZM81 5H85V9H81V5ZM105 5H109V9H105V5ZM129 5H133V9H129V5ZM1 9H5V13H1V9ZM9 9H13V13H9V9ZM13 9H17V13H13V9ZM17 9H21V13H17V9ZM25 9H29V13H25V9ZM49 9H53V13H49V9ZM57 9H61V13H57V9ZM65 9H69V13H65V9ZM69 9H73V13H69V9ZM85 9H89V13H85V9ZM89 9H93V13H89V9ZM105 9H109V13H105V9ZM113 9H117V13H113V9ZM117 9H121V13H117V9ZM121 9H125V13H121V9ZM129 9H133V13H129V9ZM1 13H5V17H1V13ZM9 13H13V17H9V13ZM13 13H17V17H13V13ZM17 13H21V17H17V13ZM25 13H29V17H25V13ZM33 13H37V17H33V13ZM45 13H49V17H45V13ZM61 13H65V17H61V13ZM65 13H69V17H65V13ZM77 13H81V17H77V13ZM85 13H89V17H85V13ZM93 13H97V17H93V13ZM97 13H101V17H97V13ZM105 13H109V17H105V13ZM113 13H117V17H113V13ZM117 13H121V17H117V13ZM121 13H125V17H121V13ZM129 13H133V17H129V13ZM1 17H5V21H1V17ZM9 17H13V21H9V17ZM13 17H17V21H13V17ZM17 17H21V21H17V17ZM25 17H29V21H25V17ZM37 17H41V21H37V17ZM45 17H49V21H45V17ZM49 17H53V21H49V17ZM53 17H57V21H53V17ZM57 17H61V21H57V17ZM65 17H69V21H65V17ZM77 17H81V21H77V17ZM85 17H89V21H85V17ZM97 17H101V21H97V17ZM105 17H109V21H105V17ZM113 17H117V21H113V17ZM117 17H121V21H117V17ZM121 17H125V21H121V17ZM129 17H133V21H129V17ZM1 21H5V25H1V21ZM25 21H29V25H25V21ZM33 21H37V25H33V21ZM37 21H41V25H37V21ZM49 21H53V25H49V21ZM65 21H69V25H65V21ZM73 21H77V25H73V21ZM77 21H81V25H77V21ZM105 21H109V25H105V21ZM129 21H133V25H129V21ZM1 25H5V29H1V25ZM5 25H9V29H5V25ZM9 25H13V29H9V25ZM13 25H17V29H13V25ZM17 25H21V29H17V25ZM21 25H25V29H21V25ZM25 25H29V29H25V25ZM33 25H37V29H33V25ZM41 25H45V29H41V25ZM49 25H53V29H49V25ZM57 25H61V29H57V25ZM65 25H69V29H65V25ZM73 25H77V29H73V25ZM81 25H85V29H81V25ZM89 25H93V29H89V25ZM97 25H101V29H97V25ZM105 25H109V29H105V25ZM109 25H113V29H109V25ZM113 25H117V29H113V25ZM117 25H121V29H117V25ZM121 25H125V29H121V25ZM125 25H129V29H125V25ZM129 25H133V29H129V25ZM33 29H37V33H33V29ZM37 29H41V33H37V29ZM41 29H45V33H41V29ZM49 29H53V33H49V29ZM61 29H65V33H61V29ZM73 29H77V33H73V29ZM77 29H81V33H77V29ZM81 29H85V33H81V29ZM89 29H93V33H89V29ZM93 29H97V33H93V29ZM5 33H9V37H5V33ZM9 33H13V37H9V33ZM25 33H29V37H25V33ZM37 33H41V37H37V33ZM41 33H45V37H41V33ZM45 33H49V37H45V33ZM49 33H53V37H49V33ZM61 33H65V37H61V33ZM73 33H77V37H73V33ZM81 33H85V37H81V33ZM93 33H97V37H93V33ZM97 33H101V37H97V33ZM105 33H109V37H105V33ZM109 33H113V37H109V33ZM117 33H121V37H117V33ZM1 37H5V41H1V37ZM9 37H13V41H9V37ZM21 37H25V41H21V37ZM29 37H33V41H29V37ZM45 37H49V41H45V37ZM53 37H57V41H53V37ZM57 37H61V41H57V37ZM61 37H65V41H61V37ZM69 37H73V41H69V37ZM77 37H81V41H77V37ZM81 37H85V41H81V37ZM89 37H93V41H89V37ZM93 37H97V41H93V37ZM105 37H109V41H105V37ZM117 37H121V41H117V37ZM125 37H129V41H125V37ZM129 37H133V41H129V37ZM5 41H9V45H5V41ZM9 41H13V45H9V41ZM13 41H17V45H13V41ZM17 41H21V45H17V41ZM21 41H25V45H21V41ZM25 41H29V45H25V41ZM33 41H37V45H33V41ZM41 41H45V45H41V41ZM49 41H53V45H49V41ZM57 41H61V45H57V41ZM61 41H65V45H61V41ZM77 41H81V45H77V41ZM93 41H97V45H93V41ZM101 41H105V45H101V41ZM117 41H121V45H117V41ZM121 41H125V45H121V41ZM129 41H133V45H129V41ZM1 45H5V49H1V45ZM5 45H9V49H5V45ZM13 45H17V49H13V45ZM17 45H21V49H17V45ZM21 45H25V49H21V45ZM29 45H33V49H29V45ZM33 45H37V49H33V45ZM45 45H49V49H45V45ZM49 45H53V49H49V45ZM57 45H61V49H57V45ZM65 45H69V49H65V45ZM69 45H73V49H69V45ZM77 45H81V49H77V45ZM93 45H97V49H93V45ZM109 45H113V49H109V45ZM113 45H117V49H113V45ZM117 45H121V49H117V45ZM9 49H13V53H9V49ZM13 49H17V53H13V49ZM25 49H29V53H25V49ZM29 49H33V53H29V49ZM37 49H41V53H37V49ZM41 49H45V53H41V49ZM45 49H49V53H45V49ZM49 49H53V53H49V49ZM61 49H65V53H61V49ZM65 49H69V53H65V49ZM69 49H73V53H69V49ZM77 49H81V53H77V49ZM81 49H85V53H81V49ZM89 49H93V53H89V49ZM93 49H97V53H93V49ZM101 49H105V53H101V49ZM105 49H109V53H105V49ZM125 49H129V53H125V49ZM129 49H133V53H129V49ZM1 53H5V57H1V53ZM5 53H9V57H5V53ZM17 53H21V57H17V53ZM21 53H25V57H21V53ZM29 53H33V57H29V53ZM37 53H41V57H37V53ZM49 53H53V57H49V53ZM53 53H57V57H53V53ZM61 53H65V57H61V53ZM69 53H73V57H69V53ZM89 53H93V57H89V53ZM93 53H97V57H93V53ZM101 53H105V57H101V53ZM105 53H109V57H105V53ZM125 53H129V57H125V53ZM129 53H133V57H129V53ZM1 57H5V61H1V57ZM9 57H13V61H9V57ZM13 57H17V61H13V57ZM25 57H29V61H25V57ZM33 57H37V61H33V57ZM41 57H45V61H41V57ZM53 57H57V61H53V57ZM57 57H61V61H57V57ZM61 57H65V61H61V57ZM77 57H81V61H77V57ZM81 57H85V61H81V57ZM85 57H89V61H85V57ZM89 57H93V61H89V57ZM93 57H97V61H93V57ZM97 57H101V61H97V57ZM113 57H117V61H113V57ZM117 57H121V61H117V57ZM121 57H125V61H121V57ZM129 57H133V61H129V57ZM1 61H5V65H1V61ZM5 61H9V65H5V61ZM13 61H17V65H13V61ZM17 61H21V65H17V61ZM21 61H25V65H21V61ZM29 61H33V65H29V61ZM49 61H53V65H49V61ZM53 61H57V65H53V61ZM57 61H61V65H57V61ZM65 61H69V65H65V61ZM73 61H77V65H73V61ZM93 61H97V65H93V61ZM101 61H105V65H101V61ZM105 61H109V65H105V61ZM113 61H117V65H113V61ZM5 65H9V69H5V65ZM13 65H17V69H13V65ZM21 65H25V69H21V65ZM25 65H29V69H25V65ZM37 65H41V69H37V65ZM41 65H45V69H41V65ZM45 65H49V69H45V65ZM57 65H61V69H57V65ZM61 65H65V69H61V65ZM81 65H85V69H81V65ZM93 65H97V69H93V65ZM105 65H109V69H105V65ZM109 65H113V69H109V65ZM117 65H121V69H117V65ZM125 65H129V69H125V65ZM1 69H5V73H1V69ZM13 69H17V73H13V69ZM17 69H21V73H17V69ZM33 69H37V73H33V69ZM41 69H45V73H41V69ZM49 69H53V73H49V69ZM53 69H57V73H53V69ZM57 69H61V73H57V69ZM61 69H65V73H61V69ZM77 69H81V73H77V69ZM81 69H85V73H81V69ZM85 69H89V73H85V69ZM89 69H93V73H89V69ZM93 69H97V73H93V69ZM97 69H101V73H97V69ZM105 69H109V73H105V69ZM117 69H121V73H117V69ZM125 69H129V73H125V69ZM129 69H133V73H129V69ZM1 73H5V77H1V73ZM9 73H13V77H9V73ZM25 73H29V77H25V73ZM37 73H41V77H37V73ZM49 73H53V77H49V73ZM61 73H65V77H61V73ZM65 73H69V77H65V73ZM69 73H73V77H69V73ZM73 73H77V77H73V73ZM77 73H81V77H77V73ZM81 73H85V77H81V73ZM93 73H97V77H93V73ZM97 73H101V77H97V73ZM105 73H109V77H105V73ZM109 73H113V77H109V73ZM117 73H121V77H117V73ZM121 73H125V77H121V73ZM129 73H133V77H129V73ZM1 77H5V81H1V77ZM5 77H9V81H5V77ZM9 77H13V81H9V77ZM13 77H17V81H13V77ZM21 77H25V81H21V77ZM33 77H37V81H33V77ZM49 77H53V81H49V77ZM73 77H77V81H73V77ZM77 77H81V81H77V77ZM81 77H85V81H81V77ZM89 77H93V81H89V77ZM101 77H105V81H101V77ZM113 77H117V81H113V77ZM117 77H121V81H117V77ZM125 77H129V81H125V77ZM1 81H5V85H1V81ZM5 81H9V85H5V81ZM13 81H17V85H13V81ZM17 81H21V85H17V81ZM21 81H25V85H21V81ZM25 81H29V85H25V81ZM29 81H33V85H29V81ZM41 81H45V85H41V81ZM53 81H57V85H53V81ZM61 81H65V85H61V81ZM93 81H97V85H93V81ZM101 81H105V85H101V81ZM105 81H109V85H105V81ZM125 81H129V85H125V81ZM129 81H133V85H129V81ZM5 85H9V89H5V85ZM13 85H17V89H13V85ZM21 85H25V89H21V85ZM33 85H37V89H33V85ZM37 85H41V89H37V85ZM41 85H45V89H41V85ZM45 85H49V89H45V85ZM49 85H53V89H49V85ZM53 85H57V89H53V85ZM57 85H61V89H57V85ZM73 85H77V89H73V85ZM77 85H81V89H77V85ZM93 85H97V89H93V85ZM101 85H105V89H101V85ZM105 85H109V89H105V85ZM117 85H121V89H117V85ZM121 85H125V89H121V85ZM129 85H133V89H129V85ZM1 89H5V93H1V89ZM5 89H9V93H5V89ZM13 89H17V93H13V89ZM17 89H21V93H17V89ZM21 89H25V93H21V89ZM25 89H29V93H25V89ZM33 89H37V93H33V89ZM37 89H41V93H37V89ZM41 89H45V93H41V89ZM45 89H49V93H45V89ZM49 89H53V93H49V89ZM53 89H57V93H53V89ZM57 89H61V93H57V89ZM73 89H77V93H73V89ZM77 89H81V93H77V89ZM85 89H89V93H85V89ZM89 89H93V93H89V89ZM93 89H97V93H93V89ZM97 89H101V93H97V89ZM101 89H105V93H101V89ZM105 89H109V93H105V89ZM109 89H113V93H109V89ZM113 89H117V93H113V89ZM129 89H133V93H129V89ZM13 93H17V97H13V93ZM21 93H25V97H21V93ZM33 93H37V97H33V93ZM37 93H41V97H37V93ZM49 93H53V97H49V93ZM61 93H65V97H61V93ZM69 93H73V97H69V93ZM81 93H85V97H81V93ZM101 93H105V97H101V93ZM109 93H113V97H109V93ZM117 93H121V97H117V93ZM125 93H129V97H125V93ZM129 93H133V97H129V93ZM1 97H5V101H1V97ZM5 97H9V101H5V97ZM13 97H17V101H13V97ZM17 97H21V101H17V97ZM25 97H29V101H25V97ZM33 97H37V101H33V97ZM37 97H41V101H37V97ZM45 97H49V101H45V97ZM49 97H53V101H49V97ZM57 97H61V101H57V97ZM65 97H69V101H65V97ZM69 97H73V101H69V97ZM73 97H77V101H73V97ZM81 97H85V101H81V97ZM93 97H97V101H93V97ZM97 97H101V101H97V97ZM101 97H105V101H101V97ZM105 97H109V101H105V97ZM109 97H113V101H109V97ZM113 97H117V101H113V97ZM117 97H121V101H117V97ZM125 97H129V101H125V97ZM33 101H37V105H33V101ZM41 101H45V105H41V101ZM45 101H49V105H45V101ZM57 101H61V105H57V101ZM65 101H69V105H65V101ZM73 101H77V105H73V101ZM77 101H81V105H77V101ZM85 101H89V105H85V101ZM93 101H97V105H93V101ZM97 101H101V105H97V101ZM113 101H117V105H113V101ZM129 101H133V105H129V101ZM1 105H5V109H1V105ZM5 105H9V109H5V105ZM9 105H13V109H9V105ZM13 105H17V109H13V105ZM17 105H21V109H17V105ZM21 105H25V109H21V105ZM25 105H29V109H25V105ZM45 105H49V109H45V105ZM61 105H65V109H61V105ZM65 105H69V109H65V105ZM77 105H81V109H77V105ZM85 105H89V109H85V105ZM97 105H101V109H97V105ZM105 105H109V109H105V105ZM113 105H117V109H113V105ZM117 105H121V109H117V105ZM121 105H125V109H121V105ZM129 105H133V109H129V105ZM1 109H5V113H1V109ZM25 109H29V113H25V109ZM37 109H41V113H37V109ZM53 109H57V113H53V109ZM57 109H61V113H57V109ZM73 109H77V113H73V109ZM81 109H85V113H81V109ZM89 109H93V113H89V109ZM93 109H97V113H93V109ZM97 109H101V113H97V109ZM113 109H117V113H113V109ZM117 109H121V113H117V109ZM125 109H129V113H125V109ZM129 109H133V113H129V109ZM1 113H5V117H1V113ZM9 113H13V117H9V113ZM13 113H17V117H13V113ZM17 113H21V117H17V113ZM25 113H29V117H25V113ZM45 113H49V117H45V113ZM53 113H57V117H53V113ZM65 113H69V117H65V113ZM73 113H77V117H73V113ZM77 113H81V117H77V113ZM93 113H97V117H93V113ZM97 113H101V117H97V113ZM101 113H105V117H101V113ZM105 113H109V117H105V113ZM109 113H113V117H109V113ZM113 113H117V117H113V113ZM1 117H5V121H1V117ZM9 117H13V121H9V117ZM13 117H17V121H13V117ZM17 117H21V121H17V117ZM25 117H29V121H25V117ZM37 117H41V121H37V117ZM45 117H49V121H45V117ZM49 117H53V121H49V117ZM65 117H69V121H65V117ZM69 117H73V121H69V117ZM77 117H81V121H77V117ZM85 117H89V121H85V117ZM89 117H93V121H89V117ZM101 117H105V121H101V117ZM109 117H113V121H109V117ZM113 117H117V121H113V117ZM121 117H125V121H121V117ZM129 117H133V121H129V117ZM1 121H5V125H1V121ZM9 121H13V125H9V121ZM13 121H17V125H13V121ZM17 121H21V125H17V121ZM25 121H29V125H25V121ZM33 121H37V125H33V121ZM41 121H45V125H41V121ZM53 121H57V125H53V121ZM57 121H61V125H57V121ZM65 121H69V125H65V121ZM77 121H81V125H77V121ZM81 121H85V125H81V121ZM85 121H89V125H85V121ZM93 121H97V125H93V121ZM97 121H101V125H97V121ZM109 121H113V125H109V121ZM113 121H117V125H113V121ZM121 121H125V125H121V121ZM125 121H129V125H125V121ZM129 121H133V125H129V121ZM1 125H5V129H1V125ZM25 125H29V129H25V125ZM33 125H37V129H33V125ZM53 125H57V129H53V125ZM57 125H61V129H57V125ZM61 125H65V129H61V125ZM69 125H73V129H69V125ZM81 125H85V129H81V125ZM93 125H97V129H93V125ZM97 125H101V129H97V125ZM101 125H105V129H101V125ZM109 125H113V129H109V125ZM113 125H117V129H113V125ZM117 125H121V129H117V125ZM1 129H5V133H1V129ZM5 129H9V133H5V129ZM9 129H13V133H9V129ZM13 129H17V133H13V129ZM17 129H21V133H17V129ZM21 129H25V133H21V129ZM25 129H29V133H25V129ZM53 129H57V133H53V129ZM57 129H61V133H57V129ZM61 129H65V133H61V129ZM77 129H81V133H77V129ZM81 129H85V133H81V129ZM93 129H97V133H93V129ZM97 129H101V133H97V129ZM109 129H113V133H109V129ZM113 129H117V133H113V129ZM117 129H121V133H117V129ZM129 129H133V133H129V129Z" fill="white" stroke="white" stroke-width="0.467008"/>
</svg>
