<svg width="168" height="56" viewBox="0 0 168 56" fill="none" xmlns="http://www.w3.org/2000/svg">
<path d="M154.188 0.000181999H13.3485C12.8351 0.000181999 12.3279 0.000181999 11.8159 0.00298199C11.3873 0.00578198 10.9621 0.013916 10.5294 0.0207619C9.58929 0.0318244 8.65142 0.114528 7.72391 0.268155C6.79771 0.425126 5.90052 0.721062 5.06269 1.14595C4.22589 1.57444 3.46127 2.13121 2.79659 2.79607C2.12842 3.45906 1.57144 4.22539 1.14709 5.06559C0.721558 5.90412 0.426495 6.80267 0.272089 7.73023C0.116215 8.65661 0.0323376 9.59368 0.0212099 10.533C0.00821797 10.9623 0.00684598 11.3929 0 11.8222V44.1821C0.00684598 44.6168 0.00821797 45.0379 0.0212099 45.4727C0.032341 46.412 0.116218 47.349 0.272089 48.2754C0.426069 49.2035 0.721149 50.1026 1.14709 50.9414C1.57125 51.7789 2.1283 52.5421 2.79659 53.2014C3.45875 53.8692 4.22386 54.4264 5.06269 54.8516C5.90052 55.2776 6.79761 55.5753 7.72391 55.7347C8.65158 55.8871 9.58935 55.9698 10.5294 55.9822C10.9621 55.9917 11.3873 55.9972 11.8159 55.9972C12.3279 56 12.8352 56 13.3485 56H154.188C154.691 56 155.203 56 155.706 55.9972C156.132 55.9972 156.57 55.9917 156.996 55.9822C157.935 55.9705 158.871 55.8878 159.796 55.7347C160.726 55.5742 161.626 55.2766 162.468 54.8516C163.306 54.4261 164.07 53.869 164.732 53.2014C165.399 52.5395 165.957 51.7769 166.386 50.9414C166.809 50.1019 167.101 49.2029 167.253 48.2754C167.409 47.3489 167.496 46.4121 167.513 45.4727C167.518 45.0379 167.518 44.6168 167.518 44.1821C167.529 43.6735 167.529 43.1676 167.529 42.6508V13.3507C167.529 12.838 167.529 12.3294 167.518 11.8222C167.518 11.3929 167.518 10.9623 167.513 10.533C167.496 9.59354 167.409 8.65668 167.253 7.73017C167.101 6.80315 166.809 5.90467 166.386 5.06553C165.522 3.38145 164.152 2.01061 162.468 1.14583C161.626 0.721974 160.726 0.426117 159.796 0.268029C158.871 0.113726 157.935 0.0309928 156.996 0.0205659C156.57 0.013734 156.132 0.00552998 155.706 0.00279999C155.203 0 154.691 0 154.188 0V0.000181999Z" fill="white"/>
<path d="M11.8227 54.7744C11.3961 54.7744 10.9799 54.769 10.5567 54.7595C9.67998 54.748 8.80532 54.6717 7.93989 54.5311C7.13292 54.3921 6.35118 54.1336 5.62046 53.7641C4.89644 53.3976 4.23608 52.917 3.66467 52.3408C3.08499 51.7714 2.60238 51.111 2.23596 50.3857C1.86551 49.6558 1.60913 48.8733 1.47576 48.0657C1.33174 47.1978 1.25381 46.3203 1.24266 45.4407C1.23379 45.1454 1.22217 44.1623 1.22217 44.1623V11.8217C1.22217 11.8217 1.23454 10.8537 1.24273 10.5693C1.25341 9.69106 1.33088 8.8149 1.47448 7.94841C1.60809 7.13854 1.86466 6.35384 2.23532 5.62148C2.60039 4.89672 3.08032 4.2358 3.65651 3.66435C4.23205 3.08747 4.89453 2.60445 5.61978 2.2329C6.34882 1.86454 7.12908 1.60783 7.93442 1.47139C8.80269 1.32938 9.68038 1.2526 10.5601 1.2417L11.8234 1.22461H155.699L156.977 1.24239C157.849 1.25275 158.719 1.32884 159.579 1.47001C160.392 1.60817 161.181 1.86667 161.918 2.237C163.371 2.98578 164.553 4.17043 165.299 5.62489C165.664 6.3522 165.917 7.1305 166.048 7.93337C166.194 8.80697 166.275 9.69002 166.292 10.5755C166.296 10.9719 166.296 11.3978 166.296 11.8217C166.307 12.3466 166.307 12.8463 166.307 13.3502V42.6502C166.307 43.1588 166.307 43.6551 166.296 44.1555C166.296 44.6107 166.296 45.0278 166.29 45.457C166.274 46.3267 166.194 47.194 166.051 48.0519C165.921 48.8654 165.666 49.654 165.295 50.3899C164.926 51.1073 164.446 51.762 163.873 52.3299C163.301 52.9092 162.64 53.3926 161.914 53.7614C161.179 54.1338 160.392 54.3933 159.579 54.5311C158.714 54.6725 157.839 54.7488 156.962 54.7595C156.552 54.769 156.123 54.7744 155.706 54.7744L154.188 54.7772L11.8227 54.7744Z" fill="#4BCFD0"/>
<path d="M34.6761 28.4222C34.6912 27.2537 35.0016 26.1079 35.5784 25.0916C36.1552 24.0753 36.9798 23.2214 37.9753 22.6093C37.3429 21.7061 36.5086 20.9628 35.5386 20.4384C34.5686 19.914 33.4898 19.6231 32.3877 19.5886C30.0368 19.3418 27.7576 20.9953 26.5597 20.9953C25.3385 20.9953 23.494 19.6131 21.5078 19.6539C20.223 19.6955 18.971 20.069 17.8735 20.7383C16.7761 21.4076 15.8708 22.3497 15.2457 23.473C12.5381 28.1607 14.5577 35.0502 17.1514 38.8394C18.449 40.6949 19.9656 42.7675 21.95 42.694C23.8919 42.6135 24.6172 41.4558 26.9612 41.4558C29.2834 41.4558 29.9639 42.694 31.9886 42.6473C34.0723 42.6135 35.3851 40.7836 36.6373 38.9105C37.5696 37.5884 38.2871 36.1272 38.7631 34.581C37.5525 34.069 36.5194 33.2119 35.7926 32.1167C35.0658 31.0215 34.6775 29.7366 34.6761 28.4222Z" fill="white"/>
<path d="M30.8523 17.0958C31.9884 15.7319 32.5482 13.9789 32.4126 12.209C30.6769 12.3913 29.0735 13.2209 27.922 14.5324C27.359 15.1732 26.9278 15.9186 26.6531 16.726C26.3783 17.5335 26.2654 18.3872 26.3208 19.2384C27.189 19.2473 28.0479 19.0591 28.8329 18.688C29.6178 18.3169 30.3083 17.7725 30.8523 17.0958Z" fill="white"/>
<path d="M59.2227 37.9957H52.596L51.0046 42.6947H48.1978L54.4745 25.3096H57.3907L63.6674 42.6947H60.8127L59.2227 37.9957ZM53.2823 35.8273H58.5351L55.9456 28.2012H55.8732L53.2823 35.8273Z" fill="white"/>
<path d="M77.2229 36.357C77.2229 40.2959 75.1147 42.8265 71.9332 42.8265C71.1273 42.8687 70.3258 42.683 69.6205 42.2908C68.9152 41.8987 68.3346 41.3158 67.9452 40.6089H67.885V46.887H65.2832V30.0187H67.8016V32.1269H67.8494C68.2568 31.4235 68.8472 30.8436 69.5579 30.449C70.2686 30.0545 71.0729 29.8599 71.8854 29.8861C75.1023 29.8861 77.2229 32.4291 77.2229 36.357ZM74.5486 36.357C74.5486 33.7908 73.2225 32.1037 71.199 32.1037C69.2112 32.1037 67.874 33.8264 67.874 36.357C67.874 38.9109 69.2112 40.6213 71.199 40.6213C73.2225 40.6213 74.5486 38.9465 74.5486 36.357Z" fill="white"/>
<path d="M91.174 36.357C91.174 40.2959 89.0658 42.8265 85.8844 42.8265C85.0785 42.8687 84.277 42.683 83.5717 42.2908C82.8664 41.8986 82.2858 41.3158 81.8963 40.6089H81.8361V46.887H79.2344V30.0187H81.7527V32.1269H81.8006C82.2079 31.4235 82.7983 30.8436 83.509 30.449C84.2197 30.0545 85.0241 29.8599 85.8365 29.8861C89.0535 29.8861 91.174 32.4291 91.174 36.357ZM88.4998 36.357C88.4998 33.7908 87.1736 32.1037 85.1502 32.1037C83.1623 32.1037 81.8252 33.8263 81.8252 36.357C81.8252 38.9109 83.1623 40.6213 85.1502 40.6213C87.1736 40.6213 88.4998 38.9465 88.4998 36.357H88.4998Z" fill="white"/>
<path d="M100.394 37.8506C100.587 39.5746 102.262 40.7066 104.551 40.7066C106.743 40.7066 108.321 39.5746 108.321 38.0201C108.321 36.6707 107.37 35.8627 105.117 35.309L102.863 34.7662C99.671 33.9951 98.189 32.5021 98.189 30.0795C98.189 27.0799 100.803 25.0195 104.515 25.0195C108.189 25.0195 110.707 27.0799 110.792 30.0795H108.165C108.008 28.3445 106.574 27.2973 104.478 27.2973C102.382 27.2973 100.948 28.3568 100.948 29.899C100.948 31.1281 101.864 31.8514 104.105 32.405L106.02 32.8753C109.587 33.7189 111.069 35.1517 111.069 37.6946C111.069 40.9472 108.478 42.9843 104.358 42.9843C100.502 42.9843 97.8991 40.995 97.731 37.8505L100.394 37.8506Z" fill="white"/>
<path d="M116.684 27.0195V30.0191H119.094V32.0795H116.684V39.0671C116.684 40.1527 117.167 40.6586 118.226 40.6586C118.512 40.6536 118.798 40.6335 119.082 40.5984V42.6464C118.606 42.7354 118.122 42.7757 117.637 42.7667C115.071 42.7667 114.07 41.8028 114.07 39.3446V32.0795H112.227V30.0191H114.07V27.0195H116.684Z" fill="white"/>
<path d="M120.49 36.3574C120.49 32.3693 122.839 29.8633 126.502 29.8633C130.177 29.8633 132.515 32.3693 132.515 36.3574C132.515 40.3564 130.189 42.8515 126.502 42.8515C122.816 42.8515 120.49 40.3564 120.49 36.3574ZM129.864 36.3574C129.864 33.6217 128.61 32.007 126.502 32.007C124.394 32.007 123.141 33.634 123.141 36.3574C123.141 39.1041 124.394 40.7064 126.502 40.7064C128.61 40.7064 129.864 39.1041 129.864 36.3574H129.864Z" fill="white"/>
<path d="M134.66 30.0186H137.141V32.176H137.201C137.369 31.5022 137.764 30.9068 138.319 30.4897C138.874 30.0727 139.556 29.8595 140.25 29.886C140.55 29.8849 140.849 29.9175 141.142 29.9831V32.4167C140.763 32.301 140.368 32.2479 139.973 32.2594C139.595 32.2441 139.218 32.3107 138.868 32.4548C138.518 32.5988 138.204 32.8168 137.946 33.0939C137.689 33.3709 137.494 33.7004 137.376 34.0598C137.258 34.4191 137.219 34.7998 137.261 35.1756V42.6938H134.66L134.66 30.0186Z" fill="white"/>
<path d="M153.137 38.9715C152.787 41.2724 150.547 42.8515 147.68 42.8515C143.992 42.8515 141.704 40.381 141.704 36.4176C141.704 32.4418 144.005 29.8633 147.57 29.8633C151.077 29.8633 153.282 32.2723 153.282 36.1154V37.0068H144.33V37.164C144.289 37.6305 144.347 38.1004 144.501 38.5426C144.656 38.9848 144.902 39.3891 145.225 39.7287C145.547 40.0682 145.938 40.3353 146.372 40.5121C146.805 40.6889 147.272 40.7715 147.74 40.7543C148.355 40.8119 148.972 40.6695 149.499 40.3482C150.026 40.027 150.436 39.5442 150.667 38.9714L153.137 38.9715ZM144.342 35.1885H150.679C150.703 34.769 150.639 34.3493 150.492 33.9556C150.346 33.5619 150.119 33.2028 149.828 32.9007C149.536 32.5986 149.184 32.3601 148.796 32.2002C148.408 32.0403 147.99 31.9625 147.57 31.9715C147.147 31.9689 146.727 32.0504 146.334 32.211C145.942 32.3716 145.586 32.6083 145.286 32.9074C144.986 33.2065 144.748 33.5621 144.586 33.9536C144.424 34.3451 144.341 34.7648 144.342 35.1885V35.1885Z" fill="white"/>
<path d="M52.9568 12.2243C53.5023 12.1852 54.0496 12.2676 54.5594 12.4656C55.0691 12.6636 55.5286 12.9723 55.9046 13.3693C56.2806 13.7664 56.5638 14.242 56.7338 14.7618C56.9038 15.2815 56.9562 15.8326 56.8875 16.3751C56.8875 19.0438 55.4451 20.5779 52.9568 20.5779H49.9395V12.2243H52.9568ZM51.2369 19.3965H52.8119C53.2017 19.4198 53.5917 19.3559 53.9537 19.2094C54.3156 19.063 54.6404 18.8376 54.9043 18.5499C55.1681 18.2621 55.3645 17.9191 55.4791 17.5458C55.5938 17.1725 55.6237 16.7784 55.5668 16.3921C55.6196 16.0073 55.5866 15.6157 55.4702 15.2451C55.3539 14.8746 55.157 14.5344 54.8937 14.2489C54.6304 13.9634 54.3072 13.7397 53.9473 13.5937C53.5874 13.4478 53.1997 13.3833 52.8119 13.4048H51.2369V19.3965Z" fill="white"/>
<path d="M58.3529 17.4223C58.3133 17.008 58.3607 16.59 58.4921 16.1951C58.6234 15.8002 58.8359 15.4371 59.1158 15.1292C59.3957 14.8212 59.7369 14.5751 60.1175 14.4067C60.4981 14.2383 60.9097 14.1514 61.3259 14.1514C61.742 14.1514 62.1536 14.2383 62.5342 14.4067C62.9148 14.5751 63.256 14.8212 63.5359 15.1292C63.8158 15.4371 64.0283 15.8002 64.1597 16.1951C64.2911 16.59 64.3384 17.008 64.2988 17.4223C64.3392 17.837 64.2924 18.2556 64.1613 18.6511C64.0303 19.0466 63.818 19.4104 63.538 19.719C63.258 20.0275 62.9165 20.2741 62.5356 20.4429C62.1546 20.6116 61.7425 20.6988 61.3259 20.6988C60.9092 20.6988 60.4971 20.6116 60.1162 20.4429C59.7352 20.2741 59.3937 20.0275 59.1138 19.719C58.8338 19.4104 58.6214 19.0466 58.4904 18.6511C58.3594 18.2556 58.3125 17.837 58.3529 17.4223ZM63.0191 17.4223C63.0191 16.0558 62.4052 15.2567 61.3279 15.2567C60.2465 15.2567 59.6381 16.0558 59.6381 17.4223C59.6381 18.7997 60.2465 19.5927 61.3279 19.5927C62.4053 19.5927 63.0191 18.7943 63.0191 17.4223H63.0191Z" fill="white"/>
<path d="M72.2027 20.5775H70.9121L69.6092 15.9346H69.5107L68.2133 20.5775H66.935L65.1973 14.2734H66.4592L67.5885 19.0838H67.6814L68.9775 14.2734H70.1711L71.4672 19.0838H71.5656L72.6894 14.2734H73.9336L72.2027 20.5775Z" fill="white"/>
<path d="M75.395 14.2724H76.5927V15.2739H76.6856C76.8434 14.9142 77.1094 14.6127 77.4466 14.4113C77.7838 14.21 78.1754 14.1189 78.5669 14.1507C78.8736 14.1277 79.1816 14.1739 79.4681 14.2861C79.7545 14.3982 80.012 14.5733 80.2216 14.7985C80.4311 15.0237 80.5874 15.2931 80.6786 15.5869C80.7699 15.8806 80.7939 16.1912 80.7489 16.4954V20.5764H79.5048V16.8079C79.5048 15.7948 79.0645 15.291 78.1444 15.291C77.9362 15.2813 77.7283 15.3167 77.535 15.3949C77.3417 15.473 77.1676 15.5921 77.0246 15.7438C76.8817 15.8956 76.7732 16.0764 76.7067 16.274C76.6401 16.4716 76.6171 16.6812 76.6392 16.8885V20.5765H75.395L75.395 14.2724Z" fill="white"/>
<path d="M82.7314 11.8125H83.9756V20.5775H82.7314V11.8125Z" fill="white"/>
<path d="M85.7045 17.4224C85.6649 17.0081 85.7123 16.5901 85.8437 16.1952C85.9751 15.8003 86.1876 15.4372 86.4675 15.1292C86.7475 14.8212 87.0887 14.5751 87.4693 14.4067C87.8499 14.2384 88.2615 14.1514 88.6777 14.1514C89.0939 14.1514 89.5056 14.2384 89.8862 14.4067C90.2668 14.5751 90.608 14.8212 90.888 15.1292C91.1679 15.4372 91.3804 15.8003 91.5118 16.1952C91.6432 16.5901 91.6906 17.0081 91.651 17.4224C91.6914 17.8371 91.6445 18.2557 91.5134 18.6512C91.3823 19.0468 91.17 19.4105 90.89 19.7191C90.6099 20.0276 90.2685 20.2742 89.8875 20.443C89.5065 20.6117 89.0944 20.6989 88.6777 20.6989C88.2611 20.6989 87.849 20.6117 87.468 20.443C87.087 20.2742 86.7455 20.0276 86.4655 19.7191C86.1855 19.4105 85.9731 19.0468 85.8421 18.6512C85.711 18.2557 85.6641 17.8371 85.7045 17.4224ZM90.3706 17.4224C90.3706 16.0559 89.7568 15.2568 88.6794 15.2568C87.598 15.2568 86.9897 16.0559 86.9897 17.4224C86.9897 18.7999 87.598 19.5928 88.6794 19.5928C89.7568 19.5928 90.3707 18.7944 90.3707 17.4224H90.3706Z" fill="white"/>
<path d="M92.9614 18.7943C92.9614 17.6595 93.8063 17.0054 95.3061 16.9124L97.0138 16.8139V16.2698C97.0138 15.604 96.5735 15.228 95.7231 15.228C95.0286 15.228 94.5474 15.483 94.4093 15.9287H93.2048C93.3319 14.8459 94.3505 14.1514 95.7806 14.1514C97.361 14.1514 98.2524 14.9382 98.2524 16.2698V20.5771H97.0548V19.6912H96.9563C96.7565 20.009 96.476 20.268 96.1433 20.4419C95.8106 20.6158 95.4378 20.6983 95.0628 20.681C94.7981 20.7085 94.5307 20.6803 94.2776 20.5981C94.0245 20.5159 93.7915 20.3816 93.5935 20.2039C93.3955 20.0261 93.237 19.8088 93.1281 19.5661C93.0193 19.3233 92.9625 19.0604 92.9614 18.7943ZM97.0138 18.2556V17.7286L95.4743 17.827C94.6061 17.8851 94.2124 18.1804 94.2124 18.7362C94.2124 19.3036 94.7046 19.6337 95.3814 19.6337C95.5797 19.6538 95.78 19.6338 95.9704 19.5749C96.1608 19.5159 96.3374 19.4193 96.4897 19.2907C96.642 19.1622 96.7669 19.0043 96.8569 18.8264C96.947 18.6486 97.0003 18.4545 97.0138 18.2556Z" fill="white"/>
<path d="M99.8872 17.4228C99.8872 15.4308 100.911 14.1689 102.504 14.1689C102.898 14.1507 103.289 14.2451 103.631 14.4409C103.974 14.6368 104.253 14.926 104.437 15.2749H104.53V11.8125H105.774V20.5775H104.582V19.5815H104.484C104.285 19.928 103.996 20.2136 103.647 20.4075C103.298 20.6014 102.903 20.6961 102.504 20.6814C100.9 20.6815 99.8872 19.4195 99.8872 17.4228ZM101.172 17.4228C101.172 18.7599 101.803 19.5645 102.857 19.5645C103.905 19.5645 104.553 18.7483 104.553 17.4282C104.553 16.1144 103.899 15.2865 102.857 15.2865C101.809 15.2865 101.172 16.0966 101.172 17.4228H101.172Z" fill="white"/>
<path d="M110.922 17.4223C110.882 17.008 110.93 16.59 111.061 16.1951C111.192 15.8002 111.405 15.4371 111.685 15.1292C111.965 14.8212 112.306 14.5751 112.686 14.4067C113.067 14.2383 113.479 14.1514 113.895 14.1514C114.311 14.1514 114.722 14.2383 115.103 14.4067C115.484 14.5751 115.825 14.8212 116.105 15.1292C116.385 15.4371 116.597 15.8002 116.729 16.1951C116.86 16.59 116.907 17.008 116.868 17.4223C116.908 17.837 116.861 18.2556 116.73 18.6511C116.599 19.0466 116.387 19.4104 116.107 19.719C115.827 20.0275 115.485 20.2741 115.104 20.4429C114.723 20.6116 114.311 20.6988 113.895 20.6988C113.478 20.6988 113.066 20.6116 112.685 20.4429C112.304 20.2741 111.963 20.0275 111.683 19.719C111.403 19.4104 111.19 19.0466 111.059 18.6511C110.928 18.2556 110.881 17.837 110.922 17.4223ZM115.588 17.4223C115.588 16.0558 114.974 15.2567 113.897 15.2567C112.815 15.2567 112.207 16.0558 112.207 17.4223C112.207 18.7997 112.815 19.5927 113.897 19.5927C114.974 19.5927 115.588 18.7943 115.588 17.4223Z" fill="white"/>
<path d="M118.537 14.2724H119.735V15.2739H119.828C119.985 14.9142 120.251 14.6127 120.589 14.4113C120.926 14.21 121.318 14.1189 121.709 14.1507C122.016 14.1277 122.324 14.1739 122.61 14.2861C122.897 14.3982 123.154 14.5733 123.364 14.7985C123.573 15.0237 123.729 15.2931 123.821 15.5869C123.912 15.8806 123.936 16.1912 123.891 16.4954V20.5764H122.647V16.8079C122.647 15.7948 122.207 15.291 121.287 15.291C121.078 15.2813 120.87 15.3167 120.677 15.3949C120.484 15.473 120.31 15.5921 120.167 15.7438C120.024 15.8956 119.915 16.0764 119.849 16.274C119.782 16.4716 119.759 16.6812 119.781 16.8885V20.5765H118.537V14.2724Z" fill="white"/>
<path d="M130.921 12.7041V14.3023H132.287V15.3503H130.921V18.5919C130.921 19.2522 131.193 19.5414 131.812 19.5414C131.971 19.5409 132.129 19.5313 132.287 19.5127V20.549C132.063 20.589 131.837 20.6102 131.61 20.6126C130.227 20.6126 129.676 20.1258 129.676 18.9104V15.3502H128.675V14.3023H129.676V12.7041H130.921Z" fill="white"/>
<path d="M133.986 11.8125H135.22V15.2865H135.318C135.483 14.9235 135.757 14.6202 136.101 14.4182C136.445 14.2161 136.843 14.125 137.24 14.1572C137.545 14.1406 137.85 14.1916 138.134 14.3064C138.417 14.4213 138.671 14.5972 138.878 14.8217C139.086 15.0462 139.241 15.3136 139.333 15.605C139.425 15.8964 139.452 16.2045 139.411 16.5074V20.5775H138.166V16.8143C138.166 15.8074 137.697 15.2974 136.818 15.2974C136.604 15.2799 136.389 15.3093 136.188 15.3836C135.986 15.4578 135.804 15.5752 135.653 15.7274C135.501 15.8797 135.385 16.0631 135.312 16.2649C135.239 16.4667 135.212 16.682 135.231 16.8957V20.5775H133.986L133.986 11.8125Z" fill="white"/>
<path d="M146.666 18.8751C146.497 19.4512 146.13 19.9496 145.631 20.283C145.132 20.6164 144.531 20.7636 143.934 20.6989C143.519 20.7099 143.106 20.6303 142.725 20.4658C142.343 20.3012 142.002 20.0556 141.725 19.7461C141.448 19.4365 141.241 19.0703 141.12 18.6729C140.999 18.2756 140.965 17.8566 141.022 17.445C140.967 17.0322 141.001 16.6123 141.122 16.2137C141.243 15.8152 141.448 15.4473 141.724 15.135C141.999 14.8227 142.339 14.5733 142.719 14.4036C143.1 14.2339 143.512 14.1479 143.929 14.1515C145.683 14.1515 146.741 15.3499 146.741 17.3295V17.7636H142.289V17.8333C142.27 18.0646 142.299 18.2975 142.375 18.517C142.451 18.7364 142.571 18.9376 142.729 19.1076C142.887 19.2777 143.079 19.4128 143.293 19.5044C143.506 19.5959 143.736 19.6419 143.968 19.6393C144.266 19.675 144.567 19.6214 144.834 19.4854C145.102 19.3493 145.322 19.1368 145.468 18.875L146.666 18.8751ZM142.289 16.8435H145.474C145.489 16.6319 145.46 16.4194 145.389 16.2196C145.318 16.0197 145.205 15.8371 145.059 15.6833C144.913 15.5295 144.736 15.4079 144.541 15.3265C144.345 15.2451 144.134 15.2055 143.922 15.2104C143.707 15.2077 143.493 15.2481 143.294 15.3292C143.094 15.4103 142.913 15.5305 142.761 15.6827C142.609 15.8349 142.489 16.016 142.408 16.2154C142.327 16.4147 142.287 16.6283 142.289 16.8435H142.289Z" fill="white"/>
</svg>
