<svg width="600" height="600" viewBox="0 0 600 600" fill="none" xmlns="http://www.w3.org/2000/svg">
<g clip-path="url(#clip0)">
<rect width="600" height="600" fill="white"/>
<path d="M408.173 485.471C511.024 428.261 548.22 298.858 491.251 196.442C434.283 94.025 304.724 57.3779 201.873 114.588C99.0217 171.798 61.8265 301.201 118.795 403.617C175.763 506.034 305.323 542.681 408.173 485.471Z" fill="#E4FAF9"/>
<path fill-rule="evenodd" clip-rule="evenodd" d="M520.624 46.7026C521.724 58.4026 532.024 67.1026 543.624 66.0026C555.324 64.9026 563.924 54.6026 562.824 42.9026C561.724 31.2026 551.424 22.5026 539.824 23.6026C528.224 24.6026 519.624 35.0026 520.624 46.7026Z" fill="#8ED9FF"/>
<path fill-rule="evenodd" clip-rule="evenodd" d="M585.724 570.402C596.924 566.702 603.024 554.702 599.324 543.602C595.724 532.502 583.624 526.402 572.424 530.102C561.224 533.802 555.124 545.802 558.824 556.902C562.524 568.002 574.624 574.102 585.724 570.402Z" fill="#51CB4D"/>
<path fill-rule="evenodd" clip-rule="evenodd" d="M449.324 63.9019C448.124 68.5019 450.824 73.1019 455.324 74.3019C459.824 75.5019 464.524 72.8019 465.724 68.2019C466.924 63.6019 464.224 59.0019 459.724 57.8019C455.224 56.7019 450.524 59.4019 449.324 63.9019Z" fill="#EF3C48"/>
<path opacity="0.93" fill-rule="evenodd" clip-rule="evenodd" d="M95.3242 478.203C94.1242 482.803 96.8242 487.403 101.324 488.603C105.824 489.803 110.524 487.103 111.724 482.503C112.924 477.903 110.224 473.303 105.724 472.103C101.224 471.003 96.5242 473.703 95.3242 478.203Z" fill="#528AFF"/>
<path opacity="0.93" fill-rule="evenodd" clip-rule="evenodd" d="M451.824 548.602L450.524 580.202C450.524 581.402 449.524 582.302 448.324 582.202C447.924 582.202 447.624 582.102 447.324 581.902L420.924 565.502C419.924 564.902 419.624 563.602 420.224 562.602C420.424 562.302 420.724 562.002 421.024 561.902L448.724 546.702C449.724 546.102 451.024 546.502 451.624 547.502C451.724 547.802 451.824 548.202 451.824 548.602Z" fill="#528AFF"/>
<path fill-rule="evenodd" clip-rule="evenodd" d="M97.025 46.0019L103.525 76.9019C103.725 78.0019 103.025 79.2019 101.925 79.4019C101.525 79.5019 101.225 79.5019 100.825 79.3019L71.225 69.9019C70.125 69.5019 69.525 68.3019 69.825 67.2019C69.925 66.9019 70.125 66.5019 70.425 66.3019L93.525 44.8019C94.425 44.0019 95.725 44.0019 96.525 44.9019C96.725 45.3019 96.925 45.6019 97.025 46.0019Z" fill="#F9D222"/>
<path fill-rule="evenodd" clip-rule="evenodd" d="M525.224 106.602L531.724 137.502C531.924 138.602 531.224 139.802 530.124 140.002C529.724 140.102 529.424 140.102 529.024 139.902L499.424 130.502C498.324 130.102 497.724 128.902 498.024 127.802C498.124 127.502 498.324 127.102 498.624 126.902L521.724 105.502C522.624 104.702 523.924 104.702 524.724 105.602C525.024 105.902 525.124 106.202 525.224 106.602Z" fill="#F9D222"/>
<path fill-rule="evenodd" clip-rule="evenodd" d="M22.2243 463.202L12.1243 433.202C11.7243 432.102 12.3243 430.902 13.4243 430.502C13.7243 430.402 14.1243 430.402 14.5243 430.402L45.0243 436.302C46.2243 436.502 46.9243 437.602 46.7243 438.802C46.6243 439.202 46.5243 439.502 46.2243 439.802L25.8243 463.902C25.0243 464.802 23.7243 464.902 22.8243 464.102C22.5243 463.902 22.3243 463.502 22.2243 463.202Z" fill="#EF3C48"/>
<path d="M424.525 171.103H185.625C185.625 154.003 199.525 140.103 216.625 140.103H393.525C410.625 140.103 424.525 154.003 424.525 171.103Z" fill="#88E2E3"/>
<path d="M394.324 230.902H215.824C207.224 230.902 200.324 237.802 200.324 246.402V415.202C200.324 423.802 207.224 430.702 215.824 430.702H394.224C402.824 430.702 409.724 423.802 409.724 415.202V246.402C409.724 237.802 402.824 230.902 394.324 230.902Z" fill="#88E2E3"/>
<path opacity="0.5" d="M353.925 284.603H256.225C247.625 284.603 240.725 291.503 240.725 300.103V368.603C240.725 377.203 247.625 384.103 256.225 384.103H353.925C362.525 384.103 369.425 377.203 369.425 368.603V300.103C369.425 291.503 362.525 284.603 353.925 284.603Z" fill="#66AAAA"/>
<path d="M353.925 397.603H256.225C247.625 397.603 240.725 404.503 240.725 413.103V414.703C240.725 423.303 247.625 430.203 256.225 430.203H353.925C362.525 430.203 369.425 423.303 369.425 414.703V413.103C369.425 404.603 362.525 397.603 353.925 397.603Z" fill="#77C6C6"/>
<path opacity="0.3" d="M305.025 141.202H216.525C199.725 141.202 186.025 154.602 185.625 171.302L160.625 231.502V236.002C160.625 251.702 173.325 264.402 189.025 264.402H189.725C193.425 264.402 197.025 263.702 200.325 262.402V415.202C200.325 423.802 207.225 430.702 215.825 430.702H305.025V141.202Z" fill="#66AAAA"/>
<path opacity="0.2" d="M305.025 397.603H256.125C247.525 397.603 240.625 404.503 240.625 413.103V414.703C240.625 423.303 247.525 430.203 256.125 430.203H305.025V397.603Z" fill="#66AAAA"/>
<path opacity="0.2" d="M305.025 284.603H256.125C247.525 284.603 240.625 291.503 240.625 300.103V368.603C240.625 377.203 247.525 384.103 256.125 384.103H305.025V284.603Z" fill="#66AAAA"/>
<path d="M233.925 171.103L218.225 231.503H275.825L280.525 171.103H233.925Z" fill="white"/>
<path d="M185.725 171.103L160.725 231.503H218.225L233.925 171.103H185.725Z" fill="#EF3C48"/>
<path d="M449.424 231.503L424.624 171.103H376.924L391.424 231.503H449.424Z" fill="#EF3C48"/>
<path d="M280.524 171.103L275.824 231.503H332.724L329.824 171.103H280.524Z" fill="#EF3C48"/>
<path d="M376.924 171.103H329.824L332.724 231.503H391.424L376.924 171.103Z" fill="white"/>
<path d="M189.825 264.403H189.125C173.425 264.403 160.725 251.703 160.725 236.003V231.503H218.325V236.003C218.225 251.703 205.525 264.403 189.825 264.403Z" fill="#D50917"/>
<path d="M419.826 264.403H421.026C436.726 264.403 449.426 251.703 449.426 236.003V231.503H391.426V236.003C391.426 251.703 404.126 264.403 419.826 264.403Z" fill="#D50917"/>
<path d="M304.324 264.403C320.024 264.403 332.724 251.703 332.724 236.003V231.503H275.924V236.003C275.824 251.703 288.624 264.403 304.324 264.403Z" fill="#D50917"/>
<path d="M247.425 264.403H246.625C230.925 264.403 218.225 251.703 218.225 236.003V231.503H275.825V236.003C275.825 251.703 263.125 264.403 247.425 264.403Z" fill="#EAEAEA"/>
<path d="M361.125 264.403H363.025C378.725 264.403 391.425 251.703 391.425 236.003V231.503H332.725V236.003C332.725 251.703 345.425 264.403 361.125 264.403Z" fill="#EAEAEA"/>
<path d="M414.925 328.102L432.425 319.502C436.725 317.402 442.025 319.102 444.225 323.302L453.325 340.502C454.625 342.902 456.925 344.602 459.625 345.102L478.825 348.502C483.525 349.302 486.825 353.802 486.125 358.502L483.425 377.802C483.025 380.502 483.925 383.302 485.825 385.302L499.425 399.302C502.725 402.802 502.725 408.302 499.425 411.702L485.825 425.702C483.925 427.702 483.025 430.402 483.425 433.202L486.125 452.502C486.825 457.302 483.525 461.702 478.825 462.502L459.625 465.902C456.925 466.402 454.525 468.102 453.325 470.502L444.225 487.702C441.925 492.002 436.725 493.702 432.425 491.502L414.925 482.902C412.425 481.702 409.525 481.702 407.125 482.902L389.625 491.502C385.325 493.602 380.025 491.902 377.825 487.702L368.725 470.502C367.425 468.102 365.125 466.402 362.425 465.902L343.225 462.502C338.525 461.702 335.225 457.202 335.925 452.502L338.625 433.202C339.025 430.502 338.125 427.702 336.225 425.702L322.625 411.702C319.325 408.202 319.325 402.702 322.625 399.302L336.225 385.302C338.125 383.302 339.025 380.602 338.625 377.802L335.925 358.502C335.225 353.702 338.525 349.302 343.225 348.502L362.425 345.102C365.125 344.602 367.525 342.902 368.725 340.502L377.825 323.302C380.125 319.002 385.325 317.302 389.625 319.502L407.125 328.102C409.525 329.302 412.425 329.302 414.925 328.102Z" fill="#FADB4E"/>
<path d="M407.026 483.102L389.526 491.702C385.226 493.802 379.926 492.102 377.726 487.902L368.626 470.702C367.326 468.302 365.026 466.602 362.326 466.102L343.126 462.702C338.426 461.902 335.126 457.402 335.826 452.702L338.526 433.402C338.926 430.702 338.026 427.902 336.126 425.902L322.526 411.902C319.226 408.402 319.226 402.902 322.526 399.502L336.126 385.502C338.026 383.502 338.926 380.802 338.526 378.002L335.826 358.702C335.126 353.902 338.426 349.502 343.126 348.702L362.326 345.302C365.026 344.802 367.426 343.102 368.626 340.702L377.726 323.502C380.026 319.202 385.226 317.502 389.526 319.702L407.026 328.302" fill="#F9D222"/>
<path d="M402.726 430.702C402.126 430.102 401.826 429.302 401.826 428.502C401.826 426.302 401.926 424.602 402.026 423.502C402.526 418.602 403.926 414.202 406.326 410.502C408.726 406.702 412.026 402.502 416.226 398.002C419.526 394.402 421.926 391.502 423.426 389.202C425.026 386.902 425.926 384.502 426.026 382.002C426.426 377.702 425.126 374.302 422.226 371.802C419.326 369.302 415.826 368.002 411.726 368.002C402.426 368.002 396.826 373.102 394.926 383.202C394.226 385.602 392.826 386.802 390.726 386.802H378.226C377.226 386.802 376.526 386.402 375.826 385.702C375.226 385.002 374.926 384.002 374.926 382.902C375.126 377.202 376.726 371.802 379.726 366.702C382.726 361.702 387.026 357.602 392.726 354.602C398.326 351.502 405.026 350.002 412.626 350.002C420.526 350.002 427.126 351.402 432.226 354.102C437.326 356.902 441.026 360.402 443.426 364.702C445.726 369.002 446.926 373.402 446.926 378.002C446.926 383.202 445.826 387.802 443.726 391.602C441.526 395.502 438.426 399.902 434.226 404.902C431.126 408.402 428.826 411.502 427.126 414.102C425.426 416.702 424.326 419.402 423.726 422.302C423.326 424.902 423.126 426.702 423.026 427.602C422.526 429.002 422.026 430.002 421.426 430.602C420.826 431.202 420.026 431.502 419.026 431.502H404.826C404.026 431.702 403.226 431.302 402.726 430.702ZM401.926 460.202C401.226 459.502 400.926 458.602 400.926 457.502V443.502C400.926 442.502 401.226 441.602 401.926 440.802C402.626 440.102 403.426 439.702 404.326 439.702H418.526C419.526 439.702 420.326 440.102 421.026 440.802C421.726 441.502 422.126 442.402 422.126 443.502V457.502C422.126 458.502 421.826 459.402 421.126 460.202C420.426 460.902 419.626 461.302 418.526 461.302H404.326C403.426 461.302 402.626 460.902 401.926 460.202Z" fill="white"/>
</g>
<defs>
<clipPath id="clip0">
<rect width="600" height="600" fill="white"/>
</clipPath>
</defs>
</svg>
