<svg width="600" height="600" viewBox="0 0 600 600" fill="none" xmlns="http://www.w3.org/2000/svg">
<g clip-path="url(#clip0)">
<rect width="600" height="600" fill="white"/>
<path d="M423.554 457.99C518.225 388.069 538.529 254.965 468.903 160.693C399.278 66.4218 266.089 46.6816 171.418 116.602C76.7463 186.523 56.4426 319.627 126.068 413.899C195.693 508.17 328.882 527.91 423.554 457.99Z" fill="#E4FAF9"/>
<path fill-rule="evenodd" clip-rule="evenodd" d="M595.503 405.882C593.003 394.382 581.603 387.182 570.203 389.682C558.803 392.182 551.603 403.582 554.103 415.082C556.603 426.582 568.003 433.782 579.403 431.282C590.803 428.782 598.003 417.382 595.503 405.882Z" fill="#8ED9FF"/>
<path fill-rule="evenodd" clip-rule="evenodd" d="M36.7027 379.783C26.0027 384.883 21.5027 397.483 26.6027 408.083C31.6027 418.683 44.3027 423.083 55.0027 418.083C65.6027 412.983 70.1027 400.383 65.1027 389.783C60.0027 379.183 47.3027 374.683 36.7027 379.783Z" fill="#51CB4D"/>
<path fill-rule="evenodd" clip-rule="evenodd" d="M91.2025 73.6822C91.8025 68.9822 88.5025 64.7822 83.9025 64.0822C79.3025 63.4822 75.0025 66.7822 74.4025 71.3822C73.8025 76.0822 77.1025 80.2822 81.7025 80.9822C86.3025 81.6822 90.6025 78.3822 91.2025 73.6822Z" fill="#EF3C48"/>
<path opacity="0.93" fill-rule="evenodd" clip-rule="evenodd" d="M401.203 530.482C401.803 525.782 398.502 521.582 393.902 520.882C389.302 520.282 385.002 523.582 384.402 528.182C383.802 532.882 387.103 537.082 391.703 537.782C396.403 538.382 400.603 535.082 401.203 530.482Z" fill="#528AFF"/>
<path opacity="0.93" fill-rule="evenodd" clip-rule="evenodd" d="M382.403 65.5822L379.703 34.0822C379.603 32.8822 380.503 31.8822 381.603 31.7822C382.003 31.7822 382.303 31.7822 382.703 31.9822L411.003 44.8822C412.103 45.3822 412.503 46.5822 412.103 47.6822C411.903 47.9822 411.703 48.2822 411.403 48.4822L385.903 67.0822C385.003 67.7822 383.603 67.5822 382.903 66.5822C382.603 66.3822 382.403 65.9822 382.403 65.5822Z" fill="#528AFF"/>
<path fill-rule="evenodd" clip-rule="evenodd" d="M497.102 561.282L486.702 531.482C486.302 530.382 486.902 529.182 488.002 528.782C488.302 528.682 488.702 528.682 489.102 528.682L519.702 534.182C520.902 534.382 521.602 535.482 521.402 536.682C521.302 537.082 521.202 537.382 520.902 537.682L500.702 561.982C499.902 562.882 498.602 562.982 497.702 562.282C497.402 561.982 497.202 561.682 497.102 561.282Z" fill="#F9D222"/>
<path fill-rule="evenodd" clip-rule="evenodd" d="M193.603 530.582L207.403 558.982C207.903 560.082 207.503 561.282 206.403 561.782C206.103 561.982 205.703 561.982 205.303 561.982L174.303 560.082C173.103 559.982 172.203 558.982 172.303 557.782C172.303 557.382 172.403 557.082 172.603 556.782L189.803 530.282C190.403 529.282 191.803 528.982 192.703 529.682C193.103 529.882 193.403 530.182 193.603 530.582Z" fill="#EF3C48"/>
<path d="M272.704 75.2825L142.204 90.3825C128.604 91.9825 118.804 104.283 120.404 117.983L157.404 436.083C159.004 449.683 171.304 459.483 185.004 457.883L315.504 442.683C329.104 441.083 338.904 428.783 337.304 415.083L300.304 96.9825C298.704 83.4825 286.304 73.6825 272.704 75.2825Z" fill="#CCF8F6"/>
<path d="M279.303 66.8821L148.803 82.0821C135.203 83.6821 125.403 95.9821 127.003 109.682L164.003 427.782C165.603 441.382 177.903 451.182 191.603 449.582L322.103 434.382C335.703 432.782 345.503 420.482 343.903 406.782L306.903 88.6821C305.303 75.0821 292.903 65.2821 279.303 66.8821Z" fill="#89A6B7"/>
<path d="M280.704 78.382L259.804 80.782L260.504 86.582C260.804 89.382 258.804 91.882 256.004 92.282L177.304 101.382C174.504 101.682 172.004 99.682 171.604 96.882L170.904 91.082L150.104 93.582C142.804 94.382 137.604 100.982 138.504 108.282L175.504 426.382C176.304 433.682 182.904 438.882 190.204 437.982L320.704 422.782C328.004 421.982 333.204 415.382 332.304 408.082L295.304 89.982C294.504 82.782 287.904 77.582 280.704 78.382Z" fill="#E9EEF2"/>
<path d="M361.202 102.782L244.402 115.982C229.802 117.382 219.102 130.382 220.502 144.982L226.002 202.582C227.402 217.182 240.402 227.882 255.002 226.482L267.602 225.282C268.202 225.182 268.702 225.682 268.802 226.282L271.502 254.682C271.802 258.082 276.102 259.282 278.202 256.582L305.002 221.982C305.202 221.782 305.502 221.582 305.802 221.582L371.902 213.282C386.502 211.882 397.202 198.882 395.802 184.282L390.302 126.682C388.802 112.082 375.802 101.382 361.202 102.782Z" fill="#F9D222"/>
<path d="M278.903 214.282C278.803 213.682 278.303 213.182 277.703 213.282L265.503 214.482C251.303 215.882 238.703 204.482 237.203 189.082L231.403 128.382C231.103 125.782 231.203 123.182 231.603 120.782C224.103 126.082 219.503 135.182 220.403 145.082L225.903 202.682C227.303 217.282 240.303 227.982 254.903 226.582L267.503 225.382C268.103 225.282 268.603 225.782 268.703 226.382L271.403 254.782C271.703 258.182 276.003 259.382 278.103 256.682L282.303 251.182L278.903 214.282Z" fill="#F4A400"/>
<path d="M335.303 137.783C327.903 131.683 317.003 132.783 311.003 140.083L307.603 144.283C306.803 145.283 305.303 145.383 304.303 144.583L300.203 141.183C292.803 135.083 281.903 136.183 275.903 143.483C269.803 150.883 270.903 161.783 278.203 167.783L309.003 193.183C310.003 193.983 311.503 193.883 312.303 192.883L337.703 161.983C343.703 154.683 342.703 143.783 335.303 137.783Z" fill="#EF3C48"/>
<path opacity="0.35" d="M287.203 166.982C279.803 160.882 278.803 149.982 284.903 142.682C286.903 140.282 289.403 138.582 292.103 137.482C286.203 136.482 279.903 138.582 275.903 143.482C269.803 150.882 270.903 161.782 278.203 167.782L309.003 193.182C310.003 193.982 311.503 193.882 312.303 192.882L314.903 189.782L287.203 166.982Z" fill="#A21922"/>
<path d="M107.103 268.182L223.803 254.182C238.403 252.182 251.803 262.382 253.703 276.982L261.503 334.382C263.503 348.982 253.303 362.382 238.703 364.282L226.103 365.982C225.503 366.082 225.103 366.582 225.203 367.182L229.103 395.482C229.603 398.782 225.703 400.982 223.103 398.882L189.103 371.382C188.903 371.182 188.603 371.082 188.303 371.182L122.103 378.282C107.503 380.282 94.1028 370.082 92.2028 355.482L84.4028 298.082C82.4028 283.582 92.6028 270.182 107.103 268.182Z" fill="#51CB4D"/>
<path opacity="0.5" d="M212.802 357.782C212.702 357.182 213.102 356.582 213.702 356.482L225.902 354.782C240.002 352.882 249.702 338.882 247.602 323.582L239.402 263.182C239.002 260.582 238.402 258.082 237.402 255.782C246.002 259.282 252.502 267.082 253.802 276.882L261.602 334.282C263.602 348.882 253.402 362.282 238.802 364.182L226.202 365.882C225.602 365.982 225.202 366.482 225.302 367.082L229.202 395.382C229.702 398.682 225.802 400.882 223.202 398.782L217.802 394.382L212.802 357.782Z" fill="#317B6C"/>
<path d="M182.202 303.582L162.602 305.882C161.602 305.982 160.602 305.382 160.202 304.482C159.802 303.582 160.102 302.482 160.902 301.782C168.802 295.782 172.602 289.382 172.302 282.282C172.202 279.782 174.202 277.582 176.602 277.382C179.102 277.082 181.602 277.882 183.602 279.482C185.602 281.082 186.802 283.382 187.102 285.882L187.202 286.682C187.902 292.882 186.502 296.982 183.802 302.482C183.602 303.082 183.002 303.482 182.202 303.582Z" fill="#EEC182"/>
<path d="M206.502 303.383C206.002 299.483 202.502 296.683 198.602 297.083L162.202 301.283C161.802 301.283 161.402 301.483 161.102 301.683C158.702 303.483 156.302 305.083 154.302 306.283C153.602 306.683 153.002 307.083 152.402 307.483C151.702 307.983 151.302 308.783 151.402 309.683L154.802 338.583C154.902 339.483 155.502 340.183 156.302 340.483C166.002 343.983 173.602 343.683 182.502 342.583C183.902 342.383 185.302 342.283 186.702 342.083C188.302 341.883 189.902 341.683 191.702 341.483L198.802 340.683C202.702 340.183 205.502 336.683 205.102 332.783C204.902 331.483 204.402 330.283 203.702 329.283C205.602 327.783 206.702 325.383 206.402 322.883C206.202 321.583 205.702 320.383 205.002 319.383C206.902 317.883 208.002 315.483 207.702 312.983C207.502 311.183 206.602 309.583 205.302 308.383C206.202 306.983 206.702 305.183 206.502 303.383Z" fill="#F1CD99"/>
<path d="M149.002 334.583L150.402 346.483L145.902 346.983L144.502 335.083C144.402 333.883 145.302 332.683 146.502 332.583C147.702 332.483 148.802 333.283 149.002 334.583Z" fill="#8DC1FC"/>
<path d="M149.002 334.583L150.402 346.483L145.902 346.983L144.502 335.083C144.402 333.883 145.302 332.683 146.502 332.583C147.702 332.483 148.802 333.283 149.002 334.583Z" fill="#8DC1FC"/>
<path d="M152.702 302.482L133.402 304.682C132.202 304.782 131.302 305.982 131.402 307.182L135.902 345.782C136.002 346.982 137.202 347.882 138.402 347.782L152.902 346.082C155.702 345.682 157.902 343.882 158.802 341.382C159.202 340.382 159.302 339.282 159.202 338.182L155.302 304.382C155.102 303.182 154.002 302.282 152.702 302.482Z" fill="#6BA2E8"/>
<path d="M148.902 334.383L150.302 346.483L145.802 346.983L144.402 334.883C144.302 333.683 145.202 332.483 146.402 332.383C147.602 332.283 148.802 333.183 148.902 334.383Z" fill="#8DC1FC"/>
<path d="M278.403 401.382C278.703 397.482 279.003 393.582 279.403 389.682C280.903 374.882 284.403 360.582 292.303 347.682C300.303 334.582 311.303 324.882 324.603 317.682C340.703 308.982 358.003 304.682 376.003 302.082C396.903 298.982 417.803 299.482 438.803 299.482C442.503 299.482 446.203 299.482 450.303 299.482C450.303 298.282 450.303 297.382 450.303 296.482C450.303 284.882 450.203 273.282 450.303 261.782C450.303 255.182 455.703 250.682 461.903 252.082C463.703 252.482 465.503 253.582 466.803 254.882C492.203 280.082 517.503 305.382 542.703 330.782C547.203 335.382 546.903 340.582 542.003 345.482C519.703 367.882 497.303 390.182 475.003 412.482C472.403 415.082 469.803 417.582 467.203 420.282C464.103 423.482 460.503 424.682 456.303 422.982C452.103 421.282 450.203 417.782 450.203 413.282C450.203 401.882 450.203 390.482 450.203 379.082C450.203 378.182 450.203 377.182 450.203 376.182C449.403 376.082 448.803 376.082 448.203 376.082C429.103 376.382 410.103 376.382 391.003 377.182C377.703 377.782 364.503 379.882 352.003 384.782C331.003 393.082 318.203 408.482 313.303 430.582C310.503 443.282 309.703 456.082 310.503 468.982C310.803 474.082 311.303 479.182 311.703 484.382C311.903 487.482 310.803 489.782 308.703 490.482C306.203 491.382 303.803 490.482 302.303 487.382C298.203 478.682 294.303 469.882 290.603 460.882C285.703 448.882 281.803 436.482 279.603 423.682C279.103 420.882 278.703 418.082 278.303 415.282C278.403 410.482 278.403 405.982 278.403 401.382Z" fill="#88E2E3"/>
<path opacity="0.5" d="M453.702 320.382C454.602 320.282 452.702 320.382 453.702 320.382C457.402 320.082 459.902 318.782 461.702 317.182C466.902 312.582 467.902 305.282 467.902 298.382V255.882C467.602 255.582 467.202 255.182 466.902 254.882C465.602 253.582 463.802 252.482 462.002 252.082C455.802 250.682 450.502 255.182 450.402 261.782C450.302 273.382 450.402 284.982 450.402 296.482C450.402 297.382 450.402 298.382 450.402 299.482C446.402 299.482 442.602 299.482 438.902 299.482C417.902 299.482 396.902 299.082 376.102 302.082C358.202 304.682 340.802 309.082 324.702 317.682C311.402 324.882 300.302 334.582 292.402 347.682C284.502 360.582 281.002 374.882 279.502 389.682C279.102 393.582 278.802 397.482 278.502 401.382V414.982C278.902 417.782 279.302 420.582 279.802 423.382C281.102 430.882 283.002 438.182 285.302 445.282C284.902 440.582 284.502 435.982 284.302 431.282C283.402 415.882 284.302 400.582 287.702 385.382C293.602 359.082 308.802 340.682 334.002 330.682C348.902 324.782 364.702 322.282 380.602 321.582C403.402 320.582 426.202 320.682 448.902 320.282C449.402 320.482 452.802 320.282 453.702 320.382Z" fill="#66AAAA"/>
</g>
<defs>
<clipPath id="clip0">
<rect width="600" height="600" fill="white"/>
</clipPath>
</defs>
</svg>
