<svg width="600" height="600" viewBox="0 0 600 600" fill="none" xmlns="http://www.w3.org/2000/svg">
<rect width="600" height="600" fill="white"/>
<path d="M392.529 474.471C495.38 417.261 532.575 287.858 475.607 185.442C418.638 83.025 289.079 46.3779 186.228 103.588C83.3771 160.798 46.182 290.201 103.15 392.617C160.119 495.034 289.678 531.681 392.529 474.471Z" fill="#E4FAF9"/>
<path fill-rule="evenodd" clip-rule="evenodd" d="M498.364 557.004C499.464 568.704 509.764 577.404 521.364 576.304C533.064 575.204 541.664 564.904 540.564 553.204C539.464 541.504 529.164 532.804 517.564 533.904C505.864 534.904 497.264 545.304 498.364 557.004Z" fill="#8ED9FF"/>
<path fill-rule="evenodd" clip-rule="evenodd" d="M489.564 83.1041C500.764 79.4041 506.864 67.4041 503.164 56.3041C499.564 45.2041 487.464 39.1041 476.264 42.8041C465.064 46.5041 458.964 58.5041 462.664 69.6041C466.364 80.7041 478.364 86.8041 489.564 83.1041Z" fill="#51CB4D"/>
<path fill-rule="evenodd" clip-rule="evenodd" d="M474.363 131.504C473.163 136.104 475.863 140.704 480.363 141.904C484.863 143.104 489.563 140.404 490.763 135.804C491.963 131.204 489.263 126.604 484.763 125.404C480.263 124.204 475.563 126.904 474.363 131.504Z" fill="#EF3C48"/>
<path opacity="0.93" fill-rule="evenodd" clip-rule="evenodd" d="M240.363 57.6044C239.163 62.2044 241.863 66.8044 246.363 68.0044C250.863 69.2044 255.563 66.5044 256.763 61.9044C257.963 57.3044 255.263 52.7044 250.763 51.5044C246.263 50.3044 241.563 53.0044 240.363 57.6044Z" fill="#528AFF"/>
<path opacity="0.93" fill-rule="evenodd" clip-rule="evenodd" d="M555.763 150.804L554.463 182.404C554.463 183.604 553.463 184.504 552.263 184.404C551.863 184.404 551.563 184.304 551.263 184.104L524.863 167.604C523.863 167.004 523.563 165.704 524.163 164.704C524.363 164.404 524.663 164.104 524.963 164.004L552.663 148.804C553.663 148.204 554.963 148.604 555.563 149.604C555.763 150.004 555.763 150.404 555.763 150.804Z" fill="#528AFF"/>
<path fill-rule="evenodd" clip-rule="evenodd" d="M57.7633 488.504L64.2633 519.404C64.4633 520.504 63.7633 521.704 62.6633 521.904C62.2633 522.004 61.9633 522.004 61.5633 521.804L31.9633 512.404C30.8633 512.004 30.2633 510.804 30.5633 509.704C30.6633 509.404 30.8633 509.004 31.1633 508.804L54.2633 487.304C55.1633 486.504 56.4633 486.504 57.2633 487.404C57.5633 487.804 57.7633 488.204 57.7633 488.504Z" fill="#F9D222"/>
<path fill-rule="evenodd" clip-rule="evenodd" d="M108.164 17.3043L114.664 48.2043C114.864 49.3043 114.164 50.5043 113.064 50.7043C112.664 50.8043 112.364 50.8043 111.964 50.6043L82.3637 41.2043C81.2637 40.8043 80.6637 39.6043 80.9637 38.5043C81.0637 38.2043 81.2637 37.8043 81.5637 37.6043L104.564 16.2043C105.464 15.4043 106.764 15.4043 107.564 16.3043C107.864 16.6043 108.064 16.9043 108.164 17.3043Z" fill="#F9D222"/>
<path fill-rule="evenodd" clip-rule="evenodd" d="M377.363 556.004L367.263 526.104C366.863 525.004 367.463 523.804 368.563 523.404C368.863 523.304 369.263 523.304 369.663 523.304L400.163 529.204C401.363 529.404 402.063 530.504 401.863 531.704C401.763 532.104 401.663 532.404 401.363 532.704L380.963 556.804C380.163 557.704 378.863 557.804 377.963 557.004C377.763 556.704 377.563 556.404 377.363 556.004Z" fill="#EF3C48"/>
<path d="M87.1621 205.904L216.362 84.404C222.662 78.504 232.162 77.904 239.062 83.004L382.362 188.604" fill="#77C6C6"/>
<path opacity="0.5" d="M115.762 179.005L87.1621 206.005C90.2621 204.605 89.8621 204.905 117.162 203.305L115.762 179.005Z" fill="#66AAAA"/>
<path opacity="0.5" d="M350.861 165.104L352.261 189.404C379.561 187.804 379.161 187.504 382.461 188.604L350.861 165.104Z" fill="#66AAAA"/>
<path d="M377.462 188.004L91.962 204.704C84.562 205.104 78.962 211.504 79.362 218.804L91.062 417.604C91.462 425.004 97.8619 430.604 105.162 430.204L390.662 413.404C398.062 413.004 403.662 406.604 403.262 399.304L391.562 200.604C391.162 193.204 384.862 187.504 377.462 188.004Z" fill="#88E2E3"/>
<path opacity="0.5" d="M105.662 416.803L93.962 218.003C93.562 210.603 99.162 204.303 106.562 203.903L91.962 204.803C84.562 205.203 78.962 211.603 79.362 218.903L91.062 417.603C91.462 425.003 97.8619 430.603 105.162 430.203L119.762 429.303C112.462 429.803 106.062 424.103 105.662 416.803Z" fill="#66AAAA"/>
<path opacity="0.5" d="M117.262 203.304L92.0621 204.804C87.6621 205.104 83.8621 207.404 81.6621 210.904L119.462 238.904L117.262 203.304Z" fill="#66AAAA"/>
<path opacity="0.5" d="M81.5625 210.804L94.1625 220.104L94.0625 218.004C93.6625 210.604 99.2625 204.304 106.662 203.904L92.0625 204.804C87.6625 205.004 83.8625 207.304 81.5625 210.804Z" fill="#66AAAA"/>
<path opacity="0.5" d="M377.462 188.004L352.262 189.504L354.362 225.104C354.362 225.204 354.362 225.104 354.362 225.104L388.562 192.904C385.962 189.604 381.862 187.704 377.462 188.004Z" fill="#66AAAA"/>
<path d="M163.463 272.104C175.963 259.704 183.263 242.104 182.063 223.204C180.563 199.204 165.863 179.104 145.463 169.604L151.363 263.104L163.463 272.104Z" fill="#51CB4D"/>
<path d="M300.863 276.004L304.363 272.704C303.063 273.704 301.963 274.804 300.863 276.004Z" fill="#51CB4D"/>
<path d="M246.663 193.104C232.363 194.004 221.463 206.304 222.363 220.704C223.263 235.104 235.563 245.904 249.963 245.004C264.263 244.104 275.163 231.804 274.263 217.404C273.363 203.004 260.963 192.204 246.663 193.104Z" fill="#51CB4D"/>
<path d="M242.662 331.304L284.162 291.904L197.262 297.304L242.662 331.304Z" fill="#51CB4D"/>
<path d="M334.263 100.404L123.963 113.604C123.763 113.604 123.663 113.604 123.463 113.704L130.263 113.304C136.663 112.904 142.163 117.804 142.563 124.204L144.263 150.604L286.463 141.604C287.163 153.404 297.363 162.404 309.163 161.704L315.463 262.104L354.363 225.104L347.263 112.004C346.963 105.204 341.063 100.004 334.263 100.404Z" fill="#51CB4D"/>
<path d="M286.462 141.604L144.262 150.504L145.462 169.504C165.862 179.004 180.562 199.004 182.062 223.104C183.262 242.104 175.962 259.604 163.462 272.004L197.262 297.305L284.162 291.805L300.862 275.904C301.862 274.704 303.062 273.604 304.362 272.604L315.562 262.004L309.262 161.604C297.462 162.404 287.262 153.404 286.462 141.604ZM249.962 245.004C235.662 245.904 223.262 235.005 222.362 220.704C221.462 206.404 232.362 194.004 246.662 193.104C260.962 192.204 273.362 203.104 274.262 217.404C275.162 231.704 264.262 244.104 249.962 245.004Z" fill="#B8F259"/>
<path opacity="0.5" d="M114.763 163.804L114.063 152.504L112.463 126.704C112.063 120.104 116.963 114.304 123.563 113.704H123.263C116.863 114.104 111.963 119.604 112.363 126.004L119.463 239.104L114.763 163.804Z" fill="#317B6C"/>
<path d="M142.663 124.104C142.263 117.704 136.763 112.804 130.363 113.204L123.463 113.704C116.863 114.404 111.963 120.104 112.363 126.704L113.963 152.404L144.263 150.504L142.663 124.104Z" fill="#51CB4D"/>
<path opacity="0.5" d="M142.663 124.104C142.263 117.704 136.763 112.804 130.363 113.204L123.463 113.704C116.863 114.404 111.963 120.104 112.363 126.704L113.963 152.404L144.263 150.504L142.663 124.104Z" fill="#317B6C"/>
<path d="M145.462 169.604C136.162 165.304 125.662 163.104 114.762 163.804L119.462 239.204L151.362 263.004L145.462 169.604Z" fill="#51CB4D"/>
<path opacity="0.5" d="M145.462 169.604C136.162 165.304 125.662 163.104 114.762 163.804L119.462 239.204L151.362 263.004L145.462 169.604Z" fill="#317B6C"/>
<path d="M145.463 169.604L144.263 150.604L113.963 152.504L114.663 163.804C125.763 163.104 136.163 165.204 145.463 169.604Z" fill="#B8F259"/>
<path opacity="0.5" d="M145.463 169.604L144.263 150.604L113.963 152.504L114.663 163.804C125.763 163.104 136.163 165.204 145.463 169.604Z" fill="#317B6C"/>
<path d="M194.563 320.504L164.063 372.404C162.663 374.704 162.763 377.704 164.263 380.004L197.963 432.004C201.263 437.204 209.163 436.004 210.863 430.104L241.963 325.304L194.563 320.504Z" fill="#A21922"/>
<path d="M224.862 280.604C213.762 272.504 172.362 247.804 156.662 248.804C140.962 249.804 136.662 266.304 137.062 271.404C137.362 276.504 138.562 295.904 138.562 295.904C139.362 308.304 140.162 321.704 140.562 328.104C140.962 334.504 142.462 350.504 167.262 344.404C192.062 338.404 230.462 324.104 230.462 324.104L224.862 280.604Z" fill="#EF3C48"/>
<path opacity="0.35" d="M156.862 311.704C146.862 310.404 139.562 321.604 140.462 328.104C140.862 334.504 142.362 350.504 167.162 344.404C191.962 338.404 227.562 325.304 227.562 325.304C212.662 321.104 166.962 313.004 156.862 311.704Z" fill="#A21922"/>
<path d="M294.363 314.403L330.963 362.203C332.663 364.403 332.963 367.303 331.763 369.703L304.663 425.403C301.963 430.903 294.063 430.803 291.563 425.103L247.963 324.903L294.363 314.403Z" fill="#A21922"/>
<path d="M259.361 322.404C259.361 322.404 299.161 331.904 324.561 334.804C349.961 337.704 349.561 321.704 349.161 315.304C348.761 308.904 347.961 295.504 347.161 283.104C347.161 283.104 345.961 263.704 345.661 258.604C345.361 253.504 339.161 237.604 323.361 238.604C307.661 239.604 269.561 269.104 259.561 278.504L259.361 322.404Z" fill="#EF3C48"/>
<path opacity="0.35" d="M262.262 323.204C262.262 323.204 299.162 331.904 324.462 334.804C349.862 337.704 349.462 321.704 349.062 315.304C349.262 308.704 340.662 298.504 330.862 301.004C321.062 303.604 276.562 317.204 262.262 323.204Z" fill="#A21922"/>
<path d="M241.962 275.804L227.262 276.704C219.262 277.204 213.462 284.304 214.462 292.204L217.862 317.704C218.862 324.804 225.162 330.004 232.362 329.604L245.162 328.804L257.962 328.004C265.162 327.604 270.762 321.604 270.862 314.404L271.162 288.704C271.262 280.704 264.562 274.304 256.562 274.804L241.962 275.804Z" fill="#8F0E16"/>
<path d="M570.664 285.504C572.964 269.204 570.364 241.504 566.864 229.604L561.564 246.904L552.064 238.004C559.564 259.704 557.464 279.704 553.164 300.204C539.864 356.005 465.064 322.605 422.764 388.305C404.864 412.704 394.264 461.105 360.164 463.805C368.164 435.305 367.164 411.305 347.764 388.204C335.664 375.104 312.964 371.905 298.964 382.805C265.064 414.704 299.164 470.004 339.264 477.104C327.264 504.104 308.664 533.104 277.464 538.305C264.964 542.005 237.064 535.704 231.664 527.404L219.164 514.204L230.464 535.805L217.764 534.805C240.964 556.005 264.664 557.105 290.864 550.005C321.564 540.305 341.764 509.204 354.664 478.904C426.564 478.404 408.564 376.904 490.564 357.604C532.364 348.104 566.964 339.204 570.664 285.504ZM300.264 414.604C300.364 409.404 301.064 404.504 303.364 399.904C303.564 399.604 303.764 399.304 303.864 399.004C310.864 387.404 328.764 389.204 337.164 398.404C352.664 416.104 352.864 442.105 344.864 463.305C322.264 459.505 300.264 439.605 300.164 415.805C300.164 415.805 300.164 415.805 300.164 415.704C300.264 415.404 300.264 415.004 300.264 414.604Z" fill="#F9D222"/>
</svg>
