<svg width="22" height="22" fill="none" xmlns="http://www.w3.org/2000/svg"><g clip-path="url(#clip0)" fill="#124570"><path d="M12.32 16.007a.647.647 0 10-1.29.09l.043.623a.647.647 0 101.29-.09l-.043-.623zm3.065-1.592a.647.647 0 00-1.183.522l.237.537a.647.647 0 101.184-.522l-.238-.537zm2.995-1.562a.647.647 0 00-.936.893l.431.452a.647.647 0 10.936-.893l-.43-.452zm-6.834 6.497a.647.647 0 00-.614.677l.031.645a.647.647 0 101.293-.063l-.032-.645a.647.647 0 00-.678-.614zm3.76-.909a.647.647 0 10-1.24.368l.172.583a.647.647 0 001.24-.368l-.172-.583zm3.04-1.521a.647.647 0 10-1.108.669l.314.52a.647.647 0 101.108-.668l-.314-.52zm3.467-1.034l-.456-.458a.647.647 0 10-.917.912l.455.458a.647.647 0 10.918-.912z"/><path d="M18.56 8.597l-.195-.44a1.728 1.728 0 00-1.843-1.002l-.121-.271a3.748 3.748 0 00-4.018-2.186l-.425-.966A6.245 6.245 0 006.242.004 6.25 6.25 0 000 6.248V21.35c0 .357.29.647.647.647h2.587c.358 0 .647-.29.647-.647V6.248a2.363 2.363 0 014.524-.952l.457 1.037a3.751 3.751 0 00-.903 4.309l.12.271a1.725 1.725 0 00-.486 2.04l.195.44a1.911 1.911 0 002.525.97l7.279-3.24a1.914 1.914 0 00.969-2.526zM15.22 7.41l.097.217-6.079 2.706-.096-.217a2.46 2.46 0 011.25-3.256l1.571-.7a2.459 2.459 0 013.257 1.25zM6.243 2.592a3.66 3.66 0 00-3.656 3.656v14.456H1.294V6.248c0-2.73 2.22-4.95 4.95-4.95 1.96 0 3.74 1.16 4.53 2.956l.375.852-1.182.527-.378-.858a3.657 3.657 0 00-3.346-2.183zM17.065 9.94l-7.278 3.24a.618.618 0 01-.817-.313l-.196-.44a.431.431 0 01.22-.57l7.62-3.392a.432.432 0 01.57.219l.195.44a.62.62 0 01-.314.816z"/></g><defs><clipPath id="clip0"><path fill="#fff" d="M0 0h22v22H0z"/></clipPath></defs></svg>