<svg width="36" height="28" fill="none" xmlns="http://www.w3.org/2000/svg"><path d="M35.25 14.433a4.315 4.315 0 00-2.814-4.04V.459H3.355v9.936a4.313 4.313 0 00-2.813 4.039v8.291h.965v4.593h32.778v-4.593h.965v-8.291zM5.389 2.493h25.014v7.634h-2.034V4.526H7.422v5.601H5.39V2.492zm11.49 7.634H9.456V6.56h7.423v3.567zm2.034-3.567h7.422v3.567h-7.422V6.56zM2.575 14.433a2.275 2.275 0 012.272-2.272h26.097a2.275 2.275 0 012.272 2.272v6.258H2.576v-6.258zm29.676 10.85H3.541v-2.559h28.71v2.56z" fill="#124570"/></svg>