<svg width="22" height="22" fill="none" xmlns="http://www.w3.org/2000/svg"><path d="M20.994 10.666a.586.586 0 00-1.118-.226 6.284 6.284 0 01-2.274 2.638 6.244 6.244 0 01-3.428 1.019 6.278 6.278 0 01-6.27-6.271c0-1.224.351-2.409 1.018-3.427a6.284 6.284 0 012.637-2.275.586.586 0 00-.225-1.118A9.935 9.935 0 003.93 3.93 9.935 9.935 0 001 11a9.935 9.935 0 002.929 7.071A9.935 9.935 0 0011 21a9.935 9.935 0 007.071-2.929 9.935 9.935 0 002.923-7.405zm-3.752 6.576A8.77 8.77 0 0111 19.828a8.77 8.77 0 01-6.242-2.586A8.77 8.77 0 012.172 11a8.77 8.77 0 012.586-6.242 8.768 8.768 0 014.348-2.384c-.44.41-.832.874-1.165 1.383a7.413 7.413 0 00-1.21 4.069c0 4.104 3.34 7.443 7.443 7.443a7.413 7.413 0 004.069-1.21 7.48 7.48 0 001.383-1.165 8.768 8.768 0 01-2.384 4.348z" fill="#124570" stroke="#124570" stroke-width=".3"/><path d="M11.365 5.767a.586.586 0 00.171.594l1.183 1.067-.28 1.757a.586.586 0 00.854.61l1.487-.791 1.487.79a.586.586 0 00.854-.609l-.28-1.757 1.183-1.067a.586.586 0 00-.285-1.011l-1.573-.294-.88-1.499a.586.586 0 00-1.01 0l-.882 1.499-1.573.294a.586.586 0 00-.456.417zm2.507.391a.586.586 0 00.397-.279l.511-.869.511.87a.59.59 0 00.398.279l.67.125-.54.487a.586.586 0 00-.185.527l.145.91-.724-.385a.586.586 0 00-.55 0l-.723.385.145-.91a.586.586 0 00-.186-.527l-.54-.487.67-.125z" fill="#124570" stroke="#124570" stroke-width=".3"/></svg>