<svg width="18" height="18" fill="none" xmlns="http://www.w3.org/2000/svg"><path d="M9 14.185a.879.879 0 100-1.757.879.879 0 000 1.757z" fill="#CAD1DB"/><path d="M9 0C4.026 0 0 4.025 0 9c0 4.974 4.025 9 9 9 4.974 0 9-4.025 9-9 0-4.974-4.025-9-9-9zm0 16.594A7.59 7.59 0 011.406 9 7.59 7.59 0 019 1.406 7.59 7.59 0 0116.594 9 7.59 7.59 0 019 16.594z" fill="#CAD1DB"/><path d="M9 4.518A2.816 2.816 0 006.187 7.33a.703.703 0 101.407 0c0-.775.63-1.406 1.406-1.406.775 0 1.406.63 1.406 1.406 0 .775-.63 1.406-1.406 1.406a.703.703 0 00-.703.703v1.758a.703.703 0 001.406 0v-1.143a2.818 2.818 0 002.11-2.724A2.816 2.816 0 009 4.518z" fill="#CAD1DB"/></svg>