<svg width="41" height="41" fill="none" xmlns="http://www.w3.org/2000/svg"><path d="M41 14.35h-1.367V6.833H1.367v7.517H0v15.717h1.367v2.05h1.366v.683a.684.684 0 000 1.367H4.1a.684.684 0 000-1.367v-.683h1.367v-2.05h30.066v2.05H36.9v.683a.684.684 0 000 1.367h1.367a.684.684 0 000-1.367v-.683h1.366v-2.05H41V14.35zM27.333 8.2h10.934v6.15h-2.734v4.783h-8.2V8.2zM5.467 20.5h14.35v4.1H5.467v-4.1zm15.716 0h14.35v4.1h-14.35v-4.1zm-6.15-12.3h10.934v10.933H15.033V8.2zm-12.3 0h10.934v10.933h-8.2V14.35H2.733V8.2zM4.1 30.75H2.733v-.683H4.1v.683zm34.167 0H36.9v-.683h1.367v.683zm1.366-2.05H1.367V15.717H4.1v10.25h32.8v-10.25h2.733V28.7z" fill="#124570"/></svg>