<svg width="15" height="15" fill="none" xmlns="http://www.w3.org/2000/svg"><g filter="url(#filter0_d)" clip-path="url(#clip0)"><path d="M3.898 9.759l-.739 4.53c-.059.36.325.63.643.454l3.845-2.125 3.844 2.126a.438.438 0 00.643-.454l-.739-4.53 3.127-3.205a.438.438 0 00-.247-.738l-4.304-.658L8.042 1.05c-.144-.306-.647-.306-.792 0L5.322 5.16l-4.304.657a.437.437 0 00-.247.738L3.898 9.76z" fill="#FFA800"/></g><defs><clipPath id="clip0"><path fill="#fff" d="M.646.797h14v14h-14z"/></clipPath><filter id="filter0_d" x="-9.354" y="-5.18" width="34" height="33.979" filterUnits="userSpaceOnUse" color-interpolation-filters="sRGB"><feFlood flood-opacity="0" result="BackgroundImageFix"/><feColorMatrix in="SourceAlpha" values="0 0 0 0 0 0 0 0 0 0 0 0 0 0 0 0 0 0 127 0"/><feOffset dy="4"/><feGaussianBlur stdDeviation="5"/><feColorMatrix values="0 0 0 0 0.145833 0 0 0 0 0.145226 0 0 0 0 0.145226 0 0 0 1 0"/><feBlend in2="BackgroundImageFix" result="effect1_dropShadow"/><feBlend in="SourceGraphic" in2="effect1_dropShadow" result="shape"/></filter></defs></svg>